<svg xmlns="http://www.w3.org/2000/svg" xmlns:xlink="http://www.w3.org/1999/xlink" preserveAspectRatio="xMidYMid" width="51" height="51" viewBox="0 0 51 51">
  <defs>
    <style>
      .cls-1 {
        fill: #000;
        fill-rule: evenodd;
      }
    </style>
  </defs>
  <path d="M39.144,12.565 C38.954,12.565 38.773,12.535 38.591,12.509 C37.357,15.115 35.942,18.461 35.085,20.528 C37.402,20.930 39.334,22.093 40.624,23.927 C42.570,26.693 42.837,30.643 41.356,34.763 C38.004,44.089 25.709,49.550 25.187,49.778 L24.646,50.014 L24.106,49.778 C23.584,49.550 11.289,44.089 7.936,34.763 C6.455,30.643 6.722,26.693 8.668,23.927 C10.036,21.983 12.123,20.787 14.628,20.461 C13.774,18.403 12.390,15.134 11.176,12.564 C9.052,12.557 7.331,10.835 7.331,8.710 C7.331,6.581 9.058,4.855 11.187,4.855 C13.317,4.855 15.044,6.581 15.044,8.710 C15.044,9.574 14.749,10.363 14.269,11.005 C15.522,11.824 17.046,12.361 18.560,12.043 C20.245,11.689 21.710,10.285 22.864,7.981 C21.890,7.281 21.249,6.146 21.249,4.855 C21.249,2.726 22.976,1.000 25.105,1.000 C27.235,1.000 28.962,2.726 28.962,4.855 C28.962,6.297 28.160,7.539 26.987,8.200 C28.124,10.375 29.550,11.700 31.181,12.043 C32.859,12.394 34.556,11.704 35.875,10.734 C35.509,10.144 35.288,9.455 35.288,8.710 C35.288,6.581 37.014,4.855 39.144,4.855 C41.274,4.855 43.000,6.581 43.000,8.710 C43.000,10.839 41.274,12.565 39.144,12.565 ZM11.187,6.782 C10.123,6.782 9.259,7.645 9.259,8.710 C9.259,9.774 10.123,10.637 11.187,10.637 C12.252,10.637 13.115,9.774 13.115,8.710 C13.115,7.645 12.252,6.782 11.187,6.782 ZM10.462,25.192 C8.986,27.291 8.836,30.434 10.051,33.814 C12.723,41.247 22.235,46.397 24.645,47.563 C27.055,46.395 36.575,41.232 39.241,33.814 C40.456,30.434 40.306,27.291 38.829,25.192 C37.682,23.562 35.845,22.700 33.516,22.700 C28.117,22.700 25.898,26.802 25.877,26.844 L24.646,26.294 L23.416,26.844 C23.328,26.681 21.115,22.700 15.776,22.700 C13.447,22.700 11.609,23.562 10.462,25.192 ZM27.033,4.855 C27.033,3.790 26.170,2.927 25.105,2.927 C24.041,2.927 23.177,3.790 23.177,4.855 C23.177,5.919 24.041,6.782 25.105,6.782 C26.170,6.782 27.033,5.919 27.033,4.855 ZM30.626,14.111 C28.933,13.756 26.709,12.213 24.870,8.997 C23.032,12.213 20.689,13.876 18.996,14.232 C17.649,14.514 15.666,14.284 14.283,13.803 C15.331,16.176 16.416,18.899 17.013,20.422 C20.870,20.719 23.335,22.683 24.646,24.169 C26.010,22.624 28.618,20.558 32.748,20.393 C33.415,18.893 34.676,16.067 35.757,13.620 C34.373,14.101 31.973,14.394 30.626,14.111 ZM39.144,6.782 C38.079,6.782 37.216,7.645 37.216,8.710 C37.216,9.774 38.079,10.637 39.144,10.637 C40.209,10.637 41.072,9.774 41.072,8.710 C41.072,7.645 40.209,6.782 39.144,6.782 Z" class="cls-1"/>
  <path d="M23.720,24.130 L27.576,24.130 L32.396,29.912 L23.720,33.767 L28.540,36.658 L20.828,41.477 L24.684,36.658 L18.900,33.767 L26.612,29.912 L18.900,23.166 L23.720,24.130 Z" class="cls-1"/>
</svg>
