<svg xmlns="http://www.w3.org/2000/svg" width="51" height="51" viewBox="0 0 51 51">

  <path id="face" opacity="0.20" d="M17,27c0-3,8.375-7,8.375-10,1,4,8.625,7,8.625,10,0-3,5-7,5-15C39,7,34,1,25,1S12,8,12,12C12,20,17,24,17,27Z"/>
  <path id="merged" d="M39,41.275c-1.49,0-3.955-2.942-5.468-6.113a5.63,5.63,0,0,1-2.167,1.823,2.563,2.563,0,0,1-1.378,3.084A21.008,21.008,0,0,1,31,45c0,3-1.531,6-5.531,6S20,48,20,45c0-1.993.868-3.117,1.168-4.81a2.6,2.6,0,0,1-1.536-3.2,5.629,5.629,0,0,1-2.164-1.822C15.954,38.334,13.49,41.275,12,41.275,9.736,41.275.851,31.267,0.851,24.9c0-6.109,7.494-24.3,15.164-22.259A16.182,16.182,0,0,1,25.5,0a16.182,16.182,0,0,1,9.486,2.637C42.656,0.6,50.149,18.787,50.149,24.9,50.149,31.267,41.264,41.275,39,41.275ZM25.469,49c2,0,3.531-2,3.531-4s-1-4-1-7H26.375L25.5,45l-0.875-7H23c0,2-1,5-1,7S23.469,49,25.469,49ZM25.5,2C18,2,13,6.1,13,13c0,7,5,9,5,16,0,4.886,2,7,7.5,7S33,34,33,29c0-7,5-10,5-16C38,6.1,33,2,25.5,2ZM30,13a3,3,0,1,1,3,3A3,3,0,0,1,30,13Zm4,0a1,1,0,1,0-1-1A1,1,0,0,0,34,13ZM25.375,33s-4-2.119-4-3.5,1.791-2.5,4-2.5,4,1.119,4,2.5S25.375,33,25.375,33ZM18,16a3,3,0,1,1,3-3A3,3,0,0,1,18,16Zm1-5a1,1,0,1,0,1,1A1,1,0,0,0,19,11Z"/>
</svg>
