<svg xmlns="http://www.w3.org/2000/svg" xmlns:xlink="http://www.w3.org/1999/xlink" preserveAspectRatio="xMidYMid" width="51" height="51" viewBox="0 0 51 51">
  <defs>
    <style>
      .cls-1 {
        fill: #000;
        fill-rule: evenodd;
      }
    </style>
  </defs>
  <g>
    <path d="M22.664,15.795 L27.878,23.335 L22.865,30.649 L28.814,38.482 L28.165,40.948 C27.875,41.182 27.689,41.540 27.736,41.942 C27.748,42.044 27.792,42.133 27.830,42.224 L26.456,47.443 C26.364,47.513 26.302,47.559 26.303,47.558 C26.330,47.575 1.460,37.073 0.056,24.193 C-0.043,23.289 -0.076,22.425 -0.065,21.590 C0.117,21.674 0.312,21.727 0.522,21.703 C1.149,21.630 1.589,21.074 1.516,20.450 C1.445,19.841 0.888,19.385 0.262,19.457 C0.194,19.465 0.138,19.500 0.075,19.519 C0.335,17.451 0.932,15.638 1.790,14.115 C1.787,14.175 1.768,14.231 1.776,14.292 C1.846,14.903 2.404,15.357 3.030,15.285 C3.638,15.214 4.092,14.642 4.021,14.032 C3.948,13.407 3.377,12.970 2.770,13.041 C2.630,13.057 2.504,13.105 2.386,13.165 C7.036,6.434 17.135,6.449 22.598,15.981 C22.618,15.916 22.644,15.860 22.664,15.795 ZM25.080,37.245 C25.688,37.175 26.144,36.619 26.071,35.994 C26.000,35.383 25.427,34.931 24.820,35.001 C24.193,35.074 23.755,35.644 23.826,36.255 C23.898,36.879 24.454,37.318 25.080,37.245 ZM4.173,25.130 C3.547,25.203 3.109,25.773 3.179,26.382 C3.252,27.008 3.808,27.447 4.434,27.374 C5.041,27.304 5.497,26.748 5.425,26.121 C5.354,25.512 4.781,25.060 4.173,25.130 ZM6.675,18.713 C6.068,18.783 5.614,19.357 5.684,19.966 C5.757,20.590 6.328,21.029 6.936,20.958 C7.562,20.885 8.002,20.330 7.930,19.705 C7.859,19.096 7.301,18.640 6.675,18.713 ZM7.090,32.071 C7.162,32.696 7.734,33.134 8.341,33.063 C8.968,32.991 9.408,32.435 9.335,31.810 C9.263,31.185 8.707,30.745 8.081,30.818 C7.473,30.889 7.017,31.446 7.090,32.071 ZM9.183,12.296 C8.557,12.369 8.116,12.923 8.189,13.548 C8.260,14.158 8.817,14.613 9.444,14.540 C10.051,14.469 10.505,13.898 10.434,13.287 C10.362,12.662 9.791,12.226 9.183,12.296 ZM10.587,24.386 C9.961,24.458 9.522,25.028 9.593,25.637 C9.666,26.264 10.221,26.702 10.847,26.629 C11.455,26.559 11.911,26.003 11.838,25.377 C11.767,24.767 11.194,24.315 10.587,24.386 ZM10.999,37.744 C11.071,38.369 11.627,38.807 12.253,38.735 C12.861,38.664 13.317,38.108 13.244,37.483 C13.173,36.873 12.600,36.420 11.993,36.491 C11.366,36.564 10.928,37.133 10.999,37.744 ZM13.089,17.968 C12.481,18.039 12.027,18.612 12.098,19.221 C12.170,19.846 12.742,20.284 13.349,20.213 C13.976,20.141 14.416,19.585 14.343,18.960 C14.272,18.351 13.715,17.895 13.089,17.968 ZM13.503,31.326 C13.576,31.951 14.147,32.389 14.755,32.319 C15.381,32.246 15.821,31.690 15.749,31.065 C15.676,30.441 15.121,30.001 14.494,30.073 C13.887,30.144 13.431,30.701 13.503,31.326 ZM15.597,11.551 C14.970,11.624 14.530,12.178 14.603,12.803 C14.673,13.414 15.231,13.868 15.857,13.795 C16.465,13.725 16.919,13.153 16.848,12.542 C16.775,11.917 16.204,11.481 15.597,11.551 ZM17.000,23.641 C16.374,23.714 15.936,24.283 16.006,24.893 C16.079,25.519 16.635,25.957 17.261,25.885 C17.869,25.814 18.324,25.258 18.252,24.632 C18.181,24.023 17.608,23.570 17.000,23.641 ZM17.412,36.999 C17.485,37.624 18.040,38.063 18.667,37.990 C19.274,37.919 19.730,37.363 19.658,36.739 C19.587,36.128 19.014,35.676 18.406,35.746 C17.780,35.819 17.341,36.389 17.412,36.999 ZM19.502,17.223 C18.895,17.294 18.441,17.867 18.511,18.476 C18.584,19.101 19.155,19.539 19.763,19.469 C20.389,19.396 20.829,18.840 20.757,18.216 C20.686,17.606 20.128,17.151 19.502,17.223 ZM20.908,29.329 C20.300,29.399 19.844,29.957 19.917,30.581 C19.989,31.206 20.561,31.645 21.169,31.574 C21.795,31.501 22.235,30.945 22.162,30.321 C22.090,29.696 21.534,29.256 20.908,29.329 ZM21.323,42.687 C21.393,43.296 21.967,43.750 22.574,43.679 C23.200,43.606 23.639,43.035 23.568,42.426 C23.495,41.801 22.940,41.363 22.314,41.435 C21.706,41.506 21.250,42.062 21.323,42.687 ZM23.675,25.140 C24.282,25.069 24.738,24.513 24.665,23.887 C24.595,23.278 24.022,22.826 23.414,22.896 C22.788,22.969 22.349,23.539 22.420,24.148 C22.493,24.774 23.048,25.213 23.675,25.140 Z" class="cls-1"/>
    <path d="M50.384,20.736 C50.601,20.750 50.798,20.686 50.976,20.592 C51.026,21.394 51.039,22.227 50.990,23.102 C50.302,35.382 28.292,46.789 26.226,47.829 L28.504,42.936 C28.608,43.418 29.009,43.809 29.518,43.841 C30.147,43.881 30.680,43.396 30.718,42.784 C30.758,42.157 30.289,41.626 29.660,41.587 C29.442,41.573 29.243,41.641 29.062,41.740 L30.138,39.428 L25.675,30.663 L31.908,24.356 L28.116,16.010 C32.881,6.770 42.962,6.022 48.012,12.291 C47.909,12.251 47.805,12.212 47.691,12.204 C47.061,12.165 46.529,12.632 46.490,13.260 C46.451,13.873 46.919,14.419 47.548,14.459 C48.159,14.497 48.707,14.015 48.746,13.402 C48.749,13.356 48.731,13.317 48.727,13.273 C49.673,14.727 50.368,16.489 50.733,18.536 C50.664,18.517 50.600,18.485 50.526,18.480 C49.916,18.442 49.367,18.925 49.329,19.537 C49.289,20.165 49.774,20.698 50.384,20.736 ZM30.428,29.423 C29.817,29.384 29.269,29.852 29.230,30.480 C29.190,31.107 29.675,31.640 30.285,31.679 C30.914,31.718 31.446,31.250 31.486,30.622 C31.525,29.994 31.057,29.463 30.428,29.423 ZM31.195,17.260 C30.584,17.222 30.036,17.705 29.997,18.317 C29.958,18.945 30.442,19.478 31.053,19.516 C31.682,19.556 32.214,19.087 32.253,18.460 C32.292,17.848 31.824,17.300 31.195,17.260 ZM32.069,36.757 C32.029,37.385 32.498,37.915 33.127,37.955 C33.737,37.993 34.285,37.527 34.325,36.899 C34.363,36.286 33.880,35.739 33.269,35.700 C32.640,35.661 32.107,36.143 32.069,36.757 ZM32.836,24.593 C32.796,25.222 33.265,25.753 33.894,25.792 C34.505,25.831 35.052,25.365 35.092,24.735 C35.131,24.123 34.647,23.577 34.037,23.538 C33.407,23.498 32.875,23.981 32.836,24.593 ZM34.803,11.391 C34.174,11.352 33.642,11.819 33.602,12.447 C33.564,13.060 34.031,13.606 34.661,13.646 C35.271,13.684 35.820,13.202 35.858,12.589 C35.898,11.961 35.413,11.430 34.803,11.391 ZM35.674,30.886 C35.634,31.514 36.119,32.047 36.729,32.085 C37.358,32.125 37.890,31.656 37.930,31.029 C37.969,30.401 37.501,29.869 36.871,29.829 C36.261,29.791 35.713,30.258 35.674,30.886 ZM37.639,17.667 C37.028,17.628 36.480,18.112 36.441,18.724 C36.401,19.352 36.886,19.884 37.496,19.923 C38.126,19.963 38.657,19.494 38.697,18.866 C38.736,18.254 38.268,17.707 37.639,17.667 ZM38.512,37.164 C38.473,37.791 38.942,38.322 39.571,38.361 C40.181,38.400 40.729,37.934 40.768,37.306 C40.807,36.692 40.323,36.145 39.713,36.107 C39.084,36.067 38.551,36.550 38.512,37.164 ZM39.280,25.000 C39.240,25.629 39.709,26.159 40.338,26.199 C40.949,26.237 41.496,25.771 41.536,25.142 C41.574,24.530 41.091,23.983 40.480,23.945 C39.851,23.905 39.318,24.388 39.280,25.000 ZM41.247,11.798 C40.617,11.758 40.086,12.225 40.046,12.853 C40.007,13.467 40.475,14.013 41.105,14.052 C41.715,14.091 42.263,13.609 42.302,12.995 C42.342,12.368 41.857,11.836 41.247,11.798 ZM42.117,31.293 C42.078,31.920 42.562,32.453 43.173,32.492 C43.802,32.532 44.334,32.063 44.373,31.435 C44.413,30.807 43.944,30.276 43.315,30.236 C42.705,30.197 42.157,30.665 42.117,31.293 ZM44.082,18.074 C43.472,18.035 42.923,18.518 42.885,19.130 C42.845,19.758 43.330,20.291 43.940,20.329 C44.569,20.369 45.101,19.900 45.141,19.273 C45.179,18.661 44.712,18.113 44.082,18.074 ZM46.924,24.351 C46.295,24.311 45.762,24.794 45.724,25.406 C45.684,26.035 46.153,26.566 46.782,26.605 C47.392,26.644 47.940,26.178 47.980,25.549 C48.018,24.937 47.535,24.390 46.924,24.351 Z" class="cls-1"/>
  </g>
</svg>
