<svg id="Hollow" xmlns="http://www.w3.org/2000/svg" width="51" height="51" viewBox="0 0 51 51">
  <metadata><?xpacket begin="﻿" id="W5M0MpCehiHzreSzNTczkc9d"?>
<x:xmpmeta xmlns:x="adobe:ns:meta/" x:xmptk="Adobe XMP Core 5.6-c138 79.159824, 2016/09/14-01:09:01        ">
   <rdf:RDF xmlns:rdf="http://www.w3.org/1999/02/22-rdf-syntax-ns#">
      <rdf:Description rdf:about=""/>
   </rdf:RDF>
</x:xmpmeta>
                                                                                                    
                                                                                                    
                                                                                                    
                                                                                                    
                                                                                                    
                                                                                                    
                                                                                                    
                                                                                                    
                                                                                                    
                                                                                                    
                                                                                                    
                                                                                                    
                                                                                                    
                                                                                                    
                                                                                                    
                                                                                                    
                                                                                                    
                                                                                                    
                                                                                                    
                                                                                                    
                           
<?xpacket end="w"?></metadata>
<defs>
    <style>
      .cls-1 {
        fill-rule: evenodd;
      }
    </style>
  </defs>
  <path id="Merged" class="cls-1" d="M43.167,24.342l-6.8,4.477a11.323,11.323,0,0,1-1.6,10.469l2.3,6.289a4,4,0,0,1-7.515,2.743L27.882,43.75a11.465,11.465,0,0,1-4.763,0l-1.668,4.569a4,4,0,0,1-7.515-2.743l2.3-6.289a11.409,11.409,0,0,1-1.787-9.931L6.833,24.342a4,4,0,1,1,4.4-6.68l6.417,4.227a11.427,11.427,0,0,1-2.9-12.446A4.986,4.986,0,1,1,21.442,2.75a11.345,11.345,0,0,1,8.115,0A4.986,4.986,0,1,1,36.25,9.442,11.4,11.4,0,0,1,34.758,20.3l4.008-2.641A4,4,0,1,1,43.167,24.342ZM17,2a2.991,2.991,0,0,0-1.386,5.646,11.538,11.538,0,0,1,4.032-4.032A2.988,2.988,0,0,0,17,2ZM37,5a2.991,2.991,0,0,0-5.646-1.386,11.538,11.538,0,0,1,4.032,4.032A2.988,2.988,0,0,0,37,5ZM25.5,4A9.5,9.5,0,1,0,35,13.5,9.5,9.5,0,0,0,25.5,4ZM42.637,19.9a2,2,0,0,0-2.77-.57l-8.576,5.65a9.722,9.722,0,0,0-1.355-.87,11.5,11.5,0,0,1-8.836.013,9.464,9.464,0,0,0-1.837,1.222l-9.13-6.015a2,2,0,1,0-2.2,3.34l8.932,5.885A9.446,9.446,0,0,0,18.5,38.906l-2.685,7.356a2,2,0,1,0,3.758,1.372l2.317-6.348a9.478,9.478,0,0,0,7.222,0l2.317,6.348a2,2,0,1,0,3.757-1.372L32.5,38.906a9.468,9.468,0,0,0,1.393-10.85l8.173-5.384A2,2,0,0,0,42.637,19.9ZM25.5,21.625c-2.861,0-5.184-1.594-5.448-3.625h0.854c0,1.657,2.057,3,4.594,3s4.594-1.343,4.594-3h0.854C30.684,20.031,28.361,21.625,25.5,21.625Zm3.469-9.656a1.8,1.8,0,0,1-1.5-2,1.8,1.8,0,0,1,1.5-2,1.8,1.8,0,0,1,1.5,2A1.805,1.805,0,0,1,28.969,11.969ZM28,16.5A2.5,2.5,0,1,1,25.5,14,2.5,2.5,0,0,1,28,16.5Zm-6.031-4.531a1.8,1.8,0,0,1-1.5-2,1.8,1.8,0,0,1,1.5-2,1.8,1.8,0,0,1,1.5,2A1.805,1.805,0,0,1,21.969,11.969Z"/>
</svg>
