<svg xmlns="http://www.w3.org/2000/svg" width="51" height="51" viewBox="0 0 51 51">
  <defs>
    <style>
      .cls-1 {
        fill-rule: evenodd;
      }
    </style>
  </defs>
  <path id="great_moment" data-name="great moment" class="cls-1" d="M25.716,4.975a4.208,4.208,0,0,1,3.23,1.313,5.13,5.13,0,0,1,1.227,3.652q0,1.722-.254,5.67l-0.9,10.307a12.779,12.779,0,0,1-.846,3.909,2.133,2.133,0,0,1-2.116,1.282H25.038a2.134,2.134,0,0,1-2.116-1.282,12.782,12.782,0,0,1-.846-3.909l-0.9-10.307q-0.254-3.95-.254-5.67a5.129,5.129,0,0,1,1.227-3.652,4.208,4.208,0,0,1,3.23-1.313h0.34m-0.2,33.741a4.171,4.171,0,0,1,3.033,1.229A4,4,0,0,1,29.8,42.919a3.938,3.938,0,0,1-1.269,3.1,4.32,4.32,0,0,1-2.962,1.129,4.453,4.453,0,0,1-3-1.113,3.912,3.912,0,0,1-1.283-3.119,4.193,4.193,0,0,1,4.232-4.2m0.538-4.732A4.99,4.99,0,0,0,30.3,30.807a14.793,14.793,0,0,0,1.051-4.665l0-.035,0-.034,0.9-10.313c0.174-2.708.259-4.612,0.259-5.821a7.393,7.393,0,0,0-1.856-5.249,6.566,6.566,0,0,0-4.942-2.058h-0.34a6.566,6.566,0,0,0-4.942,2.058,7.393,7.393,0,0,0-1.856,5.249c0,1.208.085,3.112,0.259,5.821l0.9,10.313,0,0.034,0,0.035A14.787,14.787,0,0,0,20.8,30.807a4.989,4.989,0,0,0,4.242,3.176h1.017Zm-0.538,2.391a6.533,6.533,0,0,0-6.573,6.545,6.21,6.21,0,0,0,2.09,4.886,6.753,6.753,0,0,0,4.54,1.687,6.616,6.616,0,0,0,4.518-1.72,6.281,6.281,0,0,0,2.055-4.853,6.358,6.358,0,0,0-1.963-4.652,6.536,6.536,0,0,0-4.666-1.892h0Zm19.522,3.544a1.266,1.266,0,0,1-1.719,1.859L39.4,38.044a1.266,1.266,0,0,1,1.72-1.859ZM13.662,10.664a1.266,1.266,0,0,1-1.745-.4L8.972,5.723a1.266,1.266,0,0,1,2.144-1.346l2.944,4.542A1.266,1.266,0,0,1,13.662,10.664ZM7.877,41.777a1.266,1.266,0,0,1-1.72-1.859l3.92-3.733a1.266,1.266,0,0,1,1.72,1.859ZM8.4,24.391L2.99,24.4a1.266,1.266,0,0,1,.031-2.532l5.413-.012A1.266,1.266,0,1,1,8.4,24.391Zm28.99-13.727a1.266,1.266,0,0,0,1.745-.4l2.944-4.542a1.266,1.266,0,1,0-2.144-1.346L36.994,8.919A1.266,1.266,0,0,0,37.393,10.664Zm9.62,13.727L41.6,24.4a1.266,1.266,0,1,1,.031-2.532l5.412-.012A1.266,1.266,0,1,1,47.013,24.391Z"/>
</svg>
