<svg xmlns="http://www.w3.org/2000/svg" xmlns:xlink="http://www.w3.org/1999/xlink" preserveAspectRatio="xMidYMid" width="51" height="51" viewBox="0 0 51 51">
  <defs>
    <style>
      .cls-1 {
        fill: #000;
        fill-rule: evenodd;
      }
    </style>
  </defs>
  <path d="M48.678,17.055 C48.506,17.161 48.314,17.236 48.097,17.236 C47.485,17.236 46.968,16.735 46.968,16.106 C46.968,15.493 47.485,14.976 48.097,14.976 C48.171,14.976 48.237,15.004 48.306,15.019 C47.813,12.999 47.009,11.284 45.973,9.892 C45.980,9.936 46.000,9.974 46.000,10.020 C46.000,10.635 45.483,11.150 44.871,11.150 C44.241,11.150 43.740,10.635 43.740,10.020 C43.740,9.391 44.241,8.891 44.871,8.891 C44.986,8.891 45.092,8.925 45.198,8.958 C39.728,2.980 29.613,4.410 25.489,14.100 C21.162,4.000 11.132,2.821 5.736,8.970 C5.861,8.925 5.991,8.891 6.132,8.891 C6.743,8.891 7.260,9.391 7.260,10.020 C7.260,10.635 6.743,11.150 6.132,11.150 C5.501,11.150 5.000,10.635 5.000,10.020 C5.000,9.959 5.025,9.905 5.035,9.845 C4.007,11.259 3.204,12.991 2.708,15.015 C2.773,15.004 2.832,14.976 2.900,14.976 C3.531,14.976 4.032,15.493 4.032,16.106 C4.032,16.735 3.531,17.236 2.900,17.236 C2.689,17.236 2.501,17.161 2.330,17.057 C2.222,17.884 2.156,18.747 2.150,19.656 C2.058,32.612 25.552,45.913 25.527,45.892 C25.495,45.916 48.942,32.473 48.850,19.560 C48.844,18.684 48.779,17.853 48.678,17.055 ZM6.132,23.321 C5.501,23.321 5.000,22.821 5.000,22.191 C5.000,21.578 5.501,21.062 6.132,21.062 C6.743,21.062 7.260,21.578 7.260,22.191 C7.260,22.821 6.743,23.321 6.132,23.321 ZM9.357,29.423 C8.745,29.423 8.228,28.922 8.228,28.293 C8.228,27.664 8.745,27.163 9.357,27.163 C9.987,27.163 10.489,27.664 10.489,28.293 C10.489,28.922 9.987,29.423 9.357,29.423 ZM9.357,17.236 C8.745,17.236 8.228,16.735 8.228,16.106 C8.228,15.493 8.745,14.976 9.357,14.976 C9.987,14.976 10.489,15.493 10.489,16.106 C10.489,16.735 9.987,17.236 9.357,17.236 ZM12.588,35.508 C11.958,35.508 11.456,35.008 11.456,34.379 C11.456,33.764 11.958,33.249 12.588,33.249 C13.200,33.249 13.717,33.764 13.717,34.379 C13.717,35.008 13.200,35.508 12.588,35.508 ZM12.588,23.321 C11.958,23.321 11.456,22.821 11.456,22.191 C11.456,21.578 11.958,21.062 12.588,21.062 C13.200,21.062 13.717,21.578 13.717,22.191 C13.717,22.821 13.200,23.321 12.588,23.321 ZM12.588,11.150 C11.958,11.150 11.456,10.635 11.456,10.020 C11.456,9.391 11.958,8.891 12.588,8.891 C13.200,8.891 13.717,9.391 13.717,10.020 C13.717,10.635 13.200,11.150 12.588,11.150 ZM15.814,29.423 C15.202,29.423 14.685,28.922 14.685,28.293 C14.685,27.664 15.202,27.163 15.814,27.163 C16.444,27.163 16.945,27.664 16.945,28.293 C16.945,28.922 16.444,29.423 15.814,29.423 ZM15.814,17.236 C15.202,17.236 14.685,16.735 14.685,16.106 C14.685,15.493 15.202,14.976 15.814,14.976 C16.444,14.976 16.945,15.493 16.945,16.106 C16.945,16.735 16.444,17.236 15.814,17.236 ZM19.045,35.508 C18.414,35.508 17.913,35.008 17.913,34.379 C17.913,33.764 18.414,33.249 19.045,33.249 C19.657,33.249 20.174,33.764 20.174,34.379 C20.174,35.008 19.657,35.508 19.045,35.508 ZM19.045,23.321 C18.414,23.321 17.913,22.821 17.913,22.191 C17.913,21.578 18.414,21.062 19.045,21.062 C19.657,21.062 20.174,21.578 20.174,22.191 C20.174,22.821 19.657,23.321 19.045,23.321 ZM19.045,11.150 C18.414,11.150 17.913,10.635 17.913,10.020 C17.913,9.391 18.414,8.891 19.045,8.891 C19.657,8.891 20.174,9.391 20.174,10.020 C20.174,10.635 19.657,11.150 19.045,11.150 ZM22.270,41.610 C21.659,41.610 21.141,41.093 21.141,40.479 C21.141,39.850 21.659,39.351 22.270,39.351 C22.901,39.351 23.402,39.850 23.402,40.479 C23.402,41.093 22.901,41.610 22.270,41.610 ZM22.270,29.423 C21.659,29.423 21.141,28.922 21.141,28.293 C21.141,27.664 21.659,27.163 22.270,27.163 C22.901,27.163 23.402,27.664 23.402,28.293 C23.402,28.922 22.901,29.423 22.270,29.423 ZM22.270,17.236 C21.659,17.236 21.141,16.735 21.141,16.106 C21.141,15.493 21.659,14.976 22.270,14.976 C22.901,14.976 23.402,15.493 23.402,16.106 C23.402,16.735 22.901,17.236 22.270,17.236 ZM25.502,35.508 C24.871,35.508 24.370,35.008 24.370,34.379 C24.370,33.764 24.871,33.249 25.502,33.249 C26.113,33.249 26.630,33.764 26.630,34.379 C26.630,35.008 26.113,35.508 25.502,35.508 ZM25.502,23.321 C24.871,23.321 24.370,22.821 24.370,22.191 C24.370,21.578 24.871,21.062 25.502,21.062 C26.113,21.062 26.630,21.578 26.630,22.191 C26.630,22.821 26.113,23.321 25.502,23.321 ZM28.727,41.610 C28.115,41.610 27.598,41.093 27.598,40.479 C27.598,39.850 28.115,39.351 28.727,39.351 C29.357,39.351 29.858,39.850 29.858,40.479 C29.858,41.093 29.357,41.610 28.727,41.610 ZM28.727,29.423 C28.115,29.423 27.598,28.922 27.598,28.293 C27.598,27.664 28.115,27.163 28.727,27.163 C29.357,27.163 29.858,27.664 29.858,28.293 C29.858,28.922 29.357,29.423 28.727,29.423 ZM28.727,17.236 C28.115,17.236 27.598,16.735 27.598,16.106 C27.598,15.493 28.115,14.976 28.727,14.976 C29.357,14.976 29.858,15.493 29.858,16.106 C29.858,16.735 29.357,17.236 28.727,17.236 ZM31.958,35.508 C31.328,35.508 30.826,35.008 30.826,34.379 C30.826,33.764 31.328,33.249 31.958,33.249 C32.570,33.249 33.087,33.764 33.087,34.379 C33.087,35.008 32.570,35.508 31.958,35.508 ZM31.958,23.321 C31.328,23.321 30.826,22.821 30.826,22.191 C30.826,21.578 31.328,21.062 31.958,21.062 C32.570,21.062 33.087,21.578 33.087,22.191 C33.087,22.821 32.570,23.321 31.958,23.321 ZM31.958,11.150 C31.328,11.150 30.826,10.635 30.826,10.020 C30.826,9.391 31.328,8.891 31.958,8.891 C32.570,8.891 33.087,9.391 33.087,10.020 C33.087,10.635 32.570,11.150 31.958,11.150 ZM35.183,29.423 C34.572,29.423 34.055,28.922 34.055,28.293 C34.055,27.664 34.572,27.163 35.183,27.163 C35.814,27.163 36.315,27.664 36.315,28.293 C36.315,28.922 35.814,29.423 35.183,29.423 ZM35.183,17.236 C34.572,17.236 34.055,16.735 34.055,16.106 C34.055,15.493 34.572,14.976 35.183,14.976 C35.814,14.976 36.315,15.493 36.315,16.106 C36.315,16.735 35.814,17.236 35.183,17.236 ZM38.415,35.508 C37.784,35.508 37.283,35.008 37.283,34.379 C37.283,33.764 37.784,33.249 38.415,33.249 C39.026,33.249 39.543,33.764 39.543,34.379 C39.543,35.008 39.026,35.508 38.415,35.508 ZM38.415,23.321 C37.784,23.321 37.283,22.821 37.283,22.191 C37.283,21.578 37.784,21.062 38.415,21.062 C39.026,21.062 39.543,21.578 39.543,22.191 C39.543,22.821 39.026,23.321 38.415,23.321 ZM38.415,11.150 C37.784,11.150 37.283,10.635 37.283,10.020 C37.283,9.391 37.784,8.891 38.415,8.891 C39.026,8.891 39.543,9.391 39.543,10.020 C39.543,10.635 39.026,11.150 38.415,11.150 ZM41.640,29.423 C41.028,29.423 40.511,28.922 40.511,28.293 C40.511,27.664 41.028,27.163 41.640,27.163 C42.271,27.163 42.772,27.664 42.772,28.293 C42.772,28.922 42.271,29.423 41.640,29.423 ZM41.640,17.236 C41.028,17.236 40.511,16.735 40.511,16.106 C40.511,15.493 41.028,14.976 41.640,14.976 C42.271,14.976 42.772,15.493 42.772,16.106 C42.772,16.735 42.271,17.236 41.640,17.236 ZM44.871,23.321 C44.241,23.321 43.740,22.821 43.740,22.191 C43.740,21.578 44.241,21.062 44.871,21.062 C45.483,21.062 46.000,21.578 46.000,22.191 C46.000,22.821 45.483,23.321 44.871,23.321 Z" class="cls-1"/>
</svg>
