<svg xmlns="http://www.w3.org/2000/svg" xmlns:xlink="http://www.w3.org/1999/xlink" preserveAspectRatio="xMidYMid" width="51" height="51" viewBox="0 0 51 51">
  <defs>
    <style>
      .cls-1 {
        fill: #000;
        fill-rule: evenodd;
      }
    </style>
  </defs>
  <path d="M29.000,45.000 L26.000,48.000 L23.000,45.000 C17.563,42.468 1.247,33.121 0.056,22.193 C-0.043,21.289 -0.065,20.387 -0.065,19.590 C-0.065,2.180 18.819,7.197 22.598,13.981 C22.618,13.916 22.644,13.860 22.664,13.795 L27.878,21.335 L22.865,28.649 L28.814,36.482 L26.670,44.631 L26.791,44.616 L30.138,37.428 L25.675,28.663 L31.908,22.356 L28.117,14.011 C32.891,4.770 43.780,3.991 48.012,10.291 C50.455,13.928 50.976,15.812 50.976,18.592 C50.976,21.280 52.082,30.496 29.000,45.000 Z" class="cls-1"/>
</svg>
