<svg id="Coaster_2" data-name="Coaster 2" xmlns="http://www.w3.org/2000/svg" width="51" height="51" viewBox="0 0 51 51">
  <metadata><?xpacket begin="﻿" id="W5M0MpCehiHzreSzNTczkc9d"?>
<x:xmpmeta xmlns:x="adobe:ns:meta/" x:xmptk="Adobe XMP Core 5.6-c138 79.159824, 2016/09/14-01:09:01        ">
   <rdf:RDF xmlns:rdf="http://www.w3.org/1999/02/22-rdf-syntax-ns#">
      <rdf:Description rdf:about=""/>
   </rdf:RDF>
</x:xmpmeta>
                                                                                                    
                                                                                                    
                                                                                                    
                                                                                                    
                                                                                                    
                                                                                                    
                                                                                                    
                                                                                                    
                                                                                                    
                                                                                                    
                                                                                                    
                                                                                                    
                                                                                                    
                                                                                                    
                                                                                                    
                                                                                                    
                                                                                                    
                                                                                                    
                                                                                                    
                                                                                                    
                           
<?xpacket end="w"?></metadata>
<defs>
    <style>
      .cls-1 {
        fill-rule: evenodd;
      }
    </style>
  </defs>
  <path id="Merged" class="cls-1" d="M49,51V28.563s-1,1.781-6,1.781V51H41V30.018a27.117,27.117,0,0,1-6-2.8V51H33V25.993c-2.313-1.463-4.71-3.12-7-4.684V51H24V19.952a44.656,44.656,0,0,0-7-4.107V51H15V15.344a6.79,6.79,0,0,0-7,7V51H6V22a8.925,8.925,0,0,1,9-9c2.987,0,7.958,3.718,13.183,7.452,2.164-1.172,5.519-3.66,8.817-5.44V15h0.023A13.8,13.8,0,0,1,43,13c6.2,0,8,6,8,9V51H49ZM37,17.2c-2.488,1.406-4.868,3.278-7.006,4.53A63.775,63.775,0,0,0,37,26.141V17.2Zm8-1.576a5.54,5.54,0,0,0-2-.347,10.255,10.255,0,0,0-4,.929V27.066A10.929,10.929,0,0,0,43,28a13.354,13.354,0,0,0,2-.143V15.628ZM49,26c0-2.079,0-6.419-2-8.891V27.328a6.687,6.687,0,0,0,2.006-1.194C49,26.087,49,26.049,49,26ZM25.669,14.952a1,1,0,1,1-1.368.359A1,1,0,0,1,25.669,14.952Zm-3.017-1.985a1,1,0,1,1-1.368.36A1,1,0,0,1,22.652,12.967Zm6.294,1.73a1,1,0,0,1-1.368.36l-6.046-3.529a1,1,0,0,1-.36-1.368l1.512-2.591c0.278-.477,1.667-2.066,2.5-1.7s0.445,2.256,1.987,3.156l2.93,1.71a1,1,0,0,1,.359,1.368ZM18.406,11.375a1,1,0,1,1-1-1A1,1,0,0,1,18.406,11.375Zm-4,0a1,1,0,1,1-1-1A1,1,0,0,1,14.406,11.375ZM19,10H12a1,1,0,0,1-1-1V6c0-.552.541-2.137,1.459-2.137S13.555,5,15.2,5H19a1,1,0,0,1,1,1V9A1,1,0,0,1,19,10ZM8.7,13.437a1,1,0,1,1,1.408.135A1,1,0,0,1,8.7,13.437ZM4.421,15.013a1,1,0,0,1-1.408-.135L1.1,12.563a3.187,3.187,0,0,1-.365-3c0.543-1.225,1.858.468,3.212-.649L6.64,6.7a1,1,0,0,1,1.408.135L9.956,9.151a1,1,0,0,1-.135,1.408Zm2.82,0.143a1,1,0,1,1-1.408-.135A1,1,0,0,1,7.241,15.156Z"/>
</svg>
