<svg xmlns="http://www.w3.org/2000/svg" xmlns:xlink="http://www.w3.org/1999/xlink" preserveAspectRatio="xMidYMid" width="51" height="51" viewBox="0 0 51 51">
  <defs>
    <style>
      .cls-1 {
        fill: #000;
        fill-rule: evenodd;
      }
    </style>
  </defs>
  <g>
    <path d="M39.011,43.168 C35.567,46.682 14.780,47.058 11.308,43.515 C10.071,42.252 8.955,37.075 9.010,31.380 C9.110,21.093 11.308,8.000 11.308,8.000 L39.477,8.000 C39.477,8.000 40.881,21.144 41.000,31.162 C41.068,36.856 40.259,41.894 39.011,43.168 ZM39.477,31.162 C39.363,21.520 37.955,9.544 37.955,9.544 L12.830,9.544 C12.830,9.544 10.639,21.478 10.546,31.162 C10.495,36.523 10.915,40.782 12.069,41.971 C15.307,45.306 34.743,45.279 37.955,41.971 C39.119,40.772 39.542,36.642 39.477,31.162 Z" class="cls-1"/>
    <path d="M31.864,42.743 L17.399,42.743 C12.728,42.743 11.308,38.346 11.308,34.250 C11.308,29.505 12.069,22.669 12.069,22.669 L37.955,22.669 C37.955,22.669 38.716,28.733 38.716,33.478 C38.716,38.346 36.535,42.743 31.864,42.743 ZM24.740,26.530 L17.489,24.213 C16.487,24.245 16.226,25.110 16.039,25.757 L13.624,33.200 C13.437,33.847 14.157,34.535 14.761,34.735 L21.115,37.338 C21.566,37.489 22.970,36.714 23.425,36.515 C23.460,36.551 23.484,36.571 23.489,36.566 C23.625,36.445 23.578,36.448 23.425,36.515 C22.937,36.015 19.810,31.843 20.454,31.010 C20.756,30.619 20.335,30.067 21.115,29.618 C21.686,29.289 24.740,27.302 24.740,27.302 C24.663,26.598 25.344,26.730 24.740,26.530 ZM30.822,27.551 C30.240,26.377 29.172,26.337 28.097,26.840 L23.713,29.630 C23.139,29.757 21.846,31.212 21.967,31.815 L26.735,38.922 C27.630,39.504 27.445,39.722 28.097,39.632 C28.097,39.632 33.821,36.118 34.228,35.368 C34.350,35.145 34.985,34.765 34.909,33.947 C34.802,32.786 30.822,27.551 30.822,27.551 Z" class="cls-1"/>
  </g>
</svg>
