<svg xmlns="http://www.w3.org/2000/svg" xmlns:xlink="http://www.w3.org/1999/xlink" preserveAspectRatio="xMidYMid" width="51" height="51" viewBox="0 0 51 51">
  <defs>
    <style>
      .cls-1 {
        fill: #000;
        fill-rule: evenodd;
      }
    </style>
  </defs>
  <g>
    <path d="M44.939,22.546 C46.352,28.151 55.041,31.919 55.041,31.919 C55.041,31.919 51.611,31.121 47.984,31.121 C44.902,31.121 41.678,31.698 40.298,33.830 C37.295,38.471 42.755,48.846 42.755,48.846 C42.755,48.846 35.546,41.197 29.605,41.197 C29.530,41.197 29.453,41.199 29.378,41.202 C23.397,41.403 17.548,54.306 17.548,54.306 C17.548,54.306 20.685,40.522 16.820,39.017 C16.701,38.971 16.555,38.943 16.428,38.901 C17.585,39.127 18.868,38.914 20.024,38.236 C20.919,39.528 21.307,41.265 21.435,43.065 C24.068,40.071 26.656,38.561 29.286,38.473 C29.392,38.469 29.499,38.468 29.605,38.468 C32.124,38.468 34.706,39.479 37.011,40.808 C36.726,39.315 36.631,37.956 36.703,36.719 C38.583,35.947 39.816,34.210 39.597,32.333 C39.541,31.852 39.376,31.410 39.155,31.000 C40.603,29.670 42.683,28.841 45.383,28.531 C43.971,27.017 42.802,25.236 42.292,23.213 C41.738,21.013 42.095,18.707 42.863,16.562 C42.712,16.605 42.559,16.639 42.408,16.678 C42.425,16.628 42.450,16.585 42.466,16.534 C42.771,15.570 42.871,14.612 42.826,13.707 C46.863,12.340 50.492,9.474 50.492,9.474 C50.492,9.474 43.527,16.940 44.939,22.546 ZM30.294,10.917 C29.924,10.149 29.572,9.335 29.258,8.421 C28.979,9.088 28.692,9.687 28.401,10.252 C27.703,10.091 26.969,10.000 26.207,10.000 C25.935,10.000 25.667,10.011 25.403,10.033 C28.154,5.547 29.812,-3.306 29.812,-3.306 C29.812,-3.306 30.405,7.192 34.048,11.948 C33.759,12.440 33.504,12.968 33.312,13.545 C32.638,12.454 31.588,11.543 30.294,10.917 ZM17.318,14.272 C16.021,11.552 13.899,9.882 11.922,10.306 C11.294,10.441 10.743,10.781 10.276,11.269 C10.407,8.623 10.088,6.129 10.088,6.129 C10.088,6.129 15.668,11.152 20.027,12.378 C19.334,13.068 18.824,13.877 18.538,14.760 C18.132,14.619 17.724,14.449 17.318,14.272 ZM12.146,28.043 C12.577,30.822 11.730,33.422 10.555,35.544 C10.758,35.540 10.961,35.540 11.165,35.540 C11.893,35.540 12.573,35.560 13.214,35.600 C13.300,36.218 13.514,36.813 13.892,37.339 C14.337,37.960 14.949,38.392 15.635,38.668 C14.318,38.372 12.728,38.270 11.165,38.270 C7.780,38.270 4.534,38.745 4.534,38.745 C4.534,38.745 10.267,33.740 9.448,28.461 C8.629,23.183 -4.041,18.551 -4.041,18.551 C-4.041,18.551 -2.840,18.627 -1.161,18.627 C2.038,18.627 6.964,18.346 8.651,16.741 C8.673,17.481 8.740,18.241 8.908,19.023 C8.960,19.266 9.020,19.504 9.085,19.738 C8.391,20.096 7.497,20.432 6.288,20.703 C9.181,22.683 11.702,25.182 12.146,28.043 Z" class="cls-1"/>
    <path d="M40.365,14.843 C40.285,15.180 40.172,15.561 40.019,16.007 C39.886,16.400 39.728,16.933 39.549,17.592 C39.364,18.273 38.984,19.774 38.418,22.055 C37.850,24.340 37.439,25.957 37.197,26.857 L37.191,26.881 L37.183,26.904 C37.060,27.292 36.829,27.639 36.491,27.942 C36.181,28.216 35.878,28.343 35.619,28.400 L34.598,28.461 C34.706,28.445 34.816,28.411 34.921,28.406 C34.373,28.293 33.326,27.820 33.501,25.859 C33.629,24.426 33.775,23.188 33.936,22.178 C34.088,21.230 34.215,20.319 34.312,19.484 C34.513,17.513 34.769,16.076 35.094,15.091 C35.429,14.083 35.863,13.222 36.385,12.532 C37.038,11.670 37.713,11.252 38.449,11.252 C38.503,11.252 38.557,11.254 38.608,11.259 C39.099,11.303 39.561,11.567 39.983,12.047 C40.407,12.534 40.601,13.121 40.545,13.742 C40.511,14.120 40.451,14.492 40.365,14.843 ZM35.482,30.148 C36.132,30.207 36.662,30.439 37.072,30.839 C37.479,31.247 37.659,31.716 37.612,32.253 C37.438,34.189 36.469,35.157 34.707,35.157 C34.552,35.157 34.391,35.150 34.224,35.135 C33.648,35.084 33.109,34.854 32.605,34.440 C32.100,34.027 31.894,33.402 31.991,32.559 C32.085,31.719 32.529,31.093 33.318,30.678 C34.011,30.318 34.649,30.137 35.235,30.137 C35.319,30.137 35.401,30.141 35.482,30.148 ZM30.341,22.642 C29.767,23.171 29.171,23.654 28.569,24.080 C28.057,24.442 27.629,24.790 27.297,25.117 C27.243,25.170 27.203,25.215 27.173,25.252 C27.193,25.268 27.215,25.285 27.243,25.305 C27.719,25.640 28.215,26.069 28.276,26.699 C28.317,27.107 28.188,27.521 27.830,28.131 C27.681,28.382 27.233,29.140 26.428,29.231 C26.441,29.232 26.451,29.237 26.463,29.238 L25.760,29.293 C25.818,29.283 25.876,29.251 25.935,29.244 C25.246,29.204 24.623,28.912 24.123,28.395 C23.568,27.821 23.244,27.100 23.159,26.253 C23.075,25.414 23.250,24.632 23.679,23.930 C24.049,23.322 24.524,22.788 25.090,22.342 C25.547,21.982 26.005,21.602 26.455,21.208 C26.795,20.911 27.079,20.491 27.298,19.960 C27.513,19.440 27.582,18.783 27.504,18.006 C27.433,17.305 27.200,16.769 26.791,16.369 C26.486,16.072 26.116,15.932 25.629,15.932 C25.539,15.932 25.443,15.937 25.346,15.948 C25.242,15.958 25.122,16.043 24.991,16.201 C24.686,16.598 24.452,17.112 24.295,17.727 L24.284,17.772 L24.269,17.815 C23.794,19.192 22.841,19.487 22.315,19.540 C22.244,19.547 22.174,19.551 22.106,19.551 C21.571,19.551 21.082,19.332 20.731,18.935 C20.409,18.573 20.222,18.157 20.174,17.674 C20.101,16.731 20.384,15.335 22.146,14.038 C23.396,13.117 24.723,12.581 26.090,12.445 C26.320,12.422 26.552,12.410 26.779,12.410 C27.927,12.410 29.028,12.708 30.054,13.297 C31.382,14.063 32.163,15.253 32.312,16.737 C32.443,18.046 32.313,19.217 31.926,20.217 C31.540,21.213 31.008,22.029 30.341,22.642 ZM18.746,36.742 C18.403,36.886 18.039,36.958 17.654,36.958 C17.435,36.958 17.211,36.935 16.979,36.889 C16.335,36.760 15.857,36.301 15.544,35.509 C15.229,34.718 15.327,33.952 15.832,33.210 C16.340,32.469 16.895,31.973 17.503,31.714 C17.871,31.560 18.229,31.482 18.578,31.482 C18.805,31.482 19.026,31.514 19.244,31.579 C19.798,31.745 20.181,32.077 20.392,32.575 C21.221,34.538 20.672,35.926 18.746,36.742 ZM17.515,30.015 C17.593,29.987 17.670,29.973 17.748,29.952 L17.000,30.270 C17.011,30.263 17.021,30.252 17.032,30.245 C16.870,30.293 16.705,30.317 16.541,30.317 C15.708,30.317 15.050,29.760 14.585,28.661 C14.024,27.335 13.571,26.173 13.238,25.207 C12.925,24.293 12.608,23.430 12.304,22.655 C11.555,20.824 11.104,19.434 10.929,18.409 C10.749,17.363 10.728,16.399 10.865,15.545 C11.046,14.409 11.505,13.679 12.226,13.376 C12.436,13.286 12.666,13.241 12.909,13.241 C13.189,13.241 13.483,13.300 13.811,13.422 C14.412,13.651 14.860,14.078 15.105,14.656 C15.255,15.010 15.376,15.367 15.465,15.714 C15.552,16.050 15.632,16.439 15.707,16.905 C15.773,17.306 15.884,17.851 16.037,18.524 C16.192,19.206 16.552,20.667 17.136,22.992 C17.709,25.279 18.107,26.899 18.316,27.804 L18.322,27.829 L18.326,27.852 C18.401,28.254 18.359,28.671 18.206,29.087 C18.033,29.556 17.768,29.842 17.515,30.015 ZM26.166,30.843 C26.276,30.832 26.383,30.826 26.488,30.826 C27.004,30.826 27.462,30.959 27.859,31.224 C28.336,31.544 28.602,31.973 28.655,32.508 C28.868,34.616 27.938,35.774 25.869,35.982 C25.778,35.991 25.687,35.995 25.597,35.995 C25.113,35.995 24.629,35.864 24.147,35.602 C23.573,35.293 23.254,34.716 23.189,33.870 C23.123,33.027 23.440,32.328 24.140,31.772 C24.840,31.217 25.513,30.908 26.166,30.843 Z" class="cls-1"/>
  </g>
</svg>
