<svg xmlns="http://www.w3.org/2000/svg" width="51" height="51" viewBox="0 0 51 51">
  <metadata><?xpacket begin="﻿" id="W5M0MpCehiHzreSzNTczkc9d"?>
<x:xmpmeta xmlns:x="adobe:ns:meta/" x:xmptk="Adobe XMP Core 5.6-c138 79.159824, 2016/09/14-01:09:01        ">
   <rdf:RDF xmlns:rdf="http://www.w3.org/1999/02/22-rdf-syntax-ns#">
      <rdf:Description rdf:about=""/>
   </rdf:RDF>
</x:xmpmeta>
                                                                                                    
                                                                                                    
                                                                                                    
                                                                                                    
                                                                                                    
                                                                                                    
                                                                                                    
                                                                                                    
                                                                                                    
                                                                                                    
                                                                                                    
                                                                                                    
                                                                                                    
                                                                                                    
                                                                                                    
                                                                                                    
                                                                                                    
                                                                                                    
                                                                                                    
                                                                                                    
                           
<?xpacket end="w"?></metadata>
<defs>
    <style>
      .cls-1 {
        fill-rule: evenodd;
      }
    </style>
  </defs>
  <path id="Merged" class="cls-1" d="M49,20a5.991,5.991,0,0,1-5.841,5.984A5.939,5.939,0,0,1,44,29a6,6,0,0,1-6,6c-0.13,0-.251-0.03-0.379-0.038A5.948,5.948,0,0,1,32,43a5.863,5.863,0,0,1-.595-0.06c0.02,0.02.043,0.04,0.064,0.06,0,4-4,7.063-6,8.063-2-1-6-4.062-6-8.062,0.018-.018.038-0.035,0.056-0.053C19.349,42.963,19.18,43,19,43a5.948,5.948,0,0,1-5.621-8.038C13.251,34.97,13.13,35,13,35a6,6,0,0,1-6-6,5.94,5.94,0,0,1,.841-3.016A5.974,5.974,0,0,1,5.285,14.678a5.975,5.975,0,0,1,6.827-9.785,5.979,5.979,0,0,1,11.811.341,4.646,4.646,0,0,1,3.152.021,5.978,5.978,0,0,1,11.813-.362,5.975,5.975,0,0,1,6.827,9.785A5.978,5.978,0,0,1,49,20Zm-6,4a3.991,3.991,0,0,0,1.017-7.853,12.6,12.6,0,0,1-.236,2.012,2,2,0,0,1-1.19,3.8q-0.38.907-.84,1.824A3.96,3.96,0,0,0,43,24Zm-5,9a3.984,3.984,0,0,0,2.562-7.048q-0.51.87-1.065,1.734a1.989,1.989,0,0,1-2.2,3.18q-0.606.82-1.229,1.616A3.956,3.956,0,0,0,38,33Zm-6,8a3.992,3.992,0,0,0,2.755-6.889q-0.649.788-1.292,1.534a1.993,1.993,0,0,1-2.644,2.962c-0.479.516-.933,0.994-1.371,1.45A3.963,3.963,0,0,0,32,41Zm-6.531,8.063s4-3.062,4-6.062a2.284,2.284,0,0,0-1.121-1.815c-0.372.376-.724,0.729-1.037,1.036a2,2,0,1,1-3.683,0c-0.312-.307-0.664-0.66-1.035-1.035A2.286,2.286,0,0,0,21.469,43C21.469,46,25.469,49.063,25.469,49.063ZM19,41a3.962,3.962,0,0,0,2.521-.918c-0.438-.456-0.892-0.933-1.372-1.449a1.993,1.993,0,0,1-2.639-2.956q-0.645-.75-1.3-1.54A4,4,0,0,0,19,41Zm-6-8a3.956,3.956,0,0,0,1.9-.5q-0.625-.8-1.234-1.622a1.988,1.988,0,0,1-2.187-3.159q-0.56-.867-1.07-1.741A3.984,3.984,0,0,0,13,33ZM4,20a4,4,0,0,0,4,4,3.957,3.957,0,0,0,1.209-.206q-0.461-.919-0.843-1.831A2,2,0,0,1,7.18,18.18a12.635,12.635,0,0,1-.24-2.02A3.989,3.989,0,0,0,4,20ZM12.28,7.719a3.993,3.993,0,1,0-5.065,5.843,7.347,7.347,0,0,1,.764-1.851A1.995,1.995,0,1,1,10.7,8.961c0.169-.11.314-0.23,0.495-0.335,0.4-.234.8-0.431,1.192-0.61C12.354,7.917,12.311,7.821,12.28,7.719ZM18,2a3.962,3.962,0,0,0-3.754,5.336,9.926,9.926,0,0,1,2.037-.327A1.98,1.98,0,0,1,16,6a2,2,0,1,1,3.441,1.381,10.328,10.328,0,0,1,1.912.788A3.991,3.991,0,0,0,18,2Zm9.179,5.393a3.652,3.652,0,0,0-3.347-.036,6,6,0,0,1-.806,1.892c0.277,0.213.533,0.426,0.766,0.634a1.992,1.992,0,0,1,3.36.013c0.244-.219.513-0.443,0.806-0.667A6.007,6.007,0,0,1,27.179,7.393ZM33,2a3.989,3.989,0,0,0-3.362,6.153,10.31,10.31,0,0,1,1.913-.781,2,2,0,1,1,3.165-.36,9.952,9.952,0,0,1,2.035.335A3.964,3.964,0,0,0,33,2ZM25.482,15.118s-5.38-9.13-12.891-4.977C0,17,25.456,41.168,25.456,41.168S51,17,38.329,10.185C30.859,5.964,25.482,15.118,25.482,15.118ZM46,10a4,4,0,0,0-7.28-2.281c-0.032.107-.077,0.208-0.114,0.313,0.38,0.175.765,0.367,1.158,0.594,0.192,0.111.347,0.238,0.525,0.355a1.994,1.994,0,1,1,2.7,2.747,7.349,7.349,0,0,1,.76,1.853A3.988,3.988,0,0,0,46,10Z"/>
</svg>
