<svg xmlns="http://www.w3.org/2000/svg" xmlns:xlink="http://www.w3.org/1999/xlink" preserveAspectRatio="xMidYMid" width="51" height="51" viewBox="0 0 51 51">
  <defs>
    <style>
      .cls-1 {
        fill: #000;
        fill-rule: evenodd;
      }
    </style>
  </defs>
  <path d="M45.941,17.209 C43.089,23.993 37.874,30.504 37.874,30.504 C37.874,30.504 34.569,38.049 39.205,36.168 C43.775,33.379 45.983,28.188 45.983,28.188 L47.226,29.954 C47.226,29.954 45.367,39.417 36.978,40.231 C31.555,40.231 34.128,30.333 34.128,30.333 C32.322,31.173 28.052,31.842 24.548,31.389 C18.705,30.633 21.354,27.167 21.354,27.167 L25.612,24.000 C25.612,24.000 19.814,29.758 28.069,28.421 C31.464,27.871 34.186,25.843 34.128,26.111 C34.128,26.111 35.169,21.048 37.248,15.193 C39.326,9.337 42.794,4.880 45.980,4.992 C49.166,5.104 48.126,12.012 45.941,17.209 ZM44.000,9.000 C40.110,12.745 37.158,27.714 37.158,27.714 C37.158,27.714 41.174,21.015 43.404,16.354 C45.461,12.053 45.515,7.542 44.000,9.000 Z" class="cls-1"/>
  <path d="M19.030,20.133 C16.301,26.875 11.313,33.346 11.313,33.346 C11.313,33.346 8.151,41.838 12.587,39.968 C16.958,37.197 18.071,31.044 18.071,31.044 L19.260,32.799 C19.260,32.799 18.481,42.203 10.456,43.012 C8.102,43.012 7.304,40.917 7.128,38.630 C7.450,36.824 7.550,34.709 7.607,32.845 C7.607,32.845 6.916,35.877 7.128,38.630 C6.665,41.231 5.737,43.187 3.780,42.783 C-1.057,41.783 1.432,39.182 3.780,39.801 C6.667,40.562 7.785,28.713 7.730,28.980 C7.730,28.980 8.725,23.948 10.714,18.129 C12.702,12.310 16.019,7.881 19.068,7.992 C22.116,8.104 21.121,14.969 19.030,20.133 ZM17.173,12.969 C12.428,17.537 10.628,30.573 10.628,30.573 C10.628,30.573 14.470,23.916 16.603,19.283 C18.571,15.009 18.649,11.549 17.173,12.969 Z" class="cls-1"/>
  <path d="M31.999,30.333 C31.446,36.299 27.223,41.115 20.567,41.633 C16.437,41.955 15.329,36.927 17.716,30.741 C19.210,25.052 21.981,22.144 27.036,21.819 C30.398,21.602 32.541,24.492 31.999,30.333 ZM27.009,24.578 C22.866,24.578 20.723,28.670 20.000,32.000 C19.174,35.805 19.462,37.996 21.606,37.996 C24.747,37.996 26.993,37.055 28.741,33.500 C30.472,29.981 29.237,24.578 27.009,24.578 Z" class="cls-1"/>
</svg>
