<svg xmlns="http://www.w3.org/2000/svg" xmlns:xlink="http://www.w3.org/1999/xlink" preserveAspectRatio="xMidYMid" width="51" height="51" viewBox="0 0 51 51">
  <defs>
    <style>
      .cls-1 {
        fill: #000;
      }

      .cls-1, .cls-2 {
        fill-rule: evenodd;
      }

      .cls-2 {
        stroke: #000;
        stroke-width: 2px;
        fill: none;
      }
    </style>
  </defs>
  <g>
    <path d="M37.000,44.000 C37.000,44.000 24.311,44.237 14.868,43.559 C9.502,43.174 5.102,42.285 4.000,41.000 C0.960,37.455 2.391,17.014 6.000,14.000 C7.286,12.926 11.813,12.690 17.172,13.192 C26.851,14.099 39.000,17.000 39.000,17.000 L37.000,44.000 ZM17.257,14.667 C12.212,14.195 8.286,15.099 7.000,16.000 C4.025,18.084 2.883,36.908 5.000,40.000 C5.896,41.308 9.834,41.628 15.000,42.000 C24.088,42.654 35.000,42.000 35.000,42.000 L37.000,19.000 C37.000,19.000 26.368,15.520 17.257,14.667 Z" class="cls-1"/>
    <path d="M4.923,35.468 L33.216,40.276 L33.216,42.084 C33.216,42.084 9.076,41.512 6.758,40.180 C4.441,38.849 4.923,35.468 4.923,35.468 Z" class="cls-1"/>
    <path d="M37.000,40.000 L37.000,43.000 L52.000,43.000 L37.000,40.000 Z" class="cls-1"/>
    <path d="M27.821,28.294 L33.257,30.833 C34.758,31.534 35.407,33.320 34.706,34.821 L32.167,40.257 C31.466,41.758 29.680,42.407 28.179,41.706 L22.743,39.167 C21.242,38.466 20.593,36.680 21.294,35.179 L23.833,29.743 C24.534,28.242 26.320,27.593 27.821,28.294 Z" class="cls-2"/>
    <path d="M35.703,30.878 L41.692,30.512 C43.346,30.411 44.769,31.670 44.870,33.324 L45.236,39.312 C45.337,40.966 44.078,42.389 42.424,42.490 L36.435,42.856 C34.781,42.957 33.359,41.698 33.258,40.044 L32.892,34.055 C32.791,32.402 34.050,30.979 35.703,30.878 Z" class="cls-2"/>
  </g>
</svg>
