<svg xmlns="http://www.w3.org/2000/svg" xmlns:xlink="http://www.w3.org/1999/xlink" preserveAspectRatio="xMidYMid" width="51" height="51" viewBox="0 0 51 51">
  <defs>
    <style>
      .cls-1 {
        fill: #000;
        fill-rule: evenodd;
      }
    </style>
  </defs>
  <path d="M50.955,2.455 L44.768,7.574 L47.543,9.935 L44.185,11.373 L47.200,14.753 L42.634,17.337 L45.072,18.269 L39.520,22.162 L41.130,23.506 L38.867,23.596 C41.846,39.937 33.106,49.418 32.892,49.785 C32.714,50.087 32.426,50.250 32.134,50.250 C31.956,50.250 31.776,50.191 31.618,50.065 C31.200,49.733 31.093,49.069 31.378,48.582 C31.403,48.539 32.736,46.201 33.850,42.237 C33.876,39.731 33.739,35.536 32.666,33.787 C31.910,40.140 30.574,40.185 29.933,41.915 C29.463,43.804 28.018,46.083 27.256,48.253 C27.064,48.799 26.529,49.059 26.061,48.837 C25.593,48.614 25.368,47.990 25.560,47.445 C29.539,36.117 28.550,31.821 27.570,30.120 C26.946,29.038 26.529,28.771 25.284,28.771 C23.428,28.771 23.019,29.738 21.960,31.818 C21.533,33.423 21.136,34.364 22.332,36.000 C23.650,37.801 24.009,39.378 23.150,40.912 C22.301,42.311 17.928,49.710 17.928,49.710 C17.759,50.056 17.449,50.250 17.130,50.250 C16.977,50.250 16.822,50.206 16.679,50.111 C16.239,49.821 16.085,49.169 16.334,48.657 L20.336,40.438 C19.866,39.916 18.954,38.855 18.954,38.855 C18.954,38.855 17.846,38.737 17.588,38.757 C18.013,39.661 18.342,40.132 17.688,41.568 L12.865,48.421 C12.691,48.741 12.394,48.916 12.091,48.916 C11.923,48.916 11.753,48.863 11.601,48.750 C11.174,48.434 11.047,47.775 11.318,47.278 L14.793,40.900 L12.780,37.028 C12.670,36.736 12.347,35.806 12.180,34.738 C11.956,34.779 11.736,34.805 11.522,34.814 C8.130,34.944 2.960,30.828 2.814,27.049 C2.793,26.477 2.861,25.948 2.995,25.453 L2.936,25.486 C2.936,25.486 -0.185,18.605 -0.132,18.094 C-0.085,17.639 4.942,18.529 7.077,21.626 C8.214,21.237 9.533,21.006 10.989,20.950 C11.594,20.927 12.176,20.937 12.735,20.975 C12.794,19.612 12.955,17.255 13.400,15.656 C13.801,17.690 14.612,18.034 14.612,18.034 C14.612,18.034 17.479,12.305 19.426,11.104 C18.424,13.272 18.391,14.633 18.391,14.633 C18.391,14.633 24.537,10.581 27.257,11.082 C25.969,11.849 24.249,14.160 24.249,14.160 C26.723,13.626 30.891,13.295 33.459,17.641 L32.657,13.445 L35.690,17.683 L34.559,7.398 L37.499,13.595 L39.359,1.099 L40.307,6.689 L44.643,-0.794 L44.427,3.779 L50.955,2.455 ZM7.058,27.119 C6.003,27.119 5.146,27.975 5.146,29.031 C5.146,30.086 6.003,30.943 7.058,30.943 C8.113,30.943 8.970,30.086 8.970,29.031 C8.970,27.975 8.113,27.119 7.058,27.119 ZM13.974,27.088 C12.919,27.088 12.062,27.944 12.062,28.999 C12.062,30.055 12.919,30.911 13.974,30.911 C15.029,30.911 15.886,30.055 15.886,28.999 C15.886,27.944 15.029,27.088 13.974,27.088 Z" class="cls-1"/>
</svg>
