<svg xmlns="http://www.w3.org/2000/svg" xmlns:xlink="http://www.w3.org/1999/xlink" preserveAspectRatio="xMidYMid" width="51" height="51" viewBox="0 0 51 51">
  <defs>
    <style>
      .cls-1 {
        fill: #000;
        fill-rule: evenodd;
      }
    </style>
  </defs>
  <path d="M50.810,45.669 C50.810,46.437 45.264,47.079 37.816,47.249 L37.827,47.294 L37.730,47.251 C36.496,47.278 35.216,47.294 33.894,47.294 C24.551,47.294 16.977,46.567 16.977,45.669 C16.977,44.878 22.876,44.219 30.680,44.075 L14.827,36.932 L5.607,39.047 L5.708,39.486 L4.088,47.294 L0.190,30.305 L5.052,36.628 L5.166,37.124 L14.203,35.050 L30.625,15.706 L37.092,44.074 C44.904,44.218 50.810,44.877 50.810,45.669 ZM29.631,20.169 C29.631,20.169 19.853,32.873 19.330,33.537 C18.806,34.201 19.207,35.643 19.984,36.029 C20.761,36.415 34.986,43.499 34.986,43.499 L29.631,20.169 Z" class="cls-1"/>
</svg>
