<svg id="when_i_wake" data-name="when i wake" xmlns="http://www.w3.org/2000/svg" width="51" height="51" viewBox="0 0 51 51">
  <defs>
    <style>
      .cls-1 {
        fill-rule: evenodd;
      }
    </style>
  </defs>
  <path id="martini" class="cls-1" d="M44.092,6.357a2.357,2.357,0,0,0-.634-1.431,2.182,2.182,0,0,0-.822-0.487L46.6,0.194,48.669,2.26Zm-3.361,6.4c-1.953,1.953-4.43,2.694-5.874,1.867l-2.7,2.418h8.875L25.987,37.189v9.459h0.449l7.249,3.325H16.254l7.25-3.325h0.51V37.377L8.831,17.044H30.854l3.13-3.348c-0.694-1.462.069-3.843,1.956-5.729,2.173-2.174,5.008-2.863,6.332-1.54S42.9,10.584,40.731,12.758ZM29.958,19.01l-5.776,5.171,4.834-5.171H12.962l5.7,6.946H31.2l5.7-6.946H29.958Z"/>
</svg>
