<svg xmlns="http://www.w3.org/2000/svg" xmlns:xlink="http://www.w3.org/1999/xlink" preserveAspectRatio="xMidYMid" width="51" height="51" viewBox="0 0 51 51">
  <defs>
    <style>
      .cls-1 {
        fill: #000;
        fill-rule: evenodd;
      }
    </style>
  </defs>
  <g>
    <path d="M24.914,30.457 C22.871,31.110 22.289,32.688 22.669,35.093 C23.050,37.498 23.429,43.540 16.595,45.725 C9.761,47.911 5.355,44.869 3.771,39.917 C3.266,38.338 2.409,35.657 2.409,35.657 L0.796,35.476 L0.002,33.197 L2.968,32.249 L7.747,16.602 L7.687,16.531 L9.906,16.625 L14.125,21.625 L11.906,21.531 L9.674,18.885 L5.876,31.319 L19.875,26.841 L22.259,28.954 L24.231,28.323 L24.301,28.301 L24.985,30.440 C24.960,30.448 24.938,30.449 24.914,30.457 ZM19.954,33.560 C19.559,32.001 18.695,30.594 16.534,31.285 C14.374,31.976 9.160,33.643 7.282,34.244 C5.403,34.845 5.031,35.777 5.830,37.961 C6.704,40.349 7.681,42.943 10.596,43.637 C13.510,44.330 18.827,42.572 19.865,40.440 C20.904,38.307 20.349,35.118 19.954,33.560 Z" class="cls-1"/>
    <path d="M50.223,24.057 L48.633,24.378 C48.633,24.378 48.011,27.123 47.645,28.740 C46.496,33.811 42.493,37.251 35.494,35.665 C28.498,34.081 28.351,28.029 28.522,25.600 C28.692,23.193 27.983,21.679 25.934,21.192 L26.430,19.002 L28.400,19.449 L30.591,17.137 L44.025,20.180 L38.941,11.643 L35.442,15.873 L34.996,13.627 L39.340,8.377 L39.359,8.473 C39.636,8.233 39.995,8.315 40.453,9.082 C41.526,10.879 45.560,17.655 47.535,20.975 L50.756,21.705 L50.223,24.057 ZM43.777,23.420 C41.853,22.984 36.516,21.775 34.302,21.274 C32.091,20.773 31.352,22.250 31.094,23.838 C30.835,25.423 30.559,28.649 31.779,30.683 C32.998,32.718 38.447,34.008 41.290,33.065 C44.133,32.121 44.882,29.452 45.546,26.997 C46.153,24.752 45.701,23.856 43.777,23.420 Z" class="cls-1"/>
  </g>
</svg>
