<?xml version="1.0" encoding="utf-8"?>
<!-- Generator: Adobe Illustrator 19.2.1, SVG Export Plug-In . SVG Version: 6.00 Build 0)  -->
<svg version="1.1" id="Ellipse_1_copy_1_" xmlns="http://www.w3.org/2000/svg" xmlns:xlink="http://www.w3.org/1999/xlink" x="0px"
	 y="0px" viewBox="0 0 51 51" style="enable-background:new 0 0 51 51;" xml:space="preserve">
<style type="text/css">
	.st0{fill-rule:evenodd;clip-rule:evenodd;}
</style>
<g id="Ellipse_1_copy">
	<g>
		<path class="st0" d="M5.7,9.1c0,0-0.7-4.4-1.5-5.4c-0.8-1-2.3-1.1-3.3-0.3c-1,0.8-1.1,2.3-0.3,3.3C1.5,7.7,5.7,9.1,5.7,9.1z
			 M0.9,47.6c1,0.8,2.5,0.7,3.3-0.3s1.5-5.4,1.5-5.4s-4.3,1.4-5.1,2.4C-0.2,45.3-0.1,46.8,0.9,47.6z M50.1,3.4
			c-1-0.8-2.5-0.7-3.3,0.3c-0.8,1-1.5,5.4-1.5,5.4s4.3-1.4,5.1-2.4C51.2,5.7,51.1,4.2,50.1,3.4z M27.7,2.4c0-1.3-1-2.3-2.3-2.3
			s-2.3,1-2.3,2.3c0,1.3,2.3,5.1,2.3,5.1S27.7,3.7,27.7,2.4z M45.3,41.9c0,0,0.7,4.4,1.5,5.4s2.3,1.1,3.3,0.3c1-0.8,1.1-2.3,0.3-3.3
			C49.5,43.3,45.3,41.9,45.3,41.9z M47,31c0,0-3.3,0-5,0c-2,0-2,0-2-2c0-4.5,0-14,0-14h-4v20h11V31z M25,15c-4.4,0-8,4.5-8,10
			s3.6,10,8,10s8-4.5,8-10S29.4,15,25,15z M25,32c-2.2,0-4-3.1-4-7s1.8-7,4-7s4,3.1,4,7S27.2,32,25,32z M23.1,48.6
			c0,1.3,1,2.3,2.3,2.3s2.3-1,2.3-2.3c0-1.3-2.3-5.1-2.3-5.1S23.1,47.3,23.1,48.6z M8,29c0-4.5,0-14,0-14H4v20h11v-4c0,0-3.3,0-5,0
			C8,31,8,31,8,29z"/>
	</g>
</g>
</svg>
