<svg xmlns="http://www.w3.org/2000/svg" xmlns:xlink="http://www.w3.org/1999/xlink" preserveAspectRatio="xMidYMid" width="51" height="51" viewBox="0 0 51 51">
  <defs>
    <style>
      .cls-1 {
        fill: #000;
        fill-rule: evenodd;
      }
    </style>
  </defs>
  <path d="M40.724,43.784 L37.824,47.011 C37.824,47.011 30.138,40.810 31.078,36.626 C32.190,31.675 33.092,31.516 33.092,31.516 L35.292,33.371 C35.292,33.371 34.031,35.588 33.838,37.833 C33.649,40.018 37.364,43.219 37.364,43.219 L39.685,40.637 L41.884,42.493 L40.724,43.784 Z" class="cls-1"/>
  <path d="M47.105,36.683 L50.006,33.455 C50.006,33.455 42.767,26.757 38.619,28.234 C33.711,29.983 33.672,30.870 33.672,30.870 L35.872,32.726 C35.872,32.726 37.965,31.211 40.233,30.716 C42.441,30.235 46.065,33.537 46.065,33.537 L43.745,36.119 L45.945,37.974 L47.105,36.683 Z" class="cls-1"/>
  <path d="M26.725,26.756 C26.725,26.756 15.231,22.654 13.000,15.000 C10.804,7.466 16.122,4.579 20.506,5.507 C22.689,5.970 23.584,6.842 23.584,6.842 L24.528,5.789 C24.528,5.789 22.191,2.912 17.375,3.174 C12.558,3.437 8.579,8.171 10.000,15.000 C11.454,21.983 25.281,28.837 25.281,28.837 L26.725,26.756 Z" class="cls-1"/>
  <path d="M41.000,14.000 C40.356,17.570 34.334,24.413 27.888,29.422 C21.263,34.572 13.280,38.060 11.292,38.890 C11.299,38.947 11.315,39.000 11.318,39.057 C11.409,40.712 10.140,42.126 8.486,42.216 C6.832,42.306 5.417,41.038 5.327,39.384 C5.237,37.729 6.505,36.315 8.160,36.225 C9.195,36.168 10.136,36.644 10.717,37.413 C12.561,36.628 19.553,33.503 25.779,28.755 C32.208,23.853 37.545,16.806 37.944,13.070 C38.763,5.403 34.407,4.219 29.992,4.991 C27.339,5.454 22.654,10.642 25.353,11.753 C26.625,11.320 25.717,9.229 25.717,9.229 L26.634,7.677 C26.634,7.677 29.475,12.496 25.435,13.251 C23.139,13.258 22.321,13.122 22.748,9.892 C23.132,6.988 27.773,2.662 32.353,2.358 C37.166,2.039 42.237,7.135 41.000,14.000 Z" class="cls-1"/>
  <path d="M13.125,35.454 L10.683,36.588 C10.683,36.588 10.236,35.611 7.633,35.753 C5.648,35.861 4.730,37.612 4.828,39.411 C4.926,41.210 6.126,42.845 8.513,42.715 C11.754,42.539 11.845,39.529 11.845,39.529 L14.287,38.395 C14.287,38.395 14.967,40.711 13.034,42.970 C11.263,45.038 8.150,45.239 8.150,45.239 C8.150,45.239 5.166,45.232 3.521,42.987 C1.876,40.743 2.332,39.547 2.332,39.547 C2.332,39.547 1.698,37.105 3.585,34.972 C5.471,32.839 7.497,33.256 7.497,33.256 C7.497,33.256 8.687,32.689 10.520,33.593 C12.353,34.496 13.125,35.454 13.125,35.454 Z" class="cls-1"/>
  <path d="M29.500,29.500 L28.000,31.000 L34.500,34.000 L37.000,32.000 L29.500,29.500 Z" class="cls-1"/>
</svg>
