<svg xmlns="http://www.w3.org/2000/svg" width="51" height="51" viewBox="0 0 51 51">
  <metadata><?xpacket begin="﻿" id="W5M0MpCehiHzreSzNTczkc9d"?>
<x:xmpmeta xmlns:x="adobe:ns:meta/" x:xmptk="Adobe XMP Core 5.6-c138 79.159824, 2016/09/14-01:09:01        ">
   <rdf:RDF xmlns:rdf="http://www.w3.org/1999/02/22-rdf-syntax-ns#">
      <rdf:Description rdf:about=""/>
   </rdf:RDF>
</x:xmpmeta>
                                                                                                    
                                                                                                    
                                                                                                    
                                                                                                    
                                                                                                    
                                                                                                    
                                                                                                    
                                                                                                    
                                                                                                    
                                                                                                    
                                                                                                    
                                                                                                    
                                                                                                    
                                                                                                    
                                                                                                    
                                                                                                    
                                                                                                    
                                                                                                    
                                                                                                    
                                                                                                    
                           
<?xpacket end="w"?></metadata>
<defs>
    <style>
      .cls-1 {
        fill-rule: evenodd;
      }
    </style>
  </defs>
  <path id="_" data-name="!!!" class="cls-1" d="M50.677,8.937c-0.141.6-.341,1.279-0.609,2.074-0.235.7-.513,1.651-0.828,2.826-0.326,1.213-.995,3.89-1.989,7.956s-1.721,6.956-2.147,8.56l-0.011.042-0.013.042a3.559,3.559,0,0,1-4.02,2.687c-2.239-.359-2.845-1.034-2.545-4.528,0.22-2.553.473-4.758,0.754-6.559,0.265-1.688.485-3.312,0.653-4.8a39.1,39.1,0,0,1,1.368-7.83,15.72,15.72,0,0,1,2.285-4.565c1.158-1.538,2.358-2.287,3.668-2.291,0.1,0,.192,0,0.284.011a3.736,3.736,0,0,1,2.454,1.4,3.967,3.967,0,0,1,1.01,3.016A13.522,13.522,0,0,1,50.677,8.937ZM42.2,36.228A4.3,4.3,0,0,1,44.5,37.3a3.022,3.022,0,0,1,1.06,2.474q-0.286,5.653-5.837,5.372c-0.161-.009-0.322-0.026-0.481-0.05A5.366,5.366,0,0,1,36.8,44.013a3.513,3.513,0,0,1-1.223-3.306,4.133,4.133,0,0,1,2.235-3.44,7.027,7.027,0,0,1,3.816-1.094A5.643,5.643,0,0,1,42.2,36.228ZM29.807,9.922c-0.1.732-.2,1.718-0.285,2.93-0.094,1.253-.25,4.007-0.467,8.188s-0.39,7.154-.509,8.81l0,0.044,0,0.044a3.559,3.559,0,0,1-3.447,3.391c-2.267.066-2.988-.484-3.346-3.973-0.261-2.549-.424-4.763-0.485-6.584C21.2,21.064,21.116,19.427,21,17.935a39.1,39.1,0,0,1-.12-7.948,15.722,15.722,0,0,1,1.391-4.911c0.85-1.728,1.889-2.687,3.175-2.936,0.094-.018.189-0.034,0.281-0.043a3.736,3.736,0,0,1,2.671.912,3.967,3.967,0,0,1,1.556,2.774,13.5,13.5,0,0,1,.059,1.986C29.991,8.385,29.922,9.09,29.807,9.922ZM26.216,36.217a5.607,5.607,0,0,1,.572-0.051,4.3,4.3,0,0,1,2.466.618,3.022,3.022,0,0,1,1.5,2.233q0.776,5.607-4.73,6.368c-0.16.021-.322,0.034-0.482,0.04a5.366,5.366,0,0,1-2.608-.6A3.514,3.514,0,0,1,21.118,41.8,4.133,4.133,0,0,1,22.671,38,7.026,7.026,0,0,1,26.216,36.217ZM12.632,46.429c-0.152.054-.307,0.1-0.462,0.141a5.365,5.365,0,0,1-2.676-.038,3.514,3.514,0,0,1-2.416-2.567,4.133,4.133,0,0,1,.716-4.04,7.026,7.026,0,0,1,3.087-2.5,5.618,5.618,0,0,1,.548-0.171,4.3,4.3,0,0,1,2.541.083,3.021,3.021,0,0,1,1.941,1.865Q17.853,44.522,12.632,46.429ZM9.171,34.844c-2.2.543-3.023,0.158-4.11-3.176C4.268,29.232,3.64,27.1,3.2,25.335,2.781,23.677,2.35,22.1,1.924,20.661a39.1,39.1,0,0,1-1.8-7.743A15.721,15.721,0,0,1,.451,7.823C0.917,5.955,1.729,4.8,2.934,4.282c0.088-.038.177-0.073,0.266-0.1A3.736,3.736,0,0,1,6,4.509,3.967,3.967,0,0,1,8.11,6.892a13.52,13.52,0,0,1,.478,1.929c0.1,0.607.185,1.311,0.248,2.148,0.057,0.736.172,1.721,0.34,2.925,0.173,1.245.6,3.97,1.273,8.1s1.13,7.075,1.363,8.719l0.007,0.043,0,0.044A3.559,3.559,0,0,1,9.171,34.844Z"/>
</svg>
