<svg xmlns="http://www.w3.org/2000/svg" xmlns:xlink="http://www.w3.org/1999/xlink" preserveAspectRatio="xMidYMid" width="51" height="51" viewBox="0 0 51 51">
  <defs>
    <style>
      .cls-1 {
        fill: #000;
        fill-rule: evenodd;
      }
    </style>
  </defs>
  <path d="M69.264,45.593 C68.847,46.355 68.158,46.932 67.325,47.216 C67.054,47.310 66.766,47.260 66.548,47.107 C66.402,47.005 66.285,46.859 66.225,46.677 C66.069,46.224 66.311,45.732 66.764,45.577 C67.187,45.432 67.534,45.143 67.742,44.762 C67.967,44.350 68.018,43.875 67.885,43.423 C67.754,42.973 67.453,42.604 67.039,42.375 C66.659,42.168 66.212,42.112 65.775,42.219 C65.358,42.321 64.951,42.093 64.786,41.710 C64.556,41.398 64.543,40.966 64.803,40.652 C65.124,40.264 65.264,39.780 65.197,39.293 C65.168,39.085 65.098,38.894 65.005,38.718 C64.933,38.584 64.850,38.458 64.750,38.348 C64.703,38.298 64.650,38.254 64.598,38.209 C64.482,38.109 64.358,38.018 64.218,37.952 C64.122,37.905 64.022,37.868 63.918,37.839 C63.913,37.838 63.909,37.836 63.904,37.835 C63.822,37.813 63.736,37.803 63.651,37.793 C63.613,37.789 63.575,37.781 63.537,37.780 C63.486,37.778 63.434,37.784 63.383,37.786 C63.308,37.790 63.234,37.791 63.160,37.805 C63.158,37.805 63.156,37.806 63.154,37.806 C63.042,37.827 62.932,37.859 62.825,37.902 C62.388,38.075 62.049,38.409 61.859,38.842 C61.689,39.239 61.675,39.691 61.822,40.115 C61.963,40.521 61.774,40.948 61.408,41.147 C61.118,41.406 60.690,41.459 60.353,41.230 C59.936,40.945 59.442,40.852 58.963,40.964 C58.321,41.115 57.852,41.605 57.682,42.198 C57.509,41.482 57.245,40.815 56.905,40.216 C57.349,39.771 57.910,39.433 58.566,39.278 C59.041,39.166 59.534,39.159 60.009,39.250 C60.038,38.876 60.117,38.506 60.267,38.158 C60.340,37.986 60.435,37.830 60.532,37.675 C60.551,37.636 60.558,37.594 60.584,37.558 C60.973,36.994 61.519,36.572 62.137,36.316 C62.153,36.309 62.166,36.299 62.182,36.292 C62.185,36.291 62.187,36.291 62.189,36.290 C62.347,36.228 62.511,36.188 62.676,36.149 C62.747,36.132 62.816,36.109 62.887,36.096 C62.916,36.092 62.943,36.079 62.972,36.075 C63.068,36.062 63.162,36.070 63.258,36.065 C63.375,36.057 63.491,36.047 63.609,36.052 C63.699,36.056 63.785,36.071 63.873,36.081 C64.020,36.098 64.166,36.118 64.310,36.154 C64.366,36.168 64.419,36.189 64.474,36.206 C64.602,36.244 64.731,36.274 64.856,36.327 C64.901,36.347 64.940,36.376 64.984,36.398 C64.988,36.399 64.991,36.402 64.995,36.404 C65.397,36.600 65.752,36.870 66.049,37.201 C66.052,37.204 66.055,37.208 66.058,37.212 C66.201,37.372 66.328,37.544 66.440,37.729 C66.450,37.746 66.459,37.763 66.469,37.780 C66.532,37.888 66.601,37.991 66.653,38.106 C66.669,38.141 66.663,38.179 66.674,38.215 C66.783,38.481 66.872,38.758 66.913,39.055 C66.980,39.539 66.940,40.029 66.805,40.494 C67.175,40.558 67.536,40.672 67.869,40.853 C68.693,41.301 69.284,42.040 69.548,42.934 C69.811,43.830 69.710,44.774 69.264,45.593 ZM50.437,47.875 L49.625,47.875 L49.625,47.937 L35.251,47.937 C35.095,47.960 34.935,47.974 34.768,47.975 L34.777,48.013 L4.951,48.025 L-0.025,25.844 L26.947,13.113 L26.956,13.152 C27.107,13.084 27.256,13.017 27.406,12.970 C27.407,12.963 27.410,12.956 27.411,12.948 C28.441,12.717 29.114,12.899 29.497,13.047 C30.264,13.385 30.858,14.084 31.082,15.081 C31.348,16.269 31.009,17.541 30.306,18.553 C30.407,19.032 30.514,19.549 30.625,20.083 C31.642,20.409 32.461,21.230 32.730,22.428 C33.008,23.667 32.618,24.936 31.828,25.865 C31.920,26.306 32.014,26.762 32.109,27.211 C33.209,27.607 34.098,28.526 34.378,29.776 C34.667,31.064 34.221,32.311 33.342,33.140 C33.425,33.543 33.507,33.940 33.589,34.333 C34.334,34.635 34.968,35.166 35.426,35.829 C35.904,35.639 36.425,35.534 36.972,35.534 C38.499,35.535 39.850,36.362 40.577,37.615 C41.262,37.198 42.052,36.972 42.879,36.971 C45.048,36.971 46.862,38.526 47.264,40.579 C47.349,40.547 47.439,40.533 47.525,40.507 C47.399,40.754 47.313,41.031 47.213,41.298 C47.914,41.326 48.604,41.506 49.209,41.873 C51.187,43.076 51.818,45.662 50.618,47.640 C50.566,47.725 50.495,47.794 50.437,47.875 ZM6.862,43.072 L15.554,43.532 C14.834,42.849 14.160,41.977 13.550,40.957 L6.424,41.120 L6.862,43.072 ZM5.548,37.217 L11.529,36.125 C11.425,35.747 11.327,35.360 11.238,34.965 C11.142,34.537 11.059,34.115 10.990,33.696 L5.111,35.266 L5.548,37.217 ZM3.797,29.411 L4.235,31.363 L10.779,28.452 C10.906,27.250 11.163,26.167 11.542,25.238 L3.797,29.411 ZM15.417,24.009 C13.489,24.442 12.247,29.005 13.472,34.464 C14.697,39.924 17.769,43.519 19.697,43.087 C21.625,42.654 22.867,38.091 21.641,32.631 C20.417,27.172 17.346,23.576 15.417,24.009 ZM25.798,17.557 L17.328,22.120 C18.338,22.496 19.322,23.221 20.221,24.254 L26.658,21.390 L25.798,17.557 ZM28.378,29.057 L23.408,30.383 C23.580,30.948 23.741,31.526 23.876,32.130 C24.004,32.701 24.102,33.260 24.185,33.814 L29.239,32.891 L28.378,29.057 ZM30.958,40.558 L23.958,40.718 C23.602,42.026 23.046,43.106 22.319,43.890 L31.818,44.392 L30.958,40.558 ZM48.128,43.654 C47.651,43.364 47.090,43.287 46.539,43.422 C46.259,43.542 45.937,43.543 45.660,43.383 C45.543,43.315 45.450,43.223 45.371,43.121 C45.310,43.050 45.269,42.963 45.227,42.876 C45.227,42.875 45.226,42.874 45.225,42.873 C45.202,42.824 45.167,42.784 45.151,42.731 C45.066,42.439 45.116,42.140 45.262,41.899 C45.263,41.898 45.264,41.897 45.265,41.895 C45.298,41.742 45.347,41.579 45.347,41.440 C45.347,40.079 44.239,38.972 42.878,38.972 C42.110,38.972 41.395,39.331 40.919,39.960 C40.673,40.284 40.249,40.424 39.859,40.319 C39.465,40.212 39.176,39.876 39.130,39.470 C39.002,38.366 38.074,37.534 36.972,37.534 C36.651,37.534 36.350,37.609 36.075,37.734 C36.119,38.815 35.661,39.771 34.848,40.371 C34.927,40.752 35.001,41.105 35.073,41.445 C36.335,42.018 37.374,43.129 37.675,44.468 C37.804,45.046 37.777,45.586 37.627,46.062 L49.050,46.062 C49.317,45.164 48.966,44.162 48.128,43.654 ZM57.531,46.915 C57.491,46.950 57.452,46.984 57.412,47.018 C57.432,46.965 57.455,46.915 57.474,46.861 C57.491,46.881 57.514,46.895 57.531,46.915 ZM57.893,43.588 C58.048,43.836 58.243,44.056 58.512,44.207 C58.930,44.441 59.079,44.968 58.845,45.387 C58.722,45.608 58.515,45.753 58.287,45.806 C58.115,45.846 57.934,45.822 57.763,45.751 C57.860,45.242 57.917,44.713 57.917,44.167 C57.917,43.971 57.906,43.779 57.893,43.588 Z" class="cls-1"/>
</svg>
