<svg xmlns="http://www.w3.org/2000/svg" xmlns:xlink="http://www.w3.org/1999/xlink" preserveAspectRatio="xMidYMid" width="51" height="51" viewBox="0 0 51 51">
  <defs>
    <style>
      .cls-1 {
        fill: #000;
        fill-rule: evenodd;
      }
    </style>
  </defs>
  <path d="M29.281,41.468 L28.882,44.015 L28.655,45.458 L27.270,45.923 L21.151,47.971 L19.497,48.525 L18.458,47.122 L14.616,41.937 L13.784,40.815 L14.351,39.536 L15.741,36.395 C9.541,30.845 2.521,23.455 2.556,18.452 C2.622,8.839 8.676,3.808 14.619,3.808 C18.192,3.808 21.451,5.493 23.918,8.447 L27.126,8.447 C29.586,5.625 32.872,3.977 36.407,3.977 C42.156,3.977 48.376,8.480 48.444,18.363 C48.491,25.138 35.498,36.447 29.281,41.468 ZM20.389,45.693 L26.508,43.645 L28.814,28.924 L23.638,27.772 L28.446,26.624 L27.261,19.233 C27.261,19.233 26.421,19.562 25.445,19.562 C24.469,19.562 23.563,19.233 23.563,19.233 L22.202,27.729 L16.547,40.508 L20.389,45.693 ZM29.574,11.842 C29.396,11.239 28.983,10.849 28.523,10.849 L22.470,10.849 C22.014,10.849 21.597,11.239 21.419,11.842 C21.240,12.448 21.475,13.154 21.653,13.614 C21.796,13.996 23.076,15.909 23.671,16.729 L24.366,16.969 C24.520,17.023 25.011,17.159 25.445,17.159 C25.844,17.159 26.264,17.039 26.402,16.990 L27.437,16.585 C28.058,15.714 29.174,14.016 29.340,13.614 C29.561,13.090 29.753,12.448 29.574,11.842 Z" class="cls-1"/>
</svg>
