<svg xmlns="http://www.w3.org/2000/svg" width="51" height="51" viewBox="0 0 51 51">

  <path id="face" opacity="0.20" d="M17,31c0-3,8.375-7,8.375-10,1,4,8.625,7,8.625,10,0-3,5-7,5-15,0-5-5-11-14-11S12,12,12,16C12,24,17,28,17,31Z"/>
  <path id="No_tongue_merged" data-name="No tongue merged" d="M39,45.275c-1.49,0-3.955-2.942-5.468-6.113C32.047,41.265,29.412,42,25.5,42s-6.547-.735-8.033-2.837C15.954,42.334,13.49,45.275,12,45.275,9.736,45.275.851,35.267,0.851,28.9c0-6.109,7.494-24.3,15.164-22.259A16.182,16.182,0,0,1,25.5,4a16.182,16.182,0,0,1,9.486,2.637C42.656,4.6,50.149,22.787,50.149,28.9,50.149,35.267,41.264,45.275,39,45.275ZM25.5,6C18,6,13,10.1,13,17c0,7,5,9,5,16,0,4.886,2,7,7.5,7S33,38,33,33c0-7,5-10,5-16C38,10.1,33,6,25.5,6ZM30,17a3,3,0,1,1,3,3A3,3,0,0,1,30,17Zm4,0a1,1,0,1,0-1-1A1,1,0,0,0,34,17ZM25.375,37s-4-2.119-4-3.5,1.791-2.5,4-2.5,4,1.119,4,2.5S25.375,37,25.375,37ZM18,20a3,3,0,1,1,3-3A3,3,0,0,1,18,20Zm1-5a1,1,0,1,0,1,1A1,1,0,0,0,19,15Z"/>
</svg>
