<svg xmlns="http://www.w3.org/2000/svg" xmlns:xlink="http://www.w3.org/1999/xlink" preserveAspectRatio="xMidYMid" width="51" height="51" viewBox="0 0 51 51">
  <defs>
    <style>
      .cls-1 {
        fill: #000;
        fill-rule: evenodd;
      }
    </style>
  </defs>
  <g>
    <path d="M43.374,31.484 C42.598,33.077 40.678,33.739 39.085,32.964 L35.571,31.252 C35.836,32.120 36.000,33.034 36.000,34.000 C36.000,34.889 36.083,35.022 36.000,35.000 C30.682,33.600 25.896,38.941 26.000,45.000 C25.871,45.016 24.005,45.057 24.000,45.000 C23.603,40.631 22.843,38.632 20.000,36.000 C17.820,33.981 13.999,35.161 14.000,35.000 C14.006,33.629 14.322,32.300 14.838,31.053 L10.915,32.964 C9.322,33.739 7.402,33.077 6.626,31.484 C5.851,29.890 6.514,27.970 8.107,27.195 L16.347,23.182 C17.940,22.406 19.860,23.069 20.636,24.662 C20.689,24.772 20.720,24.886 20.760,24.998 C21.821,25.345 23.110,25.562 24.531,25.562 C26.361,25.562 28.001,25.220 29.169,24.677 C29.225,24.698 29.276,24.729 29.332,24.751 C29.345,24.722 29.350,24.691 29.364,24.662 C30.140,23.069 32.060,22.406 33.653,23.182 L41.893,27.195 C43.486,27.970 44.149,29.890 43.374,31.484 Z" class="cls-1"/>
    <path d="M36.928,12.199 C37.200,13.159 37.358,14.165 37.358,15.208 C37.358,21.537 32.023,26.667 25.443,26.667 C18.862,26.667 13.528,21.537 13.528,15.208 C13.528,14.165 13.685,13.159 13.957,12.199 C12.075,11.198 10.778,9.240 10.778,6.958 C10.778,3.668 13.445,1.000 16.736,1.000 C19.041,1.000 21.017,2.323 22.008,4.238 C23.096,3.924 24.248,3.750 25.443,3.750 C26.638,3.750 27.790,3.924 28.878,4.238 C29.869,2.323 31.845,1.000 34.150,1.000 C37.440,1.000 40.107,3.668 40.107,6.958 C40.107,9.240 38.811,11.198 36.928,12.199 ZM16.721,3.406 C14.752,3.406 13.155,5.003 13.155,6.973 C13.155,8.250 13.833,9.363 14.843,9.992 C15.939,7.936 17.654,6.235 19.762,5.134 C19.137,4.102 18.015,3.406 16.721,3.406 ZM25.443,15.263 C21.787,15.263 18.823,17.562 18.823,20.397 C18.823,23.232 21.787,24.613 25.443,24.613 C29.099,24.613 32.062,23.232 32.062,20.397 C32.062,17.562 29.099,15.263 25.443,15.263 ZM34.164,3.406 C32.870,3.406 31.748,4.102 31.123,5.134 C33.231,6.235 34.946,7.936 36.043,9.992 C37.052,9.363 37.730,8.250 37.730,6.973 C37.730,5.003 36.133,3.406 34.164,3.406 ZM25.443,21.424 C24.035,21.424 22.894,20.277 22.894,18.861 C22.894,17.445 24.035,16.297 25.443,16.297 C26.851,16.297 27.992,17.445 27.992,18.861 C27.992,20.277 26.851,21.424 25.443,21.424 Z" class="cls-1"/>
  </g>
  <path d="M14.134,36.232 C16.953,35.018 20.498,36.907 22.052,40.451 C23.607,43.995 22.582,47.853 19.764,49.067 C16.945,50.281 13.400,48.392 11.845,44.848 C10.291,41.304 11.315,37.447 14.134,36.232 Z" class="cls-1"/>
  <path d="M35.710,36.446 C38.402,37.852 39.135,41.770 37.345,45.197 C35.556,48.624 31.923,50.263 29.230,48.857 C26.537,47.451 25.805,43.533 27.594,40.106 C29.384,36.679 33.017,35.041 35.710,36.446 Z" class="cls-1"/>
</svg>
