<?xml version="1.0" encoding="utf-8"?>
<!-- Generator: Adobe Illustrator 21.1.0, SVG Export Plug-In . SVG Version: 6.00 Build 0)  -->
<svg version="1.1" id="Layer_1" xmlns="http://www.w3.org/2000/svg" xmlns:xlink="http://www.w3.org/1999/xlink" x="0px" y="0px"
	 viewBox="0 0 850 850" xml:space="preserve">
<g>
	<path fill="#18182A" d="M94.1,694.8l-6.7-17.3H45.3l-6.8,17.3H12.3l41.9-97.6h26.2l40.9,97.6H94.1z M52.9,658h27l-13.4-34.8
		L52.9,658z"/>
	<path fill="#18182A" d="M250.2,626.3c4.9,5.2,7.4,12.2,7.4,21v47.5h-24.8v-40.4c0-4.3-1.1-7.6-3.3-10.1c-2.2-2.5-5.2-3.7-9-3.7
		c-4.4,0.1-7.8,1.7-10.4,4.8c-2.6,3.1-3.8,7.2-3.8,12.2v37.2h-24.8v-40.4c0-4.3-1.1-7.6-3.3-10.1c-2.2-2.5-5.2-3.7-9-3.7
		c-4.4,0.1-7.8,1.7-10.4,4.8c-2.6,3.1-3.9,7.2-3.9,12.2v37.2h-24.6v-75.3h24.6v12.4c2.6-4.4,6-7.7,10.1-10c4.1-2.3,8.9-3.4,14.4-3.4
		c6.1,0,11.4,1.5,15.7,4.5c4.4,3,7.5,7.1,9.3,12.4c2.4-5.6,5.9-9.8,10.4-12.6c4.5-2.8,9.8-4.2,15.9-4.2
		C238.8,618.5,245.3,621.1,250.2,626.3z"/>
	<path fill="#18182A" d="M340.5,623.4c5.3,3.2,9.4,7.8,12.3,13.6c2.9,5.9,4.4,12.7,4.4,20.4c0,7.6-1.4,14.3-4.2,20
		c-2.8,5.8-6.9,10.2-12.1,13.4c-5.2,3.2-11.3,4.7-18.2,4.7c-4.7,0-9-0.9-12.9-2.7c-3.9-1.8-7.1-4.4-9.8-7.9v36.8h-24.8V619.5h24.8
		v9.8c5.5-7.1,12.9-10.6,22.1-10.6C329,618.6,335.2,620.2,340.5,623.4z M327.7,670.4c3-3.4,4.5-7.9,4.5-13.5
		c0-5.6-1.5-10.1-4.5-13.6c-3-3.5-6.9-5.2-11.8-5.2c-4.7,0-8.6,1.7-11.6,5.2c-3,3.5-4.5,8-4.5,13.6c0,5.6,1.5,10.1,4.5,13.5
		c3,3.4,6.8,5.2,11.6,5.2C320.8,675.6,324.7,673.9,327.7,670.4z"/>
	<path fill="#18182A" d="M431.4,629.5c6.6,7.2,9.9,17.2,9.9,29.8c0,2,0,3.4-0.1,4.5h-52.4c1.2,4.3,3.3,7.5,6.3,9.8
		c3,2.3,6.6,3.4,10.9,3.4c3.2,0,6.4-0.7,9.4-2c3-1.3,5.8-3.2,8.3-5.7l12.9,12.9c-3.9,4.4-8.6,7.7-14.1,10
		c-5.5,2.3-11.8,3.4-18.7,3.4c-8.1,0-15.1-1.6-21.2-4.7c-6-3.2-10.6-7.6-13.9-13.4c-3.2-5.7-4.8-12.4-4.8-20
		c0-7.7,1.6-14.5,4.9-20.4c3.2-5.9,7.8-10.4,13.8-13.6c5.9-3.2,12.8-4.8,20.6-4.8C415.4,618.6,424.8,622.3,431.4,629.5z
		 M417.2,650.5c0-4.4-1.3-7.9-3.8-10.5c-2.6-2.7-5.9-4-10.1-4c-3.9,0-7.2,1.3-9.8,3.9c-2.6,2.6-4.4,6.1-5.2,10.6H417.2z"/>
	<path fill="#18182A" d="M488.8,622c4.1-2.3,8.8-3.5,14.1-3.5v22.7c-0.8-0.1-2.1-0.1-3.8-0.1c-5.8,0-10.6,1.4-14.2,4.1
		s-5.7,6.5-6.3,11.2v38.4h-24.8v-75.3h24.8V632C481.3,627.6,484.7,624.3,488.8,622z"/>
	<path fill="#18182A" d="M540.1,635.6c-2.1,0-3.9,0.4-5.2,1.2c-1.3,0.8-1.9,2-1.9,3.6c0,1.7,1,3,3.1,4c2,1,5.3,2.1,9.7,3.3
		c5.4,1.6,9.9,3.1,13.4,4.7c3.6,1.5,6.7,3.8,9.3,7c2.6,3.1,3.9,7.2,3.9,12.2c0,7.6-2.9,13.6-8.8,17.9c-5.9,4.3-13.6,6.5-23,6.5
		c-6.4,0-12.5-0.9-18.4-2.7c-5.8-1.8-11-4.5-15.6-8l7.8-16c4.3,3,8.7,5.3,13.4,6.9c4.7,1.6,9.1,2.4,13.3,2.4c2.4,0,4.3-0.4,5.8-1.2
		c1.4-0.8,2.2-1.9,2.2-3.4c0-1.9-1-3.3-3.1-4.3c-2.1-1-5.4-2.1-9.8-3.3c-5.3-1.6-9.7-3.1-13.1-4.7c-3.4-1.5-6.4-3.8-9-6.9
		c-2.6-3.1-3.8-7.1-3.8-12c0-7.6,2.9-13.6,8.6-17.9c5.8-4.3,13.2-6.5,22.3-6.5c5.5,0,10.9,0.7,16.2,2.2c5.3,1.5,10.4,3.7,15.1,6.5
		l-8.4,16.2C554.3,638.2,546.3,635.6,540.1,635.6z"/>
	<path fill="#18182A" d="M644,625.7c5.8,4.8,8.7,11.5,8.8,20.1v49h-24.4v-8.5c-5,6.4-12.6,9.6-22.7,9.6c-8,0-14.3-2.2-18.9-6.5
		c-4.6-4.3-6.9-10-6.9-17.1c0-7.1,2.5-12.7,7.4-16.7c5-4,12.1-6,21.4-6.1h19.6v-0.8c0-3.6-1.2-6.4-3.7-8.4c-2.5-2-6-2.9-10.7-2.9
		c-3.2,0-6.7,0.5-10.7,1.5c-3.9,1-7.9,2.5-11.9,4.5l-6.8-16.7c6.1-2.8,12-4.9,17.6-6.2c5.6-1.4,11.4-2,17.5-2
		C630.2,618.5,638.2,620.9,644,625.7z M623.1,676.3c2.8-1.8,4.5-4.1,5.3-7v-6.5h-14.8c-7,0-10.4,2.6-10.4,7.8c0,2.6,0.9,4.7,2.7,6.2
		c1.8,1.5,4.3,2.3,7.4,2.3C617.1,679.1,620.3,678.2,623.1,676.3z"/>
	<path fill="#18182A" d="M739,626.3c5,5.2,7.4,12.2,7.4,21v47.5h-24.6v-40.4c0-4.3-1.2-7.6-3.5-10.1c-2.3-2.5-5.4-3.7-9.3-3.7
		c-4.1,0.1-7.4,1.4-10.1,4c-2.6,2.6-4.2,6-4.7,10.3v39.8h-24.8v-75.3h24.8v12.3c2.7-4.4,6.1-7.7,10.4-9.9c4.2-2.2,9.1-3.3,14.5-3.3
		C727.4,618.5,734.1,621.1,739,626.3z"/>
	<path fill="#18182A" d="M839.4,591.5v103.3h-24.8V685c-2.6,3.5-5.8,6.2-9.5,8c-3.8,1.8-8,2.7-12.7,2.7c-7,0-13.1-1.6-18.4-4.9
		c-5.3-3.3-9.4-7.8-12.3-13.7c-2.9-5.9-4.4-12.7-4.4-20.4c0-7.6,1.4-14.3,4.3-20c2.9-5.8,6.9-10.2,12.1-13.4
		c5.2-3.2,11.2-4.7,18.1-4.7c4.8,0,9.2,0.9,13,2.8c3.9,1.9,7.1,4.5,9.8,7.9v-37.9H839.4z M810.1,671.1c3-3.5,4.5-8,4.5-13.6
		c0-5.7-1.5-10.2-4.5-13.6c-3-3.4-6.9-5.1-11.7-5.1c-4.8,0-8.8,1.7-11.8,5.2c-3,3.5-4.5,8-4.5,13.6c0,5.6,1.5,10.1,4.5,13.6
		c3,3.5,6.9,5.2,11.8,5.2C803.2,676.3,807.1,674.5,810.1,671.1z"/>
</g>
<g>
	<path fill="#18182A" d="M320.6,282.8c-48.6,48.6-48.7,127.4-0.1,176s127.4,48.7,176,0.1"/>
	<path fill="#18182A" d="M466.9,244.5c32.2-32.2,32.3-84.5,0.1-116.7s-84.5-32.3-116.7-0.1"/>
	<path opacity="0.8" fill="#18182A" d="M333.5,145c-32.2,32.2-32.3,84.5-0.1,116.7c17.6,17.6,236,236.9,236,236.9l1-56.6l56.3-3.7"
		/>
	<polygon fill="#18182A" points="623.6,331.9 565.4,273.4 531.1,307.8 589.3,366.3 	"/>
</g>
</svg>
