<svg xmlns="http://www.w3.org/2000/svg" xmlns:xlink="http://www.w3.org/1999/xlink" preserveAspectRatio="xMidYMid" width="98" height="55" viewBox="0 0 98 55">
  <defs>
    <style>

      .cls-2 {
        fill: #00ffff;
      }
    </style>
  </defs>
  <path d="M95.167,10.339 C95.167,10.339 53.094,52.433 53.094,52.433 C51.857,53.671 50.211,54.229 48.590,54.148 C46.927,54.264 45.225,53.711 43.954,52.438 C43.954,52.438 1.738,10.195 1.738,10.195 C-0.593,7.862 -0.593,4.079 1.738,1.746 C4.070,-0.587 7.850,-0.587 10.181,1.746 C10.181,1.746 48.551,40.141 48.551,40.141 C48.551,40.141 86.753,1.921 86.753,1.921 C89.076,-0.404 92.844,-0.404 95.167,1.921 C97.491,4.245 97.491,8.015 95.167,10.339 Z" id="path-1" class="cls-2" fill-rule="evenodd"/>
</svg>
