<svg xmlns="http://www.w3.org/2000/svg" xmlns:xlink="http://www.w3.org/1999/xlink" preserveAspectRatio="xMidYMid" width="98" height="55" viewBox="0 0 98 55">
  <defs>
    <style>

      .cls-2 {
        fill: #00ffff;
      }
    </style>
  </defs>
  <path d="M95.229,52.230 C92.896,54.554 89.114,54.554 86.781,52.230 C86.781,52.230 48.387,13.990 48.387,13.990 C48.387,13.990 10.160,52.056 10.160,52.056 C7.835,54.371 4.065,54.371 1.740,52.056 C-0.585,49.740 -0.585,45.986 1.740,43.671 C1.740,43.671 43.840,1.747 43.840,1.747 C45.079,0.514 46.726,-0.041 48.347,0.039 C50.012,-0.076 51.714,0.475 52.987,1.742 C52.987,1.742 95.229,43.815 95.229,43.815 C97.562,46.139 97.562,49.906 95.229,52.230 Z" id="path-1" class="cls-2" fill-rule="evenodd"/>
</svg>
