<svg xmlns="http://www.w3.org/2000/svg" xmlns:xlink="http://www.w3.org/1999/xlink" width="240" height="227" viewBox="0 0 240 227">
  <defs>
    <style>
      .cls-1 {
        fill: #101820;
        fill-rule: evenodd;
        filter: url(#filter);
      }
    </style>
    <filter id="filter" x="21" y="4.688" width="198" height="218.313" filterUnits="userSpaceOnUse">
      <feFlood result="flood" flood-color="#fff"/>
      <feComposite result="composite" operator="in" in2="SourceGraphic"/>
      <feBlend result="blend" in2="SourceGraphic"/>
    </filter>
  </defs>
  <path id="Shape_1_copy_2" data-name="Shape 1 copy 2" class="cls-1" d="M104.408,195.135s-20.868-64.189-23.154-68.07S43.539,108,43.539,99.771,43.13,73.661,41.771,67.06,58.385,52.177,58.849,45.289s13.086-4.75,11.724,2.547-6.687,23.448-11,23.911,1.289,11.843,4.685,13.115,16.8-12.776,25.689-8.684c0.361-4.733,4.337-17.208,9.786-17.282-0.132-5.125,4.2-16.115,6.135-18.607-3.423.227-7.035-3.106-11.121-8.686-2.289,3.62-7.09,11.645-11.01,11.287-2.505-.229-7.749-3-7.113-5.88,1.193-5.4,9.029-22.289,14.326-22.753s30.962,19.128,30.962,23.5-2.815,20.3-2.815,20.3,10.829-15.4,14.827-13.953A92.59,92.59,0,0,1,131.74,24.13c-2.722,3.362-5.417,3.362-5.417,3.362s-7.268-2.2-7.732-5.649,8.712-17.16,12.592-17.16,10.845,3.146,12.826,6.516c1.662,2.83,6.5,31.408,5.035,36.595-1.305,4.61-8.2,14.846-8.2,14.846S157,53.815,160.192,55.588c0.463-5.385,3-9.837,4.795-13.254-3.388,1.594-3.55,1.59-5.622.8s-6.945-4.466-6.66-7.121S166.036,23.3,169.018,23.3s12.12,6.293,11.965,10.2c-0.152,3.842-5.477,27.549-7.337,30.366-2,3.029-17.2,13.192-17.2,13.192s13.8,3.3,16,5.055c2.492-2.691,11.209-8.58,11.209-8.58s-5.015-3.7-4.729-6.257,2.708-5.593,5.556-5.759c5.112-.3,15.36,7.41,15.074,10.736S181.332,95.2,175.5,97.346c-3.215,1.182-6.518-2.525-16.3-1.1-1.787.261-.123,5.848-2.627,6.055l-6.818.564s-16.673,27.155-32.72,27.155a12.16,12.16,0,0,1,4.721,6.806l-1.451,7.824,21.379,45.729,28.565-34.444-14.835,37.48,32.839-11.2-18.217,15.715L219,223H21l52.207-19.558-25.42-10.82L86.58,197.9,72.995,174.878Z"/>
</svg>
