<svg id="Light_-_Dark_Feather" data-name="Light - Dark Feather" xmlns="http://www.w3.org/2000/svg" width="48" height="48" viewBox="0 0 48 48">
  <metadata><?xpacket begin="﻿" id="W5M0MpCehiHzreSzNTczkc9d"?>
<x:xmpmeta xmlns:x="adobe:ns:meta/" x:xmptk="Adobe XMP Core 5.6-c140 79.160451, 2017/05/06-01:08:21        ">
   <rdf:RDF xmlns:rdf="http://www.w3.org/1999/02/22-rdf-syntax-ns#">
      <rdf:Description rdf:about=""/>
   </rdf:RDF>
</x:xmpmeta>
                                                                                                    
                                                                                                    
                                                                                                    
                                                                                                    
                                                                                                    
                                                                                                    
                                                                                                    
                                                                                                    
                                                                                                    
                                                                                                    
                                                                                                    
                                                                                                    
                                                                                                    
                                                                                                    
                                                                                                    
                                                                                                    
                                                                                                    
                                                                                                    
                                                                                                    
                                                                                                    
                           
<?xpacket end="w"?></metadata>
<defs>
    <style>
      .cls-1, .cls-2, .cls-3 {
        fill-rule: evenodd;
      }

      .cls-2, .cls-3 {
        fill: none;
        stroke: #000;
        stroke-width: 2.25px;
      }

      .cls-3 {
        stroke-linecap: round;
      }
    </style>
  </defs>
  <path id="fill" class="cls-1" d="M10.365,30.81a76.987,76.987,0,0,1,9.345,5.325c4.171,2.882,11.085,7.23,11.085,7.23A37.856,37.856,0,0,1,15.778,38.19C10.128,34.738,10.365,30.81,10.365,30.81ZM19.2,24.48s0.995-.537,4.8,0,14.914,5.387,15.84,6.24a1.505,1.505,0,0,1,.57,1.83,3.605,3.605,0,0,1-1.08.99,0.831,0.831,0,0,1,.69.78c-0.034.63-.39,2.88-0.39,2.88a61.319,61.319,0,0,0-12.27-5.52c-7.241-2.368-11.52-3.36-11.52-3.36s0.635-1.668,1.44-1.92a4.445,4.445,0,0,1,1.92,0S18.3,25.234,19.2,24.48Zm-1.44,2.4a4.735,4.735,0,0,1-.96-1.92c-0.08-.84.72-2.36-0.48-2.88s-5.04.36-5.76,1.44,0.03,3.165.03,3.165l3.4,0.6s-1.235-2.685-.075-2.8,1.56,3.2,2.4,3.36A1.678,1.678,0,0,0,17.76,26.88Zm21.284,9.291a6.785,6.785,0,0,0,1.931-.658c0.259-.3-0.345-1.467.82-2.287s2.5-.3,2.589-0.518,0.518-1.554.518-1.554l2.589,2.589s0.561,1.511-.432,1.769-3.193-.388-3.5.388a1.594,1.594,0,0,0-.216.949,4.073,4.073,0,0,1,2.589,0,4.335,4.335,0,0,1,1.554,2.072l-1.036.518-1.942.55S37.663,36.991,39.044,36.171ZM40.83,13.38s0.27,3.6.24,4.83-0.09,3.84-.09,3.84a28.864,28.864,0,0,0,1.83-9A1.445,1.445,0,0,1,40.83,13.38Z"/>
  <path id="Rounded_Rectangle_1" data-name="Rounded Rectangle 1" class="cls-2" d="M47.16,43.2s-2.484,5.126-9.78,3.11S16.917,32.281,9.16,29.938C3.451,28.213,2.79,27.9,1.62,27.255c-1.08-.44,1.714-2.034,9.5-0.75,9.377,1.546,23.476,7.02,29.8,10.915C46.136,40.629,47.091,41.952,47.16,43.2Z"/>
  <path id="Rounded_Rectangle_3" data-name="Rounded Rectangle 3" class="cls-2" d="M20.16,24.96s0.135-6.393,5.8-6.44c5.585-.047,9.379,2.381,11,5.96a20.937,20.937,0,0,1,1.44,8.16"/>
  <path id="Rounded_Rectangle_4" data-name="Rounded Rectangle 4" class="cls-1" d="M38.1,26.7s1.92-13.86-2.82-17.46a8.793,8.793,0,0,0-9.06-1.38,8.608,8.608,0,0,1,8.34-2.61c7.008,1.3,7.02,10.5,7.02,10.5s2.55-9.48-.27-11.4A11.188,11.188,0,0,0,34.92,2.7a9.143,9.143,0,0,1,9.142-1.34c5.965,2.285-.8,25.22-4.882,29.6"/>
  <path id="Rounded_Rectangle_2" data-name="Rounded Rectangle 2" class="cls-3" d="M1.33,27.46S6.317,38.97,16.008,42.593c12.09,4.519,11.22,1.5,19.218,4.067"/>
</svg>
