<svg xmlns="http://www.w3.org/2000/svg" width="51" height="51" viewBox="0 0 51 51">
  <defs>
    <style>
      .cls-1 {
        fill-rule: evenodd;
      }
    </style>
  </defs>
  <path id="icon_reader_feedback_men.svg" class="cls-1" d="M25.5,51A25.5,25.5,0,1,1,51,25.5,25.5,25.5,0,0,1,25.5,51Zm0-49a23.6,23.6,0,0,0-4.278.4c-0.722,1.8-.635,3.992-1.516,3.78-0.759-.182-0.377-2.2.628-3.582A23.5,23.5,0,0,0,2.158,22.854c4.152,0.865,15.068-.948,18.336-4.191C19.089,22.424,8.53,26.749,3.608,26.228c0.867,1.343,2.746,7.491,2.564,12.623A23.491,23.491,0,0,0,22.429,48.8c0.581-.814,1.431-1.757,1.431-1.757a9.085,9.085,0,0,1,.092,1.907C24.464,48.981,24.98,49,25.5,49a23.251,23.251,0,0,0,8.37-1.566c0.522-3.275-1.285-3.338-1.948-3.032-0.706.325-3.994,0.453-5.266-.323s-0.535-2.027.146-1.822,7.152-.83,7.345-2.92a3.623,3.623,0,0,0-1.613-2.894c-1.374-1.135-4.432,1.919-6.335-.559-0.648-.845-1.082-1.55-1.338-1.061a2.087,2.087,0,0,1-2.44,1.053c-1.25-.418-4.147.637-6.289,0.532-1.7-.083-2.732-1.709-3.022-3.581A7.626,7.626,0,0,0,16.418,34.5c0.686,0.065,2.86-.564,4.108-0.627s2.621-2.206,2.727-3,0.1-2.892-.372-3.43-1.335-.429-2.7-0.9-5.736,1.886-7.228,1.308-0.062-2.187.757-1.818,2.363-.458,3.245-0.714,4.355-.518,5.234-1.056,1.338-2.7,1.945-.839S23.44,27.3,23.9,27.405a3.633,3.633,0,0,1,1.189,1.454c1.135,1.61-.323,2.827.491,4.854,0.211,0.524,1.68,1.045,3.287.985a4.559,4.559,0,0,0,4.2-3.614c0.219-1.037-.475-2.713-0.078-3.066,0.619-.551,2.653.963,2.709,3.3,0.067,2.814-.412,3.228-1.612,4.227,4.437,4.192,1.753,6.6,1.036,7.318a7.031,7.031,0,0,1,1.4,3.364,23.791,23.791,0,0,0,2.648-1.633c1.333-2.35,2.383-3.98,2.3-4.41-0.212-1.167-4.023,1.632-3.438.054,0.382-1.031,3.034-4.61,2.757-7.082-0.1-.9-2.187,1.121-2.724.779s3.739-6.52,2.789-10.275c-0.316-1.247-1.636,2.91-3.586,3.166-2.911.382,2.724-3.412,1.668-6.929C38.6,18.776,28.26,22.485,23.473,18.2c3.309,0.67,14.931,3.44,20.166-7.636A23.452,23.452,0,0,0,25.5,2ZM44.932,38.712a23.366,23.366,0,0,0,3.156-19.64A44.857,44.857,0,0,0,44.932,38.712ZM20.756,12.167c-0.574-.873,1.153-3.905,4.6-5.447C23.131,8.131,21.309,13.008,20.756,12.167Zm5.416-5.8c-0.291.1-.548,0.232-0.818,0.353A2.4,2.4,0,0,1,26.172,6.366Zm-13.015,1.7c2.7-.74,5.359.958,5.079,1.856S15.439,8.613,13.157,8.068ZM7.918,29.222c-0.581-.971.418-3.084,0.887-1.6,0.858,2.711,3.444,4.717,2.768,4.586A10.5,10.5,0,0,1,7.918,29.222Zm0.235,3.172c0.562,1.362,2.947,4.954,2.4,4.911s-2.4-1.971-2.934-2.87C6.925,33.262,7.592,31.032,8.154,32.394ZM23,38.183a1.228,1.228,0,0,1,1.847-1.077c0.448,0.409.544,4.126-.643,5.13a8.953,8.953,0,0,1-6.078,2C15.2,44.2,12.814,42.585,13.074,39.3c1.389,1.069,2.358,2.607,5.082,2.607S22.94,39.431,23,38.183Zm0.714,6.389c0.619-.261,2.421.708,1.376,1.243S23.1,44.832,23.716,44.572Zm3.317-20.136c0.846-.171,4.65-0.244,5.03-0.478s0.5-1.813,1.186-1.813,2.657,3.21,1.452,3.7-6.325-.052-6.754.079-0.759,1.056-1.159,1.118-2.113.141-1.614-.858A2.727,2.727,0,0,1,27.033,24.435Zm10.734,5.509c-0.513.9-.54-1.367-0.087-1.951S38.279,29.043,37.766,29.944Z"/>
</svg>
