<svg xmlns="http://www.w3.org/2000/svg" width="26" height="26" viewBox="0 0 26 26">
  <metadata><?xpacket begin="﻿" id="W5M0MpCehiHzreSzNTczkc9d"?>
<x:xmpmeta xmlns:x="adobe:ns:meta/" x:xmptk="Adobe XMP Core 5.6-c138 79.159824, 2016/09/14-01:09:01        ">
   <rdf:RDF xmlns:rdf="http://www.w3.org/1999/02/22-rdf-syntax-ns#">
      <rdf:Description rdf:about=""/>
   </rdf:RDF>
</x:xmpmeta>
                                                                                                    
                                                                                                    
                                                                                                    
                                                                                                    
                                                                                                    
                                                                                                    
                                                                                                    
                                                                                                    
                                                                                                    
                                                                                                    
                                                                                                    
                                                                                                    
                                                                                                    
                                                                                                    
                                                                                                    
                                                                                                    
                                                                                                    
                                                                                                    
                                                                                                    
                                                                                                    
                           
<?xpacket end="w"?></metadata>
<defs>
    <style>
      .cls-1 {
        fill-rule: evenodd;
      }
    </style>
  </defs>
  <path id="icon_team_merged" data-name="icon_team merged" class="cls-1" d="M18.969,15.905v0.322C23.14,18.054,26,21.719,26,25.969c0,0.011,0,.021,0,0.031H23.936c0-.011,0-0.021,0-0.031,0-3.452-2.348-6.431-5.815-7.932-0.139-.166-0.256-0.328-0.374-0.489a3.469,3.469,0,0,1,.085-6.138,5.882,5.882,0,0,0,1.135-3.441,6,6,0,1,0-10.913,3.42,3.457,3.457,0,0,1,.261,6.075c-0.13.183-.266,0.367-0.423,0.556C4.366,19.515,1.938,22.5,1.938,25.969c0,0.011,0,.021,0,0.031H0c0-.011,0-0.021,0-0.031,0-4.228,2.832-7.877,6.969-9.713v-0.35A1.485,1.485,0,0,0,8,14.5a1.408,1.408,0,0,0-.047-0.286A7.984,7.984,0,1,1,20.93,8,7.917,7.917,0,0,1,18,14.139a1.424,1.424,0,0,0-.059.361A1.485,1.485,0,0,0,18.969,15.905Z"/>
</svg>
