<svg id="sex" xmlns="http://www.w3.org/2000/svg" width="51" height="51" viewBox="0 0 51 51">
  <defs>
    <style>
      .cls-1 {
        fill-rule: evenodd;
      }
    </style>
  </defs>
  <path id="sex-2" data-name="sex" class="cls-1" d="M44.508,38.775A11.3,11.3,0,0,1,29.282,23.88l-1.372-2.8a2.038,2.038,0,0,1,.936-2.726l3.892-1.9L31.7,14.28c-0.011-.023-0.009-0.048-0.018-0.072a1.873,1.873,0,0,1-2.355-.551l-2.538-3.423a1.85,1.85,0,0,1,.087-2.289,0.827,0.827,0,0,1-.233-0.175L25.417,6.4a1.843,1.843,0,0,1-.48.672l-3.23,2.78a1.867,1.867,0,0,1-1.978.281l-0.255,2.58c0,0.018-.012.031-0.015,0.048a1.871,1.871,0,0,1,1.087,1.992l-0.654,4.211a1.871,1.871,0,0,1-1.877,1.581,0.785,0.785,0,0,1-.022.108l-0.964,2.285L20.776,24.2a2.038,2.038,0,0,1,1.282,2.581l-0.993,2.955a11.3,11.3,0,1,1-13.523-4.54l0.995-2.959a2.038,2.038,0,0,1,2.581-1.282L15.43,22.4l0.94-2.228a1.876,1.876,0,0,1-.883-1.892l0.654-4.211A1.872,1.872,0,0,1,17.806,12.5l0.264-2.673a0.834,0.834,0,0,1,.54-0.695L18.6,9.118a1.876,1.876,0,0,1,.2-2.647l3.23-2.78a1.877,1.877,0,0,1,2.646.2L25.118,4.4a0.832,0.832,0,0,1,.955.2l1.82,2.044a0.823,0.823,0,0,1,.175.342,1.877,1.877,0,0,1,2.3.586L32.9,11a1.854,1.854,0,0,1-.016,2.211,0.817,0.817,0,0,1,.325.338l1.037,2.156L38,13.874a2.038,2.038,0,0,1,2.726.935l1.369,2.8A11.3,11.3,0,0,1,44.508,38.775ZM13.975,28.532a7.618,7.618,0,1,0,4.795,9.648A7.618,7.618,0,0,0,13.975,28.532Zm4.381-14.2a0.84,0.84,0,0,0-.96.7l-0.42,2.7A0.841,0.841,0,0,0,18.637,18l0.42-2.7A0.841,0.841,0,0,0,18.356,14.332Zm5.187-9a0.841,0.841,0,0,0-1.186-.089L20.282,7.026a0.841,0.841,0,0,0,1.1,1.274l2.074-1.785A0.841,0.841,0,0,0,23.542,5.33Zm7.791,5.887-1.63-2.2a0.841,0.841,0,0,0-1.351,1l1.63,2.2A0.841,0.841,0,0,0,31.333,11.217Zm14.711,14.19a7.225,7.225,0,1,0-3.317,9.665A7.225,7.225,0,0,0,46.044,25.407Z"/>
</svg>
