<?xml version="1.0" encoding="utf-8"?>
<!-- Generator: Adobe Illustrator 21.1.0, SVG Export Plug-In . SVG Version: 6.00 Build 0)  -->
<svg version="1.1" id="Layer_1" xmlns="http://www.w3.org/2000/svg" xmlns:xlink="http://www.w3.org/1999/xlink" x="0px" y="0px"
	 viewBox="0 0 33 33" enableBackground="new 0 0 33 33" xml:space="preserve">
<g>
	<path fill="#666666" d="M1.4,16.8c0-8.5,6.8-15.1,15.3-15.1c8.1,0,15,6.9,14.9,15.1c0,8.3-6.9,15.1-15.2,15.1
		C8.2,31.9,1.4,25,1.4,16.8z M2.3,16.7c-0.1,7.5,6,14.2,14.1,14.2c7.9,0,14.2-6.2,14.2-14.2c0-8.1-6.6-14-13.9-14.2
		C8.7,2.4,2.2,9.1,2.3,16.7z"/>
	<path fill="#666666" d="M17,24.3c-0.4,0-0.7,0-1.1,0c0-4,0-8,0-12.1c0.3,0,0.7,0,1.1,0C17,16.2,17,20.2,17,24.3z"/>
	<path fill="#666666" d="M17.1,9.2c0,0.5,0,1,0,1.5c-0.3,0-0.7,0-1.1,0c0-0.5,0-1,0-1.5C16.3,9.2,16.7,9.2,17.1,9.2z"/>
</g>
</svg>
