<svg xmlns="http://www.w3.org/2000/svg" xmlns:xlink="http://www.w3.org/1999/xlink" preserveAspectRatio="xMidYMid" width="27" height="26" viewBox="0 0 27 26">
  <defs>
    <style>

      .cls-2 {
        fill: #000000;
      }
    </style>
  </defs>
  <path d="M23.000,14.000 C23.000,14.000 20.334,14.000 20.334,14.000 C20.334,14.000 12.240,14.000 12.240,14.000 C12.240,14.000 12.000,14.000 12.000,14.000 C12.000,14.000 0.000,14.000 0.000,14.000 C0.000,14.000 0.000,11.000 0.000,11.000 C0.000,11.000 5.000,11.000 5.000,11.000 C5.000,11.000 7.223,11.000 7.223,11.000 C7.223,11.000 13.402,11.000 13.402,11.000 C13.402,11.000 14.000,11.000 14.000,11.000 C14.000,11.000 27.000,11.000 27.000,11.000 C27.000,11.000 27.000,14.000 27.000,14.000 C27.000,14.000 23.000,14.000 23.000,14.000 ZM19.000,6.000 C18.051,5.051 16.857,3.437 14.000,3.437 C11.143,3.437 9.437,5.000 9.437,7.000 C9.437,8.412 10.135,9.325 11.200,10.000 C11.200,10.000 6.631,10.000 6.631,10.000 C6.239,9.179 6.000,8.204 6.000,7.000 C6.000,2.319 9.773,-0.000 14.000,-0.000 C18.227,-0.000 19.563,1.563 21.000,3.000 C23.000,5.000 21.000,8.000 19.000,6.000 ZM8.000,20.000 C9.642,21.384 10.876,22.562 13.000,22.562 C15.124,22.562 18.687,22.000 18.632,18.133 C18.608,16.451 17.235,15.644 15.410,15.000 C15.410,15.000 21.176,15.000 21.176,15.000 C21.691,15.773 22.020,16.714 22.024,17.941 C22.038,22.879 16.994,26.000 13.000,26.000 C9.006,26.000 7.082,24.082 6.000,23.000 C4.000,21.000 5.654,18.022 8.000,20.000 Z" id="path-1" class="cls-2" fill-rule="evenodd"/>
</svg>
