<svg xmlns="http://www.w3.org/2000/svg" width="51" height="51" viewBox="0 0 51 51">
  <defs>
    <style>
      .cls-1 {
        fill-rule: evenodd;
      }
    </style>
  </defs>
  <path id="Shape_1_copy_4" data-name="Shape 1 copy 4" class="cls-1" d="M23,41V30.431A70.977,70.977,0,0,0,9,29V51H5V2A2,2,0,0,1,9,2V4c5.915,0,23,2,23,6v6.839C38.552,17.775,46,19.5,46,22V46C43,43,32,41,23,41ZM9,6V27C13,27,13,6,9,6Zm21,5c0-3-15-5-18-5,2.79,2.06,2.609,18.966,0,21,2,0,15,.625,18,3.625V11ZM44,23c0-1.913-6.507-3.419-12-4.259V34c0,2.087-4.349,3.207-7,4.7V39c2,0,16,.625,19,3.625V23Z"/>
</svg>
