<?xml version="1.0" encoding="utf-8"?>
<!-- Generator: Adobe Illustrator 20.1.0, SVG Export Plug-In . SVG Version: 6.00 Build 0)  -->
<svg version="1.1" id="Layer_1" xmlns="http://www.w3.org/2000/svg" xmlns:xlink="http://www.w3.org/1999/xlink" x="0px" y="0px"
	 viewBox="0 0 21 26.5" style="enable-background:new 0 0 21 26.5;" xml:space="preserve">
<style type="text/css">
	.st0{opacity:0.36;fill:#4776E6;}
</style>
<path id="notes_copy_3_" class="st0" d="M18.2,25.9H2.8c-1.3,0-2.4-1.1-2.4-2.4V2.9c0-1.3,1.1-2.4,2.4-2.4h15.4
	c1.3,0,2.4,1.1,2.4,2.4v20.7C20.5,24.9,19.5,25.9,18.2,25.9z M19.3,2.9c0-0.7-0.5-1.2-1.2-1.2H2.8c-0.7,0-1.2,0.5-1.2,1.2v20.7
	c0,0.7,0.5,1.2,1.2,1.2h15.4c0.7,0,1.2-0.5,1.2-1.2V2.9z M4,20h13v1.2H4V20z M4,15.3h13v1.2H4V15.3z M4,10.5h13v1.2H4V10.5z M4,5.8
	h13V7H4V5.8z"/>
</svg>
