<svg xmlns="http://www.w3.org/2000/svg" width="51" height="51" viewBox="0 0 51 51">
  <defs>
    <style>
      .cls-1 {
        fill-rule: evenodd;
      }
    </style>
  </defs>
  <path id="Rounded_Rectangle_4_copy_7" data-name="Rounded Rectangle 4 copy 7" class="cls-1" d="M50,24.724L46.106,42.3C43.8,52.711,27.888,50.55,27.888,50.55S16.494,46.991,14.85,39.325c-4.26-.764-8.8-2.828-9.955-8.028L1,13.724A8,8,0,0,1,7.077,4.182L22.7,0.719A8,8,0,0,1,32.24,6.8l1.351,6.094,10.332,2.29A8,8,0,0,1,50,24.724ZM31.914,14.568l-0.478-2.154L30.287,7.231a6,6,0,0,0-7.156-4.559L7.51,6.134a6,6,0,0,0-4.559,7.156l3.9,17.573c0.882,3.981,4.3,5.8,7.787,6.55a20.022,20.022,0,0,0,2.027.325h0a23.589,23.589,0,0,0,4.694.051A11.6,11.6,0,0,0,22.68,37.6c0.166-.037.364-0.089,0.59-0.157l0.037-.012a22.574,22.574,0,0,0,6.931-3.667c2.68-2.141,4.792-5.139,3.945-8.957ZM43.49,17.135l-9.421-2.089,2.067,9.325c0.927,4.182-.992,7.451-3.619,9.868a9.989,9.989,0,0,1,6.7,7.555l-2.188-.485a7.99,7.99,0,0,0-5.891-5.4c-0.193-.043-0.386-0.059-0.579-0.088a29.888,29.888,0,0,1-7.443,3.732A30.256,30.256,0,0,1,17,39.61c1.646,5.427,9.183,8.512,11.325,8.987,2.6,0.577,14.1,1.078,15.833-6.733l3.9-17.573A6,6,0,0,0,43.49,17.135ZM38.58,26.1a6.836,6.836,0,0,1-.911-5.168l1.913,0.424A4.9,4.9,0,0,0,43.3,27.2l-0.424,1.913A6.836,6.836,0,0,1,38.58,26.1ZM20.732,28.81a10,10,0,0,1-10.244-3.875l2.188-.485a7.988,7.988,0,0,0,13.514-3l2.188-.485A10,10,0,0,1,20.732,28.81Zm1.931-16.7a4.883,4.883,0,0,0-3.071,2.15l-1.652-1.053a6.857,6.857,0,0,1,9.468-2.1L26.354,12.76A4.883,4.883,0,0,0,22.662,12.109ZM11.923,14.49a4.882,4.882,0,0,0-3.071,2.15L7.2,15.587a6.857,6.857,0,0,1,9.468-2.1l-1.053,1.652A4.882,4.882,0,0,0,11.923,14.49Z"/>
</svg>
