<svg xmlns="http://www.w3.org/2000/svg" xmlns:xlink="http://www.w3.org/1999/xlink" x="0px" y="0px"
	 viewBox="0 0 36.788 36.82">
<path d="M35.988,36.043c-1.052,1.051-3.2,0.988-4.094,0.094
	c-0.894-0.894-9.688-9.688-9.688-9.688l4.243-4.243c0,0,8.824,8.824,9.688,9.688C37,32.757,37.058,34.973,35.988,36.043z M22.326,10
	H20h-3l3.218-3.218C18.498,5.063,16.123,4,13.5,4c-4.735,0-8.649,3.468-9.37,8H0.088C0.835,5.251,6.552,0,13.5,0
	c3.728,0,7.103,1.511,9.546,3.954L27,0v10h-0.475H22.326z M4.344,16H7h3l-3.694,3.694C8.049,21.715,10.622,23,13.5,23
	c5.078,0,9.213-3.987,9.475-9h4C26.71,21.222,20.787,27,13.5,27c-3.983,0-7.551-1.735-10.022-4.478L0,26V16h0.241H4.344z"/>
</svg>
