<svg xmlns="http://www.w3.org/2000/svg" width="26" height="26" viewBox="0 0 26 26">
  <defs>
    <style>
      .cls-1 {
        fill-rule: evenodd;
      }
    </style>
  </defs>
  <path id="SuperScript_copy_2" data-name="SuperScript copy 2" class="cls-1" d="M22,9h4l-0.028,2.015L19,11V9s5-3,5-5a2.151,2.151,0,0,0-2-2,2.259,2.259,0,0,0-2,2L18.469,2.438C18.469,1.549,19.808,0,22,0a3.812,3.812,0,0,1,4,4C26,7,22,9,22,9ZM13.036,20H3.964L1.993,26H-0.073L7.194,3.986H9.806L17.073,26H15.007ZM8.5,6.193L4.621,18h7.757Z"/>
</svg>
