<svg xmlns="http://www.w3.org/2000/svg" width="51" height="51" viewBox="0 0 51 51">
  <defs>
    <style>
      .cls-1 {
        fill-rule: evenodd;
      }
    </style>
  </defs>
  <path id="icon_reader_feedback_engaging.svg" class="cls-1" d="M25.5,51A25.5,25.5,0,1,1,51,25.5,25.5,25.5,0,0,1,25.5,51Zm0-49A23.5,23.5,0,1,0,49,25.5,23.5,23.5,0,0,0,25.5,2Zm6,18c-1.381,0-2.5-2.015-2.5-4.5S30.119,11,31.5,11,34,13.015,34,15.5,32.881,20,31.5,20Zm-12,0c-1.381,0-2.5-2.015-2.5-4.5S18.119,11,19.5,11,22,13.015,22,15.5,20.881,20,19.5,20Zm22.4,9A17.3,17.3,0,0,1,25.5,40,17.3,17.3,0,0,1,9.1,29H41.9Z"/>
</svg>
