<svg xmlns="http://www.w3.org/2000/svg" width="35" height="19" viewBox="0 0 35 19">
  <defs>
    <style>
      .cls-1 {
        fill-rule: evenodd;
      }
    </style>
  </defs>
  <path id="merged" class="cls-1" d="M34,9.969H22a1,1,0,0,1,0-2H34A1,1,0,0,1,34,9.969ZM12.978,16.043H12.845A8.38,8.38,0,0,1,6.252,19C2.644,19,0,16.9,0,13.469,0,9.794,4.123,8.177,10,8h3V7c0-3.271-1.358-5-4-5A13.756,13.756,0,0,0,3.363,3.308L2.517,1.7A15.674,15.674,0,0,1,9,0c4,0,6,2.221,6,6V19H13ZM13,10H10c-4.383.155-8,.923-8,3.469C2,15.461,4.112,17,6.281,17,9.712,17,13,15.387,13,12V10Z"/>
</svg>
