<svg xmlns="http://www.w3.org/2000/svg" width="51" height="51" viewBox="0 0 51 51">
  <defs>
    <style>
      .cls-1 {
        fill-rule: evenodd;
      }
    </style>
  </defs>
  <path id="icon_reader_feedback_flower.svg" class="cls-1" d="M42.386,33.034c1.932,5.069-.125,13.074-2.062,14.482-2.074,1.507-11.4.822-15.262-3.264-3.96,3.921-13.014,4.576-15.057,3.092s-4.269-10.419-1.7-15.382C3.62,29.128.449,21.181,1.2,18.86c0.785-2.416,8.6-7.287,14.118-6.365C16.744,7.261,23.106,2,25.5,2c2.54,0,9.585,5.926,10.416,11.456,5.482-.615,12.914,4.049,13.679,6.4C50.355,22.2,47.131,30.256,42.386,33.034Zm5.307-12.558c-0.524-1.612-7.234-5.712-11.748-5.009a10.494,10.494,0,0,1-.963,3.521c-0.45-.608-1-1.314-1.4-1.866A8.484,8.484,0,0,0,34,14.5C34,9.806,27.306,4,25.5,4c-1.627,0-7.2,4.709-8.293,9.076a10.489,10.489,0,0,1,3.084,2.017c-0.717.24-1.559,0.546-2.206,0.753a8.485,8.485,0,0,0-2.367-1.208C11.254,13.188,3.664,17.76,3.106,19.478,2.591,21.062,5.5,28.106,9.458,30.326a10.492,10.492,0,0,1,2.863-2.3c0.007,0.756.037,1.651,0.035,2.331a8.486,8.486,0,0,0-1.88,1.878c-2.759,3.8-.756,12.43.7,13.491,1.406,1.022,9.619.344,12.695-3.094a10.5,10.5,0,0,1-1.209-3.288c0.721,0.227,1.582.475,2.228,0.687A8.482,8.482,0,0,0,26.1,42.4c2.759,3.8,11.588,4.56,13.048,3.5,1.3-.947,3.02-7.9,1.418-12.09a10.461,10.461,0,0,1-4.2.317c0.439-.616.941-1.358,1.342-1.906a8.484,8.484,0,0,0,2.624-.414C44.8,30.355,48.251,22.194,47.693,20.477ZM25.5,38A10.5,10.5,0,1,1,36,27.5,10.5,10.5,0,0,1,25.5,38Zm0-19A8.5,8.5,0,1,0,34,27.5,8.5,8.5,0,0,0,25.5,19Z"/>
</svg>
