<svg xmlns="http://www.w3.org/2000/svg" width="51" height="51" viewBox="0 0 51 51">
  <defs>
    <style>
      .cls-1 {
        fill-rule: evenodd;
      }
    </style>
  </defs>
  <path id="icon_reader_feedback_devil.svg" class="cls-1" d="M51,50.5c0,0.169-.022.332-0.025,0.5h-2c0-.168.025-0.331,0.025-0.5a23.376,23.376,0,0,0-2.975-11.429c-0.018.02-.034,0.042-0.052,0.062-0.4-.423-0.829-0.867-1.271-1.322C52.993,26.123,48.7,8.608,38,3c5.249,10.4,1,22-7.082,24.659a22.62,22.62,0,0,0-10.836,0C12,26,7.751,13.4,13,3,2.3,8.608-1.993,26.123,6.3,37.811c-0.441.456-.868,0.9-1.271,1.322-0.018-.02-0.034-0.042-0.052-0.062A23.376,23.376,0,0,0,2,50.5c0,0.169.022,0.332,0.025,0.5h-2C0.022,50.832,0,50.669,0,50.5A25.341,25.341,0,0,1,3.665,37.378C-2.236,28.7-2.851,6.591,16,0c-5.184,10.148-5,24,5.474,25.348A25.547,25.547,0,0,1,25.5,25a25.545,25.545,0,0,1,4.026.348C40,23,40.184,10.148,35,0,53.851,6.591,53.236,28.7,47.335,37.378A25.342,25.342,0,0,1,51,50.5ZM20.974,42.24A2.448,2.448,0,0,1,21,42.5a2.5,2.5,0,1,1-4.2-1.824ZM33.2,40.675A2.5,2.5,0,1,1,29,42.5a2.448,2.448,0,0,1,.026-0.26Z"/>
</svg>
