<svg xmlns="http://www.w3.org/2000/svg" width="51" height="51" viewBox="0 0 51 51">
  <defs>
    <style>
      .cls-1 {
        fill-rule: evenodd;
      }
    </style>
  </defs>
  <path id="M_for_13px_copy_5" data-name="M for 13px copy 5" class="cls-1" d="M0,51V49H51v2H0ZM0,41H51v2H0V41Zm0-8H51v2H0V33Zm46.416-6.5c-7.491-4.482-6.009-14.378-6.08-22.024,0,0-10.9,14.552-12.949,19.7-0.133.452-1.642,0.882-2.512,1.194a3.723,3.723,0,0,1-1.777.422,1.752,1.752,0,0,1-1-.351c1.194,0.379-2.062-2.678-1.383-19.843,0,0-5.451,4.478-11.985,14.142C5.651,24.3,4.193,26.129,1.061,26,0.337,25.964-.013,25.7.007,25.2c0.3-7.683,4.047-18.829,6.45-23.471A2.515,2.515,0,0,1,8.042.476a5.369,5.369,0,0,1,2.118-.483c0.63,0.027.942,0.19,0.93,0.489l-0.012.3C10.619,2,5.133,15.1,4.361,20.149c1-3.407,8.654-12.757,9.579-13.785C16.965,3,20.232.412,24.2,0.582q1.488,0.064,1.442,1.261L25.51,1.837c0.089,0,.131.106,0.123,0.305a13.113,13.113,0,0,1-.348,1.934,45.911,45.911,0,0,0-.211,14.954s9.225-13.232,9-13C36.752,2.449,38.992,1.35,40.228.837A3.824,3.824,0,0,1,42.212.346,2.724,2.724,0,0,1,43.545.87c0.619,0.326.574,0.889,0.542,1.687a3.868,3.868,0,0,1-.094.67A3.66,3.66,0,0,0,43.9,3.9c0,4.5.8,15.133,2.979,17.371C51.169,25.674,53.629,30.817,46.416,26.5Z"/>
</svg>
