<svg id="bros" xmlns="http://www.w3.org/2000/svg" width="51" height="51" viewBox="0 0 51 51">
  <defs>
    <style>
      .cls-1 {
        fill-rule: evenodd;
      }
    </style>
  </defs>
  <path id="development" class="cls-1" d="M36.956,50.846V48.657h7.588v2.189H36.956Zm5.414-9.86,2.081-1.522a3.353,3.353,0,0,1,.093.725v5.2H42.371v-4.4ZM40.153,38.32c-0.342-.139-2.282-0.936-4.439-1.824l1.117-2c1.991,0.83,3.727,1.552,4.052,1.683a10.915,10.915,0,0,1,1.526.73l-2.05,1.5C40.288,38.379,40.226,38.35,40.153,38.32ZM35.284,13.959a10.622,10.622,0,0,0,.071-1.1A15.267,15.267,0,0,0,34.7,8.021l1.812-1.76a16.156,16.156,0,0,1,1.149,6.595c0,0.359-.025.73-0.058,1.1H35.284ZM27.146,3.465V1.15c3.517,0.039,5.878.984,7.45,2.417L32.919,5.2C31.6,4.036,29.7,3.5,27.146,3.465Zm-9.81,45.071h6.54v2.31h-6.54v-2.31ZM20.272,7.072H20.024l-2.379-2.31h1.529a10.643,10.643,0,0,1,4.7-3.126V4.11a8.516,8.516,0,0,0-3.257,2.525ZM15.646,21.2a2.554,2.554,0,0,0,.1.712l-2.265.465a4.988,4.988,0,0,1-.146-1.177,5.049,5.049,0,0,1,.749-2.956c-0.114-.326-0.212-0.666-0.3-1.012h2.407a8.934,8.934,0,0,0,.311.861l0.418,0.96-0.915.51A2.182,2.182,0,0,0,15.646,21.2Zm0.02-7.238H13.353c0-.152-0.017-0.3-0.017-0.453,0-3.253.466-5.631,1.322-7.088l1.725,1.675a15.456,15.456,0,0,0-.737,5.413C15.646,13.659,15.661,13.807,15.666,13.959ZM15.312,36.522c-2.106.877-3.989,1.661-4.327,1.8-0.1.041-.191,0.081-0.286,0.121L8.6,36.9a10.989,10.989,0,0,1,1.52-.728c0.324-.131,2.065-0.855,4.06-1.686ZM8.629,45.387H6.455v-5.2a3.354,3.354,0,0,1,.093-0.733l2.081,1.521v4.409Zm5.437,5.459H6.455V48.657h7.611v2.189ZM22.6,31.066v2.415l-0.71.3-3.542,1.478-1.133-2.031,0.918-.383Zm-4.367-4.658a4.837,4.837,0,0,0,.8,1.5,3.828,3.828,0,0,0,1.561.943l-2.76,1.1a3.686,3.686,0,0,1-.649-0.655,6.391,6.391,0,0,1-1.245-2.562l-0.016-.191V25.245c-0.016-.007-0.033-0.017-0.05-0.024l2.351-.483ZM33.686,50.846h-6.54v-2.31h6.54v2.31Zm-1.017-15.6-3.559-1.465-0.71-.3V31.053l5.39,2.181Zm2.462-10.024c-0.018.008-.036,0.019-0.053,0.026L35.062,26.73a6.391,6.391,0,0,1-1.245,2.562,3.692,3.692,0,0,1-.651.657l-2.738-1.108a3.791,3.791,0,0,0,1.541-.934,4.818,4.818,0,0,0,.8-1.5V24.734Zm2.387-2.848-2.265-.465a2.561,2.561,0,0,0,.1-0.709c0-.931-0.175-1.581-0.447-1.656l-1.366-.375L34.183,17.9c0.1-.206.192-0.446,0.285-0.675h2.463c-0.083.256-.161,0.517-0.257,0.76a4.412,4.412,0,0,1,.99,3.208A4.992,4.992,0,0,1,37.518,22.372Z"/>
</svg>
