<svg xmlns="http://www.w3.org/2000/svg" xmlns:xlink="http://www.w3.org/1999/xlink" preserveAspectRatio="xMidYMid" width="30" height="30" viewBox="0 0 30 30">
  <defs>
    <style>
      .cls-1 {
        fill: #000;
        fill-rule: evenodd;
      }
    </style>
  </defs>
  <path d="M15.183,29.000 C7.552,29.000 1.366,22.732 1.366,15.000 C1.366,7.268 7.552,1.000 15.183,1.000 C22.814,1.000 29.000,7.268 29.000,15.000 C29.000,22.732 22.814,29.000 15.183,29.000 ZM15.183,2.801 C8.543,2.801 3.160,8.263 3.160,15.000 C3.160,21.737 8.543,27.199 15.183,27.199 C21.823,27.199 27.206,21.737 27.206,15.000 C27.206,8.263 21.823,2.801 15.183,2.801 ZM18.842,21.297 L13.294,16.459 L13.294,7.278 C13.294,6.980 14.254,6.418 14.534,6.418 C14.534,6.418 15.723,6.812 15.723,7.278 L15.723,15.599 L20.461,19.577 C20.659,19.788 21.271,20.437 20.461,21.297 C19.651,22.157 19.175,21.652 18.842,21.297 Z" class="cls-1"/>
</svg>
