<svg xmlns="http://www.w3.org/2000/svg" width="51" height="51" viewBox="0 0 51 51">
  <defs>
    <style>
      .cls-1 {
        fill-rule: evenodd;
      }
    </style>
  </defs>
  <path id="Charming_poop_short_copy" data-name="Charming poop short copy" class="cls-1" d="M51,43.5A7.5,7.5,0,0,1,43.5,51H7.5a7.5,7.5,0,0,1,0-15h2.837A9.73,9.73,0,0,1,10,33.5,7.5,7.5,0,0,1,17.5,26h1.556A8.781,8.781,0,0,1,19,25c0-10.251,9-3,11-8,2.051-5.128,10.746,2.761,9,8-0.159.477-.323,0.9-0.489,1.307A7.478,7.478,0,0,1,44,33.5a6.133,6.133,0,0,1-.553,2.5H43.5A7.5,7.5,0,0,1,51,43.5ZM43.406,38H42.125A9.253,9.253,0,0,1,35.5,41H32c5,0,10-4.462,10-7.5a5.5,5.5,0,0,0-4.4-5.389A5.526,5.526,0,0,1,33.37,30.8a19.353,19.353,0,0,0,3.442-5.622c1.414-4.155-3.841-9.623-5.21-6.22C29.7,23.694,21,17.631,21,25a12.572,12.572,0,0,0,1.025,5.094A4.637,4.637,0,0,1,19.65,28H17.5A5.5,5.5,0,0,0,12,33.5,8.108,8.108,0,0,0,20,41H16.5a5.97,5.97,0,0,1-5.333-3H7.438A5.5,5.5,0,0,0,7.5,49h36A5.5,5.5,0,0,0,49,43.5,5.6,5.6,0,0,0,43.406,38ZM23.219,13.149l0.9-2.1a1.991,1.991,0,0,1,1.939,1.909l-2.217.949A1.123,1.123,0,0,0,23.219,13.149Zm2.264,2.695C25.345,16.208,25.19,16.587,25,17c-0.424.922-2.394,0.744-2,0a11.439,11.439,0,0,0,.566-1.221Zm-6.185-2.5-0.373-1.57c0.761-.213,1.5-0.4,2.193-0.531L21.034,13A16.731,16.731,0,0,0,19.3,13.345Zm-3.192.929c-0.683.219-1.379,0.449-2.077,0.679l-0.05-1.6c0.688-.231,1.392-0.469,2.1-0.7ZM19,3c-1.226.636-3.619,0.735-4,0s1.619-3,3-3a1.951,1.951,0,0,1,2,1C20.381,1.735,20.226,2.364,19,3ZM10.633,4.465a2.915,2.915,0,0,1,1.878-.732C13,3.966,12.492,5.31,12.095,5.87ZM11.018,15.92c-0.726.221-1.431,0.422-2.1,0.587l0.07-1.676c0.608-.119,1.3-0.3,2.053-0.528ZM7.293,8.61c0.417-.592.882-1.226,1.388-1.9l1.556,1.331c-0.515.616-.97,1.181-1.371,1.7ZM6.908,14.835L5.322,16.907a1.424,1.424,0,0,1-1.393-1.474l2.737-.776A0.794,0.794,0,0,0,6.908,14.835ZM6.746,13.027l-1.955-.388c0.266-.53.6-1.125,1.006-1.776L7.354,11.9A9.358,9.358,0,0,0,6.746,13.027Z"/>
</svg>
