<svg xmlns="http://www.w3.org/2000/svg" xmlns:xlink="http://www.w3.org/1999/xlink" preserveAspectRatio="xMidYMid" width="464" height="464" viewBox="0 0 464 464">
  <defs>
    
  </defs>
  <path d="M232.000,464.000 C103.870,464.000 -0.000,360.130 -0.000,232.000 C-0.000,103.870 103.870,-0.000 232.000,-0.000 C360.130,-0.000 464.000,103.870 464.000,232.000 C464.000,360.130 360.130,464.000 232.000,464.000 ZM232.000,24.000 C117.125,24.000 24.000,117.125 24.000,232.000 C24.000,346.875 117.125,440.000 232.000,440.000 C346.875,440.000 440.000,346.875 440.000,232.000 C440.000,117.125 346.875,24.000 232.000,24.000 ZM319.393,226.419 C319.393,226.419 247.000,154.026 247.000,154.026 C247.000,154.026 247.000,345.000 247.000,345.000 C247.000,353.284 240.284,360.000 232.000,360.000 C223.716,360.000 217.000,353.284 217.000,345.000 C217.000,345.000 217.000,154.213 217.000,154.213 C217.000,154.213 144.801,226.413 144.801,226.413 C138.943,232.271 129.445,232.271 123.587,226.413 C117.729,220.555 117.729,211.057 123.587,205.200 C123.587,205.200 221.393,107.393 221.393,107.393 C224.364,104.423 228.270,102.966 232.164,103.008 C236.013,103.000 239.864,104.463 242.800,107.400 C242.800,107.400 340.607,205.206 340.607,205.206 C346.464,211.064 346.464,220.561 340.607,226.419 C334.749,232.277 325.251,232.277 319.393,226.419 Z" id="path-1" class="cls-2" fill-rule="evenodd"/>
</svg>
