<svg xmlns="http://www.w3.org/2000/svg" width="28" height="29" viewBox="0 0 28 29">
  <defs>
    <style>
      .cls-1 {
        fill-rule: evenodd;
      }
    </style>
  </defs>
  <path id="icon_toolbox_team_chat.svg" class="cls-1" d="M22.138,21.981H21V29l-10.583-7.02H5.862A5.862,5.862,0,0,1,0,16.119V5.862A5.862,5.862,0,0,1,5.862,0H22.138A5.862,5.862,0,0,1,28,5.862V16.119A5.862,5.862,0,0,1,22.138,21.981ZM26,6a4.3,4.3,0,0,0-4-4H6A4.3,4.3,0,0,0,2,6V16a4.3,4.3,0,0,0,4,4h5l8,5.5V22a2.156,2.156,0,0,1,2.034-2H22a4.3,4.3,0,0,0,4-4V6Z"/>
</svg>
