<svg xmlns="http://www.w3.org/2000/svg" width="40" height="40" viewBox="0 0 40 40">
  <metadata><?xpacket begin="﻿" id="W5M0MpCehiHzreSzNTczkc9d"?>
<x:xmpmeta xmlns:x="adobe:ns:meta/" x:xmptk="Adobe XMP Core 5.6-c138 79.159824, 2016/09/14-01:09:01        ">
   <rdf:RDF xmlns:rdf="http://www.w3.org/1999/02/22-rdf-syntax-ns#">
      <rdf:Description rdf:about=""/>
   </rdf:RDF>
</x:xmpmeta>
                                                                                                    
                                                                                                    
                                                                                                    
                                                                                                    
                                                                                                    
                                                                                                    
                                                                                                    
                                                                                                    
                                                                                                    
                                                                                                    
                                                                                                    
                                                                                                    
                                                                                                    
                                                                                                    
                                                                                                    
                                                                                                    
                                                                                                    
                                                                                                    
                                                                                                    
                                                                                                    
                           
<?xpacket end="w"?></metadata>
<defs>
    <style>
      .cls-1 {
        fill-rule: evenodd;
      }
    </style>
  </defs>
  <path id="Merged" class="cls-1" d="M40,22l-0.027.023A2.218,2.218,0,0,1,38,24V23.954c-0.065.122-.043,0.185,0.127,0.146-1.223.279-3.1,0.865-3.587,2.045-0.462,1.116.393,2.762,0.977,3.793l0.04-.04a2.3,2.3,0,0,1-.187,3.016l-2.453,2.453a2.3,2.3,0,0,1-3.016.188l0.04-.04c-1.031-.585-2.677-1.44-3.793-0.977-1.18.489-1.766,2.364-2.045,3.587,0.039-.169-0.021-0.192-0.137-0.127H24a2.232,2.232,0,0,1-1.873,1.959L22.094,40c0-.011,0-0.024,0-0.036a2.3,2.3,0,0,1-.279.036H18.188a2.3,2.3,0,0,1-.279-0.036c0,0.011,0,.024,0,0.036l-0.033-.041A2.232,2.232,0,0,1,16,38h0.045c-0.123-.074-0.187-0.056-0.147.118-0.281-1.22-.866-3.091-2.043-3.579-1.116-.462-2.762.393-3.793,0.977l0.04,0.04a2.3,2.3,0,0,1-3.016-.187L4.631,32.915A2.3,2.3,0,0,1,4.444,29.9l0.04,0.04c0.585-1.031,1.44-2.677.977-3.793C4.972,24.966,3.1,24.38,1.873,24.1c0.169,0.039.192-.025,0.127-0.146V24A2.218,2.218,0,0,1,.027,22.023L0,22l0.024,0C0.019,21.933,0,21.882,0,21.813V18a1.959,1.959,0,0,1,2-2v0.055c0.074-.129.056-0.2-0.118-0.158,1.22-.281,3.091-0.866,3.579-2.043,0.462-1.116-.393-2.762-0.977-3.793l-0.04.04a2.3,2.3,0,0,1,.188-3.016L7.085,4.631A2.3,2.3,0,0,1,10.1,4.444l-0.04.04c1.031,0.585,2.677,1.44,3.793.977C15.031,4.973,15.616,3.1,15.9,1.882c-0.04.174,0.025,0.191,0.147,0.118H16A2.232,2.232,0,0,1,17.873.04L17.906,0c0,0.011,0,.024,0,0.036A2.3,2.3,0,0,1,18.188,0h3.625a2.3,2.3,0,0,1,.279.036c0-.011,0-0.024,0-0.036l0.033,0.04A2.232,2.232,0,0,1,24,2H23.964c0.116,0.065.175,0.043,0.137-.127,0.279,1.223.865,3.1,2.045,3.587,1.116,0.462,2.762-.393,3.793-0.977l-0.04-.04a2.3,2.3,0,0,1,3.016.188l2.453,2.453a2.3,2.3,0,0,1,.188,3.016l-0.04-.04c-0.585,1.031-1.44,2.677-.977,3.793,0.488,1.177,2.359,1.762,3.579,2.043-0.174-.04-0.192.029-0.118,0.158V16a2.218,2.218,0,0,1,1.973,1.977L40,18l-0.024,0c0,0.065.024,0.116,0.024,0.185v3.625c0,0.069-.019.12-0.024,0.185Zm-2-3.963c-2.337-.239-4.824-1.422-5.6-3.293-0.75-1.81.329-4.415,1.649-6.15L31.405,5.949c-1.733,1.316-4.34,2.4-6.149,1.65-1.871-.775-3-3.263-3.212-5.6H17.955c-0.213,2.337-1.34,4.824-3.212,5.6-1.81.75-4.415-.329-6.15-1.649L5.951,8.594c1.32,1.735,2.4,4.34,1.649,6.15C6.824,16.615,4.337,17.8,2,18.037v3.926c2.337,0.239,4.824,1.422,5.6,3.293,0.75,1.81-.334,4.416-1.65,6.149l2.644,2.644c1.735-1.32,4.34-2.4,6.15-1.649,1.871,0.775,3,3.263,3.212,5.6h4.089c0.213-2.337,1.34-4.824,3.212-5.6,1.81-.749,4.416.334,6.149,1.65l2.645-2.645c-1.316-1.733-2.4-4.34-1.65-6.149,0.775-1.871,3.263-3.054,5.6-3.293V18.037ZM20,29a9,9,0,1,1,9-9A9,9,0,0,1,20,29Zm0-16a7,7,0,1,0,7,7A7,7,0,0,0,20,13Z"/>
</svg>
