<svg xmlns="http://www.w3.org/2000/svg" width="51" height="51" viewBox="0 0 51 51">
  <defs>
    <style>
      .cls-1 {
        fill-rule: evenodd;
      }
    </style>
  </defs>
  <path id="merged" class="cls-1" d="M47.717,23.506c1.192,5.284-3.486,11.189-7.431,11.465A144.049,144.049,0,0,1,25.674,51,145.724,145.724,0,0,1,10.912,34.991C7.245,34.9,2.025,28.9,3.064,22.944-1.018,14.739-1.869,6.78,5.852,2.311c11.884-6.878,19.62,4.237,19.62,4.237s7.736-11.114,19.62-4.237C52.99,6.882,51.967,15.1,47.717,23.506Zm-9.927,11.4C33.8,34.579,29.525,33.209,27,29H24c-2.526,4.21-6.471,5.58-10.638,5.909A137.345,137.345,0,0,0,25.661,48,136.27,136.27,0,0,0,37.79,34.909ZM3.961,20.4C5.638,17.6,10,13.781,10,13V2.508A13.975,13.975,0,0,0,7.237,3.679C0.879,7.317,1.023,13.645,3.961,20.4ZM25.474,9.539S20.123,1.135,12,2.086V13c0,0.813,8.382,9.494,12.648,9.956,0.039-4.7.293-8.391-4.648-11.956a8.638,8.638,0,0,1,5.579,6.464C26.588,14.144,27.681,12.329,31,11c-2.505,1.852-4.572,2.548-4.641,11.968C32.19,22.621,39,13.988,39,13V2.127C30.863,1.051,25.474,9.539,25.474,9.539Zm18.175-5.8A13.93,13.93,0,0,0,41,2.581V13c0,0.715,4.009,5.243,5.729,8.1C49.9,14.084,50.239,7.456,43.649,3.741Z"/>
</svg>
