<svg xmlns="http://www.w3.org/2000/svg" width="51" height="32" viewBox="0 0 51 32">
  <defs>
    <style>
      .cls-1 {
        fill-rule: evenodd;
      }
    </style>
  </defs>
  <path id="Word_-_O_swoop_copy_2" data-name="Word - O swoop copy 2" class="cls-1" d="M1.16,15.664c-0.012.3,0.205,0.456,0.656,0.474a3.641,3.641,0,0,0,2.515-.91A19.754,19.754,0,0,0,7.06,12.4,33.02,33.02,0,0,0,9.555,9.284Q10.719,7.633,11.7,6.33l1.243-1.47q-0.044,1.072.045,3T13.3,11.63a26.758,26.758,0,0,0,.5,2.631,2.273,2.273,0,0,0,.612,1.546,1.581,1.581,0,0,0,.752.21,4.081,4.081,0,0,0,1.489-.252,4.472,4.472,0,0,0,1.565-.713,5.667,5.667,0,0,0,1.426-1.507q1.031-1.478,1.986-3.1T23.4,7.435a14.717,14.717,0,0,1,1.262-1.917L25.56,4.3a51.833,51.833,0,0,0,.523,6.778,20.279,20.279,0,0,0,1.975,6.39,11.154,11.154,0,0,0,5.313,5.363A17.41,17.41,0,0,0,40.244,24.5a20.3,20.3,0,0,0,3.044-.054,16.845,16.845,0,0,0,6.153-1.691c1.5-.784,1.474-1.419.826-1.471a4.606,4.606,0,0,0-2.336.312,9.324,9.324,0,0,1-2.246,1.2,12.63,12.63,0,0,1-3.354.273,11.712,11.712,0,0,1-6.026-1.723,11.946,11.946,0,0,1-4.136-4.2,18.777,18.777,0,0,1-2.2-6.131,47.109,47.109,0,0,1-.66-8.069,2.112,2.112,0,0,1,.059-0.4,2.233,2.233,0,0,0,.059-0.4,0.986,0.986,0,0,0-.55-1.007A2.674,2.674,0,0,0,27.794.826a3.835,3.835,0,0,0-1.575.294,16.879,16.879,0,0,0-1.594.871c-0.346.186-2.608,2.7-2.274,2.269-0.773.984-1.37,1.516-1.788,2.125S19.6,7.722,18.935,8.827l-1.717,2.7a30.374,30.374,0,0,1-.48-3.734,25.736,25.736,0,0,1-.065-3.144,6.989,6.989,0,0,1,.235-1.6A5.315,5.315,0,0,0,17.125,1.9c0-.119-0.022-0.18-0.077-0.182l0.084,0a0.742,0.742,0,0,0-.9-0.753,5.719,5.719,0,0,0-3.418.934A16,16,0,0,0,9.84,4.419,28.9,28.9,0,0,0,7.213,7.667C6.4,8.828,5.43,9.743,5.109,10.792A35.136,35.136,0,0,1,6.614,5.378C7.356,3.122,7.746,2.848,8.44,1.086l0.007-.179C8.454,0.729,8.26.632,7.868,0.616A5.3,5.3,0,0,0,6.166.9a1.553,1.553,0,0,0-.988.749C3.681,4.423,1.349,11.078,1.16,15.664ZM0.976,20.552C7,18.192,20.6,19,26.9,20.549c1.345,0.331.947,1.133-.329,0.915-4.445-.762-18.911-1.525-24.324.975C1.479,22.792.029,20.922,0.976,20.552Zm1.516,8.743c6.333-3.279,19.171-4.417,25.624-3.759,1.377,0.141,1.153.854-.141,0.829-4.209-.081-18.953,1.392-23.963,4.621C3.3,31.443,1.588,29.762,2.491,29.294ZM1.551,24.9c5.815-2.263,19.549-3.376,25.862-1.8,1.343,0.336,1.049.959-.242,0.873-3.815-.254-15.619-0.73-24.232,2.726C2.157,27.017.6,25.271,1.551,24.9Z"/>
</svg>
