<svg id="when_i_wake" data-name="when i wake" xmlns="http://www.w3.org/2000/svg" width="51" height="51" viewBox="0 0 51 51">
  <defs>
    <style>
      .cls-1 {
        fill-rule: evenodd;
      }
    </style>
  </defs>
  <path id="ballet_shoes" data-name="ballet shoes" class="cls-1" d="M47.51,16.154c-0.432.712-1.106,1.574-1.937,2.681-0.378.5-.8,1.071-1.282,1.721-0.211.287-.412,0.551-0.6,0.8-1.143,1.506-2.057,2.2-2.057,4.061,0,2.918-.316,6.161.424,9.913l0.191,0.955c0.8,3.988,1.408,6.475-.256,9.277-1,1.677-2.91,2.452-5.361,2.452h0a7.208,7.208,0,0,1-2.285-.163c-1.42-.585-4.731-4.945-6.208-14.113a12.66,12.66,0,0,1-.148-1.676l-0.047.007S25.356,20.117,25.356,13.43s2.75-15.063,2.75-15.063l1.968,0.359-0.117.641L40.5-.141c0.018,0.689-.016,1.694-0.018,2.61l0.156-.1a16.964,16.964,0,0,0,.65,3.044L42.037,6.4l0.024,0c2.154,0.417,3.621,2.561,4.637,4.127,0.118,0.181.231,0.356,0.341,0.521A4.91,4.91,0,0,1,47.51,16.154Zm-18.617,8.2a22.338,22.338,0,0,1,2.956-5.306l-4-2.246ZM29.159,3.733l-1.3,7.141L37.967,4.143ZM39.7,6.632l-10.88,7.134,4.861,2.867c0.283-.357.565-0.714,0.854-1.076,1.952-2.44,3.741-6.076,5.179-7.391,0.242-.221.46-0.423,0.676-0.624ZM11.152,48.066c-2.781,0-5.016-1.543-6.461-4.816A18.148,18.148,0,0,1,2.7,34.392c0-3.152.1-9.757,0.206-14.9l-0.051.043L2.928,18.7c0.005-.249.011-0.5,0.016-0.739H2.989L3,17.773C3,17.68,3,17.586,3,17.5c0.006-.267.014-0.524,0.022-0.778l0.072-.051L3.76,8.57,3.712,8.548,8.087-1.327,9.9-.522,19.19-2.329,18,0.723c-0.017.1-.038,0.217-0.058,0.333l0.643,7.767h0L18.63,8.954,18.843,9.5c0.918,2.363,1.164,3,1.164,6.882,0,0.646,0,1.291-.008,1.937a66.153,66.153,0,0,0,.585,10.327c0.8,5.383-.782,10.579-2.447,14.432C16.488,46.9,14.66,48.066,11.152,48.066ZM5.42,28.933c0.943,6.341,3.877,7.341,6,7.341,3.078,0,4.3-1.531,4.673-5.1,0.229-2.2.514-5.989,0.709-9.329l-6.147-6.54L4.734,19.54C4.864,22.692,5.093,26.74,5.42,28.933ZM8.4,12.9L5.589,9.917,4.832,15.435Zm7.876-7.745L7.8,4.256,6.7,6.729l4.127,4.446L16.44,7.192ZM17,15.49a30.47,30.47,0,0,1-.039-3.248c0.01-.454.02-0.937,0.026-1.461l-3.923,2.8L17,17.815C17.031,16.736,17.038,15.9,17,15.49Z"/>
</svg>
