<svg xmlns="http://www.w3.org/2000/svg" width="51" height="51" viewBox="0 0 51 51">
  <defs>
    <style>
      .cls-1 {
        fill-rule: evenodd;
      }
    </style>
  </defs>
  <path id="icon_reader_feedback_powburst.svg" class="cls-1" d="M51,18s-13.183,5.9-13.057,6.7C38.7,29.522,47,37,47,37a60.147,60.147,0,0,0-12.937-.937C33.22,36.126,35,47,35,47s-6.328-8.116-7.486-7.355A24.147,24.147,0,0,0,19,50a24.523,24.523,0,0,0-4.181-13.317C11.1,31.4,0,31,0,31s9.847-4.942,10.826-10.614C11.168,18.4,3,6,3,6s10.936,7.539,10.976,6.848C14.243,8.232,12,1,12,1s8.238,11.309,13.726,12.042C32.6,13.96,43,7,43,7a67.154,67.154,0,0,0-3.991,10.5C38.72,18.562,51,18,51,18ZM40.872,10.465S29.38,16.747,25.289,16.171,15.072,7.165,15.072,7.165s1.825,7.986,1.021,9.47C15.587,17.571,9,12,9,12s5.216,7.153,5.006,8.646C13.34,25.385,5,30,5,30s8.609-.253,12.127,3.968C20.162,37.609,20,44,20,44s5-7.993,7.592-8.207C28.3,35.735,32,40,32,40s-0.379-5.869.716-5.961a40.847,40.847,0,0,1,10.02.736s-7.822-6.59-7.688-10.689C35.074,23.3,43,20,43,20s-6.928.306-6.989-.642C35.781,15.765,40.872,10.465,40.872,10.465Z"/>
</svg>
