<svg xmlns="http://www.w3.org/2000/svg" width="26" height="26" viewBox="0 0 26 26">
  <defs>
    <style>
      .cls-1 {
        fill-rule: evenodd;
      }
    </style>
  </defs>
  <path id="merged" class="cls-1" d="M1.723,25.723L0.309,24.309l1.7-1.7c0.006-.191.01-0.387,0.018-0.573l0.277,0.277,22-22,1.414,1.414ZM13,2A5,5,0,0,0,8.116,5.947s0,0.008,0,.012A5.008,5.008,0,0,0,8,7a17.7,17.7,0,0,1-1.261,6.878L2.852,17.765C4.026,14.72,6,13.328,6,7a3.505,3.505,0,0,1,.066-0.651A6.976,6.976,0,0,1,13,0a6.929,6.929,0,0,1,5.108,2.509L16.815,3.8A4.967,4.967,0,0,0,13,2ZM23,21c0-2.878-2.583-4.732-4.035-8.52l1.47-1.47C21.65,15.925,25,16.448,25,23H8.445l2-2H23Z"/>
</svg>
