<?xml version="1.0" encoding="utf-8"?>
<!-- Generator: Adobe Illustrator 22.0.1, SVG Export Plug-In . SVG Version: 6.00 Build 0)  -->
<svg version="1.1" id="Layer_1" xmlns="http://www.w3.org/2000/svg" xmlns:xlink="http://www.w3.org/1999/xlink" x="0px" y="0px"
	 viewBox="0 0 15.9 15.4" enable-background="new 0 0 15.9 15.4" xml:space="preserve">
<path d="M15.6,14.4l-7-7l6.5-6.5c0.2-0.2,0.2-0.5,0-0.7s-0.5-0.2-0.7,0L7.9,6.7L1.4,0.2C1.2,0,0.9,0,0.7,0.2s-0.2,0.5,0,0.7l6.5,6.5
	l-7,7c-0.2,0.2-0.2,0.5,0,0.7c0.1,0.1,0.2,0.1,0.4,0.1s0.3,0,0.4-0.1l7-7l7,7c0.1,0.1,0.2,0.1,0.4,0.1s0.3,0,0.4-0.1
	C15.8,14.9,15.8,14.6,15.6,14.4z"/>
</svg>
