<svg xmlns="http://www.w3.org/2000/svg" width="51" height="51" viewBox="0 0 51 51">
  <defs>
    <style>
      .cls-1 {
        fill: #120906;
        fill-rule: evenodd;
      }
    </style>
  </defs>
  <path id="judge" class="cls-1" d="M48.92,31h0.125c0,2.784-3.608,5.042-8.059,5.042S32.928,33.784,32.928,31H33.08l7.365-15.228-0.358-.74H27V40.855c5.156,0.266,9.125,1.891,9.125,4.176H14.875c0-2.285,3.969-3.91,9.125-4.176V15.031H10.913l-0.358.74L17.92,31h0.125c0,2.784-3.608,5.042-8.059,5.042S1.928,33.784,1.928,31H2.08L9.445,15.772l-0.358-.74H8.531l-1.844-2H24V10.938H22.144L25.5,5.125l3.356,5.813H27v2.094H44.313l-1.844,2H41.913l-0.358.74ZM3.19,31H16.81L10,16.92Zm31,0H47.81L41,16.92Z"/>
</svg>
