<svg xmlns="http://www.w3.org/2000/svg" xmlns:xlink="http://www.w3.org/1999/xlink" preserveAspectRatio="xMidYMid" width="28" height="21" viewBox="0 0 28 21">
  <defs>
    <style>
      .cls-1 {
        fill: #000;
        fill-rule: evenodd;
      }
    </style>
  </defs>
  <path d="M26.500,12.000 L13.500,12.000 C12.672,12.000 12.000,11.328 12.000,10.500 C12.000,9.672 12.672,9.000 13.500,9.000 L26.500,9.000 C27.328,9.000 28.000,9.672 28.000,10.500 C28.000,11.328 27.328,12.000 26.500,12.000 ZM26.500,3.000 L7.500,3.000 C6.672,3.000 6.000,2.328 6.000,1.500 C6.000,0.672 6.672,0.000 7.500,0.000 L26.500,0.000 C27.328,0.000 28.000,0.672 28.000,1.500 C28.000,2.328 27.328,3.000 26.500,3.000 ZM1.500,21.000 C0.672,21.000 -0.000,20.328 -0.000,19.500 C-0.000,18.672 0.672,18.000 1.500,18.000 C2.328,18.000 3.000,18.672 3.000,19.500 C3.000,20.328 2.328,21.000 1.500,21.000 ZM1.500,3.000 C0.672,3.000 -0.000,2.328 -0.000,1.500 C-0.000,0.672 0.672,0.000 1.500,0.000 C2.328,0.000 3.000,0.672 3.000,1.500 C3.000,2.328 2.328,3.000 1.500,3.000 ZM7.500,9.000 C8.328,9.000 9.000,9.672 9.000,10.500 C9.000,11.328 8.328,12.000 7.500,12.000 C6.672,12.000 6.000,11.328 6.000,10.500 C6.000,9.672 6.672,9.000 7.500,9.000 ZM7.500,18.000 L26.500,18.000 C27.328,18.000 28.000,18.672 28.000,19.500 C28.000,20.328 27.328,21.000 26.500,21.000 L7.500,21.000 C6.672,21.000 6.000,20.328 6.000,19.500 C6.000,18.672 6.672,18.000 7.500,18.000 Z" class="cls-1"/>
</svg>
