<svg id="holding_out" data-name="holding out" xmlns="http://www.w3.org/2000/svg" width="51" height="51" viewBox="0 0 51 51">
  <defs>
    <style>
      .cls-1 {
        fill-rule: evenodd;
      }
    </style>
  </defs>
  <path id="microphone" class="cls-1" d="M48.494,41.73a109.589,109.589,0,0,1-6.042,9.35c-3.766,5.415-7.323,10.53-6.375,13.483,0.369,1.15,1.478,2.04,3.392,2.72,8.585,3.053,10.865,3.406,10.957,3.419l-0.343,2.586c-0.243-.031-2.626-0.4-11.488-3.547-2.693-.958-4.375-2.432-5-4.38-1.343-4.181,2.392-9.551,6.717-15.77a107.579,107.579,0,0,0,5.9-9.123c2.112-3.818,2.693-7.084,1.727-9.707a7.534,7.534,0,0,0-2.585-3.391A11.277,11.277,0,0,1,44.2,29.033l-0.462.523L33,27.1v4.96a2,2,0,0,1-1.984,2V65.718H26.994V34.056a2,2,0,0,1-1.984-2V25.275l-8.478-1.938a10.007,10.007,0,0,1-3.419.63A10.369,10.369,0,1,1,22.134,8.5L46.717,21.546l0.008,0.7a11.477,11.477,0,0,1-.36,2.656,10.259,10.259,0,0,1,4.02,4.958C51.626,33.224,50.99,37.218,48.494,41.73ZM15.91,6.086a8.016,8.016,0,1,0-2.8,15.531,7.868,7.868,0,0,0,2.819-.544,38.214,38.214,0,0,0,2.525-5.486,38.267,38.267,0,0,0,1.675-5.792A7.936,7.936,0,0,0,15.91,6.086Zm6.322,5.126a42.4,42.4,0,0,1-1.574,5.194,42.334,42.334,0,0,1-2.205,4.959l2.972,0.679,0.981-1.712,6.969,2.281L28.841,23.74l14.006,3.2a7.869,7.869,0,0,0,1.489-4Z"/>
</svg>
