<svg xmlns="http://www.w3.org/2000/svg" xmlns:xlink="http://www.w3.org/1999/xlink" preserveAspectRatio="xMidYMid" width="51" height="51" viewBox="0 0 51 51">
  <defs>
    <style>
      .cls-1 {
        fill: #000;
        fill-rule: evenodd;
      }
    </style>
  </defs>
  <path d="M26.000,49.000 L0.000,15.000 L7.164,5.784 L16.636,2.000 L34.486,2.000 L44.200,5.906 L51.000,15.000 L26.000,49.000 ZM47.000,17.000 L38.000,22.000 L28.000,43.000 L47.000,17.000 ZM36.000,22.000 L15.000,22.000 L26.000,43.000 L36.000,22.000 ZM36.000,20.000 L32.820,12.987 L18.000,13.000 L15.000,20.000 L36.000,20.000 ZM24.000,43.000 L13.000,22.000 L4.000,17.000 L24.000,43.000 ZM3.000,14.000 L13.000,20.000 L16.000,13.000 L8.000,8.000 L3.000,14.000 ZM34.000,4.000 L17.000,4.000 L10.000,7.000 L17.000,11.000 L34.000,11.000 L41.000,7.000 L34.000,4.000 ZM42.864,8.104 L35.000,13.000 L38.000,20.000 L48.000,14.000 L42.864,8.104 Z" class="cls-1"/>
</svg>
