<svg xmlns="http://www.w3.org/2000/svg" xmlns:xlink="http://www.w3.org/1999/xlink" preserveAspectRatio="xMidYMid" width="29" height="29" viewBox="0 0 29 29">
  <defs>
    <style>

      .cls-2 {
        fill: #000000;
      }
    </style>
  </defs>
  <path d="M26.649,13.846 C26.334,13.913 25.373,13.929 24.123,13.917 C24.116,15.272 23.806,16.547 23.298,17.716 C24.383,18.248 25.198,18.678 25.442,18.875 C26.906,20.061 26.999,20.944 26.208,21.920 C25.418,22.896 25.813,22.408 25.023,23.384 C24.232,24.360 23.349,24.453 21.885,23.267 C21.648,23.076 21.080,22.402 20.361,21.500 C19.319,22.312 18.128,22.942 16.809,23.279 C17.054,24.364 17.217,25.197 17.217,25.494 C17.217,27.378 16.589,28.006 15.333,28.006 C14.077,28.006 14.705,28.006 13.449,28.006 C12.193,28.006 11.565,27.378 11.565,25.494 C11.565,25.197 11.724,24.363 11.963,23.277 C10.644,22.938 9.453,22.307 8.412,21.494 C7.698,22.400 7.134,23.076 6.897,23.267 C5.433,24.453 4.550,24.360 3.760,23.384 C2.969,22.408 3.364,22.896 2.574,21.920 C1.784,20.944 1.877,20.061 3.341,18.875 C3.585,18.678 4.397,18.244 5.478,17.705 C4.971,16.535 4.662,15.260 4.658,13.904 C3.408,13.924 2.448,13.913 2.133,13.846 C0.291,13.455 -0.193,12.710 0.068,11.481 C0.329,10.253 0.199,10.867 0.460,9.639 C0.721,8.410 1.466,7.926 3.308,8.318 C3.635,8.388 4.581,8.793 5.782,9.344 C6.379,8.216 7.195,7.223 8.168,6.413 C7.284,5.362 6.612,4.520 6.457,4.215 C5.601,2.536 5.876,1.692 6.995,1.122 C8.114,0.552 7.554,0.837 8.674,0.266 C9.793,-0.304 10.637,-0.029 11.492,1.649 C11.651,1.961 11.951,3.035 12.299,4.405 C12.975,4.257 13.670,4.156 14.391,4.156 C15.117,4.156 15.817,4.258 16.498,4.409 C16.837,3.036 17.131,1.961 17.290,1.649 C18.145,-0.029 18.990,-0.304 20.109,0.266 C21.228,0.837 20.668,0.552 21.787,1.122 C22.906,1.692 23.181,2.536 22.326,4.215 C22.170,4.521 21.502,5.366 20.624,6.423 C21.596,7.235 22.410,8.228 23.005,9.357 C24.204,8.798 25.147,8.388 25.474,8.318 C27.317,7.926 28.062,8.410 28.323,9.639 C28.584,10.867 28.453,10.253 28.714,11.481 C28.976,12.710 28.492,13.455 26.649,13.846 ZM14.391,8.531 C11.448,8.531 9.062,10.924 9.062,13.875 C9.062,16.826 11.448,19.219 14.391,19.219 C17.333,19.219 19.719,16.826 19.719,13.875 C19.719,10.924 17.333,8.531 14.391,8.531 Z" id="path-1" class="cls-2" fill-rule="evenodd"/>
</svg>
