<svg xmlns="http://www.w3.org/2000/svg" xmlns:xlink="http://www.w3.org/1999/xlink" preserveAspectRatio="xMidYMid" width="35" height="38" viewBox="0 0 35 38">
  <defs>
    <style>
      .cls-1 {
        fill: #000;
        fill-rule: evenodd;
      }
    </style>
  </defs>
  <path d="M20.133,19.755 L23.770,23.392 C26.471,22.027 30.044,22.612 32.536,25.103 C35.564,28.132 35.825,32.781 33.119,35.487 C30.413,38.193 25.764,37.932 22.735,34.904 C20.069,32.237 19.553,28.318 21.313,25.571 C19.976,24.256 18.705,23.068 17.503,21.998 C16.297,23.070 15.026,24.253 13.687,25.571 C15.447,28.318 14.931,32.237 12.265,34.904 C9.236,37.932 4.587,38.193 1.881,35.487 C-0.825,32.781 -0.564,28.132 2.464,25.103 C4.956,22.612 8.529,22.027 11.230,23.392 L14.874,19.748 C14.832,19.714 14.793,19.683 14.752,19.649 L17.389,17.011 L17.500,17.122 L34.165,0.457 C34.165,0.457 36.145,6.397 33.505,9.697 C31.481,12.227 27.111,14.014 20.133,19.755 ZM24.485,32.920 C26.547,34.982 29.577,35.296 31.252,33.620 C32.927,31.945 32.614,28.915 30.552,26.853 C28.490,24.791 25.694,24.711 24.018,26.386 C22.343,28.062 22.423,30.858 24.485,32.920 ZM10.982,26.386 C9.306,24.711 6.510,24.791 4.448,26.853 C2.386,28.915 2.073,31.945 3.748,33.620 C5.423,35.296 8.453,34.982 10.515,32.920 C12.577,30.858 12.657,28.062 10.982,26.386 ZM17.469,18.267 C16.740,18.267 16.149,18.858 16.149,19.587 C16.149,20.316 16.740,20.907 17.469,20.907 C18.198,20.907 18.789,20.316 18.789,19.587 C18.789,18.858 18.198,18.267 17.469,18.267 ZM12.978,18.236 C7.094,13.670 3.330,11.991 1.495,9.697 C-1.145,6.397 0.835,0.457 0.835,0.457 L15.796,15.418 L12.978,18.236 Z" class="cls-1"/>
</svg>
