<svg xmlns="http://www.w3.org/2000/svg" width="51" height="51" viewBox="0 0 51 51">
  <defs>
    <style>
      .cls-1 {
        fill-rule: evenodd;
      }
    </style>
  </defs>
  <path id="merged" class="cls-1" d="M44.5,8.076l2.8-4.559,1.651,1.129-2.8,4.559Zm1.218,16.233c1.811,2.456,9,9.426,2.2,20.075-4.03,6.313-13.23,8.744-19.934,4.465L9.021,36.665A5.233,5.233,0,0,1,8.109,35.9c-1.939-.309-3.682-1.684-3.682-3.533A3.406,3.406,0,0,1,5.314,30.1a3.979,3.979,0,0,1-3.588-3.493,4.871,4.871,0,0,1,.888-2.778A3.826,3.826,0,0,1-.073,20.257a4.234,4.234,0,0,1,2.345-3.807A3.812,3.812,0,0,1,1.7,13.959c0-2.106,2.261-3.969,4.53-3.969,1.8,0,15.272-.056,16.509.023L20.408,8.38A4.05,4.05,0,1,1,24.9,1.638s5.931,2.875,7.577,4.008S46.03,7.767,46.03,21.476A13.418,13.418,0,0,1,45.721,24.309Zm-6.414-7.263a2.25,2.25,0,0,0-4.118,1.815l2.9,6.583c0.157,0.355.249,1.108-.065,0.907L19.819,14.729a2.433,2.433,0,0,0-3.51.477,2.047,2.047,0,0,0,.33,2.832l12.9,8.232-0.969,1.517L14.912,19.071c-1.047-.669-2.877-0.51-3.507.476-0.823,1.29.327,2.833,1.845,3.8l12.9,8.232L25.178,33.1l-12.9-8.232c-1.047-.669-2.148.02-2.778,1.006-0.874,1.369.878,3.12,2.135,3.922l11.877,7.581-0.968,1.517L11.462,31.847c-1.047-.669-2.15-0.656-2.78.33s0.26,2.3,1.307,2.97L28.946,47.187A12.964,12.964,0,0,0,46.4,43.253c6.572-10.3-1.968-16.589-2.736-18.479S39.307,17.046,39.307,17.046ZM37.072,4.439l2.183-4.372,1.892,0.648L38.964,5.088ZM11.764,0.678l1.833-.8,1.8,4.415-1.833.8ZM2.923,3.556L4.414,2.223,8.077,6.444,6.586,7.777Z"/>
</svg>
