<svg id="when_i_wake" data-name="when i wake" xmlns="http://www.w3.org/2000/svg" width="51" height="51" viewBox="0 0 51 51">
  <defs>
    <style>
      .cls-1 {
        fill-rule: evenodd;
      }
    </style>
  </defs>
  <path id="merged" class="cls-1" d="M48.164,5.319a3.491,3.491,0,0,1-.437,3.706L46.12,10.941l2.356,1.917a45.793,45.793,0,0,1-4.514,6.884,28.792,28.792,0,0,1-6.87,5.769l-0.9-.73a58.872,58.872,0,0,0,6.235-6.325,24.865,24.865,0,0,0,3.233-5.309l-0.827-.673L31.843,27.963a144.927,144.927,0,0,0,6.257,15.4l-26.935,7.65A98.889,98.889,0,0,1,3.7,32.762,126.489,126.489,0,0,1-.037,11.574L26.9,3.924a120.475,120.475,0,0,0,2.618,15.922L42.3,4.607a3.491,3.491,0,0,1,3.54-1.181l2.746-3.374,2.327,1.894ZM25.52,6.394L2.433,12.951A99.111,99.111,0,0,0,5.5,31.78a84.878,84.878,0,0,0,7.045,16.763l23.087-6.557a124.473,124.473,0,0,1-5.25-12.279l-1.433,1.708c-1.22,1.5-8.711,5.159-8.711,5.159S22.3,28.5,23.518,27l4.41-5.258A94.739,94.739,0,0,1,25.52,6.394Zm20.438-.742a1.5,1.5,0,0,0-2.11.217L25.069,28.26a49.187,49.187,0,0,0-2.308,5.213A49.185,49.185,0,0,0,27.4,30.153L46.176,7.763A1.5,1.5,0,0,0,45.959,5.653Z"/>
</svg>
