<svg xmlns="http://www.w3.org/2000/svg" width="72" height="72" viewBox="0 0 72 72">
  <metadata><?xpacket begin="﻿" id="W5M0MpCehiHzreSzNTczkc9d"?>
<x:xmpmeta xmlns:x="adobe:ns:meta/" x:xmptk="Adobe XMP Core 5.6-c140 79.160451, 2017/05/06-01:08:21        ">
   <rdf:RDF xmlns:rdf="http://www.w3.org/1999/02/22-rdf-syntax-ns#">
      <rdf:Description rdf:about=""/>
   </rdf:RDF>
</x:xmpmeta>
                                                                                                    
                                                                                                    
                                                                                                    
                                                                                                    
                                                                                                    
                                                                                                    
                                                                                                    
                                                                                                    
                                                                                                    
                                                                                                    
                                                                                                    
                                                                                                    
                                                                                                    
                                                                                                    
                                                                                                    
                                                                                                    
                                                                                                    
                                                                                                    
                                                                                                    
                                                                                                    
                           
<?xpacket end="w"?></metadata>
<defs>
    <style>
      .cls-1 {
        fill-rule: evenodd;
      }
    </style>
  </defs>
  <path id="Note" class="cls-1" d="M64,59H36L25.795,69.205A3.989,3.989,0,0,1,18,68V59H8a8,8,0,0,1-8-8V8A8,8,0,0,1,8,0H64a8,8,0,0,1,8,8V51A8,8,0,0,1,64,59ZM69,8a5,5,0,0,0-5-5H8A5,5,0,0,0,3,8V51a5,5,0,0,0,5,5H21v9c0,2.478,0,5,3,2,1.613-1.613,8-8.422,10.408-11H64a5,5,0,0,0,5-5V8ZM48.923,35.077a4.615,4.615,0,1,1,4.615-4.615A4.615,4.615,0,0,1,48.923,35.077ZM36,35.077a4.615,4.615,0,1,1,4.615-4.615A4.615,4.615,0,0,1,36,35.077Zm-12.923,0a4.615,4.615,0,1,1,4.615-4.615A4.615,4.615,0,0,1,23.077,35.077Z"/>
</svg>
