<svg xmlns="http://www.w3.org/2000/svg" xmlns:xlink="http://www.w3.org/1999/xlink" preserveAspectRatio="xMidYMid" width="37" height="37" viewBox="0 0 37 37">
  <defs>
    <style>
      .cls-1 {
        fill: #000;
        fill-rule: evenodd;
      }
    </style>
  </defs>
  <path d="M18.188,36.188 C8.264,36.188 0.219,28.045 0.219,18.000 C0.219,7.955 8.264,-0.188 18.188,-0.188 C28.111,-0.188 36.156,7.955 36.156,18.000 C36.156,28.045 28.111,36.188 18.188,36.188 ZM18.203,2.156 C9.565,2.156 2.562,9.250 2.562,18.000 C2.562,26.750 9.565,33.844 18.203,33.844 C26.841,33.844 33.844,26.750 33.844,18.000 C33.844,9.250 26.841,2.156 18.203,2.156 ZM22.938,26.187 L15.976,19.897 L15.976,8.055 C15.976,7.668 17.130,6.905 17.494,6.905 C17.494,6.905 18.977,7.450 18.977,8.055 L18.977,18.779 L25.043,23.950 C25.300,24.224 26.095,25.068 25.043,26.187 C23.990,27.305 23.372,26.647 22.938,26.187 Z" class="cls-1"/>
</svg>
