<svg xmlns="http://www.w3.org/2000/svg" xmlns:xlink="http://www.w3.org/1999/xlink" preserveAspectRatio="xMidYMid" width="58" height="58" viewBox="0 0 58 58">
  <defs>
    
  </defs>
  <path d="M29.000,58.000 C12.984,58.000 0.000,45.016 0.000,29.000 C0.000,12.984 12.984,0.000 29.000,0.000 C45.016,0.000 58.000,12.984 58.000,29.000 C58.000,45.016 45.016,58.000 29.000,58.000 ZM40.000,5.467 C40.000,5.467 40.000,26.000 40.000,26.000 C40.000,27.105 39.105,28.000 38.000,28.000 C38.000,28.000 21.000,28.000 21.000,28.000 C19.895,28.000 19.000,27.105 19.000,26.000 C19.000,26.000 19.000,4.999 19.000,4.999 C9.606,8.918 3.000,18.185 3.000,29.000 C3.000,43.359 14.641,55.000 29.000,55.000 C43.359,55.000 55.000,43.359 55.000,29.000 C55.000,18.578 48.853,9.613 40.000,5.467 ZM31.201,47.397 C30.728,48.215 29.224,48.201 28.750,47.397 C28.221,46.501 21.691,32.855 21.103,31.795 C20.671,31.018 21.148,30.000 22.129,30.000 C23.125,30.000 36.201,30.000 36.887,30.000 C37.779,30.000 38.332,30.867 37.920,31.832 C37.563,32.671 31.921,46.152 31.201,47.397 Z" id="path-1" class="cls-2" fill-rule="evenodd"/>
</svg>
