<svg xmlns="http://www.w3.org/2000/svg" width="51" height="51" viewBox="0 0 51 51">
  <defs>
    <style>
      .cls-1 {
        fill-rule: evenodd;
      }
    </style>
  </defs>
  <path id="sun" class="cls-1" d="M48.291,26.566l-4.595,0A1.082,1.082,0,0,1,42.605,25.5a1.056,1.056,0,0,1,1.073-1.06l4.626,0A1.067,1.067,0,1,1,48.291,26.566ZM39.123,13.39a1.082,1.082,0,0,1-1.53.013,1.056,1.056,0,0,1,.009-1.508L40.87,8.621a1.067,1.067,0,1,1,1.5,1.517ZM25.5,38.971A13.488,13.488,0,1,1,38.988,25.482,13.5,13.5,0,0,1,25.5,38.971Zm0-24.892A11.453,11.453,0,1,0,36.953,25.532,11.466,11.466,0,0,0,25.5,14.079Zm0-5.684a1.056,1.056,0,0,1-1.06-1.073l0-4.626a1.067,1.067,0,1,1,2.133.013l0,4.595A1.082,1.082,0,0,1,25.5,8.4ZM11.871,13.378L8.619,10.131A1.082,1.082,0,0,1,8.606,8.6a1.056,1.056,0,0,1,1.508.009l3.274,3.268A1.067,1.067,0,1,1,11.871,13.378ZM7.291,26.566l-4.595,0A1.082,1.082,0,0,1,1.6,25.5a1.056,1.056,0,0,1,1.073-1.06l4.626,0A1.067,1.067,0,1,1,7.291,26.566Zm4.588,11.046a1.067,1.067,0,1,1,1.5,1.517l-3.246,3.252a1.082,1.082,0,0,1-1.53.013,1.056,1.056,0,0,1,.009-1.508Zm13.627,4.993a1.083,1.083,0,0,1,1.06,1.1l0,4.595A1.082,1.082,0,0,1,25.5,49.4a1.056,1.056,0,0,1-1.06-1.073l0-4.626A1.082,1.082,0,0,1,25.506,42.605Zm13.6-5,3.274,3.268a1.067,1.067,0,1,1-1.517,1.5l-3.252-3.246a1.082,1.082,0,0,1-.013-1.53A1.056,1.056,0,0,1,39.106,37.6Z"/>
</svg>
