<svg xmlns="http://www.w3.org/2000/svg" width="51" height="51" viewBox="0 0 51 51">
  <defs>
    <style>
      .cls-1 {
        fill-rule: evenodd;
      }
    </style>
  </defs>
  <path id="merged" class="cls-1" d="M35.937,34.925l0.217-.014c1.687-.113,5.98-0.694,7.224-1.888,0.306-.294.592-0.609,0.9-0.942C45.489,30.742,46.309,28.933,49,29a11.288,11.288,0,0,1,2,0v2c-1,0-1.333.016-2,0-1.691-.042-1.992,1.325-3.108,2.553-0.314.346-.639,0.7-1,1.048-1.6,1.536-4.978,2.252-8.595,2.494l-1.264-.054a3.465,3.465,0,0,1-1.776-1.382L33.044,35.4a2.783,2.783,0,0,1-.689-2.641,6.082,6.082,0,0,1-1.41-.171,4.943,4.943,0,0,1-3.457-3.335,5.337,5.337,0,0,1,.412-4.548,16.3,16.3,0,0,0,1.109-3.219c0.925-4.06,1.953-5.619,5.931-4.762A22.247,22.247,0,0,0,41.093,17c0.537-.027,1.073-0.055,1.612-0.071A32.243,32.243,0,0,1,51,17.551C51,19,51,20,51,20a3.047,3.047,0,0,0-.559-0.332,31.075,31.075,0,0,0-7.669-.555c-0.523.016-1.044,0.043-1.566,0.07a24.318,24.318,0,0,1-6.727-.318c-2.121-.457-2.5-0.54-3.335,3.108A18.446,18.446,0,0,1,29.9,25.586c-0.545,1.24-.771,1.753-0.352,2.938,0.687,1.947,2.343,2.531,4.924,1.737l1.85-1.747A1.4,1.4,0,0,0,35,27c-1-1-1-2,0-2,0,0,2.172.257,2.589,0.991,0.433,0.764.7,3.368,0.13,4.04a26.16,26.16,0,0,1-2.329,2.221,1.068,1.068,0,0,1-.168.069c-0.078.025-.15,0.036-0.227,0.058a1.047,1.047,0,0,1-.112.232c-0.578.76-.552,0.917-0.163,1.38l0.224,0.269C35.572,35.018,34.572,35.018,35.937,34.925Zm0.83-22.739a1.082,1.082,0,0,1-1.36-1.683l3.556-2.959a1.082,1.082,0,0,1,1.36,1.683ZM25.99,49.944a1.082,1.082,0,0,1-1.1-1.063l0.019-4.626a1.082,1.082,0,1,1,2.164-.037l-0.019,4.626A1.082,1.082,0,0,1,25.99,49.944Zm-0.018-41a1.082,1.082,0,0,1-1.063-1.1L24.89,3.213a1.082,1.082,0,1,1,2.164.037l0.019,4.626A1.082,1.082,0,0,1,25.973,8.94ZM20.055,32.589a6.082,6.082,0,0,1-1.41.171,2.783,2.783,0,0,1-.689,2.641l-0.216.259a3.465,3.465,0,0,1-1.776,1.382L14.7,37.1c-3.617-.242-7-0.958-8.595-2.494-0.359-.345-0.684-0.7-1-1.048C3.992,32.325,3.691,30.958,2,31c-0.667.016-1,0-2,0V29a11.288,11.288,0,0,1,2,0c2.691-.067,3.511,1.742,4.728,3.081,0.3,0.334.589,0.648,0.9,0.942,1.243,1.194,5.537,1.775,7.224,1.888l0.217,0.014c1.365,0.093.364,0.093,0.993-.665l0.224-.269c0.389-.463.415-0.62-0.163-1.38a1.047,1.047,0,0,1-.112-0.232c-0.077-.023-0.149-0.034-0.227-0.058a1.068,1.068,0,0,1-.168-0.069,26.16,26.16,0,0,1-2.329-2.221c-0.565-.672-0.3-3.276.13-4.04C13.828,25.257,16,25,16,25c1,0,1,1,0,2a1.4,1.4,0,0,0-1.326,1.514l1.85,1.747c2.581,0.794,4.236.21,4.924-1.737,0.418-1.185.193-1.7-.352-2.938a18.446,18.446,0,0,1-1.239-3.613c-0.831-3.648-1.213-3.566-3.335-3.108a24.318,24.318,0,0,1-6.727.318c-0.522-.027-1.043-0.054-1.566-0.07a31.075,31.075,0,0,0-7.669.555A3.047,3.047,0,0,0,0,20s0-1,0-2.449a32.243,32.243,0,0,1,8.294-.626C8.834,16.942,9.37,16.969,9.907,17a22.248,22.248,0,0,0,6.154-.272c3.977-.857,5.005.7,5.931,4.762A16.3,16.3,0,0,0,23.1,24.705a5.337,5.337,0,0,1,.412,4.548A4.943,4.943,0,0,1,20.055,32.589Zm-4.54-20.4L11.959,9.227a1.082,1.082,0,0,1,1.36-1.683L16.875,10.5A1.082,1.082,0,0,1,15.515,12.186Zm0,27.723a1.082,1.082,0,0,1,1.36,1.684L13.318,44.55a1.082,1.082,0,0,1-1.36-1.684Zm21.251,0,3.556,2.959a1.082,1.082,0,1,1-1.36,1.684l-3.556-2.959A1.082,1.082,0,0,1,36.766,39.908Z"/>
</svg>
