<svg xmlns="http://www.w3.org/2000/svg" xmlns:xlink="http://www.w3.org/1999/xlink" preserveAspectRatio="xMidYMid" width="18" height="28" viewBox="0 0 18 28">
  <defs>
    <style>
      .cls-1 {
        fill: #000;
        fill-rule: evenodd;
      }
    </style>
  </defs>
  <path d="M16.927,8.526 C16.449,8.562 14.173,8.863 12.168,9.134 C11.711,9.537 11.118,10.134 10.980,10.633 C10.936,10.794 10.930,10.995 10.938,11.205 C12.560,12.511 14.622,14.181 14.974,14.515 C16.421,15.893 13.045,18.471 12.391,16.874 C12.209,16.429 11.213,14.343 10.333,12.516 C9.933,12.313 9.459,12.151 8.970,12.172 C8.552,12.190 8.151,12.335 7.799,12.513 C7.096,14.357 6.283,16.466 6.091,16.867 C5.229,18.669 1.733,16.254 3.050,15.139 C3.454,14.797 5.440,12.907 6.988,11.425 C6.986,11.180 6.961,10.941 6.886,10.736 C6.718,10.275 6.289,9.830 5.887,9.488 C3.891,9.388 1.556,9.263 1.107,9.203 C-0.873,8.940 0.343,4.870 1.811,5.778 C2.292,6.075 5.023,7.549 6.952,8.586 C7.214,8.513 7.449,8.423 7.608,8.310 C7.840,8.144 8.058,7.800 8.245,7.427 C7.690,5.382 6.933,2.562 6.841,2.059 C6.479,0.094 10.726,-0.007 10.316,1.670 C10.187,2.195 9.672,5.006 9.287,7.134 C9.513,7.588 9.804,8.047 10.138,8.246 C10.276,8.329 10.455,8.391 10.646,8.445 C12.431,7.277 15.019,5.592 15.482,5.341 C17.239,4.390 18.648,8.398 16.927,8.526 ZM1.000,26.000 L17.000,26.000 C17.552,26.000 18.000,26.448 18.000,27.000 C18.000,27.552 17.552,28.000 17.000,28.000 L1.000,28.000 C0.448,28.000 0.000,27.552 0.000,27.000 C0.000,26.448 0.448,26.000 1.000,26.000 Z" class="cls-1"/>
</svg>
