<svg xmlns="http://www.w3.org/2000/svg" xmlns:xlink="http://www.w3.org/1999/xlink" preserveAspectRatio="xMidYMid" width="27" height="29" viewBox="0 0 27 29">
  <defs>
    <style>
      .cls-1 {
        fill: #000;
        fill-rule: evenodd;
      }
    </style>
  </defs>
  <path d="M23.000,28.969 L14.000,28.969 C11.791,28.969 10.000,27.178 10.000,24.969 L10.000,23.969 L9.000,23.969 C6.791,23.969 5.000,22.178 5.000,19.969 L5.000,18.969 L4.000,18.969 C1.791,18.969 -0.000,17.178 -0.000,14.969 L-0.000,3.969 C-0.000,1.760 1.791,-0.031 4.000,-0.031 L13.000,-0.031 C14.166,-0.031 17.000,-0.031 17.000,4.969 L18.000,4.969 C19.166,4.969 22.000,4.969 22.000,9.969 C22.000,9.969 22.000,9.969 22.000,9.969 L23.000,9.969 C24.166,9.969 27.000,9.969 27.000,14.969 C27.000,17.969 27.000,23.969 27.000,23.969 C27.000,26.969 25.209,28.969 23.000,28.969 ZM15.000,4.000 C15.000,2.896 14.105,2.000 13.000,2.000 L4.000,2.000 C2.895,2.000 2.000,2.896 2.000,4.000 L2.000,15.000 C2.000,16.105 2.895,17.000 4.000,17.000 L5.000,17.000 L5.000,8.969 C5.000,6.760 6.791,4.969 9.000,4.969 L15.000,4.969 L15.000,4.000 ZM20.000,9.000 C20.000,7.896 19.104,7.000 18.000,7.000 L9.000,7.000 C7.895,7.000 7.000,7.896 7.000,9.000 L7.000,20.000 C7.000,21.105 7.895,22.000 9.000,22.000 L10.000,22.000 L10.000,13.969 C10.000,11.760 11.791,9.969 14.000,9.969 L20.000,9.969 L20.000,9.000 ZM25.000,14.000 C25.000,12.895 24.104,12.000 23.000,12.000 L14.000,12.000 C12.895,12.000 12.000,12.895 12.000,14.000 L12.000,25.000 C12.000,26.105 12.895,27.000 14.000,27.000 L23.000,27.000 C24.104,27.000 25.000,26.105 25.000,25.000 L25.000,14.000 Z" class="cls-1"/>
</svg>
