<svg xmlns="http://www.w3.org/2000/svg" width="36" height="27" viewBox="0 0 36 27">
  <defs>
    <style>
      .cls-1 {
        fill-rule: evenodd;
      }
    </style>
  </defs>
  <path id="icon_chat_copy_2" data-name="icon_chat copy 2" class="cls-1" d="M32.416,19.963l2.307,5.346-1.414,1.414-7.465-2.985A24.586,24.586,0,0,1,18,25C8.059,25,0,19.4,0,12.5S8.059,0,18,0,36,5.6,36,12.5A10.232,10.232,0,0,1,32.416,19.963ZM18,2C9.163,2,2,6.7,2,12.5S9.163,23,18,23a22.5,22.5,0,0,0,8.239-1.511C28.9,22.672,32,24,32,24s-0.987-2.466-1.921-4.628C32.515,17.53,34,15.131,34,12.5,34,6.7,26.837,2,18,2Z"/>
</svg>
