<svg xmlns="http://www.w3.org/2000/svg" width="51" height="51" viewBox="0 0 51 51">
  <defs>
    <style>
      .cls-1 {
        fill-rule: evenodd;
      }
    </style>
  </defs>
  <path id="icon_reader_feedback_cloud_raining.svg" class="cls-1" d="M41,27H10a7.688,7.688,0,0,1-8-7.625c0-4.1,3.083-6.935,7.056-7.325C9.04,11.866,9,11.689,9,11.5a6.468,6.468,0,0,1,9.868-5.534,12.474,12.474,0,0,1,23.109,6.089c3.956,0.4,7.023,3.234,7.023,7.32A7.689,7.689,0,0,1,41,27Zm0-13H39.881A10.494,10.494,0,0,0,19.463,9.411,4.49,4.49,0,1,0,11.76,14H10c-3.314,0-6,2.061-6,5.375A5.691,5.691,0,0,0,10,25H41a5.691,5.691,0,0,0,6-5.625C47,16.061,44.314,14,41,14ZM11,33H9V30h2v3Zm0,6H9V36h2v3Zm0,6H9V42h2v3Zm0,6H9V48h2v3Zm5-18H14V30h2v3Zm0,6H14V36h2v3Zm0,6H14V42h2v3Zm0,6H14V48h2v3Zm5-18H19V30h2v3Zm0,6H19V36h2v3Zm0,6H19V42h2v3Zm0,6H19V48h2v3Zm5-18H24V30h2v3Zm0,6H24V36h2v3Zm0,6H24V42h2v3Zm0,6H24V48h2v3Zm5-18H29V30h2v3Zm0,6H29V36h2v3Zm0,6H29V42h2v3Zm0,6H29V48h2v3Zm5-18H34V30h2v3Zm0,6H34V36h2v3Zm0,6H34V42h2v3Zm0,6H34V48h2v3Zm5-18H39V30h2v3Zm0,6H39V36h2v3Zm0,6H39V42h2v3Zm0,6H39V48h2v3Z"/>
</svg>
