<svg xmlns="http://www.w3.org/2000/svg" width="51" height="51" viewBox="0 0 51 51">
  <defs>
    <style>
      .cls-1 {
        fill-rule: evenodd;
      }
    </style>
  </defs>
  <path id="merged" class="cls-1" d="M25.674,51S-14.75,14.234,5.852,2.311c11.884-6.878,19.62,4.237,19.62,4.237s7.736-11.114,19.62-4.237C65.695,14.234,25.674,51,25.674,51ZM25.474,9.54S17.966-2.253,7.237,3.679C-11.367,14.325,25.66,48,25.66,48s3.482-3.214,7.75-7.96L22.662,30.816l-5.413,7.376,4.6-8.261-2.374-6.8,3.733-3.738-7.035-1.794L6.1,20.085l9.31-3.5,9.543,1.4,10.236-9.6L34.783,2.4C29.054,3.9,25.474,9.54,25.474,9.54Zm18.175-5.8a12.376,12.376,0,0,0-5.692-1.7L38.05,8.52l7.662,10.2-9.5-8.536L21.3,23.562l2.484,6.615,9.7,9.781C43.061,29.294,56.5,10.984,43.649,3.741Z"/>
</svg>
