<svg xmlns="http://www.w3.org/2000/svg" width="26" height="26" viewBox="0 0 26 26">
  <defs>
    <style>
      .cls-1 {
        fill-rule: evenodd;
      }
    </style>
  </defs>
  <path id="icon_master_merged" data-name="icon_master  merged" class="cls-1" d="M23,12c-0.055,0-.106-0.013-0.161-0.016A34.009,34.009,0,0,0,22,17v6H4V17a34.008,34.008,0,0,0-.839-5.016C3.106,11.987,3.055,12,3,12a3.032,3.032,0,1,1,1.951-.738C6.4,13.171,8.044,15,9,15c1.523,0,2.529-3.092,3.151-6.137a3,3,0,1,1,1.7,0C14.471,11.908,15.477,15,17,15c0.956,0,2.6-1.829,4.049-3.738A2.986,2.986,0,1,1,23,12Z"/>
</svg>
