<svg xmlns="http://www.w3.org/2000/svg" width="51" height="51" viewBox="0 0 51 51">
  <defs>
    <style>
      .cls-1 {
        fill-rule: evenodd;
      }
    </style>
  </defs>
  <path id="merged" class="cls-1" d="M35,8C21,8,13,20,5,20c-4,0-5-2-5-4,0-1,2-3,5-3,10,0,18-8,26-8,7,0,18,3,20,10C47,9,39,8,35,8ZM1.977,35.6c14.423-21.477,33.5-9.39,34.734-7.442C32.31,26.71,17.952,18.751,1.977,35.6Zm13.8-5.377c1.454-1.129,2.475-1.489,2.7-2.27a3.552,3.552,0,0,1,.116,1.435,17.164,17.164,0,0,1,1.8-.291,8.689,8.689,0,0,0,2.283-2.422c0.438,0.454.31,1.541,0.278,2.338q0.926,0.017,1.775.065a11.743,11.743,0,0,0,3.043-2.9,10.384,10.384,0,0,1-.348,3.144q0.831,0.108,1.575.246a10.156,10.156,0,0,0,2.594-2.328c0.369,0.674-.246,1.924-0.583,2.777,0.421,0.113.817,0.232,1.194,0.356a15.763,15.763,0,0,0,3-2.564c0.365,1.216-.269,2.752-0.486,3.571q0.4,0.194.772,0.387a14.64,14.64,0,0,0,5.134-3.081c-0.341,1.512-2.344,3.436-2.93,4.314,0.09,0.05.181,0.1,0.269,0.149,0.155,0.083.327,0.154,0.49,0.231a9.9,9.9,0,0,0,4.969-2.48,5.87,5.87,0,0,1-1.261,3.6A8.6,8.6,0,0,0,47,34c-0.791,3.177-12.448,10-19,10s-13.342-2-17-2-5.559,1-7,1-3.227-.663-2.385-2.262C2.276,39.481,8.387,32.964,15.775,30.226ZM28,41c3.514,0,7-2,8-4-0.989-1.257-2.208-2.612-6.026-3.379C29.987,33.752,30,33.884,30,34a7.992,7.992,0,0,1-4.041,6.946C26.752,40.979,27.457,41,28,41Zm-6-1a6,6,0,0,0,6-6c0-.206-0.01-0.5-0.031-0.7-0.776-.076-1.6-0.134-2.432-0.182-0.031-.048-0.063-0.1-0.1-0.151C25,33,23,32.938,22.536,32.985a1.222,1.222,0,0,0-.259.753,1.721,1.721,0,0,0,3.261.774A3.23,3.23,0,0,1,22,38c-3.272,0-3.866-2.675-3.427-4.744A14.1,14.1,0,0,0,16,33.813,6.163,6.163,0,0,0,22,40Zm-10,.188c1,0,2.988.113,5.271,0.255a7.976,7.976,0,0,1-3.252-6.064A25.09,25.09,0,0,0,3.9,40.858C4.831,41.377,9.32,40.188,12,40.188Z"/>
</svg>
