<svg id="curious" xmlns="http://www.w3.org/2000/svg" width="51" height="51" viewBox="0 0 51 51">
  <defs>
    <style>
      .cls-1 {
        fill-rule: evenodd;
      }
    </style>
  </defs>
  <path id="want_more_top_copy" data-name="want more top copy" class="cls-1" d="M47.491,46.021l-0.37.837-0.069-.012-0.2,1.193c-6.8-4.046-17.265-1.732-17.265-1.732L29.264,48.2H21.727L21.4,46.306A26.307,26.307,0,0,0,4.134,48.038l-0.328-2L3.5,46.021,0.528,9.119l0.106-.07c0.48-.322,7.7-5.034,15.508-4.575a13.388,13.388,0,0,1,18.036.289A20.653,20.653,0,0,1,50.3,9.048l0.106,0.07ZM2.536,10.685L4.976,43.65c1.361-.211,3.195-0.464,5.619-0.78,7.271-.949,12.788.594,13.976,2.282h0.362V28A13.419,13.419,0,0,1,14.267,6.5C8.317,6.6,3.49,10.089,2.536,10.685ZM25,3.363a11.2,11.2,0,1,0,11.2,11.2A11.2,11.2,0,0,0,25,3.363ZM35.818,6.611a13.38,13.38,0,0,1-1.031,17.144l1.226,1.267,0.726-.742,8.684,8.583-2.677,2.722L34.06,27l0.727-.74-1.32-1.267a13.37,13.37,0,0,1-7.322,2.95L26.133,44.51l0.285,0.642c1.505-1.8,9.842-3.232,13.976-2.455,2.395,0.45,4.22.752,5.582,0.977l2.489-32.743C47.415,10.28,42.668,5.979,35.818,6.611ZM22.046,11.976c-1.883,1.883-1.27,3.842-.507,6.514a5.018,5.018,0,0,1-1.2-.865,5.072,5.072,0,1,1,7.946-6.141C25.417,10.829,23.876,10.147,22.046,11.976Z"/>
</svg>
