<svg xmlns="http://www.w3.org/2000/svg" width="51" height="51" viewBox="0 0 51 51">
  <defs>
    <style>
      .cls-1 {
        fill-rule: evenodd;
      }
    </style>
  </defs>
  <path id="_copy_2" data-name="@ copy 2" class="cls-1" d="M27.729-.021C26.317-.021,0,0.258,0,27.45,0,41.8,8.863,50.986,23.467,50.986a38.966,38.966,0,0,0,13.539-2.68l0.458-2.255a35.511,35.511,0,0,1-14.021,2.815c-13.665,0-21.43-7.8-21.43-21.531,0-1.578-.125-25.374,25.736-25.374,21.41,0,21.269,18.805,21.269,20.384C49.018,30.322,45.585,36,41,36c-5.269,0-5.182-3.6-5.182-7.042V28.035l0.706-14.273C33.357,12.921,29.953,12,27,12c-7.845,0-14,7.381-14,15,0,7.016,4.108,11,10,11,6,0,8.592-2.294,10.378-6.274h0.128C33.879,35.416,35.785,38,40,38c8,0,11-7,11-15.595C51,20.848,51.1-.021,27.729-0.021ZM27,14a23.581,23.581,0,0,1,7,1l-0.731,9.717Q32.656,36,23.98,36c-5.4,0-7.947-2.782-7.98-9C15.962,19.713,20.233,14.036,27,14Z"/>
</svg>
