<?xml version="1.0" encoding="utf-8"?>
<!-- Generator: Adobe Illustrator 22.0.1, SVG Export Plug-In . SVG Version: 6.00 Build 0)  -->
<svg version="1.1" id="Just_person" xmlns="http://www.w3.org/2000/svg" xmlns:xlink="http://www.w3.org/1999/xlink" x="0px"
	 y="0px" viewBox="0 0 40 38.6" style="enable-background:new 0 0 40 38.6;" xml:space="preserve">
<g>
	<path d="M14.5,36c-0.2,0-0.5-0.1-0.7,0.1c-3.2,2.3-6.7,2.7-10.3,2.5c-0.5,0-0.9,0-1.4-0.1c-0.3-0.1-0.7-0.3-0.8-0.6
		c-0.1-0.3,0.1-0.8,0.3-1.1c0.2-0.4,0.6-0.6,0.9-0.9c1.5-1.3,1.9-3.2,2.3-5.2c0-0.2-0.2-0.5-0.3-0.7c-3.3-3.7-5-8.1-4.5-13.4
		C0.4,12.4,2.2,9,5,6.3c4.9-5,10.7-6.7,17.1-6.2c4.9,0.4,9.3,2.5,13,6.3c6.1,6.2,6.5,16.2,0.9,22.9c-3.4,4.1-7.7,6.3-12.5,7.1
		C23.5,36.4,20.2,36.9,14.5,36z M4.3,36.8c0.7,0,1.5-0.1,2.2-0.1c2.4-0.3,4.7-0.7,6.7-2.5c0.2-0.2,0.7-0.2,1-0.2
		c2.5,0.7,5.1,1,7.7,0.7c4.8-0.5,9.2-2.4,12.6-6.4c3.1-3.6,4.5-7.8,3.5-12.9c-1-4.9-3.7-8.3-7.5-10.7c-3.9-2.5-8.1-3.4-12.5-3
		C13.4,2.3,9.1,4.1,5.6,8c-2.5,2.7-4,6-4,10c0,4.5,1.6,8.1,4.4,11.1c0.6,0.6,0.7,1.1,0.5,1.9C6,33,5.5,35,4.3,36.8z"/>
</g>
</svg>
