<svg xmlns="http://www.w3.org/2000/svg" width="51" height="51" viewBox="0 0 51 51">
  <defs>
    <style>
      .cls-1 {
        fill-rule: evenodd;
      }
    </style>
  </defs>
  <path id="Ellipse_1_copy_2" data-name="Ellipse 1 copy 2" class="cls-1" d="M45,44.918L44.24,44.4l-0.231.3-5.461-4.2a17.672,17.672,0,0,0,.26-23.708l4.516-3.578a23.53,23.53,0,0,0-7.07-5.562l-2.511,5.144a17.651,17.651,0,0,0-1.821-.821l2.516-5.156A23.38,23.38,0,0,0,26,5.028V10.78c-0.168,0-.331-0.025-0.5-0.025-0.506,0-1,.034-1.5.076V5.05a23.252,23.252,0,0,0-8.866,2.367l2.6,5.146a17.672,17.672,0,0,0-1.748.975l-2.6-5.15a23.642,23.642,0,0,0-6.2,5.442l4.541,3.5a17.8,17.8,0,0,0-1.164,1.627L6,15.444a23.441,23.441,0,0,0-3.253,7.281l5.619,1.233a17.629,17.629,0,0,0-.4,1.96L2.337,24.683a22.213,22.213,0,0,0,.112,8.3l5.6-1.349A17.641,17.641,0,0,0,8.5,33.582L2.917,34.927A23.487,23.487,0,0,0,6.544,42.35l4.509-3.572a17.8,17.8,0,0,0,1.253,1.558L6.634,44.829,6.464,44.6,6,44.918A25.5,25.5,0,1,1,45,44.918Zm3.284-10.449a2,2,0,1,0-2,2A2,2,0,0,0,48.281,34.469Zm-6.219,5.656a2,2,0,1,0,2-2A2,2,0,0,0,42.063,40.125Zm2.031-24.969a2,2,0,1,0,2,2A2,2,0,0,0,44.094,15.156Zm2.156,5.312a2,2,0,1,0,2,2A2,2,0,0,0,46.25,20.469Zm0.75,6a2,2,0,1,0,2,2A2,2,0,0,0,47,26.469Zm-20.579-.393a2.488,2.488,0,0,1,.547.327l12.755,7.306L24.478,30.7A2.508,2.508,0,0,1,26.421,26.076Z"/>
</svg>
