<svg xmlns="http://www.w3.org/2000/svg" width="51" height="51" viewBox="0 0 51 51">
  <defs>
    <style>
      .cls-1 {
        fill-rule: evenodd;
      }
    </style>
  </defs>
  <path id="Ellipse_1_copy_5" data-name="Ellipse 1 copy 5" class="cls-1" d="M42.51,13.232l-1.386-.462L26.47,26.465a1.02,1.02,0,0,1-1.435-1.435L38.73,10.375,38.268,8.99,42.51,0.5,44.222,4.5l2.41-2.579a2.051,2.051,0,0,1,2.949,0,2.051,2.051,0,0,1,0,2.949L47,7.278,51,8.99ZM27,28l4.822-3.957a6.583,6.583,0,1,1-4.09-4.625L24,24c-1,1-.5,3.058-0.109,3.448A2.816,2.816,0,0,0,27,28ZM41.444,16.15a18.523,18.523,0,1,1-5.98-6.221L31,15.4a11.564,11.564,0,1,0,4.923,5.273ZM25.5,2A23.5,23.5,0,1,0,46.207,14.388L48,13.5a25.6,25.6,0,1,1-9.81-10.1L37.242,5.165A23.361,23.361,0,0,0,25.5,2Z"/>
</svg>
