<svg id="when_i_wake" data-name="when i wake" xmlns="http://www.w3.org/2000/svg" width="51" height="51" viewBox="0 0 51 51">
  <defs>
    <style>
      .cls-1 {
        fill-rule: evenodd;
      }
    </style>
  </defs>
  <path id="fedora" class="cls-1" d="M40.16,33.213c-4.127,1.129-8.967,2.837-13.237,4.344-1.58.558-3.072,1.084-4.4,1.535A33.256,33.256,0,0,1,9.972,40.973c-6.715,0-9.979-2.181-9.979-6.669,0-3.669,3.646-7.377,10.244-10.473,0.137-1.858.3-3.7,0.456-4.722,0.057-.369.1-0.724,0.148-1.068,0.261-2.01.487-3.746,2.6-5.33a12.49,12.49,0,0,1,6.245-2.65,13.4,13.4,0,0,1,2.15-.1,39.813,39.813,0,0,1,5.988.653,15.5,15.5,0,0,1,4.2-.68,8.547,8.547,0,0,1,2.678.47,5.91,5.91,0,0,1,4.218,4.867c0.284,1.47.852,4.375,1.334,6.844,1.033,0.068,1.821.128,2.277,0.165,7.741,0.629,8.471,1.254,8.471,3.892C51.007,28.848,45.55,31.739,40.16,33.213ZM37.081,15.607a4.208,4.208,0,0,0-3.19-3.655,6.745,6.745,0,0,0-2.173-.26,13.568,13.568,0,0,0-3.8.422l-0.127.04-0.027,0a49.091,49.091,0,0,0-6.612,2.374c-2.4,1.071-4.121,1.9-4.868,1.833s-1.649-1.02.974-3.148a8.354,8.354,0,0,1,2.767-1.428c-0.025,0-.057.005-0.082,0.01a10.006,10.006,0,0,0-5.3,2.174C13,15.2,12.935,16.308,12.692,18.18c-0.044.335-.026,0.681-0.082,1.047-0.129.83-.151,2.422-0.313,4.735,0.675,0.425,1.7.808,5.339,0.927C18.4,24.913,19.2,24.926,20,24.926a79.128,79.128,0,0,0,12.882-1.037,12.264,12.264,0,0,0,5.253-2.031C37.563,18.79,37.29,16.688,37.081,15.607Zm10.331,9.466c-0.837-.4-2.6-0.646-6.175-0.932l-0.624-.048c0.238,1.221.416,1.976,0.459,2.21a1.538,1.538,0,0,1-.078,1.132c-0.363.792-1.337,1.408-2.9,1.834-3.5.955-12.981,2.827-19.024,2.827-6.834,0-8.944-2.049-9.03-2.136l-0.182-.183,0.013-.258c0.007-.142.086-1.521,0.2-3.321-4.652,2.445-7.093,5.173-7.093,7.8,0,2.346.837,4.851,8.091,4.851A30.347,30.347,0,0,0,22.386,37.21c1.226-.411,2.609-0.893,4.074-1.4,3.984-1.387,8.5-2.959,12.372-4,5.549-1.5,9.183-3.977,9.183-5.383C48.015,25.433,48.016,25.36,47.412,25.073Z"/>
</svg>
