<svg xmlns="http://www.w3.org/2000/svg" width="51" height="51" viewBox="0 0 51 51">
  <defs>
    <style>
      .cls-1 {
        fill-rule: evenodd;
      }
    </style>
  </defs>
  <path id="lighting_bug" data-name="lighting bug" class="cls-1" d="M48.321,32.093l-4.626,0a1.082,1.082,0,0,1-.032-2.164l4.626,0A1.082,1.082,0,1,1,48.321,32.093ZM47.135,16.647l-4.287,1.739a1.082,1.082,0,0,1-.842-1.994l4.287-1.739A1.082,1.082,0,0,1,47.135,16.647Zm-4.653,25.1,4.007,2.311a1.082,1.082,0,1,1-1.054,1.89l-4.007-2.311A1.082,1.082,0,1,1,42.483,41.744ZM38,18V44.958a3,3,0,0,1-3,3H16a3,3,0,0,1-3-3V18a2.948,2.948,0,0,1,.188-1.01h-1.2V13A1.854,1.854,0,0,0,12,12.54c0-1.428,6.444-2.585,13.469-2.585S39,11.112,39,12.54a2.269,2.269,0,0,0,.01.46v3.99h-1.2A2.96,2.96,0,0,1,38,18Zm-2.008,1.5a2.493,2.493,0,0,0-.492-1.482A43.787,43.787,0,0,1,25.469,19a42.709,42.709,0,0,1-9.965-.988,2.492,2.492,0,0,0-.5,1.486V43.462a2.514,2.514,0,0,0,2.514,2.514H33.479a2.514,2.514,0,0,0,2.514-2.514V19.5Zm-8.511,18.98a2.725,2.725,0,0,1-3.645-.484c-0.819,1.82-3.92,3.188-3.92,3.188s0.445-6.861,1.188-8.428A2.936,2.936,0,0,1,22.3,31.505a1.313,1.313,0,0,1-1.257-1.3l-1.093-.268a0.426,0.426,0,0,1-.107.146A0.465,0.465,0,1,1,20,29.441a0.43,0.43,0,0,1,.03.193l1.029,0.252A1.363,1.363,0,0,1,22.818,28.8l0.25-1.019a0.429,0.429,0,0,1-.152-0.111,0.465,0.465,0,1,1,.639.157,0.429,0.429,0,0,1-.186.029l-0.264,1.078a1.311,1.311,0,0,1,.589,1.724,2.946,2.946,0,0,1,1.68-.494c1.733,0.067,8.021,2.847,8.021,2.847s-2.667,2.133-4.662,2A2.725,2.725,0,0,1,27.481,38.478Zm0.413-3.622c-0.027-.045-0.061-0.073-0.089-0.114L24,32.653l-0.059.036c0.028,1.329.066,3.122,0.093,4.387,0.017,0.031.022,0.061,0.042,0.093A2.232,2.232,0,0,0,27.895,34.856ZM33.432,7.141a1.082,1.082,0,1,1-1.89-1.054l2.311-4.007a1.082,1.082,0,0,1,1.89,1.054Zm-14.381.418a1.082,1.082,0,0,1-1.472-.418L15.268,3.133a1.082,1.082,0,0,1,1.89-1.054l2.311,4.007A1.082,1.082,0,0,1,19.051,7.559ZM9.728,43.634L5.72,45.946a1.082,1.082,0,1,1-1.054-1.89l4.007-2.311A1.082,1.082,0,0,1,9.728,43.634ZM8.089,18.385L3.8,16.647a1.082,1.082,0,0,1,.842-1.993l4.287,1.739A1.082,1.082,0,1,1,8.089,18.385ZM8.341,31.029a1.082,1.082,0,0,1-1.1,1.066l-4.626,0a1.082,1.082,0,1,1,.032-2.164l4.626,0A1.082,1.082,0,0,1,8.341,31.029Z"/>
</svg>
