<svg xmlns="http://www.w3.org/2000/svg" xmlns:xlink="http://www.w3.org/1999/xlink" preserveAspectRatio="xMidYMid" width="464" height="464" viewBox="0 0 464 464">
  <defs>
    
  </defs>
  <path d="M232.000,464.000 C103.870,464.000 -0.000,360.130 -0.000,232.000 C-0.000,103.870 103.870,-0.000 232.000,-0.000 C360.130,-0.000 464.000,103.870 464.000,232.000 C464.000,360.130 360.130,464.000 232.000,464.000 ZM236.000,97.000 C236.000,97.000 124.000,97.000 124.000,97.000 C115.716,97.000 109.000,103.716 109.000,112.000 C109.000,120.284 115.716,127.000 124.000,127.000 C124.000,127.000 236.000,127.000 236.000,127.000 C244.284,127.000 251.000,120.284 251.000,112.000 C251.000,103.716 244.284,97.000 236.000,97.000 ZM340.000,176.000 C340.000,176.000 124.000,176.000 124.000,176.000 C115.716,176.000 109.000,182.716 109.000,191.000 C109.000,199.284 115.716,206.000 124.000,206.000 C124.000,206.000 340.000,206.000 340.000,206.000 C348.284,206.000 355.000,199.284 355.000,191.000 C355.000,182.716 348.284,176.000 340.000,176.000 ZM340.000,256.000 C340.000,256.000 124.000,256.000 124.000,256.000 C115.716,256.000 109.000,262.716 109.000,271.000 C109.000,279.284 115.716,286.000 124.000,286.000 C124.000,286.000 340.000,286.000 340.000,286.000 C348.284,286.000 355.000,279.284 355.000,271.000 C355.000,262.716 348.284,256.000 340.000,256.000 ZM340.000,336.000 C340.000,336.000 124.000,336.000 124.000,336.000 C115.716,336.000 109.000,342.716 109.000,351.000 C109.000,359.284 115.716,366.000 124.000,366.000 C124.000,366.000 340.000,366.000 340.000,366.000 C348.284,366.000 355.000,359.284 355.000,351.000 C355.000,342.716 348.284,336.000 340.000,336.000 Z" id="path-1" class="cls-2" fill-rule="evenodd"/>
</svg>
