<svg xmlns="http://www.w3.org/2000/svg" xmlns:xlink="http://www.w3.org/1999/xlink" preserveAspectRatio="xMidYMid" width="36" height="36" viewBox="0 0 36 36">
  <defs>
    <style>
      .cls-1 {
        fill: #000;
        fill-rule: evenodd;
      }
    </style>
  </defs>
  <path d="M18.000,36.000 C8.059,36.000 -0.000,27.941 -0.000,18.000 C-0.000,8.059 8.059,-0.000 18.000,-0.000 C27.941,-0.000 36.000,8.059 36.000,18.000 C36.000,27.941 27.941,36.000 18.000,36.000 ZM18.000,2.000 C9.163,2.000 2.000,9.163 2.000,18.000 C2.000,26.837 9.163,34.000 18.000,34.000 C26.837,34.000 34.000,26.837 34.000,18.000 C34.000,9.163 26.837,2.000 18.000,2.000 ZM16.576,24.517 C15.959,25.140 14.694,25.140 14.074,24.512 C12.818,23.242 10.894,21.296 9.634,20.021 C9.000,19.380 8.720,18.408 9.318,17.778 C9.927,17.137 10.898,17.460 11.557,18.126 C12.334,18.913 13.319,19.909 14.087,20.686 C14.694,21.300 15.959,21.300 16.594,20.658 C18.774,18.453 23.213,13.963 25.415,11.735 C26.082,11.060 26.983,10.691 27.633,11.349 C28.284,12.008 27.980,12.980 27.336,13.632 C24.788,16.210 19.101,21.963 16.576,24.517 Z" class="cls-1"/>
</svg>
