<svg xmlns="http://www.w3.org/2000/svg" xmlns:xlink="http://www.w3.org/1999/xlink" preserveAspectRatio="xMidYMid" width="40" height="10" viewBox="0 0 40 10">
  <defs>
    <style>
      .cls-1 {
        fill: #000;
        fill-rule: evenodd;
      }
    </style>
  </defs>
  <path d="M35.000,10.000 C32.239,10.000 30.000,7.761 30.000,5.000 C30.000,2.239 32.239,-0.000 35.000,-0.000 C37.761,-0.000 40.000,2.239 40.000,5.000 C40.000,7.761 37.761,10.000 35.000,10.000 ZM20.000,10.000 C17.239,10.000 15.000,7.761 15.000,5.000 C15.000,2.239 17.239,-0.000 20.000,-0.000 C22.761,-0.000 25.000,2.239 25.000,5.000 C25.000,7.761 22.761,10.000 20.000,10.000 ZM5.000,10.000 C2.239,10.000 0.000,7.761 0.000,5.000 C0.000,2.239 2.239,-0.000 5.000,-0.000 C7.761,-0.000 10.000,2.239 10.000,5.000 C10.000,7.761 7.761,10.000 5.000,10.000 Z" class="cls-1"/>
</svg>
