<svg xmlns="http://www.w3.org/2000/svg" xmlns:xlink="http://www.w3.org/1999/xlink" preserveAspectRatio="xMidYMid" width="36" height="31" viewBox="0 0 36 31">
  <defs>
    <style>
      .cls-1 {
        fill: #000;
        fill-rule: evenodd;
      }
    </style>
  </defs>
  <path d="M32.000,26.969 L26.000,26.969 C23.791,26.969 22.000,25.178 22.000,22.969 L22.000,8.969 C22.000,6.760 23.791,4.969 26.000,4.969 L32.000,4.969 C33.166,4.969 36.000,4.969 36.000,9.969 C36.000,12.969 36.000,21.969 36.000,21.969 C36.000,24.969 34.209,26.969 32.000,26.969 ZM32.000,10.000 L26.000,10.000 L26.000,12.000 L32.000,12.000 L32.000,10.000 ZM32.000,15.000 L26.000,15.000 L26.000,17.000 L32.000,17.000 L32.000,15.000 ZM32.000,20.000 L26.000,20.000 L26.000,22.000 L32.000,22.000 L32.000,20.000 ZM18.000,31.000 C17.448,31.000 17.000,30.552 17.000,30.000 L17.000,1.000 C17.000,0.448 17.448,-0.000 18.000,-0.000 C18.552,-0.000 19.000,0.448 19.000,1.000 L19.000,30.000 C19.000,30.552 18.552,31.000 18.000,31.000 ZM10.000,26.969 L4.000,26.969 C1.791,26.969 -0.000,24.178 -0.000,21.969 L-0.000,8.969 C-0.000,6.760 1.791,4.969 4.000,4.969 L10.000,4.969 C11.166,4.969 14.000,4.969 14.000,9.969 C14.000,12.969 14.000,21.969 14.000,21.969 C14.000,24.969 12.209,26.969 10.000,26.969 ZM12.000,9.000 C12.000,7.895 11.104,7.000 10.000,7.000 L4.000,7.000 C2.895,7.000 2.000,7.895 2.000,9.000 L2.000,23.000 C2.000,24.104 2.895,25.000 4.000,25.000 L10.000,25.000 C11.104,25.000 12.000,24.104 12.000,23.000 L12.000,9.000 ZM4.000,20.000 L10.000,20.000 L10.000,22.000 L4.000,22.000 L4.000,20.000 ZM4.000,15.000 L10.000,15.000 L10.000,17.000 L4.000,17.000 L4.000,15.000 ZM4.000,10.000 L10.000,10.000 L10.000,12.000 L4.000,12.000 L4.000,10.000 Z" class="cls-1"/>
</svg>
