<svg xmlns="http://www.w3.org/2000/svg" width="51" height="51" viewBox="0 0 51 51">
  <defs>
    <style>
      .cls-1 {
        fill-rule: evenodd;
      }
    </style>
  </defs>
  <path id="judge" class="cls-1" d="M42.164,43.432c-3.1-4.166-10.923-11.878-17.649-18.258L23.1,26.6a1.3,1.3,0,0,1-.315.75c-1.076,1.084-4.234-.308-7.054-3.107S11.5,18.293,12.575,17.21a1.3,1.3,0,0,1,.749-0.32l1.095-1.1c-0.725-.66-1.145-1.04-1.145-1.04l0.966-.973-0.332-.329,2.545-2.563,0.332,0.329,0.891-.9s0.387,0.413,1.06,1.126l0.6-.606a1.3,1.3,0,0,1,.315-0.751c1.076-1.084,4.234.307,7.054,3.107s4.233,5.948,3.157,7.032a1.3,1.3,0,0,1-.748.32l-0.843.849C34.721,28.017,42.478,35.761,46.566,39,54.089,44.957,47.818,51.033,42.164,43.432ZM31.224,18.417l-0.3.3c0.416-1.543-.825-4.226-3.186-6.57s-5.052-3.565-6.592-3.139l0.3-.3a3.548,3.548,0,0,1,.915-2.622c1.884-1.9,5.981-.885,9.15,2.262s4.211,7.236,2.327,9.134A3.547,3.547,0,0,1,31.224,18.417ZM14.619,25.363c2.522,2.5,5.424,3.732,6.891,3.029a3.456,3.456,0,0,1-.9,2.416c-1.884,1.9-5.981.885-9.15-2.262S7.247,21.31,9.131,19.412a3.456,3.456,0,0,1,2.411-.92C10.849,19.965,12.1,22.858,14.619,25.363ZM13.583,40.9c5.843,0,10.581,1.7,10.621,4.188h1.879V48h-25V45.083H2.962C3,42.6,7.74,40.9,13.583,40.9Z"/>
</svg>
