<svg id="when_i_wake" data-name="when i wake" xmlns="http://www.w3.org/2000/svg" width="51" height="51" viewBox="0 0 51 51">
  <defs>
    <style>
      .cls-1 {
        fill-rule: evenodd;
      }
    </style>
  </defs>
  <path id="cast_copy" data-name="cast copy" class="cls-1" d="M8.154,53.631V47.774l2.37-.008v5.2H40.441v-5.2l2.405,0.009v5.854H8.154ZM40.441,40.34l2.405-1.292V44.9l-2.405-.031V40.34Zm-2.459-3.672c-0.237-.082-1.924-0.784-3.551-1.479l1.224-2.256c2.061,0.919,3.989,1.774,4.339,1.915a6.327,6.327,0,0,1,2.2,1.3l-2.514,1.32A6.54,6.54,0,0,0,37.982,36.667ZM33.667,22.372v0.676h0v1.415a4.594,4.594,0,0,1-.385,1l-2.084-1.6a3.134,3.134,0,0,0,.356-0.891V21.923h0v-0.5a2.242,2.242,0,0,0,1.916-2.3c0-1.445-.53-1.871-0.986-2a5.29,5.29,0,0,0,.092-1.18L35,16.149a2.71,2.71,0,0,1-.081.448c0.614,0.169,1.327.742,1.327,2.686A3.016,3.016,0,0,1,33.667,22.372ZM32.488,11.838l0,0.006a5.249,5.249,0,0,0-1.415-3c-0.207-.234-0.423-0.4-0.635-0.6l1.578-2.541a13.056,13.056,0,0,1,1,1.011,7.06,7.06,0,0,1,1.9,4.04l0.005-.008a21.064,21.064,0,0,1,.09,2.536l-2.461-.228A11.117,11.117,0,0,0,32.488,11.838Zm0.523,19.953-1.254,2.26c-1.736-.77-4.189-1.839-4.189-1.839V25.943h0V25.919s0.506-.122,1.121-0.325l2.633,1.982a7.1,7.1,0,0,1-1.224.548v0.039h0v2.325ZM25.483,6.261a7.365,7.365,0,0,0-2.532.444L21.23,4.146a9.531,9.531,0,0,1,4.27-.91,9.609,9.609,0,0,1,4.139.84l-1.66,2.618A7.384,7.384,0,0,0,25.483,6.261Zm-7,5.582,0-.005a10.961,10.961,0,0,0-.064,1.179l-2.426.212a20.718,20.718,0,0,1,.09-2.491l0,0.007a7.06,7.06,0,0,1,1.9-4.04q0.4-.448.8-0.833l1.63,2.474c-0.171.168-.349,0.3-0.517,0.493A5.249,5.249,0,0,0,18.481,11.843Zm0.4,22.351-1.306-2.221c1.827-.816,3.324-1.487,3.324-1.487V30.448h0V28.124a6.819,6.819,0,0,1-1.381-.635l2.7-1.914c0.642,0.215,1.18.344,1.18,0.344v6.269h0v0.024S20.621,33.422,18.886,34.195ZM16,16.11l2.394-.188a5.418,5.418,0,0,0,.088,1.189c-0.455.126-.982,0.567-0.982,2.012a2.243,2.243,0,0,0,1.916,2.3v0.5h0v1.052a3.379,3.379,0,0,0,.3.763l-2.091,1.514a4.518,4.518,0,0,1-.283-0.788V23.048h0V22.372a3.017,3.017,0,0,1-2.578-3.089c0-1.944.709-2.538,1.321-2.707A2.74,2.74,0,0,1,16,16.11Zm0.083,19.273c-1.472.625-2.88,1.209-3.094,1.284A5.407,5.407,0,0,0,11.009,37.7l-2.464-1.22a5.368,5.368,0,0,1,2.461-1.637c0.32-.129,1.952-0.852,3.8-1.675Zm-5.553,9.48-2.37.029v-5.35l2.37,1.2v4.12Z"/>
</svg>
