<svg id="bros" xmlns="http://www.w3.org/2000/svg" width="51" height="51" viewBox="0 0 51 51">
  <defs>
    <style>
      .cls-1 {
        fill-rule: evenodd;
      }
    </style>
  </defs>
  <path id="differentiation" class="cls-1" d="M5.067,62.523V43.755c0-1.855,1.844-2.748,3.359-3.359,0.947-.383,12.442-5.182,12.442-5.182V32.477s-2.8-.616-3.812-1.96a6.062,6.062,0,0,1-1.176-2.353V25.7a3.509,3.509,0,0,1-2.954-3.639c0-1.886.484-2.686,1.088-3.023a14.707,14.707,0,0,1-1.088-5.762c0-4.975,1.01-8.668,3.051-8.668h2.915A10.522,10.522,0,0,1,27.129.477c9.008,0,10.946,5.4,10.946,12.059A15.117,15.117,0,0,1,36.593,18.9c0.723,0.2,1.48.874,1.48,3.164A3.509,3.509,0,0,1,35.12,25.7v2.463a6.062,6.062,0,0,1-1.176,2.353c-1.008,1.344-3.812,1.96-3.812,1.96v2.738s11.494,4.8,12.441,5.182c1.515,0.611,3.359,1.5,3.359,3.359V62.523H5.067ZM24.246,27.634a1.964,1.964,0,0,0,2.523,0,1.556,1.556,0,0,0,.459-1.147,1.575,1.575,0,0,0-.459-1.153,1.724,1.724,0,0,0-1.285-.465,1.662,1.662,0,0,0-1.239.465,1.575,1.575,0,0,0-.459,1.153A1.556,1.556,0,0,0,24.246,27.634Zm6.927-8.888a6.009,6.009,0,0,0,.746-2.81,4.261,4.261,0,0,0-1.727-3.664,6.4,6.4,0,0,0-3.9-1.382,9.6,9.6,0,0,0-3.716.573,8.013,8.013,0,0,0-2.466,1.72L22.4,15.478A3.95,3.95,0,0,1,25.611,14.1q2.764,0.057,3.165,1.629-0.057,2.041-1.628,2.317a3.634,3.634,0,0,0-2.615,1.846,7.789,7.789,0,0,0-.745,3.613H27q0.1-2.638,1.766-3.1A3.905,3.905,0,0,0,31.173,18.746Z"/>
</svg>
