<svg xmlns="http://www.w3.org/2000/svg" width="51" height="51" viewBox="0 0 51 51">
  <defs>
    <style>
      .cls-1 {
        fill-rule: evenodd;
      }
    </style>
  </defs>
  <path id="Note_copy_2" data-name="Note copy 2" class="cls-1" d="M50.277,7.025L48.012,9.289l-6.3-6.3,2.265-2.265a2.511,2.511,0,0,1,3.549,0l2.752,2.752A2.51,2.51,0,0,1,50.277,7.025ZM25,23c-0.49.49-.848,2.393-0.358,2.883l0.411,0.412c0.489,0.49,2.457.2,2.947-.295L44.882,9.118l1.651,1.651L30.545,26.757C27.242,30.06,20,31,20,31s0.968-7.269,4.243-10.544L40.231,4.468l1.651,1.651ZM4,7A2,2,0,0,0,2,9V47a2,2,0,0,0,2,2H42a2,2,0,0,0,2-2V16.9l2-2V47a4,4,0,0,1-4,4H4a4,4,0,0,1-4-4V9A4,4,0,0,1,4,5H36.1l-2,2H4Z"/>
</svg>
