<svg version="1.1" id="Layer_1" xmlns="http://www.w3.org/2000/svg" xmlns:xlink="http://www.w3.org/1999/xlink" x="0px" y="0px" viewBox="0 0 14.625 14.625">
<path d="M7.312,14.625C3.274,14.625,0,11.351,0,7.312S3.274,0,7.312,0
	s7.312,3.274,7.312,7.312S11.351,14.625,7.312,14.625z M0.75,7.312c0,1.664,0.624,3.178,1.644,4.335l9.253-9.253
	C10.491,1.374,8.976,0.75,7.312,0.75C3.688,0.75,0.75,3.688,0.75,7.312z M12.18,2.922L2.922,12.18c1.163,1.05,2.7,1.695,4.39,1.695
	c3.624,0,6.562-2.938,6.562-6.562C13.875,5.622,13.23,4.086,12.18,2.922z"/>
</svg>
