<svg xmlns="http://www.w3.org/2000/svg" xmlns:xlink="http://www.w3.org/1999/xlink" preserveAspectRatio="xMidYMid" width="36" height="36" viewBox="0 0 36 36">
  <defs>
    <style>
      .cls-1 {
        fill: #000;
        fill-rule: evenodd;
      }
    </style>
  </defs>
  <path d="M18.000,36.000 C8.059,36.000 -0.000,27.941 -0.000,18.000 C-0.000,8.059 8.059,-0.000 18.000,-0.000 C27.941,-0.000 36.000,8.059 36.000,18.000 C36.000,27.941 27.941,36.000 18.000,36.000 ZM27.767,9.767 C25.931,7.931 27.324,9.324 25.487,7.487 C24.750,6.750 23.250,6.750 22.454,7.546 C19.694,10.306 12.750,17.250 11.987,18.013 C11.250,18.750 7.500,25.523 7.500,27.000 L8.250,27.750 C9.796,27.750 16.433,24.067 17.245,23.254 C18.058,22.442 25.073,15.427 27.793,12.707 C28.500,12.000 28.500,10.500 27.767,9.767 ZM10.500,23.250 L12.750,19.500 L15.750,22.500 L12.000,24.750 L10.500,23.250 Z" class="cls-1"/>
</svg>
