<svg xmlns="http://www.w3.org/2000/svg" xmlns:xlink="http://www.w3.org/1999/xlink" preserveAspectRatio="xMidYMid" width="28" height="28" viewBox="0 0 28 28">
  <defs>
    <style>

      .cls-2 {
        fill: #000000;
      }
    </style>
  </defs>
  <path d="M18.875,15.992 C20.000,15.987 23.875,15.983 26.000,16.000 C27.009,16.008 28.000,15.000 28.000,14.000 C28.000,13.000 26.997,12.032 26.000,12.000 C23.882,11.932 20.000,12.000 19.000,12.000 C17.000,12.000 16.000,11.000 15.985,9.084 C15.969,6.986 16.000,3.000 15.985,2.006 C15.970,1.000 15.000,-0.000 14.000,-0.000 C13.000,-0.000 11.985,1.000 11.993,2.004 C12.000,3.000 11.985,6.966 11.993,9.062 C12.000,11.000 10.991,12.032 9.000,12.000 C6.887,11.966 3.000,12.000 2.000,12.000 C1.000,12.000 -0.000,13.000 -0.000,14.000 C-0.000,15.000 0.933,15.992 1.920,15.992 C2.907,15.992 6.873,15.983 8.990,15.992 C11.000,16.000 12.000,17.000 11.993,18.903 C11.984,21.017 11.977,23.910 11.993,26.030 C12.000,27.000 13.000,28.000 14.000,28.000 C15.000,28.000 16.000,27.000 15.985,26.034 C15.953,23.930 15.969,21.063 15.985,18.953 C16.000,17.000 17.000,16.000 18.875,15.992 Z" id="path-1" class="cls-2" fill-rule="evenodd"/>
</svg>
