<svg xmlns="http://www.w3.org/2000/svg" width="51" height="51" viewBox="0 0 51 51">
  <defs>
    <style>
      .cls-1 {
        fill-rule: evenodd;
      }
    </style>
  </defs>
  <path id="Ellipse_1_copy" data-name="Ellipse 1 copy" class="cls-1" d="M51,32l-3,6v6l-3,7-2-2,2-5V38l3-6-2-7,2-7-3-5V7L42,2l2-2,4,7v6l3,5-2,7ZM43,20l-2,5,2,5-3,4,1,4-2,5-2-2,1-3-1-4,3-4-2-5,2-5-3-4,1-4L36,9l2-2,3,5-1,4Zm-9,5,2,4-2,5-3-1.312L33,29l-2-4,2-4-1.906-2.562L34,17l2,4Zm-8.5,4A3.5,3.5,0,1,1,29,25.5,3.5,3.5,0,0,1,25.5,29ZM17,34l-2-5,2-4-2-4,2-4,2.906,1.438L18,21l2,4-2,4,2,3.688ZM14,16l-3,4,2,5-2,5,3,4-1,4,1,3-2,2-2-5,1-4L8,30l2-5L8,20l3-4-1-4,3-5,2,2-2,3ZM6,13L3,18l2,7L3,32l3,6v6l2,5L6,51,3,44V38L0,32l2-7L0,18l3-5V7L7,0,9,2,6,7v6Z"/>
</svg>
