<svg xmlns="http://www.w3.org/2000/svg" xmlns:xlink="http://www.w3.org/1999/xlink" preserveAspectRatio="xMidYMid" width="15" height="15" viewBox="0 0 15 15">
  <defs>
    <style>

      .cls-2 {
        fill: #d43f26;
      }
    </style>
  </defs>
  <path d="M7.500,15.000 C3.358,15.000 0.000,11.642 0.000,7.500 C0.000,3.358 3.358,0.000 7.500,0.000 C11.642,0.000 15.000,3.358 15.000,7.500 C15.000,11.642 11.642,15.000 7.500,15.000 ZM10.500,6.000 C10.500,6.000 4.500,6.000 4.500,6.000 C3.672,6.000 3.000,6.672 3.000,7.500 C3.000,8.328 3.672,9.000 4.500,9.000 C4.500,9.000 10.500,9.000 10.500,9.000 C11.328,9.000 12.000,8.328 12.000,7.500 C12.000,6.672 11.328,6.000 10.500,6.000 Z" id="path-1" class="cls-2" fill-rule="evenodd"/>
</svg>
