<?xml version="1.0" encoding="utf-8"?>
<!-- Generator: Adobe Illustrator 22.0.1, SVG Export Plug-In . SVG Version: 6.00 Build 0)  -->
<svg version="1.1" id="Layer_1" xmlns="http://www.w3.org/2000/svg" xmlns:xlink="http://www.w3.org/1999/xlink" x="0px" y="0px"
	 viewBox="0 0 23 23" enable-background="new 0 0 23 23" xml:space="preserve">
<g>
	<g>
		<path fill="#BDBEC0" d="M6.9,3.8c1.7-0.7,3.6-1,5.6-0.8C15,3.1,17.2,4,19,5.6c3.1,2.8,3.1,7.4-0.1,10.2l1,1
			c0.2-0.2,0.4-0.3,0.5-0.5c1.4-1.4,2.3-3.2,2.4-5.2c0.1-2.7-1-4.9-3.1-6.7c-2.3-1.9-4.9-2.8-7.9-2.9c-2.2-0.1-4.2,0.3-6,1.2
			L6.9,3.8z"/>
		<path fill="#BDBEC0" d="M16,17.5c-1.3,0.5-2.7,0.8-4.3,0.9c-0.8,0-1.6,0-2.3,0c-0.4,0-0.7,0.1-1,0.5c-0.9,1.1-2.2,1.9-3.6,2.2
			c0.3-0.9,0.5-1.7,0.7-2.5c0,0,0-0.1,0-0.2c0.2-0.9,0.1-1.5-0.8-2c-1.6-1-2.7-2.4-3.1-4.3C1.3,9.5,2.1,7.4,4,5.7
			c0,0,0.1-0.1,0.1-0.1l-1-1c-4.3,3.9-3.5,10,1,13c0.2,0.2,0.3,0.3,0.2,0.6c-0.2,1.3-0.7,2.4-1.5,3.4c-0.2,0.3-0.3,0.5-0.1,0.9
			c0.2,0.3,0.5,0.3,0.8,0.3c2-0.1,3.8-0.8,5.3-2.2c0.7-0.7,1.4-1,2.3-0.8c0.7,0,1.3-0.1,1.9-0.1c1.5-0.1,2.9-0.5,4.1-1.1L16,17.5z"
			/>
	</g>
	<path fill="#BDBEC0" d="M22.2,21.1L22.2,21.1c-0.4,0.4-0.9,0.4-1.2,0.1L1.5,1.7c-0.3-0.3-0.3-0.8,0-1.1l0.1-0.1
		c0.3-0.3,0.8-0.3,1.1,0L22.2,20C22.5,20.3,22.5,20.8,22.2,21.1z"/>
</g>
</svg>
