<svg xmlns="http://www.w3.org/2000/svg" xmlns:xlink="http://www.w3.org/1999/xlink" preserveAspectRatio="xMidYMid" width="48" height="48" viewBox="0 0 48 48">
  <defs>
    <style>
      .cls-1, .cls-2 {
        fill: #000;
      }

      .cls-2 {
        fill-rule: evenodd;
      }
    </style>
  </defs>
  <g>
    <rect x="1" y="7" width="8" height="2" class="cls-1"/>
    <rect x="1" y="24" width="28" height="2" class="cls-1"/>
    <rect x="1" y="41" width="19" height="2" class="cls-1"/>
    <rect x="28" y="41" width="19" height="2" class="cls-1"/>
    <rect x="37" y="24" width="10" height="2" class="cls-1"/>
    <rect x="18" y="7" width="29" height="2" class="cls-1"/>
    <path d="M13.500,13.000 C10.462,13.000 8.000,10.538 8.000,7.500 C8.000,4.462 10.462,2.000 13.500,2.000 C16.538,2.000 19.000,4.462 19.000,7.500 C19.000,10.538 16.538,13.000 13.500,13.000 ZM13.500,4.188 C11.671,4.188 10.188,5.671 10.188,7.500 C10.188,9.329 11.671,10.812 13.500,10.812 C15.329,10.812 16.812,9.329 16.812,7.500 C16.812,5.671 15.329,4.188 13.500,4.188 Z" class="cls-2"/>
    <path d="M33.500,30.000 C30.462,30.000 28.000,27.538 28.000,24.500 C28.000,21.462 30.462,19.000 33.500,19.000 C36.538,19.000 39.000,21.462 39.000,24.500 C39.000,27.538 36.538,30.000 33.500,30.000 ZM33.500,21.188 C31.671,21.188 30.188,22.671 30.188,24.500 C30.188,26.329 31.671,27.812 33.500,27.812 C35.329,27.812 36.812,26.329 36.812,24.500 C36.812,22.671 35.329,21.188 33.500,21.188 Z" class="cls-2"/>
    <path d="M23.500,47.000 C20.462,47.000 18.000,44.538 18.000,41.500 C18.000,38.462 20.462,36.000 23.500,36.000 C26.538,36.000 29.000,38.462 29.000,41.500 C29.000,44.538 26.538,47.000 23.500,47.000 ZM23.500,38.188 C21.671,38.188 20.188,39.671 20.188,41.500 C20.188,43.329 21.671,44.812 23.500,44.812 C25.329,44.812 26.812,43.329 26.812,41.500 C26.812,39.671 25.329,38.188 23.500,38.188 Z" class="cls-2"/>
  </g>
</svg>
