<svg xmlns="http://www.w3.org/2000/svg" width="51" height="51" viewBox="0 0 51 51">
  <defs>
    <style>
      .cls-1 {
        fill-rule: evenodd;
      }
    </style>
  </defs>
  <path id="mailbox" class="cls-1" d="M49.892,25.372V43.006H32.042V42.969H18.952c0,0.006,0,.037,0,0.037H1.1V24.635a8.931,8.931,0,0,1,8.925-8.962c0.126,0,.248.014,0.372,0.019V15.673H24.9V4.963H36.728v7.066H27.282v2.4H27.27v14.28h2.38V15.673H40.967a8.962,8.962,0,0,1,8.962,8.962C49.929,24.884,49.912,25.128,49.892,25.372ZM10.027,18.106a6.586,6.586,0,0,0-6.586,6.586c0,3.853.027,15.954,0.027,15.954H16.586s0.027-11.774.027-15.954A6.586,6.586,0,0,0,10.027,18.106Z"/>
</svg>
