<svg xmlns="http://www.w3.org/2000/svg" xmlns:xlink="http://www.w3.org/1999/xlink" preserveAspectRatio="xMidYMid" width="22" height="28" viewBox="0 0 11 14">
  <defs>
    <style>
      .cls-1 {
        fill: #000;
        fill-rule: evenodd;
      }
    </style>
  </defs>
  <path d="M6.226,6.998 L9.921,12.271 C10.083,12.503 9.987,12.799 9.706,12.933 C9.424,13.067 9.065,12.988 8.902,12.756 L5.079,7.299 C5.012,7.204 4.999,7.099 5.014,6.998 C4.999,6.897 5.012,6.792 5.079,6.697 L8.902,1.239 C9.065,1.008 9.424,0.928 9.706,1.062 C9.987,1.196 10.083,1.493 9.921,1.724 L6.226,6.998 ZM2.226,6.998 L5.921,12.271 C6.084,12.503 5.987,12.799 5.706,12.933 C5.424,13.067 5.065,12.988 4.902,12.756 L1.079,7.299 C1.012,7.204 0.999,7.099 1.014,6.998 C0.999,6.897 1.012,6.792 1.079,6.697 L4.902,1.239 C5.065,1.008 5.424,0.928 5.706,1.062 C5.987,1.196 6.084,1.493 5.921,1.724 L2.226,6.998 Z" class="cls-1"/>
</svg>
