<svg xmlns="http://www.w3.org/2000/svg" xmlns:xlink="http://www.w3.org/1999/xlink" preserveAspectRatio="xMidYMid" width="22" height="28" viewBox="0 0 11 14">
  <defs>
    <style>
      .cls-1 {
        fill: #000;
        fill-rule: evenodd;
      }
    </style>
  </defs>
  <path d="M9.921,7.303 L6.098,12.761 C5.935,12.992 5.576,13.072 5.294,12.938 C5.013,12.804 4.916,12.507 5.079,12.276 L8.774,7.002 L5.079,1.729 C4.916,1.497 5.013,1.201 5.294,1.067 C5.576,0.933 5.935,1.012 6.098,1.244 L9.921,6.701 C9.988,6.796 10.001,6.901 9.986,7.002 C10.001,7.103 9.988,7.208 9.921,7.303 ZM5.986,7.002 C6.001,7.103 5.988,7.208 5.921,7.303 L2.098,12.761 C1.935,12.992 1.576,13.072 1.294,12.938 C1.013,12.804 0.917,12.507 1.079,12.276 L4.774,7.002 L1.079,1.729 C0.917,1.497 1.013,1.201 1.294,1.067 C1.576,0.933 1.935,1.012 2.098,1.244 L5.921,6.701 C5.988,6.796 6.001,6.901 5.986,7.002 Z" class="cls-1"/>
</svg>
