<svg xmlns="http://www.w3.org/2000/svg" xmlns:xlink="http://www.w3.org/1999/xlink" preserveAspectRatio="xMidYMid" width="26" height="18" viewBox="0 0 26 18">
  <defs>
    <style>

      .cls-2 {
        fill: #000000;
      }
    </style>
  </defs>
  <path d="M24.567,16.830 C23.856,16.830 23.154,16.128 23.154,15.403 C23.154,15.264 23.154,15.108 23.154,14.960 C22.401,16.252 21.184,17.531 19.646,17.531 C16.441,17.531 15.436,15.824 15.436,13.321 C15.436,11.325 18.901,8.800 23.154,10.099 C23.154,9.353 23.154,8.734 23.154,8.410 C23.154,8.042 22.807,6.150 20.720,6.150 C19.319,6.150 18.243,6.489 18.243,6.919 C18.243,7.941 16.138,7.968 16.138,6.941 C16.138,4.836 18.656,4.178 20.720,4.178 C23.577,4.178 25.961,5.603 25.961,8.410 C25.961,11.553 25.961,16.830 25.961,16.830 C25.961,16.830 25.265,16.830 24.567,16.830 ZM17.538,13.277 C17.492,14.552 18.243,15.426 19.646,15.426 C21.435,15.426 22.511,14.103 23.154,13.180 C23.154,12.557 23.154,11.928 23.154,11.329 C20.730,10.807 17.579,12.119 17.538,13.277 ZM13.292,16.830 C12.770,16.830 12.301,16.830 12.301,16.830 C12.301,16.830 11.061,13.683 11.061,13.683 C10.533,13.153 9.828,12.620 9.121,12.620 C7.566,12.620 6.463,12.620 4.912,12.620 C4.168,12.620 3.431,13.209 2.896,13.765 C2.896,13.765 1.688,16.830 1.688,16.830 C1.688,16.830 1.230,16.830 0.715,16.830 C-0.000,16.830 -0.184,15.476 0.129,14.707 C1.822,10.551 5.613,0.692 5.613,0.692 C5.613,0.692 6.343,-0.010 7.016,-0.010 C7.723,-0.010 8.376,0.692 8.376,0.692 C8.376,0.692 12.248,10.400 13.886,14.773 C14.114,15.380 14.033,16.830 13.292,16.830 ZM6.995,3.363 C6.995,3.363 4.396,9.957 4.396,9.957 C4.572,10.253 4.902,10.515 5.555,10.515 C6.445,10.515 7.433,10.515 8.332,10.515 C9.026,10.515 9.388,10.244 9.587,9.942 C9.587,9.942 6.995,3.363 6.995,3.363 Z" id="path-1" class="cls-2" fill-rule="evenodd"/>
</svg>
