<svg xmlns="http://www.w3.org/2000/svg" xmlns:xlink="http://www.w3.org/1999/xlink" preserveAspectRatio="xMidYMid" width="51" height="51" viewBox="0 0 51 51">
  <defs>
    <style>
      .cls-1 {
        fill: #000;
        fill-rule: evenodd;
      }
    </style>
  </defs>
  <path d="M25.500,51.000 C11.417,51.000 -0.000,39.583 -0.000,25.500 C-0.000,11.417 11.417,-0.000 25.500,-0.000 C39.583,-0.000 51.000,11.417 51.000,25.500 C51.000,39.583 39.583,51.000 25.500,51.000 ZM25.500,2.000 C12.521,2.000 2.000,12.521 2.000,25.500 C2.000,38.479 12.521,49.000 25.500,49.000 C38.479,49.000 49.000,38.479 49.000,25.500 C49.000,12.521 38.479,2.000 25.500,2.000 ZM44.974,30.886 C44.166,30.582 43.518,30.077 43.518,30.077 C43.518,30.077 42.701,32.826 41.001,30.708 C39.475,28.806 41.948,28.430 41.963,28.424 C41.963,28.424 40.990,27.400 41.026,26.231 C41.061,25.062 41.891,25.053 42.375,25.200 C42.860,25.346 44.172,28.054 45.346,28.477 C46.519,28.900 45.781,31.190 44.974,30.886 ZM41.000,39.000 C36.000,37.000 28.045,41.181 26.000,45.000 C25.403,44.986 24.481,44.951 24.000,45.000 C25.720,39.341 35.000,35.000 43.000,37.000 C42.000,38.000 41.267,38.636 41.000,39.000 ZM32.262,30.056 C32.262,30.056 34.786,31.806 32.045,32.912 C29.534,33.926 29.851,31.071 29.851,31.071 C29.851,31.071 28.723,31.642 27.827,32.211 C26.931,32.781 24.119,30.915 26.890,30.100 C28.504,29.626 30.976,28.478 32.324,26.564 C33.836,24.419 34.933,27.377 34.220,28.404 C33.837,28.954 32.262,30.056 32.262,30.056 Z" class="cls-1"/>
</svg>
