<svg id="curious" xmlns="http://www.w3.org/2000/svg" width="51" height="51" viewBox="0 0 51 51">
  <defs>
    <style>
      .cls-1 {
        fill-rule: evenodd;
      }
    </style>
  </defs>
  <path id="lightbulb" class="cls-1" d="M49.036,17.683L44.8,19.518c-0.751.3-1.6-1.667-1.9-2.418s0.064,0,.815-0.3L48,15.093A1.395,1.395,0,1,1,49.036,17.683ZM46.145,35.16a1.353,1.353,0,1,1-1.838,1.986l-2.978-2.6a1.465,1.465,0,1,1,1.989-2.15ZM36,6.94a1.465,1.465,0,0,1-2.785-.908l1.563-4.314a1.395,1.395,0,1,1,2.652.865Zm2.168,15.92c0,6.56-4.415,9.212-6.219,12.542a17.115,17.115,0,0,0-1.61,7.736H20.348a17.12,17.12,0,0,0-1.61-7.736c-1.8-3.33-6.22-5.982-6.22-12.542s4.553-12.407,12.827-12.407S38.172,16.3,38.172,22.86ZM25.345,12.533c-6.791,0-10.559,5.981-10.559,10.627,0,3.558,2.53,6.748,4.094,8.653a11.623,11.623,0,0,1,1.771,2.161,20.1,20.1,0,0,1,1.719,6.72h5.964a20.052,20.052,0,0,1,1.706-6.72,11.7,11.7,0,0,1,1.784-2.161c1.564-1.905,4.08-5.095,4.08-8.652C35.9,18.514,32.136,12.533,25.345,12.533ZM16.294,7.878a1.465,1.465,0,0,1-1.847-.938L13.042,2.582a1.395,1.395,0,0,1,2.652-.865l1.538,4.314A1.464,1.464,0,0,1,16.294,7.878ZM6.431,37.146A1.353,1.353,0,1,1,4.593,35.16l2.815-2.768A1.465,1.465,0,1,1,9.4,34.542ZM6.169,19.518L1.93,17.683a1.395,1.395,0,0,1,1.038-2.589L7.259,16.8A1.465,1.465,0,0,1,6.169,19.518ZM28.348,48.925H27.313a0.847,0.847,0,0,1,.108.332c0,0.709-.929,1.283-2.075,1.283s-2.076-.574-2.076-1.283a0.847,0.847,0,0,1,.108-0.332H22.342V44.584h6.006v4.341Z"/>
</svg>
