<svg xmlns="http://www.w3.org/2000/svg" width="92" height="89" viewBox="0 0 92 89">
  <metadata><?xpacket begin="﻿" id="W5M0MpCehiHzreSzNTczkc9d"?>
<x:xmpmeta xmlns:x="adobe:ns:meta/" x:xmptk="Adobe XMP Core 5.6-c140 79.160451, 2017/05/06-01:08:21        ">
   <rdf:RDF xmlns:rdf="http://www.w3.org/1999/02/22-rdf-syntax-ns#">
      <rdf:Description rdf:about=""/>
   </rdf:RDF>
</x:xmpmeta>
                                                                                                    
                                                                                                    
                                                                                                    
                                                                                                    
                                                                                                    
                                                                                                    
                                                                                                    
                                                                                                    
                                                                                                    
                                                                                                    
                                                                                                    
                                                                                                    
                                                                                                    
                                                                                                    
                                                                                                    
                                                                                                    
                                                                                                    
                                                                                                    
                                                                                                    
                                                                                                    
                           
<?xpacket end="w"?></metadata>
<defs>
    <style>
      .cls-1 {
        fill: #fff;
        fill-rule: evenodd;
      }
    </style>
  </defs>
  <path id="Thumb_up" data-name="Thumb up" class="cls-1" d="M0.706,45.183c0-3.083,4.023-5.531,7.692-5.531h9.958c5.51,0,10.941-6.468,10.178-9.861S26.1,24.749,26.1,16.1c0-3.46,2.213-15.7,5.532-15.7,1.133,0,5.282-.14,5.354,3.445,0.071,3.549.4,9.823,1.477,12.3,3.379,7.777,9.364,8.1,12.945,14.158C55.905,37.906,64.333,40,70,40V77c-2.388,0-10.72,4.553-13.216,6.592C54.466,85.485,50.836,89,47.123,89c-8.017,0-26.555,0-30.535-1.328-3.365-1.123-4.064-3.757-4.085-8.027-1.893-.1-4.038-2.589-5.212-4.1C6.02,73.9,6.642,70.709,7.161,68.7a10.183,10.183,0,0,1-3.648-7.568c-0.039-2.251.2-5.786,1.551-7.58C0.638,52.855.706,48.266,0.706,45.183ZM83.484,35C88.065,35.009,92,36.148,92,38V79c0,1.208-3.725,1.939-8.516,2C78.775,81.06,74,80.473,74,79V38C74,36.239,78.576,34.991,83.484,35Z"/>
</svg>
