<svg xmlns="http://www.w3.org/2000/svg" width="26" height="26" viewBox="0 0 26 26">
  <defs>
    <style>
      .cls-1 {
        fill-rule: evenodd;
      }
    </style>
  </defs>
  <path id="merged" class="cls-1" d="M19.154,13a7,7,0,0,1-4.583-1.7L7.5,18.016l3.468,3.293L9.474,22.723l-1.58-1.5-1.67,1.586,1.58,1.5L6.315,25.723,2.847,22.43,1.485,23.723,0,22.309,13.246,9.728A6.188,6.188,0,0,1,12.309,6.5,6.679,6.679,0,0,1,19.154,0,6.68,6.68,0,0,1,26,6.5,6.68,6.68,0,0,1,19.154,13Zm0-11a4.624,4.624,0,0,0-4.739,4.5A4.624,4.624,0,0,0,19.154,11a4.624,4.624,0,0,0,4.739-4.5A4.624,4.624,0,0,0,19.154,2Z"/>
</svg>
