<svg xmlns="http://www.w3.org/2000/svg" xmlns:xlink="http://www.w3.org/1999/xlink" preserveAspectRatio="xMidYMid" width="36" height="41" viewBox="0 0 36 41">
  <defs>
    <style>
      .cls-1 {
        fill: #238b5e;
        fill-rule: evenodd;
      }
    </style>
  </defs>
  <path d="M32.028,29.265 L32.028,41.000 L24.017,34.948 C22.133,35.617 20.114,36.000 18.000,36.000 C8.059,36.000 -0.000,27.941 -0.000,18.000 C-0.000,8.059 8.059,-0.000 18.000,-0.000 C27.941,-0.000 36.000,8.059 36.000,18.000 C36.000,22.266 34.508,26.180 32.028,29.265 ZM18.000,2.000 C9.163,2.000 2.000,9.163 2.000,18.000 C2.000,26.837 9.163,34.000 18.000,34.000 C20.056,34.000 22.021,33.612 23.826,32.906 C26.000,33.000 30.000,37.000 30.000,37.000 C30.000,37.000 29.967,29.751 29.937,28.654 C32.464,25.825 34.000,22.092 34.000,18.000 C34.000,9.163 26.837,2.000 18.000,2.000 ZM23.925,21.249 C23.394,21.679 22.781,21.893 22.084,21.893 C21.570,21.893 21.124,21.757 20.746,21.483 C20.369,21.210 20.115,20.839 19.985,20.370 L19.867,20.370 C19.548,20.878 19.155,21.259 18.686,21.513 C18.217,21.766 17.690,21.893 17.104,21.893 C16.042,21.893 15.208,21.552 14.599,20.868 C13.990,20.184 13.686,19.260 13.686,18.095 C13.686,16.754 14.089,15.665 14.897,14.828 C15.704,13.992 16.788,13.573 18.149,13.573 C18.643,13.573 19.192,13.617 19.794,13.705 C20.396,13.793 20.932,13.915 21.401,14.071 L21.186,18.612 L21.186,18.847 C21.186,19.888 21.524,20.409 22.201,20.409 C22.716,20.409 23.124,20.077 23.427,19.413 C23.730,18.749 23.881,17.903 23.881,16.874 C23.881,15.761 23.653,14.783 23.197,13.939 C22.742,13.096 22.094,12.447 21.254,11.991 C20.414,11.535 19.451,11.307 18.363,11.307 C16.977,11.307 15.771,11.594 14.745,12.167 C13.720,12.740 12.937,13.558 12.397,14.623 C11.856,15.687 11.586,16.923 11.586,18.329 C11.586,20.217 12.091,21.669 13.100,22.684 C14.109,23.700 15.557,24.208 17.446,24.208 C18.884,24.208 20.385,23.915 21.947,23.329 L21.947,24.931 C20.580,25.490 19.093,25.770 17.485,25.770 C15.076,25.770 13.197,25.121 11.850,23.822 C10.502,22.523 9.828,20.712 9.828,18.388 C9.828,16.688 10.193,15.176 10.922,13.851 C11.651,12.527 12.662,11.513 13.954,10.809 C15.247,10.106 16.710,9.755 18.344,9.755 C19.757,9.755 21.015,10.048 22.118,10.634 C23.222,11.220 24.078,12.055 24.687,13.139 C25.295,14.223 25.600,15.474 25.600,16.893 C25.600,17.825 25.453,18.676 25.160,19.447 C24.867,20.219 24.456,20.819 23.925,21.249 ZM18.207,15.048 C17.374,15.048 16.724,15.325 16.259,15.878 C15.793,16.431 15.561,17.183 15.561,18.134 C15.561,19.651 16.156,20.409 17.348,20.409 C18.604,20.409 19.291,19.455 19.408,17.548 L19.526,15.214 C19.115,15.103 18.676,15.048 18.207,15.048 Z" class="cls-1"/>
</svg>
