<svg xmlns="http://www.w3.org/2000/svg" width="51" height="51" viewBox="0 0 51 51">
  <defs>
    <style>
      .cls-1 {
        fill-rule: evenodd;
      }
    </style>
  </defs>
  <path class="cls-1" d="M50.344,26.557c-0.066,1.566-1.818,4.643-1.818,4.643l-0.391-7.073a25.882,25.882,0,0,0-.926,2.768,17.62,17.62,0,0,1-2.646,4.453l-0.089-6.832s-0.48,2.128-.824,3.147-2.528,3.109-2.528,3.109l0.511-5.288s-0.617-.314-1.686.6-2.479,3.867-3.143,5.274-2.233,4.633-3.873,7.735a17.607,17.607,0,0,0-2.052,4.839,29.22,29.22,0,0,0-.323,3.937l-3.046-4.5a22.351,22.351,0,0,1-.768,3.518C26.259,48.14,23.9,50.163,23.9,50.163a15.169,15.169,0,0,0,.062-3.491A9.366,9.366,0,0,0,22.9,42.887a8.349,8.349,0,0,0-1.639,2.67c-0.344,1.25-.59,2.324-0.59,2.324s-0.987.007-1.243-2.46S17.7,39.714,16.787,37.4a50.622,50.622,0,0,0-3.172-6.839c-0.835-1.261-5.1-5.949-5.1-5.949l0.968,5.843a11.863,11.863,0,0,1-2.252-2.506C6.817,27.025,5.6,24.971,5.6,24.971l1.138,7.39a19.465,19.465,0,0,1-2.23-3.191C3.429,27.256,2.563,25.5,2.563,25.5l0.49,5.784A38.071,38.071,0,0,1,.828,27.531a15.772,15.772,0,0,1-.776-5.98c0.1-1.441,1.7-4.264,3.364-4.349s3.469,1.35,4.882,2.1,4.787,2.062,4.787,2.062a13.623,13.623,0,0,0-.229-4.193,14.458,14.458,0,0,1,.2-4.9s-1.715-3.636-1.8-5.184a36.04,36.04,0,0,1,1.015-6.05A16.9,16.9,0,0,0,13.478,4.8a14.513,14.513,0,0,0,1.864,2.628S19.647,3.059,25.4,3.094a13.188,13.188,0,0,1,9.3,4.261s1.053,0.488,1.861-1.949A17.827,17.827,0,0,0,37.455.818S40.551,4.906,39.4,8.2a22.679,22.679,0,0,1-1.6,3.964s-0.341,3.415-.668,5.387a12.537,12.537,0,0,0,.231,4.271,29,29,0,0,0,4.146-2.177c1.6-1.1,2.751-2.222,4.853-2.311s4.444,2.926,4.541,4.282C51.113,24.463,50.4,25.311,50.344,26.557Zm-30.576-6a46.856,46.856,0,0,1-3.749-3.135s0.377,5.589,3.392,7.212S23.9,22.324,23.9,22.324A26.366,26.366,0,0,1,19.768,20.559Zm3.847,6.6-1.257,2.856-1.413-2.787-1.169-.082a17.714,17.714,0,0,1-1.051,2.794C18.146,31.048,17,32.8,17,32.8l2.078,0,2.006-2.124,1.058,2.256a24.49,24.49,0,0,1,2.831-.2l3.182-.007,1.673-2.249,1.417,2.256,1.992,0.007s-1.268-2.008-1.854-2.838a7.855,7.855,0,0,1-.91-2.327l-1.659-.164-1.4,2.682-1.084-2.941Zm5.45-5.755a11.251,11.251,0,0,1-2.706,1.466s2.24,2.653,4.153,1.614c2.1-1.143,3.306-6.882,3.306-6.882A52.847,52.847,0,0,1,29.066,21.4Z"/>
</svg>
