<svg xmlns="http://www.w3.org/2000/svg" width="51" height="51" viewBox="0 0 51 51">
  <defs>
    <style>
      .cls-1 {
        fill-rule: evenodd;
      }
    </style>
  </defs>
  <path id="merged" class="cls-1" d="M27.773,50.964S5.859,20.182,21.527,14.723C30.775,11.4,34.6,19.5,34.6,19.5s6.734-6.25,13.712.671C60.411,32.172,27.773,50.964,27.773,50.964Zm18.9-29.54c-5.931-5.882-12.791.75-12.791,0.75S30.669,13.419,22.441,16.8c-12.785,4.524,5.793,31.408,5.793,31.408S56.95,31.621,46.669,21.424ZM1.331,3.409a5.161,5.161,0,0,1,6.979-.782A5.162,5.162,0,0,1,14.965.387c8.16,2.932-3.039,18.221-3.039,18.221S-4.826,9.516,1.331,3.409ZM13.645,2.344c-3.273-1.228-5.029,2.83-5.029,2.83S5.17,2.235,3.011,4.7c-4.467,4.35,8.21,10.989,8.21,10.989S20.01,4.631,13.645,2.344Z"/>
</svg>
