<svg id="Just_person" data-name="Just person" xmlns="http://www.w3.org/2000/svg" width="40" height="40" viewBox="0 0 40 40">
  <metadata><?xpacket begin="﻿" id="W5M0MpCehiHzreSzNTczkc9d"?>
<x:xmpmeta xmlns:x="adobe:ns:meta/" x:xmptk="Adobe XMP Core 5.6-c138 79.159824, 2016/09/14-01:09:01        ">
   <rdf:RDF xmlns:rdf="http://www.w3.org/1999/02/22-rdf-syntax-ns#">
      <rdf:Description rdf:about=""/>
   </rdf:RDF>
</x:xmpmeta>
                                                                                                    
                                                                                                    
                                                                                                    
                                                                                                    
                                                                                                    
                                                                                                    
                                                                                                    
                                                                                                    
                                                                                                    
                                                                                                    
                                                                                                    
                                                                                                    
                                                                                                    
                                                                                                    
                                                                                                    
                                                                                                    
                                                                                                    
                                                                                                    
                                                                                                    
                                                                                                    
                           
<?xpacket end="w"?></metadata>
<defs>
    <style>
      .cls-1 {
        fill-rule: evenodd;
      }
    </style>
  </defs>
  <path id="icon_profile_merged" data-name="icon_profile merged" class="cls-1" d="M26.926,25.7A2.388,2.388,0,0,1,25,23a4.2,4.2,0,0,1,1.7-3.23A10.389,10.389,0,0,0,30,12a10,10,0,1,0-16.565,7.531C14.947,21.047,16,20.987,16,23c0,1.7-.834,2.409-2.586,3.05C6.735,28.243,2,33.655,2,40H0c0-7.542,5.787-13.918,13.785-16.142,0,0,.7-1.2.028-1.6A12.7,12.7,0,0,1,8,12a12,12,0,1,1,24,0,13.659,13.659,0,0,1-4.726,9.778c-0.653.594-.568,1.982,0.06,2.143C33.582,25.525,40,32.8,40,40H38C38,33.661,33.021,27.937,26.926,25.7Z"/>
</svg>
