<svg xmlns="http://www.w3.org/2000/svg" width="51" height="51" viewBox="0 0 51 51">
  <defs>
    <style>
      .cls-1 {
        fill-rule: evenodd;
      }
    </style>
  </defs>
  <path id="Heart_copy_6" data-name="Heart copy 6" class="cls-1" d="M47,37.161c1.629,2.444,4,6.343,4,8.34a5.5,5.5,0,0,1-11,0c0-2.473,3.645-7.879,5-9.8v-7.46C37.526,40.1,25.674,51,25.674,51S-14.75,14.234,5.852,2.311c11.884-6.878,19.62,4.237,19.62,4.237S29.718,0.459,36.746.089c0.087-.019.176-0.015,0.264-0.027a3.855,3.855,0,0,0-1.323,2.75,3.5,3.5,0,0,0,3.5,3.5,1.783,1.783,0,0,0,.446-0.07c-1.56,1.78-1.866,4.506-.184,6.188a4.894,4.894,0,0,0,4.567,1.128,3.491,3.491,0,0,0,2.667,4,3.748,3.748,0,0,0,3.927-2A33.763,33.763,0,0,1,47,24.839V37.161ZM45.763,49.095c2.678-.065,3.2-3.188,3.2-4.225C47.268,45.114,45.217,47.922,45.763,49.095Zm-2.75-34.121c0-.006,0-0.011.005-0.016a5,5,0,0,1-5.57-7.991,3.632,3.632,0,0,1-2.486-1.054,3.348,3.348,0,0,1-.85-3.316C28.777,4.341,25.474,9.54,25.474,9.54S17.966-2.253,7.237,3.679C-11.367,14.325,25.66,48,25.66,48S38.372,36.27,45,24.486V18.939A3.5,3.5,0,0,1,43.013,14.974Zm4.568,4.065a3.62,3.62,0,0,1-.581.145v1.293C47.207,20,47.4,19.516,47.581,19.039Z"/>
</svg>
