<svg xmlns="http://www.w3.org/2000/svg" width="59" height="36" viewBox="0 0 59 36">
  <defs>
    <style>
      .cls-1 {
        fill-rule: evenodd;
      }
    </style>
  </defs>
  <path class="cls-1" d="M0.486,22.975C7.59,20.2,23.594,21.192,31,23.04c1.582,0.395,1.111,1.342-.39,1.08-5.231-.912-22.26-1.853-28.64,1.088C1.072,25.624-.63,23.41.486,22.975ZM1.15,28.14C8,25.481,24.175,24.2,31.6,26.085c1.581,0.4,1.233,1.137-.288,1.032-4.491-.31-18.387-0.9-28.536,3.157C1.857,30.642.033,28.574,1.15,28.14Zm1.093,5.217c7.465-3.859,22.583-5.169,30.178-4.373,1.621,0.17,1.355,1.012-.169.98-4.956-.107-22.317,1.595-28.224,5.4C3.194,35.9,1.179,33.907,2.243,33.357Z"/>
  <path id="m" class="cls-1" d="M0.8,18.637c-0.014.352,0.242,0.538,0.772,0.559a4.265,4.265,0,0,0,2.954-1.075,23.254,23.254,0,0,0,3.2-3.335A38.829,38.829,0,0,0,10.653,11.1q1.367-1.949,2.522-3.488L14.634,5.88q-0.051,1.265.057,3.54t0.368,4.45a31.586,31.586,0,0,0,.589,3.1q0.328,1.7.721,1.824a1.853,1.853,0,0,0,.884.247,4.775,4.775,0,0,0,1.749-.3,5.238,5.238,0,0,0,1.838-.842,6.673,6.673,0,0,0,1.674-1.779q1.21-1.745,2.33-3.654t2.078-3.559A17.385,17.385,0,0,1,28.4,6.65l1.05-1.436a61.414,61.414,0,0,0,.624,8,24.009,24.009,0,0,0,2.33,7.539,13.144,13.144,0,0,0,6.25,6.326,20.4,20.4,0,0,0,8.079,1.965,23.689,23.689,0,0,0,3.576-.066,19.72,19.72,0,0,0,7.228-2c1.765-.926,1.73-1.675.969-1.736a5.392,5.392,0,0,0-2.745.369,10.933,10.933,0,0,1-2.637,1.413,14.776,14.776,0,0,1-3.941.324,13.723,13.723,0,0,1-7.083-2.03,14.084,14.084,0,0,1-4.865-4.949,22.224,22.224,0,0,1-2.59-7.233,55.842,55.842,0,0,1-.787-9.521,2.524,2.524,0,0,1,.068-0.472A2.607,2.607,0,0,0,34,2.668,1.165,1.165,0,0,0,33.35,1.48a3.132,3.132,0,0,0-1.276-.369,4.487,4.487,0,0,0-1.851.347,19.736,19.736,0,0,0-1.871,1.029c-0.406.219-3.061,3.188-2.669,2.679-0.907,1.161-1.607,1.79-2.1,2.509s-1.129,1.578-1.909,2.883L19.662,13.75a35.981,35.981,0,0,1-.568-4.405,30.471,30.471,0,0,1-.081-3.71,8.284,8.284,0,0,1,.274-1.89,6.31,6.31,0,0,0,.253-1.363c0.005-.14-0.026-0.212-0.091-0.215l0.1,0a0.874,0.874,0,0,0-1.056-.888,6.7,6.7,0,0,0-4.015,1.1,18.819,18.819,0,0,0-3.494,2.973A34.016,34.016,0,0,0,7.9,9.2c-0.948,1.371-2.093,2.45-2.469,3.688A41.615,41.615,0,0,1,7.193,6.5C8.062,3.834,8.52,3.509,9.332,1.43L9.34,1.219C9.349,1.009,9.121.894,8.659,0.875a6.21,6.21,0,0,0-2,.341A1.824,1.824,0,0,0,5.5,2.1C3.744,5.371,1.013,13.224.8,18.637Z"/>
</svg>
