<svg xmlns="http://www.w3.org/2000/svg" width="51" height="51" viewBox="0 0 51 51">
  <defs>
    <style>
      .cls-1 {
        fill-rule: evenodd;
      }
    </style>
  </defs>
  <path id="merged" class="cls-1" d="M48.484,18.537L22.747,44.274c-1.486,1.486-4.19,1.78-6.726,1.655L12.08,49.87l-1.414-1.414L8.13,50.991,0,51l6.546-6.663L5.13,42.92l3.941-3.941c-0.125-2.536.169-5.24,1.655-6.726L36.463,6.516A8.5,8.5,0,0,1,48.484,18.537ZM11.262,39.617l-3.3,3.3,4.121,4.121,3.3-3.3c2.064,0.381,4.593.478,5.95-.879l5.506-5.506a23.294,23.294,0,0,0-3.805-5.321,23.6,23.6,0,0,0-5.4-3.857L12.14,33.667C10.783,35.024,10.88,37.553,11.262,39.617ZM47.07,7.93a6.5,6.5,0,0,0-9.192,0l-4.243,4.243a23.188,23.188,0,0,1,5.357,3.817,23.708,23.708,0,0,1,3.846,5.365l4.233-4.233A6.5,6.5,0,0,0,47.07,7.93Z"/>
</svg>
