<svg xmlns="http://www.w3.org/2000/svg" xmlns:xlink="http://www.w3.org/1999/xlink" preserveAspectRatio="xMidYMid" width="22" height="22" viewBox="0 0 22 22">
  <defs>
    <style>
      .cls-1 {
        fill: #000;
        fill-rule: evenodd;
      }
    </style>
  </defs>
  <path d="M19.000,13.000 L13.832,13.000 L10.155,13.000 L7.862,13.000 L5.006,13.000 L3.000,13.000 L1.000,13.000 L1.000,10.000 L3.000,10.000 L5.002,10.000 L7.891,10.000 L11.396,10.000 L16.677,10.000 L19.000,10.000 L21.000,10.000 L21.000,13.000 L19.000,13.000 ZM17.325,9.000 L13.848,9.000 C14.492,8.423 14.827,7.589 14.827,6.370 C14.827,3.603 11.084,4.000 8.000,4.000 C8.000,4.577 7.939,7.322 7.908,9.000 L5.000,9.000 C4.993,6.012 4.982,3.413 4.969,3.000 C4.941,2.118 6.000,1.000 7.000,1.000 C8.697,1.000 10.515,0.984 10.515,0.984 C18.843,0.984 17.911,5.693 17.911,6.370 C17.911,7.454 17.676,8.302 17.325,9.000 ZM5.007,14.000 L7.887,14.000 C7.933,15.805 8.000,18.565 8.000,19.000 C8.000,20.000 7.212,21.017 6.438,20.990 C5.671,20.964 4.980,20.213 5.000,19.000 C5.007,18.564 5.009,16.503 5.007,14.000 ZM14.527,14.000 C15.386,15.237 16.752,17.212 17.825,18.796 C18.621,19.970 17.911,20.990 17.158,20.990 C16.646,20.990 16.246,20.990 16.246,20.990 C15.769,20.990 15.418,20.806 15.194,20.437 L10.836,14.000 L14.527,14.000 Z" class="cls-1"/>
</svg>
