<svg xmlns="http://www.w3.org/2000/svg" xmlns:xlink="http://www.w3.org/1999/xlink" preserveAspectRatio="xMidYMid" width="28" height="32" viewBox="0 0 28 32">
  <defs>
    <style>
      .cls-1 {
        fill: #000;
        fill-rule: evenodd;
      }
    </style>
  </defs>
  <path d="M24.000,27.000 L23.000,27.000 C21.952,27.000 21.000,27.899 21.000,29.000 C21.000,30.000 21.000,29.974 21.000,31.000 C21.000,32.000 20.315,32.000 20.000,32.000 C17.000,32.000 15.000,27.000 11.955,27.000 C7.722,27.000 4.000,27.000 4.000,27.000 C1.791,27.000 -0.000,25.209 -0.000,23.000 L-0.000,12.000 C-0.000,9.791 1.791,8.000 4.000,8.000 L11.000,8.000 L11.000,10.000 L4.000,10.000 C2.895,10.000 2.000,10.895 2.000,12.000 L2.000,23.000 C2.000,24.105 2.895,25.000 4.000,25.000 C4.000,25.000 6.649,25.000 10.000,25.000 C18.000,25.000 16.257,29.000 19.000,29.000 C19.000,29.000 19.000,29.000 19.000,28.000 C19.000,26.943 20.000,25.000 22.000,25.000 C22.610,25.000 23.283,25.000 24.000,25.000 C25.000,25.000 26.000,24.105 26.000,23.000 L26.000,12.000 C26.000,10.895 25.105,10.000 24.000,10.000 L17.000,10.000 L17.000,8.000 L24.000,8.000 C26.209,8.000 28.000,9.791 28.000,12.000 L28.000,23.000 C28.000,25.209 26.209,27.000 24.000,27.000 ZM18.392,6.000 C18.181,6.000 16.692,6.000 15.000,6.000 L15.000,15.500 C15.000,16.328 14.828,17.000 14.000,17.000 C13.171,17.000 13.000,16.328 13.000,15.500 L13.000,6.000 C11.276,6.000 9.768,6.000 9.620,6.000 C9.166,6.000 8.828,5.709 9.094,5.421 C9.306,5.191 13.102,0.584 13.470,0.190 C13.711,-0.068 14.287,-0.064 14.528,0.190 C14.798,0.473 18.616,5.098 18.916,5.433 C19.136,5.678 18.893,6.000 18.392,6.000 Z" class="cls-1"/>
</svg>
