<svg xmlns="http://www.w3.org/2000/svg" xmlns:xlink="http://www.w3.org/1999/xlink" preserveAspectRatio="xMidYMid" width="28" height="28" viewBox="0 0 28 28">
  <defs>
    <style>

      .cls-2 {
        fill: #000000;
      }
    </style>
  </defs>
  <path d="M14.000,28.000 C6.268,28.000 -0.000,21.732 -0.000,14.000 C-0.000,6.268 6.268,-0.000 14.000,-0.000 C21.732,-0.000 28.000,6.268 28.000,14.000 C28.000,21.732 21.732,28.000 14.000,28.000 ZM22.000,12.000 C22.000,12.000 6.000,12.000 6.000,12.000 C4.895,12.000 4.000,12.895 4.000,14.000 C4.000,15.105 4.895,16.000 6.000,16.000 C6.000,16.000 22.000,16.000 22.000,16.000 C23.104,16.000 24.000,15.105 24.000,14.000 C24.000,12.895 23.104,12.000 22.000,12.000 Z" id="path-1" class="cls-2" fill-rule="evenodd"/>
</svg>
