<svg xmlns="http://www.w3.org/2000/svg" width="51" height="51" viewBox="0 0 51 51">
  <defs>
    <style>
      .cls-1 {
        fill-rule: evenodd;
      }
    </style>
  </defs>
  <path id="icon_reader_feedback_confused.svg" class="cls-1" d="M25.5,51A25.5,25.5,0,1,1,51,25.5,25.5,25.5,0,0,1,25.5,51Zm0-49A23.5,23.5,0,1,0,49,25.5,23.5,23.5,0,0,0,25.5,2Zm6,19A3.5,3.5,0,1,1,35,17.5,3.5,3.5,0,0,1,31.5,21Zm1.334,9.485a1,1,0,0,1-.76,1.193l-11.715,2.6a1,1,0,1,1-.433-1.953l11.716-2.6A1,1,0,0,1,32.834,30.485ZM19.5,21A3.5,3.5,0,1,1,23,17.5,3.5,3.5,0,0,1,19.5,21Z"/>
</svg>
