<svg xmlns="http://www.w3.org/2000/svg" width="26" height="26" viewBox="0 0 26 26">
  <defs>
    <style>
      .cls-1 {
        fill-rule: evenodd;
      }
    </style>
  </defs>
  <path id="Bold_Cap" data-name="Bold Cap" class="cls-1" d="M23,18c0,3-2,8-10,8H6.031A2.152,2.152,0,0,1,4,24.029V1.942A2.14,2.14,0,0,1,5.974,0H13c5,0,8,4,8,6,0,2.415,0,5-3.031,6.437A5.417,5.417,0,0,1,23,18ZM9,4L8,5v5c0-.008,1.008,1.011,1,1,7,0,8-.9,8-4C17,4.98,16,4,9,4ZM9,14L8,15v6l1,1c7,0,10-1,10-4S16,14,9,14Z"/>
</svg>
