<svg xmlns="http://www.w3.org/2000/svg" xmlns:xlink="http://www.w3.org/1999/xlink" preserveAspectRatio="xMidYMid" width="10" height="40" viewBox="0 0 10 40">
  <defs>
    <style>
      .cls-1 {
        fill: #000;
        fill-rule: evenodd;
      }
    </style>
  </defs>
  <path d="M5.000,24.000 C2.791,24.000 1.000,22.209 1.000,20.000 C1.000,17.791 2.791,16.000 5.000,16.000 C7.209,16.000 9.000,17.791 9.000,20.000 C9.000,22.209 7.209,24.000 5.000,24.000 ZM5.000,9.000 C2.791,9.000 1.000,7.209 1.000,5.000 C1.000,2.791 2.791,1.000 5.000,1.000 C7.209,1.000 9.000,2.791 9.000,5.000 C9.000,7.209 7.209,9.000 5.000,9.000 ZM5.000,31.000 C7.209,31.000 9.000,32.791 9.000,35.000 C9.000,37.209 7.209,39.000 5.000,39.000 C2.791,39.000 1.000,37.209 1.000,35.000 C1.000,32.791 2.791,31.000 5.000,31.000 Z" class="cls-1"/>
</svg>
