<?xml version="1.0" encoding="utf-8"?>
<!-- Generator: Adobe Illustrator 20.1.0, SVG Export Plug-In . SVG Version: 6.00 Build 0)  -->
<svg version="1.1" id="Layer_1" xmlns="http://www.w3.org/2000/svg" xmlns:xlink="http://www.w3.org/1999/xlink" x="0px" y="0px"
	 viewBox="0 0 210 148" style="enable-background:new 0 0 210 148;" xml:space="preserve">
<style type="text/css">
	.st0{opacity:5.000000e-02;}
</style>
<g class="st0">
	<path d="M96.3,41.4c-5.4,0-10.1,0.4-14.1,1.2c-4,0.8-7.2,2.1-9.7,4c-2.5,1.9-4.4,3.8-5.9,5.7c-1.4,1.9-2.5,4.7-3.2,8.3
		c-0.7,3.6-1.1,6.8-1.2,9.5s-0.2,6.6-0.2,11.7h34.2V148H4c-2.9-18.6-4.3-35.3-4.3-50.1c0-33.5,7.8-58.1,23.5-73.7
		C38.9,8.5,63.3,0.7,96.3,0.7V41.4z M210.4,41.4c-5.4,0-10.1,0.4-14.1,1.2c-4,0.8-7.2,2.1-9.7,4c-2.5,1.9-4.4,3.8-5.9,5.7
		c-1.4,1.9-2.5,4.7-3.2,8.3c-0.7,3.6-1.1,6.8-1.2,9.5s-0.2,6.6-0.2,11.7h34.2V148h-92.3c-2.9-18.6-4.3-35.3-4.3-50.1
		c0-33.5,7.8-58.1,23.5-73.7c15.7-15.6,40-23.4,73.1-23.4V41.4z"/>
</g>
</svg>
