<svg xmlns="http://www.w3.org/2000/svg" width="51" height="51" viewBox="0 0 51 51">
  <defs>
    <style>
      .cls-1 {
        fill-rule: evenodd;
      }
    </style>
  </defs>
  <path id="icon_reader_feedback_frown.svg" class="cls-1" d="M25.5,51A25.5,25.5,0,1,1,51,25.5,25.5,25.5,0,0,1,25.5,51Zm0-49A23.5,23.5,0,1,0,49,25.5,23.5,23.5,0,0,0,25.5,2ZM25.406,30a12.97,12.97,0,0,0-10.912,5.969l-1.846-.844a14.984,14.984,0,0,1,25.388-.2l-1.812.878A12.981,12.981,0,0,0,25.406,30ZM31.5,20A2.5,2.5,0,1,1,34,17.5,2.5,2.5,0,0,1,31.5,20Zm-13,0A2.5,2.5,0,1,1,21,17.5,2.5,2.5,0,0,1,18.5,20Z"/>
</svg>
