<svg xmlns="http://www.w3.org/2000/svg" width="51" height="51" viewBox="0 0 51 51">
  <defs>
    <style>
      .cls-1 {
        fill-rule: evenodd;
      }
    </style>
  </defs>
  <path id="Ellipse_1_copy_3" data-name="Ellipse 1 copy 3" class="cls-1" d="M25.5,51A25.5,25.5,0,1,1,51,25.5,25.5,25.5,0,0,1,25.5,51Zm0-49A23.5,23.5,0,1,0,49,25.5,23.5,23.5,0,0,0,25.5,2Zm0,42A18.5,18.5,0,1,1,44,25.5,18.5,18.5,0,0,1,25.5,44Zm0-30A11.5,11.5,0,1,0,37,25.5,11.5,11.5,0,0,0,25.5,14Zm0,18A6.5,6.5,0,1,1,32,25.5,6.5,6.5,0,0,1,25.5,32Z"/>
</svg>
