<svg xmlns="http://www.w3.org/2000/svg" xmlns:xlink="http://www.w3.org/1999/xlink" preserveAspectRatio="xMidYMid" width="28" height="26" viewBox="0 0 28 26">
  <defs>
    <style>
      .cls-1 {
        fill: #404755;
      }

      .cls-1, .cls-2 {
        fill-rule: evenodd;
      }

      .cls-2 {
        fill: #b4b4b4;
      }
    </style>
  </defs>
  <path d="M24.000,25.969 L4.000,25.969 C1.791,25.969 0.000,24.178 0.000,21.969 L0.000,3.969 C0.000,1.760 1.791,-0.031 4.000,-0.031 L24.000,-0.031 C25.166,-0.031 28.000,-0.031 28.000,4.969 C28.000,7.969 28.000,20.969 28.000,20.969 C28.000,23.969 26.209,25.969 24.000,25.969 ZM26.000,3.969 C26.000,2.864 25.104,1.969 24.000,1.969 L10.000,1.969 L10.000,23.969 L24.000,23.969 C25.104,23.969 26.000,23.073 26.000,21.969 L26.000,3.969 Z" class="cls-1"/>
  <path d="M8.000,1.969 L4.000,1.969 C2.895,1.969 2.000,2.864 2.000,3.969 L2.000,21.969 C2.000,23.073 2.895,23.969 4.000,23.969 L8.000,23.969 L8.000,1.969 Z" class="cls-2"/>
</svg>
