<svg id="women" xmlns="http://www.w3.org/2000/svg" width="51" height="51" viewBox="0 0 51 51">
  <defs>
    <style>
      .cls-1 {
        fill-rule: evenodd;
      }
    </style>
  </defs>
  <path id="development" class="cls-1" d="M37.587,51.1V48.734H45.58V51.1H37.587Zm5.7-10.453,2.167-1.585a3.586,3.586,0,0,1,.125.946v5.274H43.288V40.649ZM38.482,30.482l-0.615-.365-1.173-1.456A10.477,10.477,0,0,0,39.33,26.9a9.279,9.279,0,0,1-1.675-2.487L41.006,25.1a2.5,2.5,0,0,0,.433.362,8.018,8.018,0,0,0,2.228.132L42.2,27.435A13.691,13.691,0,0,1,38.482,30.482Zm-3.4-14.907h2.474a39.483,39.483,0,0,0,1.39,5.583L36.233,20.6A47.7,47.7,0,0,1,35.083,15.576ZM33.264,7.75l1.778-1.727c1.363,1.862,1.847,4.973,1.979,6.1H34.565A13.137,13.137,0,0,0,33.264,7.75ZM33.932,31.74a8.33,8.33,0,0,1-2.938-.541v0.117l3.157,1.317-1.185,2.124L29.307,33.25l-0.748-.313V28.626l0.95-.215c0.014,0,.16-0.037.379-0.1l0.5-.144,0.565,0.341a6.464,6.464,0,0,0,1.7.642l2.024,2.512A7.509,7.509,0,0,1,33.932,31.74Zm-6.7-27.881V1.4a10.624,10.624,0,0,1,5.368,2.185L30.82,5.315A8.286,8.286,0,0,0,27.237,3.859ZM16.887,48.666h6.9V51.1h-6.9V48.666ZM18.4,3.573a10.624,10.624,0,0,1,5.389-2.178V3.853a8.282,8.282,0,0,0-3.6,1.453ZM20.5,28.21L21.089,28.3c0.236,0.068.394,0.1,0.409,0.108l0.944,0.218v4.308l-0.749.313-3.651,1.5-1.185-2.124,3.149-1.314V31.183a8.331,8.331,0,0,1-2.978.556c-0.244,0-.468-0.052-0.7-0.073l2.039-2.531a6.62,6.62,0,0,0,1.674-.648ZM13.983,12.126a14.966,14.966,0,0,1,1.984-6.1l1.783,1.732a13.468,13.468,0,0,0-1.311,4.372H13.983Zm0.776,8.48-2.707.556a39.223,39.223,0,0,0,1.39-5.586h2.473A47.373,47.373,0,0,1,14.759,20.605Zm-3.117,6.3a10.581,10.581,0,0,0,2.666,1.768l-1.163,1.444-0.637.379a13.715,13.715,0,0,1-3.742-3.06L7.295,25.6a5.435,5.435,0,0,0,2.232-.13,3.953,3.953,0,0,0,.415-0.349l3.386-.7A9.243,9.243,0,0,1,11.642,26.905ZM7.712,45.284H5.42V40.01a3.578,3.578,0,0,1,.128-0.952l2.164,1.583v4.643Zm2.306-7.231-2.18-1.594a12.393,12.393,0,0,1,1.445-.679c0.347-.14,2.23-0.923,4.371-1.815l1.178,2.111c-2.315.953-4.414,1.816-4.78,1.963ZM13.437,51.1H5.42V48.734h8.017V51.1Zm20.7,0h-6.9V48.666h6.9V51.1Zm7.581-15.321a12.333,12.333,0,0,1,1.45.682l-2.179,1.593-0.039-.017c-0.366-.148-2.46-1.009-4.771-1.96l1.178-2.111C39.493,34.859,41.371,35.641,41.718,35.781Z"/>
</svg>
