<svg xmlns="http://www.w3.org/2000/svg" xmlns:xlink="http://www.w3.org/1999/xlink" preserveAspectRatio="xMidYMid" width="58" height="58" viewBox="0 0 58 58">
  <defs>
    
  </defs>
  <path d="M29.000,58.000 C12.984,58.000 -0.000,45.016 -0.000,29.000 C-0.000,12.984 12.984,-0.000 29.000,-0.000 C45.016,-0.000 58.000,12.984 58.000,29.000 C58.000,45.016 45.016,58.000 29.000,58.000 ZM16.840,51.991 C22.436,51.991 29.990,51.991 37.412,51.991 C36.625,52.655 35.992,53.402 35.536,54.222 C37.964,53.467 38.952,53.134 41.108,51.991 C41.152,51.991 41.198,51.991 41.243,51.991 C41.884,51.631 42.373,51.347 42.914,51.002 C42.965,50.974 43.003,50.953 43.055,50.924 C43.047,50.924 43.042,50.924 43.034,50.924 C43.429,50.669 43.850,50.385 44.404,49.991 C33.518,49.991 20.763,49.991 13.606,49.991 C14.382,50.517 15.721,51.418 16.840,51.991 ZM9.000,15.897 C9.000,14.761 9.000,13.635 9.000,12.540 C8.430,13.089 7.456,14.219 7.000,15.210 C7.000,24.809 7.000,35.736 7.000,42.964 C7.610,43.697 8.175,44.574 9.000,45.582 C9.000,39.936 9.000,30.661 9.000,21.584 C12.214,25.388 17.512,25.272 22.258,21.758 C18.056,23.234 11.578,21.124 9.000,15.897 ZM14.521,7.459 C12.987,8.473 11.952,9.303 10.953,10.399 C15.388,13.217 22.858,13.032 29.303,8.796 C22.630,9.885 17.881,9.104 14.521,7.459 ZM33.045,9.208 C34.164,7.251 35.175,5.480 36.025,3.993 C35.397,3.756 34.533,3.588 33.980,3.541 C27.967,14.064 14.954,36.835 9.551,46.289 C10.029,46.754 10.452,47.204 10.983,47.815 C13.681,43.093 18.580,34.520 23.528,25.863 C24.317,30.895 29.012,33.520 34.959,32.840 C30.488,32.000 25.836,26.729 26.446,20.756 C27.647,18.654 28.827,16.589 29.951,14.623 C30.867,20.519 38.392,25.668 47.541,25.138 C36.055,20.791 33.156,14.276 33.045,9.208 ZM11.284,47.963 C11.758,48.536 12.097,48.929 12.827,49.379 C17.637,46.577 25.829,41.805 34.050,37.016 C32.235,41.760 34.988,46.370 40.469,48.751 C37.025,45.795 35.632,38.931 39.115,34.065 C41.208,32.846 43.260,31.651 45.206,30.517 C43.635,34.661 45.430,40.263 49.823,44.546 C50.245,44.087 50.693,43.417 51.307,42.558 C47.857,35.953 48.709,30.856 50.604,27.372 C52.086,26.509 53.457,25.710 54.653,25.014 C54.607,24.343 54.567,23.844 54.317,22.894 C44.199,28.789 20.507,42.590 11.284,47.963 Z" id="path-1" class="cls-2" fill-rule="evenodd"/>
</svg>
