<svg xmlns="http://www.w3.org/2000/svg" xmlns:xlink="http://www.w3.org/1999/xlink" preserveAspectRatio="xMidYMid" width="44" height="49" viewBox="0 0 44 49">
  <defs>
    <style>
      .cls-1 {
        fill: #404755;
      }

      .cls-1, .cls-2 {
        fill-rule: evenodd;
      }

      .cls-2 {
        fill: #a0a3aa;
      }
    </style>
  </defs>
  <g>
    <path d="M32.221,12.639 C30.033,6.672 24.319,2.406 17.594,2.406 C8.982,2.406 2.000,9.388 2.000,18.000 C2.000,21.813 3.373,25.303 5.645,28.012 C5.592,28.587 5.557,29.168 5.557,29.757 C5.557,30.041 5.587,30.316 5.600,30.597 C2.272,27.428 0.187,22.965 0.187,18.006 L0.187,17.994 C0.187,8.384 7.978,0.594 17.588,0.594 L17.600,0.594 C25.787,0.594 32.634,6.255 34.488,13.871 C33.764,13.410 33.008,12.999 32.221,12.639 ZM9.494,15.594 C8.997,15.594 8.594,15.191 8.594,14.694 L8.594,14.681 C8.594,14.184 8.997,13.781 9.494,13.781 L14.448,13.781 C13.583,14.321 12.766,14.925 12.003,15.594 L9.494,15.594 ZM9.494,7.781 L18.506,7.781 C19.003,7.781 19.406,8.184 19.406,8.681 L19.406,8.694 C19.406,9.191 19.003,9.594 18.506,9.594 L9.494,9.594 C8.997,9.594 8.594,9.191 8.594,8.694 L8.594,8.681 C8.594,8.184 8.997,7.781 9.494,7.781 Z" class="cls-1"/>
    <path d="M24.600,47.406 L24.588,47.406 C14.978,47.406 7.187,39.616 7.187,30.006 L7.187,29.994 C7.187,20.384 14.978,12.594 24.588,12.594 L24.600,12.594 C34.210,12.594 42.000,20.384 42.000,29.994 L42.000,30.006 C42.000,39.616 34.210,47.406 24.600,47.406 ZM24.594,14.406 C15.982,14.406 9.000,21.388 9.000,30.000 C9.000,38.612 15.982,45.594 24.594,45.594 C33.206,45.594 40.187,38.612 40.187,30.000 C40.187,21.388 33.206,14.406 24.594,14.406 ZM32.694,39.594 L16.494,39.594 C15.997,39.594 15.594,39.191 15.594,38.694 L15.594,38.681 C15.594,38.184 15.997,37.781 16.494,37.781 L32.694,37.781 C33.191,37.781 33.594,38.184 33.594,38.681 L33.594,38.694 C33.594,39.191 33.191,39.594 32.694,39.594 ZM32.694,33.594 L16.494,33.594 C15.997,33.594 15.594,33.191 15.594,32.694 L15.594,32.681 C15.594,32.184 15.997,31.781 16.494,31.781 L32.694,31.781 C33.191,31.781 33.594,32.184 33.594,32.681 L33.594,32.694 C33.594,33.191 33.191,33.594 32.694,33.594 ZM32.694,27.594 L16.494,27.594 C15.997,27.594 15.594,27.191 15.594,26.694 L15.594,26.681 C15.594,26.184 15.997,25.781 16.494,25.781 L32.694,25.781 C33.191,25.781 33.594,26.184 33.594,26.681 L33.594,26.694 C33.594,27.191 33.191,27.594 32.694,27.594 ZM25.506,21.594 L16.494,21.594 C15.997,21.594 15.594,21.191 15.594,20.694 L15.594,20.681 C15.594,20.184 15.997,19.781 16.494,19.781 L25.506,19.781 C26.003,19.781 26.406,20.184 26.406,20.681 L26.406,20.694 C26.406,21.191 26.003,21.594 25.506,21.594 Z" class="cls-2"/>
  </g>
</svg>
