<svg xmlns="http://www.w3.org/2000/svg" xmlns:xlink="http://www.w3.org/1999/xlink" preserveAspectRatio="xMidYMid" width="36" height="41" viewBox="0 0 36 41">
  <defs>
    <style>
      .cls-1 {
        fill: #000;
        fill-rule: evenodd;
      }
    </style>
  </defs>
  <path d="M32.028,29.265 L32.028,41.000 L24.017,34.948 C22.133,35.617 20.114,36.000 18.000,36.000 C8.059,36.000 -0.000,27.941 -0.000,18.000 C-0.000,8.059 8.059,-0.000 18.000,-0.000 C27.941,-0.000 36.000,8.059 36.000,18.000 C36.000,22.266 34.508,26.180 32.028,29.265 ZM24.687,13.139 C24.078,12.055 23.222,11.220 22.118,10.634 C21.015,10.048 19.757,9.755 18.344,9.755 C16.710,9.755 15.247,10.106 13.954,10.809 C12.662,11.513 11.651,12.527 10.922,13.851 C10.193,15.176 9.828,16.688 9.828,18.388 C9.828,20.712 10.502,22.523 11.850,23.822 C13.197,25.121 15.076,25.770 17.485,25.770 C19.093,25.770 20.580,25.490 21.947,24.931 L21.947,23.329 C20.385,23.915 18.884,24.208 17.446,24.208 C15.557,24.208 14.109,23.700 13.100,22.684 C12.091,21.669 11.586,20.217 11.586,18.329 C11.586,16.923 11.856,15.687 12.397,14.623 C12.937,13.558 13.720,12.740 14.745,12.167 C15.771,11.594 16.977,11.307 18.363,11.307 C19.451,11.307 20.414,11.535 21.254,11.991 C22.094,12.447 22.742,13.096 23.197,13.939 C23.653,14.783 23.881,15.761 23.881,16.874 C23.881,17.903 23.730,18.749 23.427,19.413 C23.124,20.077 22.716,20.409 22.201,20.409 C21.524,20.409 21.186,19.888 21.186,18.847 L21.186,18.612 L21.401,14.071 C20.932,13.915 20.396,13.793 19.794,13.705 C19.192,13.617 18.643,13.573 18.149,13.573 C16.788,13.573 15.704,13.992 14.897,14.828 C14.089,15.665 13.686,16.754 13.686,18.095 C13.686,19.260 13.990,20.184 14.599,20.868 C15.208,21.552 16.042,21.893 17.104,21.893 C17.690,21.893 18.217,21.766 18.686,21.513 C19.155,21.259 19.548,20.878 19.867,20.370 L19.985,20.370 C20.115,20.839 20.369,21.210 20.746,21.483 C21.124,21.757 21.570,21.893 22.084,21.893 C22.781,21.893 23.394,21.679 23.925,21.249 C24.456,20.819 24.867,20.219 25.160,19.447 C25.453,18.676 25.600,17.825 25.600,16.893 C25.600,15.474 25.295,14.223 24.687,13.139 ZM17.348,20.409 C16.156,20.409 15.561,19.651 15.561,18.134 C15.561,17.183 15.793,16.431 16.259,15.878 C16.724,15.325 17.374,15.048 18.207,15.048 C18.676,15.048 19.115,15.103 19.526,15.214 L19.408,17.548 C19.291,19.455 18.604,20.409 17.348,20.409 Z" class="cls-1"/>
</svg>
