<svg xmlns="http://www.w3.org/2000/svg" width="51" height="51" viewBox="0 0 51 51">
  <defs>
    <style>
      .cls-1 {
        fill-rule: evenodd;
      }
    </style>
  </defs>
  <path id="merged" class="cls-1" d="M50,25.954a9.537,9.537,0,0,1-13,8.959,7.947,7.947,0,0,1-6.141,2.934,7.852,7.852,0,0,1-3.294-.72,7.942,7.942,0,0,1-6.1,2.886,29.288,29.288,0,0,1-5.71-.505,4.985,4.985,0,1,1-8.428-4.862A10.553,10.553,0,0,1,1,25a10.066,10.066,0,0,1,5.277-8.9A7.957,7.957,0,0,1,15.488,6.016,9.363,9.363,0,0,1,31.462,3.435a6.321,6.321,0,0,1,2.912-.712,6.4,6.4,0,0,1,5.943,4.113,7.739,7.739,0,0,1,.807-0.042A8,8,0,0,1,47.53,19.51,9.605,9.605,0,0,1,50,25.954ZM11,41a3,3,0,1,0-3-3A3,3,0,0,0,11,41ZM41.714,9.1a5.253,5.253,0,0,0-1.488.219l-1.614.476L38.387,8.1a3.737,3.737,0,0,0-3.67-3.264,3.666,3.666,0,0,0-2.43.928L30.981,6.917,30.093,5.405A6.78,6.78,0,0,0,24.211,2a6.915,6.915,0,0,0-6.694,5.485L17.148,9.208l-1.6-.678A5.226,5.226,0,0,0,13.5,8.114a5.436,5.436,0,0,0-4.767,7.861l0.714,1.446-1.482.588A7.385,7.385,0,0,0,3,25c0,4.032,3.295,7.819,6.169,8.357A4.957,4.957,0,0,1,15.929,37.3a20.5,20.5,0,0,0,5.395.7,5.34,5.34,0,0,0,4.636-2.745l0.782-1.393,1.3,0.911a5.241,5.241,0,0,0,3.025.959,5.342,5.342,0,0,0,4.62-2.72l0.711-1.25,1.243,0.7a6.909,6.909,0,0,0,3.375.883,7.069,7.069,0,0,0,7-7.12A7.146,7.146,0,0,0,45.435,20.7l-1.282-1.064,1.207-1.151A5.443,5.443,0,0,0,41.714,9.1ZM33.772,21.984q-1.747.337-2.066,3.041l-3.3-.259a8.031,8.031,0,0,1,1.058-3.654A3.747,3.747,0,0,1,32.3,19.425q1.637-.156,1.861-2.25-0.286-1.648-3.123-1.93A4.073,4.073,0,0,0,27.627,16.4l-2.173-2.543a8.261,8.261,0,0,1,2.674-1.57A9.9,9.9,0,0,1,31.994,12a6.6,6.6,0,0,1,3.9,1.736,4.5,4.5,0,0,1,1.6,3.915,6.263,6.263,0,0,1-1.111,2.819A4.027,4.027,0,0,1,33.772,21.984ZM30.04,26.305a1.778,1.778,0,0,1,1.283.581,1.624,1.624,0,0,1,.379,1.222,1.6,1.6,0,0,1-.564,1.142,2.025,2.025,0,0,1-2.594-.2,1.6,1.6,0,0,1-.379-1.216,1.624,1.624,0,0,1,.565-1.148A1.714,1.714,0,0,1,30.04,26.305Zm-7.41,3.521a2.548,2.548,0,0,1-1.848-.23,2.05,2.05,0,0,1-.933-1.454,2.1,2.1,0,0,1,.3-1.7,2.532,2.532,0,0,1,1.651-.907,2.45,2.45,0,0,1,1.842.231,2.137,2.137,0,0,1,.9,1.473,2.079,2.079,0,0,1-.306,1.694A2.466,2.466,0,0,1,22.63,29.826ZM16.993,13.619l4.844-.937L23.318,23.4l-3.7.716ZM5,43c2.209,0,5,1.791,5,4a4,4,0,0,1-8,0C2,44.791,2.791,43,5,43Zm1,6a2,2,0,1,0-2-2A2,2,0,0,0,6,49Z"/>
</svg>
