<svg xmlns="http://www.w3.org/2000/svg" width="14" height="14" viewBox="0 0 14 14">
  <defs>
    <style>
      .cls-1 {
        fill-rule: evenodd;
      }
    </style>
  </defs>
  <path id="icon_x_7x7.svg" class="cls-1" d="M13.336,2.632C12.257,3.723,10.617,5.354,8.9,7.061c2,1.993,3.816,3.788,4.443,4.377a1.547,1.547,0,0,1,.366,2.169,1.747,1.747,0,0,1-2.315-.277C10.33,12.254,8.707,10.64,7,8.945c-1.707,1.7-3.33,3.309-4.393,4.384a1.747,1.747,0,0,1-2.315.277,1.547,1.547,0,0,1,.366-2.169C1.286,10.848,3.1,9.053,5.1,7.06,3.383,5.354,1.743,3.723.664,2.632A1.613,1.613,0,0,1,.366.349C1.017-.309,1.918.06,2.585,0.735,3.478,1.638,5.19,3.357,7,5.166,8.81,3.357,10.522,1.638,11.415.735,12.082,0.06,12.983-.309,13.634.349A1.613,1.613,0,0,1,13.336,2.632Z"/>
</svg>
