<svg xmlns="http://www.w3.org/2000/svg" width="42" height="62" viewBox="0 0 42 62">
  <defs>
    <style>
      .cls-1 {
        fill-rule: evenodd;
      }
    </style>
  </defs>
  <path id="icon_Session_NoAccess_merged" data-name="icon_Session_NoAccess merged" class="cls-1" d="M31.249,40H34v2H32.6Zm1.99-26.217-1.8,1.8-5.021-5.021,1.8-1.8a2,2,0,0,1,2.828,0l2.193,2.193A2,2,0,0,1,33.239,13.783ZM18.732,21.475l-1.3-1.927,7.8-7.8,1.614,1.614ZM8,34s1.825-6.847,3.711-8.733l1.231-1.231,1.3,1.927-2.215,2.215a1,1,0,0,0,0,1.414l0.328,0.328a1,1,0,0,0,1.414,0l1.878-1.878,1.343,1.988-0.258.258C14.847,32.175,8,34,8,34ZM28.59,15.1l1.665,1.665L21.48,25.542l-1.343-1.987ZM25.079,42H8V40H23.728Zm4.73,7H8V47H28.457Z"/>
</svg>
