<svg xmlns="http://www.w3.org/2000/svg" width="51" height="51" viewBox="0 0 51 51">
  <defs>
    <style>
      .cls-1 {
        fill-rule: evenodd;
      }
    </style>
  </defs>
  <path id="icon_reader_feedback_angel.svg_copy_2" data-name="icon_reader_feedback_angel.svg copy 2" class="cls-1" d="M48.347,31.6a3.666,3.666,0,0,1,1.4.865,3.736,3.736,0,0,1,0,5.284L43.33,44.168h0l-0.024.024h0A9.6,9.6,0,0,1,29.49,30.858c0.043-.047.074-0.1,0.119-0.146l0.132-.132h0l15.1-15.1,2.642,2.642a3.736,3.736,0,0,1,0,5.284l-0.8.8A4.226,4.226,0,0,1,48.614,25.3a4.27,4.27,0,0,1,0,6.039Zm-3.507,2,0.755-.755c2.265-2.265,2.344-5.205,1.51-6.039s-3.7-.834-4.529,0c4.529-4.529,4.022-6.546,3.4-7.171L44.84,18.5,31.252,32.09a7.473,7.473,0,1,0,11.314,9.693,1.559,1.559,0,0,0,.387-0.257l5.284-5.284a1.6,1.6,0,0,0,0-2.265C47.611,33.352,46.35,32.09,44.84,33.6ZM25.5,17C17.492,17,11,14.09,11,10.5S17.492,4,25.5,4,40,6.91,40,10.5,33.508,17,25.5,17Zm0-11C18.6,6,13,8.015,13,10.5S18.6,15,25.5,15,38,12.985,38,10.5,32.4,6,25.5,6ZM21.258,30.58h0l0.132,0.132c0.046,0.046.077,0.1,0.119,0.146A9.6,9.6,0,0,1,7.695,44.19h0L7.67,44.168h0L1.253,37.751a3.737,3.737,0,0,1,0-5.284,3.667,3.667,0,0,1,1.4-.865l-0.268-.268a4.27,4.27,0,0,1,0-6.039A4.226,4.226,0,0,1,4.314,24.2l-0.8-.8a3.737,3.737,0,0,1,0-5.284L6.16,15.482l15.1,15.1h0ZM6.16,18.5L5.028,19.634c-0.625.625-1.132,2.642,3.4,7.171-0.834-.834-3.7-0.834-4.529,0s-0.755,3.774,1.51,6.039L6.16,33.6c-1.51-1.51-2.772-.248-3.4.377a1.6,1.6,0,0,0,0,2.265l5.284,5.284a1.558,1.558,0,0,0,.387.257A7.471,7.471,0,1,0,19.748,32.09Z"/>
</svg>
