<?xml version="1.0" encoding="utf-8"?>
<!-- Generator: Adobe Illustrator 21.1.0, SVG Export Plug-In . SVG Version: 6.00 Build 0)  -->
<svg version="1.1" id="Layer_1" xmlns="http://www.w3.org/2000/svg" xmlns:xlink="http://www.w3.org/1999/xlink" x="0px" y="0px"
	 viewBox="0 0 33 33" enableBackground="new 0 0 33 33" xml:space="preserve">
<g>
	<linearGradient id="SVGID_1_" gradientUnits="userSpaceOnUse" x1="19.88" y1="37.8837" x2="-0.8259" y2="16.3935">
		<stop  offset="2.302734e-02"/>
		<stop  offset="1"/>
	</linearGradient>
	<path fill="url(#SVGID_1_)" d="M5.3,16.1c-3.8,3.8-3.8,10,0,13.8c3.8,3.8,10,3.8,13.8,0"/>
	<linearGradient id="SVGID_2_" gradientUnits="userSpaceOnUse" x1="34.3635" y1="23.9288" x2="13.6576" y2="2.4386">
		<stop  offset="2.302734e-02"/>
		<stop  offset="1"/>
	</linearGradient>
	<path fill="url(#SVGID_2_)" d="M18.3,11.7c2.5-2.5,2.5-6.6,0-9.1s-6.6-2.5-9.1,0"/>
	<linearGradient id="SVGID_3_" gradientUnits="userSpaceOnUse" x1="27.8731" y1="30.1824" x2="7.1672" y2="8.6922">
		<stop  offset="2.302734e-02" />
		<stop  offset="1" />
	</linearGradient>
	<path opacity="0.8" fill="url(#SVGID_3_)" d="M7.1,4.5c-2.5,2.5-2.5,6.6,0,9.1C8.5,15,25.5,32.1,25.5,32.1l0.1-4.4l4.4-0.3"/>
	<linearGradient id="SVGID_4_" gradientUnits="userSpaceOnUse" x1="33.6989" y1="24.5692" x2="12.993" y2="3.079">
		<stop  offset="2.302734e-02"/>
		<stop  offset="1"/>
	</linearGradient>
	<polygon fill="url(#SVGID_4_)" points="30.6,18.5 26,14 23.4,16.7 27.9,21.2 	"/>
</g>
</svg>
