<svg xmlns="http://www.w3.org/2000/svg" width="51" height="51" viewBox="0 0 51 51">
  <defs>
    <style>
      .cls-1 {
        fill-rule: evenodd;
      }
    </style>
  </defs>
  <path id="icon_reader_feedback_neither.svg" class="cls-1" d="M25.983,45.634v2.43c4.925,0.276,8.851,1.482,8.851,2.928,0,0.017-21.569,0-21.569,0,0-1.556,4.231-2.832,9.714-2.973V45.606c-12.142-.6-22.018-6.435-22.018-15.6,0-.009,1.968,0,1.968,0S5.708,32,25.112,32c19.5,0,21.94-1.989,21.94-1.989s1.93,0,1.93,0C48.983,39.415,38.588,45.31,25.983,45.634ZM35.438,19c-4,0-9.437,4-9.437,9v2H24V28c0-6,5.438-11,11.438-11S47,21,47,28H45C45,23,39.438,19,35.438,19Zm-0.557-2.994c-0.532-2.246-2.77-4.383-5.268-5.693a4.482,4.482,0,0,1-8.424-.591C18.011,10.841,15,13.167,15,16H13c0-3.77,3.98-6.97,8.082-8.317a4.5,4.5,0,0,1,2.757-3.358A22.148,22.148,0,0,0,22,2c-1-1-1-2,0-2,0.67,0,2.236,2.245,3.2,4.027C25.3,4.02,25.4,4,25.5,4a4.485,4.485,0,0,1,4.46,4.1c3.378,1.438,6.444,4.2,6.963,7.816A12.863,12.863,0,0,1,34.881,16.006ZM24.49,21.658a10.557,10.557,0,0,0-1.071,1.834c-0.084-.143-0.189-0.273-0.281-0.412-1.671,2.762.225,5.609-4.329,5.609-5.153,0-4.194-6.71-5.29-6.71-0.774,0-.43,3.355-2.9,3.355-2.429,0-2.079-3.876-3.091-4.013a8.921,8.921,0,0,0-2.965,6.585c0,0.037.006,0.074,0.006,0.111H2.63c0-.032-0.005-0.064-0.005-0.1A10.45,10.45,0,0,1,4.7,21.7a9.458,9.458,0,0,1,2.453-2.437,12.548,12.548,0,0,1,7.46-2.417A12.266,12.266,0,0,1,24.49,21.658Zm-3.33-.3-0.878-1.338a0.38,0.38,0,0,0-.5-0.113,0.321,0.321,0,0,0-.122.461L20.54,21.7a0.38,0.38,0,0,0,.5.113A0.321,0.321,0,0,0,21.161,21.356Zm-1.848,3.576a0.381,0.381,0,0,0,.5.092l1.407-.871a0.32,0.32,0,0,0,.1-0.465,0.381,0.381,0,0,0-.5-0.092l-1.407.871A0.32,0.32,0,0,0,19.312,24.932Zm-0.474-1.865a0.368,0.368,0,0,0,.452-0.223,0.332,0.332,0,0,0-.241-0.419l-1.619-.456a0.368,0.368,0,0,0-.452.223,0.331,0.331,0,0,0,.241.418ZM16.89,26.691a0.357,0.357,0,0,0,.4.3,0.343,0.343,0,0,0,.325-0.367l-0.167-1.558a0.357,0.357,0,0,0-.4-0.3,0.343,0.343,0,0,0-.325.367ZM16,20.772a0.367,0.367,0,0,0,.446-0.234l0.45-1.509a0.333,0.333,0,0,0-.253-0.413,0.367,0.367,0,0,0-.446.234l-0.45,1.509A0.333,0.333,0,0,0,16,20.772Zm-5.657-1.334a0.379,0.379,0,0,0-.495-0.125l-1.469.777a0.322,0.322,0,0,0-.135.458,0.379,0.379,0,0,0,.495.125l1.47-.777A0.322,0.322,0,0,0,10.345,19.438Zm1.1,2.445-1.684.157a0.343,0.343,0,0,0-.324.367,0.356,0.356,0,0,0,.4.3l1.684-.157a0.343,0.343,0,0,0,.324-0.367A0.356,0.356,0,0,0,11.443,21.883ZM13.5,18.315a0.378,0.378,0,0,0-.492.133L12.19,19.82a0.323,0.323,0,0,0,.144.455,0.378,0.378,0,0,0,.492-0.133L13.64,18.77A0.323,0.323,0,0,0,13.5,18.315Z"/>
</svg>
