<svg xmlns="http://www.w3.org/2000/svg" width="58" height="103" viewBox="0 0 58 103">
  <metadata><?xpacket begin="﻿" id="W5M0MpCehiHzreSzNTczkc9d"?>
<x:xmpmeta xmlns:x="adobe:ns:meta/" x:xmptk="Adobe XMP Core 5.6-c140 79.160451, 2017/05/06-01:08:21        ">
   <rdf:RDF xmlns:rdf="http://www.w3.org/1999/02/22-rdf-syntax-ns#">
      <rdf:Description rdf:about=""/>
   </rdf:RDF>
</x:xmpmeta>
                                                                                                    
                                                                                                    
                                                                                                    
                                                                                                    
                                                                                                    
                                                                                                    
                                                                                                    
                                                                                                    
                                                                                                    
                                                                                                    
                                                                                                    
                                                                                                    
                                                                                                    
                                                                                                    
                                                                                                    
                                                                                                    
                                                                                                    
                                                                                                    
                                                                                                    
                                                                                                    
                           
<?xpacket end="w"?></metadata>
<defs>
    <style>
      .cls-1 {
        fill-rule: evenodd;
      }
    </style>
  </defs>
  <path id="Color_Fill_1" data-name="Color Fill 1" class="cls-1" d="M18.853,56.988c-5.354,0-10.319.028-15.284-.009-3.632-.027-4.216-0.921-3.1-4.635,4.9-16.3,9.86-32.588,14.679-48.92C15.861,1.008,16.834-.047,19.336,0c8.138,0.157,16.28.045,24.421,0.065,3.6,0.009,4.147.86,2.794,4.39q-5.369,14.011-10.781,28c-0.356.924-.661,1.871-1.11,3.15,1.14,0.079,2.034.192,2.929,0.2,5.459,0.018,10.919-.056,16.376.07a4,4,0,0,1,2.889,1.354c0.352,0.491-.184,2.124-0.75,2.882Q33.118,70.9,9.978,101.554c-0.626.828-2.034,0.984-3.077,1.454-0.215-1.266-.891-2.684-0.575-3.775,3.752-12.949,7.652-25.85,11.511-38.764C18.125,59.506,18.4,58.538,18.853,56.988Zm23.5-52.723c-7.228,0-13.919.1-20.605-.057-2.121-.049-2.955.754-3.568,2.839C14.041,21.147,9.773,35.2,5.562,49.277c-0.308,1.03-.494,2.1-0.82,3.51,5.294,0,10.252-.02,15.211.007,3.549,0.019,4.068.785,2.988,4.427q-4.28,14.425-8.595,28.839c-0.314,1.057-.562,2.138-0.84,3.208l0.535,0.213L51.125,40.056h-3.4c-5.075,0-10.149.037-15.224-.016-2.759-.029-3.385-1.082-2.445-3.848,0.2-.574.434-1.131,0.652-1.7Z"/>
</svg>
