<?xml version="1.0" encoding="utf-8"?>
<!-- Generator: Adobe Illustrator 22.0.1, SVG Export Plug-In . SVG Version: 6.00 Build 0)  -->
<svg version="1.1" id="Layer_1" xmlns="http://www.w3.org/2000/svg" xmlns:xlink="http://www.w3.org/1999/xlink" x="0px" y="0px"
	 viewBox="0 0 24 24" enable-background="new 0 0 24 24" xml:space="preserve">
<g id="rpihmi_3_">
	<g>
		<path d="M16.6,0.8c0,0.1,0,0.1,0,0.2c0,1.2,0,2.3,0,3.5c0,0.2,0,0.2-0.2,0.2c-0.6,0-1.3,0-1.9,0c-0.2,0-0.4,0-0.6,0.1
			c-0.4,0.1-0.7,0.4-0.7,0.8c0,0.8,0,1.6,0,2.4c0,0.1,0.1,0.1,0.2,0.1c1,0,2,0,3.1,0c0.1,0,0.1,0,0.2,0c-0.1,1.3-0.3,2.6-0.4,3.9
			c-1,0-2,0-3.1,0c0,0.1,0,0.2,0,0.2c0,3.6,0,7.2,0,10.8c0,0.1,0,0.1,0,0.2c-1.4,0-2.8,0-4.2,0c0-0.1,0-0.1,0-0.2
			c0-3.6,0-7.2,0-10.8c0-0.1,0-0.2,0-0.3C8,12,7,12,6.1,12c0-0.1,0-0.1,0-0.2c0-1.2,0-2.3,0-3.5c0-0.2,0-0.2,0.2-0.2
			c0.8,0,1.6,0,2.4,0c0.2,0,0.2-0.1,0.2-0.2c0-1,0-2.1,0-3.1C9,4,9.1,3.3,9.5,2.6c0.4-0.8,1-1.3,1.8-1.5c0.4-0.1,0.9-0.2,1.4-0.3
			c0.1,0,0.1,0,0.2,0C14.1,0.8,15.3,0.8,16.6,0.8z"/>
	</g>
</g>
</svg>
