<svg xmlns="http://www.w3.org/2000/svg" width="38" height="38" viewBox="0 0 38 38">
  <defs>
    <style>
      .cls-1 {
        fill-rule: evenodd;
      }
    </style>
  </defs>
  <path id="icon_add.svg" class="cls-1" d="M19,38A19,19,0,1,1,38,19,19,19,0,0,1,19,38ZM19,2A17,17,0,1,0,36,19,17,17,0,0,0,19,2Zm5.985,18c-1.062-.009-3-0.007-3.563,0a1.313,1.313,0,0,0-1.445,1.481c-0.008,1.055-.016,2.489,0,3.54a1.06,1.06,0,0,1-.993.983,1.08,1.08,0,0,1-1-.985c-0.008-1.06,0-2.507,0-3.564A1.313,1.313,0,0,0,16.479,20c-1.058,0-3.041,0-3.535,0a1.04,1.04,0,0,1-.96-1,1.075,1.075,0,0,1,1-1c0.5,0,2.443-.017,3.5,0a1.308,1.308,0,0,0,1.5-1.469c0-1.048,0-3.031,0-3.529a1,1,0,1,1,2,0c0.007,0.5-.008,2.49,0,3.539A1.322,1.322,0,0,0,21.484,18c0.5,0,2.441-.034,3.5,0a1.09,1.09,0,0,1,1,1A1.068,1.068,0,0,1,24.984,20Z"/>
</svg>
