<svg xmlns="http://www.w3.org/2000/svg" xmlns:xlink="http://www.w3.org/1999/xlink" preserveAspectRatio="xMidYMid" width="42" height="52" viewBox="0 0 42 52">
  <defs>
    <style>
      .cls-1 {
        fill: #404854;
      }

      .cls-1, .cls-2 {
        fill-rule: evenodd;
      }

      .cls-2 {
        fill: #a0a3aa;
      }
    </style>
  </defs>
  <g>
    <path d="M20.161,8.119 C18.631,6.113 16.221,4.813 13.500,4.813 C8.875,4.813 5.125,8.555 5.125,13.172 C5.125,17.240 8.038,20.626 11.895,21.374 C11.924,26.071 13.874,31.326 16.342,36.111 C14.689,38.372 13.500,39.773 13.500,39.773 C13.500,39.773 0.571,24.563 0.571,13.155 C0.571,6.015 6.360,0.227 13.500,0.227 C18.317,0.227 22.510,2.867 24.735,6.773 C23.111,6.969 21.575,7.436 20.161,8.119 ZM9.687,13.156 C9.687,11.051 11.394,9.344 13.500,9.344 C14.673,9.344 15.709,9.885 16.409,10.718 C14.662,12.390 13.325,14.483 12.576,16.843 C10.920,16.428 9.687,14.941 9.687,13.156 Z" class="cls-1"/>
    <path d="M26.500,48.773 C26.500,48.773 13.571,33.563 13.571,22.155 C13.571,15.015 19.360,9.227 26.500,9.227 C33.640,9.227 39.429,15.015 39.429,22.155 C39.429,33.563 26.500,48.773 26.500,48.773 ZM26.500,13.812 C21.875,13.812 18.125,17.555 18.125,22.172 C18.125,26.789 21.875,30.531 26.500,30.531 C31.125,30.531 34.875,26.789 34.875,22.172 C34.875,17.555 31.125,13.812 26.500,13.812 ZM26.500,25.969 C24.394,25.969 22.688,24.262 22.688,22.156 C22.688,20.051 24.394,18.344 26.500,18.344 C28.606,18.344 30.312,20.051 30.312,22.156 C30.312,24.262 28.606,25.969 26.500,25.969 Z" class="cls-2"/>
  </g>
</svg>
