<svg xmlns="http://www.w3.org/2000/svg" xmlns:xlink="http://www.w3.org/1999/xlink" preserveAspectRatio="xMidYMid" width="51" height="51" viewBox="0 0 51 51">
  <defs>
    <style>
      .cls-1 {
        fill: #000;
        fill-rule: evenodd;
      }
    </style>
  </defs>
  <path d="M25.500,51.000 C11.417,51.000 -0.000,39.583 -0.000,25.500 C-0.000,11.417 11.417,-0.000 25.500,-0.000 C39.583,-0.000 51.000,11.417 51.000,25.500 C51.000,39.583 39.583,51.000 25.500,51.000 ZM25.500,2.000 C12.521,2.000 2.000,12.521 2.000,25.500 C2.000,38.479 12.521,49.000 25.500,49.000 C38.479,49.000 49.000,38.479 49.000,25.500 C49.000,12.521 38.479,2.000 25.500,2.000 ZM35.111,10.568 C35.111,10.568 34.331,9.000 32.623,9.000 C30.833,9.000 30.094,9.375 30.094,9.375 C29.541,9.375 29.094,8.927 29.094,8.375 C29.094,7.823 29.541,7.375 30.094,7.375 C30.094,7.375 30.833,7.000 32.623,7.000 C34.331,7.000 36.219,8.812 36.219,8.812 C36.692,9.550 36.761,10.411 36.297,10.710 C35.932,10.945 35.682,11.120 35.111,10.568 ZM33.000,34.500 C33.000,40.299 29.642,45.000 25.500,45.000 C21.358,45.000 18.000,40.299 18.000,34.500 C18.000,28.701 21.358,24.000 25.500,24.000 C29.642,24.000 33.000,28.701 33.000,34.500 ZM20.906,9.375 C20.906,9.375 20.167,9.000 18.377,9.000 C16.669,9.000 15.889,10.568 15.889,10.568 C15.318,11.120 15.068,10.945 14.703,10.710 C14.239,10.411 14.308,9.550 14.781,8.812 C14.781,8.812 16.669,7.000 18.377,7.000 C20.167,7.000 20.906,7.375 20.906,7.375 C21.459,7.375 21.906,7.823 21.906,8.375 C21.906,8.927 21.459,9.375 20.906,9.375 ZM18.500,13.000 C19.881,13.000 21.000,14.567 21.000,16.500 C21.000,18.433 19.881,20.000 18.500,20.000 C17.119,20.000 16.000,18.433 16.000,16.500 C16.000,14.567 17.119,13.000 18.500,13.000 ZM30.000,16.500 C30.000,14.567 31.119,13.000 32.500,13.000 C33.881,13.000 35.000,14.567 35.000,16.500 C35.000,18.433 33.881,20.000 32.500,20.000 C31.119,20.000 30.000,18.433 30.000,16.500 Z" class="cls-1"/>
</svg>
