<svg xmlns="http://www.w3.org/2000/svg" xmlns:xlink="http://www.w3.org/1999/xlink" preserveAspectRatio="xMidYMid" width="51" height="51" viewBox="0 0 51 51">
  <defs>
    <style>
      .cls-1 {
        fill: #000;
        fill-rule: evenodd;
      }
    </style>
  </defs>
  <path d="M51.000,25.500 C51.000,39.583 39.583,51.000 25.500,51.000 C11.417,51.000 -0.000,39.583 -0.000,25.500 C-0.000,25.331 0.022,25.168 0.025,25.000 L-0.000,25.000 L-0.000,6.000 C-0.000,3.239 2.239,1.000 5.000,1.000 C7.533,1.000 9.605,2.891 9.933,5.334 C14.242,2.003 19.631,-0.000 25.500,-0.000 C31.369,-0.000 36.758,2.003 41.067,5.334 C41.395,2.891 43.467,1.000 46.000,1.000 C48.761,1.000 51.000,3.239 51.000,6.000 L51.000,25.000 L50.975,25.000 C50.978,25.168 51.000,25.331 51.000,25.500 ZM49.000,6.000 C49.000,4.343 47.657,3.000 46.000,3.000 L46.000,3.000 C44.343,3.000 43.000,4.343 43.000,6.000 L43.000,6.986 C45.548,9.395 47.615,12.306 49.000,15.585 L49.000,6.000 ZM25.500,2.000 C19.554,2.000 14.139,4.226 10.000,7.868 L10.000,25.000 L8.000,25.000 L8.000,6.000 C8.000,4.343 6.657,3.000 5.000,3.000 L5.000,3.000 C3.343,3.000 2.000,4.343 2.000,6.000 L2.000,26.000 C2.000,26.172 2.023,26.338 2.051,26.502 C2.579,39.012 12.860,49.000 25.500,49.000 C38.479,49.000 49.000,38.479 49.000,25.500 C49.000,12.521 38.479,2.000 25.500,2.000 ZM12.984,17.082 C13.391,16.718 13.907,16.156 14.665,15.739 C20.878,24.616 32.750,27.263 43.642,22.061 C43.893,22.783 44.858,23.844 44.931,24.231 C32.958,29.435 20.966,27.852 12.984,17.082 ZM36.997,12.538 C35.751,11.942 34.382,11.908 33.175,12.334 L32.509,10.449 C34.198,9.852 36.115,9.900 37.859,10.733 C39.603,11.567 40.844,13.028 41.441,14.717 L39.555,15.383 C39.129,14.177 38.242,13.133 36.997,12.538 ZM24.000,9.000 C22.619,9.000 21.369,9.560 20.464,10.464 L19.050,9.050 C20.317,7.784 22.067,7.000 24.000,7.000 C25.933,7.000 27.683,7.784 28.950,9.050 L27.536,10.464 C26.631,9.560 25.381,9.000 24.000,9.000 Z" class="cls-1"/>
</svg>
