<svg xmlns="http://www.w3.org/2000/svg" width="51" height="51" viewBox="0 0 51 51">
  <defs>
    <style>
      .cls-1 {
        fill: #120906;
        fill-rule: evenodd;
      }
    </style>
  </defs>
  <path id="hunter" class="cls-1" d="M48.569,41.145a0.954,0.954,0,0,1-.256.316,0.888,0.888,0,0,1-.373.171l0.278-.106-3.828,2.263c-0.021.012-.042,0.024-0.065,0.035s-0.044.02-.068,0.029l-0.07.024-0.074.018-30.641,6.05a1.061,1.061,0,0,1-.451-0.01,1.284,1.284,0,0,1-.419-0.187,1.438,1.438,0,0,1-.56-0.782L1.13,10.839a1.353,1.353,0,0,1-.051-0.345,1.161,1.161,0,0,1,.043-0.319A1.013,1.013,0,0,1,1.251,9.9a0.886,0.886,0,0,1,.2-0.218L4.887,7.022a0.927,0.927,0,0,0-.2.221c-0.008.013-.011,0.028-0.019,0.041A0.926,0.926,0,0,1,4.919,7a0.956,0.956,0,0,1,.4-0.16L36.133,1.9a1.014,1.014,0,0,1,.427.025,1.222,1.222,0,0,1,.153.053,1.331,1.331,0,0,1,.25.138,1.443,1.443,0,0,1,.547.759L48.629,40.257a1.3,1.3,0,0,1,.052.472A1.107,1.107,0,0,1,48.569,41.145ZM4.512,7.844a1.271,1.271,0,0,0,.051.348A1.247,1.247,0,0,1,4.522,7.77C4.521,7.795,4.512,7.818,4.512,7.844Zm0.042-.322a1.137,1.137,0,0,0-.017.132,1.063,1.063,0,0,1,.087-0.284A0.987,0.987,0,0,0,4.555,7.521ZM35.338,4.885L7.647,9.324,17.81,44.682l27.747-5.442ZM17.895,13.041l2.37,8.413,6.985-.994-2.37-8.413,3.565-.508,6.021,21.374-3.565.507-2.633-9.346-6.985.994,2.633,9.346-3.565.507L14.33,13.548ZM38.533,30.448L39.8,34.935l0.772-.11L40.788,35.6l-0.772.11,0.467,1.658-0.7.1-0.467-1.658-2.481.353-0.219-.779,1.346-4.858Zm0.562,4.586-0.879-3.122L37.3,35.289Z"/>
</svg>
