<svg xmlns="http://www.w3.org/2000/svg" xmlns:xlink="http://www.w3.org/1999/xlink" preserveAspectRatio="xMidYMid" width="102" height="102" viewBox="0 0 102 102">
  <defs>
    <style>

      .cls-2 {
        fill: #00ffff;
      }
    </style>
  </defs>
  <path d="M17.587,0.000 C17.587,0.000 84.414,0.000 84.414,0.000 C94.126,0.000 102.000,7.874 102.000,17.586 C102.000,17.586 102.000,59.793 102.000,59.793 C102.000,69.506 94.126,77.379 84.414,77.379 C84.414,77.379 80.897,77.379 80.897,77.379 C80.897,77.379 80.897,102.000 80.897,102.000 C80.897,102.000 49.241,77.379 49.241,77.379 C49.241,77.379 17.587,77.379 17.587,77.379 C7.874,77.379 0.000,69.506 0.000,59.793 C0.000,59.793 0.000,17.586 0.000,17.586 C0.000,7.874 7.874,0.000 17.587,0.000 Z" id="path-1" class="cls-2" fill-rule="evenodd"/>
</svg>
