<svg id="Gun" xmlns="http://www.w3.org/2000/svg" width="51" height="51" viewBox="0 0 51 51">
  <defs>
    <style>
      .cls-1 {
        fill-rule: evenodd;
      }
    </style>
  </defs>
  <path class="cls-1" d="M8.235,2.152l-3.43,7.886"/>
  <path id="Shape_11_copy" data-name="Shape 11 copy" class="cls-1" d="M40.34,28.712l3.536-.356L41.641,22.63l-32.264-17L7.808,8.951,8.882,9.618l-0.4.961C7.093,9.867,5.776,9.3,5.776,9.3L8.1,2.8,43.8,21.342l1.679,9.886Z"/>
  <path class="cls-1" d="M39.831,35.028"/>
  <path class="cls-1" d="M6.966,14.772L34.178,28.209,27.717,44.865s0.533,2,4.315,1.657c3.444-.311,3.626-0.316,3.631-0.314h0s0,0,0,0,0.737-4.8,1.37-8.363c0.474-2.669,2.7-7.093,3.8-9.152l1.719,0.959S39.667,34.733,39,38.492s-0.98,9.04-.98,9.04a31,31,0,0,1-5.877.958,10.512,10.512,0,0,1-7.081-2.3l6.526-16.914L4.372,15.988,6.724,9.662l1.82,1.015Z"/>
  <path class="cls-1" d="M25.175,27.92a3.585,3.585,0,0,0-.106,1.952,6.288,6.288,0,0,0,2.114,1.638l3.76,1.388-0.822,1.29-5.042-1.861a6.288,6.288,0,0,1-2.114-1.638,3.585,3.585,0,0,1,.106-1.952l1.647-3.929,1.521,0.571Z"/>
  <path class="cls-1" d="M30.566,26.3c-0.01.162-.02,0.326-0.04,0.5a3.458,3.458,0,0,1-.466,1.551c-0.645.871-1.18,1.689-1.18,1.689l2.728,1.315-0.34,1.022-3.984-1.921s0.535-.818,1.18-1.688a3.458,3.458,0,0,0,.466-1.551,11.587,11.587,0,0,0,.055-1.693Z"/>
  <path class="cls-1" d="M16.122,8.493L15.85,5.611l-2.757-1.3L12.2,6.1l-1.514-.921,1.474-3.3,5.08,2.537,0.584,5.1Z"/>
  <path class="cls-1" d="M42.3,21.592l-1.448-.816L41.362,18.5,39.4,17.475l-1.018,1.913-1.341-.755,1.588-3.019,4.423,2.226Z"/>
  <path class="cls-1" d="M35.061,29.024L28.67,44.5a4.516,4.516,0,0,0,3.067.839c1.864-.156,3.182-0.168,3.182-0.168a55.192,55.192,0,0,0,1.218-6.7,56.517,56.517,0,0,1,2.058-8.36"/>
</svg>
