<svg xmlns="http://www.w3.org/2000/svg" xmlns:xlink="http://www.w3.org/1999/xlink" preserveAspectRatio="xMidYMid" width="464" height="464" viewBox="0 0 464 464">
  <defs>
    <style>
      .cls-1 {
        fill: #000;
        fill-rule: evenodd;
      }
    </style>
  </defs>
  <path d="M232.000,464.000 C103.870,464.000 -0.000,360.130 -0.000,232.000 C-0.000,103.870 103.870,-0.000 232.000,-0.000 C360.130,-0.000 464.000,103.870 464.000,232.000 C464.000,360.130 360.130,464.000 232.000,464.000 ZM232.000,24.000 C117.125,24.000 24.000,117.125 24.000,232.000 C24.000,346.875 117.125,440.000 232.000,440.000 C346.875,440.000 440.000,346.875 440.000,232.000 C440.000,117.125 346.875,24.000 232.000,24.000 ZM345.000,247.000 L247.000,247.000 L247.000,345.000 C247.000,353.284 240.284,360.000 232.000,360.000 C223.716,360.000 217.000,353.284 217.000,345.000 L217.000,247.000 L119.000,247.000 C110.716,247.000 104.000,240.284 104.000,232.000 C104.000,223.716 110.716,217.000 119.000,217.000 L217.000,217.000 L217.000,119.000 C217.000,110.716 223.716,104.000 232.000,104.000 C240.284,104.000 247.000,110.716 247.000,119.000 L247.000,217.000 L345.000,217.000 C353.284,217.000 360.000,223.716 360.000,232.000 C360.000,240.284 353.284,247.000 345.000,247.000 Z" class="cls-1"/>
</svg>
