<svg xmlns="http://www.w3.org/2000/svg" xmlns:xlink="http://www.w3.org/1999/xlink" preserveAspectRatio="xMidYMid" width="41" height="38" viewBox="0 0 41 38">
  <defs>
    <style>
      .cls-1 {
        fill: #000;
        fill-rule: evenodd;
      }
    </style>
  </defs>
  <path d="M22.966,37.200 C18.104,37.200 13.700,35.229 10.470,32.042 C10.480,31.311 11.228,30.681 12.044,30.343 C14.866,33.124 18.715,34.844 22.966,34.844 C31.615,34.844 38.627,27.750 38.627,19.000 C38.627,10.250 31.615,3.156 22.966,3.156 C14.847,3.156 8.173,9.407 7.384,17.410 L11.430,17.410 C12.206,18.171 12.206,19.405 11.430,20.166 L7.567,23.955 C6.791,24.716 5.533,24.716 4.758,23.955 L0.895,20.166 C0.119,19.405 0.119,18.171 0.895,17.410 L5.109,17.410 C5.904,8.105 13.589,0.800 22.966,0.800 C32.871,0.800 40.902,8.948 40.902,19.000 C40.902,29.052 32.871,37.200 22.966,37.200 Z" class="cls-1"/>
</svg>
