<svg xmlns="http://www.w3.org/2000/svg" xmlns:xlink="http://www.w3.org/1999/xlink" preserveAspectRatio="xMidYMid" width="51" height="51" viewBox="0 0 51 51">
  <defs>
    <style>
      .cls-1 {
        fill: #000;
        fill-rule: evenodd;
      }
    </style>
  </defs>
  <path d="M50.277,7.025 L48.012,9.289 L41.711,2.988 L43.975,0.723 C44.956,-0.256 46.545,-0.256 47.525,0.723 L50.277,3.475 C51.257,4.456 51.257,6.045 50.277,7.025 ZM5.000,43.000 C4.510,43.490 4.152,45.393 4.642,45.883 L5.053,46.295 C5.543,46.784 7.510,46.490 8.000,46.000 L44.882,9.118 L46.532,10.769 L10.545,46.757 C7.242,50.060 0.000,51.000 0.000,51.000 C0.000,51.000 0.968,43.731 4.243,40.456 L40.231,4.468 L41.882,6.118 L5.000,43.000 Z" class="cls-1"/>
</svg>
