<svg version="1.1" xmlns="http://www.w3.org/2000/svg" xmlns:xlink="http://www.w3.org/1999/xlink" x="0" y="0" width="51" height="51" viewBox="0, 0, 51, 51">
  <g id="Layer_2">
    <path d="M13.249,3.657 C13.249,3.657 13.009,4.128 13.585,6.768 C14.093,9.096 14.737,9.457 14.737,9.457 C14.737,9.457 12.938,10.974 12.596,12.142 C12.254,13.311 11.045,16.341 12.931,18.655 C14.818,20.969 16.143,21.361 18.761,21.093 C20.833,20.881 20.257,20.641 20.257,20.641 C20.257,20.641 21.928,24.273 27.218,30.146 C32.45,35.954 36.77,39.411 36.77,39.411 L37.204,41.126 L34.449,43.246 L36.409,43.829 L35.614,44.73 L32.435,45.578 L31.195,48.048 C31.195,48.048 32.8,47.927 34.279,47.211 C35.758,46.496 37.165,46.022 37.165,46.022 L37.011,46.903 L37.31,47.38 C37.31,47.38 32.011,50.772 25.068,50.401 C18.125,50.03 13.62,48.122 9.487,44.412 C5.353,40.702 2.948,36.176 2.948,36.176 C2.948,36.176 3.878,37.171 4.052,36.827 C4.154,36.623 5.089,36.935 5.209,36.664 C5.297,36.468 6.14,37.203 6.222,36.99 C6.222,36.99 6.693,36.248 6.693,36.248 C6.784,36.01 6.315,34.589 6.385,34.349 C6.448,34.132 5.919,32.905 5.951,32.703 C5.999,32.402 4.295,32.343 4.24,32.117 C4.103,31.555 2.93,32.251 2.544,32.17 C1.771,32.007 1.2,31.97 1.06,31.057 C0.898,29.999 0.62,27.718 0.53,26.552 C0.215,22.472 1.594,16.429 3.604,13.355 C8.215,6.307 13.249,3.657 13.249,3.657 z" fill="#000000" opacity="0.323"/>
    <path d="M25.5,0.017 C31.696,0.017 37.549,2.237 42.143,6.203 C42.348,6.38 42.371,6.689 42.194,6.894 C42.017,7.099 41.708,7.121 41.503,6.945 C37.085,3.131 31.458,0.998 25.5,0.997 C11.968,0.998 0.997,11.968 0.997,25.5 C0.997,27.572 1.178,29.149 1.634,30.999 C1.699,31.262 1.539,31.528 1.276,31.593 C1.013,31.657 0.747,31.497 0.682,31.234 C0.207,29.305 0.017,27.649 0.017,25.5 C0.017,11.426 11.426,0.017 25.5,0.017 z" fill="#000000"/>
    <path d="M3.128,35.861 L3.408,36.111 C7.46,44.533 15.987,50.002 25.5,50.002 C29.799,50.002 33.935,48.895 37.59,46.817 C37.825,46.683 38.124,46.766 38.258,47.001 C38.392,47.236 38.309,47.536 38.074,47.669 C34.272,49.83 29.97,50.983 25.5,50.982 C15.607,50.983 6.739,45.294 2.524,36.535 C2.407,36.292 2.51,35.999 2.754,35.881 L3.128,35.861 z" fill="#000000"/>
    <path d="M50.456,19.923 C50.759,21.498 50.983,23.863 50.983,25.5 C50.983,29.849 49.892,34.041 47.84,37.768 L46.982,37.296 C48.954,33.712 50.002,29.683 50.002,25.5 C50.002,23.925 49.784,21.622 49.494,20.107 L50.456,19.923 z" fill="#000000"/>
    <g>
      <path d="M42.154,6.189 C42.154,6.189 42.154,6.189 42.154,6.189" fill="#FFFFFF"/>
    </g>
    <path d="M1.103,23.521 C1.247,23.552 1.548,23.611 2.012,23.694 C2.79,23.834 3.746,23.99 4.886,24.158 C8.15,24.639 12.237,25.12 17.205,25.569 C19.614,25.787 22.18,25.992 24.906,26.183 C35.113,26.897 43.172,27.075 48.81,26.957 C49.332,26.947 49.684,26.936 49.861,26.928 L49.901,27.908 C49.718,27.915 49.36,27.926 48.83,27.937 C43.164,28.056 35.075,27.876 24.837,27.16 C22.105,26.97 19.533,26.764 17.117,26.545 C12.131,26.094 8.025,25.611 4.743,25.128 C3.593,24.958 2.627,24.801 1.839,24.659 C1.364,24.574 1.052,24.512 0.897,24.479 L1.103,23.521 z" fill="#000000"/>
    <path d="M19.4,7.338 C23.269,7.205 26.126,10.227 25.78,14.089 C25.434,17.951 22.017,21.19 18.148,21.323 C14.279,21.456 11.422,18.434 11.768,14.572 C12.114,10.71 15.531,7.471 19.4,7.338 z M19.417,7.838 C15.8,7.962 12.59,11.006 12.266,14.617 C11.947,18.179 14.562,20.946 18.131,20.823 C21.748,20.699 24.958,17.655 25.282,14.045 C25.601,10.482 22.986,7.715 19.417,7.838 z" fill="#000000"/>
    <path d="M19.042,19.68 C15.802,19.794 13.412,17.187 13.704,13.857 C13.996,10.527 16.86,7.735 20.1,7.621 C23.34,7.507 25.73,10.114 25.438,13.444 C25.146,16.774 22.283,19.566 19.042,19.68 z" fill="#000000" opacity="0.296"/>
    <path d="M41.552,6.261 L42.051,6.285 L41.934,8.77 L41.924,8.969 L41.729,9.004 L40.4,9.246 L41.532,10.304 L41.3,10.484 L39.471,11.903 L38.751,12.675 L44.681,12.227 L44.847,12.214 L44.923,12.363 L46.451,15.379 L46.604,15.681 L46.27,15.738 L44.073,16.114 L45.071,16.357 L46.902,16.357 L46.891,16.618 L46.85,17.609 L46.841,17.823 L46.629,17.847 L40.974,18.504 L41.892,19.035 L42.012,19.205 L42.301,20.733 L42.343,20.953 L42.129,21.019 L40.901,21.395 L42.188,21.774 L44.006,22.146 L44.18,22.279 L44.847,23.614 L47.37,23.392 L48.419,21.877 L48.571,21.657 L48.78,21.824 L49.105,22.083 L49.638,20.167 L50.119,20.302 L49.485,22.582 L49.383,22.947 L49.088,22.71 L48.677,22.382 L47.714,23.773 L47.531,23.879 L44.722,24.127 L44.552,24.142 L44.476,23.99 L43.787,22.612 L42.068,22.259 L39.961,21.639 L39.162,21.404 L39.958,21.161 L41.768,20.606 L41.542,19.41 L40.071,18.559 L39.419,18.181 L40.168,18.094 L46.359,17.375 L46.381,16.856 L45.013,16.851 L42.782,16.313 L42.799,15.824 L45.852,15.303 L44.552,12.738 L38.15,13.221 L37.511,13.269 L37.948,12.801 L39.134,11.535 L40.762,10.269 L39.695,9.271 L39.332,8.932 L39.821,8.842 L41.444,8.548 L41.552,6.261 z" fill="#000000"/>
    <path d="M44.587,29.25 L44.85,29.448 L45.942,30.267 L47.576,29.426 L47.907,29.256 L47.94,29.626 C47.943,29.669 47.949,29.748 47.954,29.859 C48.004,30.889 47.943,32.127 47.682,33.398 C47.532,34.13 47.266,34.887 46.918,35.644 C46.723,36.069 46.514,36.466 46.305,36.827 L46.218,36.973 L47.789,37.281 L47.693,37.772 L45.767,37.394 L45.4,37.322 L45.607,37.01 C45.659,36.932 45.752,36.784 45.873,36.576 C46.074,36.229 46.276,35.844 46.464,35.435 C46.797,34.711 47.051,33.989 47.192,33.298 C47.501,31.023 47.429,32.107 47.453,30.052 L46.031,30.783 L45.892,30.854 L44.814,30.046 L43.869,32.476 L43.817,32.61 L43.675,32.632 L41.642,32.951 L42.325,33.509 L42.525,33.673 L42.354,33.868 L41.481,34.859 L43.518,35.596 L43.441,36.081 L38.359,36.228 L38.033,37.533 L38.851,38.396 L39.08,38.638 L38.784,38.79 L37.101,39.654 L37.588,41.071 L37.645,41.236 L37.51,41.346 L35.08,43.334 L36.565,43.803 L36.972,43.931 L36.661,44.224 L35.8,45.035 L35.699,45.092 L32.7,45.977 L31.62,47.737 C32.377,47.736 33.068,47.427 33.752,47.159 C33.91,47.088 34.073,47.015 34.242,46.94 C34.869,46.664 35.54,46.379 36.211,46.101 C36.614,45.934 36.927,45.807 37.107,45.735 L37.5,45.578 L37.448,45.998 L37.367,46.643 L38.288,47.163 L38.042,47.598 L36.975,46.996 L36.829,46.914 L36.85,46.747 L36.899,46.359 L36.402,46.563 C35.734,46.839 35.066,47.123 34.443,47.398 C34.276,47.472 34.114,47.544 33.958,47.614 C32.833,48.122 31.874,48.279 31.197,48.247 C31.158,48.245 31.158,48.245 31.146,48.244 L30.745,48.207 L30.956,47.864 L32.324,45.634 L32.466,45.525 L35.501,44.63 L36.008,44.152 L34.489,43.672 L34.048,43.533 L34.406,43.24 L37.059,41.069 L36.558,39.612 L36.487,39.407 L36.68,39.309 L38.259,38.498 L37.576,37.777 L37.481,37.677 L37.515,37.544 L37.92,35.923 L37.966,35.739 L38.155,35.733 L42.112,35.619 L40.966,35.205 L40.621,35.08 L40.864,34.805 L41.808,33.732 L40.893,32.984 L40.461,32.63 L41.013,32.543 L43.455,32.16 L44.467,29.558 L44.587,29.25 z" fill="#000000"/>
    <path d="M3.148,35.698 L3.329,35.768 L4.884,36.759 C5.112,36.904 5.179,37.207 5.034,37.435 C4.889,37.664 4.586,37.731 4.357,37.585 L2.803,36.595 C2.575,36.45 2.508,36.147 2.653,35.918 C2.873,35.69 2.725,35.792 3.148,35.698 z" fill="#000000"/>
    <g>
      <path d="M4.458,36.939 L4.933,37.503 L6.111,38.921 L9.213,42.306 L10.905,40.989 L13.538,42.776 L16.17,44.468 L18.191,43.387 L27.029,44.515 L29.003,46.16 L29.943,42.682 L27.546,40.707 L30.789,39.626 L33.515,37.182 L28.862,36.712 L28.11,35.161 L25.947,35.49 L23.973,39.72 L19.461,39.438 L17.533,34.08 L14.666,34.268 L14.431,36.148 L12.175,36.618 L11.47,38.733 L9.871,38.028 L7.662,37.887 L9.26,36.853 L7.38,33.609 L10.059,32.293 L6.017,32.387 L4.936,30.225 L3.744,32.184 L5.141,33.016 L4.131,34.086 L5.409,35.155 L3.685,35.245" fill="#000000"/>
      <path d="M4.936,30.225 L6.017,32.387 L10.059,32.293 L7.38,33.609 L9.26,36.853 L7.662,37.887 L9.871,38.028 L11.47,38.733 L12.175,36.618 L14.431,36.148 L14.666,34.267 L17.533,34.079 L19.461,39.438 L23.973,39.72 L25.947,35.49 L28.11,35.161 L28.862,36.712 L33.515,37.182 L30.789,39.626 L27.546,40.707 L29.943,42.682 L29.003,46.16 L27.029,44.515 L18.191,43.387 L16.17,44.468 L13.538,42.776 L10.905,40.989 L9.213,42.306 L6.111,38.921 L4.933,37.503 L4.457,36.938 L4.84,36.616 L5.318,37.184 L6.479,38.583 L9.27,41.628 L10.598,40.595 C10.77,40.462 11.007,40.454 11.186,40.576 L13.808,42.355 L16.193,43.888 L17.956,42.946 C18.047,42.897 18.152,42.878 18.255,42.891 L27.092,44.019 C27.186,44.031 27.275,44.07 27.349,44.131 L28.724,45.277 L29.376,42.862 L27.228,41.093 C26.924,40.843 27.015,40.357 27.388,40.233 L30.532,39.185 L32.339,37.565 L28.812,37.209 C28.639,37.192 28.488,37.086 28.412,36.93 L27.821,35.71 L26.287,35.944 L24.426,39.932 C24.339,40.118 24.147,40.232 23.942,40.219 L19.429,39.937 C19.23,39.925 19.058,39.795 18.99,39.607 L17.19,34.603 L15.111,34.739 L14.927,36.21 C14.901,36.422 14.742,36.594 14.533,36.637 L12.558,37.049 L11.944,38.891 C11.851,39.171 11.537,39.31 11.268,39.19 L9.751,38.521 L7.63,38.386 C7.149,38.355 6.986,37.729 7.39,37.467 L8.589,36.692 L6.947,33.86 C6.802,33.61 6.9,33.288 7.16,33.161 L7.8,32.846 L6.028,32.887 C5.835,32.892 5.656,32.784 5.569,32.611 L4.893,31.257 L4.434,32.012 L5.397,32.586 C5.672,32.75 5.724,33.126 5.504,33.359 L4.859,34.043 L5.729,34.772 C6.078,35.064 5.888,35.631 5.434,35.655 L3.908,35.734 L3.685,35.245 L5.409,35.155 L4.131,34.086 L5.141,33.016 L3.744,32.184 L4.936,30.225 z" fill="#000000"/>
    </g>
    <path d="M1.003,31.102 L1.193,31.128 L2.523,31.899 L3.89,31.834 C4.027,31.827 4.145,31.934 4.151,32.071 C4.158,32.209 4.051,32.326 3.913,32.333 L2.473,32.402 L2.336,32.368 L0.942,31.56 C0.823,31.491 0.782,31.338 0.851,31.219 L1.003,31.102 z" fill="#000000"/>
    <path d="M18.666,11.371 C20.316,11.315 21.533,12.586 21.386,14.21 C21.239,15.834 19.782,17.196 18.132,17.252 C16.483,17.308 15.265,16.037 15.412,14.413 C15.56,12.789 17.016,11.427 18.666,11.371 z M18.683,11.871 C17.284,11.919 16.035,13.087 15.91,14.458 C15.79,15.781 16.765,16.798 18.115,16.752 C19.514,16.704 20.764,15.536 20.888,14.165 C21.008,12.842 20.034,11.825 18.683,11.871 z" fill="#000000"/>
  </g>
</svg>
