<svg xmlns="http://www.w3.org/2000/svg" xmlns:xlink="http://www.w3.org/1999/xlink" preserveAspectRatio="xMidYMid" width="54" height="120" viewBox="0 0 54 120">
  <defs>
    <style>

      .cls-2 {
        fill: #00ffff;
      }
    </style>
  </defs>
  <path d="M48.857,67.780 C48.857,67.780 5.143,67.780 5.143,67.780 C2.302,67.780 -0.001,65.446 -0.001,62.566 C-0.001,62.566 -0.001,5.214 -0.001,5.214 C-0.001,0.921 19.231,-0.000 26.319,-0.000 C33.406,-0.000 54.000,1.220 54.000,5.214 C54.000,5.214 54.000,62.566 54.000,62.566 C54.000,65.446 51.697,67.780 48.857,67.780 ZM8.047,72.993 C10.608,72.993 44.229,72.993 45.997,72.993 C48.287,72.993 49.712,75.254 48.652,77.770 C47.733,79.956 33.227,115.100 31.374,118.347 C30.157,120.478 26.290,120.443 25.072,118.347 C23.712,116.010 6.919,80.438 5.407,77.673 C4.297,75.649 5.523,72.993 8.047,72.993 Z" id="path-1" class="cls-2" fill-rule="evenodd"/>
</svg>
