<?xml version="1.0" encoding="utf-8"?>
<!-- Generator: Adobe Illustrator 20.1.0, SVG Export Plug-In . SVG Version: 6.00 Build 0)  -->
<svg version="1.1" id="Layer_1" xmlns="http://www.w3.org/2000/svg" xmlns:xlink="http://www.w3.org/1999/xlink" x="0px" y="0px"
	 viewBox="0 0 34.1 36" style="enable-background:new 0 0 34.1 36;" xml:space="preserve">
<style type="text/css">
	.st0{opacity:0.53;fill:#8354E9;}
</style>
<path id="merged_13_" class="st0" d="M31,21.8l-4.1-4.1l2-2l4.1,4.1L31,21.8z M22,19.4H4.7v-1.6H22V19.4z M4.7,9.6H22v1.6H4.7V9.6z
	 M22,15.3H4.7v-1.6H22V15.3z M26.1,26.8v1.6c0,1.8-1.5,3.3-3.3,3.3h-1.6l-1.4,1.4L15.6,29l5.5-5.5H4.7v-1.6H22v0.8l2.5-2.5V3.8
	c0-0.9-0.7-1.6-1.6-1.6H8v5.7H2.3v20.5c0,0.9,0.7,1.6,1.6,1.6h11.2l-0.6,1.6H3.9c-1.8,0-3.3-1.5-3.3-3.3V7.1l6.6-6.6h15.6
	c1.8,0,3.3,1.5,3.3,3.3v14.2l-0.2,0.2l0.2,0.2v0.2l0.1-0.1l4.1,4.1L26.1,26.8z M16.5,34.2L13.8,35l0.9-3L16.5,34.2z"/>
</svg>
