<svg xmlns="http://www.w3.org/2000/svg" width="51" height="51" viewBox="0 0 51 51">
  <defs>
    <style>
      .cls-1 {
        fill-rule: evenodd;
      }
    </style>
  </defs>
  <path id="merged" class="cls-1" d="M45,44a7,7,0,0,1-7,7H13a7,7,0,0,1-7-7c0-6,14-17,14-21V20H19a3,3,0,0,1,0-6H32a3,3,0,0,1,0,6H31v3C31,27,45,38,45,44ZM32,18a1,1,0,0,0,0-2H19a1,1,0,0,0,0,2h3v5C22,28,8,39,8,44a5,5,0,0,0,5,5H38a5,5,0,0,0,5-5c0-5-14-16-14-21V18h3ZM27,6a3,3,0,1,1,3-3A3,3,0,0,1,27,6Zm-1,4a2,2,0,1,1-2-2A2,2,0,0,1,26,10Z"/>
</svg>
