<svg xmlns="http://www.w3.org/2000/svg" width="33" height="14" viewBox="0 0 33 14">
  <defs>
    <style>
      .cls-1 {
        fill-rule: evenodd;
      }
    </style>
  </defs>
  <path id="NEW_icon_glossary" data-name="NEW icon_glossary" class="cls-1" d="M32.995,13.995H23V12.06L30.431,1.968h-7.4V0.018h9.964v1.95l-7.74,10.014h7.743v2.013ZM14,6h5.983V7.99H14V6ZM9.125,11.952h-0.1a5.434,5.434,0,0,1-1.857,1.771,7.177,7.177,0,0,1-2.7.277,4.292,4.292,0,0,1-3.129-.88A4.186,4.186,0,0,1,0,10C0,7.19,2.412,5.8,6.907,5.668c0,0,1.093-.043,2.093-0.043,0-2.514.3-3.971-2.69-3.971a9.149,9.149,0,0,0-3.9,1.1L1.727,1.108A10.064,10.064,0,0,1,6.438,0c3.276,0,4.543,1.353,4.543,4.436v9.5H9.763ZM9,7.09L7.11,7.178C3.758,7.3,2.375,8.053,2.375,10c0,1.523.968,2.228,2.627,2.228a3.372,3.372,0,0,0,2.748-.86A4.066,4.066,0,0,0,9,8.346V7.09Z"/>
</svg>
