<svg xmlns="http://www.w3.org/2000/svg" xmlns:xlink="http://www.w3.org/1999/xlink" preserveAspectRatio="xMidYMid" width="43" height="31" viewBox="0 0 43 31">
  <defs>
    <style>
      .cls-1 {
        fill: #000;
        fill-rule: evenodd;
      }
    </style>
  </defs>
  <path d="M40.989,11.689 C40.833,11.962 36.287,18.399 36.018,18.863 C35.842,19.168 35.421,19.163 35.245,18.863 C35.048,18.529 30.360,12.071 30.141,11.675 C29.980,11.386 30.158,11.006 30.524,11.006 C30.895,11.006 40.348,11.006 40.604,11.006 C40.936,11.006 41.183,11.350 40.989,11.689 ZM19.864,29.062 C19.499,29.023 7.885,15.972 7.519,15.755 C7.154,15.537 5.098,15.224 3.631,13.168 C-0.038,8.028 3.293,3.585 4.682,2.449 C5.954,1.410 6.504,2.289 6.576,2.727 C7.257,6.864 12.113,9.666 15.629,10.211 C16.841,10.399 16.359,12.360 16.078,12.810 C15.383,13.924 13.964,14.659 14.108,14.873 C14.252,15.086 24.216,23.901 24.342,24.490 C24.570,25.553 20.957,29.181 19.864,29.062 Z" class="cls-1"/>
</svg>
