<svg version="1.1" id="Layer_1" xmlns="http://www.w3.org/2000/svg" xmlns:xlink="http://www.w3.org/1999/xlink" x="0px" y="0px" viewBox="0 0 19.5 13.668">
<path d="M15.938,12.168c-0.088,0.019-12.064,1.504-12.188,1.5
	C1.5,13.668,0,11.043,0,8.418c0-2.25,1.5-4.875,3.375-4.875c0.139-0.024,3.086-0.375,6.091-0.731
	c0.415-0.049,0.448-1.536,0.872-1.998c0.264-0.287,1.49-0.773,1.823-0.813c0.475-0.056,0.497,2.432,0.924,2.382
	c1.619-0.192,2.8-0.332,2.852-0.34C17.952,1.731,19.5,4.309,19.5,7.105C19.5,9.901,17.905,11.748,15.938,12.168z M3.562,4.293
	c-1.553,0-2.895,1.931-2.895,4.312s1.341,4.312,2.895,4.312s2.894-1.931,2.894-4.312S5.116,4.293,3.562,4.293z M16.26,2.765
	c-0.345-0.009-2.265,0.3-2.887,0.342c-0.929,0.062-1.099-0.138-1.272-0.799c-0.057-0.219-0.187-1.115-0.342-1.259
	c-0.184-0.171-0.778,0.268-0.914,0.412c-0.136,0.145-0.279,0.77-0.303,1.039c-0.064,0.714-0.442,1.014-1.32,1.086
	C8.82,3.618,5.946,3.936,4.833,4C5.82,4.288,7.157,6.207,7.157,8.612c0,2.354-0.852,3.423-1.504,4.173c0.69,0,9.371-1.14,10.342-1.4
	c0.972-0.26,2.801-1.503,2.801-4.283C18.798,4.321,17.148,2.789,16.26,2.765z M17.376,8.731l-2.443,0.34l0.579-0.746l2.185-0.34
	L17.376,8.731z M12.706,9.258l0.579-0.652l1.342-0.152l-0.602,0.652L12.706,9.258z M15.876,10.606L7.854,11.59l0.579-0.746
	l8.42-0.984L15.876,10.606z M3.562,11.336c-0.984,0-1.781-1.222-1.781-2.731s0.798-2.73,1.781-2.73c0.984,0,1.781,1.222,1.781,2.73
	S4.546,11.336,3.562,11.336z M3.562,6.543c-0.518,0-1.02,0.923-1.02,2.062s0.502,2.062,1.02,2.062s1.019-0.923,1.019-2.062
	S4.08,6.543,3.562,6.543z"/>
</svg>
