<svg id="when_i_wake" data-name="when i wake" xmlns="http://www.w3.org/2000/svg" width="51" height="51" viewBox="0 0 51 51">
  <defs>
    <style>
      .cls-1 {
        fill-rule: evenodd;
      }
    </style>
  </defs>
  <path id="cast_alt" data-name="cast alt" class="cls-1" d="M20.013,55.015V40.789c0-1.406,1.4-2.083,2.546-2.546,0.718-.29,9.431-3.928,9.431-3.928V32.24a6,6,0,0,1-2.89-1.485,4.6,4.6,0,0,1-.892-1.783V27.1a2.66,2.66,0,0,1-2.239-2.758c0-1.43.367-2.036,0.825-2.291a11.147,11.147,0,0,1-.825-4.367c0-3.771.766-6.57,2.313-6.57h2.21a7.975,7.975,0,0,1,6.243-3.133c6.828,0,8.3,4.092,8.3,9.141a11.458,11.458,0,0,1-1.123,4.823c0.548,0.151,1.122.663,1.122,2.4A2.659,2.659,0,0,1,42.792,27.1v1.867a4.6,4.6,0,0,1-.892,1.783,6,6,0,0,1-2.89,1.485v2.075s8.712,3.638,9.43,3.928c1.148,0.463,2.546,1.14,2.546,2.546V55.015H20.013Zm6.2-26.544v0.667L26.235,29.3a5.941,5.941,0,0,0,.748,1.871c-1.6,1.269-4.384,2.711-7.513.984-0.032-.018-0.055-0.044-0.086-0.063-0.226.065-.374,0.1-0.374,0.1v2.076L22.927,35.9c-0.576.254-.994,0.437-1.118,0.487-1.037.418-3.8,1.53-3.8,4.4V54.967h-18V40.741c0-1.406,1.4-2.083,2.546-2.546,0.718-.289,9.431-3.928,9.431-3.928V32.192s-0.158-.036-0.4-0.1c-0.034.02-.06,0.05-0.1,0.069-4.9,2.7-8.957-2.366-8.957-2.366S4.45,29.66,6,23.271c0.008-.039.017-0.077,0.026-0.114,0.324-1.351.634-2.956,0.9-4.914h0.07a6.814,6.814,0,0,1,1.785-5.208,8.278,8.278,0,0,1,6.709-3.1,8.278,8.278,0,0,1,6.709,3.1,6.412,6.412,0,0,1,1.765,4.4c0,0.088-.006.166-0.006,0.257,0,0.109.019,0.211,0.022,0.319,0,0.079,0,.154,0,0.234h0.012a13.694,13.694,0,0,0,.508,3.385A5.577,5.577,0,0,0,24,24.347,4.543,4.543,0,0,0,26.208,28.47Z"/>
</svg>
