<svg xmlns="http://www.w3.org/2000/svg" width="51" height="51" viewBox="0 0 51 51">
  <defs>
    <style>
      .cls-1 {
        fill-rule: evenodd;
      }
    </style>
  </defs>
  <path id="Rounded_Rectangle_1_copy" data-name="Rounded Rectangle 1 copy" class="cls-1" d="M1,24H3.944c2.011,0,3.424-2,6.068-2C13,22,14,28,15.92,28,18,28,16,0,21.96,0,28,0,24,49,27.944,49,32,49,28,13,33.992,13,39,13,38,28,40,28c2.109,0,3-4,5.992-4H50a1,1,0,0,1,0,2H45.992C44,26,43,30,40,30c-4,0-3-15-6.008-15C30,15,34,51,27.944,51,22,51,26,2,21.96,2,18,2,20,30,15.985,30,13,30,12,24,10.012,24,7.349,24,5.92,26,3.9,26H1A1,1,0,0,1,1,24Z"/>
</svg>
