<svg xmlns="http://www.w3.org/2000/svg" xmlns:xlink="http://www.w3.org/1999/xlink" preserveAspectRatio="xMidYMid" width="50" height="29" viewBox="0 0 50 29">
  <defs>
    <style>
      .cls-1 {
        fill: #000;
        fill-rule: evenodd;
      }
    </style>
  </defs>
  <path d="M48.989,10.689 C48.833,10.962 44.287,17.399 44.018,17.863 C43.842,18.168 43.421,18.163 43.245,17.863 C43.048,17.529 38.360,11.071 38.141,10.675 C37.980,10.386 38.158,10.006 38.524,10.006 C38.895,10.006 48.348,10.006 48.604,10.006 C48.936,10.006 49.183,10.350 48.989,10.689 ZM26.947,25.686 C26.286,26.827 25.595,28.004 23.312,28.004 C20.312,28.004 15.074,28.004 12.079,28.004 C9.807,28.004 9.148,26.881 8.505,25.773 C7.052,23.268 4.732,19.279 3.229,16.790 C2.474,15.541 2.525,13.469 3.241,12.254 C4.717,9.755 7.085,5.768 8.495,3.248 C9.105,2.158 9.807,1.000 12.042,1.000 C15.033,1.000 20.306,1.000 23.318,1.000 C25.595,1.000 26.230,2.143 26.942,3.309 C28.427,5.740 30.739,9.589 32.092,12.137 C32.781,13.435 32.801,15.646 32.197,16.749 C30.819,19.268 28.410,23.161 26.947,25.686 ZM17.440,7.929 C13.808,7.929 10.864,10.874 10.864,14.506 C10.864,18.138 13.808,21.083 17.440,21.083 C21.073,21.083 24.017,18.138 24.017,14.506 C24.017,10.874 21.073,7.929 17.440,7.929 Z" class="cls-1"/>
</svg>
