<svg xmlns="http://www.w3.org/2000/svg" xmlns:xlink="http://www.w3.org/1999/xlink" preserveAspectRatio="xMidYMid" width="58" height="58" viewBox="0 0 58 58">
  <defs>
    
  </defs>
  <path d="M29.000,58.000 C12.984,58.000 0.000,45.016 0.000,29.000 C0.000,12.984 12.984,-0.000 29.000,-0.000 C45.016,-0.000 58.000,12.984 58.000,29.000 C58.000,45.016 45.016,58.000 29.000,58.000 ZM30.500,12.000 C30.500,12.000 15.500,12.000 15.500,12.000 C14.672,12.000 14.000,12.672 14.000,13.500 C14.000,14.328 14.672,15.000 15.500,15.000 C15.500,15.000 30.500,15.000 30.500,15.000 C31.328,15.000 32.000,14.328 32.000,13.500 C32.000,12.672 31.328,12.000 30.500,12.000 ZM42.500,22.000 C42.500,22.000 15.500,22.000 15.500,22.000 C14.672,22.000 14.000,22.672 14.000,23.500 C14.000,24.328 14.672,25.000 15.500,25.000 C15.500,25.000 42.500,25.000 42.500,25.000 C43.328,25.000 44.000,24.328 44.000,23.500 C44.000,22.672 43.328,22.000 42.500,22.000 ZM42.500,32.000 C42.500,32.000 15.500,32.000 15.500,32.000 C14.672,32.000 14.000,32.671 14.000,33.500 C14.000,34.328 14.672,35.000 15.500,35.000 C15.500,35.000 42.500,35.000 42.500,35.000 C43.328,35.000 44.000,34.328 44.000,33.500 C44.000,32.671 43.328,32.000 42.500,32.000 ZM42.500,42.000 C42.500,42.000 15.500,42.000 15.500,42.000 C14.672,42.000 14.000,42.672 14.000,43.500 C14.000,44.328 14.672,45.000 15.500,45.000 C15.500,45.000 42.500,45.000 42.500,45.000 C43.328,45.000 44.000,44.328 44.000,43.500 C44.000,42.672 43.328,42.000 42.500,42.000 Z" id="path-1" class="cls-2" fill-rule="evenodd"/>
</svg>
