<svg xmlns="http://www.w3.org/2000/svg" width="51" height="51" viewBox="0 0 51 51">
  <defs>
    <style>
      .cls-1 {
        fill-rule: evenodd;
      }
    </style>
  </defs>
  <path id="merged" class="cls-1" d="M46,28a2,2,0,0,1,2,2v2a2,2,0,0,1-2,2H20.743l-7.617,7.617a2,2,0,0,1-2.828,0L8.883,40.2a2,2,0,0,1,0-2.828L12.257,34H5a2,2,0,0,1-2-2V30a2,2,0,0,1,2-2H18.257l6-6H5a2,2,0,0,1-2-2V18a2,2,0,0,1,2-2H30.257l7.617-7.617a2,2,0,0,1,2.828,0L42.117,9.8a2,2,0,0,1,0,2.828L38.743,16H46a2,2,0,0,1,2,2v2a2,2,0,0,1-2,2H32.743l-6,6H46Z"/>
</svg>
