<svg xmlns="http://www.w3.org/2000/svg" xmlns:xlink="http://www.w3.org/1999/xlink" preserveAspectRatio="xMidYMid" width="29" height="26" viewBox="0 0 29 26">
  <defs>
    <style>
      .cls-1 {
        fill: #010101;
        fill-rule: evenodd;
      }
    </style>
  </defs>
  <path d="M8.000,26.000 L8.000,16.000 L29.000,16.000 L29.000,26.000 L8.000,26.000 ZM8.000,0.000 L29.000,0.000 L29.000,11.000 L8.000,11.000 L8.000,0.000 ZM0.896,16.984 C0.451,17.238 0.002,16.915 0.002,16.480 C0.002,16.144 0.002,11.003 0.002,10.517 C0.002,10.038 0.499,9.805 0.878,10.016 C1.395,10.303 5.543,12.822 5.981,13.080 C6.374,13.312 6.380,13.863 5.981,14.094 C5.374,14.445 1.252,16.780 0.896,16.984 Z" class="cls-1"/>
</svg>
