<svg id="sex" xmlns="http://www.w3.org/2000/svg" width="51" height="51" viewBox="0 0 51 51">
  <defs>
    <style>
      .cls-1 {
        fill-rule: evenodd;
      }
    </style>
  </defs>
  <path id="horrified" class="cls-1" d="M40.187,41.246c-0.307,3.022.4,7,.268,8.444-0.159,1.71-2.147.875-1.71-1.273a22.739,22.739,0,0,0-.2-6.179c-1.622.807-2.605,0.294-3.5-1.422a26.95,26.95,0,0,1-2.215-6.371c-0.371-1.916-.214-3.366-1.8-4.877-1.337-1.275-2.4.072-2.982,1.628a0.115,0.115,0,0,0-.065.007c-0.636.521-4.956,2.458-6.68,0.747a2.261,2.261,0,0,0-.3-0.248c-0.106-.3-0.214-0.584-0.313-0.854-0.545-1.483-4-5.5-5.592-7.234-0.925-1.012-3.121-3.389-5.048-5.619-0.1,2.309-.305,4.432-0.383,5.385-0.159,1.948-2.227,1.551-1.63-.2,0.479-1.406.668-3.458,0.4-7.109a20.926,20.926,0,0,1-1.544-2.09C5.614,11.854,5.756,9.5,8.268,9.617S14.9,16.54,17.6,20.09s3.391,2.68,5.723,1.466,3.277-1.479,5.271.162,2.069,0.689,5.087-.084,5.325,2.015,6.434,4.8A26.257,26.257,0,0,1,41.7,36.346C41.734,39.26,41.155,40.458,40.187,41.246ZM37.011,17.9c-0.055.77-.9,2.6-1.743,1.25-0.537-.857-0.619-1.9.233-2.288A1.037,1.037,0,0,1,37.011,17.9Zm-0.7-2.431c-0.844-.045-1.451-0.926-1.461-2.2s-0.9-3.433-.588-4.8,1.1-2.426,2.215-2.094,1.944,1.325,1.634,3.794S38.1,15.568,36.315,15.473Zm-6.674,2.564a2.338,2.338,0,0,1-3.262-1.009c-0.444-.852-0.758-2.056-0.1-4.566s-0.233-3.84-1.226-7.114S26.15,1.1,27.075.961A2.257,2.257,0,0,1,29.448,2.29c0.537,1.031.461,3.95,0.506,5.95s-0.325,3.589.5,6.154S30.336,17.675,29.641,18.037Zm-7.348.436c-2.663,1.387-3.71-1.8-3.907-3.1a3.644,3.644,0,0,0-1.065-2.552c-0.689-.61-1.836-2.977-3.195-5.86s-1.012-3.748.154-4.355,2.178,0.063,2.925,1.5,1.5,3.065,2.4,4.622,0.86,2.745,1.385,3.753,0.845,0.529,1.885,2.524S22.983,18.113,22.293,18.472ZM8.677,33.659a5.087,5.087,0,0,1,5.047.278,6.418,6.418,0,0,1,2.324,3.093c0.169,0.653-.6,2.452-3.113,1.793-1.3-.341-2.586-0.622-3.628-0.954A8.922,8.922,0,0,0,9.169,43.7c0.6,1.4-.437,1.825-1.272,1.091s-1.034-3.806-.875-4.629a11.353,11.353,0,0,0,.063-3.748C6.741,35.607,6.973,34.546,8.677,33.659Zm12.557,1.678c1.953-.25,4.644-0.727,6.539.372,0.072,0.042.127,0.057,0.193,0.09,0.534,0.923,1.292,1.029,2.656,1.963,1.418,0.971,1.51.526,2.818,3.037s-0.929,4.53-2.139,5.16a6.156,6.156,0,0,1-4.832.464,9,9,0,0,1-5.658-4.406c-1.144-2.2-1.35-3.686-.027-5.743A4.417,4.417,0,0,0,21.235,35.337Z"/>
</svg>
