<svg id="D_copy" data-name="D copy" xmlns="http://www.w3.org/2000/svg" width="100" height="100" viewBox="0 0 100 100">
  <metadata><?xpacket begin="﻿" id="W5M0MpCehiHzreSzNTczkc9d"?>
<x:xmpmeta xmlns:x="adobe:ns:meta/" x:xmptk="Adobe XMP Core 5.6-c138 79.159824, 2016/09/14-01:09:01        ">
   <rdf:RDF xmlns:rdf="http://www.w3.org/1999/02/22-rdf-syntax-ns#">
      <rdf:Description rdf:about=""/>
   </rdf:RDF>
</x:xmpmeta>
                                                                                                    
                                                                                                    
                                                                                                    
                                                                                                    
                                                                                                    
                                                                                                    
                                                                                                    
                                                                                                    
                                                                                                    
                                                                                                    
                                                                                                    
                                                                                                    
                                                                                                    
                                                                                                    
                                                                                                    
                                                                                                    
                                                                                                    
                                                                                                    
                                                                                                    
                                                                                                    
                           
<?xpacket end="w"?></metadata>
<defs>
    <style>
      .cls-1 {
        fill: none;
        stroke: #000;
        stroke-linecap: round;
        stroke-linejoin: round;
        stroke-width: 4px;
      }

      .cls-1, .cls-2 {
        fill-rule: evenodd;
      }
    </style>
  </defs>
  <path class="cls-1" d="M81,84.475s9.289-8.394,9.819-13.695c0.667-6.668-4.393-27.131-5.168-32.816S83.313,21.091,77.385,22.2a9.118,9.118,0,0,0-7.65,10.372c0.8,4.389,2.223,10.558,2.223,10.558S44.052,13.158,40.692,11.091s-7.823-.742-9.3,1.034c-1.938,2.326-.517,5.685-0.517,5.685s-5.426-6.072-11.111-1.033c-4.111,3.644-.775,9.044-0.775,9.044s-2.479-1.179-5.426,2.971C9.577,34.4,16.4,41.324,16.4,41.324s-2.2.129-4.78,2.713-2.2,7.364,1.421,11.24S43.018,88.093,52.579,91.452,74.025,95.07,81,84.475Z" transform="translate(-0.422 -1.766)"/>
  <path id="Ellipse_2_copy_2" data-name="Ellipse 2 copy 2" class="cls-2" d="M59.944,44.479A19.613,19.613,0,1,1,40.3,64.092,19.628,19.628,0,0,1,59.944,44.479Zm-0.007,2.8A16.844,16.844,0,1,1,43.094,64.125,16.844,16.844,0,0,1,59.938,47.281ZM59.953,61.3a2.8,2.8,0,1,1-2.815,2.8A2.8,2.8,0,0,1,59.953,61.3Z" transform="translate(-0.422 -1.766)"/>
  <path class="cls-2" d="M55.75,50.5l2.75-.417,2.907,15.426-3.545.477Zm12.232,8.855,0.9,1.9L60.811,65.91l-1.537-3.23Z" transform="translate(-0.422 -1.766)"/>
  <path class="cls-2" d="M31.667,15.5l21.167,22s-1,2.833-2.333,2.333-22.667-23-22.667-23Zm-13,7.5s21.667,22.833,22.5,23.667-1,3.167-2.167,2.5S17.333,26.5,17.333,26.5ZM14.333,36.167l20,20.5s-1.667,3-2.5,2.333S15.5,42.333,15.5,42.333Z" transform="translate(-0.422 -1.766)"/>
</svg>
