<svg xmlns="http://www.w3.org/2000/svg" xmlns:xlink="http://www.w3.org/1999/xlink" preserveAspectRatio="xMidYMid" width="468" height="456" viewBox="0 0 468 456">
  <defs>
    <style>
      .cls-1 {
        fill: #000;
        fill-rule: evenodd;
      }
    </style>
  </defs>
  <path d="M459.000,182.000 L424.000,182.000 C421.791,182.000 420.000,180.209 420.000,178.000 L407.494,144.000 L345.506,144.000 L333.000,178.000 C333.000,180.209 331.209,182.000 329.000,182.000 L294.000,182.000 C291.791,182.000 290.000,180.209 290.000,178.000 L354.000,4.000 C354.000,1.791 355.791,0.000 358.000,0.000 L360.000,0.000 L393.000,0.000 L395.000,0.000 C397.209,0.000 399.000,1.791 399.000,4.000 L463.000,178.000 C463.000,180.209 461.209,182.000 459.000,182.000 ZM376.500,59.734 L360.586,103.000 L392.414,103.000 L376.500,59.734 ZM140.650,452.059 C138.075,454.631 129.901,454.631 127.326,452.059 L3.447,328.322 C-0.053,324.822 -0.486,318.008 3.447,318.008 L55.000,318.008 L55.000,4.000 C55.000,1.791 56.791,0.000 59.000,0.000 L209.000,0.000 C211.209,0.000 213.000,1.791 213.000,4.000 L213.000,318.008 L264.529,318.008 C268.499,318.008 268.601,324.250 264.529,328.322 L140.650,452.059 ZM379.845,314.000 L312.561,314.000 C310.278,314.000 308.428,312.209 308.428,310.000 L308.428,277.000 C308.428,274.791 310.278,273.000 312.561,273.000 L443.768,273.000 C446.050,273.000 447.901,274.791 447.901,277.000 L447.901,300.000 C447.901,302.258 448.127,305.381 447.901,307.923 L447.901,309.000 C447.901,309.211 447.796,309.428 447.644,309.646 C447.459,310.474 447.187,311.172 446.785,311.648 L361.924,412.000 L447.000,412.000 C449.209,412.000 451.000,413.791 451.000,416.000 L451.000,449.000 C451.000,451.209 449.209,453.000 447.000,453.000 L302.097,453.000 C299.888,453.000 298.097,451.209 298.097,449.000 L298.097,441.000 L298.097,419.000 C298.097,415.534 297.500,411.378 299.216,409.348 L379.845,314.000 Z" class="cls-1"/>
</svg>
