<svg xmlns="http://www.w3.org/2000/svg" width="51" height="51" viewBox="0 0 51 51">
  <defs>
    <style>
      .cls-1 {
        fill-rule: evenodd;
      }
    </style>
  </defs>
  <path id="merged" class="cls-1" d="M43.156,15.68c-2.283,2.781-7.108,4.417-14.975,10.9l3.557,3.557c2.982-1.712,7.164-1.03,10.075,1.881,3.394,3.394,3.769,8.521.838,11.452s-8.058,2.556-11.452-.838c-2.929-2.929-3.6-7.146-1.851-10.131-1.342-1.325-2.629-2.541-3.843-3.625C24.281,29.972,23,31.164,21.644,32.5c1.752,2.985,1.078,7.2-1.851,10.131-3.394,3.394-8.521,3.769-11.452.838s-2.556-8.058.838-11.452c2.911-2.911,7.094-3.593,10.075-1.881l3.561-3.561c-0.075-.061-0.144-0.116-0.219-0.176l2.7-2.7,0.2,0.2L44.062,5.332S46.35,11.79,43.156,15.68ZM32.318,41.517c2.777,2.777,6.9,3.152,9.217.838s1.939-6.44-.838-9.217-6.9-3.152-9.217-.838S29.541,38.74,32.318,41.517ZM19.514,32.3c-2.314-2.314-6.44-1.939-9.217.838s-3.152,6.9-.838,9.217,6.441,1.939,9.217-.838S21.828,34.613,19.514,32.3Zm5.934-7.662a1.58,1.58,0,1,0,1.58,1.58A1.58,1.58,0,0,0,25.447,24.638Zm-4.771.24c-6.61-5.091-10.771-6.679-12.839-9.2C4.644,11.79,6.932,5.332,6.932,5.332L23.577,21.977Z"/>
</svg>
