<?xml version="1.0" encoding="utf-8"?>
<!-- Generator: Adobe Illustrator 21.1.0, SVG Export Plug-In . SVG Version: 6.00 Build 0)  -->
<svg version="1.1" id="Layer_1" xmlns="http://www.w3.org/2000/svg" xmlns:xlink="http://www.w3.org/1999/xlink" x="0px" y="0px"
	 viewBox="0 0 33 33" enableBackground="new 0 0 33 33" xml:space="preserve">
<g>
	<path fill="#666666" d="M2.4,32.2c1-7.7,1.9-15.3,2.9-23c1.6,0,3.2,0,4.8,0c0-1,0-1.9,0-2.8c0.2-2.9,2.5-5.3,5.5-5.5
		c2.9-0.2,5.6,1.9,6.2,4.7c0.1,0.4,0.1,0.9,0.1,1.3c0,0.7,0,1.5,0,2.2c1.6,0,3.2,0,4.8,0c0.1,0.7,0.2,1.4,0.3,2.1
		c0.3,2.4,0.6,4.8,0.9,7.1c0,0.3,0.1,0.6,0.4,0.8c2.3,1.9,3.2,5,2.3,7.8c-0.9,2.8-3.3,4.8-6.3,5.1c-0.4,0-0.8,0.1-1.2,0.1
		c-6.7,0-13.3,0-20,0C2.9,32.2,2.7,32.2,2.4,32.2z M27,18.3c0-0.1,0-0.1,0-0.1c-0.3-2.7-0.6-5.3-1-8c0-0.1-0.2-0.3-0.4-0.3
		c-0.6,0-1.3,0-1.9,0c-0.6,0-1.2,0-1.8,0c0,1.4,0,2.8,0,4.1c-0.3,0-0.5,0-0.8,0c0-1.4,0-2.8,0-4.1c-3.5,0-6.9,0-10.3,0
		c0,1.4,0,2.7,0,4.1c-0.3,0-0.5,0-0.8,0c0-1.4,0-2.7,0-4.1c-1.4,0-2.7,0-4.1,0C5,17.1,4.2,24.2,3.3,31.3c5.7,0,11.3,0,17,0
		c-3.8-2.2-4.8-6.4-3.2-9.7C18.5,18.5,22.7,16.3,27,18.3z M23.7,31.4c3.7,0,6.5-3,6.5-6.7c0-3.5-3-6.4-6.5-6.4c-3.6,0-6.5,3-6.5,6.6
		C17.1,28.5,20.1,31.4,23.7,31.4z M21.2,9.2c0-0.9,0-1.8,0-2.7c-0.1-2.4-1.9-4.4-4.2-4.8c-2.4-0.4-4.7,0.8-5.7,2.9
		c-0.7,1.5-0.4,3-0.5,4.5C14.3,9.2,17.7,9.2,21.2,9.2z"/>
	<path fill="#666666" d="M24,24.5c1,0,1.9,0,2.8,0c0,0.2,0,0.4,0,0.7c-0.9,0-1.8,0-2.8,0c0,0.8,0,1.5,0,2.2c0,0.6,0,0.7-0.7,0.5
		c0-0.9,0-1.8,0-2.7c-0.9,0-1.8,0-2.7,0c0-0.3,0-0.5,0-0.7c0.9,0,1.8,0,2.7,0c0-0.9,0-1.8,0-2.7c0.3,0,0.5,0,0.8,0
		C24,22.6,24,23.5,24,24.5z"/>
</g>
</svg>
