<svg xmlns="http://www.w3.org/2000/svg" width="51" height="51" viewBox="0 0 51 51">
  <defs>
    <style>
      .cls-1 {
        fill-rule: evenodd;
      }
    </style>
  </defs>
  <path id="stacked_daggers" data-name="stacked daggers" class="cls-1" d="M49.563,8.477l-9.9,9.9,2.828,2.829L41.077,22.62,38.956,20.5l-4.971,4.971L49.379,40.862C51.331,42.815,51,51,51,51s-8.154.3-10.107-1.653L25.5,33.954,10.107,49.347C8.154,51.3,0,51,0,51s-0.331-8.185,1.621-10.138L17.015,25.469,12.044,20.5,9.923,22.62,8.509,21.205l2.828-2.829-9.9-9.9A5,5,0,0,1,8.509,1.406l9.9,9.9,2.828-2.828,1.414,1.414-2.121,2.121L25.5,16.984l4.971-4.971L28.349,9.892l1.414-1.414,2.828,2.828,9.9-9.9A5,5,0,0,1,49.563,8.477ZM3.036,42.276C1.864,43.448,2,49,2,49s5.521,0.1,6.692-1.067L24.086,32.54l-5.657-5.657ZM7.094,2.82a2.992,2.992,0,0,0-4.769,3.5L7.762,3.488ZM9.176,4.9L3.6,7.81,5.72,9.931,11.3,7.024Zm3.536,3.536L7.134,11.345l2.121,2.121,5.578-2.907Zm3.535,3.535-5.578,2.907,2.082,2.082,4.243-4.243Zm2.868,1.454-5.657,5.657L42.308,47.933C43.479,49.1,49,49,49,49s0.136-5.552-1.036-6.724Zm12.77,0L26.914,18.4l5.657,5.657,4.971-4.971Zm2.121-.707,4.243,4.243,2.082-2.082-5.578-2.907Zm2.161-2.161,5.578,2.907,2.121-2.121L38.288,8.438ZM41.824,4.9L39.7,7.024l5.578,2.907L47.4,7.81ZM48.148,2.82a3,3,0,0,0-4.243,0l-0.668.668,5.437,2.834A2.99,2.99,0,0,0,48.148,2.82Z"/>
</svg>
