<svg xmlns="http://www.w3.org/2000/svg" xmlns:xlink="http://www.w3.org/1999/xlink" preserveAspectRatio="xMidYMid" width="36" height="36" viewBox="0 0 36 36">
  <defs>
    <style>
      .cls-1 {
        fill: #000;
        fill-rule: evenodd;
      }
    </style>
  </defs>
  <path d="M24.955,16.045 C26.443,14.557 31.498,9.502 33.000,8.000 C35.000,6.000 34.426,3.426 33.485,2.484 C32.543,1.543 30.000,1.000 28.000,3.000 C26.501,4.499 21.458,9.542 19.968,11.032 C19.000,12.000 17.000,12.000 16.027,11.027 C14.543,9.543 9.495,4.495 8.000,3.000 C6.000,1.000 3.506,1.494 2.518,2.482 C1.530,3.470 1.000,6.000 3.000,8.000 C4.000,9.000 9.529,14.529 11.012,16.012 C12.000,17.000 12.004,19.004 10.978,20.022 C9.478,21.510 4.484,26.516 3.000,28.000 C1.000,30.000 1.520,32.520 2.497,33.497 C3.475,34.475 6.000,35.000 8.000,33.000 C9.480,31.520 14.469,26.532 15.965,25.035 C17.000,24.000 19.000,24.000 19.970,24.970 C21.465,26.465 26.501,31.501 28.000,33.000 C30.000,35.000 32.578,34.422 33.514,33.486 C34.450,32.550 35.000,30.000 33.012,28.012 C31.507,26.508 26.498,21.491 25.005,20.005 C23.998,19.002 24.000,17.000 24.955,16.045 Z" class="cls-1"/>
</svg>
