<svg xmlns="http://www.w3.org/2000/svg" xmlns:xlink="http://www.w3.org/1999/xlink" preserveAspectRatio="xMidYMid" width="58" height="58" viewBox="0 0 58 58">
  <defs>
    <style>

      .cls-2 {
        fill: #000000;
      }
    </style>
  </defs>
  <path d="M29.000,58.000 C12.984,58.000 -0.000,45.016 -0.000,29.000 C-0.000,12.984 12.984,-0.000 29.000,-0.000 C45.016,-0.000 58.000,12.984 58.000,29.000 C58.000,45.016 45.016,58.000 29.000,58.000 ZM29.000,55.000 C32.866,55.000 40.035,54.089 46.281,48.375 C46.281,43.404 39.134,38.000 29.000,38.000 C18.866,38.000 11.687,43.342 11.687,48.312 C18.165,54.248 25.134,55.000 29.000,55.000 ZM36.000,24.000 C36.000,19.029 32.866,15.000 29.000,15.000 C25.134,15.000 22.000,19.029 22.000,24.000 C22.000,28.971 25.134,33.000 29.000,33.000 C32.866,33.000 36.000,28.971 36.000,24.000 ZM29.000,3.000 C14.641,3.000 3.000,14.641 3.000,29.000 C3.000,35.377 5.304,41.210 9.113,45.733 C10.045,40.413 16.772,36.138 25.436,35.201 C21.675,33.476 19.000,29.118 19.000,24.000 C19.000,17.373 23.477,12.000 29.000,12.000 C34.523,12.000 39.000,17.373 39.000,24.000 C39.000,29.118 36.325,33.476 32.564,35.201 C41.228,36.138 47.955,40.412 48.886,45.732 C52.696,41.209 55.000,35.377 55.000,29.000 C55.000,14.641 43.359,3.000 29.000,3.000 Z" id="path-1" class="cls-2" fill-rule="evenodd"/>
</svg>
