<svg xmlns="http://www.w3.org/2000/svg" width="27" height="26" viewBox="0 0 27 26">
  <defs>
    <style>
      .cls-1 {
        fill-rule: evenodd;
      }
    </style>
  </defs>
  <path id="Strikethrough_MERGED" data-name="Strikethrough MERGED" class="cls-1" d="M23,13H0V11H27v2H23ZM18.719,4A5.344,5.344,0,0,0,14,2C11,2,8,4,8,7a3,3,0,0,0,.711,2H6.234a6.754,6.754,0,0,1-.3-2C5.937,2.32,9.773-.031,14-0.031S19.271,1.574,20.719,3C21.063,3.339,19.386,4.657,18.719,4ZM9,22c1.053,1.07,2,2,5,2a5.764,5.764,0,0,0,6-6c0-1.593-1.357-2.389-3.224-3H21.06A4.891,4.891,0,0,1,22,18a7.751,7.751,0,0,1-8,8c-4.287,0-6.272-1.912-7.093-3.094C6.316,22.058,8.342,21.332,9,22Z"/>
</svg>
