<svg xmlns="http://www.w3.org/2000/svg" width="51" height="51" viewBox="0 0 51 51">
  <defs>
    <style>
      .cls-1 {
        fill-rule: evenodd;
      }
    </style>
  </defs>
  <path id="taxidermy" class="cls-1" d="M43.053,18.788c-1.9,0-3.52.065-4.91,0.169a14.134,14.134,0,0,0,2.178.533l0.631,0.072L40.988,20.2A29.135,29.135,0,0,1,37.37,35.112,29.378,29.378,0,0,1,25.762,46.968l-0.262.1-0.262-.1A29.378,29.378,0,0,1,13.629,35.112,29.133,29.133,0,0,1,10.013,20.2l0.033-.6,0.6-.1a21.01,21.01,0,0,0,2.1-.547c-1.365-.1-2.945-0.16-4.8-0.16-5.179,0-8.149-4.41-8.149-12.1a1.755,1.755,0,0,1,3.51,0c0,3.207.6,8.588,4.639,8.588,0.269,0,.557,0,0.848.005a16.3,16.3,0,0,1-1.224-6.9,1.755,1.755,0,1,1,3.51,0c0,3.054.508,6.767,2.928,7.113,0.049,0.007.086,0.037,0.133,0.047,0.447,0.042.889,0.1,1.329,0.15a16.411,16.411,0,0,1-.5-4.794V10.67a1.755,1.755,0,1,1,3.51,0V10.9c0,2.2.091,3.813,0.932,4.964a48.553,48.553,0,0,0,5.6-3.886l0.5-.432L26.006,12a40.53,40.53,0,0,0,5.58,3.877c0.844-1.151.937-2.767,0.936-4.97V10.67a1.755,1.755,0,1,1,3.51,0V10.9a16.411,16.411,0,0,1-.5,4.794c0.44-.055.882-0.108,1.329-0.15,0.047-.011.085-0.04,0.133-0.047,2.42-.347,2.928-4.059,2.928-7.113a1.755,1.755,0,0,1,3.51,0,16.3,16.3,0,0,1-1.224,6.9c0.291,0,.579-0.005.848-0.005,4.036,0,4.639-5.381,4.639-8.588a1.755,1.755,0,0,1,3.51,0C51.2,14.379,48.232,18.788,43.053,18.788ZM25.492,14.321a47.817,47.817,0,0,1-4.169,2.916,5.327,5.327,0,0,1,1.525,1.191,7.984,7.984,0,0,1,5.3.008,5.3,5.3,0,0,1,1.52-1.193A40.756,40.756,0,0,1,25.492,14.321Zm1.855,6.015a5.637,5.637,0,0,0-3.694-.008c0.011,0.113.029,0.222,0.029,0.341a1.755,1.755,0,0,1-1.755,1.755,1.7,1.7,0,0,1-.452-0.09A17.653,17.653,0,0,0,20.117,26.4L20,26.873c-0.351,1.444.392,2.023,1.252,2.692,0.108,0.084.212,0.166,0.311,0.246A7.539,7.539,0,0,1,23.485,33.1c0.236,0.652.545,2.51,0.741,2.879h2.519c0.2-.369.505-2.227,0.741-2.879a7.5,7.5,0,0,1,1.948-3.287c0.1-.081.2-0.163,0.311-0.247,0.86-.67,1.6-1.248,1.252-2.693L30.883,26.4a17.362,17.362,0,0,0-1.366-4.06,1.694,1.694,0,0,1-.443.088,1.755,1.755,0,0,1-1.755-1.755C27.319,20.553,27.337,20.447,27.347,20.336Zm6.448-.8a13.005,13.005,0,0,0-1.784.5c-0.084.046-.16,0.1-0.248,0.142a1.752,1.752,0,0,1-.408.145,1.483,1.483,0,0,0-.523.389,17.62,17.62,0,0,1,1.9,5.257l0.123,0.509c0.605,2.493-.89,3.657-1.879,4.428-0.106.082-.209,0.163-0.306,0.242a22.466,22.466,0,0,0-1.625,3.868c-0.768,2.127-1.086,3.007-1.9,3.007H23.828c-0.816,0-1.134-1.88-1.9-4.007a10.862,10.862,0,0,0-1.594-2.869c-0.1-.079-0.2-0.16-0.306-0.242-0.989-.771-2.485-1.935-1.879-4.428l0.123-.509A17.783,17.783,0,0,1,20.16,20.7a1.51,1.51,0,0,0-.514-0.38,1.753,1.753,0,0,1-.41-0.145c-0.087-.044-0.161-0.094-0.244-0.139a12.961,12.961,0,0,0-1.8-.5,26.88,26.88,0,0,1-5.2,1.743A29.626,29.626,0,0,0,15.5,34.133a26.644,26.644,0,0,0,10,10.524,26.644,26.644,0,0,0,10-10.524,29.544,29.544,0,0,0,3.512-12.84A23.045,23.045,0,0,1,33.795,19.532ZM23.015,39.974h4.97v2.012h-4.97V39.974Z"/>
</svg>
