<svg xmlns="http://www.w3.org/2000/svg" xmlns:xlink="http://www.w3.org/1999/xlink" preserveAspectRatio="xMidYMid" width="22" height="18" viewBox="0 0 22 18">
  <defs>
    <style>
      .cls-1 {
        fill: #000;
      }

      .cls-1, .cls-2 {
        fill-rule: evenodd;
      }

      .cls-2 {
        fill: #fff;
      }
    </style>
  </defs>
  <path d="M6.000,2.000 L16.000,2.000 C18.209,2.000 20.000,3.791 20.000,6.000 L20.000,12.000 C20.000,13.167 20.000,16.000 15.000,16.000 C12.000,16.000 7.000,16.000 7.000,16.000 C4.000,16.000 2.000,14.209 2.000,12.000 L2.000,6.000 C2.000,3.791 3.791,2.000 6.000,2.000 Z" class="cls-1"/>
  <path d="M18.000,8.000 L18.000,12.000 C18.000,13.105 17.105,14.000 16.000,14.000 L6.000,14.000 C4.895,14.000 4.000,13.105 4.000,12.000 L4.000,8.000 C5.000,8.000 17.000,8.000 18.000,8.000 Z" class="cls-2"/>
</svg>
