<svg xmlns="http://www.w3.org/2000/svg" width="51" height="51" viewBox="0 0 51 51">
  <defs>
    <style>
      .cls-1 {
        fill-rule: evenodd;
      }
    </style>
  </defs>
  <path id="icon_reader_feedback_puzzle.svg_copy_7" data-name="icon_reader_feedback_puzzle.svg copy 7" class="cls-1" d="M50.234,10.472c-1.781,1.781-5,.616-6.093,1.711-1.48,1.48-2.122,4.484,4.45,11.056l2.191,2.191-2.67,2.67C41.5,34.714,39.15,33.583,37.6,32.036c-1.1-1.1-.93-3.312-2.712-5.093-1.761-1.761-4.729-.692-6.544,1.122s-3.075,4.975-1.314,6.736c1.781,1.781,4,1.616,5.093,2.712,1.48,1.48,2.585,3.987-3.731,10.3l-2.807,2.807L23.4,48.433c-6.572-6.572-9.576-5.93-11.056-4.45-1.1,1.1.07,4.312-1.711,6.093-1.761,1.761-5.716-.294-7.53-2.109S-0.989,41.978.772,40.217c1.781-1.781,5-.616,6.093-1.711,1.547-1.547,2.293-4.313-4.279-10.885L0.4,25.43l2.841-2.841c6.316-6.316,8.858-5.245,10.337-3.765,1.1,1.1.93,3.312,2.711,5.093,1.761,1.761,4.887.535,6.7-1.28s2.918-4.818,1.157-6.578c-1.781-1.781-4-1.616-5.093-2.711C17.5,11.8,15.285,10.54,22.953,2.873l2.636-2.636,2.191,2.191C34.351,9,37.22,8.356,38.767,6.809c1.1-1.1-.07-4.312,1.712-6.093,1.761-1.761,5.832.41,7.647,2.225S51.994,8.711,50.234,10.472ZM46.474,4.387C44.084,1.915,42,2,41.406,3.406,40.856,4.709,42,7,40,9c-1.361,1.361-6.709,1.969-12.493-3.815L25.58,3.257,23.26,5.577C16.513,12.324,20,13,22,13s5,2,5,5a8.069,8.069,0,0,1-2.5,5.51C22.99,25.029,21,27,18,27s-5-3.637-5-5c0-2-1.532-4.631-7.09.927l-2.5,2.5,1.928,1.928C11.121,33.139,10.361,38.639,9,40c-2,2-4.317.867-5.594,1.406C2,42,2.03,43.97,4.438,46.406,7,49,9,49,9.438,47.469,9.8,46.187,9,44,11,42c1.3-1.3,6.868-2.114,12.652,3.669L25.58,47.6l2.47-2.47C33.608,39.569,31,38,29,38s-5-2.783-5-5c0-3,1.778-4.934,3.375-6.531A8.04,8.04,0,0,1,33,24c3,0,5,3,5,5s1.58,4.6,7.4-1.223l2.349-2.35L45.822,23.5C40.038,17.716,40.7,12.3,42,11c2-2,4.069-1.238,5.438-1.594C49,9,49,7,46.474,4.387Z"/>
</svg>
