<svg xmlns="http://www.w3.org/2000/svg" width="51" height="51" viewBox="0 0 51 51">
  <defs>
    <style>
      .cls-1 {
        fill-rule: evenodd;
      }
    </style>
  </defs>
  <path id="merged" class="cls-1" d="M25.938,33a16.5,16.5,0,1,1,16.5-16.5A16.5,16.5,0,0,1,25.938,33Zm0-31a14.5,14.5,0,1,0,14.5,14.5A14.5,14.5,0,0,0,25.938,2ZM23.484,41a1.308,1.308,0,0,0,1.5-1.469c0-1.048,0-6.529,0-6.529h2s-0.008,5.49,0,6.539A1.322,1.322,0,0,0,28.484,41h6.5v2s-6-.007-6.563,0a1.313,1.313,0,0,0-1.445,1.481c-0.008,1.055,0,6.541,0,6.541l-2,0s0-5.507,0-6.563A1.313,1.313,0,0,0,23.479,43c-1.058,0-6.535,0-6.535,0l0.04-2S22.428,40.983,23.484,41Z"/>
</svg>
