<svg id="questionMark" xmlns="http://www.w3.org/2000/svg" width="51" height="51" viewBox="0 0 51 51">
  <defs>
    <style>
      .cls-1 {
        fill-rule: evenodd;
      }
    </style>
  </defs>
  <path id="_" data-name="?" class="cls-1" d="M26.2,33.919V32.645a6.576,6.576,0,0,1,.892-3.651,16.668,16.668,0,0,1,3.523-3.424,30.369,30.369,0,0,0,4.344-3.905,10.85,10.85,0,0,0,1.882-3.155,10.69,10.69,0,0,0,.623-3.778,9.242,9.242,0,0,0-3.255-7.5q-3.255-2.717-8.8-2.717A24.914,24.914,0,0,0,13.1,7.712l2.377,4.981a35.374,35.374,0,0,1,4.472-1.84,15.661,15.661,0,0,1,4.981-.764,7.123,7.123,0,0,1,4.556,1.274,4.412,4.412,0,0,1,1.585,3.651,6.2,6.2,0,0,1-.976,3.509,21.9,21.9,0,0,1-4.344,4.132,14.75,14.75,0,0,0-3.962,4.273,10.679,10.679,0,0,0-1.132,5.179v1.811H26.2Zm-5.632,12.24A4.024,4.024,0,0,0,23.652,47.3a4.02,4.02,0,0,0,3.1-1.174,4.5,4.5,0,0,0,1.09-3.184,4.368,4.368,0,0,0-1.075-3.156,4.122,4.122,0,0,0-3.113-1.118q-4.16,0-4.16,4.273A4.511,4.511,0,0,0,20.567,46.159Z"/>
</svg>
