<svg xmlns="http://www.w3.org/2000/svg" width="42" height="38" viewBox="0 0 42 38">
  <defs>
    <style>
      .cls-1 {
        fill-rule: evenodd;
      }
    </style>
  </defs>
  <path id="icon_reader_toc" class="cls-1" d="M21.038,38.041C18.375,35.581,14,33,0,33,0,31.77,0,1.224,0-.006,15,0,18.412,1.541,21,4c2.662-2.459,6-4,21-4V33C28,33,23.625,35.581,21.038,38.041ZM20,6C16.042,2.288,12,2,2,2V31c11,0,13,1,18,4C20,34.364,19.979,7.207,20,6ZM40,2c-10,0-14.042.288-18,4,0.021,1.207,0,28.364,0,29,5-3,7-4,18-4V2Z"/>
</svg>
