<svg xmlns="http://www.w3.org/2000/svg" width="51" height="51" viewBox="0 0 51 51">
  <defs>
    <style>
      .cls-1 {
        fill-rule: evenodd;
      }
    </style>
  </defs>
  <path id="icon_reader_feedback_dated.svg" class="cls-1" d="M43,51H8a8,8,0,0,1-8-8V11A8,8,0,0,1,8,3h4V0h4V3H35V0h4V3h4a8,8,0,0,1,8,8V43A8,8,0,0,1,43,51Zm6-40a6,6,0,0,0-6-6H39V8H35V5H16V8H12V5H8a6,6,0,0,0-6,6v6H49V11Zm0,7H2V43a6,6,0,0,0,6,6H43a6,6,0,0,0,6-6V18ZM34.429,28.293a4.5,4.5,0,0,0-3.291,1.265,7.931,7.931,0,0,0-1.924,3.833h0.059a3.777,3.777,0,0,1,3.184-1.66,3.008,3.008,0,0,1,2.378.967,3.871,3.871,0,0,1,.854,2.656,6.56,6.56,0,0,1-.669,2.94,4.838,4.838,0,0,1-1.812,2.056,4.953,4.953,0,0,1-2.637.7,3.658,3.658,0,0,1-2.915-1.172,5,5,0,0,1-1.02-3.379,13.684,13.684,0,0,1,.591-3.965,10.9,10.9,0,0,1,1.611-3.35,6.784,6.784,0,0,1,2.451-2.1,7.413,7.413,0,0,1,3.345-.713,7.147,7.147,0,0,1,1.982.244L36.2,28.508A6.156,6.156,0,0,0,34.429,28.293ZM28.872,36.77a2.84,2.84,0,0,0,.483,1.728,1.6,1.6,0,0,0,1.372.654,2.2,2.2,0,0,0,1.4-.474,3.04,3.04,0,0,0,.938-1.313,4.951,4.951,0,0,0,.332-1.836q0-1.953-1.738-1.953a2.351,2.351,0,0,0-.933.185,3.053,3.053,0,0,0-1.343,1.1,3.144,3.144,0,0,0-.381.8A3.315,3.315,0,0,0,28.872,36.77Zm-6.5,3.081a4.673,4.673,0,0,1-3.174,1.2A3.3,3.3,0,0,1,16.367,39.8a5.834,5.834,0,0,1-.933-3.55,15.737,15.737,0,0,1,.811-5.137,8.177,8.177,0,0,1,2.173-3.564,4.607,4.607,0,0,1,3.14-1.2,3.376,3.376,0,0,1,2.773,1.157,5.376,5.376,0,0,1,.947,3.462,17.072,17.072,0,0,1-.772,5.337A7.841,7.841,0,0,1,22.368,39.851Zm-1-11.577a2.243,2.243,0,0,0-1.758,1.094,9.071,9.071,0,0,0-1.333,3.052,14.9,14.9,0,0,0-.523,3.853A4.731,4.731,0,0,0,18.14,38.4a1.312,1.312,0,0,0,1.26.732,2.243,2.243,0,0,0,1.782-1.108,8.834,8.834,0,0,0,1.289-3.091,17,17,0,0,0,.483-4.043Q22.954,28.274,21.372,28.273Zm-9.453,3.193-0.059-.215q0.332-.742,1.04-2.041t1.558-2.637h1.719q-1.192,2.793-1.943,4.893H11.919Z"/>
</svg>
