<svg id="holding_out" data-name="holding out" xmlns="http://www.w3.org/2000/svg" width="51" height="51" viewBox="0 0 51 51">
  <defs>
    <style>
      .cls-1 {
        fill-rule: evenodd;
      }
    </style>
  </defs>
  <path id="movie_clapper" data-name="movie clapper" class="cls-1" d="M49.5,28.011H48.347V49.163a1.079,1.079,0,0,1-1.079,1.078H3.816a1.079,1.079,0,0,1-1.079-1.078V28.011H1.559v-8.2H2.809l-1.765-6.53L47.362,0.891l2.086,7.717-41.88,11.2H49.5v8.2ZM5.062,47.913h40.95V28.12H5.062V47.913ZM39.379,9.018l6.308-1.688L42.325,4.5,36.017,6.189Zm-15.968,4.27L29.719,11.6l-3.363-2.83-6.308,1.688Zm-9.587,2.567-3.362-2.829L4.154,14.714l3.362,2.83ZM6.956,22.072L4.44,25.784h6.53l2.517-3.712H6.956Zm16.454,0-2.517,3.712h6.53l2.517-3.712h-6.53Zm16.529,0-2.517,3.712h6.53l2.517-3.712H39.94Z"/>
</svg>
