<svg xmlns="http://www.w3.org/2000/svg" xmlns:xlink="http://www.w3.org/1999/xlink" preserveAspectRatio="xMidYMid" width="28" height="28" viewBox="0 0 28 28">
  <defs>
    <style>

      .cls-2 {
        fill: #000000;
      }
    </style>
  </defs>
  <path d="M27.058,7.692 C23.430,11.320 14.077,20.673 12.994,21.756 C11.911,22.839 3.061,27.750 1.000,27.750 C1.000,27.750 -0.000,26.750 -0.000,26.750 C-0.000,24.781 5.000,15.750 5.983,14.767 C7.000,13.750 16.259,4.491 19.939,0.812 C21.000,-0.250 23.000,-0.250 23.983,0.733 C26.432,3.182 24.575,1.325 27.022,3.772 C28.000,4.750 28.000,6.750 27.058,7.692 ZM7.000,16.750 C7.000,16.750 4.000,21.750 4.000,21.750 C4.000,21.750 6.000,23.750 6.000,23.750 C6.000,23.750 11.000,20.750 11.000,20.750 C11.000,20.750 7.000,16.750 7.000,16.750 Z" id="path-1" class="cls-2" fill-rule="evenodd"/>
</svg>
