<svg xmlns="http://www.w3.org/2000/svg" width="51" height="51" viewBox="0 0 51 51">
  <metadata><?xpacket begin="﻿" id="W5M0MpCehiHzreSzNTczkc9d"?>
<x:xmpmeta xmlns:x="adobe:ns:meta/" x:xmptk="Adobe XMP Core 5.6-c138 79.159824, 2016/09/14-01:09:01        ">
   <rdf:RDF xmlns:rdf="http://www.w3.org/1999/02/22-rdf-syntax-ns#">
      <rdf:Description rdf:about=""/>
   </rdf:RDF>
</x:xmpmeta>
                                                                                                    
                                                                                                    
                                                                                                    
                                                                                                    
                                                                                                    
                                                                                                    
                                                                                                    
                                                                                                    
                                                                                                    
                                                                                                    
                                                                                                    
                                                                                                    
                                                                                                    
                                                                                                    
                                                                                                    
                                                                                                    
                                                                                                    
                                                                                                    
                                                                                                    
                                                                                                    
                           
<?xpacket end="w"?></metadata>
<defs>
    <style>
      .cls-1 {
        fill-rule: evenodd;
      }
    </style>
  </defs>
  <path id="icon_account_copy_5" data-name="icon_account copy 5" class="cls-1" d="M34.857,30.554A7.821,7.821,0,0,1,36,30.986C44.837,34.439,51,42.085,51,51H49c0-8.026-5.569-14.923-13.587-18.105a4.026,4.026,0,0,1-2-.959,3.958,3.958,0,0,1,1.476-6.765,13.5,13.5,0,1,0-18.775,0,3.975,3.975,0,0,1,1.119,7.073,4.989,4.989,0,0,1-1.667.657C7.555,36.084,2,42.982,2,51H0c0-8.915,6.162-16.565,15-20.019a9.092,9.092,0,0,1,1.137-.423,1.95,1.95,0,0,0,.683-2.242A13.02,13.02,0,0,1,15,26.869a15.495,15.495,0,1,1,21,.01,13.379,13.379,0,0,1-1.82,1.439A1.949,1.949,0,0,0,34.857,30.554Z"/>
</svg>
