<svg id="women" xmlns="http://www.w3.org/2000/svg" width="51" height="51" viewBox="0 0 51 51">
  <defs>
    <style>
      .cls-1 {
        fill-rule: evenodd;
      }
    </style>
  </defs>
  <path id="inauthentic" class="cls-1" d="M47.35,30.452c-3.1,5.009-7.658,4.513-12.032,4.513s-6.241-6.023-9.84-6.023-5.465,6.023-9.84,6.023-8.928.5-12.032-4.513-3.622-8.326-3.622-8.326,2.7-5.321,13.429-5.321c6.421,0,8.537,4.556,12.065,4.556s5.644-4.556,12.065-4.556c10.725,0,13.429,5.321,13.429,5.321S50.454,25.442,47.35,30.452ZM12.845,21.723A8.255,8.255,0,0,0,6.913,24.03s1.977,5.025,6.1,5.025A10.548,10.548,0,0,0,19.847,26.4S16.717,21.723,12.845,21.723Zm25.268,0c-3.872,0-7,4.675-7,4.675a10.548,10.548,0,0,0,6.838,2.657c4.119,0,6.1-5.025,6.1-5.025A8.255,8.255,0,0,0,38.113,21.723Z"/>
</svg>
