<svg xmlns="http://www.w3.org/2000/svg" xmlns:xlink="http://www.w3.org/1999/xlink" preserveAspectRatio="xMidYMid" width="34" height="31" viewBox="0 0 34 31">
  <defs>
    <style>
      .cls-1 {
        fill: #000;
        fill-rule: evenodd;
      }
    </style>
  </defs>
  <path d="M29.000,31.000 C26.000,31.000 5.000,31.000 5.000,31.000 C2.000,31.000 -0.000,29.209 -0.000,27.000 L-0.000,4.000 C-0.000,1.791 1.791,-0.000 4.000,-0.000 L30.000,-0.000 C32.209,-0.000 34.000,1.791 34.000,4.000 L34.000,27.000 C34.000,28.167 34.000,31.000 29.000,31.000 ZM32.000,11.000 L2.000,11.000 L2.000,27.000 C2.000,28.105 2.895,29.000 4.000,29.000 L30.000,29.000 C31.105,29.000 32.000,28.105 32.000,27.000 L32.000,11.000 Z" class="cls-1"/>
</svg>
