<svg xmlns="http://www.w3.org/2000/svg" xmlns:xlink="http://www.w3.org/1999/xlink" preserveAspectRatio="xMidYMid" width="51" height="51" viewBox="0 0 51 51">
  <defs>
    <style>
      .cls-1 {
        fill: #000;
        fill-rule: evenodd;
      }
    </style>
  </defs>
  <path d="M51.000,17.000 C51.000,17.552 50.552,18.000 50.000,18.000 L39.000,18.000 C38.675,18.000 38.400,17.835 38.217,17.595 C38.134,17.554 38.048,17.518 37.981,17.450 C37.590,17.060 37.653,16.363 38.122,15.895 L48.017,6.000 L39.000,6.000 C38.448,6.000 38.000,5.552 38.000,5.000 C38.000,4.448 38.448,4.000 39.000,4.000 L50.000,4.000 C50.552,4.000 51.000,4.448 51.000,5.000 C51.000,5.105 50.970,5.202 50.940,5.297 C50.966,5.630 50.851,5.995 50.566,6.279 L40.845,16.000 L50.000,16.000 C50.552,16.000 51.000,16.448 51.000,17.000 ZM13.042,36.018 C12.229,35.622 10.773,35.025 9.763,34.971 C8.753,34.917 7.098,34.933 6.915,34.103 C6.704,33.147 8.911,33.018 10.094,33.104 C11.275,33.190 13.355,34.048 14.092,34.595 C14.828,35.143 13.856,36.413 13.042,36.018 ZM28.451,38.499 C26.736,37.294 24.038,37.494 22.171,37.304 C20.303,37.115 20.409,35.482 22.280,35.303 C24.150,35.123 29.359,35.286 31.082,37.388 C31.909,38.398 30.167,39.704 28.451,38.499 ZM25.500,2.000 C12.521,2.000 2.000,12.521 2.000,25.500 C2.000,38.479 12.521,49.000 25.500,49.000 C38.479,49.000 49.000,38.479 49.000,25.500 C49.000,23.959 48.845,22.456 48.559,21.000 L50.581,21.000 C50.846,22.461 51.000,23.961 51.000,25.500 C51.000,39.583 39.583,51.000 25.500,51.000 C11.417,51.000 0.000,39.583 0.000,25.500 C0.000,11.417 11.417,-0.000 25.500,-0.000 C29.050,-0.000 32.428,0.729 35.499,2.039 C34.968,2.502 34.539,3.079 34.280,3.712 C31.566,2.617 28.607,2.000 25.500,2.000 Z" class="cls-1"/>
</svg>
