<svg xmlns="http://www.w3.org/2000/svg" width="51" height="51" viewBox="0 0 51 51">
  <defs>
    <style>
      .cls-1 {
        fill-rule: evenodd;
      }
    </style>
  </defs>
  <path id="merged" class="cls-1" d="M51,25H40.8c-0.774,3.819-1.526,7.755-2.183,11.551-0.806,3.652-.43,4.726.215,4.726,0.752,0,4.3-2.417,7.466-5.371l1.235,2.739C42.215,45.145,35.5,48.8,33.085,48.8c-2.095,0-3.062-1.665-1.611-8.916l1.934-9.722H33.192A72.8,72.8,0,0,1,19.657,44.393c-3.491,2.847-6.553,4.4-9.346,4.4-2.524,0-5.8-3.223-5.8-11.44A38.911,38.911,0,0,1,6.621,25H0V23H7.357A34.587,34.587,0,0,1,17.132,9.051c5.1-4.189,12.246-7.358,18.262-7.358a42.961,42.961,0,0,1,6.392.645,15.591,15.591,0,0,0,3.652.7l0.215,0.43C44.641,7.371,42.905,14.793,41.209,23H51v2ZM12.191,35.8c0,4.512,1.45,6.714,2.847,6.714,3.727,0,13.432-10.1,18.079-17.513H13.634A42.976,42.976,0,0,0,12.191,35.8ZM34.857,21.834c1.343-4.082,2.632-10.8,3.33-14.18A17.126,17.126,0,0,0,31.258,6.2a13.48,13.48,0,0,0-7.734,2.31C19.3,11.565,16.115,16.972,14.213,23H34.278C34.492,22.6,34.689,22.206,34.857,21.834Z"/>
</svg>
