<svg xmlns="http://www.w3.org/2000/svg" width="56" height="50" viewBox="0 0 56 50">
  <metadata><?xpacket begin="﻿" id="W5M0MpCehiHzreSzNTczkc9d"?>
<x:xmpmeta xmlns:x="adobe:ns:meta/" x:xmptk="Adobe XMP Core 5.6-c140 79.160451, 2017/05/06-01:08:21        ">
   <rdf:RDF xmlns:rdf="http://www.w3.org/1999/02/22-rdf-syntax-ns#">
      <rdf:Description rdf:about=""/>
   </rdf:RDF>
</x:xmpmeta>
                                                                                                    
                                                                                                    
                                                                                                    
                                                                                                    
                                                                                                    
                                                                                                    
                                                                                                    
                                                                                                    
                                                                                                    
                                                                                                    
                                                                                                    
                                                                                                    
                                                                                                    
                                                                                                    
                                                                                                    
                                                                                                    
                                                                                                    
                                                                                                    
                                                                                                    
                                                                                                    
                           
<?xpacket end="w"?></metadata>
<defs>
    <style>
      .cls-1 {
        fill-rule: evenodd;
      }
    </style>
  </defs>
  <path id="Ha_Ha" data-name="Ha Ha" class="cls-1" d="M51.354,24.509c-3.279.253-6.383,0.379-6.537-1.616-0.116-1.5,1.415-4.028-.642-4.173-2.579-.155-6.112.259-6.6,0.605-0.968.694-.118,3.537-0.067,4.191,0.109,1.413-.741,2.1-4.126,2.362-5.245.4-4.684-2.525-2.821-4.4,3.022-3.036,5.58-15.669,5.317-16.654C35,1.537,39.5-2.008,43.151,1.114s8.931,17.363,11.5,18.558S56.192,24.135,51.354,24.509ZM39.824,9.945c-0.937.054-1,2.485-1.348,4.036-0.195.862,4.553,0.63,4.48-.319C42.84,12.167,40.762,9.891,39.824,9.945ZM34.434,35.006c-0.2-2.3,3.21-4.136,5.281-1.63s3.933,12.612,5.506,13.708,0.509,3.154-2.76,2.84c-2.215-.213-4.3-0.49-4.169-1.837,0.1-1.016,1.411-2.52.058-2.856a13.72,13.72,0,0,0-4.471-.365c-0.726.35-.49,2.344-0.532,2.786-0.092.955-.739,1.314-3.025,1.094-3.543-.34-2.828-2.228-1.369-3.258C31.32,43.816,34.494,35.693,34.434,35.006Zm3.691,6.712c0.1-1.011-1.024-2.77-1.655-2.842s-0.954,1.54-1.368,2.534C34.872,41.961,38.063,42.359,38.125,41.718ZM22.011,26.835c-4.417.341-5.424-.476-5.542-2a5.282,5.282,0,0,1,.541-2.592c1.233-2.18-.254-5.573-0.449-5.707a24.564,24.564,0,0,0-5.773.535c-0.714.2-1.179,2.889,0.47,5.859a3.855,3.855,0,0,1,.945,2.274c0.128,1.663-1.295,2.483-5.57,2.813-4.253.328-5.065-.372-5.36-2a3.542,3.542,0,0,1,.74-2.484C2.77,23.4,2.273,10.2,1.076,8.374A2.9,2.9,0,0,1,.024,5.937c-0.1-1.9,3.788-2.644,4.691-2.714,3.7-.286,5.766.083,5.884,1.615,0.058,0.753-.344.974-0.659,2.646-0.37,1.964.133,4.658,0.5,4.846,0.717,0.289,5.874-.424,5.549-0.25a1.417,1.417,0,0,0,.463-1.247C16.33,9.266,16.227,7.051,15.9,6.5a4.755,4.755,0,0,1-.968-1.948c-0.1-1.285.985-2.165,5.174-2.514,3.689-.307,5.244.227,5.374,1.913,0.074,0.959-.807,1.913-0.7,1.48-0.42,1.755.31,15.339,0.8,15.792A4.034,4.034,0,0,1,26.964,24.1C27.1,25.91,25.91,26.534,22.011,26.835ZM10.144,33.2a1.965,1.965,0,0,1-.417-1.746c0.153-1.28,2.833-1.322,3.442-1.263,2.5,0.24,3.833.726,3.734,1.761a11.15,11.15,0,0,1-.747,1.687,5.6,5.6,0,0,0-.231,3.288c0.444,0.276,3.965.4,3.728,0.479a0.959,0.959,0,0,0,.454-0.778,12.664,12.664,0,0,0,.137-2.949,3.217,3.217,0,0,1-.419-1.411c0.083-.868.909-1.329,3.741-1.073,2.494,0.224,3.469.761,3.359,1.9-0.062.648-.761,1.181-0.641,0.9-0.484,1.12-1.578,10.26-1.3,10.619A2.729,2.729,0,0,1,25.57,46.7c-0.117,1.219-.985,1.5-3.619,1.244-2.984-.287-3.56-0.948-3.462-1.975a3.574,3.574,0,0,1,.662-1.665c1.076-1.309.479-3.744,0.364-3.856a16.627,16.627,0,0,0-3.91-.315c-0.5.053-1.122,1.788-.368,3.96a2.609,2.609,0,0,1,.366,1.626c-0.108,1.123-1.152,1.5-4.04,1.227-2.873-.276-3.333-0.837-3.34-1.955A2.4,2.4,0,0,1,9,43.42C9.526,43.414,10.73,34.559,10.144,33.2Z"/>
</svg>
