<svg xmlns="http://www.w3.org/2000/svg" xmlns:xlink="http://www.w3.org/1999/xlink" preserveAspectRatio="xMidYMid" width="46" height="40" viewBox="0 0 46 40">
  <defs>
    <style>
      .cls-1 {
        fill: #000;
        fill-rule: evenodd;
      }
    </style>
  </defs>
  <path d="M42.000,39.000 C41.000,39.000 5.000,39.000 4.000,39.000 C3.000,39.000 1.000,37.000 1.000,36.000 C1.000,35.000 1.000,28.000 1.000,28.000 L9.736,22.000 L18.513,28.000 L27.328,22.000 L36.031,28.000 L45.000,22.000 C45.000,22.000 45.000,35.000 45.000,36.000 C45.000,37.000 43.000,39.000 42.000,39.000 ZM27.487,12.000 L18.672,18.000 L9.969,12.000 L1.000,18.000 C1.000,18.000 1.000,5.000 1.000,4.000 C1.000,3.000 3.000,1.000 4.000,1.000 C5.000,1.000 41.000,1.000 42.000,1.000 C43.000,1.000 45.000,3.000 45.000,4.000 C45.000,5.000 45.000,12.000 45.000,12.000 L36.264,18.000 L27.487,12.000 Z" class="cls-1"/>
</svg>
