<svg xmlns="http://www.w3.org/2000/svg" xmlns:xlink="http://www.w3.org/1999/xlink" preserveAspectRatio="xMidYMid" width="26" height="21" viewBox="0 0 26 21">
  <defs>
    
  </defs>
  <path d="M24.000,21.000 C24.000,21.000 2.000,21.000 2.000,21.000 C0.895,21.000 -0.000,20.104 -0.000,19.000 C-0.000,19.000 -0.000,9.472 -0.000,9.472 C2.549,10.027 7.206,10.875 12.000,10.979 C12.000,10.979 12.000,13.000 12.000,13.000 C12.000,13.000 14.000,13.000 14.000,13.000 C14.000,13.000 14.000,10.977 14.000,10.977 C18.793,10.864 23.450,10.020 26.000,9.469 C26.000,9.469 26.000,19.000 26.000,19.000 C26.000,20.104 25.105,21.000 24.000,21.000 ZM14.000,9.000 C14.000,9.000 12.000,9.000 12.000,9.000 C12.000,9.000 12.000,9.978 12.000,9.978 C7.206,9.868 2.549,9.022 -0.000,8.470 C-0.000,8.470 -0.000,6.000 -0.000,6.000 C-0.000,4.895 0.895,4.000 2.000,4.000 C2.000,4.000 7.000,4.000 7.000,4.000 C7.000,4.000 7.000,3.000 7.000,3.000 C7.000,1.343 8.343,-0.000 10.000,-0.000 C10.000,-0.000 16.000,-0.000 16.000,-0.000 C17.657,-0.000 19.000,1.343 19.000,3.000 C19.000,3.000 19.000,4.000 19.000,4.000 C19.000,4.000 24.000,4.000 24.000,4.000 C25.105,4.000 26.000,4.895 26.000,6.000 C26.000,6.000 26.000,8.471 26.000,8.471 C23.451,9.024 18.794,9.871 14.000,9.979 C14.000,9.979 14.000,9.000 14.000,9.000 ZM17.000,3.000 C17.000,2.448 16.552,2.000 16.000,2.000 C16.000,2.000 10.000,2.000 10.000,2.000 C9.448,2.000 9.000,2.448 9.000,3.000 C9.000,3.000 9.000,4.000 9.000,4.000 C9.000,4.000 17.000,4.000 17.000,4.000 C17.000,4.000 17.000,3.000 17.000,3.000 Z" id="path-1" class="cls-2" fill-rule="evenodd"/>
</svg>
