<svg xmlns="http://www.w3.org/2000/svg" xmlns:xlink="http://www.w3.org/1999/xlink" preserveAspectRatio="xMidYMid" width="60" height="60" viewBox="0 0 60 60">
  <defs>
    <style>
      .cls-1 {
        fill: #000;
        fill-rule: evenodd;
      }
    </style>
  </defs>
  <path d="M30.000,59.000 C13.984,59.000 1.000,46.016 1.000,30.000 C1.000,13.984 13.984,1.000 30.000,1.000 C46.016,1.000 59.000,13.984 59.000,30.000 C59.000,46.016 46.016,59.000 30.000,59.000 ZM30.000,4.000 C15.641,4.000 4.000,15.641 4.000,30.000 C4.000,44.359 15.641,56.000 30.000,56.000 C44.359,56.000 56.000,44.359 56.000,30.000 C56.000,15.641 44.359,4.000 30.000,4.000 ZM31.000,45.266 L31.000,18.213 C33.973,16.327 40.752,14.251 46.000,16.000 C46.000,17.000 46.000,42.000 46.000,43.000 C41.585,41.234 34.060,43.366 31.000,45.266 ZM29.000,45.213 C26.026,43.327 19.248,41.251 14.000,43.000 C14.000,42.000 14.000,17.000 14.000,16.000 C19.273,14.242 26.086,16.346 29.000,18.239 L29.000,45.213 Z" class="cls-1"/>
</svg>
