<svg xmlns="http://www.w3.org/2000/svg" width="46" height="39" viewBox="0 0 46 39">
  <defs>
    <style>
      .cls-1 {
        fill-rule: evenodd;
      }
    </style>
  </defs>
  <path id="icon_admin_social.svg" class="cls-1" d="M44,39H41.75C38,33,29.969,29,22.469,29S7,33,3.25,39H1c0-2,8-10,15.454-11.317A14.5,14.5,0,0,1,8,14.5C8,6.492,13.469,0,22.469,0S37,6.492,37,14.5a14.5,14.5,0,0,1-8.454,13.183C36,29,44,37,44,39ZM35,14.5C35,9.24,31.469,2,22.469,2S10,9.24,10,14.5C10,19.693,13.469,27,22.469,27S35,19.693,35,14.5Z"/>
</svg>
