<svg xmlns="http://www.w3.org/2000/svg" width="51" height="51" viewBox="0 0 51 51">
  <defs>
    <style>
      .cls-1 {
        fill-rule: evenodd;
      }
    </style>
  </defs>
  <path id="icon_reader_feedback_factcheck.svg" class="cls-1" d="M25.5,51A25.5,25.5,0,1,1,51,25.5,25.5,25.5,0,0,1,25.5,51Zm0-49A23.5,23.5,0,1,0,49,25.5,23.5,23.5,0,0,0,25.5,2ZM23.185,32.619a1.82,1.82,0,0,1-2.373,0L16.6,28.4a1.515,1.515,0,0,1-.3-2.1,1.5,1.5,0,0,1,2.123.326l2.4,2.4A1.822,1.822,0,0,0,23.2,29l8.366-8.366c0.633-.633,1.486-0.979,2.1-0.361a1.5,1.5,0,0,1-.282,2.14Z"/>
</svg>
