<svg id="WorldBuilding" xmlns="http://www.w3.org/2000/svg" width="51" height="51" viewBox="0 0 51 51">
  <defs>
    <style>
      .cls-1 {
        fill-rule: evenodd;
      }
    </style>
  </defs>
  <g id="earth_solid" data-name="earth solid">
    <path class="cls-1" d="M25.344,50.326A24.592,24.592,0,1,1,49.951,25.734,24.6,24.6,0,0,1,25.344,50.326ZM25.487,3.788A21.787,21.787,0,1,0,47.306,25.575,21.8,21.8,0,0,0,25.487,3.788Z"/>
    <path class="cls-1" d="M7.727,9.48C9.234,11.238,6.386,17.4,6.618,20.151a21.89,21.89,0,0,0,1.035,4.835l4.08,1.02L10.665,22.52c0.256-1,.108-0.85.108-0.85a5.109,5.109,0,0,1,.662,1.389c0.886,2.33,4.191,4.932,4.191,4.932a8.175,8.175,0,0,0,1.955.834c1.124,0.4.062,1.317,0.062,1.317s0.092-.186-0.754.725c-0.682.735-.854,0.412-1.36,2.711-0.752,3.421.924,4.793,2.745,5.931s1.33,0.618,2.441,1.637c1.306,1.2,1.653,5.976,1.935,7.595,0.136,0.783,1.922.661,2.986,0.809s2.783-3.726,3.622-5.349c1.624-3.143,4.058-7.558,3.308-9.164-0.877-1.878-2.811-2.431-3.431-3.166s-1.645-.983-2.7-2.144-4.4-.407-4.4-0.407S21.294,26.53,20.2,26.136a4.755,4.755,0,0,1-2.978-2.184c-0.457-1.013.468-2.347,1.564-2.689,1.3-.407,4.089-1.006,4.847.274s1.475,3.725,3,3.3,1.4-2.45,1.4-3.452-1.86-1.149-.783-2.446-0.182-2.945,1.79-3.947a5.535,5.535,0,0,0,1.88-1.646,8.994,8.994,0,0,1,2.82-2.105s-3.4-.567-1.436-2.121c0.094-.075.057-0.277-1.541-1.557s-3.6-1.035-5.5.315a7.59,7.59,0,0,1-5.644.593c-2.279-.575-0.449-1.512.056-2.375,0.452-.771,2.545-1.179,4.543-1.186s4.247,0.55,5.3.55S30.6,4.307,30.3,3.388c-0.434-1.335-3.05-1.844-3.083-1.733a27.174,27.174,0,0,0-11.1,2.156"/>
    <path class="cls-1" d="M47.344,15.427s-4.953,4.556-3.9,8.732,4.747,5.521,5.523,7.231"/>
    <path class="cls-1" d="M40.058,9.112s-1.525,1.7-.468,2.455,1.716,2.657,2.924,2.206,2.827,1.019,2.827,1.019"/>
  </g>
</svg>
