<svg xmlns="http://www.w3.org/2000/svg" width="51" height="51" viewBox="0 0 51 51">
  <defs>
    <style>
      .cls-1 {
        fill-rule: evenodd;
      }
    </style>
  </defs>
  <path id="merged" class="cls-1" d="M38,34c-2.643,1.586-2.5,3.153-6.785,6.54A32.823,32.823,0,0,1,25,44c-0.893.255-1,7-1,7H7s0.077-6.55-.031-7C6.572,42.348,3,41,3,34c0-5,.654-5.547,1-7a5.442,5.442,0,0,1,.117-1.078A3.979,3.979,0,0,1,4,25V21a4,4,0,0,1,4-4,3.9,3.9,0,0,1,2.229.719,3.983,3.983,0,0,1,6.01-2.033A3.95,3.95,0,0,1,22,13.555L22,3.492A3.762,3.762,0,0,1,25.542-.046a3.676,3.676,0,0,1,3.444,3.538L29,18c0,3,2,9,5,9s3.9-1.995,5.99-1.995,7,0.01,7,3.969C46.992,32.43,43,31,38,34ZM10,21a2,2,0,0,0-4,0v4a2,2,0,0,0,4,0V21Zm6-2a2,2,0,0,0-4,0v6a2,2,0,0,0,4,0V19Zm6-2a2,2,0,0,0-4,0v8a2,2,0,0,0,4,0V17ZM39.99,27C39,27,39,29,34,29s-7-6-7-11L26.987,3.492a1.433,1.433,0,0,0-1.445-1.257A1.531,1.531,0,0,0,24,3.492V16.782c0,0.028-.014.058-0.016,0.087C23.988,16.913,24,16.955,24,17v8c0,1.573-2.006,3.238-2.322,3.357-1.827.69-3.989,1.971-5.428,6.078a8.847,8.847,0,0,0-.329,1.206c-0.917-.616-1.7-1.036-1.083-2.256a13.479,13.479,0,0,1,3.525-4.744,4.029,4.029,0,0,1-1.37-1.014A3.952,3.952,0,0,1,11,27.621a3.941,3.941,0,0,1-5.1.771A17.885,17.885,0,0,0,5,34c0,6,4,8.085,4,10,0,4.682,0,7,0,7H22s-0.415-6.585,1-8c0.931-.931,3.812-1.469,6.957-4.014,5.01-4.057,3.873-5.843,6.992-7.043C42,30,44.992,30.417,44.993,28.973,44.993,27.682,42.727,27,39.99,27Z"/>
</svg>
