<svg xmlns="http://www.w3.org/2000/svg" xmlns:xlink="http://www.w3.org/1999/xlink" preserveAspectRatio="xMidYMid" width="51" height="51" viewBox="0 0 51 51">
  <defs>
    <style>
      .cls-1 {
        fill: #000;
        fill-rule: evenodd;
      }
    </style>
  </defs>
  <path d="M28.500,40.000 C22.149,40.000 17.000,34.851 17.000,28.500 C17.000,22.149 22.149,17.000 28.500,17.000 C34.851,17.000 40.000,22.149 40.000,28.500 C40.000,34.851 34.851,40.000 28.500,40.000 ZM28.500,20.000 C23.806,20.000 20.000,23.806 20.000,28.500 C20.000,33.194 23.806,37.000 28.500,37.000 C33.194,37.000 37.000,33.194 37.000,28.500 C37.000,23.806 33.194,20.000 28.500,20.000 Z" class="cls-1"/>
  <path d="M16.000,19.000 C16.000,19.000 26.312,5.125 37.000,5.000 C46.999,4.883 49.952,7.723 47.000,15.000 C44.750,20.546 40.000,23.000 40.000,23.000 C40.000,23.000 38.647,19.070 34.000,17.000 C25.800,13.347 18.000,21.000 18.000,21.000 L16.000,19.000 Z" class="cls-1"/>
  <path d="M22.000,25.000 C22.000,25.000 24.037,20.706 29.000,21.000 C35.394,21.379 36.000,27.000 36.000,27.000 L36.000,29.000 L29.000,33.000 L22.000,25.000 Z" class="cls-1"/>
  <path d="M11.000,27.000 L20.000,38.000 L12.000,45.000 C12.000,45.000 9.813,46.438 8.000,46.000 C6.187,45.562 3.687,44.438 3.000,42.000 C2.312,39.562 3.000,36.000 3.000,36.000 L11.000,27.000 Z" class="cls-1"/>
  <path d="M35.511,35.636 C36.097,35.050 37.047,35.050 37.632,35.636 L48.239,46.243 C48.825,46.828 48.825,47.778 48.239,48.364 C47.653,48.950 46.703,48.950 46.118,48.364 L35.511,37.757 C34.925,37.172 34.925,36.222 35.511,35.636 Z" class="cls-1"/>
</svg>
