<svg xmlns="http://www.w3.org/2000/svg" width="99.996" height="99.996" viewBox="0 0 51 51">
  <metadata><?xpacket begin="﻿" id="W5M0MpCehiHzreSzNTczkc9d"?>
<x:xmpmeta xmlns:x="adobe:ns:meta/" x:xmptk="Adobe XMP Core 5.6-c140 79.160451, 2017/05/06-01:08:21        ">
   <rdf:RDF xmlns:rdf="http://www.w3.org/1999/02/22-rdf-syntax-ns#">
      <rdf:Description rdf:about=""/>
   </rdf:RDF>
</x:xmpmeta>
                                                                                                    
                                                                                                    
                                                                                                    
                                                                                                    
                                                                                                    
                                                                                                    
                                                                                                    
                                                                                                    
                                                                                                    
                                                                                                    
                                                                                                    
                                                                                                    
                                                                                                    
                                                                                                    
                                                                                                    
                                                                                                    
                                                                                                    
                                                                                                    
                                                                                                    
                                                                                                    
                           
<?xpacket end="w"?></metadata>
<defs>
    <style>
      .cls-1 {
        fill-rule: evenodd;
      }
    </style>
  </defs>
  <path id="icon_reader_feedback_palm.svg" class="cls-1" d="M44.617,12.575S46.7,19.907,46.989,22.2s8.464,13.161-3.423,23.7c-6.494,5.756-17.514,5.547-23.65-1.321l-5.9-6.607L12.971,36.8,2.526,25.169C0.8,23.238.348,20.135,2.175,18.516a3.963,3.963,0,0,1,2.648-.974c-1.294-1.619-1.174-4.511.26-5.783a5.665,5.665,0,0,1,3.094-1.369A4.411,4.411,0,0,1,9.2,5.321a4.93,4.93,0,0,1,5.11-.9A4.408,4.408,0,0,1,16.03,2.009c1.826-1.619,5.292-1.191,7.042.769C24.462,4.332,34.879,15.991,35.765,17.12l-0.458-4.24a4.685,4.685,0,0,1,4-5.289C41.878,7.231,44.256,10.015,44.617,12.575ZM39.6,9.652a2.6,2.6,0,0,0-2.222,2.938s0.61,5.323,1.163,9.236c0.063,0.444-2.072-.689-2.359-1.011C34.791,19.26,21.512,4.161,21.512,4.161c-1.16-1.3-2.867-1.644-4.071-.573a2.36,2.36,0,0,0-.525,3.255L28.722,20.056l-1.561,1.383L14.66,7.449c-0.959-1.073-3.053-1.472-4.067-.573-1.327,1.176-.529,3.254.86,4.809L23.26,24.9,21.7,26.281,9.892,13.068c-0.959-1.073-2.406-.653-3.421.246-1.409,1.249,0,3.747,1.147,5.034L18.492,30.517,16.931,31.9,6.773,20.578c-0.959-1.073-2.195-1.406-3.209-.507s-0.436,2.642.523,3.715l17.3,19.487c5.37,6.01,15.11,6.107,20.792,1.07,10.591-9.388,3.064-19.164,2.8-21.509s-2.431-9.969-2.431-9.969C42.347,11.443,41.027,9.452,39.6,9.652Z"/>
  <path class="cls-1" d="M33,23A11,11,0,1,1,22,34,11,11,0,0,1,33,23Zm-5,6,1-1,4,5,4-3,1,1-5,4Z"/>
</svg>
