<svg xmlns="http://www.w3.org/2000/svg" xmlns:xlink="http://www.w3.org/1999/xlink" preserveAspectRatio="xMidYMid" width="25" height="36" viewBox="0 0 25 36">
  <defs>
    <style>
      .cls-1 {
        fill: #000;
        fill-rule: evenodd;
      }
    </style>
  </defs>
  <path d="M12.500,35.796 C12.500,35.796 0.864,22.107 0.864,11.840 C0.864,5.414 6.074,0.204 12.500,0.204 C18.926,0.204 24.136,5.414 24.136,11.840 C24.136,22.107 12.500,35.796 12.500,35.796 ZM12.500,4.331 C8.337,4.331 4.962,7.700 4.962,11.855 C4.962,16.010 8.337,19.378 12.500,19.378 C16.663,19.378 20.037,16.010 20.037,11.855 C20.037,7.700 16.663,4.331 12.500,4.331 ZM12.500,15.272 C10.605,15.272 9.069,13.736 9.069,11.841 C9.069,9.946 10.605,8.409 12.500,8.409 C14.395,8.409 15.931,9.946 15.931,11.841 C15.931,13.736 14.395,15.272 12.500,15.272 Z" class="cls-1"/>
</svg>
