<svg xmlns="http://www.w3.org/2000/svg" width="29" height="29" viewBox="0 0 29 29">
  <defs>
    <style>
      .cls-1 {
        fill-rule: evenodd;
      }
    </style>
  </defs>
  <path id="icon_settings_29x29" class="cls-1" d="M25.988,14.27a11.487,11.487,0,0,0-.59-3.416c1.584-1.017,2.463-2.207,1.7-3.53S24.88,6.166,23.22,7.016a11.566,11.566,0,0,0-2.733-2.329c0.542-1.774.44-3.229-.982-3.746s-2.43.526-3.155,2.225A11.469,11.469,0,0,0,14.5,3a11.474,11.474,0,0,0-1.85.166C11.926,1.466,10.914.425,9.5,0.941S7.971,2.913,8.513,4.687A11.567,11.567,0,0,0,5.78,7.016c-1.66-.85-3.118-1.007-3.877.308s0.115,2.513,1.7,3.53a11.485,11.485,0,0,0-.59,3.416C1.147,14.68-.11,15.5.158,17.018s1.728,1.855,3.616,1.6a11.522,11.522,0,0,0,1.753,3.059c-1.157,1.507-1.587,2.938-.41,3.926s2.5,0.319,3.784-1.074a11.417,11.417,0,0,0,3.329,1.24c0.09,1.875.682,3.226,2.207,3.226s2.112-1.343,2.206-3.207A11.428,11.428,0,0,0,20.1,24.531c1.281,1.394,2.612,2.062,3.787,1.076s0.746-2.421-.412-3.929a11.521,11.521,0,0,0,1.754-3.056c1.889,0.251,3.35-.088,3.617-1.6S27.853,14.68,25.988,14.27ZM14.5,24A9.5,9.5,0,1,1,24,14.5,9.5,9.5,0,0,1,14.5,24Z"/>
</svg>
