<svg xmlns="http://www.w3.org/2000/svg" width="51" height="51" viewBox="0 0 51 51">
  <defs>
    <style>
      .cls-1 {
        fill-rule: evenodd;
      }
    </style>
  </defs>
  <path id="icon_reader_feedback_frustrated.svg" class="cls-1" d="M25.5,51A25.5,25.5,0,1,1,51,25.5,25.5,25.5,0,0,1,25.5,51Zm0-49A23.5,23.5,0,1,0,49,25.5,23.5,23.5,0,0,0,25.5,2ZM35,23.5a2.5,2.5,0,0,1-4.99.1l-1.744,1.433L27,23.483l8.826-7.431,1.27,1.545-4.013,3.476A2.5,2.5,0,0,1,35,23.5Zm-14.01.1a2.5,2.5,0,1,1-3.068-2.521L13.909,17.6l1.27-1.545L24,23.483l-1.27,1.545Z"/>
</svg>
