<svg xmlns="http://www.w3.org/2000/svg" xmlns:xlink="http://www.w3.org/1999/xlink" preserveAspectRatio="xMidYMid" width="36" height="36" viewBox="0 0 36 36">
  <defs>
    <style>
      .cls-1 {
        fill: #000;
        fill-rule: evenodd;
      }
    </style>
  </defs>
  <path d="M18.000,36.000 C8.059,36.000 -0.000,27.941 -0.000,18.000 C-0.000,8.059 8.059,-0.000 18.000,-0.000 C27.941,-0.000 36.000,8.059 36.000,18.000 C36.000,27.941 27.941,36.000 18.000,36.000 ZM27.633,11.349 C26.983,10.691 26.082,11.060 25.415,11.735 C23.213,13.963 18.774,18.453 16.594,20.658 C15.959,21.300 14.694,21.300 14.087,20.686 C13.319,19.909 12.334,18.913 11.557,18.126 C10.898,17.460 9.927,17.137 9.318,17.778 C8.720,18.408 9.000,19.380 9.634,20.021 C10.894,21.296 12.818,23.242 14.074,24.512 C14.694,25.140 15.959,25.140 16.576,24.517 C19.101,21.963 24.788,16.210 27.336,13.632 C27.980,12.980 28.284,12.008 27.633,11.349 Z" class="cls-1"/>
</svg>
