<?xml version="1.0" encoding="UTF-8"?>
<svg width="18px" height="9px" viewBox="0 0 18 9" version="1.1" xmlns="http://www.w3.org/2000/svg" xmlns:xlink="http://www.w3.org/1999/xlink">
    <!-- Generator: Sketch 48.2 (47327) - http://www.bohemiancoding.com/sketch -->
    <title>Artboard</title>
    <desc>Created with Sketch.</desc>
    <defs></defs>
    <g id="Page-1" stroke="none" stroke-width="1" fill="none" fill-rule="evenodd">
        <g id="Artboard" fill="#CCCCCC">
            <path d="M14.004514,1.01775141 C13.508102,1.01775141 13.2726496,0.860538447 13.260877,0.527495196 C13.2500854,0.181006099 13.4973104,0.00827869895 14.0094193,0.00724440314 C15.1435148,0.00517581152 16.2776103,0.0031072199 17.4117058,4.33247018e-06 C17.815899,-0.00102996334 17.9983745,0.183074691 17.9983745,0.606101677 C18.0003366,1.8596682 18.0003366,3.11323472 17.9993556,4.36680124 C17.9983745,4.76293654 17.8286526,4.99255021 17.5372803,5.00082458 C17.2331544,5.00909894 17.0595083,4.77845098 17.0585272,4.35438969 C17.0555841,3.51040431 17.0575462,2.66538464 17.0575462,1.72417545 C16.9192179,1.86483968 16.8368096,1.94551475 16.7563634,2.03032701 C14.9737929,3.9096425 13.1912223,5.78895798 11.4086518,7.66827347 C10.9799323,8.12026074 10.8072673,8.11819215 10.3716804,7.65793051 C9.06393881,6.2792142 7.75521615,4.90049788 6.44845559,3.52074727 C6.36408516,3.43076354 6.29246841,3.32629966 6.19240116,3.20011557 C6.06976972,3.32216248 5.98245614,3.40387184 5.90004782,3.49075269 C4.26463502,5.21388951 2.63020327,6.93702633 0.994790469,8.66016315 C0.917287403,8.74290682 0.843708543,8.83289055 0.753451808,8.8959826 C0.546449947,9.0428526 0.330618624,9.03871542 0.151086205,8.85461077 C-0.0274651622,8.67050611 -0.0490482946,8.44606392 0.0932041685,8.22162173 C0.148143051,8.13680947 0.22074086,8.06337447 0.291376565,7.98890517 C2.08081445,6.10131532 3.87123338,4.21269117 5.66263336,2.32613561 C6.06486446,1.90104003 6.24930214,1.90207433 6.65251429,2.32716991 C7.97595273,3.72140066 9.29939116,5.11666571 10.6228296,6.51193075 C10.7072,6.60088019 10.7945136,6.68569245 10.860244,6.75188738 C12.6732272,4.84050873 14.4685514,2.94774739 16.2991934,1.01775141 C15.5202385,1.01775141 14.7618857,1.01775141 14.004514,1.01775141 Z" id="icon_reader_topic_arrow.svg"></path>
        </g>
    </g>
</svg>