<svg xmlns="http://www.w3.org/2000/svg" width="92" height="89" viewBox="0 0 92 89">
  <metadata><?xpacket begin="﻿" id="W5M0MpCehiHzreSzNTczkc9d"?>
<x:xmpmeta xmlns:x="adobe:ns:meta/" x:xmptk="Adobe XMP Core 5.6-c140 79.160451, 2017/05/06-01:08:21        ">
   <rdf:RDF xmlns:rdf="http://www.w3.org/1999/02/22-rdf-syntax-ns#">
      <rdf:Description rdf:about=""/>
   </rdf:RDF>
</x:xmpmeta>
                                                                                                    
                                                                                                    
                                                                                                    
                                                                                                    
                                                                                                    
                                                                                                    
                                                                                                    
                                                                                                    
                                                                                                    
                                                                                                    
                                                                                                    
                                                                                                    
                                                                                                    
                                                                                                    
                                                                                                    
                                                                                                    
                                                                                                    
                                                                                                    
                                                                                                    
                                                                                                    
                           
<?xpacket end="w"?></metadata>
<defs>
    <style>
      .cls-1 {
        fill: #fff;
        fill-rule: evenodd;
      }
    </style>
  </defs>
  <path id="Thumb_down" data-name="Thumb down" class="cls-1" d="M91.294,43.817c0,3.083-4.023,5.531-7.692,5.531H73.644c-5.51,0-10.941,6.468-10.178,9.861S65.9,64.251,65.9,72.9c0,3.46-2.213,15.7-5.532,15.7-1.133,0-5.282.14-5.354-3.445-0.071-3.549-.4-9.823-1.477-12.3-3.379-7.777-9.364-8.1-12.945-14.158C36.095,51.094,27.667,49,22,49V12c2.388,0,10.72-4.553,13.216-6.592C37.534,3.515,41.165,0,44.877,0c8.017,0,26.555,0,30.535,1.328C78.777,2.45,79.475,5.085,79.5,9.355c1.893,0.1,4.038,2.589,5.212,4.1,1.271,1.64.649,4.833,0.13,6.842a10.183,10.183,0,0,1,3.648,7.568c0.039,2.251-.2,5.786-1.551,7.58C91.362,36.145,91.294,40.734,91.294,43.817ZM8.516,54C3.935,53.991,0,52.852,0,51V10C0,8.792,3.725,8.061,8.516,8,13.225,7.94,18,8.527,18,10V51C18,52.762,13.424,54.009,8.516,54Z"/>
</svg>
