<svg id="Batch_02" data-name="Batch 02" xmlns="http://www.w3.org/2000/svg" width="91.997" height="91.997" viewBox="0 0 48 48">
  <metadata><?xpacket begin="﻿" id="W5M0MpCehiHzreSzNTczkc9d"?>
<x:xmpmeta xmlns:x="adobe:ns:meta/" x:xmptk="Adobe XMP Core 5.6-c140 79.160451, 2017/05/06-01:08:21        ">
   <rdf:RDF xmlns:rdf="http://www.w3.org/1999/02/22-rdf-syntax-ns#">
      <rdf:Description rdf:about=""/>
   </rdf:RDF>
</x:xmpmeta>
                                                                                                    
                                                                                                    
                                                                                                    
                                                                                                    
                                                                                                    
                                                                                                    
                                                                                                    
                                                                                                    
                                                                                                    
                                                                                                    
                                                                                                    
                                                                                                    
                                                                                                    
                                                                                                    
                                                                                                    
                                                                                                    
                                                                                                    
                                                                                                    
                                                                                                    
                                                                                                    
                           
<?xpacket end="w"?></metadata>
<defs>
    <style>
      .cls-1 {
        fill-rule: evenodd;
      }
    </style>
  </defs>
  <g id="_01_-_Boot" data-name="01 - Boot">
    <g id="D">
      <path id="Rounded_Rectangle_6" data-name="Rounded Rectangle 6" class="cls-1" d="M19.073,12.479l3.149-.495a0.813,0.813,0,0,1,.929.677l0.078,0.494a0.813,0.813,0,0,1-.677.929l-3.149.495a0.813,0.813,0,0,1-.929-0.677L18.4,13.408A0.813,0.813,0,0,1,19.073,12.479Zm0.763,3.487,3.071-.854a0.813,0.813,0,0,1,1,.565l0.134,0.482a0.812,0.812,0,0,1-.565,1l-3.071.854a0.813,0.813,0,0,1-1-.565l-0.134-.482A0.812,0.812,0,0,1,19.836,15.966Zm0.9,4.113,2.637-1.79a0.813,0.813,0,0,1,1.129.216l0.281,0.414a0.812,0.812,0,0,1-.216,1.129l-2.637,1.79a0.813,0.813,0,0,1-1.129-.216l-0.281-.414A0.812,0.812,0,0,1,20.741,20.078Zm2.748,2.975,2.3-2.2a0.812,0.812,0,0,1,1.149.025l0.346,0.361a0.812,0.812,0,0,1-.025,1.149l-2.3,2.2a0.812,0.812,0,0,1-1.149-.025L23.464,24.2A0.812,0.812,0,0,1,23.489,23.053Zm3.391,2.236,2.207-2.3a0.812,0.812,0,0,1,1.149-.024L30.6,23.312a0.812,0.812,0,0,1,.024,1.149l-2.207,2.3a0.812,0.812,0,0,1-1.149.024L26.9,26.438A0.812,0.812,0,0,1,26.88,25.289Z"/>
      <path id="Rounded_Rectangle_2_copy" data-name="Rounded Rectangle 2 copy" class="cls-1" d="M44.41,31.7a2.231,2.231,0,0,0-2.244-2.394,25.217,25.217,0,0,0-6.721.665l-5.694-1.783s0.632-1.756.186-2.2-6.561-2.357-8.089-4.522-2.484-9.045-2.229-10.637-1.339-1.85-2.231-1.595a9.814,9.814,0,0,0-1-2.771,4.905,4.905,0,0,0-3.52,2.073s-8.283-.111-8.41.144,0.182,4.507.177,6.677C4.628,17.915,2.908,27.859,2.972,30.98s1.113,3.466,1.113,3.466,6.275,0.411,12.973.778c5.986,0.328,10.317,1.517,14.254,1.339C36.314,36.336,44.41,31.7,44.41,31.7ZM2.952,36.048s9.491,0.913,14.713,1.231c4.578,0.279,10.852,2,15.69,1.38,5.159-.658,12-5.69,12-5.69l1.359,2.8a12.38,12.38,0,0,1-6.416,5.106A30.621,30.621,0,0,1,28.9,42.6c-2.951,0-10.467-2.455-10.467-2.455s-0.127,1.868-.17,2c-0.134.4-7.813,0.17-11.04-.51s-3.928-1.147-4.352-1.571S2.952,36.048,2.952,36.048Zm3.2,5.414s-0.1-1.783.53-1.72,0.433,2.42.433,2.42Zm3.981,0.573s-0.1-1.783.564-1.72,0.461,2.42.461,2.42ZM14.2,42.259s-0.1-1.783.564-1.72,0.461,2.42.461,2.42Zm13.567,0.733,0.446-1.975,2.038,0.228,0.127,1.747H27.771Zm6.393,0.684,0.286-3.187,1.841-.157,0.385,2.8Zm7.321-3.354,0.178-1.706,2.043-.134,0.358,1.426ZM17.438,13.531a1,1,0,1,1-1,1A1,1,0,0,1,17.438,13.531ZM17.375,16.5a1,1,0,1,1-1,1A1,1,0,0,1,17.375,16.5Zm1.031,3.188a1,1,0,1,1-1,1A1,1,0,0,1,18.406,19.688Zm1.969,3a1,1,0,1,1-1,1A1,1,0,0,1,20.375,22.688Zm3,2a1,1,0,1,1-1,1A1,1,0,0,1,23.375,24.688Zm3,2a1,1,0,1,1-1,1A1,1,0,0,1,26.375,26.688ZM42.938,30.75a2.912,2.912,0,0,0-2.562-.812c-1.75.188-4.25,0.5-4.25,0.5s6.125-.562,5.375,1.438C41.311,32.378,42.938,30.75,42.938,30.75ZM4.844,23.719S4.031,29.5,4.625,30.781s6.25,2.156,6.25,2.156-3.95-1.863-5.086-3.684C4.849,27.746,4.778,23.782,4.844,23.719ZM5.938,9.844l0.375,0.187a65.137,65.137,0,0,1,.6,6.873C6.947,19.966,9.03,22.214,9,22.438c-0.062.469-2.406,0.063-2.937-2.25S6.781,18,5.938,9.844ZM31.281,29.5l3.469,1.313,0.469,2.063S28.969,30.469,31.281,29.5Z"/>
    </g>
  </g>
</svg>
