<svg xmlns="http://www.w3.org/2000/svg" xmlns:xlink="http://www.w3.org/1999/xlink" preserveAspectRatio="xMidYMid" width="23" height="23" viewBox="0 0 23 23">
  <defs>
    <style>

      .cls-2 {
        fill: #000000;
      }
    </style>
  </defs>
  <path d="M15.986,9.108 C17.474,7.620 19.516,5.578 21.018,4.076 C22.031,3.063 22.458,1.489 21.516,0.547 C20.574,-0.395 19.031,0.063 18.026,1.068 C16.528,2.566 14.489,4.605 12.999,6.095 C12.031,7.063 10.031,7.063 9.058,6.089 C7.575,4.606 5.549,2.580 4.053,1.085 C3.031,0.063 1.537,-0.443 0.549,0.545 C-0.439,1.533 0.031,3.063 1.052,4.083 C2.543,5.574 4.560,7.592 6.043,9.074 C7.031,10.063 7.031,12.063 6.010,13.084 C4.515,14.579 2.490,16.603 1.007,18.087 C0.031,19.062 -0.449,20.582 0.528,21.560 C1.506,22.537 3.031,22.063 3.997,21.097 C5.477,19.617 7.500,17.594 8.996,16.098 C10.031,15.062 12.031,15.062 13.002,16.033 C14.496,17.527 16.542,19.573 18.041,21.072 C19.031,22.063 20.609,22.484 21.545,21.548 C22.481,20.612 22.031,19.062 21.044,18.075 C19.556,16.587 17.529,14.560 16.037,13.068 C15.031,12.063 15.031,10.063 15.986,9.108 Z" id="path-1" class="cls-2" fill-rule="evenodd"/>
</svg>
