<svg xmlns="http://www.w3.org/2000/svg" xmlns:xlink="http://www.w3.org/1999/xlink" preserveAspectRatio="xMidYMid" width="51" height="51" viewBox="0 0 51 51">
  <defs>
    <style>
      .cls-1 {
        fill: #000;
        fill-rule: evenodd;
      }
    </style>
  </defs>
  <path d="M45.312,42.844 C45.312,42.844 45.510,46.349 43.468,48.215 C41.427,50.082 35.746,51.000 32.657,51.000 C30.126,51.000 28.299,47.940 28.299,47.940 L25.030,47.940 L25.030,45.900 L29.388,45.900 C29.388,45.900 31.498,48.715 32.657,48.960 C33.817,49.205 40.457,48.526 42.463,46.920 C44.392,45.375 43.552,40.800 43.552,40.800 C43.552,40.800 46.688,38.817 46.821,34.680 C46.937,31.063 43.552,31.620 43.552,31.620 L43.468,15.093 C43.468,15.093 42.726,10.518 37.937,6.266 C33.637,2.448 25.030,2.040 25.030,2.040 L25.030,0.000 C25.030,0.000 33.445,-0.300 38.859,4.476 C44.273,9.252 45.731,14.280 45.731,14.280 L45.731,29.580 C45.731,29.580 49.044,30.161 49.000,34.788 C48.956,39.414 45.312,42.844 45.312,42.844 Z" class="cls-1"/>
  <path d="M44.642,18.000 L40.284,15.000 L24.940,14.000 L23.940,18.786 L26.898,18.786 C26.898,18.786 30.680,24.305 35.770,25.037 C38.316,25.403 39.194,24.000 39.194,24.000 L42.284,18.000 L44.642,19.572 L44.642,18.000 Z" class="cls-1"/>
  <path d="M41.373,10.000 L42.463,10.000 L42.463,17.031 L40.216,17.031 L41.373,10.000 Z" class="cls-1"/>
  <path d="M25.070,26.518 L25.972,26.518 C25.972,26.518 35.156,32.691 34.999,33.553 C34.907,34.057 31.851,32.628 29.060,31.721 C27.078,31.077 25.070,30.915 25.070,30.915 L25.070,26.518 Z" class="cls-1"/>
  <path d="M26.030,36.720 L27.120,36.720 C27.120,36.720 29.728,38.212 31.478,40.800 C33.227,43.388 33.657,42.840 33.657,42.840 C33.657,42.840 35.105,41.782 36.925,41.820 C38.746,41.858 40.194,41.145 40.194,43.860 C40.194,46.113 34.901,46.920 33.657,46.920 C32.217,46.920 32.567,43.860 32.567,43.860 C32.567,43.860 32.332,43.472 30.388,40.800 C27.309,36.566 26.030,38.760 26.030,38.760 L26.030,36.720 Z" class="cls-1"/>
  <path d="M24.954,36.720 L26.219,36.720 C26.219,36.720 25.655,40.540 27.485,41.820 C29.315,43.100 30.015,43.860 30.015,43.860 L30.015,46.920 L24.954,46.920 L24.954,36.720 Z" class="cls-1"/>
  <path d="M8.537,46.920 C10.543,48.526 17.183,49.205 18.343,48.960 C19.502,48.715 21.612,45.900 21.612,45.900 L25.970,45.900 L25.970,47.940 L22.701,47.940 C22.701,47.940 20.874,51.000 18.343,51.000 C15.254,51.000 9.573,50.082 7.532,48.215 C5.490,46.349 5.688,42.844 5.688,42.844 C5.688,42.844 2.044,39.414 2.000,34.788 C1.956,30.161 5.269,29.580 5.269,29.580 L5.269,14.280 C5.269,14.280 6.727,9.252 12.141,4.476 C17.555,-0.300 25.970,0.000 25.970,0.000 L25.970,2.040 C25.970,2.040 17.363,2.448 13.063,6.266 C8.274,10.518 7.532,15.093 7.532,15.093 L7.448,31.620 C7.448,31.620 4.063,31.063 4.179,34.680 C4.312,38.817 7.448,40.800 7.448,40.800 C7.448,40.800 6.608,45.375 8.537,46.920 Z" class="cls-1"/>
  <path d="M6.358,18.000 L10.716,15.000 L25.060,14.000 L27.060,18.786 L24.102,18.786 C24.102,18.786 20.320,24.305 15.230,25.037 C12.684,25.403 11.806,24.000 11.806,24.000 L8.716,18.000 L6.358,19.572 L6.358,18.000 Z" class="cls-1"/>
  <path d="M9.627,10.000 L8.537,10.000 L8.537,17.031 L10.784,17.031 L9.627,10.000 Z" class="cls-1"/>
  <path d="M25.930,26.518 L25.028,26.518 C25.028,26.518 15.844,32.691 16.001,33.553 C16.093,34.057 19.149,32.628 21.940,31.721 C23.922,31.077 25.930,30.915 25.930,30.915 L25.930,26.518 Z" class="cls-1"/>
  <path d="M24.970,36.720 L23.880,36.720 C23.880,36.720 21.272,37.192 19.522,39.780 C17.773,42.368 17.343,42.840 17.343,42.840 C17.343,42.840 15.895,41.782 14.075,41.820 C12.254,41.858 10.806,41.145 10.806,43.860 C10.806,46.113 16.099,46.920 17.343,46.920 C18.783,46.920 18.433,42.840 18.433,42.840 C18.433,42.840 18.668,43.472 20.612,40.800 C23.691,36.566 24.970,38.760 24.970,38.760 L24.970,36.720 Z" class="cls-1"/>
  <path d="M26.046,36.720 L24.781,36.720 C24.781,36.720 25.345,40.540 23.515,41.820 C21.685,43.100 20.985,43.860 20.985,43.860 L20.985,46.920 L26.046,46.920 L26.046,36.720 Z" class="cls-1"/>
  <path d="M9.000,31.620 L10.000,32.640 L7.000,35.700 L6.000,34.680 L9.000,31.620 Z" class="cls-1"/>
  <path d="M11.000,33.660 L12.000,34.680 L9.000,37.740 L8.000,36.720 L11.000,33.660 Z" class="cls-1"/>
  <path d="M42.000,31.620 L41.000,32.640 L44.000,35.700 L45.000,34.680 L42.000,31.620 Z" class="cls-1"/>
  <path d="M40.000,33.660 L39.000,34.680 L42.000,37.740 L43.000,36.720 L40.000,33.660 Z" class="cls-1"/>
</svg>
