<?xml version="1.0" encoding="utf-8"?>
<!-- Generator: Adobe Illustrator 20.1.0, SVG Export Plug-In . SVG Version: 6.00 Build 0)  -->
<svg version="1.1" id="Layer_1" xmlns="http://www.w3.org/2000/svg" xmlns:xlink="http://www.w3.org/1999/xlink" x="0px" y="0px"
	 viewBox="0 0 40 28" style="enable-background:new 0 0 40 28;" xml:space="preserve">
<style type="text/css">
	.st0{opacity:0.51;}
	.st1{fill:#00B5A3;}
</style>
<g id="JI4XLs.tif_30_" class="st0">
	<g>
		<g>
			<path class="st1" d="M23.8,5.3c-0.5,2.2-0.9,4.4-1.4,6.6c-1,4.8-2.1,9.6-3.1,14.4c-0.1,0.3-0.1,0.5-0.2,0.8
				c-0.1,0.5-0.5,0.8-0.9,0.8c-0.4,0-0.8-0.3-0.9-0.8c-0.3-1.5-0.6-2.9-0.9-4.4c-0.6-3.2-1.3-6.4-1.9-9.6c0-0.1,0-0.1-0.1-0.3
				c-0.1,0.2-0.2,0.3-0.2,0.5c-0.5,1.2-1,2.4-1.5,3.6c-0.3,0.7-0.5,0.8-1.2,0.8c-3.4,0-6.8,0-10.3,0c-0.8,0-1.3-0.7-0.9-1.3
				c0.2-0.4,0.5-0.5,0.9-0.5c1.5,0,3,0,4.4,0c1.7,0,3.4,0,5.1,0c0.3,0,0.4-0.1,0.5-0.4c0.8-2.1,1.7-4.1,2.6-6.2
				c0.3-0.7,0.9-0.9,1.4-0.5c0.2,0.2,0.3,0.4,0.4,0.6c0.5,2.4,1,4.9,1.5,7.3c0.3,1.7,0.7,3.4,1,5.1c0,0.1,0.1,0.2,0.2,0.3
				c0.1-0.6,0.3-1.2,0.4-1.8c1.4-6.4,2.8-12.9,4.1-19.3c0.1-0.6,0.4-0.9,0.9-0.9c0.5,0,0.8,0.3,1,0.9c1.3,4.8,2.5,9.7,3.7,14.5
				c0.1,0.4,0.2,0.5,0.6,0.5c3,0,6,0,9,0c0.2,0,0.4,0,0.6,0c0.5,0,0.9,0.4,0.9,0.9c0,0.5-0.4,0.9-0.9,0.9c-1.3,0-2.6,0-3.9,0
				c-2.2,0-4.3,0-6.5,0c-0.9,0-1.1-0.2-1.3-1c-1-3.8-2-7.6-2.9-11.4C23.9,5.4,23.9,5.4,23.8,5.3C23.8,5.3,23.8,5.3,23.8,5.3z"/>
		</g>
	</g>
</g>
</svg>
