<svg id="curious" xmlns="http://www.w3.org/2000/svg" width="51" height="51" viewBox="0 0 51 51">
  <defs>
    <style>
      .cls-1 {
        fill-rule: evenodd;
      }
    </style>
  </defs>
  <path id="magical_wand" data-name="magical wand" class="cls-1" d="M25.5,51A25.5,25.5,0,1,1,51,25.5,25.5,25.5,0,0,1,25.5,51Zm0-49A23.5,23.5,0,1,0,40.407,43.665L28.461,30.129l1.845-1.845L43.815,40.206A23.486,23.486,0,0,0,25.5,2ZM40.956,26.089V22.953l3.751,1.568ZM24.576,38.373C24.13,38.361,22.188,28.1,21.4,27.333,20.58,26.538,10.5,24.3,10.5,24.3s10-2.266,10.711-3.042c0.8-.877,3.366-11.038,3.366-11.038s2.026,10.043,2.8,10.751c0.877,0.8,11.275,3.328,11.275,3.328s-10.33,2.181-11.108,2.971C26.75,28.066,25.02,38.384,24.576,38.373ZM24.521,22.755a1.771,1.771,0,1,0,1.771,1.771A1.771,1.771,0,0,0,24.521,22.755Zm7.425-9.282,5.861-2.405L35.4,16.929ZM24.56,4.206l1.568,3.751H22.992ZM11.068,11.068l5.862,2.405-3.456,3.456ZM16.929,35.4l-5.862,2.405,2.405-5.861Zm7.631,9.267-1.568-3.751h3.137ZM8,22.953v3.137L4.245,24.521Z"/>
</svg>
