<svg id="when_i_wake" data-name="when i wake" xmlns="http://www.w3.org/2000/svg" width="51" height="51" viewBox="0 0 51 51">
  <defs>
    <style>
      .cls-1 {
        fill-rule: evenodd;
      }
    </style>
  </defs>
  <path id="thought_bubble" data-name="thought bubble" class="cls-1" d="M48,22.126A8.274,8.274,0,0,1,36.725,29.84a6.875,6.875,0,0,1-8.178,1.906A6.879,6.879,0,0,1,16.9,29.984a8.784,8.784,0,0,1-2.462.35,8.91,8.91,0,0,1-4.334-16.7,6.8,6.8,0,0,1-.277-1.93,6.889,6.889,0,0,1,8.26-6.748A8.141,8.141,0,0,1,31.933,2.738a5.513,5.513,0,0,1,7.675,2.928,6.751,6.751,0,0,1,.7-0.036A6.878,6.878,0,0,1,45.86,16.578,8.239,8.239,0,0,1,48,22.126Zm-4.578-4.536-1.072-.875,1.009-.946a4.42,4.42,0,0,0,1.416-3.253,4.454,4.454,0,0,0-5.708-4.284l-1.35.392L37.525,7.231a3.093,3.093,0,0,0-5.1-1.92l-1.092.951L30.59,5.018a5.688,5.688,0,0,0-4.918-2.8,5.758,5.758,0,0,0-5.6,4.509L19.767,8.144l-1.341-.558a4.458,4.458,0,0,0-5.7,6.121l0.6,1.189-1.24.483A6.485,6.485,0,1,0,17.174,27.3l1.414-.66,0.288,1.533a4.459,4.459,0,0,0,8.259,1.377l0.654-1.145,1.085,0.749a4.433,4.433,0,0,0,2.529.788,4.479,4.479,0,0,0,3.863-2.236L35.86,26.68,36.9,27.254A5.852,5.852,0,0,0,43.418,17.591ZM29.855,18.769q-1.715.473-1.821,3.193H24.722a8.03,8.03,0,0,1,.769-3.725,3.747,3.747,0,0,1,2.7-1.9q1.62-.284,1.679-2.389-0.414-1.62-3.264-1.679a4.073,4.073,0,0,0-3.311,1.419l-2.365-2.365a8.261,8.261,0,0,1,2.543-1.774A9.9,9.9,0,0,1,27.3,8.954a6.6,6.6,0,0,1,4.027,1.425,4.5,4.5,0,0,1,1.9,3.778,6.265,6.265,0,0,1-.887,2.9A4.027,4.027,0,0,1,29.855,18.769Zm-3.382,4.6a1.778,1.778,0,0,1,1.325.479,1.624,1.624,0,0,1,.473,1.189A1.6,1.6,0,0,1,27.8,26.22a2.025,2.025,0,0,1-2.6,0,1.6,1.6,0,0,1-.473-1.183,1.624,1.624,0,0,1,.473-1.189A1.714,1.714,0,0,1,26.472,23.37ZM11.092,47.006a4.138,4.138,0,1,1-4.138-4.138A4.142,4.142,0,0,1,11.092,47.006Zm-5.853,0A1.716,1.716,0,1,0,6.954,45.29,1.717,1.717,0,0,0,5.238,47.006Zm3.59-9.027a4.138,4.138,0,1,1,4.138,4.138A4.142,4.142,0,0,1,8.828,37.978Zm4.138,1.716a1.716,1.716,0,1,0-1.716-1.716A1.717,1.717,0,0,0,12.966,39.694Z"/>
</svg>
