<svg xmlns="http://www.w3.org/2000/svg" width="51" height="51" viewBox="0 0 51 51">
  <defs>
    <style>
      .cls-1 {
        fill-rule: evenodd;
      }
    </style>
  </defs>
  <path id="Heart_copy_9" data-name="Heart copy 9" class="cls-1" d="M50.522,8.938C54.836,24.194,25.674,51,25.674,51s-4.221-3.846-9.236-9.44a5.938,5.938,0,0,1-6.3-7.585C1.532,22.693-5.381,8.812,5.852,2.311c11.884-6.878,19.62,4.237,19.62,4.237s6.6-9.464,16.964-5.5A5.964,5.964,0,0,1,50.522,8.938ZM14.469,37.031a2,2,0,0,0,2.828,0L18.833,35.5A2,2,0,1,0,16,32.667L14.469,34.2A2,2,0,0,0,14.469,37.031ZM25.474,9.54S17.966-2.253,7.237,3.679C-2.775,9.408,3.328,21.805,11.1,32.037a5.942,5.942,0,0,1,.542-0.663l1.536-1.536a5.981,5.981,0,0,1,7.124-.99l3.2-3.2a5.981,5.981,0,0,1,.99-7.124l3.535-3.535A5.981,5.981,0,0,1,35.149,14l2.2-2.2a5.981,5.981,0,0,1,.99-7.124L40.565,2.45C31.561-.046,25.474,9.54,25.474,9.54Zm8.208,8.278a2,2,0,0,0-2.828,0l-3.536,3.536a2,2,0,1,0,2.828,2.828l3.536-3.536A2,2,0,0,0,33.682,17.818ZM46.531,4.969a2,2,0,0,0-2.828,0L41.167,7.5A2,2,0,0,0,44,10.333L46.531,7.8A2,2,0,0,0,46.531,4.969Zm2.295,6.19-2,2a5.98,5.98,0,0,1-7.042,1.033l-2.239,2.239a5.98,5.98,0,0,1-1.033,7.042L32.975,27.01a5.98,5.98,0,0,1-7.042,1.033l-3.239,3.239a5.98,5.98,0,0,1-1.033,7.042L20.126,39.86a5.935,5.935,0,0,1-1.509,1.068C22.564,45.183,25.66,48,25.66,48S50.477,25.1,48.826,11.159Z"/>
</svg>
