<svg version="1.1" id="Layer_1" xmlns="http://www.w3.org/2000/svg" xmlns:xlink="http://www.w3.org/1999/xlink" x="0px" y="0px" viewBox="0 0 52 36.447">
<path d="M42.5,32.447c-0.234,0.05-32.17,4.011-32.5,4c-6,0-10-7-10-14c0-6,4-13,9-13
	c0.37-0.065,8.231-1.001,16.244-1.95C26.349,7.366,26.44,3.4,27.57,2.17c0.703-0.766,3.974-2.062,4.862-2.167
	c1.267-0.15,1.326,6.486,2.464,6.351c4.318-0.511,7.467-0.885,7.604-0.906c5.372-0.83,9.5,6.044,9.5,13.5
	C52,26.403,47.747,31.329,42.5,32.447z M9.5,11.447c-4.142,0-7.719,5.149-7.719,11.5s3.577,11.5,7.719,11.5s7.719-5.149,7.719-11.5
	S13.642,11.447,9.5,11.447z M22.488,28.918l-1.544,1.989l21.39-2.625l2.606-1.989L22.488,28.918z M35.426,22.949l-1.544,1.739
	l3.516-0.406l1.606-1.739L35.426,22.949z M41.363,22.199l-1.544,1.989l6.516-0.906l0.856-1.989L41.363,22.199z M9.5,30.228
	c-2.623,0-4.75-3.26-4.75-7.281s2.127-7.281,4.75-7.281s4.75,3.26,4.75,7.281S12.123,30.228,9.5,30.228z M9.5,17.447
	c-1.381,0-2.719,2.462-2.719,5.5s1.338,5.5,2.719,5.5s2.719-2.462,2.719-5.5S10.881,17.447,9.5,17.447z"/>
</svg>
