<svg xmlns="http://www.w3.org/2000/svg" width="51" height="51" viewBox="0 0 51 51">
  <defs>
    <style>
      .cls-1 {
        fill-rule: evenodd;
      }
    </style>
  </defs>
  <path id="icon_reader_feedback_frown.svg_copy" data-name="icon_reader_feedback_frown.svg copy" class="cls-1" d="M47,15c-0.873,2.62-9,6-21.5,6S5.235,17.47,4,15a13.382,13.382,0,0,1-1-5H3.056A3.88,3.88,0,0,1,3,9.5C3,4.806,11.417,0,25.5,0S48,4.806,48,9.5a3.869,3.869,0,0,1-.056.5H48A17.5,17.5,0,0,1,47,15ZM25.5,17C42,17,43,13,43.975,12.2,40.313,10.519,35.075,9,25.5,9c-9.635,0-14.915,1.538-18.542,3.234C8,13,9,17,25.5,17ZM46,9.5C46,5.91,38.479,2,25.5,2S5,5.91,5,9.5V12C7,9,15.5,7,25.5,7,35.736,7,44,9,46,12V9.5ZM25.5,25A25.5,25.5,0,0,1,51,50.5c0,0.169-.022.332-0.025,0.5h-2c0-.168.025-0.331,0.025-0.5a23.5,23.5,0,0,0-47,0c0,0.169.022,0.332,0.025,0.5h-2C0.022,50.832,0,50.669,0,50.5A25.5,25.5,0,0,1,25.5,25Zm-7,15A2.5,2.5,0,1,1,16,42.5,2.5,2.5,0,0,1,18.5,40Zm13,0A2.5,2.5,0,1,1,29,42.5,2.5,2.5,0,0,1,31.5,40Z"/>
</svg>
