<svg xmlns="http://www.w3.org/2000/svg" width="51" height="51" viewBox="0 0 51 51">
  <defs>
    <style>
      .cls-1 {
        fill-rule: evenodd;
      }
    </style>
  </defs>
  <path id="dragging" class="cls-1" d="M50.245,41.609l-1.682.907A73.752,73.752,0,0,1,32.4,45.091q-1.969.077-3.74,0.078c-9.526,0-14.7-3.327-15.515-6.656-1.217-4.959-4.115-5.865-6.591-6.824-2.145-.83-5.036-1.8-5.021-4.97a4.188,4.188,0,0,1,1.673-3.19l-0.872-4.09a1.9,1.9,0,1,1,1.036-.174l0.77,3.614a7.145,7.145,0,0,1,1.291-.58,6.272,6.272,0,0,1,2.331-.261l0.25-3.68a1.9,1.9,0,1,1,1.048.053l-0.255,3.75a11.358,11.358,0,0,1,5.516,2.867c-0.018-.3-0.05-0.6-0.05-0.9,0-8.664,7.681-15.443,16.345-15.443A15.047,15.047,0,0,1,45.79,24.13a15.887,15.887,0,0,1-5.529,12.219ZM14.8,28.69c-2.172-2.914-5.329-5.1-8.025-4.216-1.445.476-2.638,0.482-2.646,2.249-0.012,2.452,1.486,2.252,3.591,3.068,2.581,1,6.091,2.153,7.439,7.643,1.5,6.105,19.791,6.262,28.971,3.791L37.74,38.061a14.922,14.922,0,0,1-7.122,1.782,16.58,16.58,0,0,1-15.7-11.484Zm28.688-4.56c0-7.546-5.327-13.054-12.874-13.054v0.09c-7.546,0-13.866,5.418-13.866,12.964A13.6,13.6,0,0,0,21.865,34.7c-0.42-.461-0.593-0.675-0.593-0.675a14.755,14.755,0,0,1-.639-9.409,10.957,10.957,0,0,1,7.985-7.86c5.171-1.044,8.505,1.5,9.851,4.256,1.393,2.849.93,6.574-1.027,8.257-2.015,1.732-4.17,2.17-5.914,1.2a5.579,5.579,0,0,1-2.5-5.657L31.3,24.862a3.067,3.067,0,0,0,1.539,3.454,2.77,2.77,0,0,0,3.345-1.031A5.936,5.936,0,0,0,35.99,22.1c-1.083-1.879-3.254-3.309-6.567-2.831s-5.089,2.6-6.018,5.805c-1.124,3.878-.89,8.57,3.667,12.261a13.765,13.765,0,0,0,3.546.479,12.491,12.491,0,0,0,6.829-1.978l0.769-.568,0.028,0.015A13.864,13.864,0,0,0,43.492,24.13Z"/>
</svg>
