<svg xmlns="http://www.w3.org/2000/svg" xmlns:xlink="http://www.w3.org/1999/xlink" preserveAspectRatio="xMidYMid" width="60" height="60" viewBox="0 0 60 60">
  <defs>
    <style>
      .cls-1 {
        fill: #000;
        fill-rule: evenodd;
      }
    </style>
  </defs>
  <path d="M30.000,59.000 C13.984,59.000 1.000,46.016 1.000,30.000 C1.000,13.984 13.984,1.000 30.000,1.000 C46.016,1.000 59.000,13.984 59.000,30.000 C59.000,46.016 46.016,59.000 30.000,59.000 ZM30.000,4.000 C15.641,4.000 4.000,15.641 4.000,30.000 C4.000,44.359 15.641,56.000 30.000,56.000 C44.359,56.000 56.000,44.359 56.000,30.000 C56.000,15.641 44.359,4.000 30.000,4.000 ZM53.000,29.981 L51.731,29.982 C51.080,34.049 48.937,40.031 41.955,40.031 C34.841,40.031 32.976,33.823 32.516,29.756 C31.984,29.461 30.990,28.996 29.980,28.997 C29.052,28.998 28.121,29.381 27.546,29.674 C27.157,33.739 25.367,40.031 18.000,40.031 C10.836,40.031 8.769,34.078 8.192,30.012 L7.000,30.012 C6.448,30.012 6.000,29.565 6.000,29.012 L6.000,27.987 C6.000,27.435 6.448,26.988 7.000,26.988 L7.978,26.988 C7.978,26.556 7.994,26.300 7.994,26.300 C7.994,23.808 11.988,20.969 18.000,20.969 C24.012,20.969 27.600,23.808 27.600,26.300 C27.600,26.300 27.610,26.409 27.620,26.597 C28.207,26.316 29.073,25.988 29.950,25.988 C30.876,25.988 31.797,26.354 32.383,26.643 C32.391,26.422 32.400,26.300 32.400,26.300 C32.400,23.100 36.969,20.969 42.000,20.969 C47.030,20.969 52.006,23.100 52.006,26.300 C52.006,26.300 52.015,26.556 52.006,26.988 L53.000,26.988 C53.552,26.988 54.000,27.435 54.000,27.987 L54.000,28.981 C54.000,29.534 53.552,29.981 53.000,29.981 ZM24.887,26.300 C24.887,25.637 24.350,25.100 23.687,25.100 C23.687,25.100 21.004,23.994 18.000,23.994 C15.004,23.994 12.000,25.100 12.000,25.100 C11.337,25.100 10.925,25.637 10.925,26.300 C10.925,26.300 10.048,37.100 17.933,37.100 C25.988,37.100 24.887,26.300 24.887,26.300 ZM48.950,26.300 C48.950,25.637 48.538,25.100 47.875,25.100 C47.875,25.100 44.979,23.994 42.000,23.994 C38.979,23.994 36.219,25.100 36.219,25.100 C35.556,25.100 35.019,25.637 35.019,26.300 C35.019,26.300 34.042,37.100 41.955,37.100 C49.982,37.100 48.950,26.300 48.950,26.300 Z" class="cls-1"/>
</svg>
