<svg xmlns="http://www.w3.org/2000/svg" xmlns:xlink="http://www.w3.org/1999/xlink" preserveAspectRatio="xMidYMid" width="58" height="58" viewBox="0 0 58 58">
  <defs>
    
  </defs>
  <path d="M44.000,40.000 C41.000,40.000 17.000,40.000 14.000,40.000 C12.000,40.000 12.000,36.000 14.000,36.000 C16.000,35.000 16.000,33.000 14.000,32.000 C14.000,22.000 15.000,17.000 17.000,14.000 C19.000,11.000 24.000,11.000 24.000,9.000 C24.000,3.751 25.846,1.313 28.990,1.313 C32.135,1.313 34.000,4.202 34.000,9.000 C34.000,11.000 39.000,11.000 41.000,14.000 C43.008,17.012 44.000,22.000 44.000,32.000 C42.000,33.000 42.000,35.000 44.000,36.000 C46.000,36.000 46.000,40.000 44.000,40.000 ZM29.000,4.000 C27.895,4.000 27.000,4.895 27.000,6.000 C27.000,7.105 27.895,8.000 29.000,8.000 C30.105,8.000 31.000,7.105 31.000,6.000 C31.000,4.895 30.105,4.000 29.000,4.000 ZM29.000,58.000 C12.984,58.000 0.000,45.016 0.000,29.000 C0.000,12.984 12.984,0.000 29.000,0.000 C45.016,0.000 58.000,12.984 58.000,29.000 C58.000,45.016 45.016,58.000 29.000,58.000 ZM29.000,49.000 C25.219,49.000 22.835,46.526 22.000,43.000 C23.000,43.000 35.000,43.000 36.000,43.000 C35.127,46.472 32.743,49.000 29.000,49.000 Z" id="path-1" class="cls-2" fill-rule="evenodd"/>
</svg>
