<svg xmlns="http://www.w3.org/2000/svg" xmlns:xlink="http://www.w3.org/1999/xlink" preserveAspectRatio="xMidYMid" width="51" height="51" viewBox="0 0 51 51">
  <defs>
    <style>
      .cls-1 {
        fill: #000;
        fill-rule: evenodd;
      }
    </style>
  </defs>
  <path d="M25.500,51.000 C11.417,51.000 0.000,39.583 0.000,25.500 C0.000,11.417 11.417,-0.000 25.500,-0.000 C39.583,-0.000 51.000,11.417 51.000,25.500 C51.000,39.583 39.583,51.000 25.500,51.000 ZM25.500,2.000 C12.521,2.000 2.000,12.521 2.000,25.500 C2.000,38.479 12.521,49.000 25.500,49.000 C38.479,49.000 49.000,38.479 49.000,25.500 C49.000,12.521 38.479,2.000 25.500,2.000 ZM25.406,39.000 C20.013,39.000 15.298,36.144 12.655,31.872 L14.485,31.035 C16.799,34.620 20.821,37.000 25.406,37.000 C29.922,37.000 33.896,34.696 36.227,31.201 L38.033,32.077 C35.366,36.236 30.714,39.000 25.406,39.000 ZM31.500,20.000 C30.119,20.000 29.000,18.881 29.000,17.500 C29.000,16.119 30.119,15.000 31.500,15.000 C32.881,15.000 34.000,16.119 34.000,17.500 C34.000,18.881 32.881,20.000 31.500,20.000 ZM18.500,20.000 C17.119,20.000 16.000,18.881 16.000,17.500 C16.000,16.119 17.119,15.000 18.500,15.000 C19.881,15.000 21.000,16.119 21.000,17.500 C21.000,18.881 19.881,20.000 18.500,20.000 Z" class="cls-1"/>
</svg>
