<svg xmlns="http://www.w3.org/2000/svg" xmlns:xlink="http://www.w3.org/1999/xlink" preserveAspectRatio="xMidYMid" width="58" height="58" viewBox="0 0 58 58">
  <defs>
    
  </defs>
  <path d="M29.000,58.000 C12.984,58.000 -0.000,45.016 -0.000,29.000 C-0.000,12.984 12.984,-0.000 29.000,-0.000 C45.016,-0.000 58.000,12.984 58.000,29.000 C58.000,45.016 45.016,58.000 29.000,58.000 ZM16.963,43.981 C16.963,45.638 18.306,46.981 19.963,46.981 C19.963,46.981 36.975,46.981 36.975,46.981 C38.632,46.981 39.975,45.638 39.975,43.981 C39.975,43.981 39.975,19.981 39.975,19.981 C39.975,19.981 16.963,19.981 16.963,19.981 C16.963,19.981 16.963,43.981 16.963,43.981 ZM41.981,14.956 C41.981,13.852 41.086,12.956 39.981,12.956 C39.981,12.956 34.000,12.948 34.000,12.948 C34.000,12.948 34.000,12.000 34.000,12.000 C34.000,10.343 32.657,9.000 31.000,9.000 C31.000,9.000 26.000,9.000 26.000,9.000 C24.343,9.000 23.000,10.343 23.000,12.000 C23.000,12.000 23.000,12.933 23.000,12.933 C23.000,12.933 16.987,12.925 16.987,12.925 C15.883,12.925 14.987,13.820 14.987,14.925 C14.987,14.925 14.987,17.975 14.987,17.975 C14.987,17.975 41.981,17.975 41.981,17.975 C41.981,17.975 41.981,14.956 41.981,14.956 ZM26.719,10.981 C26.719,10.981 30.187,10.981 30.187,10.981 C30.629,10.981 30.987,11.339 30.987,11.781 C30.987,11.781 30.987,12.925 30.987,12.925 C30.987,12.925 25.919,12.925 25.919,12.925 C25.919,12.925 25.919,11.781 25.919,11.781 C25.919,11.339 26.277,10.981 26.719,10.981 ZM34.738,42.406 C34.738,42.406 34.263,42.406 34.263,42.406 C33.600,42.406 33.063,41.869 33.063,41.206 C33.063,41.206 33.063,25.200 33.063,25.200 C33.063,24.537 33.600,24.000 34.263,24.000 C34.263,24.000 34.738,24.000 34.738,24.000 C35.400,24.000 35.938,24.537 35.938,25.200 C35.938,25.200 35.938,41.206 35.938,41.206 C35.938,41.869 35.400,42.406 34.738,42.406 ZM28.750,42.400 C28.750,42.400 28.219,42.400 28.219,42.400 C27.556,42.400 27.019,41.863 27.019,41.200 C27.019,41.200 27.019,25.200 27.019,25.200 C27.019,24.537 27.556,24.000 28.219,24.000 C28.219,24.000 28.750,24.000 28.750,24.000 C29.413,24.000 29.950,24.537 29.950,25.200 C29.950,25.200 29.950,41.200 29.950,41.200 C29.950,41.863 29.413,42.400 28.750,42.400 ZM22.800,42.406 C22.800,42.406 22.231,42.406 22.231,42.406 C21.569,42.406 21.031,41.869 21.031,41.206 C21.031,41.206 21.031,25.200 21.031,25.200 C21.031,24.537 21.569,24.000 22.231,24.000 C22.231,24.000 22.800,24.000 22.800,24.000 C23.463,24.000 24.000,24.537 24.000,25.200 C24.000,25.200 24.000,41.206 24.000,41.206 C24.000,41.869 23.463,42.406 22.800,42.406 Z" id="path-1" class="cls-2" fill-rule="evenodd"/>
</svg>
