<svg xmlns="http://www.w3.org/2000/svg" xmlns:xlink="http://www.w3.org/1999/xlink" preserveAspectRatio="xMidYMid" width="5" height="21" viewBox="0 0 5 21">
  <defs>
    
  </defs>
  <path d="M2.500,13.000 C1.119,13.000 0.000,11.881 0.000,10.500 C0.000,9.119 1.119,8.000 2.500,8.000 C3.881,8.000 5.000,9.119 5.000,10.500 C5.000,11.881 3.881,13.000 2.500,13.000 ZM2.500,5.000 C1.119,5.000 0.000,3.881 0.000,2.500 C0.000,1.119 1.119,0.000 2.500,0.000 C3.881,0.000 5.000,1.119 5.000,2.500 C5.000,3.881 3.881,5.000 2.500,5.000 ZM2.500,16.000 C3.881,16.000 5.000,17.119 5.000,18.500 C5.000,19.881 3.881,21.000 2.500,21.000 C1.119,21.000 0.000,19.881 0.000,18.500 C0.000,17.119 1.119,16.000 2.500,16.000 Z" id="path-1" class="cls-2" fill-rule="evenodd"/>
</svg>
