<svg xmlns="http://www.w3.org/2000/svg" width="26" height="26" viewBox="0 0 26 26">
  <defs>
    <style>
      .cls-1 {
        fill-rule: evenodd;
      }
    </style>
  </defs>
  <path id="Line_Height_" data-name="Line Height " class="cls-1" d="M12,25V23H26v2H12Zm0-13H26v2H12V12ZM12,1H26V3H12V1ZM8.6,19.006a0.445,0.445,0,0,1,.385.683c-0.156.272-3.7,5.71-3.97,6.174a0.443,0.443,0,0,1-.774,0c-0.2-.334-3.884-5.792-4.1-6.188a0.442,0.442,0,0,1,.383-0.669H4V6.994H0.524A0.442,0.442,0,0,1,.141,6.325c0.219-.4,3.907-5.854,4.1-6.188a0.444,0.444,0,0,1,.774,0c0.269,0.464,3.815,5.9,3.97,6.174a0.445,0.445,0,0,1-.385.683H5V19.006H8.6Z"/>
</svg>
