<svg xmlns="http://www.w3.org/2000/svg" width="51" height="51" viewBox="0 0 51 51">
  <defs>
    <style>
      .cls-1 {
        fill-rule: evenodd;
      }
    </style>
  </defs>
  <path id="icon_reader_feedback_feels.svg" class="cls-1" d="M25.5,51A25.5,25.5,0,1,1,51,25.5,25.5,25.5,0,0,1,25.5,51Zm0-49A23.5,23.5,0,1,0,49,25.5,23.5,23.5,0,0,0,25.5,2ZM31,19c-1.1,0-2-2.015-2-4.5S29.9,10,31,10s2,2.015,2,4.5S32.1,19,31,19ZM19,19c-1.1,0-2-2.015-2-4.5S17.9,10,19,10s2,2.015,2,4.5S20.1,19,19,19Z"/>
</svg>
