<svg xmlns="http://www.w3.org/2000/svg" width="72" height="28" viewBox="0 0 72 28">
  <defs>
    <style>
      .cls-1 {
        fill-rule: evenodd;
      }
    </style>
  </defs>
  <path id="Glasses_icon_merged" data-name="Glasses icon merged" class="cls-1" d="M70,15H67.95a13.986,13.986,0,0,1-27.935-.718A8.081,8.081,0,0,0,36,13a8.22,8.22,0,0,0-4.014,1.288A13.986,13.986,0,0,1,4.05,15H2a1.5,1.5,0,1,1,0-3H4.159a13.986,13.986,0,0,1,27.594-.574A8.232,8.232,0,0,1,35.957,10a8.445,8.445,0,0,1,4.289,1.431A13.986,13.986,0,0,1,67.841,12H70A1.5,1.5,0,1,1,70,15ZM18,3A11,11,0,1,0,29,14,11,11,0,0,0,18,3ZM54,3A11,11,0,1,0,65,14,11,11,0,0,0,54,3Z"/>
</svg>
