<svg xmlns="http://www.w3.org/2000/svg" xmlns:xlink="http://www.w3.org/1999/xlink" preserveAspectRatio="xMidYMid" width="58" height="58" viewBox="0 0 58 58">
  <defs>
    <style>

      .cls-2 {
        fill: #000000;
      }
    </style>
  </defs>
  <path d="M29.000,58.000 C12.984,58.000 -0.000,45.016 -0.000,29.000 C-0.000,12.984 12.984,-0.000 29.000,-0.000 C45.016,-0.000 58.000,12.984 58.000,29.000 C58.000,45.016 45.016,58.000 29.000,58.000 ZM12.000,32.000 C12.000,41.031 19.047,48.396 27.939,48.946 C27.945,45.004 27.963,30.857 27.925,29.977 C20.435,29.996 19.235,25.650 19.041,20.844 C14.778,22.778 12.000,26.333 12.000,32.000 ZM35.000,11.000 C32.000,11.000 31.000,13.000 31.000,16.000 C31.000,16.466 31.000,16.839 31.000,17.171 C30.324,17.060 29.647,17.000 29.000,17.000 C28.357,17.000 27.679,17.061 27.000,17.174 C27.000,16.840 27.000,16.467 27.000,16.000 C27.000,13.000 26.000,11.000 23.000,11.000 C20.000,11.000 19.000,14.000 19.000,16.000 C20.000,16.000 20.000,16.000 21.000,16.000 C21.000,14.000 22.000,13.000 23.000,13.000 C24.000,13.000 25.000,14.000 25.000,16.000 C25.000,16.678 25.000,17.232 25.000,17.680 C23.567,18.173 22.278,18.926 21.481,19.947 C21.326,19.991 21.177,20.044 21.025,20.091 C21.160,24.304 22.124,28.000 29.000,28.000 C35.155,28.000 36.670,24.906 36.946,20.081 C36.841,20.049 36.739,20.011 36.633,19.980 C35.771,18.935 34.453,18.170 33.000,17.674 C33.000,17.227 33.000,16.675 33.000,16.000 C33.000,14.000 34.000,13.000 35.000,13.000 C36.000,13.000 37.000,14.000 37.000,16.000 C38.000,16.000 38.000,16.000 39.000,16.000 C39.000,14.000 38.000,11.000 35.000,11.000 ZM38.954,20.841 C38.746,25.658 37.492,29.997 29.920,29.981 C29.962,30.860 29.968,45.063 29.969,48.951 C38.904,48.446 46.000,41.062 46.000,32.000 C46.000,26.331 43.220,22.775 38.954,20.841 Z" id="path-1" class="cls-2" fill-rule="evenodd"/>
</svg>
