<svg xmlns="http://www.w3.org/2000/svg" width="51" height="51" viewBox="0 0 51 51">
  <defs>
    <style>
      .cls-1 {
        fill-rule: evenodd;
      }
    </style>
  </defs>
  <path id="merged" class="cls-1" d="M50.258,20.187c-1.376,1.376-3.442,1.712-6.9-.419-3.629,1.852-8.709,7.808-10.051,11.813,3.59,4.895,5.228,8.988,3.819,10.4-1.894,1.894-6.856-3.476-13.542-10.273C14.9,40.338-.074,51.036-0.074,51.036s10.7-14.974,19.33-23.658C12.459,20.692,7.089,15.73,8.983,13.836c1.41-1.409,5.5.229,10.4,3.819,4-1.342,9.961-6.422,11.813-10.051C29.063,4.146,29.4,2.079,30.775.7c2.092-2.092,3.594.347,11.365,8.118S52.35,18.095,50.258,20.187Z"/>
</svg>
