<svg xmlns="http://www.w3.org/2000/svg" width="38" height="50" viewBox="0 0 38 50">
  <metadata><?xpacket begin="﻿" id="W5M0MpCehiHzreSzNTczkc9d"?>
<x:xmpmeta xmlns:x="adobe:ns:meta/" x:xmptk="Adobe XMP Core 5.6-c140 79.160451, 2017/05/06-01:08:21        ">
   <rdf:RDF xmlns:rdf="http://www.w3.org/1999/02/22-rdf-syntax-ns#">
      <rdf:Description rdf:about=""/>
   </rdf:RDF>
</x:xmpmeta>
                                                                                                    
                                                                                                    
                                                                                                    
                                                                                                    
                                                                                                    
                                                                                                    
                                                                                                    
                                                                                                    
                                                                                                    
                                                                                                    
                                                                                                    
                                                                                                    
                                                                                                    
                                                                                                    
                                                                                                    
                                                                                                    
                                                                                                    
                                                                                                    
                                                                                                    
                                                                                                    
                           
<?xpacket end="w"?></metadata>
<defs>
    <style>
      .cls-1 {
        fill-rule: evenodd;
      }
    </style>
  </defs>
  <path id="Excalamations" class="cls-1" d="M37.888,15.389C37.06,20.409,31.919,32.621,28.156,32s-4.722-13.838-3.895-18.858c0.588-3.565,4.233-6.669,8-6.048S38.476,11.824,37.888,15.389ZM27.645,35.064a4,4,0,1,1-4.595,3.294A4,4,0,0,1,27.645,35.064ZM11.813,35C6.586,35.456.669,17.856,0.06,10.883-0.372,5.931,3.428.551,8.655,0.095s9.9,4.185,10.333,9.136C19.6,16.2,17.039,34.544,11.813,35Zm0.232,3.947a5.5,5.5,0,1,1-5,5.957A5.5,5.5,0,0,1,12.045,38.947Z"/>
</svg>
