<?xml version="1.0" encoding="utf-8"?>
<!-- Generator: Adobe Illustrator 22.0.1, SVG Export Plug-In . SVG Version: 6.00 Build 0)  -->
<svg version="1.1" id="Layer_1" xmlns="http://www.w3.org/2000/svg" xmlns:xlink="http://www.w3.org/1999/xlink" x="0px" y="0px"
	 viewBox="0 0 26 26" enable-background="new 0 0 26 26" xml:space="preserve">
<g>
	<path d="M16.1,10.7l0.2-1.9h-0.1l-1,1.7l-2,3.4h-0.5l-2.1-3.4L9.7,8.8H9.6l0.2,1.9V20H8.2V6h1.5l3.3,5.3h0L16.3,6h1.5v14h-1.7V10.7
		z"/>
</g>
<polygon points="18.1,1.3 18.1,0 26,0 26,7.9 24.7,7.9 24.7,1.3 "/>
<polygon points="1.3,7.9 0,7.9 0,0 7.9,0 7.9,1.3 1.3,1.3 "/>
<polygon points="7.9,24.7 7.9,26 0,26 0,18.1 1.3,18.1 1.3,24.7 "/>
<polygon points="24.7,18.1 26,18.1 26,26 18.1,26 18.1,24.7 24.7,24.7 "/>
</svg>
