<svg id="bros" xmlns="http://www.w3.org/2000/svg" width="51" height="51" viewBox="0 0 51 51">
  <defs>
    <style>
      .cls-1 {
        fill-rule: evenodd;
      }
    </style>
  </defs>
  <path id="motivation" class="cls-1" d="M45.918,8.4a4.069,4.069,0,0,1-2.382.766h0A4.094,4.094,0,1,1,45.918,8.4Zm-0.71-4.528a2.067,2.067,0,0,0-1.677-.86,2.061,2.061,0,0,0-1.672,3.261,2.067,2.067,0,0,0,1.677.86h0A2.061,2.061,0,0,0,45.209,3.874Zm-5.816,9.9a19.581,19.581,0,0,0-1.925,1.486,6.645,6.645,0,0,1,2.3,4.371,1.017,1.017,0,0,1-.922,1.1c-0.031,0-.062,0-0.092,0a1.017,1.017,0,0,1-1.012-.925A4.739,4.739,0,0,0,36,16.683a6.952,6.952,0,0,0-1.886,3.206,1.017,1.017,0,0,1-2.006-.335A8.615,8.615,0,0,1,34.3,15.527a11.062,11.062,0,0,0-1.9-.8,1.017,1.017,0,0,1,.547-1.959,12.919,12.919,0,0,1,2.841,1.262,22.371,22.371,0,0,1,2.493-1.959A1.017,1.017,0,0,1,39.393,13.773Zm2.54,13.067L40.285,28.2a1.017,1.017,0,0,1-1.293-1.57l3.6-2.969a1.017,1.017,0,0,1,1.532.285l2.426,4.293a1.017,1.017,0,0,1-1.77,1l-0.945-1.673A9.956,9.956,0,0,1,40.5,32.5c-3.143,2.584-7.9,3.8-11.82,3.8a16.011,16.011,0,0,1-2.247-.168A4.039,4.039,0,0,1,22.7,38.6h0a4.094,4.094,0,1,1,3.326-6.479,4.048,4.048,0,0,1,.731,2.012c3.67,0.5,9.158-.489,12.45-3.2A7.859,7.859,0,0,0,41.933,26.839ZM24.377,33.3a2.067,2.067,0,0,0-1.677-.86A2.061,2.061,0,0,0,21.027,35.7a2.067,2.067,0,0,0,1.677.86h0A2.061,2.061,0,0,0,24.377,33.3ZM24.318,21.836a19.546,19.546,0,0,0,2.421,1.991A1.017,1.017,0,0,1,25.6,25.511,21.416,21.416,0,0,1,23.006,23.4c-0.632.741-1.24,1.435-1.734,1.966a1.017,1.017,0,0,1-1.489-1.385c0.5-.535,1.125-1.255,1.779-2.023-1.311-1.387-2.216-2.549-2.284-2.637a1.017,1.017,0,0,1,1.609-1.243c0.015,0.02.819,1.051,1.993,2.31,1.369-1.649,2.553-3.124,2.573-3.15a1.017,1.017,0,0,1,1.587,1.272C26.952,18.616,25.72,20.151,24.318,21.836Zm-4.359-11.6a1.017,1.017,0,0,1-1.808-.931l1.111-2.157A11.948,11.948,0,0,0,11.416,13.4a4.188,4.188,0,1,1-1.744-1.043,13.909,13.909,0,0,1,7.9-6.8l-1.386-.43a1.017,1.017,0,1,1,.6-1.942L21.5,4.653a1.017,1.017,0,0,1,.6,1.437Zm-9.448,5.555a2.054,2.054,0,0,0-2-1.579A2.062,2.062,0,0,0,6.5,16.759a2.053,2.053,0,0,0,2,1.579,2.085,2.085,0,0,0,.485-0.058A2.061,2.061,0,0,0,10.511,15.795ZM5.2,31.307c0.015,0.02.819,1.051,1.993,2.31,1.369-1.649,2.553-3.124,2.574-3.15a1.017,1.017,0,0,1,1.587,1.272c-0.088.11-1.32,1.645-2.722,3.33a19.551,19.551,0,0,0,2.421,1.991,1.017,1.017,0,0,1-1.139,1.685,21.423,21.423,0,0,1-2.594-2.116c-0.632.741-1.24,1.435-1.734,1.966A1.017,1.017,0,0,1,4.091,37.21c0.5-.535,1.125-1.255,1.779-2.023C4.558,33.8,3.654,32.638,3.586,32.55A1.017,1.017,0,0,1,5.2,31.307ZM20.318,42.6A4.094,4.094,0,1,1,22.7,50.02h0A4.094,4.094,0,0,1,20.318,42.6Zm0.71,4.528a2.067,2.067,0,0,0,1.677.86h0a2.061,2.061,0,0,0,1.672-3.261,2.067,2.067,0,0,0-1.677-.86A2.061,2.061,0,0,0,21.027,47.126Zm16.615-9.6a12.921,12.921,0,0,1,2.841,1.262,22.379,22.379,0,0,1,2.493-1.959,1.017,1.017,0,0,1,1.114,1.7,19.593,19.593,0,0,0-1.925,1.486,6.646,6.646,0,0,1,2.3,4.371,1.017,1.017,0,0,1-.922,1.1c-0.031,0-.062,0-0.092,0a1.017,1.017,0,0,1-1.011-.925,4.738,4.738,0,0,0-1.74-3.13,6.952,6.952,0,0,0-1.886,3.206,1.017,1.017,0,0,1-2.006-.335A8.615,8.615,0,0,1,39,40.289a11.066,11.066,0,0,0-1.9-.8A1.017,1.017,0,0,1,37.643,37.531Z"/>
</svg>
