<svg xmlns="http://www.w3.org/2000/svg" xmlns:xlink="http://www.w3.org/1999/xlink" preserveAspectRatio="xMidYMid" width="46" height="39" viewBox="0 0 46 39">
  <defs>
    <style>
      .cls-1 {
        fill: #000;
        fill-rule: evenodd;
      }
    </style>
  </defs>
  <path d="M46.000,27.000 C46.000,33.627 40.627,39.000 34.000,39.000 C29.957,39.000 26.389,36.994 24.215,33.931 C21.335,37.036 19.147,39.054 19.147,39.054 C19.147,39.054 -11.001,11.586 4.365,2.680 C13.227,-2.458 18.997,5.845 18.997,5.845 C18.997,5.845 24.766,-2.458 33.629,2.680 C38.532,5.522 38.821,10.255 36.955,15.382 C42.151,16.700 46.000,21.394 46.000,27.000 ZM32.282,4.066 C24.482,-0.348 18.998,8.311 18.998,8.311 C18.998,8.311 13.511,-0.322 5.669,4.020 C-7.000,12.000 19.134,36.469 19.134,36.469 C19.134,36.469 20.874,34.820 23.223,32.252 C22.447,30.664 22.000,28.886 22.000,27.000 C22.000,20.373 27.373,15.000 34.000,15.000 C34.299,15.000 34.592,15.023 34.885,15.045 C36.459,10.608 36.240,6.536 32.282,4.066 ZM34.000,17.000 C28.477,17.000 24.000,21.477 24.000,27.000 C24.000,32.523 28.477,37.000 34.000,37.000 C39.523,37.000 44.000,32.523 44.000,27.000 C44.000,21.477 39.523,17.000 34.000,17.000 ZM39.938,28.000 L35.000,28.000 L35.000,33.000 C35.000,33.552 34.552,34.000 34.000,34.000 C33.448,34.000 33.000,33.552 33.000,33.000 L33.000,28.000 L27.937,28.000 C27.385,28.000 26.937,27.552 26.937,27.000 C26.937,26.448 27.385,26.000 27.937,26.000 L33.000,26.000 L33.000,21.000 C33.000,20.448 33.448,20.000 34.000,20.000 C34.552,20.000 35.000,20.448 35.000,21.000 L35.000,26.000 L39.938,26.000 C40.490,26.000 40.938,26.448 40.938,27.000 C40.938,27.552 40.490,28.000 39.938,28.000 Z" class="cls-1"/>
</svg>
