<svg xmlns="http://www.w3.org/2000/svg" width="26" height="26" viewBox="0 0 26 26">
  <defs>
    <style>
      .cls-1 {
        fill-rule: evenodd;
      }
    </style>
  </defs>
  <path id="icon_admin_add_ms_access.svg" class="cls-1" d="M13.023,26C11.375,24.326,6,22,0,22V0C9,0,11.375,1.73,12.977,3.4,14.625,1.73,17,0,26,0V22C20,22,14.625,24.326,13.023,26ZM12,5.281C9.55,2.755,6,2,2,2V20c4,0,6.727,1.759,10,3C12,22.567,11.987,6.1,12,5.281ZM24,2c-4,0-7.55.755-10,3.281C14.013,6.1,14,22.567,14,23c3.273-1.241,6-3,10-3V2Z"/>
</svg>
