<svg xmlns="http://www.w3.org/2000/svg" xmlns:xlink="http://www.w3.org/1999/xlink" preserveAspectRatio="xMidYMid" width="58" height="58" viewBox="0 0 58 58">
  <defs>

  </defs>
  <path d="M29.000,58.000 C12.984,58.000 -0.000,45.016 -0.000,29.000 C-0.000,12.984 12.984,0.000 29.000,0.000 C45.016,0.000 58.000,12.984 58.000,29.000 C58.000,45.016 45.016,58.000 29.000,58.000 ZM13.000,15.000 C13.000,16.000 13.000,41.000 13.000,42.000 C18.248,40.251 25.026,42.327 28.000,44.213 C28.000,44.213 28.000,17.239 28.000,17.239 C25.086,15.346 18.273,13.242 13.000,15.000 ZM45.000,15.000 C39.752,13.251 32.973,15.327 30.000,17.213 C30.000,17.213 30.000,44.266 30.000,44.266 C33.060,42.366 40.585,40.234 45.000,42.000 C45.000,41.000 45.000,16.000 45.000,15.000 Z" id="path-1" class="cls-2" fill-rule="evenodd"/>
</svg>
