<svg id="Batch_03" data-name="Batch 03" xmlns="http://www.w3.org/2000/svg" width="100" height="100" viewBox="0 0 100 100">
  <metadata><?xpacket begin="﻿" id="W5M0MpCehiHzreSzNTczkc9d"?>
<x:xmpmeta xmlns:x="adobe:ns:meta/" x:xmptk="Adobe XMP Core 5.6-c140 79.160451, 2017/05/06-01:08:21        ">
   <rdf:RDF xmlns:rdf="http://www.w3.org/1999/02/22-rdf-syntax-ns#">
      <rdf:Description rdf:about=""/>
   </rdf:RDF>
</x:xmpmeta>
                                                                                                    
                                                                                                    
                                                                                                    
                                                                                                    
                                                                                                    
                                                                                                    
                                                                                                    
                                                                                                    
                                                                                                    
                                                                                                    
                                                                                                    
                                                                                                    
                                                                                                    
                                                                                                    
                                                                                                    
                                                                                                    
                                                                                                    
                                                                                                    
                                                                                                    
                                                                                                    
                           
<?xpacket end="w"?></metadata>
<defs>
    <style>
      .cls-1 {
        fill-rule: evenodd;
      }
    </style>
  </defs>
  <g id="lyreheartFlower">
    <g id="A">
      <path id="Ellipse_2_copy" data-name="Ellipse 2 copy" class="cls-1" d="M102.779,18.2a87.7,87.7,0,0,0-12.93-1.457c-6.556-.182-36.241-1.457-41.522-4.553S31.572,0.9,31.572.175c0-.354-1.779-0.193-1.185,3.323-2.919-.051-0.845,4.663.092,5.6C32.3,10.92,43.045,18.386,55.429,20.572s45.164,2.732,47.532,4.371S102.779,18.2,102.779,18.2ZM33,12l5,3a11.908,11.908,0,0,0-2.693,6.442A28.336,28.336,0,0,1,34,29l-3-4ZM67.585,44.246S70.863,33.32,77.146,34s12.566,5.327,11.883,15.434S68.268,75.661,68.268,75.661s-20.214-13.932-20.624-25.4,6.281-15.571,10.107-15.571C65.4,34.685,67.585,44.246,67.585,44.246ZM34.259,32.5s0.751-7.034,6.761-7.034,9.493,7.854,9.493,9.493c0,0.805-3.861,3.664-4.573,10.233-0.614,5.666-11.271,12.3-11.271,12.3S19.092,45.543,18.961,34.754c-0.068-5.638,4.165-9.778,7.524-9.778C32.621,24.976,34.259,32.5,34.259,32.5ZM68,76l4-3s-2.061,2.742-2,4c0.126,2.624,4.141,4.876,3.731,12.593C73.608,91.911,71,96.012,68,96.012S61.029,93.144,61.029,87,67.741,77.28,66,75a6.319,6.319,0,0,0-2-2ZM31.117,55.261l3.864,3.466,4.058-3.51s-2.185,3.1-2.049,4.463S40.4,65.554,40.4,70.607s-3.688,8.058-5.19,8.058-5.19-2.459-5.19-8.468,3.688-7.922,3.688-9.971S31.117,55.261,31.117,55.261ZM67,23s0.312,10.183.244,12.163a15.492,15.492,0,0,1-.888,4.166l1.434,2.663,2.663-5.4s0.751-8.878,1.3-10.858S75,23,75,23H67Zm0.129,67.7a7.588,7.588,0,0,0,1.551-4.99C68.416,83.125,68,77.55,68,77a67.288,67.288,0,0,0-2,7C65.424,86.521,67,90.808,67.129,90.7ZM35.254,73.817a16.313,16.313,0,0,0,1.122-5.463c-0.135-2.254-1.03-8.771-1.03-8.771A69.348,69.348,0,0,0,34.8,67.6C34.94,69.993,35.254,73.817,35.254,73.817Z"/>
    </g>
  </g>
</svg>
