<svg xmlns="http://www.w3.org/2000/svg" width="28" height="28" viewBox="0 0 28 28">
  <defs>
    <style>
      .cls-1 {
        fill-rule: evenodd;
      }
    </style>
  </defs>
  <path id="icon_emoji.svg" class="cls-1" d="M14,28A14,14,0,1,1,28,14,14,14,0,0,1,14,28ZM14,2A12,12,0,1,0,26,14,12,12,0,0,0,14,2Zm7.236,14.612C17.546,24.47,8.059,19.993,7,19c0.53,0.191,11.319,3.652,12.45-3.53a5.283,5.283,0,0,0-2.263-.813C21.626,12.292,23,15,23,18ZM16,11a2,2,0,1,1,2-2A2,2,0,0,1,16,11ZM8,11a2,2,0,1,1,2-2A2,2,0,0,1,8,11Z"/>
</svg>
