<svg xmlns="http://www.w3.org/2000/svg" width="51" height="51" viewBox="0 0 51 51">
  <defs>
    <style>
      .cls-1 {
        fill-rule: evenodd;
      }
    </style>
  </defs>
  <path id="Zz_copy" data-name="Zz copy" class="cls-1" d="M39.864,16H46a1,1,0,0,1,0,2H37a2.151,2.151,0,0,1-2-2c0-1,4.312-6,8.312-11.932A1.223,1.223,0,0,0,42.265,2H36a1,1,0,1,1,0-2h9a2.151,2.151,0,0,1,2,2c0,1-5.125,8-8.261,11.921C36.994,16.1,38.875,16,39.864,16Zm-31,33H29a1,1,0,1,1,0,2H6a2.151,2.151,0,0,1-2-2c0-1,18.125-29,22.124-34.932A1.223,1.223,0,0,0,25.077,12H5a1,1,0,1,1,0-2H28a2.151,2.151,0,0,1,2,2c0,1-19.125,31-22.262,34.921C5.994,49.1,7.875,49,8.864,49Z"/>
</svg>
