<svg xmlns="http://www.w3.org/2000/svg" width="51" height="51" viewBox="0 0 51 51">
  <defs>
    <style>
      .cls-1 {
        fill-rule: evenodd;
      }
    </style>
  </defs>
  <path id="merged" class="cls-1" d="M50.692,14.923l-1.962-.49A12.148,12.148,0,0,0,48.582,10h2.154A14.559,14.559,0,0,1,50.692,14.923ZM44.607,4.376l1.406-1.441a11.638,11.638,0,0,1,3.015,2.951L47.1,6.749A10.282,10.282,0,0,0,44.607,4.376Zm-1.782,27.11-1.367-1.467c0.936-1.332,1.832-2.688,2.655-4.053l1.546,1.19C44.778,28.615,43.823,30.064,42.825,31.486ZM38.2,2.049l-0.2-1.963a14.259,14.259,0,0,1,4.457.967l-1,1.7A11.66,11.66,0,0,0,38.2,2.049Zm2.123,32.835c-0.965,1.257-1.946,2.471-2.921,3.64l-1.359-1.54c0.945-1.121,1.9-2.29,2.841-3.5ZM29.643,2.584A14.7,14.7,0,0,1,34.253.465l0.993,1.826a13.2,13.2,0,0,0-4.355,1.872ZM22.249,47.693L23.461,45.9c1.358,1.334,2.2,2.1,2.2,2.1s0.76-.705,2-1.931l1.221,1.808c-1.947,1.964-3.2,3.123-3.2,3.123S24.326,49.774,22.249,47.693ZM22.619,6.2l1.3-1.442a15.091,15.091,0,0,1,1.552,1.786,15.165,15.165,0,0,1,1.581-1.815l1.3,1.44a19.8,19.8,0,0,0-2.878,3.368A19.816,19.816,0,0,0,22.619,6.2ZM15.75,2.3L16.74,0.478a14.737,14.737,0,0,1,4.6,2.131L20.086,4.193A13.43,13.43,0,0,0,15.75,2.3ZM10.777,34.782l1.412-1.376c0.945,1.2,1.9,2.362,2.854,3.476L13.705,38.4C12.727,37.235,11.744,36.029,10.777,34.782ZM9.494,2.688L8.524,1.034A14.221,14.221,0,0,1,12.992.083L12.8,2.024A11.753,11.753,0,0,0,9.494,2.688ZM8.26,31.394c-1-1.411-1.959-2.848-2.844-4.3l1.51-1.163c0.828,1.355,1.731,2.7,2.672,4.022ZM1.936,5.869A11.572,11.572,0,0,1,4.965,2.912L6.316,4.3A10.3,10.3,0,0,0,3.806,6.708Zm0.292,8.574-1.915.479A14.507,14.507,0,0,1,.237,10h2.1A12.2,12.2,0,0,0,2.228,14.443Zm2.691,7.908-1.5,1.22a39.1,39.1,0,0,1-1.874-4.189l1.769-.707A34.184,34.184,0,0,0,4.919,22.351ZM20.84,43.256L19.534,44.9c-0.992-1.045-2.054-2.19-3.158-3.426l1.358-1.536C18.834,41.154,19.885,42.268,20.84,43.256Zm13.908-1.639c-1.1,1.247-2.165,2.4-3.153,3.449L30.276,43.4c0.949-.993,2-2.115,3.1-3.342ZM49.491,19.4a39.007,39.007,0,0,1-1.856,4.218L46.1,22.364a34.041,34.041,0,0,0,1.581-3.693Z"/>
</svg>
