<svg xmlns="http://www.w3.org/2000/svg" width="51" height="51" viewBox="0 0 51 51">
  <defs>
    <style>
      .cls-1 {
        fill-rule: evenodd;
      }
    </style>
  </defs>
  <path id="willow" class="cls-1" d="M50.021,40.093a0.985,0.985,0,0,1-.985-0.985V14.9A11,11,0,0,0,44.7,6.15a17.045,17.045,0,0,1,2.26,8.749v19.68a0.985,0.985,0,0,1-1.969,0V14.9a14.953,14.953,0,0,0-2.094-7.964,7.06,7.06,0,0,0-2.515-2.4,13.467,13.467,0,0,1,.569,1.6A32.877,32.877,0,0,1,42,14.9V37.008a0.985,0.985,0,0,1-1.969,0V14.9a30.891,30.891,0,0,0-.98-8.22c-0.581-2-1.189-2.643-1.43-2.777-0.052,0-.1.005-0.155,0.012A10.8,10.8,0,0,0,36.5,6.679a28.271,28.271,0,0,0-.911,6.332,5.867,5.867,0,0,1,2.4,4.691V43.716a0.985,0.985,0,0,1-1.969,0V17.7a3.98,3.98,0,0,0-3.364-3.874c0.015,0.069.031,0.14,0.042,0.2a19.421,19.421,0,0,1,.285,3.679V39.679a0.958,0.958,0,0,1-.953.985A1.012,1.012,0,0,1,31,39.679V17.7a16.052,16.052,0,0,0-.345-3.687A3.96,3.96,0,0,0,28.01,17.7V42.066a0.966,0.966,0,0,1-.057.264,1.084,1.084,0,0,1,.057.324,2.469,2.469,0,0,0,2.475,2.412,0.985,0.985,0,1,1,0,1.969,4.332,4.332,0,0,1-1.088-.153,0.957,0.957,0,0,1-.5.153,4.218,4.218,0,0,1-.816-0.082,0.979,0.979,0,0,1-.39.082,4.332,4.332,0,0,1-2.2-.612,4.257,4.257,0,0,1-2.2.612,0.978,0.978,0,0,1-.389-0.081,4.21,4.21,0,0,1-.808.081,0.956,0.956,0,0,1-.493-0.151,4.332,4.332,0,0,1-1.082.151,0.985,0.985,0,0,1,0-1.969,2.473,2.473,0,0,0,2.446-2.142L23.007,17.7a5.731,5.731,0,0,0-3.682-5.2A17.146,17.146,0,0,1,20,17.7V39.679a0.985,0.985,0,0,1-1.969,0V17.7a12.294,12.294,0,0,0-.718-4.367c-0.409-1.015-.376-1.344-0.523-1.344a2.025,2.025,0,0,0-.992,1.344,12.193,12.193,0,0,0-.812,4.367V43.716a0.985,0.985,0,0,1-1.969,0V17.7a13.7,13.7,0,0,1,.909-5.092c-2.213.937-3.946,2.857-3.946,5.092V42.174a0.985,0.985,0,0,1-1.969,0V17.7a6.584,6.584,0,0,1,1-3.428,36.779,36.779,0,0,1,.9-8.108,15.017,15.017,0,0,1,.457-1.494A7.251,7.251,0,0,0,8.1,6.938,14.865,14.865,0,0,0,5.99,14.9v21.78a0.985,0.985,0,1,1-1.969,0V14.9A16.961,16.961,0,0,1,6.29,6.161,11,11,0,0,0,1.963,14.9V40.716a0.985,0.985,0,1,1-1.969,0V14.9a12.99,12.99,0,0,1,25.5-3.487A13.014,13.014,0,0,1,37.245,1.941a1.865,1.865,0,0,1,.3-0.039c0.046,0,.089.014,0.134,0.017,0.112,0,.222-0.017.334-0.017a13.011,13.011,0,0,1,13,13V39.108A0.985,0.985,0,0,1,50.021,40.093Zm-35.751-33c-0.527-2.341-1.093-3.017-1.279-3.183-0.186.166-.753,0.842-1.279,3.183a31.9,31.9,0,0,0-.644,4.914,9.6,9.6,0,0,1,3.7-1.743A28.139,28.139,0,0,0,14.27,7.093Zm3.363-.154A7.791,7.791,0,0,0,15.663,4.8c0.145,0.415.284,0.858,0.411,1.364a28.726,28.726,0,0,1,.642,3.86c0.025,0,.05,0,0.075,0a8.519,8.519,0,0,1,2.305.32A12.353,12.353,0,0,0,17.633,6.938Zm1.636-1.093,0.019,0.027a15.287,15.287,0,0,1,2.061,5.477,7.9,7.9,0,0,1,2.62,2.768A11.016,11.016,0,0,0,19.269,5.845ZM27,14.559h0.033a5.917,5.917,0,0,1,2.54-2.225A15.788,15.788,0,0,1,31.75,5.875c0.021-.033.044-0.06,0.066-0.093A11.017,11.017,0,0,0,27,14.559Zm6.4-7.623a13.491,13.491,0,0,0-1.8,4.9c0.136-.009.265-0.041,0.4-0.041a5.884,5.884,0,0,1,1.654.263A28.988,28.988,0,0,1,34.6,6.131c0.1-.342.2-0.662,0.293-0.963A8.3,8.3,0,0,0,33.409,6.936Z"/>
</svg>
