<svg xmlns="http://www.w3.org/2000/svg" xmlns:xlink="http://www.w3.org/1999/xlink" preserveAspectRatio="xMidYMid" width="51" height="51" viewBox="0 0 51 51">
  <defs>
    <style>
      .cls-1 {
        fill: #000;
        fill-rule: evenodd;
      }
    </style>
  </defs>
  <path d="M25.500,50.636 C13.831,50.636 4.371,41.176 4.371,29.507 C4.371,17.838 13.831,8.379 25.500,8.379 C37.169,8.379 46.629,17.838 46.629,29.507 C46.629,41.176 37.169,50.636 25.500,50.636 ZM25.500,10.200 C14.837,10.200 6.193,18.844 6.193,29.507 C6.193,40.170 14.837,48.814 25.500,48.814 C36.163,48.814 44.807,40.170 44.807,29.507 C44.807,18.844 36.163,10.200 25.500,10.200 Z" class="cls-1"/>
  <path d="M25.500,47.357 C15.642,47.357 7.650,39.365 7.650,29.507 C7.650,19.649 15.642,11.657 25.500,11.657 C35.358,11.657 43.350,19.649 43.350,29.507 C43.350,39.365 35.358,47.357 25.500,47.357 ZM25.500,13.194 C16.490,13.194 9.187,20.498 9.187,29.507 C9.187,38.517 16.490,45.820 25.500,45.820 C34.510,45.820 41.813,38.517 41.813,29.507 C41.813,20.498 34.510,13.194 25.500,13.194 Z" class="cls-1"/>
  <path d="M25.500,32.786 C23.689,32.786 22.221,31.318 22.221,29.507 C22.221,27.696 23.689,26.229 25.500,26.229 C27.311,26.229 28.779,27.696 28.779,29.507 C28.779,31.318 27.311,32.786 25.500,32.786 ZM25.500,27.686 C24.494,27.686 23.679,28.501 23.679,29.507 C23.679,30.513 24.494,31.329 25.500,31.329 C26.506,31.329 27.321,30.513 27.321,29.507 C27.321,28.501 26.506,27.686 25.500,27.686 Z" class="cls-1"/>
  <path d="M15.657,20.179 L16.172,19.664 C16.314,19.522 16.545,19.522 16.687,19.664 L24.415,27.392 C24.557,27.534 24.557,27.764 24.415,27.907 L23.900,28.422 C23.757,28.564 23.527,28.564 23.384,28.422 L15.657,20.694 C15.514,20.552 15.514,20.321 15.657,20.179 Z" class="cls-1"/>
  <path d="M12.265,10.636 L6.082,16.818 C5.798,17.103 5.337,17.103 5.052,16.818 L2.991,14.757 C2.707,14.473 2.707,14.012 2.991,13.727 L9.173,7.545 C9.458,7.260 9.919,7.260 10.204,7.545 L12.265,9.606 C12.549,9.890 12.549,10.351 12.265,10.636 ZM10.719,9.606 L10.204,9.090 C9.919,8.806 9.458,8.806 9.173,9.090 L4.537,13.727 C4.252,14.012 4.252,14.473 4.537,14.757 L5.052,15.273 C5.337,15.557 5.798,15.557 6.082,15.273 L10.719,10.636 C11.003,10.351 11.003,9.890 10.719,9.606 Z" class="cls-1"/>
  <path d="M7.370,15.015 L8.143,14.242 L9.902,16.001 L9.129,16.774 L7.370,15.015 Z" class="cls-1"/>
  <path d="M9.689,12.697 L10.461,11.924 L12.220,13.683 L11.448,14.456 L9.689,12.697 Z" class="cls-1"/>
  <path d="M47.644,14.757 L45.584,16.818 C45.299,17.103 44.838,17.103 44.553,16.818 L38.371,10.636 C38.087,10.351 38.087,9.890 38.371,9.606 L40.432,7.545 C40.716,7.260 41.178,7.260 41.462,7.545 L47.644,13.727 C47.929,14.012 47.929,14.473 47.644,14.757 ZM46.099,13.727 L41.462,9.090 C41.178,8.806 40.716,8.806 40.432,9.090 L39.917,9.606 C39.632,9.890 39.632,10.351 39.917,10.636 L44.553,15.273 C44.838,15.557 45.299,15.557 45.584,15.273 L46.099,14.757 C46.383,14.473 46.383,14.012 46.099,13.727 Z" class="cls-1"/>
  <path d="M43.265,15.015 L42.493,14.242 L40.734,16.001 L41.506,16.774 L43.265,15.015 Z" class="cls-1"/>
  <path d="M40.947,12.697 L40.174,11.924 L38.415,13.683 L39.188,14.456 L40.947,12.697 Z" class="cls-1"/>
  <path d="M27.321,9.836 L23.679,9.836 C23.276,9.836 22.950,9.510 22.950,9.107 L22.950,5.100 C22.950,4.698 23.276,4.371 23.679,4.371 L27.321,4.371 C27.724,4.371 28.050,4.698 28.050,5.100 L28.050,9.107 C28.050,9.510 27.724,9.836 27.321,9.836 ZM26.957,5.829 C26.957,5.627 26.794,5.464 26.593,5.464 L24.407,5.464 C24.206,5.464 24.043,5.627 24.043,5.829 L24.043,8.743 C24.043,8.944 24.206,9.107 24.407,9.107 L26.593,9.107 C26.794,9.107 26.957,8.944 26.957,8.743 L26.957,5.829 Z" class="cls-1"/>
  <path d="M25.500,7.650 C19.307,7.650 19.307,0.546 19.307,0.546 L31.693,0.546 C31.693,0.546 31.693,7.650 25.500,7.650 ZM25.500,6.193 C29.755,6.193 30.236,2.004 30.236,2.004 L20.764,2.004 C20.764,2.004 21.427,6.193 25.500,6.193 Z" class="cls-1"/>
  <path d="M25.500,14.936 C26.104,14.936 26.593,15.425 26.593,16.029 C26.593,16.632 26.104,17.121 25.500,17.121 C24.896,17.121 24.407,16.632 24.407,16.029 C24.407,15.425 24.896,14.936 25.500,14.936 Z" class="cls-1"/>
  <path d="M25.500,41.893 C26.104,41.893 26.593,42.382 26.593,42.986 C26.593,43.589 26.104,44.079 25.500,44.079 C24.896,44.079 24.407,43.589 24.407,42.986 C24.407,42.382 24.896,41.893 25.500,41.893 Z" class="cls-1"/>
  <path d="M12.021,28.414 C12.625,28.414 13.114,28.904 13.114,29.507 C13.114,30.111 12.625,30.600 12.021,30.600 C11.418,30.600 10.929,30.111 10.929,29.507 C10.929,28.904 11.418,28.414 12.021,28.414 Z" class="cls-1"/>
  <path d="M38.979,28.414 C39.582,28.414 40.071,28.904 40.071,29.507 C40.071,30.111 39.582,30.600 38.979,30.600 C38.375,30.600 37.886,30.111 37.886,29.507 C37.886,28.904 38.375,28.414 38.979,28.414 Z" class="cls-1"/>
</svg>
