<?xml version="1.0" encoding="utf-8"?>
<!-- Generator: Adobe Illustrator 21.1.0, SVG Export Plug-In . SVG Version: 6.00 Build 0)  -->
<svg version="1.1" id="Layer_1" xmlns="http://www.w3.org/2000/svg" xmlns:xlink="http://www.w3.org/1999/xlink" x="0px" y="0px"
	 viewBox="0 0 33 33" enableBackground="new 0 0 33 33" xml:space="preserve">
<g>
	<path fill="#B3B3B3" d="M4.3,32.7H4.2c-1.4,0-2.5-1.1-2.5-2.5l0-27c0-1.4,1.1-2.5,2.5-2.5h0.1c1.4,0,2.5,1.1,2.5,2.5v27
		C6.8,31.6,5.7,32.7,4.3,32.7z"/>
	<path fill="#B3B3B3" d="M13.9,32.7h-0.1c-1.4,0-2.5-1.1-2.5-2.5v-27c0-1.4,1.1-2.5,2.5-2.5h0.1c1.4,0,2.5,1.1,2.5,2.5v27
		C16.4,31.6,15.3,32.7,13.9,32.7z"/>
	<path fill="#B3B3B3" d="M29.7,32.3L29.7,32.3c-1.4,0.3-2.8-0.5-3.1-1.9L20.5,4.1c-0.3-1.4,0.5-2.7,1.9-3l0.1,0
		c1.4-0.3,2.7,0.5,3,1.9l6.1,26.3C31.9,30.6,31,31.9,29.7,32.3z"/>
</g>
</svg>
