<svg xmlns="http://www.w3.org/2000/svg" width="51" height="51" viewBox="0 0 51 51">
  <defs>
    <style>
      .cls-1 {
        stroke: #000;
        stroke-width: 0.5px;
        fill-rule: evenodd;
      }
    </style>
  </defs>
  <path id="Color_Fill_2_copy_2" data-name="Color Fill 2 copy 2" class="cls-1" d="M38.335,32.451s3.078,15.986,1.749,16.879-14.746-8.163-14.746-8.163-13.463,9.42-14.747,8.359S12.64,32.478,12.64,32.478,0.811,22.689,1.025,20.717s15.246-3.629,15.246-3.629,6.844-15.9,9.066-15.926,8.234,15.477,8.234,15.477,16.087,1.883,16.078,4.078S38.335,32.451,38.335,32.451ZM32.258,18.423S27.027,4.872,25.34,4.872s-7.63,14.007-7.63,14.007S5.371,19.89,5.153,21.813,14.77,31.3,14.77,31.3c0.146,0.117-3.2,14.1-1.944,14.943s12.643-7.351,12.643-7.351,11.415,8.358,12.482,7.274S35.9,31.678,35.9,31.678s9.849-7.468,9.858-9.565S32.258,18.423,32.258,18.423Z"/>
</svg>
