<svg version="1.1" id="Layer_1" xmlns="http://www.w3.org/2000/svg" xmlns:xlink="http://www.w3.org/1999/xlink" x="0px" y="0px" viewBox="0 0 32 37">
<path d="M28,37H4c-2.209,0-4-1.791-4-4V17c0-2.209,1.791-4,4-4h3c0-0.24,0-1.13,0-4
	c0-5,3-9,9-9c6,0,9,3,9,9c0,1,0,4,0,4h3c2.209,0,4,1.791,4,4v16C32,35.209,30.209,37,28,37z M15,24.812c0,1,0,6.188,0,6.188h2
	c0,0-0.024-5.454,0-6.219c1.146-0.422,2-1.489,2-2.781c0-1.657-1.343-3-3-3c-1.657,0-3,1.343-3,3C13,23.251,13.911,24.362,15,24.812
	z M21,9c0-2.761-2.239-5-5-5c-2.761,0-5,2.239-5,5c0,2.761,0,4,0,4h10C21,13,21,10.071,21,9z"/>
</svg>
