<svg xmlns="http://www.w3.org/2000/svg" xmlns:xlink="http://www.w3.org/1999/xlink" preserveAspectRatio="xMidYMid" width="31" height="31" viewBox="0 0 31 31">
  <defs>
    
  </defs>
  <path d="M30.231,25.988 C30.231,25.988 25.988,30.231 25.988,30.231 C25.988,30.231 15.109,19.352 15.109,19.352 C15.109,19.352 4.231,30.231 4.231,30.231 C4.231,30.231 -0.012,25.988 -0.012,25.988 C-0.012,25.988 10.867,15.109 10.867,15.109 C10.867,15.109 -0.012,4.231 -0.012,4.231 C-0.012,4.231 4.231,-0.012 4.231,-0.012 C4.231,-0.012 15.109,10.867 15.109,10.867 C15.109,10.867 25.988,-0.012 25.988,-0.012 C25.988,-0.012 30.231,4.231 30.231,4.231 C30.231,4.231 19.352,15.109 19.352,15.109 C19.352,15.109 30.231,25.988 30.231,25.988 Z" id="path-1" class="cls-2" fill-rule="evenodd"/>
</svg>
