<svg xmlns="http://www.w3.org/2000/svg" xmlns:xlink="http://www.w3.org/1999/xlink" preserveAspectRatio="xMidYMid" width="43" height="37" viewBox="0 0 43 37">
  <defs>
    <style>
      .cls-1 {
        fill: #000;
        fill-rule: evenodd;
      }
    </style>
  </defs>
  <path d="M34.000,28.000 C33.000,28.000 32.000,28.639 32.000,30.000 C32.000,31.265 32.000,32.381 32.000,33.036 C32.000,36.000 30.345,37.648 24.365,33.202 C20.757,30.519 19.000,28.000 16.000,28.000 C14.098,28.000 9.000,28.000 9.000,28.000 C4.000,28.000 1.000,25.000 1.000,20.000 L1.000,9.000 C1.000,4.000 4.000,1.000 9.000,1.000 L34.000,1.000 C39.000,1.000 42.000,4.000 42.000,9.000 L42.000,20.000 C42.000,25.000 39.000,28.000 34.000,28.000 ZM39.000,9.000 C39.000,6.000 37.000,3.969 34.000,3.969 L9.000,4.000 C6.000,4.000 4.000,6.000 4.000,9.000 L4.000,20.000 C4.000,23.000 6.000,24.969 9.000,24.969 C9.000,24.969 13.363,24.969 16.281,24.969 C19.281,24.969 20.910,25.940 22.255,27.082 C24.176,28.712 25.344,30.111 26.347,30.950 C28.826,33.024 29.000,33.000 29.000,29.985 C29.000,25.449 31.000,24.969 34.000,24.969 C37.000,24.969 39.000,23.000 39.000,20.000 L39.000,9.000 Z" class="cls-1"/>
</svg>
