<svg xmlns="http://www.w3.org/2000/svg" xmlns:xlink="http://www.w3.org/1999/xlink" viewBox="0 0 31 37">
  <defs>
    <style>
      .cls-1 {
        fill: #a4a4a4;
        fill-rule: evenodd;
      }
    </style>
  </defs>
  <path d="M25.000,34.000 L6.000,34.000 C3.791,34.000 2.000,32.209 2.000,30.000 L2.000,6.000 C2.000,3.791 3.791,2.000 6.000,2.000 L25.000,2.000 C27.209,2.000 29.000,3.791 29.000,6.000 L29.000,30.000 C29.000,32.209 27.209,34.000 25.000,34.000 ZM27.000,6.000 C27.000,4.895 26.105,4.000 25.000,4.000 L6.000,4.000 C4.895,4.000 4.000,4.895 4.000,6.000 L4.000,30.000 C4.000,31.105 4.895,32.000 6.000,32.000 L25.000,32.000 C26.105,32.000 27.000,31.105 27.000,30.000 L27.000,6.000 ZM8.000,22.000 L23.000,22.000 L23.000,24.000 L8.000,24.000 L8.000,22.000 ZM8.000,17.000 L23.000,17.000 L23.000,19.000 L8.000,19.000 L8.000,17.000 ZM8.000,12.000 L23.000,12.000 L23.000,14.000 L8.000,14.000 L8.000,12.000 Z" class="cls-1"/>
</svg>
