<svg xmlns="http://www.w3.org/2000/svg" xmlns:xlink="http://www.w3.org/1999/xlink" preserveAspectRatio="xMidYMid" width="36" height="36" viewBox="0 0 36 36">
  <defs>
    <style>
      .cls-1 {
        fill: #000;
        fill-rule: evenodd;
      }
    </style>
  </defs>
  <path d="M17.171,35.183 C7.850,34.855 0.394,27.195 0.394,17.794 C0.394,8.184 8.184,0.394 17.794,0.394 C27.203,0.394 34.867,7.862 35.184,17.194 C34.594,17.794 17.794,34.594 17.171,35.183 ZM17.794,2.194 C9.178,2.194 2.194,9.178 2.194,17.794 C2.194,25.794 8.222,32.372 15.981,33.272 C15.988,33.130 15.994,32.975 15.994,32.794 C15.994,30.884 16.288,29.075 16.819,27.394 L9.694,27.394 C9.197,27.394 8.794,26.991 8.794,26.494 C8.794,25.997 9.197,25.594 9.694,25.594 L17.510,25.594 C18.207,24.038 19.130,22.628 20.244,21.394 L9.694,21.394 C9.197,21.394 8.794,20.991 8.794,20.494 C8.794,19.997 9.197,19.594 9.694,19.594 L22.145,19.594 C25.000,17.324 28.671,15.994 32.794,15.994 C32.978,15.994 33.131,15.988 33.272,15.981 C32.371,8.222 25.794,2.194 17.794,2.194 ZM25.894,15.394 L9.694,15.394 C9.197,15.394 8.794,14.991 8.794,14.494 C8.794,13.997 9.197,13.594 9.694,13.594 L25.894,13.594 C26.391,13.594 26.794,13.997 26.794,14.494 C26.794,14.991 26.391,15.394 25.894,15.394 ZM18.694,9.394 L9.694,9.394 C9.197,9.394 8.794,8.991 8.794,8.494 C8.794,7.997 9.197,7.594 9.694,7.594 L18.694,7.594 C19.191,7.594 19.594,7.997 19.594,8.494 C19.594,8.991 19.191,9.394 18.694,9.394 Z" class="cls-1"/>
</svg>
