<svg xmlns="http://www.w3.org/2000/svg" width="51" height="51" viewBox="0 0 51 51">
  <defs>
    <style>
      .cls-1 {
        fill-rule: evenodd;
      }
    </style>
  </defs>
  <path id="icon_reader_feedback_palm.svg" class="cls-1" d="M46.146,27.745s-3.194,6.59-4.453,8.419S39.336,51,24.1,51C15.781,51,8.035,43.837,8.035,35V25L8,10c0-2.485,1.659-5,4-5a3.785,3.785,0,0,1,2.516.986A4.421,4.421,0,0,1,18.4,2a5.413,5.413,0,0,1,3.087.986A4.251,4.251,0,0,1,25.458,0a4.7,4.7,0,0,1,4.23,2.606,4.236,4.236,0,0,1,2.768-.64C34.8,1.966,37,4.479,37,7c0,2,0,17-.088,18.374l1.743-2.617A4.5,4.5,0,0,1,46.146,27.745Zm-2.36-4.575a2.5,2.5,0,0,0-3.467.7l-4.431,6.653C35.65,30.877,35,31.414,35,31V7c0-1.671-1-3-2.545-3A2.274,2.274,0,0,0,30,6V23H28V5c0-1.381-1.242-3-2.543-3C23.757,2,23,4,23,6V23H21V6c0-1.381-1.3-2-2.6-2C16.592,4,16,6.688,16,8.344V24H14L13.971,9.406C13.971,8.026,13.3,7,12,7s-2,1.619-2,3L9.919,35c0,7.732,6.9,14,14.184,14C37.675,49,38.539,37.192,39.85,35.341s4.631-8.7,4.631-8.7A2.5,2.5,0,0,0,43.786,23.17Z"/>
</svg>
