<svg id="holding_out" data-name="holding out" xmlns="http://www.w3.org/2000/svg" width="51" height="51" viewBox="0 0 51 51">
  <defs>
    <style>
      .cls-1 {
        fill-rule: evenodd;
      }
    </style>
  </defs>
  <path id="saturn" class="cls-1" d="M41.123,24.383A16.006,16.006,0,0,1,24.105,41.11C15.427,47.671,6.812,51.433,3.166,47.786c-3.53-3.531-.108-11.72,6.068-20.113A16.025,16.025,0,0,1,27.4,9.195c8.828-6.772,17.68-10.738,21.389-7.028C52.612,5.992,48.284,15.285,41.123,24.383ZM34.78,34.78a13.627,13.627,0,0,0,3.792-7.3c-1.545,1.793-3.178,3.553-4.859,5.234-2.059,2.059-4.237,4.048-6.45,5.89A13.624,13.624,0,0,0,34.78,34.78ZM15.386,15.386a13.618,13.618,0,0,0,1.378,20.582,56.53,56.53,0,0,0,11.226-8.978,60.083,60.083,0,0,0,8.191-9.936A13.622,13.622,0,0,0,15.386,15.386ZM10.763,37.772c0.422,0.422,1.743.254,3.718-.623-0.259-.227-0.522-0.448-0.769-0.694a16.055,16.055,0,0,1-2.176-2.72C10.533,35.885,10.319,37.327,10.763,37.772ZM36.454,13.712c0.364,0.364.7,0.744,1.024,1.133,1.446-2.73,1.807-4.569,1.294-5.082-0.536-.536-2.532-0.105-5.475,1.516A16.006,16.006,0,0,1,36.454,13.712ZM47.227,3.725c-2.088-2.088-8.812.134-17.044,6.128,0.246,0.082.493,0.163,0.736,0.257C35.057,7.57,38.629,6.5,40.33,8.2c1.6,1.6.771,4.846-1.443,8.666,0.011,0.018.019,0.037,0.03,0.055L37.44,19.17l0,0A66.856,66.856,0,0,1,29.55,28.55a63.6,63.6,0,0,1-10.695,8.744c0.027,0.014.055,0.023,0.082,0.037l-2.369,1.377c-0.033-.02-0.067-0.037-0.1-0.058-3.2,1.618-5.864,2.08-7.263.68-1.5-1.5-.842-4.467,1.077-7.986-0.123-.293-0.229-0.59-0.334-0.889C4.641,38.1,2.745,44.248,4.725,46.227c2.028,2.028,8.42.007,16.325-5.6-0.03-.008-0.058-0.018-0.088-0.026l2.631-1.9,0.033,0.005c0.117-.091.239-0.194,0.357-0.286l0.009-.007h0a91.52,91.52,0,0,0,8.164-7.26,93.248,93.248,0,0,0,6.578-7.294c0-.035-0.011-0.071-0.014-0.106l1.966-2.472c0,0.014.008,0.028,0.012,0.042C47,12.839,49.363,5.86,47.227,3.725Z"/>
</svg>
