<svg xmlns="http://www.w3.org/2000/svg" width="51" height="51" viewBox="0 0 51 51">
  <defs>
    <style>
      .cls-1 {
        fill-rule: evenodd;
      }
    </style>
  </defs>
  <path id="bros_copy_2" data-name="bros copy 2" class="cls-1" d="M51,36s-10-6-11.9-7.215c-0.88,1.083-1.745,2.2-2.31,3.046a9.269,9.269,0,0,1-4.81,3.589c-0.078.028-.143,0.051-0.193,0.071-0.423.167-1,.422-1.654,0.718C32,39,43,51,43,51H40.688S31,40,28.392,37.019c-2.42,1.148-5.518,2.683-8.377,4.1L6,51H3L19.216,39.507C23.8,37.235,29,34.66,31.126,33.818c0.064-.025.148-0.055,0.248-0.091a7.463,7.463,0,0,0,3.919-2.891A61.688,61.688,0,0,1,40,25a2.641,2.641,0,0,0,0-2c-0.57-.685-2-2-1-1a1.825,1.825,0,0,1-.435-2.006l1.267-1.949a1.507,1.507,0,0,0-.214-2.117c-1.231-1-1.5-.75-1.5-0.75a0.917,0.917,0,0,1-.778.327,0.9,0.9,0,0,1-.706-0.462l-0.1-.177a0.9,0.9,0,0,1,.091-1L38,12c0.525-.643-0.031-1.41-0.673-1.935a1.164,1.164,0,0,0-1.1-.332,0.972,0.972,0,0,0-.975.658,0.911,0.911,0,0,1-.778.327,0.9,0.9,0,0,1-.706-0.463l-0.1-.177a0.9,0.9,0,0,1,.093-1L34.6,7.921a1.5,1.5,0,0,0-2.332-1.9l-4.362,5.307c-0.008.01-.022,0.013-0.031,0.023a1.188,1.188,0,0,1-.664.305c-0.016,0-.031-0.009-0.047-0.01s-0.024.007-.037,0.006a1.032,1.032,0,0,0-.269-0.068l-1.471-.629-0.673.057a10.811,10.811,0,0,1-2.173.22c-0.083,0-.161-0.014-0.244-0.016l-1,.084a3.175,3.175,0,0,1-.647.682L21.1,12.154a3.275,3.275,0,0,1,.626,5.833,3.3,3.3,0,0,1-3.587,5.318l-0.481-.184a3.267,3.267,0,0,1-.182,1.509,3.3,3.3,0,0,1-4.257,1.921l-0.164-.066c-0.025.056-.057,0.133-0.077,0.174-0.133.275-.278,0.614-0.44,0.992C11.7,29.621,10.42,32.6,8.06,33.679c-1.2.551-8.036,3.394-8.036,3.394l-0.034-1.933s6.23-2.6,7.321-3.1c1.73-.793,2.842-3.385,3.578-5.1,0.174-.406.33-0.769,0.473-1.065,0.007-.014.02-0.045,0.027-0.062l-0.361-.145a3.283,3.283,0,0,1-.9-5.631A3.242,3.242,0,0,1,9.2,18.857a3.271,3.271,0,0,1,1-3.962,3.256,3.256,0,0,1-1.076-3.767,3.311,3.311,0,0,1,1.685-1.815A3.082,3.082,0,0,1,10.559,8.9a3.279,3.279,0,0,1-.079-2.527A3.3,3.3,0,0,1,14.737,4.45L17.7,5.576a12.483,12.483,0,0,1,6.2-2.356,12.413,12.413,0,0,1,6.532,2.2l0.442-.538A3.3,3.3,0,0,1,36.6,7.934a4.047,4.047,0,0,1,2.189.4,3.631,3.631,0,0,1,.36,5.062,3.877,3.877,0,0,1,1.611,1.142,3.307,3.307,0,0,1,.469,4.648s-1.036,1.245-.252,1.9c1.494,1.239,1.124,4.192.654,4.753s-0.887,1.05-1.352,1.533C43,29,51,34,51,34v2ZM18.783,21.624a1.49,1.49,0,0,0,.528.1,1.505,1.505,0,0,0,.532-2.913l-7.1-2.718a1.489,1.489,0,0,0-.528-0.1,1.512,1.512,0,0,0-1.408.973,1.5,1.5,0,0,0,.875,1.939l1.154,0.442a3.322,3.322,0,0,1,.545.152l2.2,0.88c0.053,0.02.1,0.052,0.148,0.074Zm-7.942,1.583a1.494,1.494,0,0,0,.839.788l2.2,0.881a1.481,1.481,0,0,0,.515.092,1.505,1.505,0,0,0,.532-2.913l-2.2-.88a1.48,1.48,0,0,0-.515-0.091,1.512,1.512,0,0,0-1.407.973A1.493,1.493,0,0,0,10.841,23.207ZM10.805,11.763a1.5,1.5,0,0,0,.875,1.939L19.4,16.65a1.492,1.492,0,0,0,.529.1,1.5,1.5,0,0,0,.532-2.912l-7.724-2.948A1.5,1.5,0,0,0,10.805,11.763Zm6.33-2.026a1.9,1.9,0,0,1-.989-2.17A2.429,2.429,0,0,1,16.389,7L14.1,6.131a1.5,1.5,0,0,0-1.062,2.815l5.01,1.906a1.447,1.447,0,0,0,1.3-.128A10.241,10.241,0,0,1,17.135,9.738Zm6.832-4.719c-2.67.094-6.1,2.278-6.086,3.035a0.794,0.794,0,0,0,.186.146,8.512,8.512,0,0,0,4.476,1.233,8.3,8.3,0,0,0,2.45-.344,0.9,0.9,0,0,1,.653.021l1.3,0.555,2.329-2.852A10.321,10.321,0,0,0,23.967,5.019Z"/>
</svg>
