<svg xmlns="http://www.w3.org/2000/svg" xmlns:xlink="http://www.w3.org/1999/xlink" preserveAspectRatio="xMidYMid" width="30" height="30" viewBox="0 0 30 30">
  <defs>
    <style>
      .cls-1 {
        fill: #000;
        fill-rule: evenodd;
      }
    </style>
  </defs>
  <path d="M15.000,18.000 C13.343,18.000 12.000,16.657 12.000,15.000 C12.000,13.343 13.343,12.000 15.000,12.000 C16.657,12.000 18.000,13.343 18.000,15.000 C18.000,16.657 16.657,18.000 15.000,18.000 ZM15.000,7.000 C13.343,7.000 12.000,5.657 12.000,4.000 C12.000,2.343 13.343,1.000 15.000,1.000 C16.657,1.000 18.000,2.343 18.000,4.000 C18.000,5.657 16.657,7.000 15.000,7.000 ZM15.000,22.000 C16.657,22.000 18.000,23.343 18.000,25.000 C18.000,26.657 16.657,28.000 15.000,28.000 C13.343,28.000 12.000,26.657 12.000,25.000 C12.000,23.343 13.343,22.000 15.000,22.000 Z" class="cls-1"/>
</svg>
