<svg xmlns="http://www.w3.org/2000/svg" xmlns:xlink="http://www.w3.org/1999/xlink" preserveAspectRatio="xMidYMid" width="58" height="58" viewBox="0 0 58 58">
  <defs>
    
  </defs>
  <path d="M29.000,58.000 C12.984,58.000 -0.000,45.016 -0.000,29.000 C-0.000,12.984 12.984,-0.000 29.000,-0.000 C45.016,-0.000 58.000,12.984 58.000,29.000 C58.000,45.016 45.016,58.000 29.000,58.000 ZM29.000,55.000 C31.279,55.000 33.485,54.698 35.588,54.143 C36.038,53.354 36.651,52.633 37.412,51.991 C30.018,51.991 22.493,51.991 16.904,51.991 C20.518,53.901 24.626,55.000 29.000,55.000 ZM13.713,49.991 C20.865,49.991 33.485,49.991 44.296,49.991 C46.392,48.454 48.256,46.618 49.813,44.536 C45.427,40.253 43.636,34.658 45.206,30.517 C43.259,31.651 41.208,32.846 39.115,34.065 C35.632,38.931 37.025,45.795 40.469,48.751 C34.988,46.370 32.235,41.760 34.050,37.016 C25.844,41.796 17.668,46.559 12.855,49.363 C13.132,49.584 13.427,49.781 13.713,49.991 ZM3.000,29.000 C3.000,34.081 4.480,38.807 7.000,42.812 C7.000,35.583 7.000,24.744 7.000,15.210 C7.042,15.119 7.106,15.024 7.156,14.931 C4.537,18.989 3.000,23.811 3.000,29.000 ZM29.000,3.000 C23.628,3.000 18.668,4.666 14.533,7.464 C14.529,7.463 14.525,7.461 14.521,7.459 C14.407,7.535 14.308,7.606 14.200,7.679 C14.308,7.604 14.423,7.538 14.533,7.464 C17.892,9.106 22.638,9.884 29.303,8.796 C22.858,13.032 15.388,13.217 10.953,10.399 C11.199,10.128 11.448,9.875 11.706,9.630 C10.494,10.716 9.377,11.907 8.385,13.200 C8.609,12.943 8.825,12.709 9.000,12.540 C9.000,13.635 9.000,14.761 9.000,15.897 C11.578,21.124 18.056,23.234 22.258,21.758 C17.512,25.272 12.214,25.388 9.000,21.584 C9.000,30.658 9.000,39.929 9.000,45.576 C8.977,45.548 8.954,45.520 8.931,45.493 C8.393,44.844 7.875,44.178 7.404,43.477 C7.856,44.071 8.327,44.747 8.931,45.493 C8.956,45.524 8.974,45.551 9.000,45.582 C9.000,45.580 9.000,45.578 9.000,45.576 C9.190,45.803 9.372,46.037 9.569,46.258 C14.981,36.787 27.973,14.053 33.980,3.541 C34.179,3.558 34.424,3.595 34.678,3.641 C32.848,3.233 30.953,3.000 29.000,3.000 ZM35.941,3.966 C35.968,3.975 35.999,3.983 36.025,3.993 C35.175,5.480 34.164,7.251 33.045,9.208 C33.156,14.276 36.055,20.791 47.541,25.138 C38.392,25.668 30.867,20.519 29.951,14.623 C28.827,16.589 27.647,18.654 26.446,20.756 C25.836,26.729 30.488,32.000 34.959,32.840 C29.012,33.520 24.317,30.895 23.528,25.863 C18.600,34.485 13.720,43.024 11.016,47.757 C11.131,47.868 11.259,47.964 11.376,48.073 C11.345,48.035 11.316,48.003 11.284,47.963 C20.493,42.599 44.125,28.832 54.270,22.922 C52.066,13.747 44.999,6.473 35.941,3.966 ZM50.604,27.372 C48.722,30.831 47.874,35.882 51.239,42.419 C53.610,38.498 55.000,33.917 55.000,29.000 C55.000,27.482 54.867,25.996 54.617,24.551 C54.631,24.701 54.641,24.852 54.653,25.014 C53.457,25.710 52.086,26.509 50.604,27.372 Z" id="path-1" class="cls-2" fill-rule="evenodd"/>
</svg>
