<svg xmlns="http://www.w3.org/2000/svg" width="51" height="51" viewBox="0 0 51 51">
  <defs>
    <style>
      .cls-1 {
        fill-rule: evenodd;
      }
    </style>
  </defs>
  <path id="icon_reader_feedback_pill.svg" class="cls-1" d="M7.469,24.646L25.146,6.969A13,13,0,0,1,43.531,25.354L25.854,43.031A13,13,0,0,1,7.469,24.646Zm25.456,8.485,9.192-9.192A11,11,0,1,0,26.561,8.383l-9.192,9.192c2.121-2.121,7.018-.053,11.314,4.243S35.046,31.01,32.925,33.132Zm-8.485,8.485c0.562-.562-0.585-2.243-1.414-1.414-2.838,2.838-8.981,5.185-14.142,1.414a10.993,10.993,0,0,0,10.3,2.93A10.694,10.694,0,0,0,24.439,41.617Z"/>
</svg>
