<svg xmlns="http://www.w3.org/2000/svg" xmlns:xlink="http://www.w3.org/1999/xlink" preserveAspectRatio="xMidYMid" width="51" height="51" viewBox="0 0 51 51">
  <defs>
    <style>
      .cls-1 {
        fill: #000;
        fill-rule: evenodd;
      }
    </style>
  </defs>
  <path d="M25.500,51.000 C11.417,51.000 -0.000,39.583 -0.000,25.500 C-0.000,11.417 11.417,-0.000 25.500,-0.000 C39.583,-0.000 51.000,11.417 51.000,25.500 C51.000,39.583 39.583,51.000 25.500,51.000 ZM25.500,2.000 C12.521,2.000 2.000,12.521 2.000,25.500 C2.000,38.479 12.521,49.000 25.500,49.000 C38.479,49.000 49.000,38.479 49.000,25.500 C49.000,12.521 38.479,2.000 25.500,2.000 ZM35.982,12.639 C35.982,12.639 35.153,12.667 33.531,11.911 C31.983,11.189 30.580,10.705 30.064,10.078 C29.548,9.451 29.753,8.639 30.006,8.322 C30.276,7.983 31.007,7.904 31.469,8.550 C31.469,8.550 32.828,9.376 34.377,10.098 C35.999,10.854 36.827,10.827 36.827,10.827 C37.327,11.060 37.544,11.655 37.311,12.156 C37.077,12.656 36.482,12.873 35.982,12.639 ZM25.500,39.750 C23.429,39.750 21.750,37.400 21.750,34.500 C21.750,31.601 23.429,29.250 25.500,29.250 C27.571,29.250 29.250,31.601 29.250,34.500 C29.250,37.400 27.571,39.750 25.500,39.750 ZM17.469,11.911 C15.847,12.667 15.018,12.639 15.018,12.639 C14.518,12.873 13.923,12.656 13.689,12.156 C13.456,11.655 13.673,11.060 14.173,10.827 C14.173,10.827 15.001,10.854 16.623,10.098 C18.172,9.376 19.531,8.550 19.531,8.550 C19.993,7.904 20.724,7.983 20.994,8.322 C21.247,8.639 21.452,9.451 20.936,10.078 C20.420,10.705 19.017,11.189 17.469,11.911 ZM18.500,14.000 C19.881,14.000 21.000,15.567 21.000,17.500 C21.000,19.433 19.881,21.000 18.500,21.000 C17.119,21.000 16.000,19.433 16.000,17.500 C16.000,15.567 17.119,14.000 18.500,14.000 ZM32.500,14.000 C33.881,14.000 35.000,15.567 35.000,17.500 C35.000,19.433 33.881,21.000 32.500,21.000 C31.119,21.000 30.000,19.433 30.000,17.500 C30.000,15.567 31.119,14.000 32.500,14.000 Z" class="cls-1"/>
</svg>
