<svg xmlns="http://www.w3.org/2000/svg" xmlns:xlink="http://www.w3.org/1999/xlink" preserveAspectRatio="xMidYMid" width="58" height="58" viewBox="0 0 58 58">
  <defs>
    
  </defs>
  <path d="M29.000,58.000 C12.984,58.000 0.000,45.016 0.000,29.000 C0.000,12.984 12.984,0.000 29.000,0.000 C45.016,0.000 58.000,12.984 58.000,29.000 C58.000,45.016 45.016,58.000 29.000,58.000 ZM43.000,22.000 C43.000,19.239 40.761,17.000 38.000,17.000 C38.000,17.000 19.000,17.000 19.000,17.000 C16.239,17.000 14.000,19.239 14.000,22.000 C14.000,22.000 14.000,34.000 14.000,34.000 C14.000,36.761 16.239,39.000 19.000,39.000 C19.000,39.000 28.000,39.000 28.000,39.000 C28.000,39.000 37.000,46.000 37.000,46.000 C37.000,46.000 37.000,39.000 37.000,39.000 C37.000,39.000 38.000,39.000 38.000,39.000 C40.761,39.000 43.000,36.761 43.000,34.000 C43.000,34.000 43.000,22.000 43.000,22.000 Z" id="path-1" class="cls-2" fill-rule="evenodd"/>
</svg>
