<svg xmlns="http://www.w3.org/2000/svg" xmlns:xlink="http://www.w3.org/1999/xlink" preserveAspectRatio="xMidYMid" width="41" height="21" viewBox="0 0 41 21">
  <defs>
    <style>
      .cls-1 {
        fill: #000;
        fill-rule: evenodd;
      }
    </style>
  </defs>
  <path d="M39.000,10.000 C38.249,10.000 37.942,9.000 36.000,9.000 C34.058,9.000 31.967,11.256 31.967,13.559 C31.967,15.862 33.942,18.000 36.000,18.000 C38.058,18.000 38.473,17.000 39.000,17.000 C41.153,17.000 41.632,18.759 40.000,20.000 C39.219,20.594 37.738,21.000 36.000,21.000 C32.000,21.000 28.989,18.000 28.989,13.559 C28.989,9.000 32.000,6.000 36.000,6.000 C37.650,6.000 39.173,6.346 40.000,7.000 C40.827,7.654 42.059,10.000 39.000,10.000 ZM20.000,21.000 C19.578,21.000 18.944,20.944 17.000,19.000 C17.000,20.000 16.927,20.987 15.445,20.990 C13.964,20.993 13.972,20.000 13.972,19.062 C13.972,14.411 13.972,2.858 13.972,2.061 C13.972,1.061 13.978,-0.018 15.455,-0.018 C16.932,-0.018 17.000,1.000 16.994,1.990 C16.978,4.470 16.994,8.362 16.994,8.362 C18.000,7.000 19.000,6.000 20.000,6.000 C24.000,6.000 26.000,7.000 26.000,13.000 C26.000,19.000 24.000,21.000 20.000,21.000 ZM20.031,9.037 C18.753,9.037 17.858,9.649 16.994,10.711 L16.994,16.921 C17.750,17.839 18.990,18.000 20.000,18.000 C22.000,18.000 22.961,16.312 22.961,13.138 C22.961,9.964 21.921,9.037 20.031,9.037 ZM9.430,21.000 C8.000,21.000 8.000,20.000 8.000,19.000 C7.000,20.000 6.965,21.000 4.000,21.000 C1.642,21.000 -0.000,19.484 -0.000,17.000 C-0.000,11.854 7.000,12.000 8.000,12.000 C8.000,10.000 7.000,9.000 6.000,9.000 C4.000,9.000 4.625,9.109 3.000,10.000 C2.349,10.357 -0.552,8.911 2.000,7.000 C3.132,6.152 4.000,6.000 6.000,6.000 C9.000,6.000 11.000,8.000 11.000,12.000 C11.000,12.000 11.000,16.385 11.000,19.034 C11.000,20.000 11.000,21.000 9.430,21.000 ZM8.000,14.000 C1.862,14.288 3.000,17.450 3.000,17.000 C3.000,20.000 6.945,18.066 8.000,17.000 L8.000,14.000 Z" class="cls-1"/>
</svg>
