<svg xmlns="http://www.w3.org/2000/svg" width="36" height="36" viewBox="0 0 36 36">
  <defs>
    <style>
      .cls-1 {
        fill-rule: evenodd;
      }
    </style>
  </defs>
  <path id="merged" class="cls-1" d="M34,34l2,2H0V0L2,2V6.984c1.863,2.149,8.8,2.323,12.651,1.752l3.494-6.212,1.741,0.984-2.88,5.121c0.757,2.835,4.487,8.142,9.52,9.265l5.994-3.746,0.992,1.737-4.779,2.987C27.08,22.858,25.736,30.1,28.22,34H34ZM18.085,25.525L4.526,34H20.207C17.48,31.958,17.24,28.584,18.085,25.525ZM18.2,23.1c-3.968.471-5.849-1.8-6.511-5.02L3.807,32.093ZM2,9.7v4.33C3.293,16.472,8.083,17.673,10,17c-2.423,2.214-6.25,2.578-8-.161V31.226L14.475,9.048C10.679,11.556,4.467,11.531,2,9.7Zm13.6,1.423L13.023,15.71c0.318,2.938,3.38,6.608,5.475,7.2l7.749-4.843A10.634,10.634,0,0,1,15.6,11.125Zm10.414,9.444L20.689,23.9C19.3,27.161,19.33,31.662,21,34h6.577C23.029,30.244,24.631,24.231,26.015,20.569Z"/>
</svg>
