<svg id="women" xmlns="http://www.w3.org/2000/svg" width="51" height="51" viewBox="0 0 51 51">
  <defs>
    <style>
      .cls-1 {
        fill-rule: evenodd;
      }
    </style>
  </defs>
  <path id="voice" class="cls-1" d="M50.724,19.835c-1.056,3.179-2.624,2.4-9.277,9.673s-10.7,8.178-20.108,8.178c-8.11,0-7.85-5.988-5.157-9.867-8.237-2.909-7.6-6.69-5.536-11.539s4.633-3.058,6.653-2.424c1.539,0.482,1.267.97,4.911-1.778S37.1,13.208,44.546,15,51.244,18.27,50.724,19.835ZM22.091,21.088c-7.921,0-5.663,3.233-3.8,4.849s2.754,2.385,6.257,2.505A66.762,66.762,0,0,0,35,27.189c5.691-1.186,8.792-4.607,10.97-5.7C38.051,23,30.012,21.088,22.091,21.088Zm-11.36,6.276a1,1,0,0,1,.387,1.36,2.123,2.123,0,0,0,.82,2.884,1,1,0,0,1-.973,1.747,4.125,4.125,0,0,1-1.594-5.6A1,1,0,0,1,10.732,27.363ZM9.975,35.131A1,1,0,0,1,9,36.878,8.164,8.164,0,0,1,5.847,25.786a1,1,0,1,1,1.747.973A6.161,6.161,0,0,0,9.975,35.131ZM8.143,38.418a1,1,0,0,1-.973,1.747A11.93,11.93,0,0,1,2.56,23.955a1,1,0,1,1,1.747.974A9.929,9.929,0,0,0,8.143,38.418Z"/>
</svg>
