<svg id="holding_out" data-name="holding out" xmlns="http://www.w3.org/2000/svg" width="51" height="51" viewBox="0 0 51 51">
  <defs>
    <style>
      .cls-1 {
        fill-rule: evenodd;
      }
    </style>
  </defs>
  <path id="rabbit" class="cls-1" d="M42.654,42.07a4.528,4.528,0,0,1-1.061-.137,23.11,23.11,0,0,1,.845,6.442v0.958H13.372V33.91a12.173,12.173,0,0,1-2.279.246c-0.082,0-.164,0-0.246,0a7.314,7.314,0,0,1-6.1-2.87c-2.359-3.511-.2-9.111,4.823-12.484a12.271,12.271,0,0,1,7.177-2.2,24.355,24.355,0,0,1-.287-6.246c0.55-6.174,1.749-8.692,4.139-8.692,0.1,0,.2,0,0.3.014,2.109,0.188,2.875,2.051,2.991,4.98a9.424,9.424,0,0,1,1.666-1.935A3.192,3.192,0,0,1,30.93,7.279c-0.019,1.56-.707,3.713-2.165,6.775a23.667,23.667,0,0,1-5.138,6.886V31.262c2.548-.23,8.87-0.324,13.535,3.6a13.25,13.25,0,0,1,1.193,1.143A4.562,4.562,0,1,1,42.654,42.07ZM20.739,3.589c-0.045,0-.09-0.006-0.134-0.006-1.331,0-1.947,3.777-2.23,6.946a22.684,22.684,0,0,0,.393,6.378,7.674,7.674,0,0,1,.975.367,22.658,22.658,0,0,1,1.93-6.6c0.072-.151.141-0.287,0.212-0.432C22.389,3.756,21.155,3.626,20.739,3.589ZM19.316,19.163c0.009,0.029.017,0.064,0.026,0.092L19.37,19.2C19.35,19.188,19.336,19.173,19.316,19.163Zm2.1,1.194,0.087-.077-0.087.058C21.413,20.345,21.412,20.352,21.412,20.358Zm5.623-7.128C28.333,10.5,29,8.494,29.014,7.255a1.2,1.2,0,0,0-.72-1.35,1.244,1.244,0,0,0-.545-0.148,1.523,1.523,0,0,0-.956.441,15.093,15.093,0,0,0-3.028,4.563c-0.007.085-.01,0.162-0.018,0.248a25.061,25.061,0,0,1-1.976,7.582,6.467,6.467,0,0,1,.691.814A21.606,21.606,0,0,0,27.035,13.23Zm8.9,23.108c-5.156-4.349-13.027-3.064-13.106-3.051l-1.12.191V21.193l-0.53-.641,0.14-.117H21.271L21,20.62c-0.035-.052-0.087-0.089-0.123-0.139-0.51.971-.9,1.557-0.941,1.623L18.96,23.546l-0.7-1.591a22.732,22.732,0,0,1-1.093-3.377c-0.148-.015-0.283-0.053-0.436-0.059a10.33,10.33,0,0,0-6.086,1.871c-3.179,2.136-5.067,5.344-4.918,7.881H7.411L6.258,30.062c0.03,0.05.052,0.1,0.085,0.152a5.455,5.455,0,0,0,4.548,2.023A11.348,11.348,0,0,0,17.3,30.29l1.069,1.591a13.561,13.561,0,0,1-3.077,1.509V47.417H25.54c0.308-6.707,3.811-9.129,6.837-9.129V40.2c-2.158,0-4.654,1.915-4.924,7.213H40.5C40.331,42.475,38.8,38.751,35.937,36.339Zm6.717-1.493A2.654,2.654,0,1,0,45.308,37.5,2.657,2.657,0,0,0,42.654,34.846ZM13.372,26.336a1.654,1.654,0,1,1,1.654-1.654A1.654,1.654,0,0,1,13.372,26.336Z"/>
</svg>
