<svg id="sex" xmlns="http://www.w3.org/2000/svg" width="51" height="51" viewBox="0 0 51 51">
  <defs>
    <style>
      .cls-1 {
        fill-rule: evenodd;
      }
    </style>
  </defs>
  <path id="thrilled" class="cls-1" d="M50.922,53.68l-2.58-8.65-14.27,2.9,1.088,4.018-5.181-.777-1.45-8.891S25.468,31.907,15.249,27.5A57.8,57.8,0,0,0,1.235,23.4l-3.853-.389V21.835l1.737-.213c-0.005-1.045-.657-1.71-0.514-2.332,0.155-.678,1.026-0.71.548,0A0.624,0.624,0,0,0-.39,20.362a0.567,0.567,0,0,1-.186-0.427A0.5,0.5,0,0,1-.134,19.4a0.5,0.5,0,0,1,.445.539,0.569,0.569,0,0,1-.18.421A0.547,0.547,0,0,0,.48,19.451c-0.29-.409.147-0.875,0.508-0.054,0.26,0.591-.467.9-0.283,2.03l0.894-.11v1.806c0.174,0.012.339,0.021,0.521,0.035V21.274L4.7,21.081c0.113-2.052-1.2-3.313-.925-4.494,0.281-1.227,1.857-1.286.994,0a1.129,1.129,0,0,0,.826,1.943,1.026,1.026,0,0,1-.338-0.773,0.9,0.9,0,0,1,.8-0.974,0.9,0.9,0,0,1,.8.974,1.03,1.03,0,0,1-.325.763,0.991,0.991,0,0,0,.631-1.64c-0.525-.74.265-1.584,0.92-0.1,0.5,1.134-.99,1.706-0.414,4.076l1.8-.134v3.459c0.518,0.107,1.043.221,1.575,0.349l-0.014-.008,0-3.9,1.787-.091a2.941,2.941,0,0,1,0-.351c0.459-4.141-2.258-6.6-1.729-8.906s3.493-2.419,1.87,0c-1.592,2.373.153,3.412,1.507,3.642a1.977,1.977,0,0,1-.59-1.443,1.7,1.7,0,0,1,1.512-1.833A1.7,1.7,0,0,1,16.9,13.475a1.981,1.981,0,0,1-.575,1.427,1.861,1.861,0,0,0,1.149-3.077c-0.653-.92-0.223-1.917.5-1.686A3.277,3.277,0,0,1,18.04,9.4c0.623-2.719,4.113-2.849,2.2,0-1.876,2.8.183,4.023,1.779,4.293a2.327,2.327,0,0,1-.7-1.7A2,2,0,0,1,23.1,9.836a2,2,0,0,1,1.78,2.158,2.325,2.325,0,0,1-.7,1.709c2.121-.44,2.3-2.351,1.381-3.652-1.117-1.575.452-3.346,1.861-.572,0.834-2.066,3.556-2.011,1.9.462-1.741,2.6.17,3.735,1.652,3.986a2.16,2.16,0,0,1-.649-1.582,1.854,1.854,0,0,1,1.653-2,1.854,1.854,0,0,1,1.652,2A2.167,2.167,0,0,1,33,13.907a2.035,2.035,0,0,0,1.257-3.364c-1.08-1.523.545-3.257,1.89-.2,1.036,2.354-2.145,3.487-.864,8.479,2.34-.057,4.463.1,5.547,0.723,1.564,0.892,1.852,5.908,1.221,8.6,6.652,4.722,7.042,9.814,7.042,9.814l2.2,5.385ZM19.039,13.872a7.377,7.377,0,0,0-.4,6.31c0.006,0.018,0,.035.007,0.053l1.432-.073c0-.093-0.01-0.17,0-0.269A12.167,12.167,0,0,0,19.039,13.872Zm8.469-1.65c-0.629,1.584-1.886,3.443-.652,7.412,0.641-.1,1.435-0.207,2.317-0.316C29.386,16.3,28.114,14.1,27.508,12.221Zm3.165,11.556A1.85,1.85,0,0,0,29.2,25.849a1.85,1.85,0,0,0,1.468,2.072,1.85,1.85,0,0,0,1.467-2.072A1.85,1.85,0,0,0,30.672,23.777ZM37.9,23a1.833,1.833,0,0,0-1.44,2.057,1.834,1.834,0,0,0,1.44,2.058,1.834,1.834,0,0,0,1.44-2.058A1.833,1.833,0,0,0,37.9,23Zm2.17,6.936c-2.83.283-10.666,1.477-13.862,1.971a22.617,22.617,0,0,1,3.851,4.517l13.507-2.631A25.717,25.717,0,0,0,40.07,29.936Zm4.649,5.543L31.053,38.142A13.983,13.983,0,0,1,32.278,41.3l1.3,4.812L47.8,43.225l-1.189-3.987A20.239,20.239,0,0,0,44.719,35.479Z"/>
</svg>
