<svg xmlns="http://www.w3.org/2000/svg" xmlns:xlink="http://www.w3.org/1999/xlink" preserveAspectRatio="xMidYMid" width="37" height="25" viewBox="0 0 37 25">
  <defs>
    <style>

      .cls-2 {
        fill: #000000;
      }
    </style>
  </defs>
  <path d="M35.013,24.000 C34.000,24.000 33.000,23.000 33.000,21.967 C33.000,21.763 33.000,21.552 33.000,21.336 C31.926,23.177 30.191,25.000 28.000,25.000 C23.431,25.000 22.000,22.567 22.000,19.000 C22.000,16.155 26.938,12.556 33.000,14.407 C33.000,13.336 33.000,12.465 33.000,12.000 C33.000,11.476 32.505,8.779 29.531,8.779 C27.534,8.779 26.000,9.263 26.000,9.875 C26.000,11.332 23.000,11.370 23.000,9.906 C23.000,6.906 26.589,5.969 29.531,5.969 C33.602,5.969 37.000,8.000 37.000,12.000 C37.000,16.480 37.000,24.000 37.000,24.000 C37.000,24.000 36.009,24.000 35.013,24.000 ZM24.995,18.937 C24.930,20.754 26.000,22.000 28.000,22.000 C30.549,22.000 32.083,20.114 33.000,18.799 C33.000,17.912 33.000,17.012 33.000,16.160 C29.544,15.417 25.055,17.287 24.995,18.937 ZM18.944,24.000 C18.199,24.000 17.531,24.000 17.531,24.000 C17.531,24.000 15.764,19.514 15.764,19.514 C15.012,18.759 14.006,18.000 13.000,18.000 C10.783,18.000 9.211,18.000 7.000,18.000 C5.944,18.000 4.892,18.835 4.130,19.624 C4.130,19.624 2.406,24.000 2.406,24.000 C2.406,24.000 1.753,24.000 1.019,24.000 C-0.000,24.000 -0.263,22.070 0.184,20.975 C2.597,15.052 8.000,1.000 8.000,1.000 C8.000,1.000 9.040,-0.000 10.000,-0.000 C11.008,-0.000 11.937,1.000 11.937,1.000 C11.937,1.000 17.455,14.836 19.790,21.069 C20.115,21.935 20.000,24.000 18.944,24.000 ZM9.969,4.807 C9.969,4.807 6.265,14.205 6.265,14.205 C6.516,14.627 6.986,15.000 7.917,15.000 C9.185,15.000 10.594,15.000 11.875,15.000 C12.864,15.000 13.379,14.614 13.663,14.183 C13.663,14.183 9.969,4.807 9.969,4.807 Z" id="path-1" class="cls-2" fill-rule="evenodd"/>
</svg>
