<svg xmlns="http://www.w3.org/2000/svg" width="42" height="42" viewBox="0 0 42 42">
<defs>
    <style>
      .cls-1 {
        fill-rule: evenodd;
      }
    </style>
  </defs>
  <path id="Staged_merged" data-name="Staged merged" class="cls-1" d="M32,42c0-7,5-14,5-16.942,0-1.672-3.962-5.948-5.447-13.931A7.472,7.472,0,0,0,42,10.587V42H32Zm4.5-31A5.466,5.466,0,0,1,31,6a3.775,3.775,0,0,1-3.5,4,3.555,3.555,0,0,1-3.281-2.65A3.555,3.555,0,0,1,20.938,10a3.525,3.525,0,0,1-3.219-2.43A3.525,3.525,0,0,1,14.5,10,3.775,3.775,0,0,1,11,6,5.512,5.512,0,0,1,0,5.5C0,5,0,0,0,0H42V5.5A5.5,5.5,0,0,1,36.5,11Zm-26.053.127C8.962,19.11,5,23.386,5,25.058,5,28,10,35,10,42H0V10.587A7.472,7.472,0,0,0,10.447,11.127Z"/>
</svg>
