<svg xmlns="http://www.w3.org/2000/svg" xmlns:xlink="http://www.w3.org/1999/xlink" preserveAspectRatio="xMidYMid" width="36" height="36" viewBox="0 0 36 36">
  <defs>
    <style>
      .cls-1 {
        fill: #000;
        fill-rule: evenodd;
      }
    </style>
  </defs>
  <path d="M18.000,36.000 C8.059,36.000 -0.000,27.941 -0.000,18.000 C-0.000,8.059 8.059,-0.000 18.000,-0.000 C27.941,-0.000 36.000,8.059 36.000,18.000 C36.000,27.941 27.941,36.000 18.000,36.000 ZM18.000,2.000 C9.163,2.000 2.000,9.163 2.000,18.000 C2.000,26.837 9.163,34.000 18.000,34.000 C26.837,34.000 34.000,26.837 34.000,18.000 C34.000,9.163 26.837,2.000 18.000,2.000 ZM17.245,23.254 C16.433,24.067 9.796,27.750 8.250,27.750 L7.500,27.000 C7.500,25.523 11.250,18.750 11.987,18.013 C12.750,17.250 19.694,10.306 22.454,7.546 C23.250,6.750 24.750,6.750 25.487,7.487 C27.324,9.324 25.931,7.931 27.767,9.767 C28.500,10.500 28.500,12.000 27.793,12.707 C25.073,15.427 18.058,22.442 17.245,23.254 ZM12.750,19.500 L10.500,23.250 L12.000,24.750 L15.750,22.500 L12.750,19.500 Z" class="cls-1"/>
</svg>
