<svg xmlns="http://www.w3.org/2000/svg" width="51" height="51" viewBox="0 0 51 51">
  <defs>
    <style>
      .cls-1 {
        fill-rule: evenodd;
      }
    </style>
  </defs>
  <path id="icon_reader_feedback_worried.svg" class="cls-1" d="M25.5,51A25.5,25.5,0,1,1,51,25.5,25.5,25.5,0,0,1,25.5,51Zm0-49A23.5,23.5,0,1,0,49,25.5,23.5,23.5,0,0,0,25.5,2ZM35,15c0-2-3-4-5-4a1.017,1.017,0,0,1,0-2.032C32.889,9.112,37,12,37,15,37,16.888,35,16.1,35,15Zm-3.5,0A2.5,2.5,0,1,1,29,17.5,2.5,2.5,0,0,1,31.5,15Zm-13,5A2.5,2.5,0,1,1,21,17.5,2.5,2.5,0,0,1,18.5,20ZM20,11c-2,0-5,2-5,4,0,1.1-2,1.888-2,0,0-3,4.111-5.888,7-6.032A1.017,1.017,0,0,1,20,11Z"/>
</svg>
