<svg version="1.1" id="Layer_1" xmlns="http://www.w3.org/2000/svg" xmlns:xlink="http://www.w3.org/1999/xlink" x="0px" y="0px" viewBox="0 0 32 37">
<path d="M28,37H4c-2.209,0-4-1.791-4-4V17c0-2.209,1.791-4,4-4h3c0-0.24,0-1.13,0-4
	c0-5,3-9,9-9c6,0,9,3,9,9c0,1,0,4,0,4h3c2.209,0,4,1.791,4,4v16C32,35.209,30.209,37,28,37z M21,9c0-2.761-2.239-5-5-5
	c-2.761,0-5,2.239-5,5c0,2.761,0,4,0,4h10C21,13,21,10.071,21,9z M30,17c0-1.104-0.895-2-2-2H4c-1.104,0-2,0.896-2,2v16
	c0,1.104,0.895,2,2,2h24c1.104,0,2-0.896,2-2V17z M17,24.781C16.976,25.546,17,31,17,31h-2c0,0,0-5.188,0-6.188
	c-1.089-0.45-2-1.561-2-2.812c0-1.657,1.343-3,3-3c1.657,0,3,1.343,3,3C19,23.292,18.146,24.359,17,24.781z"/>
</svg>
