<svg id="holding_out" data-name="holding out" xmlns="http://www.w3.org/2000/svg" width="51" height="51" viewBox="0 0 51 51">
  <defs>
    <style>
      .cls-1 {
        fill-rule: evenodd;
      }
    </style>
  </defs>
  <path id="stormcloud" class="cls-1" d="M43.8,17.809a4.866,4.866,0,0,1,1.211,2.342c0.735,3.668-3.281,7.727-8.9,8.5L36.12,26.6c4.192-.84,7.322-3.6,6.835-6.036a3.366,3.366,0,0,0-1.642-2.1l-2.135-1.312,2.433-.6c1.593-.392,2.482-2.606,2.307-3.928-0.284-2.151-.7-2.876-4.213-3.37a8.3,8.3,0,0,0-1.578-.066l-1.275.065,0.184-1.263a3.823,3.823,0,0,0,.047-0.745A4.817,4.817,0,0,0,34.976,3.62a8.3,8.3,0,0,0-5.084-1.6,7.391,7.391,0,0,0-6.454,4.406l-0.5,1.341-1.13-.876a6.078,6.078,0,0,0-5.989-.023A4.114,4.114,0,0,0,13.816,11.9l0.528,1.525-1.551-.056a5.816,5.816,0,0,0-.7.014,6.266,6.266,0,0,0-6.026,6.847A5.982,5.982,0,0,0,8.335,24.5a7.47,7.47,0,0,0,4.946,1.362l0.011,2.024a9.167,9.167,0,0,1-6.249-1.736A8.03,8.03,0,0,1,3.976,20.4a8.43,8.43,0,0,1,7.553-9.133,6.178,6.178,0,0,1,3.237-6.206A8.469,8.469,0,0,1,22,4.595,9.934,9.934,0,0,1,29.793-.071a10.391,10.391,0,0,1,6.393,1.98A6.875,6.875,0,0,1,39.173,7.1C39.45,7.115,39.725,7.142,40,7.18c4.093,0.575,5.554,1.8,6,5.171A6.02,6.02,0,0,1,43.8,17.809ZM19.438,24.02L21.692,24,18.162,35.959h6.783L22.08,44.931l9.325-11.926H24.6L29.13,24l2.118,0.021-3.462,7.014h8.087L20.162,50.517s-0.81,1.135-1.588.778-0.212-1.776-.212-1.776l3.686-11.464h-6.6Z"/>
</svg>
