<svg id="when_i_wake" data-name="when i wake" xmlns="http://www.w3.org/2000/svg" width="51" height="51" viewBox="0 0 51 51">
  <defs>
    <style>
      .cls-1 {
        fill-rule: evenodd;
      }
    </style>
  </defs>
  <path id="feather_paper" data-name="feather paper" class="cls-1" d="M43.177,11.173c-3.038-.287-7.956,1.888-9.368,3.027,2.341-1.1,7.46-1.037,7.813.042-1.122,1.666-1.306,3.213-4.95,5.064-1.211.615-2.137,1.127-3.024,1.628,0.093,0.412.186,0.824,0.286,1.236l0.348-.3a4.034,4.034,0,0,1-.348.3c0.13,0.536.264,1.071,0.407,1.6a107.171,107.171,0,0,0,7.332,18.9L14.658,49.915A103.681,103.681,0,0,1,7.4,31.278a110.373,110.373,0,0,1-3.08-19.96L31.331,4.079s0.071,1.491.3,3.851c3.95-5.2,9.677-8.918,19.522-5.977C48.466,3.519,44.329,9.083,43.177,11.173ZM31.861,21.942c-1.267.7-2.755,1.5-5.062,2.6A51.282,51.282,0,0,0,32.156,23.2Q32,22.572,31.861,21.942ZM29.932,6.5L6.75,12.715A88.459,88.459,0,0,0,9.274,30.6a86.264,86.264,0,0,0,6.793,16.887l23.182-6.212A87.005,87.005,0,0,1,32.44,24.329c-0.064-.238-0.12-0.479-0.181-0.718-2.021,1.746-3.922,3.409-5.351,4.623-1.9,1.614-2.279,1.657-3.245,1.976S22,31.4,16.648,38.342l2.966-7.372,2.371-10.722,0.347,4.9s0.885-2.107,3.826-7.82c1.175-2.282,2.436-4.848,3.98-7.262C29.967,7.889,29.932,6.5,29.932,6.5Z"/>
</svg>
