<svg xmlns="http://www.w3.org/2000/svg" xmlns:xlink="http://www.w3.org/1999/xlink" preserveAspectRatio="xMidYMid" width="47" height="28" viewBox="0 0 47 28">
  <defs>
    <style>
      .cls-1 {
        fill: #000;
        fill-rule: evenodd;
      }
    </style>
  </defs>
  <path d="M39.000,28.000 L8.000,28.000 C3.582,28.000 0.000,24.418 0.000,20.000 C0.000,15.911 3.069,12.545 7.029,12.065 C7.013,11.878 7.000,11.691 7.000,11.500 C7.000,7.910 9.910,5.000 13.500,5.000 C14.738,5.000 15.891,5.353 16.876,5.953 C19.073,2.386 23.001,-0.000 27.500,-0.000 C34.257,-0.000 39.747,5.365 39.978,12.066 C43.934,12.549 47.000,15.913 47.000,20.000 C47.000,24.418 43.418,28.000 39.000,28.000 ZM39.000,14.000 L37.881,14.000 C37.951,13.509 38.000,13.011 38.000,12.500 C38.000,6.701 33.299,2.000 27.500,2.000 C22.776,2.000 18.783,5.120 17.463,9.411 C16.709,7.984 15.227,7.000 13.500,7.000 C11.015,7.000 9.000,9.015 9.000,11.500 C9.000,12.425 9.281,13.285 9.760,14.000 L8.000,14.000 C4.686,14.000 2.000,16.686 2.000,20.000 C2.000,23.314 4.686,26.000 8.000,26.000 L39.000,26.000 C42.314,26.000 45.000,23.314 45.000,20.000 C45.000,16.686 42.314,14.000 39.000,14.000 ZM27.493,16.000 C24.000,16.000 24.000,20.000 24.000,20.000 C24.000,20.000 23.000,20.000 22.000,20.000 C22.000,16.457 24.462,14.000 27.500,14.000 C30.538,14.000 33.000,16.534 33.000,20.000 C32.000,20.000 31.000,20.000 31.000,20.000 C31.000,20.000 31.000,16.000 27.493,16.000 ZM31.500,12.000 C30.672,12.000 30.000,11.328 30.000,10.500 C30.000,9.672 30.672,9.000 31.500,9.000 C32.328,9.000 33.000,9.672 33.000,10.500 C33.000,11.328 32.328,12.000 31.500,12.000 ZM23.500,12.000 C22.672,12.000 22.000,11.328 22.000,10.500 C22.000,9.672 22.672,9.000 23.500,9.000 C24.328,9.000 25.000,9.672 25.000,10.500 C25.000,11.328 24.328,12.000 23.500,12.000 Z" class="cls-1"/>
</svg>
