<svg xmlns="http://www.w3.org/2000/svg" xmlns:xlink="http://www.w3.org/1999/xlink" preserveAspectRatio="xMidYMid" width="464" height="464" viewBox="0 0 464 464">
  <defs>
    
  </defs>
  <path d="M232.000,464.000 C103.870,464.000 -0.000,360.130 -0.000,232.000 C-0.000,103.870 103.870,-0.000 232.000,-0.000 C360.130,-0.000 464.000,103.870 464.000,232.000 C464.000,360.130 360.130,464.000 232.000,464.000 ZM340.607,205.206 C340.607,205.206 242.800,107.400 242.800,107.400 C239.864,104.463 236.013,103.000 232.164,103.008 C228.270,102.966 224.364,104.423 221.393,107.393 C221.393,107.393 123.587,205.200 123.587,205.200 C117.729,211.057 117.729,220.555 123.587,226.413 C129.445,232.271 138.943,232.271 144.801,226.413 C144.801,226.413 217.000,154.213 217.000,154.213 C217.000,154.213 217.000,345.000 217.000,345.000 C217.000,353.284 223.716,360.000 232.000,360.000 C240.284,360.000 247.000,353.284 247.000,345.000 C247.000,345.000 247.000,154.026 247.000,154.026 C247.000,154.026 319.393,226.419 319.393,226.419 C325.251,232.277 334.749,232.277 340.607,226.419 C346.464,220.561 346.464,211.064 340.607,205.206 Z" id="path-1" class="cls-2" fill-rule="evenodd"/>
</svg>
