<svg id="holding_out" data-name="holding out" xmlns="http://www.w3.org/2000/svg" width="51" height="51" viewBox="0 0 51 51">
  <defs>
    <style>
      .cls-1 {
        fill-rule: evenodd;
      }
    </style>
  </defs>
  <path id="megaphone" class="cls-1" d="M48.042,12.544l1.385,5.395L39.7,17.563ZM37.376,0.088L42.608,2,36.795,9.8Zm0.862,19.13a30.587,30.587,0,0,1,.712,5.157L39,26.235c-0.038,5.086-1.571,8.953-4.413,9.711a4.635,4.635,0,0,1-3.214-.407c0.041,0.048.075,0.092,0.117,0.14-4.446-2.29-9.638-1.9-15.057-1.087-0.893,3.354,1.3,6.635,4.078,8.133,2.883,1.556,4.16,1.849,4.082,4.2-0.061,1.85-1.45,2.828-3.914,3.488-0.663.178-1.4,0.332-2.216,0.474-3.838.674-5.585-3.229-7.781-7.223s-2.57-7.406-4.836-8.227a9.243,9.243,0,0,1,.783-17.6H6.641c0.053-.014.106-0.02,0.16-0.034C11.214,16.55,20.02,12.345,23.724,6.6c0,0.025-.008.048-0.013,0.073A4.611,4.611,0,0,1,26.26,4.765c2.765-.74,5.99,1.656,8.53,5.831L35.7,12.214a30.658,30.658,0,0,1,2.068,5.232ZM20.709,12.738c-4.816,3.676-9.492,6.306-13.281,7.376l-0.016,0-0.016,0c-0.062.016-.123,0.029-0.185,0.041a7.107,7.107,0,0,0-.576,13.519c2.175,0.788,3.018,2.836,3.994,5.207a34.235,34.235,0,0,0,1.635,3.554c0.171,0.312.34,0.624,0.508,0.933,2.069,3.821,3.177,5.46,5.1,5.123,0.781-.137,1.429-0.275,1.981-0.423,2.4-.644,2.424-1.317,2.436-1.679,0.027-.806.027-0.822-1.927-1.837C20.037,44.391,19.684,44.207,19.3,44a10.015,10.015,0,0,1-2.993-2.49,3.34,3.34,0,0,1-2.141-.122c-1.879-.7-1.953-5.5-2.325-6.893a4.134,4.134,0,0,1,2.945-1.531v0l1.172-.176a31.114,31.114,0,0,1,10-.37A30.223,30.223,0,0,1,20.709,12.738Zm10.234,7.936a5.524,5.524,0,0,0-6.9-3.753,2,2,0,0,0-.53.2A29.182,29.182,0,0,0,26.286,27.5c0.186-.031.37-0.044,0.558-0.095A5.559,5.559,0,0,0,30.943,20.674ZM47.416,32.787l-6.834-6.93L50.1,27.905Z"/>
</svg>
