<svg id="V5" xmlns="http://www.w3.org/2000/svg" width="72" height="65" viewBox="0 0 72 65">
  <metadata><?xpacket begin="﻿" id="W5M0MpCehiHzreSzNTczkc9d"?>
<x:xmpmeta xmlns:x="adobe:ns:meta/" x:xmptk="Adobe XMP Core 5.6-c140 79.160451, 2017/05/06-01:08:21        ">
   <rdf:RDF xmlns:rdf="http://www.w3.org/1999/02/22-rdf-syntax-ns#">
      <rdf:Description rdf:about=""/>
   </rdf:RDF>
</x:xmpmeta>
                                                                                                    
                                                                                                    
                                                                                                    
                                                                                                    
                                                                                                    
                                                                                                    
                                                                                                    
                                                                                                    
                                                                                                    
                                                                                                    
                                                                                                    
                                                                                                    
                                                                                                    
                                                                                                    
                                                                                                    
                                                                                                    
                                                                                                    
                                                                                                    
                                                                                                    
                                                                                                    
                           
<?xpacket end="w"?></metadata>
<defs>
    <style>
      .cls-1 {
        fill-rule: evenodd;
      }
    </style>
  </defs>
  <path id="icon_Group" class="cls-1" d="M72,51s-0.023,2-1.52,2S69,51,69,51c0-8.378-6.286-15.475-15-18a6.7,6.7,0,0,1-2.076-3.532l0.117,0.023c-0.011-.121-0.027-0.239-0.03-0.364l-0.127.044C51.731,27.446,52.7,25.723,55,24a0.158,0.158,0,0,0-.043-0.034A11.987,11.987,0,0,0,41.018,4.608a16.906,16.906,0,0,0-3.1-1.527,14.985,14.985,0,1,1,18.1,23.887c-0.008.009-.01,0.024-0.018,0.032-1.205,1.27-1.341,2.354-.411,3.356C65.162,33.437,72,41.508,72,51ZM46,22a16.932,16.932,0,0,1-7,13.72v0.044c-1.336,1.213-1.361,2.2-.066,3.784C50.049,43.046,58,52.207,58,63c0,0,.03,2-1.472,2S55,63,55,63c0-8.914-6.272-16.581-15.281-20.037a5.4,5.4,0,0,1-1.955-.673c-0.035-.011-0.069-0.025-0.1-0.035l0.036-.008A5.5,5.5,0,0,1,35,37.515c0-2.761.928-4.348,3.6-5.358a14,14,0,1,0-19.191,0C22.075,33.17,23,34.757,23,37.515a5.488,5.488,0,0,1-4.748,5.453C9.258,46.429,3,54.094,3,63c0,0-.014,2-1.527,2S0,63,0,63C0,52.21,7.95,43.055,19.062,39.554c1.3-1.585,1.276-2.575-.061-3.79V35.712A16.988,16.988,0,1,1,46,22Z"/>
</svg>
