<svg xmlns="http://www.w3.org/2000/svg" xmlns:xlink="http://www.w3.org/1999/xlink" preserveAspectRatio="xMidYMid" width="60" height="60" viewBox="0 0 60 60">
  <defs>
    <style>
      .cls-1 {
        fill: #000;
        fill-rule: evenodd;
      }
    </style>
  </defs>
  <path d="M30.000,59.000 C13.984,59.000 1.000,46.016 1.000,30.000 C1.000,13.984 13.984,1.000 30.000,1.000 C46.016,1.000 59.000,13.984 59.000,30.000 C59.000,46.016 46.016,59.000 30.000,59.000 ZM53.000,26.988 L52.006,26.988 C52.015,26.556 52.006,26.300 52.006,26.300 C52.006,23.100 47.030,20.969 42.000,20.969 C36.969,20.969 32.400,23.100 32.400,26.300 C32.400,26.300 32.391,26.422 32.383,26.643 C31.797,26.354 30.876,25.988 29.950,25.988 C29.073,25.988 28.207,26.316 27.620,26.597 C27.610,26.409 27.600,26.300 27.600,26.300 C27.600,23.808 24.012,20.969 18.000,20.969 C11.988,20.969 7.994,23.808 7.994,26.300 C7.994,26.300 7.978,26.556 7.978,26.988 L7.000,26.988 C6.448,26.988 6.000,27.435 6.000,27.987 L6.000,29.012 C6.000,29.565 6.448,30.012 7.000,30.012 L8.192,30.012 C8.769,34.078 10.836,40.031 18.000,40.031 C25.367,40.031 27.157,33.739 27.546,29.674 C28.121,29.381 29.052,28.998 29.980,28.997 C30.990,28.996 31.984,29.461 32.516,29.756 C32.976,33.823 34.841,40.031 41.955,40.031 C48.937,40.031 51.080,34.049 51.731,29.982 L53.000,29.981 C53.552,29.981 54.000,29.534 54.000,28.981 L54.000,27.987 C54.000,27.435 53.552,26.988 53.000,26.988 ZM41.955,37.100 C34.042,37.100 35.019,26.300 35.019,26.300 C35.019,25.637 35.556,25.100 36.219,25.100 C36.219,25.100 38.979,23.994 42.000,23.994 C44.979,23.994 47.875,25.100 47.875,25.100 C48.538,25.100 48.950,25.637 48.950,26.300 C48.950,26.300 49.982,37.100 41.955,37.100 ZM17.933,37.100 C10.048,37.100 10.925,26.300 10.925,26.300 C10.925,25.637 11.337,25.100 12.000,25.100 C12.000,25.100 15.004,23.994 18.000,23.994 C21.004,23.994 23.687,25.100 23.687,25.100 C24.350,25.100 24.887,25.637 24.887,26.300 C24.887,26.300 25.988,37.100 17.933,37.100 Z" class="cls-1"/>
</svg>
