<svg xmlns="http://www.w3.org/2000/svg" xmlns:xlink="http://www.w3.org/1999/xlink" preserveAspectRatio="xMidYMid" width="90" height="88" viewBox="0 0 90 88">
  <defs>
    <style>
      .cls-1 {
        fill: #000;
        fill-rule: evenodd;
      }
    </style>
  </defs>
  <path d="M45.000,86.000 C21.804,86.000 3.000,67.196 3.000,44.000 C3.000,20.804 21.804,2.000 45.000,2.000 C68.196,2.000 87.000,20.804 87.000,44.000 C87.000,67.196 68.196,86.000 45.000,86.000 ZM45.000,7.753 C24.982,7.753 8.753,23.982 8.753,44.000 C8.753,64.018 24.982,80.247 45.000,80.247 C65.018,80.247 81.247,64.018 81.247,44.000 C81.247,23.982 65.018,7.753 45.000,7.753 Z" class="cls-1"/>
  <path d="M69.749,15.009 L73.991,19.251 L20.251,72.991 L16.009,68.749 L69.749,15.009 Z" class="cls-1"/>
</svg>
