<svg xmlns="http://www.w3.org/2000/svg" xmlns:xlink="http://www.w3.org/1999/xlink" preserveAspectRatio="xMidYMid" width="64" height="12" viewBox="0 0 64 12">
  <defs>
    <style>
      .cls-1 {
        fill: #000;
        fill-rule: evenodd;
      }
    </style>
  </defs>
  <path d="M62.989,2.689 C62.833,2.962 58.287,9.399 58.018,9.863 C57.842,10.168 57.421,10.163 57.245,9.863 C57.048,9.529 52.360,3.071 52.141,2.675 C51.980,2.386 52.158,2.006 52.523,2.006 C52.895,2.006 62.348,2.006 62.604,2.006 C62.936,2.006 63.183,2.350 62.989,2.689 ZM37.000,11.000 C34.239,11.000 32.000,8.761 32.000,6.000 C32.000,3.239 34.239,1.000 37.000,1.000 C39.761,1.000 42.000,3.239 42.000,6.000 C42.000,8.761 39.761,11.000 37.000,11.000 ZM37.000,3.000 C35.343,3.000 34.000,4.343 34.000,6.000 C34.000,7.657 35.343,9.000 37.000,9.000 C38.657,9.000 40.000,7.657 40.000,6.000 C40.000,4.343 38.657,3.000 37.000,3.000 ZM22.000,11.000 C19.238,11.000 17.000,8.761 17.000,6.000 C17.000,3.239 19.238,1.000 22.000,1.000 C24.761,1.000 27.000,3.239 27.000,6.000 C27.000,8.761 24.761,11.000 22.000,11.000 ZM22.000,3.000 C20.343,3.000 19.000,4.343 19.000,6.000 C19.000,7.657 20.343,9.000 22.000,9.000 C23.657,9.000 25.000,7.657 25.000,6.000 C25.000,4.343 23.657,3.000 22.000,3.000 ZM7.000,11.000 C4.239,11.000 2.000,8.761 2.000,6.000 C2.000,3.239 4.239,1.000 7.000,1.000 C9.761,1.000 12.000,3.239 12.000,6.000 C12.000,8.761 9.761,11.000 7.000,11.000 ZM7.000,3.000 C5.343,3.000 4.000,4.343 4.000,6.000 C4.000,7.657 5.343,9.000 7.000,9.000 C8.657,9.000 10.000,7.657 10.000,6.000 C10.000,4.343 8.657,3.000 7.000,3.000 Z" class="cls-1"/>
</svg>
