<svg xmlns="http://www.w3.org/2000/svg" xmlns:xlink="http://www.w3.org/1999/xlink" preserveAspectRatio="xMidYMid" width="58" height="58" viewBox="0 0 58 58">
  <defs>
    
  </defs>
  <path d="M29.000,58.000 C12.984,58.000 -0.000,45.016 -0.000,29.000 C-0.000,12.984 12.984,0.000 29.000,0.000 C45.016,0.000 58.000,12.984 58.000,29.000 C58.000,45.016 45.016,58.000 29.000,58.000 ZM21.130,31.700 C21.594,32.705 28.267,46.580 28.683,47.429 C29.057,48.190 29.946,48.203 30.319,47.429 C30.887,46.249 37.526,32.427 37.855,31.736 C38.266,30.873 37.744,30.000 37.042,30.000 C36.500,30.000 22.724,30.000 21.939,30.000 C21.166,30.000 20.790,30.965 21.130,31.700 ZM40.000,5.000 C40.000,5.000 37.596,2.844 29.000,2.844 C20.404,2.844 19.000,5.000 19.000,5.000 C19.000,5.000 19.000,25.000 19.000,25.000 C19.000,26.657 20.343,28.000 22.000,28.000 C22.000,28.000 37.000,28.000 37.000,28.000 C38.657,28.000 40.000,26.657 40.000,25.000 C40.000,25.000 40.000,5.000 40.000,5.000 Z" id="path-1" class="cls-2" fill-rule="evenodd"/>
</svg>
