<svg xmlns="http://www.w3.org/2000/svg" xmlns:xlink="http://www.w3.org/1999/xlink" viewBox="0 -3.333 40 16.667">
  <defs>
    <style>
      .cls-1 {
        fill: #000;
        fill-rule: evenodd;
      }
    </style>
  </defs>
  <path d="M33.000,9.000 C30.791,9.000 29.000,7.209 29.000,5.000 C29.000,2.791 30.791,1.000 33.000,1.000 C35.209,1.000 37.000,2.791 37.000,5.000 C37.000,7.209 35.209,9.000 33.000,9.000 ZM20.000,9.000 C17.791,9.000 16.000,7.209 16.000,5.000 C16.000,2.791 17.791,1.000 20.000,1.000 C22.209,1.000 24.000,2.791 24.000,5.000 C24.000,7.209 22.209,9.000 20.000,9.000 ZM7.000,9.000 C4.791,9.000 3.000,7.209 3.000,5.000 C3.000,2.791 4.791,1.000 7.000,1.000 C9.209,1.000 11.000,2.791 11.000,5.000 C11.000,7.209 9.209,9.000 7.000,9.000 Z" class="cls-1"/>
</svg>
