<svg xmlns="http://www.w3.org/2000/svg" xmlns:xlink="http://www.w3.org/1999/xlink" preserveAspectRatio="xMidYMid" width="31" height="22" viewBox="0 0 31 22">
  <defs>
    <style>

      .cls-2 {
        fill: #000000;
      }
    </style>
  </defs>
  <path d="M29.452,0.546 C30.481,1.574 30.000,3.094 28.981,4.113 C24.954,8.140 15.965,17.129 11.974,21.120 C11.000,22.094 9.000,22.094 8.020,21.113 C6.034,19.128 2.994,16.088 1.002,14.095 C0.000,13.094 -0.443,11.575 0.503,10.591 C1.465,9.590 3.000,10.094 4.041,11.135 C5.270,12.364 6.826,13.920 8.040,15.134 C9.000,16.094 11.000,16.094 12.002,15.091 C15.449,11.646 22.464,4.630 25.946,1.148 C27.000,0.094 28.423,-0.483 29.452,0.546 Z" id="path-1" class="cls-2" fill-rule="evenodd"/>
</svg>
