<?xml version="1.0" encoding="utf-8"?>
<!-- Generator: Adobe Illustrator 22.0.1, SVG Export Plug-In . SVG Version: 6.00 Build 0)  -->
<svg version="1.1" id="V5" xmlns="http://www.w3.org/2000/svg" xmlns:xlink="http://www.w3.org/1999/xlink" x="0px" y="0px"
	 viewBox="0 0 72 65" enable-background="new 0 0 72 65" xml:space="preserve">
<path d="M51.2,35.7c0,8.4-6.8,15.2-15.2,15.2s-15.2-6.8-15.2-15.2"/>
<g>
	<path d="M27.5,26.4c0,2.2-1.8,4.1-4,4.1c-2.2,0-4-1.8-4-4c0-2.2,1.8-4.1,4-4.1C25.7,22.5,27.4,24.2,27.5,26.4z"/>
	<path d="M44.5,26.5c0-2.2,1.7-4,3.9-4c2.2,0,4.1,1.7,4.1,4c0,2.2-1.9,4.1-4.1,4C46.3,30.5,44.6,28.7,44.5,26.5z"/>
	<path d="M36,64.2C18.4,64.2,4.2,50,4.2,32.4S18.4,0.6,36,0.6s31.8,14.3,31.8,31.8C67.8,50,53.6,64.2,36,64.2z M36,3.7
		C20.2,3.7,7.3,16.6,7.3,32.4S20.2,61.1,36,61.1s28.7-12.9,28.7-28.7S51.8,3.7,36,3.7z"/>
</g>
</svg>
