<svg id="sex" xmlns="http://www.w3.org/2000/svg" width="51" height="51" viewBox="0 0 51 51">
  <defs>
    <style>
      .cls-1 {
        fill-rule: evenodd;
      }
    </style>
  </defs>
  <path id="thrilled" class="cls-1" d="M43.967,19.9a3.543,3.543,0,0,1-.073.973h0.04l-6.518,29.1H14.683l-6.518-29.1h0.04A3.826,3.826,0,0,1,8.127,20.4a4.183,4.183,0,0,1-.257-7.585A4.372,4.372,0,0,1,7.7,11.6a4.5,4.5,0,0,1,4.5-4.5,4.45,4.45,0,0,1,.835.079A4.475,4.475,0,0,1,17.48,3.167a4.417,4.417,0,0,1,2.74.945,4.171,4.171,0,0,1,7.124.156,4.4,4.4,0,0,1,2.3-.644,4.476,4.476,0,0,1,4.386,3.608,4.574,4.574,0,0,1,1.614-.3A4.662,4.662,0,0,1,40.3,11.594q0,0.188-.015.373a4.624,4.624,0,0,1,5.14,4.6A4.57,4.57,0,0,1,43.967,19.9Zm-16,3.066H24.036l0.206,5.141c0.589-.045,1.188-0.075,1.807-0.075,0.585,0,1.152.028,1.71,0.068ZM26.048,38.7c5.6,0,9.776-2.21,9.776-4.186s-4.181-4.186-9.776-4.186-9.776,2.21-9.776,4.186S20.453,38.7,26.048,38.7Zm11.133-6.569,2.57-9.159H35.822l-1.376,6.865A7.527,7.527,0,0,1,37.181,32.128ZM33,47.031l2.351-8.381A12.1,12.1,0,0,1,32.4,40.042L31,47.031h2Zm-6,0,0.244-6.075c-0.392.019-.79,0.031-1.2,0.031-0.438,0-.869-0.013-1.292-0.035L25,47.031h2Zm-6,0-1.407-7.023a11.787,11.787,0,0,1-2.969-1.448L19,47.031h2Zm-6.152-14.8a7.327,7.327,0,0,1,2.714-2.355l-1.384-6.909H12.249ZM40.8,13.938a2.6,2.6,0,0,0-1.534.508,1,1,0,0,1-1.419-1.367,2.657,2.657,0,0,0-2.2-4.141,2.618,2.618,0,0,0-1.973.9,1,1,0,0,1-1.7-.979,2.422,2.422,0,0,0,.138-0.763,2.471,2.471,0,0,0-2.469-2.469,2.446,2.446,0,0,0-1.959.988,1,1,0,0,1-1.79-.489,2.17,2.17,0,0,0-4.321.066,1,1,0,0,1-1.892.36,2.452,2.452,0,0,0-4.526,1.876,1,1,0,0,1-1.525,1.138A2.472,2.472,0,0,0,12.2,9.1a2.5,2.5,0,0,0-2.5,2.5,2.459,2.459,0,0,0,.371,1.287,1,1,0,0,1-.684,1.5A2.175,2.175,0,0,0,8.629,18.4a2.809,2.809,0,0,1,2.361-1.133,4.469,4.469,0,0,1,3.218,1.517l1.563,0.024a3.115,3.115,0,0,1,2.749-1.54A3.994,3.994,0,0,1,21.676,18.9l1.374,0.022a3.546,3.546,0,0,1,6.055.095l1.219,0.019a4.007,4.007,0,0,1,3.254-1.767,3.1,3.1,0,0,1,2.913,1.861l1.1,0.016a4.543,4.543,0,0,1,3.519-1.877,2.93,2.93,0,0,1,1.923.658,2.6,2.6,0,0,0,.4-1.367A2.628,2.628,0,0,0,40.8,13.938ZM28.731,12.2a0.867,0.867,0,0,1-.955-0.767,1.751,1.751,0,0,0-3.493.229,1.029,1.029,0,0,1-1.742.607,1.739,1.739,0,0,0-1.24-.682A1.762,1.762,0,0,0,19.4,13.2a1.737,1.737,0,0,0,.469,1.335A0.867,0.867,0,0,1,18.6,15.709a3.485,3.485,0,0,1,2.846-5.848,3.452,3.452,0,0,1,1.381.42A3.418,3.418,0,0,1,25.806,8.14,3.476,3.476,0,0,1,29.5,11.246,0.866,0.866,0,0,1,28.731,12.2Z"/>
</svg>
