<svg xmlns="http://www.w3.org/2000/svg" width="51" height="51" viewBox="0 0 51 51">
  <defs>
    <style>
      .cls-1 {
        fill-rule: evenodd;
      }
    </style>
  </defs>
  <path id="Splat_solid" data-name="Splat solid" class="cls-1" d="M42,27c-3.186,0-5.583-3.1-8.157-3.1S31.3,28,34,28c1,0,3-.053,3.919-0.048C46,28,47,39,41,39c-4.069,0-5.913-6.148-7-5-1.229,1.3,1,3,1,5a2.662,2.662,0,0,1-3,3,3.193,3.193,0,0,1-3-3c0-1,0-3-1-3-2,0-2,1-1,3,0.883,1.767,1.924,1.871,2,4,0.075,2.077-2,7-8,7s-7-4-7-7c0-4,5-6,5-10,0-1-2-3-3.027-2.109C14.053,32.556,13,32,14,30c0.447-.894,1-4-1-4s-2,4-7,4a6.062,6.062,0,0,1-6-6c0-5.472,3-8,6-8,5,0,4,4,7,4s4-3,2-5c-1.361-1.361-2.444-.444-4-2-2-2-1.225-7.388,2-9,4-2,8-1,9,2,0.623,1.87-1.278,3.809.323,4.872,1.248,0.829,1.936-.1,3.075-1.3,1.436-1.514,3.351,2.227,2.249,4.175C26.1,16.476,28.158,17,31,17c4,0,5-8,11-8,5,0,9,2.991,9,8C51,24,47,27,42,27ZM28.293,8.836C26.734,5.22,32.643-1.5,33.984,2.807,35.618,8.051,29.22,10.987,28.293,8.836ZM12,33c1.858,0,1,6-4,6C3.59,39,8,33,12,33Z"/>
</svg>
