<svg xmlns="http://www.w3.org/2000/svg" xmlns:xlink="http://www.w3.org/1999/xlink" preserveAspectRatio="xMidYMid" width="52" height="28" viewBox="0 0 52 28">
  <defs>
    <style>
      .cls-1 {
        fill: #000;
        fill-rule: evenodd;
      }
    </style>
  </defs>
  <path d="M48.000,16.000 L20.000,16.000 C18.895,16.000 18.000,15.105 18.000,14.000 C18.000,12.895 18.895,12.000 20.000,12.000 L48.000,12.000 C49.105,12.000 50.000,12.895 50.000,14.000 C50.000,15.105 49.105,16.000 48.000,16.000 ZM48.000,6.000 L12.000,6.000 C10.895,6.000 10.000,5.105 10.000,4.000 C10.000,2.895 10.895,2.000 12.000,2.000 L48.000,2.000 C49.105,2.000 50.000,2.895 50.000,4.000 C50.000,5.105 49.105,6.000 48.000,6.000 ZM4.000,26.000 C2.895,26.000 2.000,25.105 2.000,24.000 C2.000,22.895 2.895,22.000 4.000,22.000 C5.105,22.000 6.000,22.895 6.000,24.000 C6.000,25.105 5.105,26.000 4.000,26.000 ZM4.000,6.000 C2.895,6.000 2.000,5.105 2.000,4.000 C2.000,2.895 2.895,2.000 4.000,2.000 C5.105,2.000 6.000,2.895 6.000,4.000 C6.000,5.105 5.105,6.000 4.000,6.000 ZM12.000,12.000 C13.104,12.000 14.000,12.895 14.000,14.000 C14.000,15.105 13.104,16.000 12.000,16.000 C10.895,16.000 10.000,15.105 10.000,14.000 C10.000,12.895 10.895,12.000 12.000,12.000 ZM12.000,22.000 L48.000,22.000 C49.105,22.000 50.000,22.895 50.000,24.000 C50.000,25.105 49.105,26.000 48.000,26.000 L12.000,26.000 C10.895,26.000 10.000,25.105 10.000,24.000 C10.000,22.895 10.895,22.000 12.000,22.000 Z" class="cls-1"/>
</svg>
