<svg xmlns="http://www.w3.org/2000/svg" width="51" height="51" viewBox="0 0 51 51">
  <defs>
    <style>
      .cls-1 {
        fill-rule: evenodd;
      }
    </style>
  </defs>
  <path id="icon_reader_feedback_pentagram.svg_copy" data-name="icon_reader_feedback_pentagram.svg copy" class="cls-1" d="M25.5,0A25.5,25.5,0,1,1,0,25.5,25.5,25.5,0,0,1,25.5,0ZM24.14,48.931L18.767,33H18.712l-0.7-2h0.081l-1.585-4.7,1.88-1.357L20.43,31h0.054l0.656,2H21.1l1.259,3.735L22.779,38l0.01-.005,2.711,8.04L29.221,35h2.337l-4.7,13.931A23.481,23.481,0,0,0,47.756,33H23.468l-0.655-2H45.077l-8.01-5.481,0.715-2.1,10.645,7.193a23.373,23.373,0,0,0-7.65-22.948L36.9,19.171l-0.008,0-2.722,8,0.029,0.014L33.581,29H31.244l2.045-6.065-0.07-.048,0.705-2.073,0.065,0.044L37.962,9.079l-8.736,5.977-1.875-1.185L38.8,6.134a23.462,23.462,0,0,0-26.6,0l13.224,8.935L29.721,18l0.01-.02,2.291,1.548-0.7,2.06L25.5,17.605l-0.057.039-1.815-1.258,0.045-.031L13.038,9.079l3.291,9.758L14.4,20.062l-4.18-12.4a23.373,23.373,0,0,0-7.65,22.948l12.533-8.468-0.013-.039L17,20.833l0.008,0.025L20.4,18.569l1.394-.929,1.832,1.249-5.914,4.046h0L12,26.834l0,0.006L5.923,31h9.739l0.7,2H3.244A23.481,23.481,0,0,0,24.14,48.931Z"/>
</svg>
