<svg xmlns="http://www.w3.org/2000/svg" width="51" height="51" viewBox="0 0 51 51">
  <defs>
    <style>
      .cls-1 {
        fill-rule: evenodd;
      }
    </style>
  </defs>
  <path id="merged" class="cls-1" d="M48,21a4.705,4.705,0,0,0-1.02-1.175,5.39,5.39,0,0,1-.214.55C41.336,32.37,30.789,36,22,36c-2.823,0-5.271.033-6.889-.778-2.686-1.346-5.123-5.684-8.45-6.832-1-.345-2.985-1.274-3.606-1.377a2.7,2.7,0,0,0,.123.941c0.341,0.982-.8.586-1.4-0.39s0.252-3.556,2.034-4.158c0.825-.279.543,0.576-0.028,1.325a2.693,2.693,0,0,0-.148.227c3.273-.384,9.632-3.378,11.344-4.949,1.6-1.472,3.781-3.138,5.116-1.184,1.868,2.735,4.407.007,5.939-1.881,0.8-.986,2.514-0.788,3.962.057,2.254,1.314,9.6,1.429,12.836-.159A6.967,6.967,0,0,0,41,16c-1.323-.215-1.4-0.65,0-1,4-1,8.975,2.223,9,4S48.648,22.358,48,21Zm-3.152-2.861C44.27,19.206,40.8,20,35,20c-2.731,0-4.609-.193-5.572-0.734-1.069-.6-1.88-1.043-2.428-0.266-1.442,2.044-5.4,4.224-7.169,2.093-0.928-1.119-2.046-.283-3.875.894S10,26,6,26H22c9,0,20.41-6.325,21.4-6.73S44.9,19.626,43,21s-12,7-21,7c-2,0-12.03.011-13,0,4.373,0.962,4.25,4.342,6.7,5.107A21.173,21.173,0,0,0,22,34,28.01,28.01,0,0,0,45.932,19c0.007-.013.017-0.025,0.025-0.038C45.605,18.688,45.231,18.41,44.848,18.139Z"/>
</svg>
