<svg xmlns="http://www.w3.org/2000/svg" xmlns:xlink="http://www.w3.org/1999/xlink" preserveAspectRatio="xMidYMid" width="58" height="58" viewBox="0 0 58 58">
  <defs>
    <style>
      .cls-1 {
        fill: #000;
        fill-rule: evenodd;
      }
    </style>
  </defs>
  <path d="M29.000,58.000 C12.984,58.000 -0.000,45.016 -0.000,29.000 C-0.000,12.984 12.984,-0.000 29.000,-0.000 C45.016,-0.000 58.000,12.984 58.000,29.000 C58.000,45.016 45.016,58.000 29.000,58.000 ZM29.000,2.000 C14.088,2.000 2.000,14.088 2.000,29.000 C2.000,43.912 14.088,56.000 29.000,56.000 C43.912,56.000 56.000,43.912 56.000,29.000 C56.000,14.088 43.912,2.000 29.000,2.000 ZM44.463,22.075 C42.812,18.108 38.379,20.662 39.483,26.427 C40.410,31.266 40.562,34.510 40.071,38.231 C39.717,40.916 36.936,45.594 34.246,46.570 C33.857,46.711 30.634,49.509 30.968,51.505 C31.033,51.888 31.873,52.143 32.049,52.630 C32.238,53.156 31.904,54.045 31.558,53.977 C31.157,53.899 30.663,52.904 30.024,52.902 C29.411,52.900 28.318,54.259 26.925,53.971 C26.956,53.643 26.973,52.983 27.104,52.919 C26.727,53.207 26.286,53.029 25.666,53.008 C25.746,50.039 27.734,51.563 28.818,50.763 C30.573,49.470 31.185,46.510 31.005,46.437 C30.493,46.229 30.258,45.911 29.673,45.467 C28.685,45.710 28.006,45.836 27.208,45.879 C27.508,47.340 23.853,48.019 23.283,49.670 C23.182,49.962 25.345,50.622 23.183,50.685 C22.032,50.719 21.307,52.137 19.752,52.165 C19.592,51.902 19.698,51.062 20.072,50.981 C19.455,50.979 17.772,51.021 17.642,50.958 C18.131,48.812 19.860,50.506 21.516,49.460 C22.860,48.611 25.080,45.839 24.726,45.868 C15.498,46.614 3.083,27.097 17.014,23.334 C15.827,22.119 18.184,22.595 17.971,21.717 C17.822,21.103 17.651,21.139 17.651,21.139 L14.034,20.745 L17.686,19.118 C17.686,19.118 17.618,17.181 18.783,16.681 C19.612,14.818 13.938,16.619 15.806,13.748 C16.813,12.199 19.734,15.863 20.043,15.420 C21.023,14.018 15.319,11.687 18.913,10.984 C20.051,10.761 21.050,15.103 21.356,15.113 C23.108,15.170 19.529,10.521 22.066,10.482 C24.105,10.451 22.886,14.128 22.886,16.783 C23.852,18.017 23.639,21.189 25.118,22.169 C28.478,24.396 28.709,26.351 31.529,26.128 C34.350,25.906 36.550,23.877 35.588,21.998 C29.884,10.844 41.454,1.282 43.841,12.418 C38.506,7.653 34.459,13.314 36.999,21.867 C35.617,10.785 44.142,10.226 44.178,16.561 C41.771,12.660 37.523,17.244 38.332,22.847 C39.395,14.310 44.821,18.154 44.463,22.075 Z" class="cls-1"/>
</svg>
