<svg xmlns="http://www.w3.org/2000/svg" xmlns:xlink="http://www.w3.org/1999/xlink" preserveAspectRatio="xMidYMid" width="28" height="28" viewBox="0 0 28 28">
  <defs>
    <style>
      .cls-1 {
        fill: #000;
        fill-rule: evenodd;
      }
    </style>
  </defs>
  <path d="M24.000,28.000 L4.000,28.000 C1.791,28.000 -0.000,26.209 -0.000,24.000 L-0.000,4.000 C-0.000,1.791 1.791,0.000 4.000,0.000 L24.000,0.000 C26.209,0.000 28.000,1.791 28.000,4.000 L28.000,24.000 C28.000,26.209 26.209,28.000 24.000,28.000 ZM26.000,4.000 C26.000,3.000 25.000,2.000 24.000,2.000 L4.000,2.000 C3.000,2.000 2.000,3.000 2.000,4.000 L2.000,25.000 C2.000,25.000 2.000,25.000 2.000,25.000 C2.000,24.033 2.000,22.625 2.000,22.000 C2.000,19.000 6.000,13.000 8.000,13.000 C10.000,13.000 14.000,22.000 14.000,22.000 C14.000,22.000 17.000,18.000 19.000,18.000 C20.717,18.000 24.635,22.414 25.713,24.932 C25.888,24.642 26.000,24.323 26.000,24.000 L26.000,4.000 ZM19.500,11.000 C18.119,11.000 17.000,9.881 17.000,8.500 C17.000,7.119 18.119,6.000 19.500,6.000 C20.881,6.000 22.000,7.119 22.000,8.500 C22.000,9.881 20.881,11.000 19.500,11.000 Z" class="cls-1"/>
</svg>
