<svg xmlns="http://www.w3.org/2000/svg" xmlns:xlink="http://www.w3.org/1999/xlink" preserveAspectRatio="xMidYMid" width="58" height="58" viewBox="0 0 58 58">
  <defs>
    <style>

      .cls-2 {
        fill: #000000;
      }
    </style>
  </defs>
  <path d="M29.000,58.000 C12.984,58.000 -0.000,45.016 -0.000,29.000 C-0.000,12.984 12.984,-0.000 29.000,-0.000 C45.016,-0.000 58.000,12.984 58.000,29.000 C58.000,45.016 45.016,58.000 29.000,58.000 ZM29.000,3.000 C14.641,3.000 3.000,14.641 3.000,29.000 C3.000,43.359 14.641,55.000 29.000,55.000 C43.359,55.000 55.000,43.359 55.000,29.000 C55.000,14.641 43.359,3.000 29.000,3.000 ZM29.969,48.951 C29.968,45.063 29.962,30.860 29.920,29.981 C37.492,29.997 38.746,25.658 38.954,20.841 C43.220,22.775 46.000,26.331 46.000,32.000 C46.000,41.062 38.904,48.446 29.969,48.951 ZM35.000,13.000 C34.000,13.000 33.000,14.000 33.000,16.000 C33.000,16.675 33.000,17.227 33.000,17.674 C34.453,18.170 35.771,18.935 36.633,19.980 C36.739,20.011 36.841,20.049 36.946,20.081 C36.670,24.906 35.155,28.000 29.000,28.000 C22.124,28.000 21.160,24.304 21.025,20.091 C21.177,20.044 21.326,19.991 21.481,19.947 C22.278,18.926 23.567,18.173 25.000,17.680 C25.000,17.232 25.000,16.678 25.000,16.000 C25.000,14.000 24.000,13.000 23.000,13.000 C22.000,13.000 21.000,14.000 21.000,16.000 C20.000,16.000 20.000,16.000 19.000,16.000 C19.000,14.000 20.000,11.000 23.000,11.000 C26.000,11.000 27.000,13.000 27.000,16.000 C27.000,16.467 27.000,16.840 27.000,17.174 C27.679,17.061 28.357,17.000 29.000,17.000 C29.647,17.000 30.324,17.060 31.000,17.171 C31.000,16.839 31.000,16.466 31.000,16.000 C31.000,13.000 32.000,11.000 35.000,11.000 C38.000,11.000 39.000,14.000 39.000,16.000 C38.000,16.000 38.000,16.000 37.000,16.000 C37.000,14.000 36.000,13.000 35.000,13.000 ZM27.925,29.977 C27.963,30.857 27.945,45.004 27.939,48.946 C19.047,48.396 12.000,41.031 12.000,32.000 C12.000,26.333 14.778,22.778 19.041,20.844 C19.235,25.650 20.435,29.996 27.925,29.977 Z" id="path-1" class="cls-2" fill-rule="evenodd"/>
</svg>
