<svg xmlns="http://www.w3.org/2000/svg" width="26" height="26" viewBox="0 0 26 26">
  <defs>
    <style>
      .cls-1 {
        fill-rule: evenodd;
      }
    </style>
  </defs>
  <path id="icon_pin_solid_copy" data-name="icon_pin_solid copy" class="cls-1" d="M25.638,10.291c-0.7.7-1.755,0.873-3.517-.213A13.331,13.331,0,0,0,17,16.1c1.83,2.5,2.665,4.582,1.947,5.3-0.965.965-3.5-1.772-6.9-5.237A121.369,121.369,0,0,1-.02,26.017a121.361,121.361,0,0,1,9.854-12.06c-3.465-3.408-6.2-5.938-5.237-6.9C5.315,6.335,7.4,7.17,9.9,9a13.331,13.331,0,0,0,6.022-5.124C14.833,2.113,15,1.06,15.706.359,16.772-.708,17.538.535,21.5,4.5S26.7,9.224,25.638,10.291Z"/>
</svg>
