<svg xmlns="http://www.w3.org/2000/svg" xmlns:xlink="http://www.w3.org/1999/xlink" preserveAspectRatio="xMidYMid" width="29" height="27" viewBox="0 0 29 27">
  <defs>
    <style>
      .cls-1 {
        fill: #000;
      }

      .cls-1, .cls-2, .cls-3 {
        fill-rule: evenodd;
      }

      .cls-2 {
        fill: #fa82a2;
      }

      .cls-3 {
        fill: #f84574;
      }
    </style>
  </defs>
  <path d="M19.000,2.000 C22.720,5.720 29.000,12.000 29.000,15.000 C29.000,16.000 29.000,23.000 29.000,24.000 C29.000,25.000 26.000,27.000 25.000,27.000 C24.000,27.000 4.000,27.000 3.000,27.000 C2.000,27.000 0.000,25.000 0.000,24.000 C0.000,23.000 0.000,16.000 0.000,15.000 C0.000,12.000 6.334,5.666 10.000,2.000 C12.000,0.000 12.861,0.000 14.492,0.000 C16.123,0.000 17.000,0.000 19.000,2.000 Z" class="cls-1"/>
  <path d="M8.062,25.000 L20.934,25.000 C24.280,25.000 26.992,25.260 26.992,21.871 L26.992,15.474 C26.992,12.085 16.997,2.991 16.997,2.991 C16.997,2.991 15.972,1.989 14.399,1.989 C12.937,1.989 12.055,2.954 12.055,2.954 C12.115,2.950 2.015,12.085 2.004,15.474 L2.004,21.871 C2.004,25.260 4.716,25.000 8.062,25.000 Z" class="cls-2"/>
  <path d="M8.000,24.000 L21.000,24.000 C24.111,24.000 26.000,24.084 26.000,21.000 L26.000,15.438 C26.000,13.438 19.000,6.531 18.000,5.531 C17.000,4.531 15.869,3.431 14.406,3.431 C13.046,3.431 12.000,4.531 11.000,5.531 C10.000,6.531 3.000,13.438 3.000,15.438 L3.000,21.000 C3.000,24.084 4.889,24.000 8.000,24.000 Z" class="cls-3"/>
</svg>
