<svg xmlns="http://www.w3.org/2000/svg" width="37" height="37" viewBox="0 0 37 37">
  <defs>
    <style>
      .cls-1 {
        fill-rule: evenodd;
      }
    </style>
  </defs>
  <path id="Note_copy_3" data-name="Note copy 3" class="cls-1" d="M4,5H24.092c-0.322.3-1.513,1.441-2.006,2.012C21,7,5,7,4,7A2.151,2.151,0,0,0,2,9V33a2.151,2.151,0,0,0,2,2H28a2.151,2.151,0,0,0,2-2c0-1,0-17,.023-18.01,0.449-.556,1.685-1.7,1.977-2.058V33a4,4,0,0,1-4,4H4a4,4,0,0,1-4-4V9A4,4,0,0,1,4,5ZM33.083,8.939l-15.35,15.35C15.847,26.175,9,28,9,28s1.825-6.847,3.711-8.733l15.35-15.35,1.616,1.616L12.705,22.562l1.624,1.624L31.361,7.218Zm0.963-8.178,2.193,2.193a2,2,0,0,1,0,2.828L34.514,7.508,29.492,2.486l1.725-1.725A2,2,0,0,1,34.046.762Z"/>
</svg>
