<svg xmlns="http://www.w3.org/2000/svg" width="51" height="51" viewBox="0 0 51 51">
  <defs>
    <style>
      .cls-1 {
        fill-rule: evenodd;
      }
    </style>
  </defs>
  <path id="panda" class="cls-1" d="M46,18.062A22.009,22.009,0,1,1,3.482,26.044,21.869,21.869,0,0,1,5,18.062,7.93,7.93,0,1,1,15.668,6.371a21.779,21.779,0,0,1,19.663,0A7.929,7.929,0,1,1,46,18.062ZM25.5,6.027A20.016,20.016,0,1,0,45.516,26.044,20.039,20.039,0,0,0,25.5,6.027ZM34.89,32.9a16.291,16.291,0,0,1-4.944-9.7,4.846,4.846,0,0,1,9.624-1.142,6.7,6.7,0,0,0,2.172,3.99A4.846,4.846,0,0,1,34.89,32.9Zm0.154-8.874a1.938,1.938,0,1,0,1.938,1.938A1.938,1.938,0,0,0,35.044,24.022ZM25.575,35.373a4.126,4.126,0,0,0,3.257,3.34,4.869,4.869,0,0,1-6.664,0,4.126,4.126,0,0,0,3.257-3.34,4.3,4.3,0,0,1-4.234-4.3h8.616A4.3,4.3,0,0,1,25.575,35.373ZM16.111,32.9a4.846,4.846,0,1,1-6.853-6.853,6.7,6.7,0,0,0,2.172-3.99A4.846,4.846,0,0,1,21.054,23.2,16.29,16.29,0,0,1,16.111,32.9Zm-0.155-8.874a1.938,1.938,0,1,0,1.938,1.938A1.938,1.938,0,0,0,15.956,24.022Z"/>
</svg>
