<svg id="curious" xmlns="http://www.w3.org/2000/svg" width="51" height="51" viewBox="0 0 51 51">
  <defs>
    <style>
      .cls-1 {
        fill-rule: evenodd;
      }
    </style>
  </defs>
  <path id="curious_cat_" data-name="curious cat ?" class="cls-1" d="M28.937,31.381a2.335,2.335,0,1,1-3.3,0A2.335,2.335,0,0,1,28.937,31.381ZM15.4,21.114a2.335,2.335,0,1,1,0,3.3A2.335,2.335,0,0,1,15.4,21.114Zm2.112,7.173,0.772,0.772,0.46,0.46c0.6,0.6.713,0.755,0.118,1.35L17.807,30.6a1.191,1.191,0,0,1-1.3.422l-0.5-.5a1.192,1.192,0,0,1,.422-1.3l-0.27-1.052C16.755,27.574,16.914,27.692,17.509,28.287Zm25.279,8.746c-2.321,1.425-4.737,2.835-6.521,3.861L35.651,42l4.693,3.8-1.61,1.429-4.218-3.446a9.351,9.351,0,0,1-2.039,2.043,5.213,5.213,0,0,1-1.235.666L33.1,50.181c-0.714.19-1.436,0.355-2.173,0.485l-1.9-3.746c-3.583.248-6.361-2.565-10.336-3.721a3.835,3.835,0,0,0-3.11.2,1.972,1.972,0,0,0-.915,1.3,11.935,11.935,0,0,0-.318,3.481,26.227,26.227,0,0,1-2.506-1.457,14.317,14.317,0,0,1,.448-3.21,5.18,5.18,0,0,1,2.337-2.4,6.323,6.323,0,0,1,4.471-.182c4.448,1.293,8.746,5.257,11.693,3.06,2.181-1.626,4.7-6.062,5.059-11.082,0.255-3.516-1.49-7.656-6.248-12.414s-8.9-6.5-12.414-6.248A14.777,14.777,0,0,0,6.874,20.069c-2.2,2.949.264,7.834,1.588,12.385C8.91,34,9.576,36.162,9.779,37.2c0.422,2.15-.524,4.542-1.669,6.508A26.385,26.385,0,0,1,6.3,41.777a7.078,7.078,0,0,0,.983-4.6c-0.2-1.026-.6-2.4-1.064-3.991-1.2-4.136-2.861-8.418-2.325-11.87l-3.4-.95c0.122-.707.275-1.4,0.452-2.087l3.581,1.017a6,6,0,0,1,.534-0.879,16.476,16.476,0,0,1,2-2.165l-2.127-4.48L7,10.783l1.748,4.085a17.653,17.653,0,0,1,2.261-1.414c1.235-1.35,2.728-3.013,4.178-4.705C22.2,0.561,22.963.917,23.444,0.917a1.344,1.344,0,0,1,1.062.847,28.918,28.918,0,0,1,2.155,12.709,28.483,28.483,0,0,1,4.978,4.013,27.166,27.166,0,0,1,4.74,6.186c5.847,0.056,11.485,2.427,13,3.551a2.721,2.721,0,0,1,.809,1.738C50.111,30.437,51.973,31.392,42.788,37.033ZM23.089,3.6a111.227,111.227,0,0,0-7.5,8.318A14.887,14.887,0,0,1,17.1,11.7a14.533,14.533,0,0,1,7,1.376A22.851,22.851,0,0,0,23.089,3.6ZM37.551,27.3a14.045,14.045,0,0,1,.874,5.722,21.061,21.061,0,0,1-.736,4.175c5.375-2.791,9.459-5.174,10.247-7.272A24.2,24.2,0,0,0,37.551,27.3Zm1.117-10.9a1.676,1.676,0,0,1,.488,1.226,1.655,1.655,0,0,1-.488,1.22,2.089,2.089,0,0,1-2.684,0,1.655,1.655,0,0,1-.488-1.22,1.676,1.676,0,0,1,.488-1.226A1.768,1.768,0,0,1,37.3,15.9,1.834,1.834,0,0,1,38.667,16.4Zm2.448-4.945c-1.77.9-2.169,0.555-2.244,2.425H35.376c0-3.33,1.162-3.459,3.124-4.521,2.6-1.405,2.486-4.133-.281-4.519-2.182-.3-2.961.938-3.655,1.915l-2.6-1.829a6.57,6.57,0,0,1,6.127-3.373c2.938,0,5.241,1.572,5.37,4.114S42.885,10.552,41.115,11.453Z"/>
</svg>
