<svg id="women" xmlns="http://www.w3.org/2000/svg" width="51" height="51" viewBox="0 0 51 51">
  <defs>
    <style>
      .cls-1 {
        fill-rule: evenodd;
      }
    </style>
  </defs>
  <path id="male_fantasy_gun" data-name="male fantasy + gun" class="cls-1" d="M73.677,44.958c-0.33,1.116-1.472,1.536-3.395,3.2a1.621,1.621,0,0,0-.347.446l3.348,0.747v0.446a9.864,9.864,0,0,0-4.082-.164c-0.036.012-.06,0.016-0.092,0.025l-0.005,0a0.664,0.664,0,0,1-.416.039c-0.964-.035-2.144-0.739-3.486-0.7-16.435-.913-14.351,1.245-19.7-2.476-1.423-.581-13.008,3.576-17.377,4.115-5.147.636-7.268-1.332-8.377-5s1.388-7.28,1.928-10.691c0.387-2.448-.284-2.783-1.248-4.206A16.441,16.441,0,0,1,18.9,33.643c-0.275,1.852-.652,2.534-1.882,4.868-1.98,3.756-7.347,8.9-8.025,11.586-0.692.961-1.86,0.374-2.949,0.358-0.705-.01-2.42.982-2.713,0.851-0.32-.143.093-0.79,0.29-0.986-0.119-.24-3.853.364-3.941,0.045-0.184-.659.988-1.434,2.969-2.255,1.1-.455,2.443-0.127,3.942-0.388,0.46-.08,4.413-7.8,5.888-10.336a15.6,15.6,0,0,1-6.121,1.53v0A4.754,4.754,0,0,1,1.1,34.21s0.52,1.526,1.354,1.593c3.5,0.279,3.094-2.846,2.668-3.424-0.2-.267-6.674-7.826-0.8-12.742,3.65-3.053,4.636-3.651,6.411-7.446A7.5,7.5,0,0,0,5.6,16.371s0.6-4.938,4.042-7.09,3.664-6.1,7.745-7.895,8.27-2.581,11.449,1.732a2.516,2.516,0,0,1,.283,2.376,1.175,1.175,0,0,1-.692.491,2.11,2.11,0,0,1,.392.642c0.163,0.744-.057,1.507.085,2.285a0.68,0.68,0,0,1-.313.489,0.655,0.655,0,0,0,.593-0.189,0.623,0.623,0,0,1-.78.434,0.214,0.214,0,0,0-.011.161,4.981,4.981,0,0,1,.427,2.255c0.007,0.894-1.507,2.72-1.689,3.554s-3.342-.536-2.917.015A4.365,4.365,0,0,0,25.85,18.6c1.434-.031,2.854-0.28,3.82-0.338,1.186-.071,1.14-0.671,4.72-0.707s4.447-.462,4.88-0.924a2.245,2.245,0,0,1,1.437-.39,1.877,1.877,0,0,1,.091-1.3,1.139,1.139,0,0,0,.479-0.451,2.285,2.285,0,0,1-.479-0.927,9.371,9.371,0,0,0,1.824-.6,1.341,1.341,0,0,1,.775.4l5.14-.025,0.547-.376,0.753,1.1-0.593.752v0.426l-3.543.326a2.047,2.047,0,0,1-.355,1.1,1.091,1.091,0,0,1-1.218.427,1.011,1.011,0,0,0-.57.135c0.433,0.675-.547,1.6-0.547,1.6a1.167,1.167,0,0,1-.3.817c-0.388.746-2.235,0.107-4.7,0.249-2.325.134-5.771,2.127-7.189,2.353a5.391,5.391,0,0,1,.7,2.014c0,0.019.027,0.248,0.027,0.265a3.623,3.623,0,0,1-.05.695C31.187,26.652,28.4,28.923,27.8,30.4a4.677,4.677,0,0,0,1.792,5.51c5.427-3.348,15.208-9.874,16.51-9.38,2.864,1.087,5.855,8.091,11.98,18.173a15.313,15.313,0,0,0,8.357.8c4.385-.862,6.389-3.459,7.052-3.361S74.007,43.842,73.677,44.958ZM45.155,34.385a0.147,0.147,0,0,0-.11-0.106c-0.811-.179-5.166,3.267-7.572,5.8,9.505-.491,8.7-0.494,14.482,2.653C47.831,37.8,45.742,37.5,45.155,34.385Z"/>
</svg>
