<svg id="Rewrite" xmlns="http://www.w3.org/2000/svg" width="51" height="51" viewBox="0 0 51 51">
  <defs>
    <style>
      .cls-1 {
        fill-rule: evenodd;
      }
    </style>
  </defs>
  <path class="cls-1" d="M39.03,27.024c-1.905-2.628-3.885-5.47-5.275-7.756-3.588-5.9-8.431-14.535-8.431-14.535l-11.455,6.4L12.355,9.193,26.347,1.472s5.524,10.491,9.48,16.663C37.149,20.2,39,22.8,40.891,25.354ZM15.012,30.551A129.21,129.21,0,0,1,22.754,46.21s5.17-3.161,11.008-6.069C39.5,37.281,44.87,34.8,44.87,34.8s-1.881-2.407-4.211-5.551l2.263-1.17c3,3.983,5.607,7.269,5.607,7.269s-7.075,3.591-13.4,6.583c-6.437,3.042-13.63,7.319-13.63,7.319a110.1,110.1,0,0,0-8.541-17.562C8.063,23.793,1.4,15.237,1.4,15.237l3.9-2.154L7.121,14.9l-2.34,1.307A115.812,115.812,0,0,1,15.012,30.551Z"/>
  <path class="cls-1" d="M11.985,19.114l-0.546-.838L25.283,9.746l0.546,0.838Z"/>
  <path class="cls-1" d="M15.552,24.428L14.989,23.6l12.947-8.552L28.5,15.875Z"/>
  <path class="cls-1" d="M18.595,29.339L18,28.533l6.415-4.293,0.591,0.806Z"/>
  <path class="cls-1" d="M21.738,35.068l-0.581-.814L33.734,26.3l0.581,0.814Z"/>
  <path class="cls-1" d="M24.678,39.393l-0.552-.834,8.957-5.372,0.552,0.834Z"/>
  <path class="cls-1" d="M2.8,20.168A46.921,46.921,0,0,1,14.745,31.733q0.364,0.522.727,1.034a8.882,8.882,0,0,1,.152,2.125c-0.316-.46-0.626-0.909-0.927-1.34C9.664,26.338.523,20.364,0.523,20.364l3.194-4.159,1.854,0.8Zm22.407,25.3c0.87,1.2,1.622,2.345,1.622,2.345s5.81-4.868,9.17-7.444a1.894,1.894,0,0,1,2.641-.1L25.971,50.615s-1.232-1.932-3-4.651C24.017,45.457,24.916,45.063,25.207,45.465Zm20.567-11.02-1.841,1.5c0.185-.835.345-1.573,0.459-2.1Z"/>
  <path class="cls-1" d="M7.974,17.845L0.3,9.772l9.06-7.1,7.009,9.033ZM9.08,4.989L2.891,10.032l5.277,5.923L14.1,11.432Z"/>
  <path class="cls-1" d="M40.229,31.173l-3.925-3.7,5.666-5.712,5.2,6.008Zm-1.821-3.59L40.372,29.4l4.581-2.368-2.74-2.86Z"/>
</svg>
