<svg xmlns="http://www.w3.org/2000/svg" width="51" height="51" viewBox="0 0 51 51">
  <defs>
    <style>
      .cls-1 {
        fill-rule: evenodd;
      }
    </style>
  </defs>
  <path id="merged" class="cls-1" d="M39.619,35.819l-1.714-1.055C46.468,24.1,54.591,9.909,43.649,3.741c-10.672-6.03-18.175,5.8-18.175,5.8S22.043,4.16,16.508,2.5L14.9,0.142C21.51,0.86,25.472,6.548,25.472,6.548s7.736-11.114,19.62-4.237C56.944,9.17,48.732,24.245,39.619,35.819ZM22.384,24.014L36,31l-7,2L48,44,20,33l7-3L10,24l11-4L0,12A16.1,16.1,0,0,1,4,5a32.467,32.467,0,0,1,7-5L29.427,21ZM25.66,48s3.129-2.891,7.087-7.23l2.1,0.745C29.875,47.138,25.674,51,25.674,51S3.655,30.96.419,15.67l2.113,0.559C5.95,30.062,25.66,48,25.66,48Z"/>
</svg>
