<svg xmlns="http://www.w3.org/2000/svg" xmlns:xlink="http://www.w3.org/1999/xlink" preserveAspectRatio="xMidYMid" width="21" height="24" viewBox="0 0 21 24">
  <defs>
    <style>
      .cls-1 {
        fill: #000;
        fill-rule: evenodd;
      }
    </style>
  </defs>
  <path d="M21.000,1.500 C21.000,2.517 20.031,2.969 19.000,2.969 C17.969,2.969 15.000,3.000 14.000,3.000 C13.000,3.000 12.000,4.000 12.000,5.000 C12.000,7.000 12.000,20.281 12.000,22.000 C12.000,23.000 12.000,24.000 10.406,24.000 C9.000,24.000 9.000,23.117 9.000,22.000 C9.000,20.883 9.017,5.947 9.017,4.921 C9.017,3.894 8.000,3.000 7.000,3.000 C6.138,3.000 3.061,3.000 2.000,3.000 C0.940,3.000 0.000,2.488 0.000,1.469 C0.000,0.449 0.905,-0.000 1.965,-0.000 C3.025,-0.000 17.967,-0.000 18.967,-0.000 C19.967,-0.000 21.000,0.483 21.000,1.500 Z" class="cls-1"/>
</svg>
