<svg xmlns="http://www.w3.org/2000/svg" width="51" height="51" viewBox="0 0 51 51">
  <defs>
    <style>
      .cls-1 {
        fill-rule: evenodd;
      }
    </style>
  </defs>
  <path id="Lol" class="cls-1" d="M25.5,51A25.5,25.5,0,1,1,51,25.5,25.5,25.5,0,0,1,25.5,51Zm0-49A23.5,23.5,0,1,0,49,25.5,23.5,23.5,0,0,0,25.5,2Zm0,41A19.5,19.5,0,0,1,6,23.5C6,17,17,16,25.5,16S45,17.019,45,23.5A19.5,19.5,0,0,1,25.5,43ZM26,32c-6.187,0-11,2-11.908,4.771a17.5,17.5,0,0,0,22.727.076C36,35,32.187,32,26,32ZM37.168,13.741L31.8,12.169a0.958,0.958,0,0,1-.933-0.533,0.984,0.984,0,0,1-.132-0.82,1,1,0,0,1,.853-0.712L35.6,8.121a0.927,0.927,0,0,1,1.187.529,0.927,0.927,0,0,1-.3,1.264l-1.961.968,3.207,0.938A1,1,0,1,1,37.168,13.741ZM20.2,12.169l-5.372,1.572a1,1,0,1,1-.562-1.919l3.207-.938-1.961-.968a0.927,0.927,0,0,1-.3-1.264A0.927,0.927,0,0,1,16.4,8.121L20.416,10.1a1,1,0,0,1,.853.712,0.985,0.985,0,0,1-.132.821A0.958,0.958,0,0,1,20.2,12.169Z"/>
</svg>
