<svg xmlns="http://www.w3.org/2000/svg" width="36" height="36" viewBox="0 0 36 36">
  <metadata><?xpacket begin="﻿" id="W5M0MpCehiHzreSzNTczkc9d"?>
<x:xmpmeta xmlns:x="adobe:ns:meta/" x:xmptk="Adobe XMP Core 5.6-c138 79.159824, 2016/09/14-01:09:01        ">
   <rdf:RDF xmlns:rdf="http://www.w3.org/1999/02/22-rdf-syntax-ns#">
      <rdf:Description rdf:about=""/>
   </rdf:RDF>
</x:xmpmeta>
                                                                                                    
                                                                                                    
                                                                                                    
                                                                                                    
                                                                                                    
                                                                                                    
                                                                                                    
                                                                                                    
                                                                                                    
                                                                                                    
                                                                                                    
                                                                                                    
                                                                                                    
                                                                                                    
                                                                                                    
                                                                                                    
                                                                                                    
                                                                                                    
                                                                                                    
                                                                                                    
                           
<?xpacket end="w"?></metadata>
<defs>
    <style>
      .cls-1 {
        fill-rule: evenodd;
      }
    </style>
  </defs>
  <path id="waveform" class="cls-1" d="M0,18H4.944c0.685,0,1.635-2.971,2.846-5.041C8.446,11.838,9.071,11,10,11a2.336,2.336,0,0,1,2.156,2c1.252,5.389,4.18,21,4.764,21S21.365,4.476,21.875,2A2.18,2.18,0,0,1,24,0c0.988,0,1.634.682,2,2,1.263,4.122,3,16,4.991,16H36v2H30c-3,0-5.256-18-6.04-18C23,2,20.255,28.542,19,34c-0.294,1.28-1.007,2-2.015,2s-1.528-.87-1.985-2c-1.046-2.586-4.357-21-4.988-21C9.412,13,7.537,20,6,20H0V18Z"/>
</svg>
