<svg xmlns="http://www.w3.org/2000/svg" xmlns:xlink="http://www.w3.org/1999/xlink" preserveAspectRatio="xMidYMid" width="51" height="51" viewBox="0 0 51 51">
  <defs>
    <style>
      .cls-1 {
        fill: #000;
        fill-rule: evenodd;
      }
    </style>
  </defs>
  <path d="M25.500,51.000 C11.417,51.000 0.000,39.583 0.000,25.500 C0.000,11.417 11.417,-0.000 25.500,-0.000 C39.583,-0.000 51.000,11.417 51.000,25.500 C51.000,39.583 39.583,51.000 25.500,51.000 ZM25.500,2.000 C12.521,2.000 2.000,12.521 2.000,25.500 C2.000,38.479 12.521,49.000 25.500,49.000 C38.479,49.000 49.000,38.479 49.000,25.500 C49.000,12.521 38.479,2.000 25.500,2.000 ZM31.010,35.305 C28.128,36.265 24.953,41.124 23.578,37.299 C22.936,35.512 27.041,31.564 29.951,30.693 C32.861,29.822 34.559,31.898 35.031,33.823 C35.824,37.057 32.828,34.699 31.010,35.305 ZM32.159,20.637 C32.476,21.695 31.875,22.810 30.817,23.127 C29.759,23.444 28.644,22.843 28.327,21.785 C28.011,20.726 28.898,20.570 29.957,20.253 C31.015,19.936 32.159,20.637 32.159,20.637 ZM32.544,18.434 C30.900,17.798 30.341,18.050 27.467,18.911 C25.551,19.484 25.662,17.385 26.893,16.995 C28.435,16.506 31.683,15.560 32.928,16.231 C34.391,17.020 34.188,19.071 32.544,18.434 ZM19.321,26.569 C18.263,26.886 17.149,26.285 16.832,25.227 C16.515,24.169 17.116,23.054 18.174,22.737 C19.232,22.420 20.347,23.021 20.664,24.079 C20.981,25.137 20.380,26.252 19.321,26.569 ZM17.445,14.555 C14.811,15.300 13.870,17.165 13.482,18.718 C13.119,20.173 10.506,20.247 11.342,17.684 C12.096,15.370 14.047,13.523 17.016,12.634 C19.194,11.982 20.079,13.810 17.445,14.555 Z" class="cls-1"/>
</svg>
