<svg xmlns="http://www.w3.org/2000/svg" xmlns:xlink="http://www.w3.org/1999/xlink" preserveAspectRatio="xMidYMid" width="22" height="34" viewBox="0 0 22 34">
  <defs>
    <style>
      .cls-1 {
        fill: #000;
        fill-rule: evenodd;
      }
    </style>
  </defs>
  <path d="M10.938,33.900 C10.938,33.900 -0.112,20.900 -0.112,11.150 C-0.112,5.047 4.835,0.100 10.938,0.100 C17.040,0.100 21.988,5.047 21.988,11.150 C21.988,20.900 10.938,33.900 10.938,33.900 ZM10.938,4.000 C6.985,4.000 3.781,7.204 3.781,11.156 C3.781,15.109 6.985,18.313 10.938,18.313 C14.890,18.313 18.094,15.109 18.094,11.156 C18.094,7.204 14.890,4.000 10.938,4.000 ZM10.938,14.406 C9.143,14.406 7.688,12.951 7.688,11.156 C7.688,9.361 9.143,7.906 10.938,7.906 C12.732,7.906 14.188,9.361 14.188,11.156 C14.188,12.951 12.732,14.406 10.938,14.406 Z" class="cls-1"/>
</svg>
