<svg version="1.1" xmlns="http://www.w3.org/2000/svg" xmlns:xlink="http://www.w3.org/1999/xlink" x="0" y="0" width="51" height="51" viewBox="0, 0, 51, 51">
  <g id="Layer_3_Copy">
    <path d="M25.872,4.799 L25.872,4.799 C31.766,4.749 35.346,7.507 38.63,11.631 C41.195,15.162 42.111,18.809 41.614,23.146 C41.598,23.286 41.579,23.432 41.559,23.583 C41.526,23.828 41.488,24.084 41.446,24.347 C41.393,24.681 41.336,25.01 41.279,25.321 C41.245,25.507 41.218,25.647 41.203,25.724 C41.172,25.88 41.042,26.005 40.872,26.042 L37.644,26.739 C37.349,26.803 37.073,26.583 37.105,26.31 C37.107,26.292 37.111,26.252 37.114,26.193 C37.166,25.384 37.063,24.413 36.682,23.497 C35.933,21.692 34.325,20.664 31.506,20.767 C30.099,20.819 28.813,21.499 27.678,22.608 C27.274,23.003 26.919,23.424 26.617,23.844 C26.512,23.99 26.421,24.125 26.344,24.246 C26.303,24.312 26.303,24.312 26.277,24.355 C26.267,24.372 26.267,24.372 26.261,24.382 C26.259,24.386 26.259,24.386 26.257,24.389 C26.257,24.389 26.257,24.389 26.257,24.389 C25.969,24.723 25.759,24.664 25.474,24.389 C25.413,24.281 25.288,24.083 25.101,23.826 C24.789,23.394 24.421,22.962 24.003,22.56 C22.879,21.478 21.61,20.818 20.225,20.767 C17.406,20.664 15.798,21.692 15.049,23.497 C14.669,24.413 14.566,25.384 14.617,26.193 C14.621,26.252 14.625,26.292 14.627,26.31 C14.658,26.583 14.382,26.803 14.087,26.739 L10.86,26.042 C10.69,26.005 10.56,25.88 10.529,25.724 C10.513,25.647 10.487,25.507 10.452,25.321 C10.396,25.01 10.339,24.681 10.285,24.347 C10.244,24.084 10.206,23.828 10.173,23.583 C10.152,23.432 10.134,23.286 10.118,23.146 C9.62,18.809 10.536,15.162 13.101,11.631 C16.266,7.222 20.076,5.036 25.86,4.799 L25.86,4.799 L25.866,4.799 L25.872,4.799 z M25.866,5.198 L25.86,5.596 C20.894,5.535 17.149,7.509 13.835,12.07 C11.385,15.443 10.516,18.906 10.992,23.063 C11.008,23.198 11.026,23.34 11.046,23.487 C11.078,23.725 11.115,23.975 11.156,24.233 C11.208,24.561 11.264,24.884 11.32,25.19 L11.346,25.327 L13.734,25.843 C13.66,24.939 13.937,24.066 14.226,23.216 C15.105,21.097 17.052,19.852 20.261,19.97 C21.911,20.031 23.376,20.793 24.643,22.013 C25.099,22.451 25.497,22.919 25.836,23.388 L25.865,23.43 L25.881,23.407 C26.209,22.952 26.593,22.496 27.034,22.065 C28.312,20.816 29.796,20.032 31.471,19.97 C34.679,19.852 36.626,21.097 37.506,23.216 C37.851,24.054 38.008,24.949 37.997,25.843 L40.386,25.327 L40.411,25.19 C40.467,24.885 40.523,24.561 40.575,24.233 C40.617,23.975 40.654,23.725 40.686,23.487 C40.706,23.34 40.723,23.198 40.739,23.063 C41.216,18.906 40.346,15.443 37.896,12.07 C34.583,7.509 30.838,5.535 25.872,5.597 L25.866,5.198 z" fill="#000000"/>
    <path d="M26.257,24.389 L26.257,24.39 C26.257,24.39 26.257,24.39 26.257,24.39 L26.257,24.389 z" fill="#000000"/>
    <path d="M19.496,24.33 C22.005,24.33 24.04,26.177 24.04,28.456 C24.04,30.735 22.005,32.582 19.496,32.582 C16.986,32.582 14.951,30.735 14.951,28.456 C14.951,26.177 16.986,24.33 19.496,24.33 z M19.496,24.809 C17.277,24.809 15.479,26.441 15.479,28.456 C15.479,30.47 17.277,32.103 19.496,32.103 C21.714,32.103 23.512,30.47 23.512,28.456 C23.512,26.441 21.714,24.809 19.496,24.809 z" fill="#000000"/>
    <path d="M19.496,29.253 C19.033,29.253 18.658,28.896 18.658,28.456 C18.658,28.016 19.033,27.659 19.496,27.659 C19.958,27.659 20.333,28.016 20.333,28.456 C20.333,28.896 19.958,29.253 19.496,29.253 z" fill="#000000"/>
    <path d="M38.32,26.343 C38.32,26.351 38.32,26.351 38.321,26.38 C38.327,26.703 38.307,27.152 38.24,27.685 C38.136,28.508 37.939,29.324 37.627,30.088 C36.665,32.444 34.811,33.881 31.868,33.898 C29.699,33.911 28.058,33.336 26.881,32.368 C26.472,32.03 26.149,31.669 25.903,31.306 L25.866,31.246 L25.829,31.306 C25.583,31.669 25.26,32.03 24.85,32.368 C23.674,33.336 22.032,33.911 19.864,33.898 C16.921,33.881 15.066,32.444 14.105,30.088 C13.792,29.324 13.596,28.508 13.491,27.685 C13.424,27.152 13.404,26.703 13.411,26.38 C13.411,26.351 13.411,26.351 13.412,26.343 L13.939,26.36 C13.939,26.363 13.939,26.363 13.938,26.388 C13.932,26.691 13.951,27.12 14.016,27.63 C14.116,28.418 14.303,29.197 14.599,29.922 C15.49,32.106 17.166,33.404 19.867,33.42 C21.903,33.432 23.417,32.901 24.495,32.013 C24.867,31.708 25.158,31.381 25.379,31.055 C25.51,30.863 25.587,30.716 25.618,30.638 L25.866,30.034 L26.113,30.638 C26.145,30.716 26.222,30.863 26.352,31.055 C26.573,31.381 26.865,31.708 27.236,32.013 C28.315,32.901 29.829,33.432 31.864,33.42 C34.565,33.404 36.241,32.106 37.132,29.922 C37.428,29.197 37.616,28.418 37.716,27.63 C37.78,27.12 37.799,26.691 37.793,26.388 C37.793,26.363 37.793,26.363 37.792,26.36 L38.32,26.343 z" fill="#000000"/>
    <path d="M25.25,33.893 L25.653,34.201 L23.977,36.003 L23.574,35.694 L25.25,33.893 z" fill="#000000"/>
    <path d="M11.826,25.572 C11.818,25.539 12.204,27.414 12.433,28.412 C12.85,30.231 13.34,32.058 13.933,33.907 C15.354,38.343 19.623,47.408 20.679,48.179 C21.53,48.8 23.977,49.124 25.912,49.124 C27.981,49.124 30.35,48.811 31.21,48.183 C32.266,47.412 36.535,38.347 37.956,33.911 C38.549,32.061 39.039,30.234 39.456,28.416 C39.685,27.418 40.071,25.543 40.063,25.576 L41.141,25.786 C41.153,25.736 40.768,27.607 40.535,28.62 C40.113,30.462 39.616,32.314 39.015,34.19 C37.522,38.85 33.21,48.006 31.901,48.962 C30.765,49.791 28.251,50.124 25.912,50.124 C23.708,50.124 21.115,49.78 19.988,48.958 C18.679,48.003 14.367,38.846 12.874,34.187 C12.273,32.31 11.776,30.459 11.353,28.616 C11.121,27.603 10.736,25.733 10.748,25.782 L11.826,25.572 z" fill="#000000"/>
    <path d="M17.359,42.85 L24.322,42.912 L24.317,43.391 L17.354,43.328 L17.359,42.85 z" fill="#000000"/>
    <path d="M25.889,0.073 C27.847,0.104 31.477,1.695 34.275,3.75 C39.278,7.423 41.803,10.507 43.307,16.182 C44.086,19.12 44.069,22.127 43.573,24.89 C43.498,25.308 43.418,25.684 43.337,26.012 C43.288,26.211 43.249,26.352 43.226,26.429 L42.163,26.164 C42.181,26.102 42.216,25.977 42.261,25.794 C42.337,25.485 42.414,25.128 42.485,24.729 C42.959,22.087 42.976,19.208 42.235,16.415 C40.796,10.985 38.412,8.074 33.582,4.527 C30.957,2.6 27.533,1.099 25.889,1.073 C24.269,1.098 20.924,2.614 18.243,4.582 C13.413,8.129 11.029,11.041 9.589,16.471 C8.849,19.263 8.866,22.142 9.34,24.785 C9.411,25.183 9.488,25.54 9.564,25.849 C9.609,26.033 9.644,26.158 9.662,26.219 L8.599,26.484 C8.576,26.407 8.537,26.267 8.488,26.067 C8.407,25.739 8.327,25.363 8.252,24.945 C7.756,22.182 7.739,19.175 8.517,16.237 C10.022,10.562 12.547,7.478 17.55,3.805 C20.404,1.709 23.949,0.103 25.889,0.073 z" fill="#000000"/>
    <path d="M11.275,25.852 L11.3,26.851 C11.166,26.854 10.931,26.861 10.628,26.871 C10.123,26.89 9.618,26.914 9.148,26.945 C8.595,26.982 8.129,27.026 7.781,27.076 C7.49,27.125 7.617,27.099 7.401,27.148 C8.001,29.643 8.628,32.153 9.541,34.572 C9.652,34.561 9.571,34.57 9.783,34.527 C10.09,34.454 10.501,34.315 10.985,34.123 C11.147,34.06 11.315,33.991 11.488,33.917 C11.847,33.765 12.211,33.601 12.559,33.437 C12.769,33.339 12.926,33.263 13.012,33.22 L13.54,34.098 C13.447,34.144 13.283,34.224 13.066,34.325 C12.705,34.495 12.329,34.664 11.955,34.823 C11.774,34.9 11.597,34.972 11.426,35.04 C9.944,35.627 9.188,35.806 8.748,35.317 C8.154,34.655 6.057,27.089 6.487,26.518 C6.76,26.156 7.457,26.055 9.067,25.948 C9.551,25.916 10.068,25.891 10.584,25.872 C10.894,25.861 11.136,25.855 11.275,25.852 z" fill="#000000"/>
    <path d="M12.14,30.107 L12.27,30.571 L8.231,31.498 L8.101,31.034 L12.14,30.107 z" fill="#000000"/>
    <path d="M11.453,34.432 C11.469,34.478 11.469,34.478 11.542,34.69 C11.613,34.896 11.693,35.125 11.78,35.372 C12.028,36.078 12.281,36.783 12.523,37.441 C12.591,37.624 12.591,37.624 12.659,37.806 C12.976,38.599 13.239,39.413 13.622,40.183 L13.683,40.172 C13.84,40.155 14.052,40.108 14.301,40.036 C14.434,39.998 14.574,39.953 14.72,39.903 C15.042,39.794 15.324,39.683 15.493,39.611 L15.96,40.518 C15.767,40.599 15.461,40.719 15.108,40.84 C14.946,40.895 14.788,40.945 14.636,40.989 C13.807,41.229 13.281,41.285 12.904,40.973 C12.635,40.75 12.275,39.897 11.614,38.126 C11.546,37.943 11.546,37.943 11.478,37.758 C11.233,37.095 10.979,36.385 10.73,35.676 C10.642,35.427 10.562,35.197 10.49,34.99 C10.417,34.777 10.417,34.777 10.4,34.729 L11.453,34.432 z" fill="#000000"/>
    <path d="M17.999,4.354 L19.632,6.452 L19.201,6.728 L17.568,4.63 L17.999,4.354 z" fill="#000000"/>
    <path d="M13.453,8.21 L15.392,9.799 L15.038,10.154 L13.099,8.565 L13.453,8.21 z" fill="#000000"/>
    <path d="M9.946,13.843 L11.709,14.742 L11.45,15.16 L9.687,14.26 L9.946,13.843 z" fill="#000000"/>
    <path d="M8.479,20.526 L10.445,20.646 L10.409,21.123 L8.443,21.003 L8.479,20.526 z" fill="#000000"/>
    <path d="M14.356,36.806 L14.485,37.27 L12.27,37.779 L12.14,37.315 L14.356,36.806 z" fill="#000000"/>
    <path d="M16.678,42.115 L16.69,42.616 L16.88,50.44 L16.892,50.952 L16.327,50.951 L14.766,50.948 L14.615,50.948 L14.485,50.878 L12.689,49.904 L12.438,49.768 L12.421,49.504 L12.095,44.317 L12.079,44.073 L12.282,43.912 L14.339,42.28 L14.49,42.161 L14.69,42.157 L16.126,42.127 L16.678,42.115 z M15.6,43.138 L14.915,43.152 L13.211,44.504 L13.505,49.182 L14.92,49.949 L15.765,49.95 L15.6,43.138 z" fill="#000000"/>
    <path d="M14.966,42.649 L15.238,50.516 L14.711,50.531 L14.438,42.664 L14.966,42.649 z" fill="#000000"/>
    <path d="M17.784,43.575 L17.784,44.575 L16.412,44.575 L16.412,43.575 L17.784,43.575 z" fill="#000000"/>
    <path d="M20.324,48.069 L20.342,49.069 L16.421,49.127 L16.403,48.127 L20.324,48.069 z" fill="#000000"/>
    <path d="M32.361,24.333 C34.871,24.333 36.906,26.181 36.905,28.46 C36.906,30.738 34.871,32.586 32.361,32.585 C29.852,32.586 27.817,30.738 27.817,28.46 C27.817,26.181 29.852,24.333 32.361,24.333 z M32.361,24.812 C30.143,24.812 28.345,26.445 28.345,28.46 C28.345,30.474 30.143,32.107 32.361,32.107 C34.58,32.107 36.378,30.474 36.378,28.46 C36.378,26.445 34.58,24.812 32.361,24.812 z" fill="#000000"/>
    <path d="M32.361,29.256 C32.824,29.256 33.199,28.9 33.199,28.46 C33.199,28.019 32.824,27.663 32.361,27.663 C31.899,27.663 31.524,28.019 31.524,28.46 C31.524,28.9 31.899,29.256 32.361,29.256 z" fill="#000000"/>
    <path d="M26.607,33.896 L28.283,35.698 L27.88,36.006 L26.204,34.205 L26.607,33.896 z" fill="#000000"/>
    <path d="M34.498,42.853 L34.503,43.332 L27.54,43.395 L27.535,42.916 L34.498,42.853 z" fill="#000000"/>
    <path d="M40.582,25.855 C40.721,25.858 40.963,25.865 41.273,25.876 C41.789,25.894 42.306,25.919 42.79,25.951 C44.4,26.058 45.097,26.16 45.37,26.522 C45.801,27.093 43.703,34.658 43.109,35.32 C42.669,35.81 41.913,35.63 40.431,35.044 C40.26,34.976 40.083,34.903 39.902,34.826 C39.528,34.668 39.152,34.499 38.791,34.329 C38.574,34.227 38.41,34.148 38.317,34.102 L38.845,33.224 C38.931,33.267 39.088,33.343 39.297,33.441 C39.646,33.605 40.01,33.768 40.369,33.921 C40.542,33.994 40.71,34.063 40.872,34.127 C41.356,34.319 41.767,34.458 42.074,34.531 C42.286,34.574 42.205,34.564 42.316,34.575 C43.168,32.142 43.922,29.66 44.456,27.152 C44.24,27.102 44.366,27.128 44.076,27.08 C43.728,27.029 43.262,26.985 42.709,26.949 C42.239,26.917 41.734,26.893 41.229,26.875 C40.926,26.864 40.691,26.858 40.557,26.855 L40.582,25.855 z" fill="#000000"/>
    <path d="M39.716,30.111 L43.755,31.038 L43.626,31.501 L39.587,30.575 L39.716,30.111 z" fill="#000000"/>
    <path d="M40.404,34.435 L41.457,34.732 C41.44,34.78 41.44,34.78 41.367,34.993 C41.295,35.2 41.215,35.431 41.127,35.679 C40.878,36.389 40.624,37.099 40.379,37.762 C40.311,37.946 40.311,37.946 40.243,38.13 C39.582,39.9 39.222,40.753 38.953,40.976 C38.576,41.289 38.05,41.232 37.221,40.993 C37.069,40.949 36.911,40.899 36.749,40.843 C36.396,40.723 36.09,40.603 35.897,40.521 L36.363,39.615 C36.533,39.687 36.815,39.797 37.137,39.907 C37.283,39.957 37.423,40.002 37.556,40.04 C37.805,40.112 38.017,40.159 38.173,40.175 L38.235,40.187 C38.606,39.414 38.894,38.606 39.198,37.809 C39.266,37.627 39.266,37.627 39.334,37.445 C39.576,36.787 39.829,36.081 40.077,35.375 C40.164,35.129 40.244,34.899 40.315,34.693 C40.388,34.482 40.388,34.482 40.404,34.435 z" fill="#000000"/>
    <path d="M33.857,4.357 L34.289,4.633 L32.656,6.731 L32.225,6.455 L33.857,4.357 z" fill="#000000"/>
    <path d="M38.404,8.214 L38.758,8.569 L36.818,10.157 L36.465,9.802 L38.404,8.214 z" fill="#000000"/>
    <path d="M41.911,13.847 L42.17,14.264 L40.407,15.163 L40.148,14.746 L41.911,13.847 z" fill="#000000"/>
    <path d="M43.378,20.529 L43.414,21.007 L41.447,21.127 L41.412,20.649 L43.378,20.529 z" fill="#000000"/>
    <path d="M37.501,36.809 L39.717,37.319 L39.587,37.783 L37.371,37.273 L37.501,36.809 z" fill="#000000"/>
    <path d="M35.177,42.119 L35.731,42.13 L37.167,42.16 L37.367,42.164 L37.518,42.284 L39.575,43.915 L39.778,44.076 L39.762,44.32 L39.436,49.507 L39.419,49.772 L39.168,49.908 L37.372,50.881 L37.241,50.952 L37.089,50.952 L35.558,50.951 L34.996,50.951 L35.007,50.442 L35.167,42.621 L35.177,42.119 z M36.259,43.141 L36.119,49.951 L36.937,49.952 L38.351,49.185 L38.646,44.507 L36.942,43.156 L36.259,43.141 z" fill="#000000"/>
    <path d="M36.891,42.653 L37.418,42.668 L37.146,50.534 L36.619,50.519 L36.891,42.653 z" fill="#000000"/>
    <path d="M35.445,43.579 L35.445,44.579 L34.073,44.579 L34.073,43.579 L35.445,43.579 z" fill="#000000"/>
    <path d="M31.533,48.072 L35.454,48.131 L35.435,49.131 L31.514,49.072 L31.533,48.072 z" fill="#000000"/>
    <path d="M18.791,11.72 C19.236,11.658 19.843,11.869 20.354,12.279 C20.428,12.338 20.428,12.338 20.503,12.397 C21.297,13.021 21.502,13.259 21.267,13.628 C21.299,13.578 19.748,15.167 18.982,16.26 C18.51,16.933 17.529,18.627 17.312,18.627 C17.223,18.627 17.087,18.57 16.753,18.412 C16.583,18.331 15.819,17.96 15.857,17.978 C15.856,17.978 15.856,17.978 15.854,17.976 C15.807,17.954 15.758,17.931 15.707,17.908 C15.517,17.823 14.916,17.588 14.91,17.585 C14.561,17.44 14.429,17.351 14.485,17.163 C14.568,16.884 14.742,16.424 14.967,15.941 C15.296,15.233 15.692,14.556 16.155,13.956 C17.133,12.687 18.221,11.8 18.791,11.72 z M18.845,12.035 C18.398,12.098 17.371,12.937 16.443,14.139 C15.995,14.718 15.611,15.377 15.291,16.065 C15.073,16.534 14.903,16.981 14.825,17.246 C14.842,17.188 14.913,17.235 15.057,17.296 C15.056,17.295 15.663,17.533 15.862,17.622 C15.917,17.646 15.969,17.671 16.019,17.695 C16.021,17.696 16.021,17.696 16.023,17.697 C17.26,18.295 17.287,18.308 17.312,18.308 C17.284,18.308 17.372,18.184 17.562,17.854 C17.939,17.204 18.22,16.752 18.685,16.089 C19.472,14.965 21.017,13.384 20.962,13.469 C21.058,13.318 20.894,13.126 20.273,12.639 C20.197,12.579 20.197,12.579 20.121,12.518 C19.682,12.166 19.175,11.989 18.845,12.035 z" fill="#000000"/>
    <path d="M31.498,11.575 C32.068,11.656 33.155,12.543 34.134,13.811 C34.597,14.411 34.993,15.089 35.322,15.796 C35.546,16.279 35.721,16.74 35.804,17.018 C35.86,17.206 35.728,17.295 35.378,17.441 C35.372,17.443 34.772,17.679 34.582,17.764 C34.531,17.786 34.482,17.809 34.435,17.832 L34.431,17.834 C34.47,17.815 33.706,18.187 33.535,18.267 C33.202,18.425 33.065,18.482 32.976,18.482 C32.759,18.482 31.779,16.789 31.307,16.115 C30.541,15.022 28.99,13.434 29.022,13.484 C28.787,13.115 28.992,12.876 29.786,12.253 C29.861,12.193 29.861,12.193 29.935,12.135 C30.446,11.724 31.053,11.513 31.498,11.575 z M31.444,11.891 C31.114,11.844 30.607,12.021 30.168,12.373 C30.092,12.434 30.092,12.434 30.016,12.494 C29.395,12.982 29.23,13.173 29.326,13.324 C29.272,13.239 30.817,14.82 31.604,15.944 C32.068,16.607 32.35,17.06 32.726,17.71 C32.917,18.039 33.005,18.163 32.976,18.163 C33.002,18.163 33.028,18.15 34.266,17.552 C34.268,17.551 34.268,17.551 34.269,17.55 C34.32,17.526 34.372,17.502 34.426,17.477 C34.626,17.388 35.232,17.15 35.231,17.151 C35.376,17.091 35.447,17.043 35.464,17.101 C35.386,16.837 35.216,16.39 34.998,15.92 C34.678,15.232 34.293,14.574 33.846,13.994 C32.918,12.792 31.891,11.954 31.444,11.891 z" fill="#000000"/>
    <path d="M26.181,40.87 L26.344,40.87 C26.999,40.875 27.698,40.922 28.399,40.997 C28.844,41.044 29.192,41.092 29.393,41.124 L29.302,41.595 C29.11,41.565 28.771,41.518 28.337,41.472 C27.654,41.399 26.973,41.353 26.34,41.349 C26.235,41.348 26.132,41.348 26.03,41.35 C25.871,41.352 25.704,41.357 25.532,41.365 C24.999,41.388 24.427,41.435 23.845,41.497 C23.54,41.529 23.252,41.564 22.989,41.599 C22.831,41.62 22.718,41.636 22.657,41.645 L22.571,41.173 C22.634,41.164 22.751,41.147 22.912,41.126 C23.18,41.09 23.473,41.055 23.784,41.021 C24.377,40.958 24.96,40.911 25.507,40.887 C25.684,40.879 25.856,40.874 26.021,40.871 L26.181,40.87 z" fill="#000000"/>
    <path d="M25.945,43.78 C26.602,43.802 27.208,43.849 27.757,43.916 C28.22,43.971 28.548,44.028 28.726,44.066 L28.604,44.532 C28.443,44.497 28.132,44.444 27.687,44.39 C27.155,44.326 26.565,44.279 25.926,44.258 C25.132,44.232 24.438,44.265 23.855,44.335 C23.593,44.367 23.414,44.398 23.327,44.418 L23.199,43.953 C23.306,43.929 23.503,43.895 23.786,43.861 C24.397,43.787 25.121,43.753 25.945,43.78 z" fill="#000000"/>
    <g>
      <path d="M23.897,41.105 L28.14,41.105 L28.14,44.01 L23.897,44.01 z" fill="#000000"/>
      <path d="M28.14,41.104 L28.14,44.01 L23.897,44.01 L23.897,41.104 L28.14,41.104 z M27.612,41.583 L24.425,41.583 L24.425,43.532 L27.612,43.532 L27.612,41.583 z" fill="#000000"/>
    </g>
    <path d="M25.777,1.03 C26.977,1.034 27.947,1.908 27.943,2.983 C27.939,4.057 26.963,4.925 25.763,4.921 C24.563,4.918 23.594,4.044 23.598,2.969 C23.602,1.895 24.578,1.027 25.778,1.03 z M25.776,1.509 C24.866,1.506 24.128,2.162 24.125,2.971 C24.122,3.779 24.855,4.44 25.765,4.443 C26.675,4.445 27.413,3.79 27.415,2.981 C27.418,2.172 26.686,1.512 25.776,1.509 L25.776,1.509 z" fill="#000000"/>
  </g>
</svg>
