<svg id="Highlight" xmlns="http://www.w3.org/2000/svg" width="26" height="26" viewBox="0 0 26 26">
  <metadata><?xpacket begin="﻿" id="W5M0MpCehiHzreSzNTczkc9d"?>
<x:xmpmeta xmlns:x="adobe:ns:meta/" x:xmptk="Adobe XMP Core 5.6-c138 79.159824, 2016/09/14-01:09:01        ">
   <rdf:RDF xmlns:rdf="http://www.w3.org/1999/02/22-rdf-syntax-ns#">
      <rdf:Description rdf:about=""/>
   </rdf:RDF>
</x:xmpmeta>
                                                                                                    
                                                                                                    
                                                                                                    
                                                                                                    
                                                                                                    
                                                                                                    
                                                                                                    
                                                                                                    
                                                                                                    
                                                                                                    
                                                                                                    
                                                                                                    
                                                                                                    
                                                                                                    
                                                                                                    
                                                                                                    
                                                                                                    
                                                                                                    
                                                                                                    
                                                                                                    
                           
<?xpacket end="w"?></metadata>
<defs>
    <style>
      .cls-1, .cls-2 {
        fill-rule: evenodd;
      }

      .cls-1 {
        opacity: 0.25;
      }
    </style>
  </defs>
  <g id="AB_bigger_with_BG" data-name="AB bigger with BG">
    <path id="BG" class="cls-1" opacity="0.25" d="M0,2H26V24H0V2ZM0,0,26,26"/>
    <path id="_a_b_" data-name="&quot;a b&quot;" class="cls-2" d="M20.469,22A4.739,4.739,0,0,1,17,20.269V22H15V4h2v6.36A5.188,5.188,0,0,1,20.469,9c3,0,5.531,2,5.531,6S23.469,22,20.469,22Zm0-11A4.609,4.609,0,0,0,17,12.538v5.37A4.359,4.359,0,0,0,20.469,20c2,0,3.531-2.929,3.531-5A3.842,3.842,0,0,0,20.469,11ZM10,20a12.677,12.677,0,0,1-6,2,4.141,4.141,0,0,1-4-4,4,4,0,0,1,4-4h6a3.99,3.99,0,0,0-7.206-2.371l-1.589-1.2A5.983,5.983,0,0,1,12,14v8H10V20Zm0-4H4a2,2,0,0,0-2,2,2.07,2.07,0,0,0,2,2c2,0,6-2,6-2V16Z"/>
  </g>
</svg>
