<svg xmlns="http://www.w3.org/2000/svg" xmlns:xlink="http://www.w3.org/1999/xlink" preserveAspectRatio="xMidYMid" width="464" height="464" viewBox="0 0 464 464">
  <defs>
    <style>
      .cls-1, .cls-2 {
        fill: aqua;
      }

      .cls-1 {
        fill-rule: evenodd;
      }
    </style>
  </defs>
  <g>
    <path d="M232.000,464.000 C103.870,464.000 -0.000,360.130 -0.000,232.000 C-0.000,103.870 103.870,-0.000 232.000,-0.000 C360.130,-0.000 464.000,103.870 464.000,232.000 C464.000,360.130 360.130,464.000 232.000,464.000 ZM232.000,24.000 C117.125,24.000 24.000,117.125 24.000,232.000 C24.000,346.875 117.125,440.000 232.000,440.000 C346.875,440.000 440.000,346.875 440.000,232.000 C440.000,117.125 346.875,24.000 232.000,24.000 Z" class="cls-1"/>
    <rect x="107" y="147.5" width="250" height="179.5" rx="2" ry="2" class="cls-2"/>
    <path d="M109.000,115.000 L204.000,115.000 C206.929,115.000 210.590,116.261 213.000,119.000 C213.000,119.000 226.952,136.694 233.000,144.000 C236.331,148.024 242.000,148.000 242.000,148.000 L242.000,187.000 L109.000,187.000 C107.895,187.000 107.000,186.105 107.000,185.000 L107.000,117.000 C107.000,115.895 107.895,115.000 109.000,115.000 Z" class="cls-1"/>
  </g>
</svg>
