<svg xmlns="http://www.w3.org/2000/svg" width="26" height="26" viewBox="0 0 26 26">
  <defs>
    <style>
      .cls-1 {
        fill-rule: evenodd;
      }
    </style>
  </defs>
  <path id="M_for_13px_copy" data-name="M for 13px copy" class="cls-1" d="M23.539,13.089A6.515,6.515,0,0,1,20.29,8.654a43.58,43.58,0,0,1-.426-5.607L19.136,4.052a12.229,12.229,0,0,0-1.027,1.586Q17.443,6.8,16.667,8.132T15.05,10.693a4.657,4.657,0,0,1-1.161,1.246,3.611,3.611,0,0,1-1.274.589,3.271,3.271,0,0,1-1.212.209,1.27,1.27,0,0,1-.612-0.173,1.893,1.893,0,0,1-.5-1.279c-0.152-.8-0.287-1.159-0.406-2.176s-0.2-2.056-.252-3.12S9.575,4.1,9.6,3.507L8.586,4.724Q7.785,5.8,6.837,7.168a27.2,27.2,0,0,1-2.03,2.581,16.229,16.229,0,0,1-2.221,2.337,2.934,2.934,0,0,1-2.047.753C0.171,12.823-.006,12.694,0,12.446A33.84,33.84,0,0,1,3.275.854a1.268,1.268,0,0,1,.8-0.619A4.258,4.258,0,0,1,5.464,0C5.783,0.01,5.941.09,5.935,0.238l-0.006.148C5.365,1.843,5.047,2.071,4.444,3.937A29.452,29.452,0,0,0,3.218,8.415,11.471,11.471,0,0,1,4.931,5.83,23.819,23.819,0,0,1,7.069,3.143,13.081,13.081,0,0,1,9.492,1.06,4.6,4.6,0,0,1,12.274.287a0.607,0.607,0,0,1,.731.623l-0.069,0C12.982,0.909,13,.96,13,1.058a4.469,4.469,0,0,1-.177.955,5.865,5.865,0,0,0-.191,1.325,21.6,21.6,0,0,0,.053,2.6,25.445,25.445,0,0,0,.391,3.089l1.4-2.237c0.541-.914.982-1.516,1.324-2.02s0.826-.945,1.456-1.758c-0.271.356,1.57-1.724,1.851-1.877A13.7,13.7,0,0,1,20.4.413,3.077,3.077,0,0,1,21.683.171a2.149,2.149,0,0,1,.883.259,0.818,0.818,0,0,1,.448.833,1.852,1.852,0,0,1-.048.331,1.771,1.771,0,0,0-.048.331c0,2.221.162,6.731,1.384,8.247C26.234,12.567,27.2,15.22,23.539,13.089ZM26,18H0V16H26v2Zm0,4H0V20H26v2Zm0,4H0V24H26v2Z"/>
</svg>
