<svg xmlns="http://www.w3.org/2000/svg" xmlns:xlink="http://www.w3.org/1999/xlink" preserveAspectRatio="xMidYMid" width="58" height="58" viewBox="0 0 58 58">
  <defs>
    
  </defs>
  <path d="M29.000,58.000 C12.984,58.000 -0.000,45.016 -0.000,29.000 C-0.000,12.984 12.984,-0.000 29.000,-0.000 C45.016,-0.000 58.000,12.984 58.000,29.000 C58.000,45.016 45.016,58.000 29.000,58.000 ZM29.000,3.000 C14.641,3.000 3.000,14.641 3.000,29.000 C3.000,43.359 14.641,55.000 29.000,55.000 C43.359,55.000 55.000,43.359 55.000,29.000 C55.000,14.641 43.359,3.000 29.000,3.000 ZM14.987,14.925 C14.987,13.820 15.883,12.925 16.987,12.925 C16.987,12.925 23.000,12.933 23.000,12.933 C23.000,12.933 23.000,12.000 23.000,12.000 C23.000,10.343 24.343,9.000 26.000,9.000 C26.000,9.000 31.000,9.000 31.000,9.000 C32.657,9.000 34.000,10.343 34.000,12.000 C34.000,12.000 34.000,12.948 34.000,12.948 C34.000,12.948 39.981,12.956 39.981,12.956 C41.086,12.956 41.981,13.852 41.981,14.956 C41.981,14.956 41.981,17.975 41.981,17.975 C41.981,17.975 14.987,17.975 14.987,17.975 C14.987,17.975 14.987,14.925 14.987,14.925 ZM25.919,12.925 C25.919,12.925 30.987,12.925 30.987,12.925 C30.987,12.925 30.987,11.781 30.987,11.781 C30.987,11.339 30.629,10.981 30.187,10.981 C30.187,10.981 26.719,10.981 26.719,10.981 C26.277,10.981 25.919,11.339 25.919,11.781 C25.919,11.781 25.919,12.925 25.919,12.925 ZM39.975,43.981 C39.975,45.638 38.632,46.981 36.975,46.981 C36.975,46.981 19.963,46.981 19.963,46.981 C18.306,46.981 16.963,45.638 16.963,43.981 C16.963,43.981 16.963,19.981 16.963,19.981 C16.963,19.981 39.975,19.981 39.975,19.981 C39.975,19.981 39.975,43.981 39.975,43.981 ZM23.719,25.200 C23.719,24.537 23.182,24.000 22.519,24.000 C22.519,24.000 22.513,24.000 22.513,24.000 C21.850,24.000 21.313,24.537 21.313,25.200 C21.313,25.200 21.313,41.206 21.313,41.206 C21.313,41.869 21.850,42.406 22.513,42.406 C22.513,42.406 22.519,42.406 22.519,42.406 C23.182,42.406 23.719,41.869 23.719,41.206 C23.719,41.206 23.719,25.200 23.719,25.200 ZM29.700,25.200 C29.700,24.537 29.163,24.000 28.500,24.000 C27.837,24.000 27.300,24.537 27.300,25.200 C27.300,25.200 27.300,41.200 27.300,41.200 C27.300,41.863 27.837,42.400 28.500,42.400 C29.163,42.400 29.700,41.863 29.700,41.200 C29.700,41.200 29.700,25.200 29.700,25.200 ZM35.688,25.200 C35.688,24.537 35.150,24.000 34.488,24.000 C34.488,24.000 34.481,24.000 34.481,24.000 C33.819,24.000 33.281,24.537 33.281,25.200 C33.281,25.200 33.281,41.206 33.281,41.206 C33.281,41.869 33.819,42.406 34.481,42.406 C34.481,42.406 34.488,42.406 34.488,42.406 C35.150,42.406 35.688,41.869 35.688,41.206 C35.688,41.206 35.688,25.200 35.688,25.200 Z" id="path-1" class="cls-2" fill-rule="evenodd"/>
</svg>
