<svg xmlns="http://www.w3.org/2000/svg" width="51" height="51" viewBox="0 0 51 51">
  <defs>
    <style>
      .cls-1 {
        fill-rule: evenodd;
      }
    </style>
  </defs>
  <path id="icon_reader_feedback_settings.svg" class="cls-1" d="M43,51H8a8,8,0,0,1-8-8V8A8,8,0,0,1,8,0H43a8,8,0,0,1,8,8V43A8,8,0,0,1,43,51ZM20.148,28.892a3.408,3.408,0,0,0-.887-2.618,3.917,3.917,0,0,0-2.726-.816,7.217,7.217,0,0,0-1.816.235,7.32,7.32,0,0,0-1.666.647l0.479,1.192a6.786,6.786,0,0,1,2.909-.788,2.142,2.142,0,0,1,1.666.577,2.607,2.607,0,0,1,.521,1.788v0.638l-1.745.056q-4.983.15-4.983,3.265a2.875,2.875,0,0,0,.868,2.243,3.435,3.435,0,0,0,2.4.788,4.679,4.679,0,0,0,1.909-.343,4.327,4.327,0,0,0,1.534-1.309h0.075l0.31,1.464h1.154V28.892Zm18.729-6.55q0-3.7-1.661-5.442a6.623,6.623,0,0,0-5.02-1.745,15.545,15.545,0,0,0-6.643,1.576l0.694,1.614a12.742,12.742,0,0,1,5.874-1.576,4.585,4.585,0,0,1,3.81,1.483,6.937,6.937,0,0,1,1.182,4.392v1.351l-3.885.113q-4.711.094-7.2,1.745a5.256,5.256,0,0,0-2.487,4.635,5.5,5.5,0,0,0,1.67,4.26,6.639,6.639,0,0,0,4.673,1.539,8.448,8.448,0,0,0,3.838-.816,9.692,9.692,0,0,0,3.162-2.787h0.15l0.469,3.228h1.37V22.342ZM30,34.6a4.767,4.767,0,0,1-3.312-1.06,3.8,3.8,0,0,1-1.173-2.974,3.866,3.866,0,0,1,1.83-3.538q1.83-1.135,6.127-1.342l3.566-.15v2.008a6.973,6.973,0,0,1-1.886,5.189A7,7,0,0,1,30,34.6Zm-14.526.216a2.122,2.122,0,0,1-1.431-.441,1.6,1.6,0,0,1-.511-1.285,1.74,1.74,0,0,1,.821-1.59,5.667,5.667,0,0,1,2.679-.577l1.558-.066v0.929a2.95,2.95,0,0,1-.83,2.233A3.161,3.161,0,0,1,15.475,34.813Z"/>
</svg>
