<svg xmlns="http://www.w3.org/2000/svg" width="51" height="51" viewBox="0 0 51 51">
  <metadata><?xpacket begin="﻿" id="W5M0MpCehiHzreSzNTczkc9d"?>
<x:xmpmeta xmlns:x="adobe:ns:meta/" x:xmptk="Adobe XMP Core 5.6-c138 79.159824, 2016/09/14-01:09:01        ">
   <rdf:RDF xmlns:rdf="http://www.w3.org/1999/02/22-rdf-syntax-ns#">
      <rdf:Description rdf:about=""/>
   </rdf:RDF>
</x:xmpmeta>
                                                                                                    
                                                                                                    
                                                                                                    
                                                                                                    
                                                                                                    
                                                                                                    
                                                                                                    
                                                                                                    
                                                                                                    
                                                                                                    
                                                                                                    
                                                                                                    
                                                                                                    
                                                                                                    
                                                                                                    
                                                                                                    
                                                                                                    
                                                                                                    
                                                                                                    
                                                                                                    
                           
<?xpacket end="w"?></metadata>
<defs>
    <style>
      .cls-1 {
        fill-rule: evenodd;
      }
    </style>
  </defs>
  <path id="merged" class="cls-1" d="M45.788,37.7L50,49l-2,2L36.6,44.631A27.141,27.141,0,0,1,25.5,47C11.417,47,0,36.479,0,23.5S11.417,0,25.5,0,51,10.521,51,23.5A22.209,22.209,0,0,1,45.788,37.7ZM25.5,2C12.521,2,2,11.626,2,23.5S12.521,45,25.5,45a25.02,25.02,0,0,0,11.2-2.631C39.457,43.842,47.5,48.5,47.5,48.5s-3.344-9.2-4.344-11.2c0.019-.14.021-0.26,0.034-0.394l1.731-1.539,0.059,0.159A20.142,20.142,0,0,0,49,23.5C49,11.626,38.479,2,25.5,2Z"/>
</svg>
