<?xml version="1.0" encoding="utf-8"?>
<!-- Generator: Adobe Illustrator 22.0.1, SVG Export Plug-In . SVG Version: 6.00 Build 0)  -->
<svg version="1.1" id="V5" xmlns="http://www.w3.org/2000/svg" xmlns:xlink="http://www.w3.org/1999/xlink" x="0px" y="0px"
	 viewBox="0 0 72 61.3" enable-background="new 0 0 72 61.3" xml:space="preserve">
<path d="M67.4,1.8L67.4,1.8c0,1-0.8,1.8-1.8,1.8H1.8C0.8,3.6,0,2.8,0,1.8v0C0,0.8,0.8,0,1.8,0h63.9C66.6,0,67.4,0.8,67.4,1.8z"/>
<path d="M70.4,20.7L70.4,20.7c0,1-0.8,1.8-1.8,1.8H1.8c-1,0-1.8-0.8-1.8-1.8v0c0-1,0.8-1.8,1.8-1.8h66.8
	C69.6,19,70.4,19.8,70.4,20.7z"/>
<path d="M54.5,39.6L54.5,39.6c0,1-0.8,1.8-1.8,1.8h-51c-1,0-1.8-0.8-1.8-1.8v0c0-1,0.8-1.8,1.8-1.8h51
	C53.7,37.9,54.5,38.7,54.5,39.6z"/>
<path d="M72,58.5L72,58.5c0,1-0.8,1.8-1.8,1.8H1.8c-1,0-1.8-0.8-1.8-1.8v0c0-1,0.8-1.8,1.8-1.8h68.4C71.2,56.8,72,57.6,72,58.5z"/>
</svg>
