<svg xmlns="http://www.w3.org/2000/svg" xmlns:xlink="http://www.w3.org/1999/xlink" preserveAspectRatio="xMidYMid" width="51" height="51" viewBox="0 0 51 51">
  <defs>
    <style>
      .cls-1 {
        fill: #000;
        fill-rule: evenodd;
      }
    </style>
  </defs>
  <path d="M25.500,51.000 C11.417,51.000 0.000,39.583 0.000,25.500 C0.000,11.417 11.417,-0.000 25.500,-0.000 C39.583,-0.000 51.000,11.417 51.000,25.500 C51.000,39.583 39.583,51.000 25.500,51.000 ZM25.500,2.000 C12.521,2.000 2.000,12.521 2.000,25.500 C2.000,38.479 12.521,49.000 25.500,49.000 C38.479,49.000 49.000,38.479 49.000,25.500 C49.000,12.521 38.479,2.000 25.500,2.000 ZM25.406,31.250 C20.821,31.250 16.799,33.630 14.485,37.215 C13.847,36.924 13.233,36.643 12.645,36.374 C15.288,32.100 20.012,29.250 25.406,29.250 C30.714,29.250 35.368,32.013 38.034,36.173 C37.462,36.450 36.848,36.748 36.216,37.054 C33.886,33.560 29.921,31.250 25.406,31.250 ZM35.730,18.179 L32.523,19.117 L34.484,20.085 C34.896,20.288 35.031,20.854 34.787,21.349 C34.542,21.845 34.011,22.082 33.600,21.879 L29.584,19.897 C29.193,19.855 28.848,19.585 28.731,19.185 C28.646,18.893 28.709,18.601 28.863,18.364 C29.073,17.986 29.446,17.785 29.796,17.831 L35.168,16.259 C35.698,16.104 36.254,16.408 36.409,16.938 C36.564,17.468 36.260,18.024 35.730,18.179 ZM20.416,19.897 L16.400,21.879 C15.989,22.082 15.458,21.845 15.213,21.349 C14.969,20.854 15.104,20.288 15.516,20.085 L17.477,19.117 L14.270,18.179 C13.740,18.024 13.436,17.468 13.591,16.938 C13.746,16.408 14.302,16.104 14.832,16.259 L20.204,17.831 C20.554,17.785 20.927,17.986 21.137,18.364 C21.291,18.601 21.354,18.893 21.269,19.185 C21.152,19.585 20.807,19.855 20.416,19.897 Z" class="cls-1"/>
</svg>
