<svg xmlns="http://www.w3.org/2000/svg" width="47" height="37" viewBox="0 0 47 37">
  <defs>
    <style>
      .cls-1 {
        fill-rule: evenodd;
      }
    </style>
  </defs>
  <path id="merged" class="cls-1" d="M25,37V31c-3.631,4.648-9.656,6.016-13.547,6.016C4.37,37.016-.031,33.419-0.031,27c0-7.04,5.311-11,17.332-11l7.686,0.02V13.564C24.986,5.615,22.569,2,15.438,2A22.9,22.9,0,0,0,4.949,4.784L3.721,2.7A27.5,27.5,0,0,1,15.475-.09C23.792-.09,27,4.115,27,12V37H25Zm0-19-7.268-.025C6.8,17.975,2,21.333,2,27c0,5.251,3.658,8,9.437,8C19.723,35,25,29.6,25,22V18Zm21,0H41v5a1,1,0,0,1-2,0V18H34a1,1,0,0,1,0-2h5V11a1,1,0,0,1,2,0v5h5A1,1,0,0,1,46,18Z"/>
</svg>
