<svg xmlns="http://www.w3.org/2000/svg" xmlns:xlink="http://www.w3.org/1999/xlink" preserveAspectRatio="xMidYMid" width="22" height="28" viewBox="0 0 22 28">
  <defs>
    <style>

      .cls-2 {
        fill: #000000;
      }
    </style>
  </defs>
  <path d="M21.963,6.948 C21.963,6.948 -0.009,6.948 -0.009,6.948 C-0.009,6.948 0.000,5.000 0.000,5.000 C0.000,4.183 1.183,3.000 2.000,3.000 C2.000,3.000 6.919,3.000 6.919,3.000 C6.919,3.000 6.919,2.215 6.919,2.215 C6.919,0.989 7.913,-0.005 9.139,-0.005 C9.139,-0.005 12.839,-0.005 12.839,-0.005 C14.064,-0.005 15.058,0.989 15.058,2.215 C15.058,2.215 15.058,3.000 15.058,3.000 C15.058,3.000 20.000,3.000 20.000,3.000 C20.817,3.000 22.000,4.183 22.000,5.000 C22.000,5.000 21.963,6.948 21.963,6.948 ZM12.000,2.000 C12.000,2.000 10.000,2.000 10.000,2.000 C9.000,2.000 9.000,3.000 9.000,3.000 C9.000,3.000 13.000,3.000 13.000,3.000 C13.000,3.000 13.000,2.000 12.000,2.000 ZM20.000,25.000 C20.000,26.657 18.657,28.000 17.000,28.000 C17.000,28.000 5.000,28.000 5.000,28.000 C3.343,28.000 2.000,26.657 2.000,25.000 C2.000,25.000 2.000,8.000 2.000,8.000 C2.000,8.000 20.000,8.000 20.000,8.000 C20.000,8.000 20.000,25.000 20.000,25.000 ZM7.000,13.000 C7.000,12.000 7.000,11.000 6.000,11.000 C5.000,11.000 5.000,12.000 5.000,13.000 C5.000,13.000 5.000,23.000 5.000,23.000 C5.000,24.000 5.000,25.000 6.000,25.000 C7.000,25.000 7.000,24.000 7.000,23.000 C7.000,23.000 7.000,13.000 7.000,13.000 ZM12.000,13.000 C12.000,12.000 12.000,11.000 11.000,11.000 C9.984,11.000 10.000,12.000 10.000,13.000 C10.000,13.000 10.000,23.000 10.000,23.000 C10.000,24.000 10.000,25.000 11.000,25.000 C12.000,25.000 12.000,24.000 12.000,23.000 C12.000,23.000 12.000,13.000 12.000,13.000 ZM17.000,13.000 C17.000,12.000 17.000,11.000 16.000,11.000 C15.000,11.000 15.000,12.000 15.000,13.000 C15.000,13.000 15.000,23.000 15.000,23.000 C15.000,24.000 15.000,25.000 16.000,25.000 C17.000,25.000 17.000,24.000 17.000,23.000 C17.000,23.000 17.000,13.000 17.000,13.000 Z" id="path-1" class="cls-2" fill-rule="evenodd"/>
</svg>
