<svg xmlns="http://www.w3.org/2000/svg" xmlns:xlink="http://www.w3.org/1999/xlink" preserveAspectRatio="xMidYMid" width="24" height="24" viewBox="0 0 24 24">
  <defs>
    <style>
      .cls-1 {
        fill: #000;
        fill-rule: evenodd;
      }
    </style>
  </defs>
  <path d="M23.562,4.385 L22.143,5.804 L18.196,1.857 L19.615,0.438 C20.229,-0.176 21.224,-0.176 21.838,0.438 L23.562,2.162 C24.176,2.776 24.176,3.772 23.562,4.385 ZM3.744,18.846 C3.437,19.153 3.437,19.651 3.744,19.958 L4.002,20.216 C4.309,20.523 4.807,20.523 5.114,20.216 L19.907,5.422 L21.216,6.731 L7.442,20.505 C5.960,21.988 0.578,23.423 0.578,23.423 C0.578,23.423 2.012,18.040 3.495,16.558 L17.269,2.784 L18.538,4.053 L3.744,18.846 Z" class="cls-1"/>
</svg>
