<svg xmlns="http://www.w3.org/2000/svg" width="60" height="48" viewBox="0 0 60 48">
  <defs>
    <style>
      .cls-1 {
        fill-rule: evenodd;
      }
    </style>
  </defs>
  <path id="icon_reader_handcuffs.svg" class="cls-1" d="M45.5,48A14.489,14.489,0,0,1,38,21.108V19a4,4,0,0,1,4-4h8a4,4,0,0,1,4,4v2.77A14.488,14.488,0,0,1,45.5,48ZM46,17a2,2,0,1,0,2,2A2,2,0,0,0,46,17Zm-0.5,6A10.5,10.5,0,1,0,56,33.5,10.5,10.5,0,0,0,45.5,23ZM46,14a4,4,0,1,1,4-4A4,4,0,0,1,46,14Zm0-6a2,2,0,1,0,2,2A2,2,0,0,0,46,8ZM38,9a4,4,0,1,1,4-4A4,4,0,0,1,38,9Zm0-6a2,2,0,1,0,2,2A2,2,0,0,0,38,3ZM29,8a4,4,0,1,1,4-4A4,4,0,0,1,29,8Zm0-6a2,2,0,1,0,2,2A2,2,0,0,0,29,2Zm1.139,13.507-1.5,2.326A14.5,14.5,0,1,1,15.56,8.586L16.7,6.817a4,4,0,0,1,5.531-1.186l6.717,4.345A4,4,0,0,1,30.139,15.507ZM24.508,9.483a2,2,0,1,0,.593,2.766A2,2,0,0,0,24.508,9.483ZM20.83,14.249a10.5,10.5,0,1,0,3.113,14.519A10.5,10.5,0,0,0,20.83,14.249Z"/>
</svg>
