<?xml version="1.0" encoding="UTF-8"?>
<svg width="38px" height="37px" viewBox="0 0 38 37" version="1.1" xmlns="http://www.w3.org/2000/svg" xmlns:xlink="http://www.w3.org/1999/xlink">
    <!-- Generator: Sketch 49 (51002) - http://www.bohemiancoding.com/sketch -->
    <title>icon_reader_feedback_heart_hollow</title>
    <desc>Created with Sketch.</desc>
    <defs></defs>
    <g id="icon_reader_feedback_heart_hollow" stroke="none" stroke-width="1" fill="none" fill-rule="evenodd">
        <path d="M19.1096451,37 C19.1096451,37 -11,12 5.02412882,2 C13.3450184,-3.19272507 18.9660866,4.30004883 18.9660866,4.30004883 C18.9660866,4.30004883 24.4632721,-3.02557544 32.9080444,2 C49,12 19.1096451,37 19.1096451,37 Z M19.0978148,34.9000015 C19.0978148,35.0162613 33.2684183,22.6224802 35.7000008,12.6868398 C36.648833,8.80983537 35.6410931,5.31739522 31.5600586,3.09997559 C23.9939865,-1.40267583 18.9959498,6.80004883 18.9959498,6.80004883 C18.9959498,6.80004883 13.8563817,-1.49598006 6.38000488,3.09997559 C2.40005294,5.54657278 1.52216493,9.06501648 2.41000009,12.8811237 C4.75185659,22.9469288 19.0978148,34.7837417 19.0978148,34.9000015 Z" id="Combined-Shape" fill="#000000"></path>
    </g>
</svg>