<svg xmlns="http://www.w3.org/2000/svg" width="51" height="51" viewBox="0 0 51 51">
  <defs>
    <style>
      .cls-1 {
        fill-rule: evenodd;
      }
    </style>
  </defs>
  <path id="box_copy_3" data-name="box copy 3" class="cls-1" d="M43,51H8a8,8,0,0,1-8-8V8A8,8,0,0,1,8,0H43a8,8,0,0,1,8,8V43A8,8,0,0,1,43,51ZM25.5,12a13.5,13.5,0,1,0,9.3,23.268l-1.484-1.351a11.5,11.5,0,1,1-.029-16.861l1.49-1.345A13.441,13.441,0,0,0,25.5,12ZM40.7,24.675a0.945,0.945,0,0,0-.142-0.094l-4.343-4.343A1,1,0,0,0,34.8,21.652l2.754,2.754H26a1,1,0,1,0,0,2H37.555L34.8,29.161a1,1,0,0,0,1.414,1.414l4.366-4.366a0.851,0.851,0,0,0,.119-0.072,1.129,1.129,0,0,0,.3-0.731c0-.019-0.012-0.033-0.013-0.052A0.992,0.992,0,0,0,40.7,24.675Z"/>
</svg>
