<?xml version="1.0" encoding="utf-8"?>
<!-- Generator: Adobe Illustrator 19.0.0, SVG Export Plug-In . SVG Version: 6.00 Build 0)  -->
<svg version="1.1" id="Layer_1" xmlns="http://www.w3.org/2000/svg" xmlns:xlink="http://www.w3.org/1999/xlink" x="0px" y="0px"
	 viewBox="0 0 54.5 53" enable-background="new 0 0 54.5 53" xml:space="preserve">
<path id="XMLID_1_" fill-rule="evenodd" clip-rule="evenodd" d="M28.2,0c10.1,0,26.2,0,26.2,0v53c0,0-11.8,0-26.2,0S2,41.1,2,26.5
	S13.8,0,28.2,0z M28.5,7.1c10.5,0,19,8.6,19,19.2c0,10.6-8.5,19.2-19,19.2s-19-8.6-19-19.2C9.5,15.7,18,7.1,28.5,7.1z"/>
<path id="XMLID_2_" fill-rule="evenodd" clip-rule="evenodd" fill="#5C5D5D" d="M28.2,1c10.9,0,25.2,0,25.2,0v51c0,0-11.3,0-25.2,0
	C14.3,52,3,40.6,3,26.5S14.3,1,28.2,1z M28.5,6c11,0,20,9,20,20.2c0,11.2-9,20.2-20,20.2s-20-9-20-20.2C8.5,15.1,17.5,6,28.5,6z"/>
<path id="XMLID_3_" fill-rule="evenodd" clip-rule="evenodd" fill="#333333" d="M28.2,1.5c13.7,0,24.8,0,24.8,0v50
	c0,0-14.2,0-24.8,0c-13.6,0-24.6-10.9-24.7-24.4c0-0.1,0-0.7,0-0.8C3.5,12.6,14.6,1.5,28.2,1.5z M28.5,5.5C39.8,5.5,49,14.8,49,26.2
	S39.8,47,28.5,47C17.2,47,8,37.7,8,26.2S17.2,5.5,28.5,5.5z"/>
</svg>
