<svg version="1.1" id="Layer_1" xmlns="http://www.w3.org/2000/svg" xmlns:xlink="http://www.w3.org/1999/xlink" x="0px" y="0px" viewBox="0 0 12 11.497">
<path d="M6.011,11.497C5.25,10.747,2.25,9.622,0,10.372c0-0.375,0-9.75,0-10.125
	c2.25-0.75,5.25,0.375,5.99,1.125C6.75,0.622,9.75-0.503,12,0.247c0,0.375,0,9.75,0,10.125C10.125,9.622,6.75,10.747,6.011,11.497z
	 M5.619,2.153C4.488,1.021,2.25,0.646,0.75,1.021c0,0.375,0,7.816,0,8.262c1.5-0.07,3.363,0.305,4.874,0.861
	C5.624,9.949,5.613,2.521,5.619,2.153z M11.25,1.021c-1.5-0.375-3.75,0-4.881,1.132c0.006,0.368-0.004,7.796-0.004,7.99
	c1.51-0.556,3.385-0.931,4.885-0.861C11.25,8.837,11.25,1.396,11.25,1.021z"/>
</svg>
