<svg xmlns="http://www.w3.org/2000/svg" width="42" height="62" viewBox="0 0 42 62">
  <defs>
    <style>
      .cls-1 {
        fill-rule: evenodd;
      }
    </style>
  </defs>
  <path id="icon_external_NoAccess_merged" data-name="icon_external_NoAccess merged" class="cls-1" d="M31.249,40H34v2H32.6ZM28,21A5.032,5.032,0,1,1,23.1,25.058l-2.836-1.324L16.99,18.9a2.993,2.993,0,0,0-1.783-2.639L13.7,14.03c0.1-.006.2-0.03,0.3-0.03a4.978,4.978,0,0,1,3.579,1.517L23.1,12.942a4.98,4.98,0,1,1,.758,1.852l-5.195,2.425a4.813,4.813,0,0,1,0,3.562l5.195,2.425A5,5,0,0,1,28,21Zm0,8a3,3,0,1,0-3-3A3,3,0,0,0,28,29Zm0-14a3,3,0,1,0-3-3A3,3,0,0,0,28,15ZM9,19a4.951,4.951,0,0,1,.07-0.693l3.74,5.535A4.991,4.991,0,0,1,9,19ZM25.079,42H8V40H23.728Zm4.73,7H8V47H28.457Z"/>
</svg>
