<svg xmlns="http://www.w3.org/2000/svg" width="51" height="51" viewBox="0 0 51 51">
  <defs>
    <style>
      .cls-1 {
        fill: #120906;
        fill-rule: evenodd;
      }
    </style>
  </defs>
  <path id="kite" class="cls-1" d="M50.568,44.041A22.491,22.491,0,0,1,44.294,46.4l3.151,2.7L42.89,50.7l0.777-4.179a21.6,21.6,0,0,1-7.118.225,9.888,9.888,0,0,1-1.257-.273l0.053,4.508L30.752,48.4l3.715-2.2A17.73,17.73,0,0,1,27.7,41.286l-2.37,4.861L21.8,40.916l5.252-.368a34.31,34.31,0,0,1-3.435-4.9L1.432,21.472,6.9,0.018,27.946,8.674,24.914,34.585a42.33,42.33,0,0,0,3.494,5.028L30.7,34.908l3.531,5.232-5.082.357A16.372,16.372,0,0,0,35.2,45.19l-0.054-4.6,4.593,2.58-3.8,2.252a6.415,6.415,0,0,0,.711.166,26.663,26.663,0,0,0,6.523-.05L40.15,42.948l4.556-1.609-0.763,4.1A46.418,46.418,0,0,0,50.568,44.041ZM21.9,32.176L14.27,16.241,4.41,21ZM15.091,13.885L24.423,9.38,9.571,3.232Zm-1.589.767L7.895,3.829,4.057,19.212Zm12.056-3.862-9.7,4.683L23.3,31Z"/>
</svg>
