<svg id="when_i_wake" data-name="when i wake" xmlns="http://www.w3.org/2000/svg" width="51" height="51" viewBox="0 0 51 51">
  <defs>
    <style>
      .cls-1 {
        fill-rule: evenodd;
      }
    </style>
  </defs>
  <path id="danger" class="cls-1" d="M49.84,44.9a2.174,2.174,0,0,1-1.883,1.088H3.061a2.175,2.175,0,0,1-1.883-3.263L23.626,5.348a2.174,2.174,0,0,1,3.767,0L49.84,42.727A2.174,2.174,0,0,1,49.84,44.9ZM25.508,7.737L4.172,43.316H46.844ZM23.633,18.7a2.774,2.774,0,0,1,2-.719,2.081,2.081,0,0,1,2,.918,5.61,5.61,0,0,1,.505,2.65,17.952,17.952,0,0,1-.122,2.07l-0.749,6.616a5.421,5.421,0,0,1-.523,2.086,1.394,1.394,0,0,1-1.324.726,1.343,1.343,0,0,1-1.307-.7A6.344,6.344,0,0,1,23.59,30.2l-0.558-6.4q-0.157-2.163-.157-3.105A2.618,2.618,0,0,1,23.633,18.7Zm1.861,16.692a2.087,2.087,0,0,1,1.518.615,2,2,0,0,1,.628,1.489,1.973,1.973,0,0,1-.636,1.554,2.163,2.163,0,0,1-1.483.565,2.231,2.231,0,0,1-1.5-.557,1.959,1.959,0,0,1-.643-1.562A2.1,2.1,0,0,1,25.494,35.392Z"/>
</svg>
