<svg xmlns="http://www.w3.org/2000/svg" width="51" height="51" viewBox="0 0 51 51">
  <defs>
    <style>
      .cls-1 {
        fill-rule: evenodd;
      }
    </style>
  </defs>
  <path id="development" class="cls-1" d="M48.867,26.192c0.768,2.045.148,4.763-.873,6.622a5.531,5.531,0,0,1-3.7,3.068,3.569,3.569,0,0,1-.765,2.132,3.915,3.915,0,0,1-2.958,1.319l-3.194,9.529-2.422-.675c0.013-.056,1.152-5.384-1.375-8.462a7.491,7.491,0,0,1-2.252.4,6.7,6.7,0,0,1-4.309-1.847,11.8,11.8,0,0,1-4.942,1.339c-2.53,0-4.389-1.431-6.161-3.144-5.393,1.61-10.788-.278-13.412-4.52a8.72,8.72,0,0,1-.8-7.97c-0.737-2.493-1.38-5.887.307-8.438a7.566,7.566,0,0,1,5.311-3.041c0.46-4.926,4.025-7.272,9.638-5.841,3.374-4.765,7.8-4.941,13.059-.216a18.967,18.967,0,0,1,5.771-1.042c5.2,0,8.86,3.163,11.182,9.666A8.351,8.351,0,0,1,49.951,20.5,8.62,8.62,0,0,1,48.867,26.192Zm-1.409-5.337a5.737,5.737,0,0,0-2.26-3.966l-0.34-.236-0.134-.391C42.162,8.788,38.4,7.924,35.792,7.924A17.464,17.464,0,0,0,30.2,9.046c-2.87,1.414-5.493,4.5-4.316,8.977l-2.435.642a10.186,10.186,0,0,1-.018-5.226,8.853,8.853,0,0,1-2.546.409,5.72,5.72,0,0,1-1.1-.1l0.477-2.471a7.028,7.028,0,0,0,5.149-1.754l0.05,0.052a10.851,10.851,0,0,1,2.1-1.9c-1.748-1.42-3.3-2.151-4.614-2.151-1.587,0-3.021,1.069-4.381,3.268l-0.514.83-0.932-.291a11.146,11.146,0,0,0-3.251-.574c-3.377,0-4.086,2.64-4.086,4.856V14.75l-1.133.114c-2.257.226-3.786,0.923-4.544,2.071-1.2,1.82-.5,4.732.137,6.765L4.4,24.184l-0.227.453a6.156,6.156,0,0,0,.475,5.995C6.743,34.017,11.144,35.4,15.6,33.921a3.7,3.7,0,0,0,.334-2.675C15.454,29.124,13.4,27.4,10,26.27l0.8-2.387a14.376,14.376,0,0,1,5.046,2.733,6.07,6.07,0,0,1,.406-0.765,4.786,4.786,0,0,1,3.3-2.276l0.267,2.5a2.428,2.428,0,0,0-1.462,1.155,2.546,2.546,0,0,0-.462,2.016l-0.015,0a6.841,6.841,0,0,1,.609,1.986,6.288,6.288,0,0,1-.568,3.661c1.549,1.459,2.717,2.2,4.162,2.2a10.893,10.893,0,0,0,4.58-1.441l0.17-.085a9.514,9.514,0,0,0,1.834-2.78c1.341-2.573,3.176-6.1,7.783-5.122l-0.52,2.463c-2.6-.552-3.608,1.094-5.03,3.823a15.862,15.862,0,0,1-1.719,2.8,3.6,3.6,0,0,0,2.155.847,7.4,7.4,0,0,0,2.22-.525l0.711-.238,0.548,0.513a8.859,8.859,0,0,1,2.412,4.054l1.61-4.8L39.9,36.794a3.155,3.155,0,0,0,.427.027,1.774,1.774,0,0,0,1.257-.395,2.084,2.084,0,0,0,.111-1.622l-0.449-2.145,2.079,0.693c0.828,0.274,1.739-.425,2.466-1.749a6.288,6.288,0,0,0,.742-4.462l-0.009.009c-0.227-.227-0.495-0.478-0.789-0.753-0.42-.394-0.9-0.856-1.4-1.356l-0.017.021c-1.5-1.187-5.915-2.912-9.329-1.5l-0.96-2.328a11.631,11.631,0,0,1,7.169-.282,10.952,10.952,0,0,1-1.343-4.8l2.516-.093c0.134,3.627,2.741,6.292,4.688,8.131A6.35,6.35,0,0,0,47.458,20.855Z"/>
</svg>
