<svg xmlns="http://www.w3.org/2000/svg" xmlns:xlink="http://www.w3.org/1999/xlink" preserveAspectRatio="xMidYMid" width="60" height="60" viewBox="0 0 60 60">
  <defs>
    <style>
      .cls-1 {
        fill: #000;
        fill-rule: evenodd;
      }
    </style>
  </defs>
  <path d="M30.000,59.000 C13.984,59.000 1.000,46.016 1.000,30.000 C1.000,13.984 13.984,1.000 30.000,1.000 C46.016,1.000 59.000,13.984 59.000,30.000 C59.000,46.016 46.016,59.000 30.000,59.000 ZM14.000,16.000 C14.000,17.000 14.000,42.000 14.000,43.000 C19.248,41.251 26.026,43.327 29.000,45.213 L29.000,18.239 C26.086,16.346 19.273,14.242 14.000,16.000 ZM46.000,16.000 C40.752,14.251 33.973,16.327 31.000,18.213 L31.000,45.266 C34.060,43.366 41.585,41.234 46.000,43.000 C46.000,42.000 46.000,17.000 46.000,16.000 Z" class="cls-1"/>
</svg>
