<svg id="Batch_02" data-name="Batch 02" xmlns="http://www.w3.org/2000/svg" width="91.997" height="91.997" viewBox="0 0 48 48">
  <metadata><?xpacket begin="﻿" id="W5M0MpCehiHzreSzNTczkc9d"?>
<x:xmpmeta xmlns:x="adobe:ns:meta/" x:xmptk="Adobe XMP Core 5.6-c140 79.160451, 2017/05/06-01:08:21        ">
   <rdf:RDF xmlns:rdf="http://www.w3.org/1999/02/22-rdf-syntax-ns#">
      <rdf:Description rdf:about=""/>
   </rdf:RDF>
</x:xmpmeta>
                                                                                                    
                                                                                                    
                                                                                                    
                                                                                                    
                                                                                                    
                                                                                                    
                                                                                                    
                                                                                                    
                                                                                                    
                                                                                                    
                                                                                                    
                                                                                                    
                                                                                                    
                                                                                                    
                                                                                                    
                                                                                                    
                                                                                                    
                                                                                                    
                                                                                                    
                                                                                                    
                           
<?xpacket end="w"?></metadata>
<defs>
    <style>
      .cls-1 {
        fill-rule: evenodd;
      }
    </style>
  </defs>
  <g id="_02_-_Helmet" data-name="02 - Helmet">
    <g id="C">
      <path class="cls-1" d="M24.042,46.333c-5.667,0-11.417-6.333-14.417-12.75S6.647,14.7,9.042,7.917c1-2.833,4.333-3.083,4.333-3.083a2.634,2.634,0,0,1,.667-1.25C14.375,3.5,16.021,1.75,24.021,1.75m0.188,31.667c-8.333,0-18.5-10.958-17.75-13.583s-0.333,3.083-.333,3.083,2.94,6.122,7.477,9.489c3.524,0.2,6.712,2.181,10.4,2.115M23.875,23.875c-3.812,0-8.5-2.625-11.5-4S7.188,18.563,7,20.625s-0.562-5.062-.562-5.062,7.73,1.25,9.4,2.25c0.508,0.3-.351,1.408.045,2.014,0.906,1.386,3.023,2.549,8.242,2.549M23.9,46.333c5.667,0,11.417-6.333,14.417-12.75S41.291,14.7,38.9,7.917c-1-2.833-4.333-3.083-4.333-3.083a2.634,2.634,0,0,0-.667-1.25C33.563,3.5,31.917,1.75,23.917,1.75M23.729,33.417c8.333,0,17.563-11.021,17.75-13.583s0.333,3.083.333,3.083-2.485,5.431-5.836,8.378c-4.168.271-7.413,3.309-12.039,3.226m0.125-10.646c3.813,0,8.5-2.625,11.5-4s5.188-1.312,5.375.75,0.563-5.062.563-5.062-7.73,1.25-9.4,2.25c-0.431.258,0.452,1.25,0.13,1.744-0.925,1.421-2.854,2.819-8.418,2.819m-8.5,13A59.8,59.8,0,0,1,24.063,35c4.581,0,8.046-.125,8.692.125s-2.819,9.063-8.1,9.063S15.019,35.563,15.313,35.375Zm3.625,3.653s3.375-.115,4.906-0.115,5.469,0.305,5.469.305a12.551,12.551,0,0,0-3.719-1.68,1.721,1.721,0,0,0-1.719.649s-0.094-.649-1.344-0.687S18.938,39.028,18.938,39.028ZM30.167,21.083s-1.5-2.917-1.417-4.5,2-10.958,5.458-12.771c1.261-.661.583,0.885,0.583,0.885s-0.886-.062-2.552,2.938-2.74,8.948-2.74,8.948Zm-12.333,0s1.5-2.917,1.417-4.5-2-10.958-5.458-12.771C12.53,3.151,13.208,4.7,13.208,4.7s0.885-.062,2.552,2.938,2.74,8.948,2.74,8.948ZM37.408,8.906s-1.476,2.25-2.491,2.438,0.415,1.219,2.353.75S38.33,8.5,37.408,8.906Zm-25.765,0s1.286,2.25,2.17,2.438-0.362,1.219-2.049.75S10.839,8.5,11.643,8.906Zm5.295-.719,4,2.25L17.25,10Zm14.188,0-4,2.25L30.813,10Zm-9.781,10.5h1a0.656,0.656,0,1,1,0,1.313h-1A0.656,0.656,0,0,1,21.344,18.688Zm4,0h1a0.656,0.656,0,0,1,0,1.313h-1A0.656,0.656,0,0,1,25.344,18.688ZM21.563,40.5h4.375s-0.23,1-1.957.875A3.721,3.721,0,0,1,21.563,40.5Z"/>
    </g>
  </g>
</svg>
