<svg xmlns="http://www.w3.org/2000/svg" xmlns:xlink="http://www.w3.org/1999/xlink" preserveAspectRatio="xMidYMid" width="48" height="48" viewBox="0 0 48 48">
  <defs>
    <style>
      .cls-1 {
        fill: #000;
        fill-rule: evenodd;
      }
    </style>
  </defs>
  <g id="artboard-1">
    <path d="M24.039,44.010 C21.250,41.359 16.667,38.576 2.000,38.576 C2.000,37.250 2.000,5.320 2.000,3.994 C17.714,4.000 21.288,5.661 24.000,8.312 C26.788,5.661 30.286,4.000 46.000,4.000 C46.000,5.326 46.000,37.250 46.000,38.576 C31.333,38.576 26.750,41.359 24.039,44.010 ZM22.952,10.468 C18.806,6.467 14.571,6.156 4.095,6.156 C4.095,7.482 4.095,34.846 4.095,36.420 C15.619,36.420 17.714,37.498 22.952,40.732 C22.952,40.046 22.931,11.769 22.952,10.468 ZM43.905,6.156 C33.429,6.156 29.194,6.467 25.048,10.468 C25.069,11.769 25.048,40.046 25.048,40.732 C30.286,37.498 32.381,36.420 43.905,36.420 C43.905,34.846 43.905,7.482 43.905,6.156 Z" class="cls-1"/>
  </g>
</svg>
