<svg xmlns="http://www.w3.org/2000/svg" xmlns:xlink="http://www.w3.org/1999/xlink" preserveAspectRatio="xMidYMid" width="669" height="278" viewBox="0 0 669 278">
  <defs>
    <style>
      .cls-1 {
        fill: #000;
      }

      .cls-1, .cls-2 {
        fill-rule: evenodd;
      }

      .cls-2 {
        fill: #e6295a;
      }
    </style>
  </defs>
  <g>
    <path d="M667.803,119.182 C654.276,137.867 610.680,177.768 573.787,177.768 C554.914,177.671 537.309,174.762 524.551,160.948 C518.518,154.435 514.637,146.320 512.907,136.620 C511.168,126.920 512.287,115.775 516.273,103.185 C520.296,89.746 526.011,75.540 533.418,60.575 C534.719,59.365 536.949,58.106 540.109,56.777 C543.269,55.459 546.411,54.459 549.537,53.769 C552.662,53.089 555.338,53.025 557.576,53.567 C559.804,54.118 560.658,55.446 560.138,57.549 C555.083,67.098 550.299,77.504 545.776,88.784 C541.243,100.063 539.089,111.262 539.314,122.370 C540.091,138.211 546.121,150.115 556.779,158.862 C576.822,175.345 606.897,165.975 635.173,132.775 C638.325,129.077 644.958,120.596 648.202,119.320 C651.445,118.045 657.526,114.777 664.761,115.129 C666.761,115.237 668.980,117.556 667.803,119.182 ZM561.898,36.397 C552.944,35.858 549.311,28.330 553.800,18.227 C559.095,8.171 570.605,0.140 579.544,0.678 C588.500,1.218 591.646,10.131 587.973,20.284 C582.665,30.338 570.850,36.936 561.898,36.397 ZM507.794,71.759 C504.990,72.316 502.191,72.570 499.408,72.520 C496.615,72.470 494.633,72.037 493.453,71.200 C492.673,69.973 491.901,68.849 491.126,67.821 C487.837,63.546 486.735,55.160 471.121,76.042 C465.860,83.075 460.772,90.529 456.041,98.534 C451.300,106.548 446.858,114.558 442.725,122.574 C438.582,130.599 434.856,137.816 431.548,144.225 C429.472,148.237 427.593,152.651 425.913,157.477 C424.223,162.302 421.754,166.308 418.507,169.484 L416.691,170.665 C414.661,172.251 411.645,173.610 407.643,174.753 C400.808,177.467 396.022,177.581 393.285,175.105 C392.891,174.699 392.706,174.089 392.722,173.274 C392.838,167.207 393.647,161.057 395.168,154.806 C396.679,148.564 398.095,142.416 399.407,136.370 C401.597,125.892 403.941,113.073 405.812,101.419 C406.242,98.726 406.600,96.207 406.903,93.783 C394.634,103.395 381.995,109.005 369.988,111.528 C353.741,158.847 288.838,173.209 309.358,166.461 C301.383,169.080 293.550,170.322 285.860,170.187 C272.728,169.956 263.191,165.887 257.227,157.958 C251.263,150.040 248.379,140.797 248.577,130.217 C248.765,120.112 250.975,110.840 255.207,102.400 C259.439,93.972 265.007,86.709 271.912,80.623 C278.816,74.537 286.486,69.499 294.943,65.509 C303.390,61.519 312.150,58.914 321.234,57.694 C326.717,55.032 332.852,53.760 339.641,53.879 C349.590,54.054 357.798,57.195 364.252,63.278 C370.696,69.373 373.813,78.620 373.581,91.031 C373.563,92.037 373.522,93.031 373.462,94.014 C384.145,92.489 396.202,86.287 408.394,72.544 C408.411,71.831 408.427,71.109 408.441,70.376 C409.259,69.176 410.881,67.896 413.299,66.517 C415.717,65.147 418.326,64.084 421.134,63.318 C423.933,62.562 426.630,62.202 429.227,62.248 C431.814,62.294 433.699,62.935 434.871,64.169 C434.755,70.237 434.336,76.507 433.615,82.962 C432.894,89.426 432.073,95.680 431.164,101.733 C437.342,91.326 444.309,81.236 452.073,71.455 C459.828,61.683 468.331,54.854 477.580,50.969 C481.190,49.820 484.994,48.778 489.002,47.834 C493.000,46.900 496.895,46.457 500.687,46.525 C504.470,46.592 508.041,47.471 511.401,49.143 C514.751,50.824 517.387,59.696 519.309,63.770 C518.868,65.792 517.537,67.484 515.325,68.858 C513.102,70.241 510.589,71.202 507.794,71.759 ZM287.204,98.135 C281.572,108.845 278.665,119.021 278.485,128.674 C278.374,134.653 279.949,141.233 283.210,148.414 C286.405,155.458 291.949,159.101 299.829,159.383 C302.235,159.116 327.200,155.636 341.852,113.454 C342.019,112.972 342.177,112.499 342.339,112.023 C319.302,107.742 303.518,91.778 306.178,74.366 C299.033,79.750 292.710,87.675 287.204,98.135 ZM336.444,66.064 C333.943,72.572 338.891,82.343 348.336,88.547 C350.094,75.245 347.061,66.702 336.444,66.064 ZM315.638,217.454 C325.866,217.875 330.946,217.237 341.057,215.377 C346.714,214.340 353.993,208.474 358.078,206.276 C361.287,204.549 367.757,203.248 375.782,203.905 C380.690,204.307 380.911,209.133 369.522,215.098 C365.852,217.017 350.120,225.152 322.890,227.964 C313.930,228.900 306.214,228.640 299.822,228.377 C280.215,227.571 264.703,223.423 247.733,215.683 C230.762,207.954 217.333,194.350 207.468,174.882 C199.963,160.053 194.976,143.850 192.497,126.270 C190.017,108.702 188.692,91.510 188.532,74.707 L181.749,83.959 C179.500,86.590 176.318,91.459 172.185,98.544 C168.052,105.639 163.576,113.284 158.757,121.479 C153.937,129.685 148.913,137.531 143.702,145.029 C138.481,152.537 136.879,153.026 132.894,156.490 C131.093,158.692 125.143,160.496 121.032,161.912 C116.912,163.338 113.154,163.971 109.748,163.831 C107.611,163.743 105.711,163.218 104.051,162.235 C102.361,161.719 100.812,157.794 99.412,150.471 C98.001,143.158 96.743,139.811 95.636,130.458 C94.520,121.114 93.742,111.551 93.293,101.768 C92.835,91.994 92.727,84.384 92.950,78.947 L83.526,90.133 C78.553,96.736 73.122,104.236 67.235,112.610 C61.338,120.995 55.040,128.906 48.331,136.342 C41.622,143.789 34.674,152.910 27.649,157.834 C20.613,162.768 16.259,165.072 8.588,164.756 C5.172,164.616 3.520,163.420 3.614,161.148 C5.047,126.254 22.719,75.630 34.070,54.551 C35.860,52.359 36.365,50.460 41.554,48.855 C46.742,47.259 51.035,46.521 54.450,46.662 C57.427,46.784 58.897,47.525 58.841,48.884 L58.785,50.244 C53.533,63.644 50.576,65.734 44.953,82.895 C40.759,95.673 35.837,109.652 33.543,124.078 C35.975,116.098 43.366,109.140 49.492,100.307 C55.617,91.485 62.248,83.248 69.396,75.596 C76.534,67.954 84.060,61.561 91.954,56.440 C99.848,51.318 108.480,48.949 117.859,49.335 C122.543,49.528 124.816,51.440 124.667,55.061 L124.028,55.035 C124.447,55.052 124.648,55.518 124.611,56.421 C124.518,58.693 123.968,61.617 122.970,65.204 C121.962,68.800 121.375,72.861 121.189,77.385 C120.854,85.540 121.015,91.520 121.684,101.302 C122.342,111.094 123.554,120.558 125.319,129.704 L138.330,109.135 C143.368,100.725 147.479,95.191 150.661,90.556 C153.832,85.921 158.353,81.870 164.213,74.388 C161.684,77.666 178.826,58.536 181.448,57.124 C185.376,55.020 189.395,52.145 193.525,50.495 C197.644,48.856 201.627,48.105 205.463,48.263 C208.020,48.368 210.758,49.162 213.689,50.644 C216.610,52.125 218.005,54.682 217.857,58.304 C217.819,59.217 217.667,60.232 217.411,61.349 C217.145,62.476 217.003,63.492 216.966,64.394 C216.977,84.819 218.642,107.942 221.972,125.780 C225.291,143.617 230.845,159.164 238.625,172.419 C246.404,185.674 256.853,196.315 269.969,204.343 C283.086,212.371 296.461,216.666 315.638,217.454 Z" class="cls-1"/>
    <path d="M206.830,242.554 C174.928,241.940 63.192,253.145 25.226,277.714 C19.862,281.185 6.863,268.395 13.707,264.838 C61.705,239.890 159.000,231.237 207.901,236.245 C218.342,237.314 216.639,242.743 206.830,242.554 ZM200.742,224.390 C171.833,222.457 82.372,218.840 17.099,245.129 C11.173,247.516 -0.601,234.228 6.583,231.422 C50.657,214.203 154.742,205.741 202.580,217.746 C212.760,220.300 210.532,225.044 200.742,224.390 ZM196.176,205.265 C162.488,199.471 52.858,193.662 11.831,212.686 C6.035,215.373 -4.958,201.148 2.220,198.328 C47.912,180.379 150.944,186.516 198.672,198.306 C208.861,200.823 205.846,206.928 196.176,205.265 Z" class="cls-2"/>
  </g>
</svg>
