<?xml version="1.0" encoding="utf-8"?>
<!-- Generator: Adobe Illustrator 20.1.0, SVG Export Plug-In . SVG Version: 6.00 Build 0)  -->
<svg version="1.1" id="Layer_1" xmlns="http://www.w3.org/2000/svg" xmlns:xlink="http://www.w3.org/1999/xlink" x="0px" y="0px"
	 viewBox="0 0 60 50" style="enable-background:new 0 0 60 50;" xml:space="preserve">
<path fill="none" stroke="#3BF2C2" d="M17.9,22.3H5.7c-1.8,0-3.3-1.5-3.3-3.3V6.8c0-1.8,1.5-3.3,3.3-3.3h12.3c1.8,0,3.3,1.5,3.3,3.3V19
	C21.2,20.8,19.7,22.3,17.9,22.3z"/>
<path fill="#3BF2C2" id="path-1_12_" d="M26.5,3.9c0.7,0.7,0.4,1.7-0.3,2.4c-2.8,2.8-8.9,8.9-11.7,11.7c-0.7,0.7-2,0.7-2.7,0
	c-1.4-1.4-3.4-3.4-4.8-4.8c-0.7-0.7-1-1.7-0.3-2.4c0.7-0.7,1.7-0.3,2.4,0.4C9.9,12,11,13,11.8,13.9c0.7,0.7,2,0.7,2.7,0
	c2.4-2.4,7.2-7.2,9.6-9.6C24.8,3.5,25.8,3.2,26.5,3.9z"/>
<path fill="none" stroke="#3BF2C2" d="M48.6,22.3H36.4c-1.8,0-3.3-1.5-3.3-3.3V6.8c0-1.8,1.5-3.3,3.3-3.3h12.3c1.8,0,3.3,1.5,3.3,3.3V19
	C51.9,20.8,50.4,22.3,48.6,22.3z"/>
<path fill="none" stroke="#3BF2C2" d="M17.9,47.5H5.7c-1.8,0-3.3-1.5-3.3-3.3V31.9c0-1.8,1.5-3.3,3.3-3.3h12.3c1.8,0,3.3,1.5,3.3,3.3v12.3
	C21.2,46,19.7,47.5,17.9,47.5z"/>
<path fill="#3BF2C2" id="path-1_11_" d="M26.5,29c0.7,0.7,0.4,1.7-0.3,2.4c-2.8,2.8-8.9,8.9-11.7,11.7c-0.7,0.7-2,0.7-2.7,0
	c-1.4-1.4-3.4-3.4-4.8-4.8c-0.7-0.7-1-1.7-0.3-2.4c0.7-0.7,1.7-0.3,2.4,0.4c0.8,0.8,1.9,1.9,2.7,2.7c0.7,0.7,2,0.7,2.7,0
	c2.4-2.4,7.2-7.2,9.6-9.6C24.8,28.7,25.8,28.3,26.5,29z"/>
<path fill="none" stroke="#3BF2C2" d="M48.6,47.5H36.4c-1.8,0-3.3-1.5-3.3-3.3V31.9c0-1.8,1.5-3.3,3.3-3.3h12.3c1.8,0,3.3,1.5,3.3,3.3v12.3
	C51.9,46,50.4,47.5,48.6,47.5z"/>
<path fill="#3BF2C2" id="path-1_9_" d="M57.2,29c0.7,0.7,0.4,1.7-0.3,2.4c-2.8,2.8-8.9,8.9-11.7,11.7c-0.7,0.7-2,0.7-2.7,0
	c-1.4-1.4-3.4-3.4-4.8-4.8c-0.7-0.7-1-1.7-0.3-2.4c0.7-0.7,1.7-0.3,2.4,0.4c0.8,0.8,1.9,1.9,2.7,2.7c0.7,0.7,2,0.7,2.7,0
	c2.4-2.4,7.2-7.2,9.6-9.6C55.5,28.7,56.5,28.3,57.2,29z"/>
</svg>
