<?xml version="1.0" encoding="utf-8"?>
<!-- Generator: Adobe Illustrator 20.1.0, SVG Export Plug-In . SVG Version: 6.00 Build 0)  -->
<svg version="1.1" id="Layer_1" xmlns="http://www.w3.org/2000/svg" xmlns:xlink="http://www.w3.org/1999/xlink" x="0px" y="0px"
	 viewBox="0 0 60 50" style="enable-background:new 0 0 60 50;" xml:space="preserve">
<style type="text/css">
	.st0{fill:none;stroke:#3BF2C2;stroke-width:0.8985;stroke-miterlimit:10;}
	.st1{fill:#3BF2C2;}
</style>
<g id="_x35_rZh8r.tif_3_">
	<g>
		<path class="st1" d="M32,0.3c0.7,0.1,1.5,0.2,2.2,0.4c1.8,0.4,3.5,1.1,4.9,2.3c1.8,1.5,3.1,3.4,3.9,5.6c0.9,2.4,1.4,4.9,1.6,7.4
			c0,0.1,0,0.1,0,0.2c-0.8,0.2-1.6,0.3-2.4,0.5c0.1-0.6,0.1-1.2,0.2-1.9c-0.3,0-0.6,0.1-0.9,0.1c-0.5,0.1-0.9,0.2-1.4,0.2
			c-0.3,0-0.3,0.2-0.3,0.4c0,0.4,0,0.8,0,1.2c0,0.2,0,0.3-0.3,0.3c-2.5,0-5,0-7.5,0c0,0,0,0-0.1-0.1c0-0.3,0-0.6,0-0.9
			c0-0.2-0.1-0.3-0.3-0.3c-0.3,0-0.7,0-1.1,0c0,0.4,0,0.8,0,1.3c-2.7,0-5.3,0-7.9,0c0-0.5,0-1,0-1.4c0-0.3-0.1-0.4-0.4-0.5
			c-0.9-0.1-1.7-0.2-2.7-0.4c0.1,0.8,0.3,1.6,0.4,2.5c-0.4-0.1-0.9-0.1-1.3-0.2c-0.6-0.1-1.1-0.2-1.7-0.3c-0.1,0-0.3-0.2-0.3-0.3
			c-0.4-3.7,0.3-7.1,2.4-10.2c1.1-1.6,2.6-2.8,4.3-3.7c0.3-0.1,0.6-0.2,0.9-0.2c0.6-0.1,1.1-0.2,1.5-0.8c0.4-0.7,1.1-0.8,1.8-1
			c0.6-0.1,1.2-0.2,1.8-0.3C30.3,0.3,31.2,0.3,32,0.3z M39.9,13.8c0.1,0,0.1,0.1,0.1,0.1c0.7-0.1,1.5-0.2,2.2-0.3
			c0.1,0,0.2-0.2,0.1-0.3c-0.1-0.6-0.2-1.2-0.4-1.7c-0.2-0.7-0.6-1.1-1.4-1.1c-0.1,0-0.3,0-0.4,0c-2.4-0.2-4.8-0.4-7.1-0.9
			c-1.9-0.4-3.8-1.1-5.4-2.2c-0.3-0.2-0.6-0.4-1-0.7c0,0.1-0.1,0.1-0.1,0.2c-0.3,2.3-1.7,3.9-3.7,5c-1,0.5-2,0.9-3.1,1
			c-0.3,0-0.3,0.3-0.3,0.5c0,0.2,0.1,0.3,0.3,0.3c0.3,0,0.6,0.1,1,0.1c0.6,0.1,1.1,0.2,1.8,0.2c0-0.6,0-1.1,0-1.7c2.7,0,5.3,0,7.9,0
			c0,0.3,0,0.5,0,0.8c0,1.1,0,1.1,1.1,1c0.2,0,0.3-0.1,0.3-0.3c0-0.4,0-0.7,0-1.1c0-0.4,0.1-0.5,0.5-0.5c2.3,0,4.7,0,7,0
			c0.1,0,0.3,0,0.5,0C39.9,12.7,39.9,13.3,39.9,13.8z M39,13C38.9,13,38.9,13,39,13c-2,0-4,0-5.9-0.1c-0.3,0-0.3,0.2-0.3,0.4
			c0,0.8,0,1.6,0,2.4c0,0.4,0.1,0.4,0.5,0.4c1.8,0,3.5,0,5.3,0c0.1,0,0.3,0,0.4,0C39,15.1,39,14,39,13z M29.6,13c-0.2,0-0.3,0-0.5,0
			c-1.5,0-3,0-4.6,0c-0.3,0-0.8-0.1-1,0.1c-0.2,0.2-0.1,0.7-0.1,1c0,0.7,0,1.3,0,2c2.1,0,4.1,0,6.1,0C29.6,15.1,29.6,14,29.6,13z"/>
		<path class="st1" d="M12.2,17c0.3,0,0.5,0.1,0.8,0.1c3.7,0.6,7.5,1.2,11.2,1.8c1.9,0.3,3.9,0.6,5.8,0.9c0.1,0,0.3,0,0.4,0
			c4-0.6,7.9-1.3,11.9-1.9c1.8-0.3,3.7-0.6,5.5-0.9c0.1,0,0.2,0,0.4,0c0,0.2,0,0.3,0,0.5c0,3.6,0,7.2,0,10.9c0,0.3,0.1,0.5,0.3,0.7
			c1.2,1.2,1.5,2.7,1.3,4.4c-0.1,1.2-0.6,2.2-1.5,3.1c-0.1,0.1-0.1,0.3-0.1,0.5c0,3,0,5.9,0,8.9c0,0.3-0.1,0.5-0.4,0.5
			c-3.6,0.6-7.1,1.1-10.7,1.7c-2.2,0.4-4.4,0.7-6.6,1.1c-0.4,0.1-0.9,0-1.3-0.1c-4.4-0.7-8.8-1.4-13.2-2.1c-1.1-0.2-2.2-0.4-3.3-0.5
			c-0.4-0.1-0.5-0.2-0.5-0.6c0-2.8,0-5.7,0-8.5c0-0.3-0.1-0.5-0.3-0.6c-1.3-1-1.8-2.5-1.8-4.1c0-1.4,0.4-2.8,1.5-3.7
			c0.5-0.4,0.6-0.8,0.5-1.3c0-3.4,0-6.7,0-10.1C12.2,17.4,12.2,17.2,12.2,17z M13.8,45c5.2,0.8,10.3,1.6,15.6,2.5c0-0.2,0-0.4,0-0.6
			c0-8.3,0-16.6,0-24.9c0-0.1,0-0.2,0-0.3c0-0.2-0.1-0.3-0.3-0.3c-1.9-0.3-3.8-0.6-5.7-0.9c-3.1-0.5-6.2-1-9.3-1.5
			c-0.1,0-0.2,0-0.3,0c0,0.1,0,0.1,0,0.1c0,2.9,0,5.8,0,8.8c0,0.2,0.1,0.3,0.3,0.3c1.3,0.2,2.1,1.1,2.6,2.2c0.7,1.6,0.7,3.1,0,4.7
			c-0.5,1.1-1.3,2-2.6,2.2c-0.3,0.1-0.3,0.2-0.3,0.4c0,2.3,0,4.6,0,7C13.8,44.8,13.8,44.8,13.8,45z M31,47.5c0.2,0,0.3,0,0.5-0.1
			c1.5-0.2,2.9-0.5,4.4-0.7c3.4-0.5,6.9-1.1,10.3-1.6c0.4-0.1,0.4-0.2,0.4-0.5c0-1.3,0-2.7,0-4c0-1,0-1.9,0-2.9c0-0.2,0-0.3-0.2-0.3
			c-1.6-0.1-2.5-1-3.1-2.4c-0.7-1.5-0.6-3.1,0-4.6c0.6-1.3,1.5-2.3,3.1-2.3c0,0,0.1,0,0.1,0c0-3,0-6.1,0-9.1c-0.1,0-0.2,0-0.3,0
			c-3.3,0.5-6.5,1-9.8,1.6c-1.6,0.3-3.3,0.6-4.9,0.8c-0.4,0.1-0.5,0.2-0.5,0.6c0,8.3,0,16.7,0,25C31,47.1,31,47.3,31,47.5z"/>
	</g>
</g>
</svg>
