<svg xmlns="http://www.w3.org/2000/svg" xmlns:xlink="http://www.w3.org/1999/xlink" preserveAspectRatio="xMidYMid" width="1024" height="501" viewBox="0 0 1024 501">
  <defs>
    <style>
      .cls-1 {
        fill: #fff;
      }

      .cls-1, .cls-2 {
        fill-rule: evenodd;
      }

      .cls-2 {
        fill: #d42653;
      }
    </style>
  </defs>
  <path d="M101.566,293.117 C101.343,298.549 105.291,301.407 113.457,301.742 C131.792,302.496 142.199,296.989 159.017,285.196 C175.810,273.427 192.418,251.624 208.455,233.824 C224.491,216.048 239.545,197.140 253.641,177.098 C267.712,157.081 280.693,139.155 292.581,123.371 L315.108,96.632 C314.574,109.629 314.831,127.820 315.928,151.181 C317.000,174.567 318.859,197.426 321.528,219.758 C324.173,242.115 327.181,250.116 330.552,267.596 C333.898,285.100 337.602,294.482 341.641,295.716 C345.610,298.066 350.150,299.320 355.259,299.530 C363.400,299.865 372.383,298.353 382.232,294.944 C392.057,291.559 406.280,287.247 410.586,281.983 C420.109,273.704 423.940,272.534 436.420,254.587 C448.874,236.665 460.885,217.911 472.404,198.297 C483.923,178.709 494.623,160.435 504.503,143.475 C514.382,126.540 521.987,114.902 527.363,108.614 L543.577,86.498 C543.959,126.662 547.126,167.755 553.053,209.749 C558.980,251.769 570.900,290.501 588.839,325.946 C612.420,372.480 644.518,404.999 685.083,423.474 C725.648,441.974 762.727,451.889 809.592,453.816 C824.872,454.444 843.315,455.066 864.733,452.828 C929.820,446.107 967.424,426.662 976.197,422.074 C1003.420,407.815 1002.893,396.280 991.160,395.320 C971.978,393.750 956.512,396.860 948.841,400.988 C939.079,406.241 921.678,420.264 908.157,422.740 C883.988,427.188 871.846,428.711 847.398,427.706 C801.559,425.821 769.589,415.557 738.236,396.367 C706.883,377.178 681.908,351.741 663.313,320.058 C644.717,288.374 631.441,251.214 623.507,208.578 C615.549,165.941 611.569,110.668 611.542,61.847 C611.631,59.690 611.970,57.263 612.606,54.568 C613.218,51.898 613.581,49.472 613.671,47.289 C614.026,38.633 610.690,32.521 603.709,28.979 C596.704,25.436 590.157,23.540 584.046,23.289 C574.878,22.912 565.358,24.707 555.511,28.625 C545.640,32.567 536.033,39.440 526.643,44.470 C520.376,47.843 479.401,93.570 485.447,85.735 C471.440,103.619 460.634,113.303 453.052,124.382 C445.446,135.461 435.622,148.689 423.580,168.790 L392.479,217.958 C388.259,196.096 385.362,173.474 383.789,150.067 C382.191,126.685 381.805,112.393 382.606,92.898 C383.050,82.085 384.453,72.378 386.863,63.782 C389.248,55.209 390.564,48.220 390.787,42.788 C390.875,40.630 390.395,39.517 389.392,39.476 L390.920,39.539 C391.276,30.883 385.844,26.312 374.646,25.851 C352.228,24.929 331.596,30.590 312.726,42.833 C293.857,55.076 275.867,70.355 258.806,88.622 C241.721,106.913 225.869,126.603 211.228,147.690 C196.586,168.802 178.919,185.435 173.106,204.510 C178.588,170.028 190.354,136.613 200.380,106.071 C213.819,65.049 220.887,60.053 233.443,28.023 L233.577,24.774 C233.710,21.525 230.196,19.753 223.081,19.461 C214.916,19.125 204.656,20.890 192.255,24.703 C179.853,28.541 178.646,33.079 174.365,38.319 C147.233,88.704 104.993,209.710 101.566,293.117 Z" class="cls-1"/>
  <path d="M630.329,411.545 C629.546,413.124 625.904,412.139 625.904,412.139 C625.904,412.139 626.678,412.418 627.556,412.733 C628.705,413.146 630.030,413.623 630.030,413.623 L627.030,414.365 L611.352,412.737 C611.352,412.737 605.095,414.034 599.652,413.630 C594.208,413.226 588.383,410.405 584.273,409.924 C580.163,409.442 582.465,413.703 577.974,413.487 C573.483,413.271 509.011,403.993 477.233,399.858 C445.454,395.723 357.163,388.276 315.285,389.361 C273.408,390.446 275.849,393.402 268.631,391.896 C261.413,390.390 248.357,389.281 245.678,390.566 C242.998,391.851 240.508,393.648 235.252,392.646 C229.997,391.644 223.701,392.501 223.701,392.501 C223.701,392.501 217.973,393.714 214.850,393.690 C211.728,393.666 200.748,391.171 200.748,391.171 C200.748,391.171 196.434,395.566 192.874,395.625 C189.313,395.683 175.576,397.382 171.047,396.521 C166.518,395.660 127.213,401.130 108.943,405.886 C90.673,410.643 80.026,413.667 73.241,412.722 C66.456,411.776 55.266,420.776 50.367,420.890 C45.468,421.004 37.301,423.960 35.516,423.565 C33.732,423.170 24.320,412.449 24.485,409.766 C24.649,407.082 29.731,402.193 36.107,399.374 C42.483,396.555 80.047,382.871 83.431,382.147 C86.816,381.423 74.730,382.297 74.730,382.297 L68.730,383.783 L68.431,385.861 L64.006,386.455 C64.006,386.455 60.540,389.562 56.580,387.793 C52.621,386.024 45.176,386.363 49.376,377.555 C53.576,368.746 81.013,359.536 136.299,346.515 C173.094,337.849 207.669,334.015 224.140,336.030 C234.261,337.268 240.730,333.259 242.356,333.280 C247.058,333.344 254.029,330.272 257.207,330.605 C258.684,330.760 261.631,332.996 264.931,332.977 C268.731,332.955 273.000,330.653 276.034,330.452 C281.703,330.078 291.633,328.796 297.861,329.556 C304.090,330.317 314.886,327.814 321.113,328.809 C323.990,329.268 331.305,329.543 336.863,329.608 C343.337,329.684 348.204,329.477 352.918,328.949 C361.678,327.968 396.116,330.191 404.674,331.162 C413.232,332.134 445.137,334.036 451.856,335.009 C458.575,335.982 495.151,342.933 502.572,344.958 C519.320,349.529 542.413,354.927 542.413,354.927 L559.013,358.250 L572.293,364.897 L559.013,368.220 L575.613,374.865 L542.413,368.220 L519.172,364.897 L529.132,364.897 L495.932,361.574 C495.932,361.574 465.074,356.520 459.367,356.559 C457.908,356.570 421.855,353.557 387.912,356.813 C353.969,360.068 376.263,354.312 376.263,354.312 L363.670,356.476 L339.401,356.449 L328.281,354.049 L319.745,356.202 C319.745,356.202 314.122,356.242 311.373,356.267 C294.241,356.420 277.653,355.751 259.552,357.834 C255.212,358.333 250.891,361.062 246.624,361.652 C241.847,362.313 237.138,360.815 232.546,361.498 C197.892,366.655 169.913,374.260 169.913,374.260 L174.039,375.743 L187.165,374.997 C187.165,374.997 193.732,374.287 196.016,373.808 C198.301,373.328 205.362,369.902 209.591,369.946 C213.821,369.990 222.643,372.664 229.694,370.980 C236.745,369.295 272.073,367.208 277.924,367.554 C283.774,367.900 296.680,366.790 308.301,367.547 C319.923,368.304 321.409,366.254 327.278,366.355 C333.147,366.456 365.238,367.773 373.484,366.937 C381.729,366.102 441.287,373.218 460.572,374.930 C479.856,376.641 487.386,379.167 497.328,380.857 C507.269,382.547 521.167,385.283 526.958,386.044 C532.749,386.805 542.776,389.641 549.313,391.529 C555.850,393.418 561.022,393.354 569.116,394.641 C577.210,395.929 586.638,401.391 589.896,401.018 C593.153,400.644 599.065,403.198 603.998,403.537 C608.931,403.877 616.248,407.080 620.652,408.431 C625.056,409.781 631.112,409.965 630.329,411.545 ZM26.340,462.300 C24.524,464.366 23.987,465.275 25.040,462.694 C25.882,460.630 26.230,461.026 26.340,462.300 ZM86.742,439.375 C113.283,432.295 136.954,429.948 156.098,426.409 C175.241,422.869 183.795,422.013 183.795,422.013 L193.595,418.596 C193.595,418.596 201.735,419.313 208.644,419.441 C215.554,419.571 231.385,416.521 250.079,414.826 C268.773,413.132 281.826,411.651 281.826,411.651 L302.515,409.838 L321.781,408.936 L343.672,410.167 L357.520,407.969 C357.520,407.969 367.826,408.751 382.147,409.354 C410.453,410.548 457.690,414.836 468.230,416.179 C478.770,417.521 480.488,417.860 480.488,417.860 C480.488,417.860 502.254,420.787 514.581,421.762 C526.908,422.736 528.130,425.324 534.936,425.883 C541.743,426.442 555.403,428.026 555.403,428.026 L566.181,431.608 C566.181,431.608 577.291,432.739 585.224,434.663 C593.158,436.588 600.107,438.477 600.107,438.477 L595.947,439.235 L599.885,442.433 L595.781,442.202 L583.467,441.510 L571.042,442.795 L561.631,439.290 C561.631,439.290 555.477,442.434 547.727,442.476 C539.978,442.519 528.517,442.388 528.517,442.388 C528.517,442.388 505.021,440.589 502.522,440.927 C500.023,441.265 494.424,438.487 494.424,438.487 C494.424,438.487 450.229,436.812 415.127,433.036 C380.024,429.261 315.985,430.988 308.186,430.992 C300.388,430.995 280.600,433.409 280.600,433.409 L259.967,434.233 C259.967,434.233 259.852,434.659 254.383,435.904 C248.913,437.148 237.965,434.981 237.965,434.981 L222.747,437.101 L215.796,438.695 L208.732,442.266 L193.794,439.442 C193.794,439.442 187.769,442.886 182.570,443.772 C177.370,444.657 167.520,442.925 167.520,442.925 C167.520,442.925 165.592,442.459 161.880,445.585 C158.168,448.711 152.247,446.035 152.247,446.035 L124.383,453.398 L118.910,453.090 C118.910,453.090 114.754,452.632 113.326,454.761 C111.898,456.889 84.734,463.995 79.878,463.794 C75.021,463.592 67.514,467.141 64.549,467.892 C61.585,468.644 51.542,473.996 46.206,476.783 C40.871,479.569 38.677,476.483 33.893,476.090 C29.109,475.697 26.074,468.706 26.074,468.706 C26.074,468.706 26.518,464.357 26.340,462.300 C28.324,460.043 31.835,456.405 36.486,454.408 C45.395,450.584 60.202,446.456 86.742,439.375 Z" class="cls-2"/>
</svg>
