<svg xmlns="http://www.w3.org/2000/svg" xmlns:xlink="http://www.w3.org/1999/xlink" preserveAspectRatio="xMidYMid" width="819" height="481" viewBox="0 0 819 481">
  <defs>
    <style>
      .cls-1 {
        fill: #d42653;
      }

      .cls-1, .cls-2 {
        fill-rule: evenodd;
      }

      .cls-2 {
        fill: #000;
      }
    </style>
  </defs>
  <g>
    <path d="M446.927,404.069 C378.098,402.588 136.960,426.217 54.924,479.042 C43.334,486.505 15.350,458.847 30.133,451.206 C133.816,397.612 343.783,379.417 449.269,390.462 C471.790,392.820 468.089,404.524 446.927,404.069 ZM433.904,364.529 C371.537,360.217 178.535,351.976 37.573,408.377 C24.774,413.498 -0.565,384.771 14.949,378.751 C110.127,341.814 334.743,324.066 437.901,350.202 C459.854,355.763 455.022,365.988 433.904,364.529 ZM424.168,322.922 C351.510,310.256 115.001,297.188 26.387,338.032 C13.868,343.802 -9.780,313.057 5.722,307.008 C104.395,268.503 326.666,282.249 429.587,307.919 C451.559,313.400 445.023,326.557 424.168,322.922 Z" class="cls-1"/>
    <path d="M10.042,246.761 C9.846,251.658 13.406,254.231 20.762,254.530 C37.281,255.201 46.652,250.233 61.792,239.596 C76.909,228.982 91.849,209.324 106.279,193.274 C120.709,177.246 134.252,160.197 146.932,142.128 C159.588,124.081 171.265,107.918 181.960,93.687 L202.227,69.578 C201.759,81.292 202.009,97.687 203.021,118.741 C204.010,139.818 205.708,160.419 208.135,180.546 C210.540,200.695 213.258,207.904 216.312,223.656 C219.345,239.431 222.691,247.885 226.331,248.995 C229.909,251.111 234.001,252.240 238.604,252.427 C245.939,252.725 254.030,251.358 262.900,248.281 C271.748,245.226 284.557,241.334 288.431,236.587 C297.002,229.121 300.452,228.065 311.677,211.884 C322.880,195.726 333.682,178.818 344.041,161.135 C354.398,143.476 364.019,127.001 372.904,111.711 C381.787,96.443 388.626,85.951 393.463,80.281 L408.049,60.341 C408.434,96.540 411.328,133.575 416.710,171.420 C422.091,209.289 432.870,244.192 449.066,276.129 C470.358,318.059 499.307,347.352 535.873,363.985 C572.437,380.640 605.851,389.560 648.075,391.275 C661.842,391.835 678.458,392.386 697.751,390.361 C756.382,384.273 790.241,366.731 798.140,362.592 C822.652,349.729 822.165,339.333 811.594,338.473 C794.312,337.066 780.380,339.876 773.474,343.600 C764.683,348.339 749.021,360.985 736.843,363.223 C715.073,367.243 704.135,368.621 682.109,367.726 C640.810,366.048 611.997,356.812 583.731,339.531 C555.465,322.250 532.940,299.336 516.155,270.789 C499.370,242.242 487.372,208.756 480.182,170.333 C472.970,131.908 469.328,82.094 469.255,38.094 C469.333,36.149 469.635,33.962 470.206,31.533 C470.755,29.126 471.080,26.939 471.158,24.972 C471.470,17.170 468.458,11.663 462.165,8.474 C455.851,5.284 449.951,3.578 444.444,3.354 C436.184,3.019 427.609,4.641 418.742,8.176 C409.853,11.734 401.205,17.933 392.751,22.470 C387.108,25.513 350.239,66.744 355.678,59.680 C343.076,75.805 333.351,84.537 326.531,94.526 C319.690,104.514 310.852,116.442 300.024,134.563 L272.054,178.891 C268.230,159.189 265.598,138.802 264.157,117.707 C262.694,96.634 262.331,83.753 263.034,66.182 C263.423,56.436 264.677,47.688 266.840,39.938 C268.980,32.211 270.158,25.911 270.353,21.015 C270.431,19.071 269.997,18.068 269.094,18.031 L270.471,18.087 C270.782,10.286 265.884,6.168 255.796,5.758 C235.598,4.938 217.015,10.049 200.028,21.092 C183.040,32.134 166.848,45.913 151.496,62.384 C136.122,78.878 121.861,96.631 108.691,115.642 C95.521,134.677 79.621,149.676 74.404,166.870 C79.309,135.789 89.874,105.668 98.876,78.137 C110.943,41.159 117.306,36.653 128.586,7.780 L128.703,4.851 C128.819,1.923 125.652,0.328 119.242,0.067 C111.885,-0.232 102.643,1.364 91.474,4.805 C80.306,8.270 79.222,12.361 75.371,17.085 C50.978,62.509 13.045,171.587 10.042,246.761 Z" class="cls-2"/>
  </g>
</svg>
