<?xml version="1.0" encoding="utf-8"?>
<!-- Generator: Adobe Illustrator 20.1.0, SVG Export Plug-In . SVG Version: 6.00 Build 0)  -->
<svg version="1.1" id="Layer_1" xmlns="http://www.w3.org/2000/svg" xmlns:xlink="http://www.w3.org/1999/xlink" x="0px" y="0px"
	 viewBox="0 0 64 64" style="enable-background:new 0 0 64 64;" xml:space="preserve">
<style type="text/css">
	.st0{fill:#6D6E71;}
</style>
<path class="st0" d="M10.6,25.3c0-4.2,4-8.2,7.7-8.2c0.5,0,1,0.5,1.6,0.7c-0.4,0.4-0.8,1-1.3,1.1c-3.6,0.6-5.6,2.7-6.3,6.2
	c-0.1,0.5-0.7,0.9-1,1.3C11,25.9,10.7,25.5,10.6,25.3z"/>
<path id="Color_Fill_2_copy_2_26_" class="st0" d="M55.6,7.2c0,0,0.6,3.2,0.4,3.4c-0.3,0.2-3-1.7-3-1.7s-2.7,1.9-3,1.7
	c-0.3-0.2,0.4-3.5,0.4-3.5s-2.4-2-2.4-2.4s3.1-0.7,3.1-0.7s1.4-3.2,1.8-3.2c0.5,0,1.7,3.1,1.7,3.1s3.3,0.4,3.3,0.8
	C57.9,5.2,55.6,7.2,55.6,7.2z M54.4,4.3c0,0-1.1-2.7-1.4-2.7s-1.5,2.8-1.5,2.8S48.9,4.6,48.9,5c0,0.4,1.9,1.9,1.9,1.9
	c0,0-0.6,2.9-0.4,3c0.3,0.2,2.6-1.5,2.6-1.5s2.3,1.7,2.5,1.5C55.8,9.7,55.1,7,55.1,7s2-1.5,2-1.9S54.4,4.3,54.4,4.3z"/>
<g>
	<path class="st0" d="M62.2,20.8C61.1,13.9,57,9.1,50.3,7.2c-6.8-2-12.7-0.1-17.5,5.2c-0.2,0.3-0.5,0.5-0.6,0.6
		c-0.9-0.8-1.7-1.5-2.5-2.2C20.8,2.5,5.5,6.7,2.4,18.4C0.4,25.5,2.3,32,6.7,37.7c3.4,4.4,7.7,7.8,11.8,11.4c4.7,4.2,9.2,8.6,12.7,14
		c0.5,0,1.1,0,1.6,0c3.3-5.3,7.6-9.6,12.1-13.8c1.2-1.1,2.4-2.2,3.6-3.3L48.3,46l-3.9,2.1l0.3-3.5c-4.5,4.1-9,8.1-12.7,13.1
		c-2.4-2.6-4.7-5.1-7.1-7.4c-3.9-3.7-8-7.2-11.9-10.9c-3.5-3.3-6.3-7-7.4-11.9c-1.5-6.6,0.7-12.3,6-15.6c6.1-3.8,14.4-1.6,18,4.6
		c0.8,1.4,1.5,2.9,2.3,4.5c0.7-1.3,1.2-2.5,1.8-3.6c3.1-6.1,9.6-8.8,16.1-6.6c6,2,9.7,8.3,8.7,14.8c-0.7,4.7-3,8.6-6.3,11.9
		c-0.6,0.6-1.3,1.3-1.9,1.9l0,0.1l4,0.9c0.9-0.9,1.7-1.8,2.5-2.7C61.3,32.9,63.1,27.1,62.2,20.8z"/>
</g>
<path id="Color_Fill_2_copy_2_25_" class="st0" d="M52,43.6c0,0,0.9,4.5,0.5,4.7c-0.4,0.3-4.1-2.3-4.1-2.3s-3.8,2.6-4.1,2.3
	s0.6-4.8,0.6-4.8s-3.3-2.7-3.3-3.3c0.1-0.6,4.3-1,4.3-1s1.9-4.5,2.5-4.5c0.6,0,2.3,4.3,2.3,4.3s4.5,0.5,4.5,1.1
	C55.1,41,52,43.6,52,43.6z M50.3,39.7c0,0-1.5-3.8-1.9-3.8c-0.5,0-2.1,3.9-2.1,3.9s-3.5,0.3-3.5,0.8c-0.1,0.5,2.7,2.7,2.7,2.7
	c0,0-0.9,4-0.5,4.2c0.4,0.2,3.5-2.1,3.5-2.1s3.2,2.3,3.5,2s-0.6-4.1-0.6-4.1s2.8-2.1,2.8-2.7C54.1,40.1,50.3,39.7,50.3,39.7z"/>
</svg>
