<?xml version="1.0" encoding="utf-8"?>
<!-- Generator: Adobe Illustrator 20.1.0, SVG Export Plug-In . SVG Version: 6.00 Build 0)  -->
<svg version="1.1" id="Layer_1" xmlns="http://www.w3.org/2000/svg" xmlns:xlink="http://www.w3.org/1999/xlink" x="0px" y="0px"
	 viewBox="0 0 64 64" style="enable-background:new 0 0 64 64;" xml:space="preserve">
<style type="text/css">
	.st0{fill:#6D6E71;}
</style>
<g>
	<path id="Color_Fill_2_copy_2_24_" class="st0" d="M22.9,13.3c0,0,0.7,3.7,0.4,3.9c-0.3,0.2-3.4-1.9-3.4-1.9s-3.1,2.2-3.4,1.9
		C16.2,17,17,13.3,17,13.3s-2.7-2.3-2.7-2.7c0-0.5,3.5-0.8,3.5-0.8s1.6-3.7,2.1-3.7s1.9,3.6,1.9,3.6s3.7,0.4,3.7,0.9
		C25.5,11.1,22.9,13.3,22.9,13.3z M21.5,10c0,0-1.2-3.1-1.6-3.1c-0.4,0-1.8,3.2-1.8,3.2s-2.8,0.2-2.9,0.7c-0.1,0.4,2.2,2.2,2.2,2.2
		c0,0-0.7,3.2-0.4,3.4c0.3,0.2,2.9-1.7,2.9-1.7s2.6,1.9,2.9,1.7c0.2-0.2-0.5-3.3-0.5-3.3s2.3-1.7,2.3-2.2C24.6,10.4,21.5,10,21.5,10
		z"/>
	<path id="Color_Fill_2_copy_2_23_" class="st0" d="M33,25.7c0,0,0.9,4.8,0.5,5.1s-4.5-2.5-4.5-2.5s-4.1,2.8-4.5,2.5
		c-0.4-0.3,0.6-5.2,0.6-5.2s-3.6-3-3.5-3.6s4.6-1.1,4.6-1.1s2.1-4.8,2.7-4.8c0.7,0,2.5,4.7,2.5,4.7s4.9,0.6,4.9,1.2
		C36.4,22.8,33,25.7,33,25.7z M31.2,21.4c0,0-1.6-4.1-2.1-4.1c-0.5,0-2.3,4.2-2.3,4.2S23,21.9,23,22.5s2.9,2.9,2.9,2.9
		c0,0-1,4.3-0.6,4.5c0.4,0.3,3.8-2.2,3.8-2.2s3.5,2.5,3.8,2.2s-0.6-4.4-0.6-4.4s3-2.3,3-2.9S31.2,21.4,31.2,21.4z"/>
	<g id="g7xTQ6.tif_5_">
		<g>
			<path class="st0" d="M43.3,25.6c3.1,2.4,6.2,3.2,9.9,2.5c-3.1,7.1-6.7,13.6-12.8,18.4c-0.8,0.6-1.4,0.7-2.3,0.4
				c-2.9-0.9-5.8-1.7-8.8-2.5c0.6,2.9,2.3,4.7,4.7,6.3c-1.6,1.1-3.3,1.6-5.1,1.7c-3.7,0.3-7.2-0.5-10.5-1.9c-1-0.4-1.7-0.3-2.6,0.4
				c-4,3.2-8.1,6.4-12.1,9.6c-0.1-0.1-0.2-0.2-0.3-0.2c0.6-1,1.1-2.2,2-3.1c2.7-3,5.5-5.9,8.3-8.8c1.1-1.1,1.7-2.3,2.2-3.8
				c1.4-4.5,4-8.4,7.5-11.5c11.8-10.5,23.6-21,35.4-31.6c0.2-0.1,0.4-0.3,0.8-0.6c-0.2,2.1-0.3,3.9-0.5,5.7
				c-0.6,5.2-1.4,10.3-3.3,15.2c-0.4,0.9-0.9,1.3-1.8,1.5C50.5,23.9,47.1,24.7,43.3,25.6z"/>
			<path class="st0" d="M34.4,60.9c1.2,0,2.1,0.1,3.1,0c5.6-1,11.3-2,16.9-3c0.2,0,0.5-0.2,0.7-0.1c0.5,0.2,1,0.5,1.5,0.8
				c-0.4,0.4-0.7,1.2-1.2,1.3c-2.6,0.6-5.3,1-8,1.5c-3.2,0.6-6.4,1.2-9.7,1.7c-1.2,0.2-2.5,0.2-3.6-0.2c-1.8-0.5-2.2-1.9-1.6-3.6
				c0.1-0.3,0.2-0.5,0.4-1.1c-1.2,0-2.2-0.1-3.1,0c-8.2,1.3-16.3,2.7-24.9,4.1c1.9-1.4,3.3-2.9,5.6-3.2C17.1,58.2,23.6,57,30,56
				c0.5-0.1,0.9-0.1,1.4-0.1C34.6,55.8,35.8,57.6,34.4,60.9z"/>
		</g>
	</g>
</g>
</svg>
