<svg xmlns="http://www.w3.org/2000/svg" xmlns:xlink="http://www.w3.org/1999/xlink" preserveAspectRatio="xMidYMid" width="48" height="48" viewBox="0 0 48 48">
  <defs>
    <style>
      .cls-1 {
        fill: #000;
        fill-rule: evenodd;
      }
    </style>
  </defs>
  <g id="artboard-1">
    <path d="M43.548,40.125 L43.025,36.208 L42.858,36.208 C41.715,37.802 40.540,38.930 39.335,39.590 C38.129,40.250 36.703,40.581 35.059,40.581 C32.828,40.581 31.093,39.958 29.852,38.713 C28.612,37.468 27.992,35.745 27.992,33.543 C27.992,31.129 28.915,29.254 30.762,27.918 C32.609,26.582 35.282,25.876 38.781,25.800 L43.109,25.664 L43.109,24.024 C43.109,21.671 42.670,19.894 41.791,18.695 C40.913,17.495 39.498,16.895 37.547,16.895 C35.442,16.895 33.261,17.533 31.002,18.808 L30.229,16.850 C32.724,15.574 35.191,14.937 37.631,14.937 C40.126,14.937 41.990,15.643 43.224,17.055 C44.457,18.467 45.074,20.668 45.074,23.659 L45.074,40.125 L43.548,40.125 ZM43.025,27.531 L39.052,27.713 C35.860,27.880 33.585,28.423 32.226,29.342 C30.867,30.260 30.187,31.691 30.187,33.635 C30.187,35.183 30.622,36.387 31.494,37.244 C32.365,38.102 33.595,38.531 35.184,38.531 C37.610,38.531 39.523,37.776 40.924,36.265 C42.325,34.754 43.025,32.655 43.025,29.968 L43.025,27.531 ZM20.150,28.374 L7.730,28.374 L3.465,40.125 L1.102,40.125 L13.396,6.692 L14.755,6.692 L26.799,40.125 L24.394,40.125 L20.150,28.374 ZM15.278,14.276 C14.930,13.335 14.511,12.030 14.024,10.359 C13.647,11.817 13.236,13.138 12.790,14.322 L8.504,26.278 L19.439,26.278 L15.278,14.276 Z" class="cls-1"/>
  </g>
</svg>
