<svg version="1.1" id="Layer_1" xmlns="http://www.w3.org/2000/svg" xmlns:xlink="http://www.w3.org/1999/xlink" x="0px" y="0px"
	 viewBox="0 0 73 73" style="enable-background:new 0 0 73 73;" xml:space="preserve">
<style type="text/css">
	.st0{fill:#58595B;}
</style>
<g id="mAXNKJ.tif">
	<g>
		<path class="st0" d="M31,7.3c0.3,0.1,0.7,0.1,1,0.3c1.2,0.4,2,1.1,2.7,2.2c0.1,0.1,0.2,0.2,0.3,0.2c2.8,1,4.4,2.8,4.9,5.7
			c0.1,0.4,0.1,0.8,0.1,1.2c0,7.3,0,14.5,0,21.8c0,0.2-0.1,0.3-0.2,0.5c-2.1,2.3-4.5,4.2-7.2,5.8c-2.1,1.2-4.3,2-6.7,2.4
			c0,0,0,0-0.1,0c0,0.1,0,0.2,0,0.2c0,1.5,0,3.1,0,4.6c0,4.4,2.8,8.1,7.1,9.2c4.4,1.2,9.1-1,11-5.1c0.6-1.3,0.9-2.7,0.9-4.1
			c0-3.9,0-7.7,0-11.6c0-2.3,0.7-4.3,2.1-6.1c1.4-1.7,3.1-2.8,5.2-3.2c1.7-0.4,3.5-0.3,5.2,0.3c2,0.7,3.6,1.9,4.7,3.6
			c0.8,1.2,1.4,2.6,1.6,4.1c0.1,0.6,0.1,1.1,0.1,1.7c0.7,0.3,1.4,0.6,2,1.1c1.5,1.2,2.4,2.7,2.6,4.5c0.3,2.1-0.2,3.9-1.5,5.5
			c-1.1,1.4-2.6,2.3-4.4,2.5c-2,0.3-3.9-0.2-5.5-1.4c-1.5-1.1-2.3-2.6-2.6-4.5c-0.3-2,0.2-3.9,1.5-5.5c0.8-1,1.8-1.7,3-2.2
			c0.1-0.1,0.2-0.1,0.2-0.3c0-2.2-1.2-3.9-3.2-4.7c-2.4-0.9-5.1,0.4-6,2.7c-0.2,0.6-0.3,1.3-0.3,1.9c0,3.8,0,7.6,0,11.4
			c0,4.5-1.7,8.2-5.1,11.1c-2.1,1.8-4.5,2.8-7.2,3.1c-3.2,0.4-6.2-0.1-8.9-1.8c-3.3-1.9-5.5-4.8-6.6-8.5c-0.4-1.3-0.5-2.6-0.5-3.9
			c0-1.5,0-3,0-4.6c0-0.1,0-0.2,0-0.3c-1.7-0.3-3.3-0.8-4.9-1.5c-2.1-0.9-3.9-2.1-5.7-3.5c-1.2-1-2.4-2-3.4-3.2
			c-0.1-0.1-0.1-0.1-0.2-0.2c0-7.6,0-15.2,0-22.8c0-0.2,0.1-0.4,0.1-0.5c0.5-2.9,2.2-4.8,4.9-5.7c0.1-0.1,0.2-0.1,0.3-0.2
			c0.6-1.1,1.5-1.8,2.6-2.2c0.3-0.1,0.7-0.2,1-0.2c0.3,0,0.6,0,0.9,0c0.4,0.1,0.7,0.1,1,0.3c2.4,0.9,3.7,3.3,3,5.7
			c-0.8,3-4.3,4.4-6.9,2.8c-0.5-0.3-1-0.7-1.4-1.2c0,0-0.1,0-0.1,0.1c-0.6,0.5-0.9,1.2-0.9,1.9c0,6.7,0,13.3,0,20
			c0,0.1,0.1,0.2,0.1,0.3c2,1.9,4.3,3.5,6.8,4.6c2.8,1.2,5.7,1.4,8.6,0.4c3.1-1,5.7-2.8,8-5c0.1-0.1,0.1-0.2,0.1-0.3
			c0-6.7,0-13.3,0-20c0-0.3,0-0.5-0.1-0.8c-0.1-0.5-0.4-0.9-0.9-1.2c0,0.1-0.1,0.1-0.1,0.1c-1.4,1.6-3.5,2.2-5.5,1.4
			c-1.8-0.7-2.9-2.5-2.9-4.4c0-2,1.3-3.7,3.1-4.4c0.4-0.1,0.8-0.2,1.2-0.3C30.3,7.3,30.6,7.3,31,7.3z M63.6,47.5
			c0-1.3-1.1-2.4-2.4-2.4c-1.3,0-2.4,1.1-2.4,2.4c0,1.3,1.1,2.4,2.4,2.4C62.5,49.9,63.6,48.8,63.6,47.5z"/>
	</g>
</g>
</svg>
