<svg version="1.1" id="Layer_1" xmlns="http://www.w3.org/2000/svg" xmlns:xlink="http://www.w3.org/1999/xlink" x="0px" y="0px"
	 viewBox="0 0 73 73" style="enable-background:new 0 0 73 73;" xml:space="preserve">
<style type="text/css">
	.st0{fill:#58595B;}
</style>
<g id="_x35_VNLqG.tif">
	<g>
		<path class="st0" d="M45.8,29.5c0,2.2-0.9,4-2.4,5.6c-3.9,4.1-6,9-6.7,14.5c-0.3,2.2-0.2,4.3-0.2,6.5c0,1.1-0.9,1.9-1.9,1.7
			c-2.6-0.6-5.1-1.6-7.4-3c-6.1-3.5-10.9-8.3-14.4-14.4c-1.3-2.2-2.3-4.6-2.9-7.1c-0.3-1.3,0.5-2.2,1.9-2.1
			c6.5,0.5,12.5-0.8,17.9-4.5c1.3-0.9,2.4-2,3.6-3c4.5-3.6,11.1-1.3,12.2,4.4C45.7,28.5,45.7,29,45.8,29.5z M38.6,36
			c-2.3-2.3-4.6-4.6-6.8-6.9c-2.6,1.8-5.5,3.2-8.6,4.1c-3.1,0.9-6.3,1.3-9.7,1.2c0.6,1.2,1,2.3,1.6,3.4c0.1,0.1,0.4,0.2,0.5,0.2
			c1-0.1,2-0.2,3-0.4c1.4-0.3,2.8-0.7,4.2-1.1c-1.8,1.8-3.6,3.4-5.9,4.7c1.4,1.7,2.8,3.4,4.2,5c2.8-1.8,5.2-3.8,7.4-6
			c-1.6,2.3-3.1,4.7-4.2,7.2c-0.6,1.4-0.7,1,0.5,1.9c1.1,0.9,2.2,1.6,3.4,2.4c0.8-1.4,1.5-2.6,2.2-3.9c0.1,1.5,0.1,3,0.2,4.5
			c0,0.3,0.1,0.7,0.2,0.7c0.8,0.4,1.6,0.7,2.5,1.1C33.2,47.5,34.8,41.4,38.6,36z"/>
		<path class="st0" d="M46.8,24.8c-1-1.7-2.2-2.9-3.8-3.9c0.1-0.1,0.2-0.2,0.3-0.3C47.1,17,51,13.4,54.9,9.8c0.7-0.7,1.6-1,2.5-0.6
			c1.3,0.6,1.6,2.3,0.6,3.4c-3.1,3.3-6.2,6.7-9.3,10C48.1,23.3,47.5,24,46.8,24.8z"/>
		<path class="st0" d="M42.5,49.8c2,0,3.6,1.6,3.7,3.6c0,2-1.6,3.7-3.6,3.7c-2,0-3.7-1.6-3.7-3.6C38.8,51.4,40.4,49.8,42.5,49.8z"/>
		<path class="st0" d="M44.4,61c0-1.6,1.3-2.9,2.9-2.9c1.6,0,3,1.3,3,2.9c0,1.6-1.3,3-2.9,3C45.7,64,44.4,62.7,44.4,61z"/>
		<path class="st0" d="M52.4,56c0-1.1,0.9-2,2-2c1.1,0,2.1,1,2.1,2.1c0,1.1-1,2-2.1,2C53.3,58.1,52.4,57.2,52.4,56z"/>
	</g>
</g>
</svg>
