<svg version="1.1" id="Layer_1" xmlns="http://www.w3.org/2000/svg" xmlns:xlink="http://www.w3.org/1999/xlink" x="0px" y="0px"
	 viewBox="0 0 73 73" style="enable-background:new 0 0 73 73;" xml:space="preserve">
<style type="text/css">
	.st0{fill:#58595B;}
</style>
<g id="vk6yMe.tif_1_">
	<g>
		<path class="st0" d="M11.9,37.9c-0.3,0-0.5-0.1-0.7-0.1c-1.4-0.2-2.2-1-2.2-2.4c0-3.9,0-7.9,0-11.8c0-1.6,0.9-2.5,2.5-2.5
			c5.1,0,10.2,0,15.3,0c0.3,0,0.6,0,0.9-0.2c-0.3-0.2-0.6-0.4-0.9-0.6c-2.3-1.5-4.5-3.2-6.2-5.5C19,12.4,18.4,9.7,20,7
			c1.6-2.7,3.9-4.7,7.4-4.6c2.2,0.1,3.8,1.3,5.1,3c2.3,2.8,3.5,6.1,4.5,9.4c0.1,0.3,0.2,0.5,0.3,0.8c0,0,0.1,0,0.1,0
			c0.4-1,0.7-2.1,1.2-3c0.5-1.1,1.1-2.2,1.8-3.2c2.8-3.9,6.9-4.3,10.4-1.1c2.3,2,2.7,4.8,1.2,7.4c-1.1,1.8-2.6,3.2-4.3,4.5
			c-0.3,0.3-0.7,0.5-1,1c0.3,0,0.6,0,0.9,0c4.5,0,9,0,13.5,0c1.9,0,2.7,0.8,2.7,2.7c0,3.6,0,7.2,0,10.8c0,2.4-0.4,2.9-2.8,3.3
			c0,0.4,0,0.7,0,1.1c0,8.2,0,16.5,0,24.7c0,2.4-0.7,3.1-3.1,3.1c-14.4,0-28.9,0-43.3,0c-2.1,0-2.8-0.8-2.8-2.8c0-8.3,0-16.6,0-24.9
			C11.9,38.8,11.9,38.4,11.9,37.9z M32.5,35.8c-0.4,0-0.7,0-1,0c-4.7,0-9.4,0-14.1,0c-0.8,0-1.1,0.2-1.1,1c0,8.2,0,16.4,0,24.6
			c0,0.3,0,0.6,0,0.9c5.4,0,10.7,0,16.1,0C32.5,53.5,32.5,44.7,32.5,35.8z M56.6,62.4c0-8.9,0-17.7,0-26.5c-5.3,0-10.5,0-15.7,0
			c0,8.9,0,17.7,0,26.5C46.1,62.4,51.4,62.4,56.6,62.4z M13.6,33.1c6.3,0,12.6,0,18.9,0c0-2.5,0-5,0-7.4c-6.3,0-12.6,0-18.9,0
			C13.6,28.1,13.6,30.6,13.6,33.1z M40.8,33.1c6.2,0,12.4,0,18.6,0c0-2.5,0-5,0-7.4c-6.2,0-12.4,0-18.6,0
			C40.8,28.1,40.8,30.6,40.8,33.1z M33.5,18.9c-1.1-3.9-2.1-7.6-4.4-10.7c-0.3-0.4-0.7-0.8-1.1-1C27.6,7,27,6.8,26.6,6.9
			c-2.7,0.6-3.8,3.4-2,5.5C26.9,15.3,30.1,17,33.5,18.9z M41.4,18.8c2.2-1.1,4.2-2.4,5.9-4.1c0.4-0.4,0.7-0.9,1-1.4
			c0.2-0.3,0.2-0.7,0.1-1c-0.6-1.6-2.9-2.1-3.9-0.8C42.7,13.5,42,16.1,41.4,18.8z"/>
	</g>
</g>
</svg>
