<svg version="1.1" id="Layer_1" xmlns="http://www.w3.org/2000/svg" xmlns:xlink="http://www.w3.org/1999/xlink" x="0px" y="0px"
	 viewBox="0 0 73 73" style="enable-background:new 0 0 73 73;" xml:space="preserve">
<style type="text/css">
	.st0{fill:#58595B;}
</style>
<path id="icon_authors_pen_copy_2_1_" class="st0" d="M57.7,67.6H15.3c-5.4,0-9.7-4.3-9.7-9.7V15.5c0-5.4,4.3-9.7,9.7-9.7h42.4
	c5.4,0,9.7,4.3,9.7,9.7v42.4C67.4,63.3,63.1,67.6,57.7,67.6z M29.8,8.2c0,6.1-8.5,18.2-10.4,18.2c1.9,0,15.2,26.7,15.2,31.5h0.6
	V31.1c-2.9-0.7-4.7-3.6-4-6.6c0.7-2.9,3.6-4.7,6.6-4c2.9,0.7,4.7,3.6,4,6.6c-0.5,2-2.1,3.6-4.1,4.1v26.8h0.6
	c0-4.8,13.3-31.5,15-31.5c-1.7,0-10.2-12.1-10.2-18.2H29.8z M36.5,28.8c1.7,0,3-1.4,3-3c0-1.7-1.4-3-3-3c-1.7,0-3,1.4-3,3
	C33.5,27.5,34.8,28.8,36.5,28.8z M65,15.5c0-4-3.3-7.3-7.3-7.3H45.6c0,6.1,8.5,18.2,10.9,18.2c-2.4,0-15.8,25.5-15.8,33.9h-8.5
	c0-7.3-13.3-33.9-15.8-33.9c2.4-1.2,10.9-12.1,10.9-18.2H15.3c-4,0-7.3,3.3-7.3,7.3v42.4c0,4,3.3,7.3,7.3,7.3h42.4
	c4,0,7.3-3.3,7.3-7.3V15.5z"/>
</svg>
