<svg version="1.1" id="Layer_1" xmlns="http://www.w3.org/2000/svg" xmlns:xlink="http://www.w3.org/1999/xlink" x="0px" y="0px"
	 viewBox="0 0 73 73" style="enable-background:new 0 0 73 73;" xml:space="preserve">
<style type="text/css">
	.st0{fill:#58595B;}
</style>
<g id="M5dQ3O.tif_1_">
	<g>
		<path class="st0" d="M36.4,25c9.4,0,18.8,0,28.2,0c1.2,0,1.6,0.4,1.6,1.5c0,11.9,0,23.8,0,35.7c0,1.2-0.4,1.6-1.5,1.6
			c-18.8,0-37.6,0-56.4,0c-1.2,0-1.5-0.4-1.5-1.6c0-11.9,0-23.8,0-35.7c0-1.2,0.4-1.6,1.5-1.6C17.6,25,27,25,36.4,25z M34.3,44.5
			C34.3,44.5,34.3,44.5,34.3,44.5c0-3.6,0-7.1,0-10.7c0-1.3-0.4-1.6-1.6-1.6c-5.7,0-11.4,0-17.1,0c-1.4,0-1.7,0.3-1.7,1.8
			c0,7.1,0,14.1,0,21.2c0,1.3,0.4,1.7,1.7,1.7c5.7,0,11.4,0,17.1,0c1.4,0,1.7-0.3,1.7-1.7C34.3,51.5,34.3,48,34.3,44.5z M48.4,32.1
			C48.4,32.1,48.4,32.1,48.4,32.1c-3.3,0-6.6,0-10,0c-0.3,0-0.6,0-1,0c-0.6,0.1-0.9,0.4-1,1c-0.1,0.6,0.2,1,0.7,1.3
			c0.3,0.1,0.7,0.1,1,0.1c6.8,0,13.6,0,20.4,0c0.3,0,0.7,0,0.9-0.1c0.6-0.2,0.9-0.7,0.8-1.3c-0.1-0.6-0.4-0.9-1-1
			c-0.3,0-0.5,0-0.8,0C55.1,32.1,51.7,32.1,48.4,32.1z M48.4,39.2C48.4,39.2,48.4,39.2,48.4,39.2c-3.4,0-6.7,0-10.1,0
			c-0.3,0-0.5,0-0.8,0c-0.6,0.1-1,0.5-1.1,1.1c-0.1,0.7,0.3,1.1,0.9,1.3c0.2,0.1,0.4,0.1,0.7,0.1c6.9,0,13.8,0,20.7,0
			c0.3,0,0.7,0,0.9-0.2c0.5-0.2,0.8-0.7,0.6-1.3c-0.2-0.4-0.6-0.7-1-1c-0.2-0.1-0.5,0-0.7,0C55.2,39.2,51.8,39.2,48.4,39.2z
			 M44.2,48.8c2.1,0,4.2,0,6.3,0c0.9,0,1.4-0.5,1.4-1.3c0-0.7-0.5-1.2-1.4-1.2c-1,0-1.9,0-2.9,0c-3.2,0-6.5,0-9.7,0
			c-1,0-1.5,0.5-1.5,1.3c0,0.7,0.6,1.2,1.4,1.2C40,48.8,42.1,48.8,44.2,48.8z M44.2,53.5C44.2,53.5,44.2,53.5,44.2,53.5
			c-2.1,0-4.2,0-6.3,0c-0.9,0-1.5,0.5-1.4,1.2c0,0.8,0.6,1.2,1.5,1.2c4.2,0,8.3,0,12.5,0c1,0,1.5-0.4,1.5-1.2c0-0.8-0.5-1.2-1.6-1.2
			C48.3,53.5,46.2,53.5,44.2,53.5z"/>
		<path class="st0" d="M36.4,23.7c-2.4,0-4.9,0-7.3,0c-0.6,0-0.8-0.1-0.8-0.7c0-2.4,0-4.7,0-7.1c0.1-4.1,3.2-7.4,7.2-7.7
			c4.4-0.3,8.1,2.3,8.8,6.5c0.2,1.2,0.1,2.5,0.1,3.7c0,1.5,0,3.1,0,4.6c0,0.6-0.2,0.8-0.8,0.8C41.3,23.7,38.9,23.7,36.4,23.7z
			 M36.4,12.3c-2.2,0-4,1.8-4,3.9c0,2.2,1.8,4,4,4c2.2,0,4-1.8,4-3.9C40.5,14.1,38.7,12.3,36.4,12.3z"/>
		<path class="st0" d="M25,45.8c1.2,0.5,2.6,0.9,3.8,1.6c2,1.2,3.1,3.1,3.1,5.6c0,0.5-0.2,0.6-0.7,0.6c-4.8,0-9.7,0-14.5,0
			c-0.6,0-0.7-0.3-0.7-0.8c0-1.9,0.8-3.5,2.2-4.8c1.2-1.1,2.5-1.7,4.1-2c0.3-0.1,0.6-0.1,1-0.2c-2.9-1.2-4.1-3-3.5-5.4
			c0.4-2,2.3-3.4,4.4-3.3c2.1,0.1,3.9,1.7,4.2,3.8C28.7,43.2,27.3,45.1,25,45.8z"/>
		<path class="st0" d="M38,16.3c0,0.9-0.7,1.6-1.5,1.5c-0.9,0-1.5-0.7-1.5-1.6c0-0.8,0.7-1.5,1.5-1.5C37.3,14.7,38,15.4,38,16.3z"/>
	</g>
</g>
</svg>
