<svg version="1.1" id="Layer_1" xmlns="http://www.w3.org/2000/svg" xmlns:xlink="http://www.w3.org/1999/xlink" x="0px" y="0px"
	 viewBox="0 0 73 73" style="enable-background:new 0 0 73 73;" xml:space="preserve">
<style type="text/css">
	.st0{fill:#58595B;}
</style>
<g id="kFVlKK.tif_1_">
	<g>
		<path class="st0" d="M3.8,40.8c1.3-1.6,2.1-3.4,2.6-5.4c0.9-3.1,1.2-6.3,1-9.5c-0.2-2.4-0.6-4.8-0.9-7.2c-0.1-0.8,0.3-1.3,1.2-1.3
			c2.5,0,5.1,0,7.6,0c6,0,12,0,17.9,0c0.1,0,0.3,0,0.4,0c1,0,1.1,0.2,0.7,1.1c-0.3,0.8-0.6,1.6-0.8,2.4c-0.6,2.9-0.5,5.9-0.2,8.9
			c0.3,2.7,0.8,5.4,1.9,8c0.5,1,1.1,2,1.8,2.9c0.6,0.8,0.5,1.2-0.3,1.7c-2.1,1.2-4,2.8-5.7,4.5c-3.5,3.5-6.6,7.4-8.8,11.9
			c-0.3,0.5-0.4,0.9,0.1,1.4c0.9,1,0.7,2.6-0.3,3.5c-1,0.9-2.6,0.9-3.5,0c-1-0.9-1.1-2.5-0.2-3.5c0.3-0.4,0.3-0.7,0.1-1.1
			c-2.1-4.6-4.6-9-8.1-12.7C8.8,44.5,6.9,43,4.6,42c-0.3-0.1-0.5-0.4-0.8-0.6C3.8,41.2,3.8,41,3.8,40.8z M19.2,49.3
			c0-0.2,0.1-0.3,0.1-0.4c0-2.6,0-5.2,0-7.8c0-0.2-0.2-0.5-0.4-0.6C18,39.8,17.6,39,17.8,38c0.2-1.2,1.2-2.2,2.4-2.3
			c1.2-0.1,2.4,0.6,2.8,1.7c0.5,1.1,0.1,2.4-0.9,3.2c-0.3,0.2-0.4,0.5-0.4,0.8c0,2.7,0,5.4-0.1,8.1c0,0.2,0,0.3,0,0.6
			c0.2-0.2,0.3-0.3,0.3-0.4c2.5-3.4,5.3-6.5,8.6-9.1c0.3-0.2,0.3-0.4,0.2-0.7c-2.1-5.1-2.8-10.5-2.5-16c0-0.4,0-0.8,0-1.2
			c-5.3,0-10.6,0-15.9,0c0,0.6,0.1,1.2,0.1,1.7c0.4,5.1,0,10-1.8,14.8c-0.1,0.2,0,0.5,0.2,0.6c3.2,2.5,5.7,5.6,7.9,8.9
			C18.8,48.8,19,49,19.2,49.3z"/>
		<path class="st0" d="M68.3,61.2c-0.3,0.5-0.7,0.7-1.2,0.8c-1.4,0.4-2.9,0.9-4.2,1.5c-2.9,1.3-5.9,1.9-9.1,1.4
			c-2.7-0.4-5.3-1.5-7.7-2.8c-2.5-1.4-5.1-2.5-8-2.8c-4.3-0.5-8,0.6-11.1,3.6c-0.1,0.1-0.1,0.1-0.2,0.2c0,0,0,0-0.2,0
			c0.1-0.2,0.2-0.5,0.3-0.6c1.7-2.6,4.1-4.2,7-5c3.5-1,7-0.6,10.3,0.7c2.1,0.8,4.1,1.8,6.1,2.6c2,0.8,4.1,1.4,6.4,1.3
			c1.5,0,3-0.4,4.4-0.8c1.6-0.5,3.1-0.9,4.7-1.4c0.4-0.1,0.9-0.1,1.3-0.1c0.6-0.1,0.9,0.3,1.2,0.7C68.3,60.8,68.3,61,68.3,61.2z"/>
		<path class="st0" d="M20.7,7.1c3.6,0,7.2,0,10.8,0c1.6,0,2.8,1,3,2.5c0.5,2.7-1.3,4.1-3.3,4.1c-7-0.1-14-0.1-21.1,0
			c-2.5,0-4-2.1-3.2-4.6c0.4-1.3,1.5-2,3-2C13.5,7.1,17.1,7.1,20.7,7.1z"/>
	</g>
</g>
</svg>
