<svg version="1.1" id="Layer_1" xmlns="http://www.w3.org/2000/svg" xmlns:xlink="http://www.w3.org/1999/xlink" x="0px" y="0px"
	 viewBox="0 0 73 73" style="enable-background:new 0 0 73 73;" xml:space="preserve">
<style type="text/css">
	.st0{fill:#58595B;}
</style>
<g id="_x39_meb9s.tif_1_">
	<g>
		<path class="st0" d="M65,12.3c0,1.4,0,2.7,0,4c0,0.3-0.3,0.6-0.5,0.9c-2.2,3.2-4.4,6.4-6.6,9.6c-2.3,3.3-4.6,6.5-7,9.9
			c4.9,0,9.6,0,14.3,0c0,2.1,0,4,0,6c-7.9,0-15.8,0-23.8,0c0-1.2-0.1-2.4,0.1-3.6c0.1-0.7,0.7-1.3,1.2-1.9c2.1-3.1,4.3-6.1,6.5-9.2
			c2.2-3.2,4.4-6.3,6.8-9.6c-4.4,0-8.7,0-13.1,0c0-2,0-4,0-6C50.2,12.3,57.6,12.3,65,12.3z"/>
		<path class="st0" d="M32.4,36.8c-3,0-5.7,0-8.5,0c0-1.3,0-2.6,0-3.9c4.8,0,9.5,0,14.4,0c-0.1,1.4,0.2,2.7-0.8,4
			c-2.8,3.8-5.4,7.7-8.1,11.5c0,0.1-0.1,0.2-0.1,0.3c3.1,0,6.1,0,9.2,0c0,1.4,0,2.6,0,3.9c-5.1,0-10.1,0-15.3,0
			c-0.3-1.6-0.1-3,1-4.3c2.1-2.8,4.1-5.7,6.1-8.6C30.9,39,31.6,38,32.4,36.8z"/>
		<path class="st0" d="M14.5,49.3c-2.1,0-4,0-6,0c0-1,0-1.9,0-2.9c3.4,0,6.9,0,10.4,0c0.4,1.3-0.1,2.4-0.9,3.5
			c-1.9,2.5-3.6,5.1-5.4,7.7c-0.1,0.1-0.1,0.2-0.1,0.4c2.1,0,4.3,0,6.4,0c0,1,0,1.8,0,2.8c-3.7,0-7.4,0-11.1,0c-0.3-1.1,0-2,0.7-3
			C10.5,55,12.4,52.2,14.5,49.3z"/>
	</g>
</g>
</svg>
