<svg version="1.1" id="Layer_1" xmlns="http://www.w3.org/2000/svg" xmlns:xlink="http://www.w3.org/1999/xlink" x="0px" y="0px"
	 viewBox="0 0 73 73" style="enable-background:new 0 0 73 73;" xml:space="preserve">
<style type="text/css">
	.st0{fill:#58595B;}
</style>
<g id="_x35_W2rh6.tif_1_">
	<g>
		<path class="st0" d="M47.7,62.8c-2.3,0-4.7,0-7,0c-0.2,0-0.3-0.1-0.5-0.1c-1.7-0.2-3.4-0.4-5.1-0.9c-2.6-0.8-5.3-1.6-7.9-2.5
			c-1.3-0.4-2.5-0.7-3.9-0.6c-2.5,0.1-5,0-7.5,0c-0.4,0-0.9,0-1.3-0.1c-1.9-0.5-3.1-2.1-3.1-4.1c0-6.8,0-13.5,0-20.3
			c0-0.6,0.1-1.3,0.4-1.9c0.8-1.6,2.1-2.4,3.9-2.4c2.8,0,5.5,0,8.3,0c0.2,0,0.5-0.1,0.6-0.2c1-1.1,2-2.2,3-3.3
			c1.4-1.6,2.7-3.4,4.1-5c0.8-1,1.4-2,1.6-3.3c0.4-1.7,0.8-3.3,1.3-4.9c0.4-1.3,1.1-2.4,2.2-3.1c0.5-0.4,1.2-0.5,1.8-0.8
			c0.6,0,1.1,0,1.7,0c1.2,0.3,2.3,0.6,3.5,1c0.9,0.3,1.6,0.8,2.2,1.5c1,1.1,1.7,2.3,2,3.8c0.8,3.4,0.6,6.6-0.9,9.8
			c-0.1,0.1-0.1,0.3-0.2,0.5c0.2,0,0.4,0,0.6,0c1.6,0,3.2,0,4.8,0c3.4,0,5.9,1.5,7.5,4.5c1.6,2.9,1.2,5.8-0.4,8.6
			c-0.1,0.2-0.2,0.5-0.1,0.8c0.5,2.1,0.1,4.1-0.8,6c-0.1,0.3-0.2,0.6-0.2,0.9c0.2,2.3-0.3,4.3-1.6,6.2c-0.2,0.3-0.3,0.6-0.3,1
			c0,1.2-0.2,2.3-0.7,3.4c-1.1,2.6-3,4.3-5.7,5.1C49.4,62.5,48.5,62.6,47.7,62.8z M41.4,29.8c0-1,0.2-1.9,0.6-2.8
			c0.6-1.6,1.3-3.1,1.9-4.7c0.9-2.2,0.8-4.4,0.1-6.5c-0.3-0.9-0.9-1.6-1.8-2c-0.8-0.4-1.7-0.4-2.6-0.4c-0.1,0-0.3,0.1-0.4,0.3
			c-0.3,0.6-0.6,1.1-0.8,1.7c-0.4,1.5-0.7,3-1.1,4.6c-0.3,1.3-0.9,2.4-1.7,3.4c-1.2,1.4-2.3,2.7-3.4,4.1c-1.4,1.7-2.7,3.5-4.4,5
			c-0.9,0.8-1.9,1.5-3.3,1.5c-0.5,0-0.6,0-0.6,0.6c0,6.5,0,13,0,19.5c0,0.2,0,0.3,0,0.5c0.2,0,0.3,0,0.4,0c1.2,0,2.3,0.1,3.4,0.5
			c1.6,0.5,3.2,1.1,4.8,1.6c2.1,0.6,4.2,1.2,6.3,1.7c2.6,0.5,5.2,0.4,7.8,0.3c0.7,0,1.5-0.1,2.2-0.3c1.8-0.4,3.1-1.5,3.5-3.4
			c0.2-1,0.2-2.1,0.1-3.1c0-0.1,0.1-0.4,0.2-0.5c1.5-0.9,2.5-3.7,1.5-5.8c-0.1-0.3-0.1-0.5,0.1-0.7c1.4-1.4,1.8-3.7,1-5.5
			c-0.2-0.4-0.4-0.9-0.6-1.3c0.7-0.3,1.1-0.5,1.3-1c0.2-0.3,0.4-0.7,0.5-1.1c0.4-1,0.6-2,0.3-3.1c-0.5-1.7-2.2-3.1-4.2-3.1
			c-3.5,0-7,0-10.5,0C41.7,29.8,41.6,29.8,41.4,29.8z M19.7,52.5c0-1.1-0.9-2.1-2-2.1c-1.1,0-2.1,0.9-2.1,2c0,1.1,1,2.1,2.1,2.1
			C18.7,54.5,19.7,53.6,19.7,52.5z"/>
	</g>
</g>
</svg>
