<svg version="1.1" id="Layer_1" xmlns="http://www.w3.org/2000/svg" xmlns:xlink="http://www.w3.org/1999/xlink" x="0px" y="0px"
	 viewBox="0 0 73 73" style="enable-background:new 0 0 73 73;" xml:space="preserve">
<style type="text/css">
	.st0{fill:#58595B;}
</style>
<g id="ZpdcEK.tif_1_">
	<g>
		<path class="st0" d="M64.7,47.8c0,0.3,0,0.5,0,0.7c0,4,0,8,0,12c0,1.4-0.9,2.3-2.3,2.3c-0.4,0-0.7,0-1.1,0c-1.3,0-2.2-0.9-2.2-2.2
			c0-1.7,0-3.5,0-5.3c-15.1,0-30.1,0-45.2,0c0,0.4,0,0.9,0,1.3c0,1.3,0,2.6,0,3.9c0,1.3-0.9,2.2-2.2,2.2c-0.4,0-0.8,0-1.2,0
			c-1.4,0-2.2-0.9-2.2-2.3c0-5.4,0-10.9,0-16.3c0-4.9,0-9.8,0-14.7c0-1.7,0.8-2.5,2.4-2.5c0.3,0,0.6,0,0.9,0c1.4,0,2.3,0.9,2.3,2.3
			c0,4.8,0,9.6,0,14.5c0,1.3,0,2.6,0,3.9C30.8,47.8,47.7,47.8,64.7,47.8z"/>
		<path class="st0" d="M64.7,45.9c-11.9,0-23.7,0-35.7,0c0-0.3,0-0.5,0-0.8c0-2.8,0-5.5,0-8.3c0-2.5,1.6-4,4-4c7.7,0,15.4,0,23,0
			c4.2,0,7.6,2.7,8.4,6.8c0.1,0.3,0.1,0.6,0.1,0.9C64.7,42.3,64.7,44,64.7,45.9z"/>
		<path class="st0" d="M27.1,40.3c0,3.1-2.6,5.6-5.6,5.6c-3.1,0-5.6-2.6-5.6-5.6c0-3.1,2.5-5.6,5.6-5.6
			C24.5,34.6,27.1,37.2,27.1,40.3z"/>
		<path class="st0" d="M43.6,13c-0.3,0-0.5,0-0.6,0c-1.3,0-2.5,0-3.8,0c-0.6,0-0.8-0.2-0.8-0.8c0-0.5,0-0.9,0-1.4
			c0-0.4,0.2-0.6,0.6-0.6c2.7,0,5.5,0,8.2,0c0.4,0,0.6,0.2,0.6,0.6c0,0.6,0,1.3,0,1.9c0,0.2-0.2,0.5-0.4,0.7
			c-1.4,1.6-2.9,3.2-4.4,4.8c-0.1,0.1-0.2,0.3-0.4,0.5c0.6,0,1.1,0,1.6,0c1,0,2,0,2.9,0c0.5,0,0.7,0.2,0.7,0.7c0,0.5,0,0.9,0,1.4
			c0,0.4-0.2,0.7-0.6,0.7c-2.7,0-5.4,0-8.1,0c-0.4,0-0.6-0.2-0.6-0.7c0,0,0-0.1,0-0.1c-0.2-1.4,0.3-2.5,1.3-3.5
			c1.2-1.1,2.3-2.5,3.4-3.7C43.3,13.4,43.4,13.2,43.6,13z"/>
		<path class="st0" d="M32.2,22.9c1.2,0,2.3,0,3.4,0c0.9,0,0.9,0.1,0.9,0.9c0,1.4,0,1.4-1.4,1.4c-1.8,0-3.5,0-5.3,0
			c-0.7,0-0.7-0.1-0.8-0.8c-0.1-1.1,0.2-1.8,1-2.6c1.1-1.1,2.2-2.3,3.3-3.6c-0.3,0-0.4,0-0.6,0c-1,0-2,0-3.1,0
			c-0.7,0-0.7-0.4-0.7-0.9c0-1.3,0-1.4,0.6-1.4c2.1,0,4.1,0,6.2,0c0.4,0,0.6,0.2,0.6,0.6c0,0.5,0,0.9,0,1.3c0,0.3-0.2,0.5-0.4,0.8
			c-1.2,1.3-2.3,2.5-3.5,3.8C32.5,22.5,32.4,22.6,32.2,22.9z"/>
		<path class="st0" d="M23.9,29c0.9,0,1.7,0,2.5,0c0.7,0,0.7,0.1,0.7,1c0,0.7-0.1,0.8-0.8,0.8c-1.4,0-2.7,0-4.1,0
			c-0.5,0-0.7-0.2-0.7-0.7c0-0.7,0.1-1.3,0.7-1.9c0.9-0.9,1.6-1.9,2.6-3c-0.9,0-1.7,0-2.5,0c-0.6,0-0.7-0.1-0.7-0.9
			c0-0.8,0.1-0.9,0.8-0.9c1.4,0,2.7,0,4.1,0c0.5,0,0.7,0.2,0.7,0.7c0,0.7-0.1,1.3-0.7,1.9C25.6,26.9,24.8,27.9,23.9,29z"/>
	</g>
</g>
</svg>
