<svg version="1.1" id="Layer_1" xmlns="http://www.w3.org/2000/svg" xmlns:xlink="http://www.w3.org/1999/xlink" x="0px" y="0px"
	 viewBox="0 0 73 73" style="enable-background:new 0 0 73 73;" xml:space="preserve">
<style type="text/css">
	.st0{fill:#58595B;}
</style>
<g id="GN27Bm.tif_1_">
	<g>
		<path class="st0" d="M53.1,64.8c-0.5,0-1.1,0-1.6,0c-3.5-1.4-2.3-4.5-2.6-7.1c-8.3,0-16.6,0-24.9,0c0,0.9-0.1,1.8,0,2.7
			c0.2,2.1-0.5,3.6-2.5,4.4c-0.5,0-1.1,0-1.6,0c-3.6-1.3-2.3-4.6-2.7-7.2c-1.3,0-2.5,0-3.7,0c0-0.5,0-0.8-0.1-1.2
			c0-7.3,0-14.6,0-21.9c0-0.6,0-1.2,0.1-1.7c0.7-5.1,1.4-10.2,2-15.3c0.3-2.6,1.5-4.6,3.9-5.6c2.7-1.1,5.5-1.9,8.3-2.6
			c2.2-0.6,4.5-0.7,6.8-1.1c1.3,0,2.7,0,4,0C40.2,8.4,42,8.7,43.8,9c3.6,0.6,7.2,1.3,10.5,3.3c1.8,1.1,2.9,2.7,3.1,4.8
			c0.2,1.7,0.5,3.4,0.7,5.1c0.5,4.2,1.3,8.3,1.4,12.5c0.2,7.1,0.1,14.3,0.1,21.4c0,0.5,0,0.9,0,1.5c-1.4,0-2.5,0-3.8,0
			c0,1-0.1,1.9,0,2.8C55.9,62.5,55.1,64.1,53.1,64.8z M36.4,35.7c5.6,0,11.2,0,16.7,0c1.9,0,2.5-0.6,2.3-2.5
			c-0.5-4.2-1.1-8.3-1.8-12.5c-0.3-2-0.9-2.5-2.9-2.5c-9.5,0-19.1,0-28.6,0c-2,0-2.6,0.5-2.9,2.5c-0.6,4.1-1.2,8.2-1.8,12.4
			c-0.3,2,0.4,2.6,2.4,2.6C25.4,35.7,30.9,35.7,36.4,35.7z M36.5,12.6c-3.1,0-6.1,0-9.2,0c-1,0-1.7,0.2-1.8,1.3
			c-0.1,1.2,0.7,1.5,1.7,1.5c6.1,0,12.2,0,18.3,0c1,0,1.7-0.3,1.7-1.4c0-1.2-0.7-1.4-1.8-1.4C42.6,12.7,39.5,12.6,36.5,12.6z
			 M23.8,47c0-1.8-1.4-3.2-3.2-3.2c-1.9,0-3.3,1.4-3.3,3.3c0,1.8,1.4,3.2,3.2,3.2C22.4,50.2,23.8,48.8,23.8,47z M52.3,43.8
			c-1.8,0-3.2,1.4-3.2,3.2c0,1.8,1.4,3.2,3.2,3.2c1.8,0,3.3-1.5,3.2-3.3C55.5,45.1,54.1,43.8,52.3,43.8z"/>
	</g>
</g>
</svg>
