<svg version="1.1" id="Layer_1" xmlns="http://www.w3.org/2000/svg" xmlns:xlink="http://www.w3.org/1999/xlink" x="0px" y="0px"
	 viewBox="0 0 73 73" style="enable-background:new 0 0 73 73;" xml:space="preserve">
<style type="text/css">
	.st0{fill:#58595B;}
</style>
<g id="CX5Q2k.tif">
	<g>
		<path class="st0" d="M65.4,9.2c-0.5,0.6-1,1.2-1.5,1.8c-0.7,0.7-1.4,1.3-2.2,2.1c0.3,0.3,0.6,0.5,0.9,0.8c1.4,1.1,1.3,2.4,0,3.5
			c-0.7,0.6-1.3,1.4-2,2c-0.3,0.3-0.3,0.5-0.2,0.8c0.6,2.5,0.7,5,0.1,7.5c-0.5,1.9-1.4,3.5-2.8,4.9c-4.2,4.2-8.3,8.3-12.5,12.5
			c-0.8,0.8-1.9,0.9-2.7,0.2c-0.8-0.8-0.7-1.8,0.1-2.7c4.2-4.2,8.3-8.3,12.5-12.5c2-2,2.3-4.5,2-7.2c-0.3,0.3-0.4,0.4-0.6,0.6
			c-10.7,10.7-21.4,21.4-32,32.3c-3.1,3.2-6.6,5.5-10.6,7.3c-1.4,0.6-2.7,1.1-4.1,1.7c-0.3,0-0.6,0-0.9,0c-0.6-0.3-1.1-0.7-1.4-1.4
			c0-0.3,0-0.6,0-0.9c1-2,1.9-4.1,2.9-6.1c1.4-2.8,3.3-5.2,5.5-7.5C29.1,35.7,42,22.7,55,9.6c0.1-0.1,0.2-0.2,0.4-0.4
			c0.8-0.8,1.8-0.7,2.6,0c0.4,0.4,0.8,0.8,1.2,1.3c0.9-0.9,1.8-1.8,2.6-2.6c0.4-0.4,0.8-0.7,1.3-1c0.3,0,0.6,0,0.9,0
			c0.6,0.3,1.1,0.7,1.4,1.4C65.4,8.6,65.4,8.9,65.4,9.2z M13.1,59.3c2.7-1.2,5.3-2.6,7.4-4.7c7.1-7.2,14.2-14.3,21.3-21.5
			c0.1-0.1,0.3-0.3,0.3-0.3c-0.8-0.9-1.7-1.7-2.6-2.6c-0.1,0.1-0.2,0.3-0.3,0.4C32.1,37.8,25,45,17.8,52.2c-0.5,0.5-0.9,1-1.3,1.5
			C15.1,55.4,14,57.3,13.1,59.3z M56.8,13.3c-4.8,4.7-9.7,9.5-14.6,14.2c0.9,0.9,1.8,1.8,2.6,2.6c4.8-4.8,9.5-9.6,14.3-14.4
			C58.3,14.8,57.5,14,56.8,13.3z"/>
	</g>
</g>
</svg>
