<svg version="1.1" id="Layer_1" xmlns="http://www.w3.org/2000/svg" xmlns:xlink="http://www.w3.org/1999/xlink" x="0px" y="0px"
	 viewBox="0 0 73 73" style="enable-background:new 0 0 73 73;" xml:space="preserve">
<style type="text/css">
	.st0{fill:#58595B;}
</style>
<path id="rabbit_1_" class="st0" d="M60.2,57.6c-0.5,0-0.9-0.1-1.4-0.2c0.8,2.7,1.1,5.5,1.1,8.4V67H22.2V47c-1,0.2-2,0.3-3,0.3
	c-0.1,0-0.2,0-0.3,0c-3.1,0.1-6-1.3-7.9-3.7C8,39,10.8,31.8,17.3,27.4c2.7-1.9,6-2.9,9.3-2.9c-0.5-2.7-0.6-5.4-0.4-8.1
	c0.7-8,2.3-11.3,5.4-11.3c0.1,0,0.3,0,0.4,0c2.7,0.2,3.7,2.7,3.9,6.5c0.6-0.9,1.3-1.8,2.2-2.5c1.7-1.6,4.3-1.5,5.8,0.2
	c0.8,0.8,1.2,2,1.1,3.1c0,2-0.9,4.8-2.8,8.8c-1.7,3.4-3.9,6.4-6.7,8.9v13.4c3.3-0.3,11.5-0.4,17.5,4.7c0.5,0.5,1.1,1,1.5,1.5
	c1.1-3.1,4.4-4.7,7.5-3.6c3.1,1.1,4.7,4.4,3.6,7.5C65,56,62.7,57.6,60.2,57.6z M31.8,7.7c-0.1,0-0.1,0-0.2,0c-1.7,0-2.5,4.9-2.9,9
	c-0.2,2.8,0,5.5,0.5,8.3c0.4,0.1,0.9,0.3,1.3,0.5c0.4-3,1.2-5.8,2.5-8.6c0.1-0.2,0.2-0.4,0.3-0.6C33.9,7.9,32.3,7.7,31.8,7.7z
	 M29.9,27.9c0,0,0,0.1,0,0.1L29.9,27.9C30,27.9,30,27.9,29.9,27.9z M32.7,29.4l0.1-0.1L32.7,29.4C32.7,29.4,32.7,29.4,32.7,29.4
	L32.7,29.4z M40,20.2c1.7-3.5,2.5-6.1,2.6-7.7c0.1-0.7-0.2-1.5-0.9-1.7c-0.2-0.1-0.5-0.2-0.7-0.2c-0.5,0-0.9,0.2-1.2,0.6
	c-1.7,1.7-3,3.7-3.9,5.9c0,0.1,0,0.2,0,0.3c-0.3,3.4-1.2,6.7-2.6,9.8c0.3,0.3,0.6,0.7,0.9,1.1C36.5,25.9,38.5,23.2,40,20.2L40,20.2z
	 M51.5,50.1c-6.7-5.6-16.9-4-17-4l-1.5,0.2V30.5l-0.7-0.8l0.2-0.2h-0.1l-0.4,0.2c0-0.1-0.1-0.1-0.2-0.2c-0.7,1.3-1.2,2-1.2,2.1
	l-1.3,1.9l-0.9-2.1c-0.6-1.4-1.1-2.9-1.4-4.4c-0.2,0-0.4-0.1-0.6-0.1c-2.8,0-5.6,0.8-7.9,2.4c-4.1,2.8-6.6,6.9-6.4,10.2h2.2L13,42
	c0,0.1,0.1,0.1,0.1,0.2c1.4,1.8,3.6,2.7,5.9,2.6c3,0,5.9-0.9,8.3-2.5l1.4,2.1c-1.2,0.8-2.6,1.5-4,2v18.2H38
	c0.4-8.7,4.9-11.8,8.9-11.8v2.5c-2.8,0-6,2.5-6.4,9.4h16.9C57.2,58.1,55.2,53.3,51.5,50.1L51.5,50.1z M60.2,48.2
	c-1.9,0-3.4,1.5-3.4,3.4c0,1.9,1.5,3.4,3.4,3.4c1.9,0,3.4-1.5,3.4-3.4C63.6,49.7,62.1,48.2,60.2,48.2L60.2,48.2z M22.2,37.2
	c-1.2,0-2.1-1-2.1-2.1s1-2.1,2.1-2.1c1.2,0,2.1,1,2.1,2.1l0,0C24.4,36.2,23.4,37.2,22.2,37.2z"/>
</svg>
