<svg version="1.1" id="Layer_1" xmlns="http://www.w3.org/2000/svg" xmlns:xlink="http://www.w3.org/1999/xlink" x="0px" y="0px"
	 viewBox="0 0 73 73" style="enable-background:new 0 0 73 73;" xml:space="preserve">
<style type="text/css">
	.st0{fill:#58595B;}
</style>
<g id="DCqTOm.tif">
	<g>
		<path class="st0" d="M37.9,48.9c0.8,0.3,1.5,0.7,2.3,1c2.7,0.9,4.4,2.6,5,5.4c0.5,2-0.1,3.3-1.9,4.4c-1.8,1.1-3.8,1.6-5.9,1.9
			c-4.2,0.8-8.2,0.4-12.2-1c-0.8-0.3-1.5-0.6-2.2-1c-1.7-1-2.2-2.3-1.8-4.2c0.6-2.8,2.3-4.5,5-5.4c0.8-0.3,1.5-0.7,2.4-1
			c-0.2-0.2-0.2-0.3-0.3-0.3c-1.3-0.8-2.3-1.9-3-3.2c-0.7-1.3-1.6-2.6-1.9-4c-0.6-2.6-0.6-5.3,1-7.7c1.9-2.7,4.5-4,7.8-3.8
			c1.3,0.1,2.5-0.1,3.8,0.1c4,0.4,7.4,4,7.3,8.1c0,1.1-0.1,2.2-0.3,3.3c-0.1,0.7-0.6,1.3-0.9,2c-0.1,0.1-0.1,0.2-0.2,0.3
			c-0.8,2-2,3.8-3.9,4.9C37.9,48.7,37.9,48.8,37.9,48.9z M33.8,59.8c0.9-0.1,2.3-0.2,3.7-0.5c1.6-0.3,3.2-0.7,4.7-1.5
			c0.9-0.5,1.1-0.9,0.9-1.9c-0.3-2-1.5-3.3-3.4-3.9c-1.1-0.3-2.1-0.8-3-1.5c-0.6-0.6-1.1-1.2-1.2-2.1c-0.1-0.8,0.2-1.1,0.9-1.4
			c0.5-0.2,1.1-0.5,1.5-0.9c1-0.9,1.7-2,2.1-3.3c0.1-0.2,0.2-0.5,0.3-0.6c0.6-0.4,0.7-1.1,0.8-1.7c0.1-0.7,0.1-1.4,0.1-2.1
			c0-3.9-3.4-6.8-7.2-6.2c-0.5,0.1-1,0.1-1.5,0c-3-0.5-5.8,1.2-6.8,4c-0.6,1.7-0.4,3.4,0,5.1c0,0.2,0.2,0.4,0.3,0.6
			c0.2,0.3,0.4,0.6,0.6,0.9c0.7,1.9,1.7,3.5,3.8,4.2c0.5,0.2,0.7,0.5,0.7,1.1c0,1-0.5,1.7-1.2,2.4c-0.9,0.8-1.9,1.2-3,1.6
			c-1.4,0.4-2.6,1.3-3.1,2.7c-0.9,2.3-0.6,2.6,1.4,3.5c0.2,0.1,0.5,0.2,0.8,0.3C28.2,59.3,30.7,59.7,33.8,59.8z"/>
		<path class="st0" d="M47.4,55.1c-0.2-0.7-0.4-1.4-0.6-2.2c0.3,0,0.5,0,0.7,0c3.9,0,7.8-0.3,11.6-1.2c1-0.2,2-0.7,3-1
			c0.6-0.3,1-0.8,0.8-1.5c-0.2-1-0.4-2-0.7-2.9c-0.6-1.6-1.7-2.7-3.4-3.3c-1.6-0.5-3.2-1.2-4.8-1.8c-1.2-0.4-1.8-1.4-1.9-2.6
			c-0.1-1.2,0-2.3,0.1-3.5c0-0.3,0.2-0.6,0.3-0.8c0.9-1.1,1.3-2.4,1.6-3.8c0.2-0.7,0.4-1.2,1.1-1.6c0.7-0.4,1-1.2,0.8-2
			c-0.2-1.2,0.1-2.2,0.3-3.3c0.3-2.6-0.1-5-1.9-7c-1.4-1.5-3.2-2.1-5.2-2.4c-1.4-0.2-2.8-0.2-4.1,0.2c-0.6,0.2-1.2,0.6-1.8,0.9
			c-0.3,0.1-0.6,0.3-0.9,0.4c-2.5,0.5-3.8,2-4,4.6c-0.1,1.7,0.1,3.3,0.4,4.9c0.1,0.3,0.1,0.6,0.1,0.9c-0.2,0.8-0.1,1.5,0.3,2.3
			c-0.8-0.2-1.6-0.4-2.3-0.6c-0.1,0-0.2-0.3-0.2-0.4c0.2-1.9-0.5-3.7-0.4-5.5c0.1-1.3,0.2-2.6,0.5-3.9c0.7-2.3,2.4-3.7,4.8-4.3
			c0.2-0.1,0.5-0.1,0.6-0.2c2.2-1.5,4.6-1.7,7.1-1.4c0.9,0.1,1.9,0.3,2.8,0.6c3.8,1.3,6.4,4.7,6.5,8.7c0,1.3-0.2,2.5-0.3,3.8
			c0,0.4-0.1,0.8,0,1.2c0.1,1.7-0.3,3.2-1.7,4.3c-0.1,0.1-0.3,0.3-0.3,0.5c-0.4,1.5-1,2.9-1.8,4.3c-0.5,0.9-0.5,2.2-0.1,3.3
			c0.1,0.2,0.3,0.3,0.4,0.4c0.7,0.3,1.4,0.6,2.1,0.9c0.7,0.3,1.4,0.5,2.1,0.7c3.4,1,5,3.6,5.8,6.9c0.1,0.4,0.1,0.9,0.2,1.3
			c0.2,1.5-0.4,2.6-1.7,3.3c-1.6,1-3.4,1.5-5.3,1.8c-3.4,0.6-6.9,0.9-10.3,0.9C47.6,55.1,47.5,55.1,47.4,55.1z"/>
		<path class="st0" d="M21.8,32.2c-0.1,0.8-0.2,1.4-0.3,2c-0.2,1-0.7,1.7-1.6,2.2c-1,0.6-2.1,1-3.2,1.5c-0.6,0.3-1.3,0.5-2,0.7
			c-2.8,0.8-4,2.8-4.4,5.4c-0.3,1.8-0.1,2.1,1.6,2.7c2.2,0.8,4.4,1.2,6.7,1.4c1.6,0.2,3.3,0.3,4.9,0.4c-0.7,0.6-1.5,1.3-2.3,1.9
			c-0.1,0.1-0.2,0.1-0.4,0.1c-3.3-0.2-6.7-0.6-9.8-1.8c-2.9-1.1-3.7-2.6-2.9-5.6c0.3-1,0.7-2.1,1.1-3c0.8-1.6,2.1-2.7,3.8-3.3
			c1.1-0.4,2.2-0.7,3.3-1.1c0.8-0.3,1.6-0.7,2.4-1.1c-2.9-0.3-5.5-0.9-7-3.7c2.1-2.7,2.3-6,2.6-9.2c0.2-1.9,0.1-3.8,0.1-5.7
			c0-4.5,4.2-9.7,10.5-7.6c0.3,0.1,0.7,0.1,1,0c4.5-1.6,9.1,1,10.2,5.6c0,0.2,0.1,0.4,0,0.6c-0.9,1.2-1.5,2.5-1.9,3.9
			c0-0.7,0-1.4,0-2.1c0.3-4.6-4-7.6-8.1-5.7c-0.5,0.2-0.9,0.2-1.4,0c-4-1.8-8.3,1-8.1,5.5c0.2,3.8,0,7.5-0.9,11.1
			c-0.3,1.1-0.7,2.1-1.1,3.2c-0.2,0.4-0.1,0.6,0.2,0.8c1.1,0.7,2.3,0.9,3.5,1C19.6,32.3,20.6,32.2,21.8,32.2z"/>
	</g>
</g>
</svg>
