<svg version="1.1" id="Layer_1" xmlns="http://www.w3.org/2000/svg" xmlns:xlink="http://www.w3.org/1999/xlink" x="0px" y="0px"
	 viewBox="0 0 73 73" style="enable-background:new 0 0 73 73;" xml:space="preserve">
<style type="text/css">
	.st0{fill:#58595B;}
</style>
<g id="PSPQ9B.tif_1_">
	<g>
		<path class="st0" d="M59.7,28.1c-1.1,0.3-2.1,0.6-3.1,0.9c-1.3,0.4-2.7,0.8-4,1.2c-1.1,0.3-1.9-0.1-2.2-1.1
			c-0.3-0.9,0.2-1.7,1.3-2c3-0.9,5.9-1.8,8.9-2.7c0.4-0.1,0.8-0.4,1.1-0.7c1.9-1.9,3.9-3.9,5.8-5.8c0.5-0.5,1-0.7,1.7-0.5
			c0.6,0.2,1,0.6,1.1,1.3c0.1,0.6-0.1,1.1-0.5,1.5c-0.6,0.6-1.3,1.2-2,1.8c0,0.1,0.1,0.1,0.1,0.2c0.1,0,0.2,0,0.3,0.1
			c0.9,0.2,1.4,0.7,1.5,1.5c0,0.8-0.4,1.4-1.2,1.7c-1.4,0.4-2.7,0.8-4.1,1.2c-0.4,0.1-0.7,0.3-0.8,0.8c-3.5,9.5-7,18.9-10.5,28.4
			c-0.1,0.2-0.1,0.4-0.2,0.7c0.9-0.1,1.7-0.2,2.5-0.2c1.3,0,2.5,0.9,2.8,2.2c0.4,1.8-0.7,3.5-2.6,3.7c-4.5,0.5-9,0.9-13.5,1.4
			c-4.6,0.5-9.1,1-13.7,1.4c-4.6,0.5-9.1,0.9-13.7,1.4c-1.4,0.1-2.9,0.3-4.3,0.4C8.5,67,7.1,66,6.9,64.4c-0.2-1.8,0.8-3.2,2.6-3.4
			c3.7-0.4,7.5-0.8,11.2-1.2c3.7-0.4,7.4-0.8,11.1-1.1c4.2-0.4,8.3-0.9,12.5-1.3c1.4-0.1,2.8-0.3,4.2-0.4c0.2,0,0.5-0.2,0.6-0.4
			c3.5-9.4,7-18.7,10.5-28.1C59.6,28.4,59.6,28.3,59.7,28.1z"/>
		<path class="st0" d="M28.4,17.9c-1.1-0.7-2.1-1.4-3.2-2.1c-0.2-0.1-0.5-0.1-0.8-0.1c-2.6,0.3-5.3,0.7-7.9,1
			c-0.5,0.1-1.1,0-1.6-0.2c-1-0.3-1.3-1.2-0.5-2c0.5-0.5,1.2-0.9,1.8-1.1c1.1-0.4,2.2-0.7,3.3-1c1.7-0.5,3.5-1,5.2-1.6
			c0.8-0.2,1.5-0.2,2.2,0.3c3.3,2.2,6.6,4.4,9.9,6.6c0.2,0.1,0.4,0.4,0.6,0.6c1.6,1.9,3.3,3.8,4.9,5.8c0.3,0.3,0.5,0.5,1,0.4
			c2.1-0.5,4.3-0.9,6.5-1.3c0.4-0.1,0.9-0.1,1.3,0.1c1,0.3,1.3,1.5,0.5,2.2c-0.5,0.4-1.1,0.8-1.8,1.1c-2.6,0.9-5.1,1.8-7.7,2.6
			c-1.1,0.3-1.9-0.2-2.6-1c-1.3-1.5-2.5-2.9-3.8-4.4c-0.1-0.2-0.3-0.3-0.5-0.6c-1.9,3.1-3.8,6.1-5.7,9.2c0.4,0.3,0.8,0.7,1.2,1
			c1.7,1.4,3.5,2.7,5.2,4.1c0.4,0.3,0.8,0.7,1,1.1c2.4,3.7,4.7,7.4,7.1,11.1c0.7,1.1,0.5,2.2-0.4,2.9c-0.9,0.7-2.1,0.5-2.9-0.5
			c-2.8-3.2-5.5-6.4-8.3-9.6c-0.2-0.2-0.4-0.4-0.7-0.6c-1.8-1.4-3.6-2.9-5.4-4.2c-1.2-0.9-2.5-1.6-3.7-2.4c-2.1-1.3-2.7-3.3-1.7-5.6
			c0.3-0.6,0.6-1.2,1-1.8c2.1-3.1,4.2-6.2,6.2-9.3C28.1,18.3,28.2,18.2,28.4,17.9z"/>
		<path class="st0" d="M22.5,38.8c-1,1.4-1.9,2.7-2.8,4c-0.6,0.8-1.5,1.1-2.4,1c-3.2-0.1-6.3-0.2-9.5-0.3c-1.2-0.1-2.4-0.2-3.5-0.4
			c-1.4-0.3-2-1.3-1.4-2.4c0.3-0.4,0.8-0.9,1.3-1c0.8-0.3,1.7-0.3,2.5-0.4c2.8-0.2,5.6-0.4,8.5-0.6c0.3,0,0.7-0.2,0.9-0.5
			c0.8-1,1.6-2.1,2.4-3.3C19.4,36.7,21,37.7,22.5,38.8z"/>
		<path class="st0" d="M43.5,10c0,2.6-2,4.6-4.6,4.7c-2.6,0-4.7-2.1-4.7-4.6c0-2.6,2.1-4.7,4.7-4.7C41.5,5.4,43.5,7.5,43.5,10z"/>
		<path class="st0" d="M57,64.4c0,1.1,0,2.1,0,3.2c-6.2,0-12.3,0-18.5,0c0-1.1,0-2.1,0-3.2C44.6,64.4,50.8,64.4,57,64.4z"/>
	</g>
</g>
</svg>
