<svg version="1.1" id="Layer_1" xmlns="http://www.w3.org/2000/svg" xmlns:xlink="http://www.w3.org/1999/xlink" x="0px" y="0px"
	 viewBox="0 0 73 73" style="enable-background:new 0 0 73 73;" xml:space="preserve">
<style type="text/css">
	.st0{fill:#58595B;}
</style>
<g id="JLoPm6.tif_1_">
	<g>
		<path class="st0" d="M15.8,12.6c-0.5,0-1,0.1-1.5,0c-1.9-0.3-3.3-1.9-3.2-3.7c0.1-2,1.7-3.4,3.7-3.4c4.9,0,9.8,0,14.7,0
			c9.5,0,19,0,28.5,0c1.9,0,3.3,1,3.7,2.8c0.5,2.2-1.1,4.3-3.3,4.4c-0.4,0-0.8,0-1.3,0C57,13.8,57,15,56.9,16.2c-0.2,3-0.8,6-2,8.8
			c-1.7,4-4.7,6.7-8.6,8.5c-0.5,0.2-1,0.5-1.4,0.8c-0.9,0.8-0.9,1.9,0,2.7c0.2,0.2,0.5,0.4,0.8,0.5c5.9,2.3,9.1,6.7,10.4,12.7
			c0.6,2.7,0.8,5.5,1.2,8.4c0.1,0,0.4,0,0.7,0c2.2,0,3.9,1.6,3.8,3.6c0,2.1-1.6,3.6-3.9,3.6c-4.4,0-8.7,0-13.1,0c-10,0-20,0-29.9,0
			c-2.6,0-4.4-2.1-3.7-4.5c0.4-1.5,1.8-2.6,3.4-2.6c0.4,0,0.8,0,1.3,0c0.1-1.2,0.1-2.4,0.2-3.5c0.3-3.3,0.9-6.4,2.3-9.4
			c1.8-3.7,4.5-6.4,8.3-8c0.5-0.2,1.1-0.5,1.6-0.9c0.8-0.7,0.8-1.7,0.1-2.4c-0.3-0.3-0.8-0.6-1.2-0.8c-6.1-2.6-9.4-7.4-10.5-13.9
			C16.2,17.5,16.1,15.1,15.8,12.6z M52.7,58.6c0-3.3-0.3-6.5-1.3-9.6c-1.2-3.5-3.5-6.1-7-7.5c-0.4-0.2-0.9-0.4-1.3-0.6
			c-3.9-2.4-4.2-7.4-0.6-10.2c0.6-0.5,1.4-0.9,2.1-1.2c3.5-1.6,5.8-4.2,7-7.8c0.8-2.4,1.1-4.8,1.2-7.3c0-0.6,0-1.2,0-1.8
			c-10.9,0-21.6,0-32.4,0c0,0.2,0,0.3,0,0.5c0.2,2.2,0.3,4.4,0.7,6.6c0.6,3.2,2,6.2,4.7,8.2c1.1,0.8,2.3,1.4,3.5,2
			c3,1.5,4.5,4.6,3.6,7.5c-0.7,2.2-2.3,3.5-4.3,4.3c-3,1.2-5.1,3.3-6.4,6.2c-0.9,2.1-1.4,4.3-1.6,6.6c-0.1,1.3-0.2,2.7-0.2,4.1
			c0.5,0,0.9,0,1.3,0c0.8,0.1,1.2-0.2,1.6-0.9c2.1-3.9,4.9-7.3,8.7-9.8c2-1.3,4-1.5,6.3-0.4c4.9,2.4,8.7,5.9,11.5,10.5
			c0.2,0.3,0.4,0.6,0.7,0.6C51.1,58.7,51.9,58.6,52.7,58.6z"/>
		<path class="st0" d="M24.1,19.9c2.4,0.2,4.6,0.2,6.8,0.6c3.1,0.5,6.1,1.2,9.2,1.8c2.3,0.4,4.7,0.3,7.1,0c0.3,0,0.5-0.1,1-0.1
			c-0.1,0.3-0.2,0.5-0.3,0.7c-1,1.8-2.4,3.1-4.3,3.9c-3.1,1.3-5.3,3.3-6.3,6.6c-0.1,0.2-0.4,0.5-0.7,0.5c-0.2,0-0.6-0.3-0.7-0.5
			c-1-3.3-3.2-5.3-6.2-6.6C26.6,25.5,25,23.2,24.1,19.9z"/>
		<path class="st0" d="M37.7,38c0,0.6-0.5,1.2-1.1,1.2c-0.6,0-1.2-0.5-1.2-1.1c0-0.6,0.5-1.2,1.2-1.2C37.1,36.9,37.7,37.4,37.7,38z"
			/>
		<path class="st0" d="M36.5,44c-0.6,0-1.2-0.6-1.2-1.2c0-0.6,0.5-1.2,1.1-1.2c0.6,0,1.2,0.6,1.2,1.2C37.7,43.5,37.1,44.1,36.5,44z"
			/>
	</g>
</g>
</svg>
