<svg version="1.1" id="Layer_1" xmlns="http://www.w3.org/2000/svg" xmlns:xlink="http://www.w3.org/1999/xlink" x="0px" y="0px"
	 viewBox="0 0 73 73" style="enable-background:new 0 0 73 73;" xml:space="preserve">
<style type="text/css">
	.st0{fill:#58595B;}
</style>
<g id="vW2gG7.tif_1_">
	<g>
		<path class="st0" d="M52.4,4.3c1,0.4,1.4,1.2,1.4,2.3c0,18.8,0,37.7,0,56.5c0,2-1,3.4-2.7,3.9c0,0-0.1,0.1-0.1,0.1
			c-0.4,0-0.7,0-1.1,0c-0.5-0.2-1-0.4-1.5-0.7c-1-0.7-1.4-1.8-1.4-3.1c0-8.9,0-17.7,0-26.6c0-0.3,0-0.7,0-1.1c-0.2,0-0.4,0-0.6,0
			c-1.1,0-2.1,0-3.2,0c-0.8,0-1.1-0.3-1.1-1.1c0-7.1,0-14.3,0-21.4c0-3.8,2-6.4,5.3-8c0.7-0.3,1.5-0.4,2.2-0.7
			C50.6,4.3,51.5,4.3,52.4,4.3z"/>
		<path class="st0" d="M24.8,45.2c0-5.9,0-11.8,0-17.7c0-0.4-0.1-0.6-0.5-0.8c-1.8-1.1-3.5-2.3-4.8-4c-0.2-0.3-0.3-0.7-0.4-1
			c0-4.6,0-9.3,0-13.9c0-0.8,0.2-1.4,0.9-1.8c1.1-0.6,2.5,0.2,2.5,1.5c0,1.1,0,2.3,0,3.4c0,2.6,0,5.1,0,7.7c0,1,0.4,1.5,1.2,1.8
			c1,0.3,2.1-0.3,2.2-1.3c0-0.3,0-0.5,0-0.8c0-3.4,0-6.9,0-10.3c0-0.3,0-0.6,0.1-0.8c0.2-0.8,1-1.4,1.8-1.3c0.9,0.1,1.5,0.8,1.5,1.7
			c0,1.6,0,3.3,0,4.9c0,2.1,0,4.2,0,6.3c0,1.4,1.4,2.3,2.6,1.6c0.5-0.3,0.9-0.7,0.9-1.4c0-0.6,0-1.2,0-1.8c0-3.2,0-6.4,0-9.6
			c0-1.3,1.3-2.2,2.5-1.6c0.6,0.3,1,0.9,1,1.6c0,2.4,0,4.9,0,7.3c0,2.1,0,4.2,0,6.4c0,0.8-0.2,1.5-0.7,2c-1.1,1.3-2.3,2.4-3.7,3.3
			c-0.4,0.2-0.4,0.5-0.4,0.9c0,11.6,0,23.3,0,34.9c0,1.3-0.3,2.3-1.3,3.1c-1.6,1.3-4,0.8-5-0.9c-0.4-0.7-0.5-1.4-0.5-2.2
			C24.8,56.7,24.8,51,24.8,45.2z"/>
	</g>
</g>
</svg>
