<svg version="1.1" id="Layer_1" xmlns="http://www.w3.org/2000/svg" xmlns:xlink="http://www.w3.org/1999/xlink" x="0px" y="0px"
	 viewBox="0 0 73 73" style="enable-background:new 0 0 73 73;" xml:space="preserve">
<style type="text/css">
	.st0{fill:#58595B;}
</style>
<g id="tyxSRe.tif_1_">
	<g>
		<path class="st0" d="M19.1,24.5c1.2-1.2,2.2-2.7,3.6-3.4c3.3-1.5,7.1,1,7.2,4.9c0.1,3.7,0.1,7.4,0,11.1c0,1-0.3,2.4-1,3
			c-1.9,1.5-1.6,3.4-1.6,5.4c0,3.3,0,6.7,0,10c0,2.7-0.9,5.7,2.3,7.5c0.3,0.2,0.3,0.8,0.4,1.2c-2.7,0-5.4,0-8.2,0
			c0-5.6-0.1-11.2,0.1-16.8c0.1-3.3-0.1-6.4-2.8-8.8C19.1,34,19.1,29.3,19.1,24.5z"/>
		<path class="st0" d="M33.8,64.2c0-6.8,0-13.6-0.1-20.4c0-1-0.5-2.2-1.2-3c-2-2.5-2.3-15.7-0.2-18.1c1.5-1.7,3.4-2.4,5.6-1.8
			c2.3,0.7,3.8,2.3,3.9,4.7c0.2,4,0.1,8,0,11.9c0,0.8-0.3,2-0.9,2.5c-2,1.5-1.7,3.6-1.7,5.6c0,3.3,0,6.5,0,9.8
			c0.1,2.7-1,5.8,2.3,7.5c0.3,0.2,0.3,0.8,0.4,1.2C39.2,64.2,36.5,64.2,33.8,64.2z"/>
		<path class="st0" d="M45.7,64.2c0-6.8,0-13.6-0.1-20.3c0-1-0.7-2.1-1.1-3.1c0-0.1-0.1-0.1-0.2-0.2c-1.9-2.3-2-15.5-0.2-17.8
			c2.6-3.3,6.8-2.6,9.7,1.7c0,4.7,0,9.4,0,14.1c-2.7,2.4-3,5.4-2.8,8.8c0.2,3.2,0.2,6.3,0,9.5c-0.2,2.7,0.2,4.9,2.8,6.2
			c-0.3,0.4-0.5,1-0.8,1C50.6,64.3,48.2,64.2,45.7,64.2z"/>
		<path class="st0" d="M19.1,12.6c0.3-0.5,0.7-1,1-1.5c2-2.7,5.7-3,8.1-0.8c2.3,2.2,2.3,5.8,0,7.9c-2.4,2.2-6,1.9-8.1-0.8
			c-0.4-0.5-0.7-1-1.1-1.5C19.1,14.8,19.1,13.7,19.1,12.6z"/>
		<path class="st0" d="M53.9,15.8c-0.4,0.5-0.7,1-1.1,1.5c-2.1,2.7-5.7,3-8.1,0.8c-2.3-2.2-2.3-5.8,0-7.9c2.4-2.2,6-1.9,8.1,0.8
			c0.4,0.5,0.7,1,1.1,1.5C53.9,13.7,53.9,14.8,53.9,15.8z"/>
		<path class="st0" d="M36.5,19.6c-2.9,0-5.3-2.4-5.4-5.3c-0.1-3,2.4-5.5,5.5-5.5c3,0,5.5,2.6,5.4,5.6
			C41.8,17.3,39.4,19.6,36.5,19.6z"/>
	</g>
</g>
</svg>
