<svg version="1.1" id="Layer_1" xmlns="http://www.w3.org/2000/svg" xmlns:xlink="http://www.w3.org/1999/xlink" x="0px" y="0px"
	 viewBox="0 0 73 73" style="enable-background:new 0 0 73 73;" xml:space="preserve">
<style type="text/css">
	.st0{fill:#58595B;}
</style>
<g id="GUJSOa.tif_1_">
	<g>
		<path class="st0" d="M63.1,11.9c0.9,0,1.8,0,2.6,0c0.8,0.1,1.6,0.2,2.4,0.4c1.7,0.4,3.4,0.9,4,2.9c0,0.2,0,0.4,0,0.6
			c-0.2,0.6-0.3,1.3-0.6,1.9c-1.1,1.9-2.6,3.3-4.6,4.3c-2.2,1.1-4.4,2.1-6.6,3.2c-2.1,1-4.3,2-6.4,3.1c-0.4,0.2-0.8,0.5-0.9,0.8
			c-1.3,3.7-2.6,7.4-3.9,11.2c-2,5.8-4.1,11.6-6.1,17.5c-0.4,1.3-1.3,2-2.5,2.5c-1.5,0.6-2.9,1.4-4.3,2.1c-0.1,0-0.2,0-0.3,0
			c-0.1-0.3-0.4-0.6-0.4-0.8c0-0.6,0.1-1.3,0.1-1.9c0.2-1.7,0.4-3.3,0.5-5c0.1-1,0.2-2.1,0.3-3.2c0.2-1.6,0.4-3.2,0.5-4.8
			c0.1-1,0.2-2.1,0.3-3.1c0.2-2,0.5-4,0.7-5.9c0.1-0.5,0.1-1.1,0.1-1.6c-1.9,0.9-3.8,1.8-5.6,2.5c-2.3,0.9-4.6,1.7-6.9,2.3
			c-2.2,0.6-4.5,1-6.8,1.5c-1.1,0.2-2.2,0.4-3.3,0.4c-1.3,0.1-2.6,0-3.7-0.9c-1-0.9-2.1-1.8-3-2.7c-1.8-1.9-3.6-3.8-5.4-5.7
			c-0.8-0.9-1.6-1.9-2.4-2.8c0-0.1,0-0.2,0-0.3c1.8-1,3.5-1.9,5.6-0.6c0.1,0.1,0.3,0.1,0.5,0.1c3.2,1,6.4,2.1,9.7,3.1
			c0.3,0.1,0.6,0.1,0.9,0c3.2-1.5,6.4-3,9.6-4.6c3.5-1.7,7-3.4,10.5-5c3.5-1.7,7-3.3,10.4-5c3.2-1.6,6.5-3.2,9.7-4.7
			c1-0.5,2.2-0.8,3.3-1.1C61.7,12.1,62.4,12.1,63.1,11.9z"/>
		<path class="st0" d="M39.1,19.3c-1,0.5-1.9,1-2.8,1.4c-2.2,1-4.3,2.1-6.5,3.1c-0.3,0.1-0.7,0.2-0.9,0.4c-0.8,0.6-1.4,0.3-2.2-0.2
			c-3.3-2.2-6.7-4.4-10.1-6.5c-0.7-0.5-0.7-0.9,0-1.3c1.7-0.8,3.4-1.7,5.2-2.4c0.5-0.2,1.2-0.1,1.7,0c3.6,1.2,7.1,2.4,10.6,3.7
			c1.4,0.5,2.9,1,4.3,1.5C38.6,19.1,38.8,19.2,39.1,19.3z"/>
	</g>
</g>
</svg>
