<svg version="1.1" id="Layer_1" xmlns="http://www.w3.org/2000/svg" xmlns:xlink="http://www.w3.org/1999/xlink" x="0px" y="0px"
	 viewBox="0 0 73 73" style="enable-background:new 0 0 73 73;" xml:space="preserve">
<style type="text/css">
	.st0{fill:#58595B;}
</style>
<path class="st0" d="M66.4,37.2c0,16.5-13.4,29.9-29.9,29.9S6.6,53.7,6.6,37.2c0-0.2,0-0.4,0-0.6h0V14.3c0-3.2,2.6-5.9,5.9-5.9
	c3,0,5.4,2.2,5.8,5.1c5.1-3.9,11.4-6.3,18.2-6.3s13.2,2.3,18.2,6.3c0.4-2.9,2.8-5.1,5.8-5.1c3.2,0,5.9,2.6,5.9,5.9v22.3h0
	C66.4,36.8,66.4,37,66.4,37.2z M64,14.3c0-1.9-1.6-3.5-3.5-3.5l0,0c-1.9,0-3.5,1.6-3.5,3.5v1.2c3,2.8,5.4,6.2,7,10.1V14.3z
	 M36.5,9.6c-7,0-13.3,2.6-18.2,6.9v20.1H16V14.3c0-1.9-1.6-3.5-3.5-3.5l0,0c-1.9,0-3.5,1.6-3.5,3.5v23.4C9,38,9,38.2,9,38.3
	C9.6,53,21.7,64.7,36.5,64.7C51.7,64.7,64,52.4,64,37.2S51.7,9.6,36.5,9.6z M21.8,27.3c0.5-0.4,1.1-1.1,2-1.6
	c7.3,10.4,21.2,13.5,34,7.4c0.3,0.8,1.4,2.1,1.5,2.5C45.2,41.8,31.2,39.9,21.8,27.3z M50,22c-1.5-0.7-3.1-0.7-4.5-0.2l-0.8-2.2
	c2-0.7,4.2-0.6,6.3,0.3c2,1,3.5,2.7,4.2,4.7L53,25.3C52.5,23.9,51.4,22.7,50,22z M34.7,17.8c-1.6,0-3.1,0.7-4.1,1.7l-1.7-1.7
	c1.5-1.5,3.5-2.4,5.8-2.4s4.3,0.9,5.8,2.4l-1.7,1.7C37.8,18.5,36.4,17.8,34.7,17.8z"/>
</svg>
