<svg version="1.1" id="Layer_1" xmlns="http://www.w3.org/2000/svg" xmlns:xlink="http://www.w3.org/1999/xlink" x="0px" y="0px"
	 viewBox="0 0 73 73" style="enable-background:new 0 0 73 73;" xml:space="preserve">
<style type="text/css">
	.st0{fill:#58595B;}
</style>
<path id="Heart_smaller_copy_1_" class="st0" d="M47.8,57.8c3-2.5,12-15.8,14.6-20.7C62.4,42.9,53.1,56.3,47.8,57.8z M18.3,12.1
	c11-7.2,18.2,4.5,18.2,4.5s7.2-11.7,18.2-4.5c19.1,12.5-18,51.2-18,51.2S-0.8,24.6,18.3,12.1z M53.2,13.6
	c-9.8-6.3-16.7,6.1-16.7,6.1s-6.9-12.4-16.8-6.2C2.7,24.7,36.7,60.1,36.7,60.1S70.3,24.6,53.2,13.6z M10.6,37.1
	c2.6,4.8,11.6,18.2,14.6,20.7C19.9,56.3,10.6,42.9,10.6,37.1z M10.3,46.4c2.6,4.8,3.5,7.9,6.5,10.4C12.8,55.3,11.2,52.3,10.3,46.4
	L10.3,46.4z M56.2,56.7c3-2.5,3.9-5.5,6.5-10.4C61.8,52.3,60.2,55.3,56.2,56.7L56.2,56.7z"/>
</svg>
