<svg version="1.1" id="Layer_1" xmlns="http://www.w3.org/2000/svg" xmlns:xlink="http://www.w3.org/1999/xlink" x="0px" y="0px"
	 viewBox="0 0 73 73" style="enable-background:new 0 0 73 73;" xml:space="preserve">
<style type="text/css">
	.st0{fill:#58595B;}
</style>
<path id="Glasses_icon_merged_4_" class="st0" d="M71.7,37.2h-2.1c-0.6,7.9-7.4,13.9-15.4,13.3C46.8,50,41,43.9,40.9,36.4
	c-1.2-0.8-2.7-1.3-4.1-1.3c-1.5,0.1-2.9,0.5-4.1,1.3c-0.1,7.9-6.7,14.3-14.6,14.1c-7.5-0.1-13.6-5.9-14.1-13.4H1.8
	c-0.9,0-1.5-0.7-1.5-1.5c0-0.9,0.7-1.5,1.5-1.5H4c1.1-7.9,8.4-13.3,16.3-12.2c6.1,0.9,11,5.5,12.1,11.6c1.3-0.9,2.8-1.4,4.3-1.5
	c1.6,0.1,3.1,0.6,4.4,1.5c1.5-7.8,9-13,16.8-11.5c6.1,1.1,10.7,6,11.6,12.1h2.2c0.9,0,1.5,0.7,1.5,1.5
	C73.2,36.5,72.6,37.2,71.7,37.2z M18.2,24.8c-6.2,0-11.3,5.1-11.3,11.3S12,47.4,18.2,47.4s11.3-5.1,11.3-11.3S24.5,24.8,18.2,24.8z
	 M55.3,24.8c-6.2,0-11.3,5.1-11.3,11.3S49,47.4,55.3,47.4s11.3-5.1,11.3-11.3S61.5,24.8,55.3,24.8z"/>
</svg>
