<svg version="1.1" id="Layer_1" xmlns="http://www.w3.org/2000/svg" xmlns:xlink="http://www.w3.org/1999/xlink" x="0px" y="0px"
	 viewBox="0 0 73 73" style="enable-background:new 0 0 73 73;" xml:space="preserve">
<style type="text/css">
	.st0{fill:#58595B;}
</style>
<g id="kRZ9Dd.tif_1_">
	<g>
		<path class="st0" d="M27.9,5.9c0-0.7,0-1.3,0-1.9c0-1.6,1.2-2.7,2.7-2.7c1.5,0,2.6,1.2,2.6,2.7c0,0.6,0,1.2,0,1.9
			c3.4,0.3,6.6,0.9,9.7,2.2c6.7,2.8,11.7,7.2,14.4,14.1c0.4,0.9,0.6,1.9,0.9,2.9c0.4,1.7-0.7,2.7-2.4,2.2c-1.7-0.5-3.4-1.1-5.2-1.4
			c-3-0.5-5.8,0.2-8.3,2.1c-0.7,0.5-1.3,0.6-2.1,0.2c-2.1-1.1-4.3-1.7-6.6-2.1c-0.1,0-0.3,0-0.5,0c0,9.7,0,19.4,0,29.1
			c-1.8,0-3.5,0-5.4,0c0-9.8,0-19.5,0-29.3c-2.7,0.4-5.1,1.1-7.2,2.7c-0.7,0.5-1.4,0.6-2.1,0.1C14.9,26,11,26.3,6.9,27.9
			C6.4,28,6,28.3,5.5,28.5c-0.7,0.4-1.3,0.4-2,0c-0.7-0.5-0.8-1.1-0.7-1.9c0.4-2.5,1.2-4.8,2.4-7c3.5-6.1,8.8-10,15.4-12.1
			c2.1-0.7,4.2-1,6.4-1.4C27.3,6,27.6,6,27.9,5.9z"/>
		<path class="st0" d="M48.6,64.9c0.6,0.8,1,1.4,1.5,2c0.8,1.1,0.7,2.3-0.3,3c-0.9,0.7-2.1,0.5-2.9-0.6c-1-1.3-2-2.7-3.1-4
			c-0.2-0.2-0.6-0.4-0.9-0.4c-5.2,0-10.4,0-15.5,0c-0.3,0-0.8,0.2-1,0.5c-1,1.3-2,2.6-3,3.9c-0.8,1.1-2.1,1.3-3,0.6
			c-1-0.7-1.1-1.9-0.2-3c0.4-0.6,0.9-1.2,1.5-1.9c-0.3,0-0.6-0.1-0.8-0.1c-2.3,0-4.6,0-6.9,0c-2.1,0-3.6-1.4-3.6-3.3
			c0-1.9,1.5-3.4,3.6-3.4c7.7,0,15.3,0,23,0c0.6,0,1-0.2,1.3-0.7c1.3-1.9,2.7-3.8,4.1-5.7c0.3-0.5,0.7-0.6,1.2-0.6c4.3,0,8.7,0,13,0
			c0.6,0,0.9-0.2,1.3-0.6c2.1-2.6,4.2-5.1,6.3-7.7c1.5-1.8,4.1-1.8,5.4,0c0.9,1.3,0.8,2.9-0.3,4.3c-2.8,3.4-5.6,6.9-8.4,10.3
			c-1.8,2.3-3.7,4.5-5.5,6.8c-0.2,0.3-0.7,0.5-1,0.5C52.4,65,50.6,64.9,48.6,64.9z M54,55.3c-3.1,0-6,0-8.8,0c-0.2,0-0.4,0-0.4,0.2
			c-0.6,0.9-1.3,1.7-2,2.7c3,0,5.8,0,8.6,0c0.2,0,0.4-0.1,0.6-0.3C52.6,57.1,53.2,56.3,54,55.3z"/>
	</g>
</g>
</svg>
