<svg version="1.1" id="Layer_1" xmlns="http://www.w3.org/2000/svg" xmlns:xlink="http://www.w3.org/1999/xlink" x="0px" y="0px"
	 viewBox="0 0 73 73" style="enable-background:new 0 0 73 73;" xml:space="preserve">
<style type="text/css">
	.st0{fill:#58595B;}
</style>
<g id="fYgjCt.tif_1_">
	<g>
		<path class="st0" d="M3.9,43.1c0.1-0.8,0.3-1.5,0.4-2.3c0.5-1.9,1.3-3.6,2.5-5.2c2.3-3.1,4.7-6.2,6.9-9.3c1.6-2.2,3.6-3.6,6.2-4.3
			c0.2-0.1,0.5-0.3,0.6-0.5c1.3-1.9,2.5-3.9,3.8-5.8c1.3-2,3.9-2.6,6-1.4c1.3,0.8,2,1.9,2,3.5c0,1.5,0,3,0,4.5c0,0.2,0,0.4,0,0.7
			c2.8-1.4,5.4-1.4,8.2,0c0-1.7,0-3.2,0-4.7c0-2.2,1-3.7,3-4.3c2-0.6,3.9,0.1,5.1,1.9c1.3,1.9,2.5,3.9,3.7,5.8
			c0.2,0.3,0.5,0.5,0.8,0.6c2.3,0.6,4.3,1.9,5.7,3.8c2.5,3.3,4.9,6.6,7.4,9.9c1.5,2,2.4,4.3,2.7,6.8c0,0.2,0.1,0.3,0.1,0.5
			c0,0.8,0,1.5,0,2.3c-0.1,0.4-0.2,0.9-0.2,1.3c-1,5.7-5.4,10.3-11.2,11.5C52,59.4,46,56.9,42.9,52.1c-0.6-1-1.1-2.1-1.7-3.2
			c-3.2,2.1-6.7,1.8-9.6-0.1c-0.1,0.3-0.2,0.6-0.3,0.8c-2.4,5.7-8.2,9.3-14.1,8.8c-6.5-0.5-11.6-4.9-13-11.1
			c-0.1-0.6-0.2-1.3-0.4-1.9C3.9,44.7,3.9,43.9,3.9,43.1z M18.1,34.1c-5.7,0-10.2,4.6-10.2,10.2c0,5.6,4.6,10.2,10.2,10.2
			c5.7,0,10.2-4.6,10.2-10.3C28.3,38.6,23.7,34.1,18.1,34.1z M44.6,44.2c0,5.6,4.5,10.2,10.1,10.2c5.7,0,10.3-4.6,10.3-10.2
			c0-5.6-4.6-10.2-10.2-10.2C49.2,34.1,44.6,38.6,44.6,44.2z M32.4,42.2c0,2.3,1.8,4.1,4,4.1c2.3,0,4.1-1.8,4.1-4.1
			c0-2.3-1.8-4.1-4.1-4.1C34.2,38.1,32.4,40,32.4,42.2z"/>
	</g>
</g>
</svg>
