<svg version="1.1" id="Layer_1" xmlns="http://www.w3.org/2000/svg" xmlns:xlink="http://www.w3.org/1999/xlink" x="0px" y="0px"
	 viewBox="0 0 73 73" style="enable-background:new 0 0 73 73;" xml:space="preserve">
<style type="text/css">
	.st0{fill:#58595B;}
</style>
<g id="SiuXNF.tif_1_">
	<g>
		<path class="st0" d="M3.8,35.2c0.7-2.2,1.4-4.5,2.1-6.7c0.8-2.5,1.5-5,2.3-7.5c0.8-2.7,3.2-4.6,6-4.6c2.3,0,4.6,0,6.9,0
			c2.9,0,5.3,2.2,6.1,4.7c1.4,4.5,2.8,9,4.1,13.6c0.2,0.5,0.2,1.1,0.1,1.6c-0.1,0.8-0.8,1.4-1.5,1.6c-0.8,0.2-1.6-0.1-2-0.8
			c-0.2-0.3-0.4-0.7-0.5-1c-1.2-3.9-2.4-7.9-3.5-11.8c-0.3-1-0.3-1-1.4-0.8c2.2,7.5,4.4,15,6.6,22.7c-2.1,0-4.1,0-6.2,0
			c0,0.3,0,0.5,0,0.7c0,5.3,0,10.6,0,15.8c0,1.4-0.4,2.4-1.8,2.9c-0.3,0-0.7,0-1,0c-1.5-0.6-1.9-1.1-1.9-2.8c0-5.3,0-10.6,0-15.9
			c0-0.2,0-0.4,0-0.6c-0.5,0-0.9,0-1.4,0c0,0.3,0,0.5,0,0.7c0,5.3,0,10.6,0,15.8c0,1.4-0.4,2.4-1.8,2.8c-0.3,0-0.7,0-1,0
			c-1.5-0.6-1.8-1.1-1.8-2.8c0-5.3,0-10.6,0-16c0-0.2,0-0.4,0-0.7c-2.1,0-4.1,0-6.1,0c2.2-7.6,4.4-15.1,6.5-22.6
			c-1-0.1-1-0.1-1.2,0.7c-0.7,2.5-1.5,5-2.2,7.5c-0.5,1.5-0.9,3.1-1.4,4.6c-0.4,1.2-1.3,1.9-2.4,1.7c-0.9-0.2-1.4-0.8-1.7-1.6
			C3.8,35.9,3.8,35.6,3.8,35.2z"/>
		<path class="st0" d="M69.2,38.4c-0.3,0.9-0.8,1.6-1.8,1.7c-1.1,0.1-2.1-0.6-2.3-1.7c-0.1-0.3-0.1-0.6-0.1-1c0-4.2,0-8.5,0-12.7
			c0-0.2,0-0.4,0-0.7c-0.3,0-0.6,0-1,0c0,0.2,0,0.4,0,0.7c0,12.4,0,24.8,0,37.2c0,0.4,0,0.8-0.1,1.2c-0.3,1.3-1.4,2.2-2.7,2.2
			c-1.4,0-2.5-0.9-2.8-2.2c-0.1-0.4-0.1-0.8-0.1-1.1c0-7.1,0-14.2,0-21.3c0-0.2,0-0.4,0-0.7c-0.3,0-0.6,0-1,0c0,0.2,0,0.4,0,0.7
			c0,7.2,0,14.3,0,21.5c0,1.3-0.4,2.4-1.7,2.9c-1.8,0.8-3.7-0.3-3.9-2.2c0-0.3,0-0.7,0-1c0-12.4,0-24.7,0-37.1c0-0.2,0-0.5,0-0.7
			c-0.3,0-0.6,0-1,0c0,0.2,0,0.4,0,0.7c0,4.2,0,8.5,0,12.7c0,0.3,0,0.7-0.1,1c-0.2,1.1-1.1,1.7-2.2,1.6c-1.1-0.1-1.9-0.8-2-1.9
			c0-0.2,0-0.4,0-0.5c0-4.9,0-9.8,0-14.8c0-2.9,1.6-5.3,4.2-6.2c0.6-0.2,1.3-0.3,2-0.3c3.5,0,7-0.1,10.6,0c3,0.1,5.4,2.3,5.9,5.3
			c0,0.1,0.1,0.3,0.1,0.4C69.2,27.5,69.2,33,69.2,38.4z"/>
		<path class="st0" d="M18.2,5.2c1,0.2,1.9,0.5,2.7,1.2c1.4,1.2,2,3.2,1.5,5c-0.6,1.9-2.2,3.2-4,3.5c-2.8,0.4-5.4-1.7-5.5-4.7
			c-0.1-2.3,1.7-4.5,4-4.9c0.1,0,0.2-0.1,0.4-0.1C17.5,5.2,17.8,5.2,18.2,5.2z"/>
		<path class="st0" d="M58.3,5.2c1,0.2,2,0.5,2.8,1.3c1.5,1.4,2,3.2,1.3,5.1c-0.6,1.9-2,3-4,3.3c-2.7,0.4-5-1.5-5.4-3.9
			c-0.5-2.8,1.3-5.2,4.1-5.7c0,0,0.1,0,0.1-0.1C57.6,5.2,57.9,5.2,58.3,5.2z"/>
		<path class="st0" d="M40.8,65.1c-1.8,0-3.6,0-5.5,0c0-19.8,0-39.5,0-59.3c1.8,0,3.6,0,5.5,0C40.8,25.5,40.8,45.3,40.8,65.1z"/>
	</g>
</g>
</svg>
