<svg version="1.1" id="Layer_1" xmlns="http://www.w3.org/2000/svg" xmlns:xlink="http://www.w3.org/1999/xlink" x="0px" y="0px"
	 viewBox="0 0 73 73" style="enable-background:new 0 0 73 73;" xml:space="preserve">
<style type="text/css">
	.st0{fill:#58595B;}
</style>
<g id="chOaQx.tif">
	<g>
		<path class="st0" d="M11.5,55.1c0.3-1,0.5-2,0.8-3c1.7-4.8,6.4-8.2,11.5-8.3c1.3,0,2,0.5,2,1.4c0.1,1-0.6,1.6-1.9,1.7
			c-4.8,0.2-8.7,4-9.3,8.8c-0.2,1.7,0.3,2.2,2,2.2c11.7,0,23.4,0,35.1,0c1.8,0,2.2-0.5,2-2.3c-0.6-4.8-4.5-8.4-9.3-8.7
			c-1.2-0.1-1.9-0.7-1.9-1.7c0-1,0.8-1.5,2-1.5c6.7,0.2,12.4,6,12.3,12.7c0,2.4-1.4,3.7-3.5,4.5c-12.8,0-25.5,0-38.3,0
			c-1.8-0.6-2.9-1.7-3.5-3.5C11.5,56.7,11.5,55.9,11.5,55.1z"/>
		<path class="st0" d="M40.2,10.9c2,0.5,4,1.3,5.5,2.7c4.2,4,5.4,8.9,4.6,14.4c0,0.3-0.1,0.5-0.1,0.8c-0.2,1-0.9,1.5-1.8,1.4
			c-0.9-0.1-1.4-0.9-1.3-2c0.1-1.7,0.3-3.5,0.2-5.1c-0.4-3.3-1.8-6.2-4.7-8c-2.1-1.4-4.4-1.5-6.7-0.4c-0.2,0.1-0.5,0.2-0.7,0.3
			c-0.8,0.3-1.6,0-2-0.8c-0.4-0.8-0.2-1.5,0.6-1.9c1-0.5,2-0.8,3.1-1.3c0.2-0.1,0.5-0.2,0.7-0.2C38.4,10.9,39.3,10.9,40.2,10.9z"/>
		<path class="st0" d="M61.5,51.4c-0.1,0.3-0.2,0.6-0.4,0.9c-0.4,0.7-1,1.1-1.8,0.8c-0.8-0.2-1.2-0.8-1.1-1.7
			c0.5-3.6-0.8-6.4-3.5-8.7c-1.5-1.3-3.3-1.9-5.3-2c-0.4,0-1-0.1-1.3-0.4c-0.3-0.4-0.7-1.1-0.6-1.6c0.1-0.8,0.8-1.2,1.7-1.2
			c3.5,0.1,6.5,1.4,8.9,4c1.8,1.9,2.9,4.2,3.2,6.9c0,0.2,0.1,0.3,0.2,0.4C61.5,49.7,61.5,50.5,61.5,51.4z"/>
		<path class="st0" d="M45.9,31.7c-0.1,3.8-1.4,7.7-4.7,10.8c-4.4,4-10.5,3.8-14.6-0.5C21.3,36.5,21,26.6,26,20.8
			c5-5.9,13.1-5.2,17.3,1.4C45,24.8,45.9,27.8,45.9,31.7z M42.8,31.1c-0.1-3.4-1-6.5-3.5-8.9c-2.8-2.9-7.3-2.9-10.1,0
			c-4.7,4.8-4.7,13-0.1,17.9c2.9,3,7.4,3,10.3,0C41.7,37.5,42.6,34.4,42.8,31.1z"/>
	</g>
</g>
</svg>
