<svg version="1.1" id="Layer_1" xmlns="http://www.w3.org/2000/svg" xmlns:xlink="http://www.w3.org/1999/xlink" x="0px" y="0px"
	 viewBox="0 0 73 73" style="enable-background:new 0 0 73 73;" xml:space="preserve">
<style type="text/css">
	.st0{fill:#58595B;}
</style>
<path id="newsboy_1_" class="st0" d="M67.4,49.5L67,49.7c-2.7,1.9-4.7,3.1-7.3,3.1c-1.3-0.1-2.6-0.4-3.9-0.9c-0.3,1.6-1.1,3-2.3,4.1
	c-2.4,2-6,2-10.9-0.1c-12.2-5.3-20.1-2.8-26.4-0.7c-0.9,0.3-1.7,0.6-2.5,0.8c-2.4,0.8-4.8,1.2-7.3,1.3c-1.1,0-2.2-0.3-3-1
	C2.5,55.3,2,54.1,2,52.8C2,51.5,2.5,49.1,6,46.4C5.6,46.2,5.3,46,5,45.8c-1.2-1.3-1.8-3.1-1.5-4.8C3.9,35.3,8.1,27,16.3,22.2
	c4-2.6,8.9-3.4,13.5-2.3c0.2-2.2,2.6-3.8,5.6-3.7c3.1,0.1,5.5,1.9,5.4,4.2c0,0,0,0.1,0,0.1c7.4-1.3,15,0.6,20.9,5.1
	c8.5,6.2,9.6,12.5,9.6,15.7C71.4,44.5,69.9,47.5,67.4,49.5z M4.5,52.5c-0.1,0.5,0.1,1,0.4,1.4c0.5,0.5,2.4,1,8.4-0.8
	c0.8-0.2,1.6-0.5,2.5-0.8c6.3-2.1,15-4.9,27.9,0.8c4,1.7,6.9,1.9,8.6,0.5c0.8-0.8,1.3-1.8,1.4-2.9c-0.7-0.4-1.5-0.8-2.3-1.3
	c-7.8-4.7-17.6-10.5-29.5-5.7c-3.7,1.6-7.6,2.7-11.6,3.3C4.4,50.1,4.5,52.5,4.5,52.5z M35.4,19.1c-1.2-0.2-2.3,0.2-3.1,1.1
	c0.8,0.9,1.9,1.3,3.1,1.2c1.2,0.2,2.3-0.2,3.1-1.1C37.7,19.5,36.5,19,35.4,19.1z M60.5,28.1c-8.6-6.3-18.3-6.9-28.8-1.5
	c-7.3,3.7-10.1,3.7-10.4,3.7c-0.8-0.2-1.3-0.9-1.1-1.7c0.1-0.6,0.6-1,1.2-1.1c0.1,0,2.7-0.1,9.4-3.5c0.3-0.1,0.5-0.3,0.8-0.4
	c-3-1.7-8.5-2.1-14.1,1.2C10.3,28.9,6.3,36.2,6,41.2c-0.2,0.8,0,1.7,0.6,2.3c1.1,1,4.5,1.4,14.4-2.5c3.4-1.4,7-2,10.7-1.9
	c8.1,0.3,14.9,4.3,20.7,7.8c1,0.6,1.8,1.1,2.6,1.5c0.3,0,0.5,0.1,0.7,0.4c4.8,2.2,6.5,1,10-1.5l0.4-0.2c1.8-1.3,2.8-3.4,2.8-5.7
	C69,37,65.9,32.1,60.5,28.1L60.5,28.1z"/>
</svg>
