<svg version="1.1" id="Layer_1" xmlns="http://www.w3.org/2000/svg" xmlns:xlink="http://www.w3.org/1999/xlink" x="0px" y="0px"
	 viewBox="0 0 73 73" style="enable-background:new 0 0 73 73;" xml:space="preserve">
<style type="text/css">
	.st0{fill:#58595B;}
</style>
<g id="s3wxov.tif_1_">
	<g>
		<path class="st0" d="M6.2,37c0-6.8,0-13.6,0-20.4c0-0.3,0-0.5,0-0.8c0.1-1.2,0.8-2,2-2c1.1,0,2.3,0,3.4,0c0.5,0,0.5,0.3,0.5,0.7
			c0,3.9,0,7.7,0,11.6c0,8,0,15.9,0,23.9c0,1.3,0.7,2.5,2.5,2.5c1.9,0,3.8,0,5.8,0c3.2,0,6.3,0.3,9.3,1.3c2,0.7,3.8,1.7,5.3,3.2
			c0.9,0.9,2.2,1,3.1,0.1c2.3-2.3,5.2-3.4,8.3-4c3.5-0.7,7.1-0.5,10.7-0.6c0.5,0,1,0,1.5,0c1.7,0,2.5-0.9,2.5-2.6c0-3,0-6,0-9
			c0-8.7,0-17.5,0-26.2c0-0.6,0.1-0.9,0.8-0.8c0.9,0.1,1.8,0,2.7,0c1.5,0,2.3,0.8,2.3,2.2c0,4.6,0,9.2,0,13.9c0,9.1,0,18.1,0,27.2
			c0,0.3,0,0.6,0,0.9c0.1,1.6-1.2,2.3-2.3,2.3c-6.6,0-13.3,0-19.9,0c-0.6,0-0.9,0.2-1.3,0.6c-1.4,2-3.3,3.1-5.7,3.3
			c-3.4,0.4-6.1-0.8-8.1-3.6c-0.1-0.2-0.5-0.3-0.8-0.3c-6.7,0-13.4,0-20.1,0c-1.6,0-2.4-0.7-2.4-2.4C6.2,50.9,6.2,43.9,6.2,37
			C6.2,37,6.2,37,6.2,37z"/>
		<path class="st0" d="M34.4,51.1c-1-0.4-2-0.9-2.9-1.2c-2.5-0.9-5.1-1.5-7.8-1.6c-2.2-0.1-4.4-0.1-6.6-0.1c-0.9,0-0.9,0-0.9-0.9
			c0-9.5,0-18.9,0-28.4c0-2.8,0-5.6,0-8.4c0-0.6,0.1-0.8,0.7-0.8c2.3,0.1,4.6,0,6.8,0.2c2.4,0.1,4.8,0.6,6.9,2
			c1.5,1,2.6,2.4,3.5,3.9c0.1,0.2,0.1,0.5,0.1,0.7c0,11.3,0,22.6,0,33.9C34.4,50.6,34.4,50.8,34.4,51.1z"/>
		<path class="st0" d="M38.6,51.1c0-0.3,0-0.5,0-0.7c0-11.3,0-22.6,0-33.9c0-0.4,0.1-0.8,0.3-1.1c1.9-3.2,4.6-5.1,8.3-5.4
			c3-0.3,6-0.3,9-0.4c0.4,0,0.5,0.2,0.5,0.5c0,2.4,0,4.7,0,7.1c0,2.3,0,4.5,0,6.8c0,1.9,0,3.8,0,5.8c0,2.3,0,4.6,0,6.9
			c0,1.9,0,3.8,0,5.6c0,1.6,0,3.1,0,4.7c0,1,0,1.1-1,1.1c-2.3,0-4.6,0-6.9,0.2c-3.4,0.3-6.7,1.1-9.7,2.7C38.9,51,38.8,51,38.6,51.1z
			"/>
	</g>
</g>
</svg>
