<svg version="1.1" id="Layer_1" xmlns="http://www.w3.org/2000/svg" xmlns:xlink="http://www.w3.org/1999/xlink" x="0px" y="0px"
	 viewBox="0 0 73 73" style="enable-background:new 0 0 73 73;" xml:space="preserve">
<style type="text/css">
	.st0{fill:#58595B;}
</style>
<g id="DGr5Sg.tif_1_">
	<g>
		<path class="st0" d="M34.8,14c1.2,0,2.5,0,3.7,0c3.5,0.5,7,0.7,10.5,1.4c4.1,0.8,7.9,2.1,11,5c2.6,2.4,3.6,5.4,2.8,8.8
			c-0.1,0.4-0.3,0.9-0.6,1c-4,1.9-6.4,5.3-8.8,8.8c-0.6,0.8-1.1,1.2-2.2,1.2c-10,0-20,0-30,0c-1.2,0-1.8-0.4-2.4-1.3
			c-2.2-3.2-4.4-6.4-7.9-8.4c-0.4-0.2-0.6-0.8-0.7-1.2c-1-3.8,0.3-7,3.3-9.4c3.1-2.5,6.7-3.9,10.5-4.6C27.6,14.7,31.2,14.4,34.8,14z
			"/>
		<path class="st0" d="M19.7,58.5c-0.1,0-0.2,0-0.3,0c-0.7-1.2-1.3-2.4-2-3.6c-0.3-0.5-0.6-1.1-1-1.5c-1.5-1.5-3.3-2.8-4.7-4.3
			C8.7,45.7,7,41.8,5.8,37.6c0-1.1,0-2.2,0-3.4c1.4-2.4,2.7-2.7,5-1.3c1,0.6,1.9,1.2,2.6,2.1c1.7,1.9,3.3,3.9,4.9,6
			c0.6,0.8,1.1,1.2,2.2,1.2c10.4,0,20.9,0,31.3,0c1,0,1.6-0.3,2.1-1.2c2-3.1,4.2-6,7.4-7.9c2.4-1.5,3.8-1.2,5.2,1.2
			c0,1.1,0,2.2,0,3.4c-0.1,0.1-0.2,0.3-0.3,0.4c-1.5,6.2-4.7,11.3-9.9,15.2c-0.4,0.3-0.6,1-0.8,1.5c-0.4,1.5-0.8,2.9-2.2,3.8
			c-0.1,0-0.2,0-0.3,0c-0.8-1.3-1.7-2.5-2.6-3.9c-9.2,0-18.8,0-27.8,0C21.5,56.1,20.6,57.3,19.7,58.5z"/>
	</g>
</g>
</svg>
