<svg version="1.1" id="Layer_1" xmlns="http://www.w3.org/2000/svg" xmlns:xlink="http://www.w3.org/1999/xlink" x="0px" y="0px"
	 viewBox="0 0 73 73" style="enable-background:new 0 0 73 73;" xml:space="preserve">
<style type="text/css">
	.st0{fill:#58595B;}
</style>
<g id="a0h8bv.tif">
	<g>
		<path class="st0" d="M15.3,54.5c-0.3,0-0.6-0.1-0.9-0.1c-2.8,0-5.7,0-8.5,0c-1.1,0-1.7-0.6-1.7-1.6c0-0.9,0.7-1.6,1.7-1.6
			c2.4,0,4.8,0,7.1,0c0.3,0,0.5,0,0.9,0c0.7-6.9,3.7-12.4,9.1-16.5c4-3.1,8.7-4.5,13.7-4.5c11.6,0.1,21.3,8.9,22.4,21
			c0.3,0,0.5,0,0.8,0c2.4,0,4.7,0,7.1,0c1.2,0,1.9,0.6,1.9,1.6c0,1-0.7,1.6-1.9,1.6c-2.8,0-5.6,0-8.4,0c-0.3,0-0.5,0.1-0.8,0.1
			C43.6,54.5,29.4,54.5,15.3,54.5z M55.8,51.2c-0.4-8.8-8.6-18.3-20.3-17.7C24.1,34,17.4,43.8,17.3,51.2
			C30.1,51.2,42.9,51.2,55.8,51.2z"/>
		<path class="st0" d="M0.9,42.7c0.8-1.2,1.2-1.4,2.6-1c1.9,0.5,3.9,1,5.8,1.5c0.9,0.2,1.3,0.8,1.3,1.6c0,1-0.9,1.8-1.9,1.6
			c-2.2-0.5-4.4-1-6.6-1.7c-0.5-0.1-0.8-0.8-1.3-1.2C0.9,43.2,0.9,43,0.9,42.7z"/>
		<path class="st0" d="M72.1,43.5c-0.4,0.8-1,1.2-1.9,1.4c-1.9,0.4-3.8,0.9-5.7,1.4c-1,0.3-1.9-0.2-2.1-1.1c-0.3-1,0.2-1.8,1.3-2
			c1.9-0.5,3.9-1,5.8-1.5c1.4-0.4,2-0.1,2.6,1.2C72.1,43.1,72.1,43.3,72.1,43.5z"/>
		<path class="st0" d="M38.1,20.5c0,1.5,0,3,0,4.5c0,1.2-0.7,1.9-1.7,1.9c-1,0-1.6-0.8-1.6-1.9c0-3,0-6.1,0-9.1
			c0-1.2,0.6-1.9,1.6-1.9c1,0,1.7,0.7,1.7,1.9C38.1,17.4,38.1,18.9,38.1,20.5z"/>
		<path class="st0" d="M12.4,23.7c0.2,0.1,0.7,0.2,1,0.5c2.1,2.1,4.3,4.2,6.4,6.4c0.7,0.7,0.7,1.6,0.1,2.3c-0.6,0.7-1.6,0.7-2.3,0
			c-2.2-2.1-4.3-4.3-6.5-6.5c-0.5-0.5-0.6-1.1-0.3-1.8C11,24.1,11.5,23.7,12.4,23.7z"/>
		<path class="st0" d="M52.6,31.7c0.2-0.4,0.4-0.8,0.7-1.1c2.1-2.1,4.2-4.2,6.3-6.3c0.8-0.8,1.8-0.8,2.4-0.1
			c0.6,0.7,0.6,1.6-0.1,2.4c-2.1,2.1-4.2,4.2-6.3,6.3c-0.5,0.5-1.2,0.7-1.9,0.4C53,33,52.7,32.5,52.6,31.7z"/>
	</g>
</g>
</svg>
