<svg version="1.1" id="Layer_1" xmlns="http://www.w3.org/2000/svg" xmlns:xlink="http://www.w3.org/1999/xlink" x="0px" y="0px"
	 viewBox="0 0 73 73" style="enable-background:new 0 0 73 73;" xml:space="preserve">
<style type="text/css">
	.st0{fill:#58595B;}
</style>
<g id="DRsuWw.tif">
	<g>
		<path class="st0" d="M47.7,5.7c4.6,0,9.2,0,13.7,0c1.7,0,2.5,0.7,2.5,2.4c0,5.2,0,10.4,0,15.6c0,1.6-0.8,2.3-2.4,2.4
			c-2.1,0-1.8-0.3-1.8,1.8c0,1.3,0,2.6,0,4c0,0.2-0.2,0.4-0.2,0.6c-0.2-0.1-0.5-0.1-0.6-0.3c-1.8-1.8-3.7-3.6-5.5-5.5
			c-0.5-0.5-1-0.7-1.7-0.7c-5.8,0-11.7,0-17.5,0c-0.2,0-0.4,0-0.6,0c-1.2-0.1-2-0.9-2-2c0-5.4,0-10.9,0-16.3c0-1.2,0.8-2,2.1-2
			C38.4,5.7,43,5.7,47.7,5.7z M39.1,18.5c1.8,0,3.3-1.4,3.3-3.2c0-1.8-1.4-3.2-3.2-3.2c-1.8,0-3.3,1.4-3.3,3.2
			C35.9,17.1,37.3,18.5,39.1,18.5z M47.7,18.5c1.8,0,3.2-1.4,3.2-3.2c0-1.8-1.4-3.3-3.3-3.2c-1.7,0-3.2,1.5-3.2,3.2
			C44.5,17.1,45.9,18.5,47.7,18.5z M59.6,15.3c0-1.8-1.4-3.3-3.2-3.3c-1.8,0-3.3,1.4-3.3,3.2c0,1.8,1.4,3.2,3.2,3.2
			C58.2,18.5,59.6,17.1,59.6,15.3z"/>
		<path class="st0" d="M20,69.4c-4.6,0-9.1,0-13.7,0c-1.1,0-1.5-0.4-1.4-1.6C5.3,62.3,9.6,56.8,15,55.1c0.4-0.1,0.8-0.1,1.1,0.3
			c1,1,2,2,3,3c0.8,0.8,1,0.8,1.8,0c1-1,2-1.9,2.9-2.9c0.4-0.4,0.7-0.5,1.2-0.3c5.7,2.2,9.1,6.4,10,12.5c0,0.2,0,0.4,0,0.6
			c0,0.9-0.4,1.3-1.2,1.3c-2.7,0-5.4,0-8.1,0C23.9,69.4,21.9,69.4,20,69.4z"/>
		<path class="st0" d="M53.3,69.4c-4.5,0-9,0-13.6,0c-1.3,0-1.7-0.4-1.5-1.7c0.9-6.1,4.2-10.3,9.9-12.6c0.6-0.2,1-0.1,1.4,0.3
			c1,1.1,2,2.1,3.1,3.1c0.6,0.6,0.8,0.6,1.4,0c1.1-1.1,2.1-2.2,3.2-3.2c0.2-0.2,0.6-0.3,0.8-0.3c5.9,2,9.7,7.3,10.2,12.9
			c0.1,1.1-0.3,1.4-1.4,1.4C62.4,69.4,57.8,69.4,53.3,69.4z"/>
		<path class="st0" d="M54.1,32.8c-0.3,0-0.7,0.1-1,0.1c-5.9,0-11.7,0-17.6,0c-0.7,0-1.3,0.2-1.8,0.8c-1.8,1.8-3.6,3.6-5.4,5.3
			c-0.2,0.2-0.5,0.2-0.7,0.3c-0.1-0.2-0.2-0.5-0.2-0.7c0-1.6,0-3.3,0-4.9c0-0.6-0.2-0.8-0.8-0.8c-0.4,0-0.8,0-1.1,0
			c-1.3,0-2.2-0.8-2.2-2.2c0-3,0-6.1,0-9.1c0-2.3,0-4.5,0-6.8c0-1.5,0.8-2.3,2.3-2.3c0.4,0,0.9,0,1.3,0c0.9,0,1.1,0.2,1.1,1.2
			c0,3,0,5.9,0,8.9c0,1,0,2,0.3,2.9c0.6,2.3,2.6,4,5,4.1c4,0.1,8.1,0,12.1,0c1.7,0,3.4,0,5.2,0c0.4,0,0.9,0.2,1.2,0.5
			c0.9,0.8,1.7,1.6,2.5,2.5C54.2,32.6,54.1,32.7,54.1,32.8z"/>
		<path class="st0" d="M20.1,52.9c-3.9,0-7-3.2-7.1-7.2c0-4,3.1-7.3,7-7.3c3.9,0,7.1,3.2,7.2,7.2C27.2,49.7,24,52.9,20.1,52.9z"/>
		<path class="st0" d="M60.5,45.7c0,4-3.2,7.2-7.1,7.2c-3.9,0-7.1-3.2-7.1-7.3c0-4,3.2-7.3,7.1-7.3C57.4,38.4,60.5,41.7,60.5,45.7z"
			/>
	</g>
</g>
</svg>
