<svg version="1.1" id="Layer_1" xmlns="http://www.w3.org/2000/svg" xmlns:xlink="http://www.w3.org/1999/xlink" x="0px" y="0px"
	 viewBox="0 0 73 73" style="enable-background:new 0 0 73 73;" xml:space="preserve">
<style type="text/css">
	.st0{fill:#58595B;}
</style>
<g id="lSp0cV.tif">
	<g>
		<path class="st0" d="M10.8,17.2c0.1-0.4,0.2-0.7,0.3-1.1c1.4-5.2,7.7-7.2,11.9-3.8c7.3,6,14.7,12,22,18.1c3.7,3,3.7,9.1,0,12.1
			c-2.2,1.9-4.5,3.7-6.7,5.5c-1.1,0.9-1.7,2-1.6,3.4c0,1.1,0,2.3,0,3.4c0,1.6,0.8,2.7,2.2,3.4c1.4,0.6,2.7,0.5,3.9-0.5
			c7.2-5.8,14.4-11.7,21.5-17.5c2.4-2,2.5-5.4,0.1-7.4c-2.1-1.8-4.3-3.5-6.5-5.3c-5-4.1-10.1-8.2-15.1-12.3c-1-0.8-2.1-1.1-3.3-0.8
			c-1.3,0.3-2.1,1.1-2.7,2.3c-0.5,1.1-1.3,1.5-2.3,1.2c-1.1-0.3-1.6-1.4-1.2-2.4c1.9-4.8,7.7-6.4,11.7-3.1
			c7.2,6,14.5,11.9,21.7,17.9c1.6,1.3,2.5,2.9,2.8,4.9c0,0.1,0.1,0.3,0.1,0.4c0,0.6,0,1.2,0,1.8c-0.2,0.6-0.3,1.2-0.5,1.8
			c-0.5,1.4-1.3,2.5-2.4,3.5c-7.3,6-14.6,12-22,18c-2.3,1.9-4.9,2.2-7.6,1c-2.7-1.2-4.2-3.4-4.4-6.3c-0.1-1.7-0.1-3.5,0.1-5.2
			c0.2-1.9,1.1-3.4,2.6-4.6c2.2-1.8,4.4-3.6,6.6-5.4c2.3-1.9,2.4-5.2,0.2-7.2c-1.8-1.5-3.6-3-5.4-4.5c-5.4-4.4-10.8-8.8-16.3-13.2
			c-1.2-1-2.6-1.2-4-0.5c-1.5,0.7-2.2,1.9-2.2,3.5c0,12.2,0,24.4,0,36.5c0,1.6,0.7,2.7,2.1,3.4c1.4,0.7,2.8,0.5,4-0.4
			c1-0.7,2.1-0.6,2.7,0.2c0.7,0.9,0.5,1.9-0.5,2.7c-4.4,3.4-10.9,1-11.9-4.5c0-0.2-0.1-0.3-0.1-0.5C10.8,42.9,10.8,30.1,10.8,17.2z"
			/>
		<path class="st0" d="M27.4,53.1c1,0,1.8,0.9,1.8,1.9c0,1-0.9,1.8-1.9,1.8c-1,0-1.8-0.9-1.8-1.9C25.6,53.9,26.4,53.1,27.4,53.1z"/>
	</g>
</g>
</svg>
