<svg xmlns="http://www.w3.org/2000/svg" xmlns:xlink="http://www.w3.org/1999/xlink" preserveAspectRatio="xMidYMid" width="45" height="45" viewBox="0 0 45 45">
  <defs>
    <style>

      .cls-2 {
        fill: #00ffff;
      }
    </style>
  </defs>
  <path d="M40.500,45.000 C40.500,45.000 4.500,45.000 4.500,45.000 C2.015,45.000 0.000,42.985 0.000,40.500 C0.000,40.500 0.000,33.000 0.000,33.000 C0.000,33.000 8.938,24.000 8.938,24.000 C8.938,24.000 17.942,33.000 17.942,33.000 C17.942,33.000 26.991,24.000 26.991,24.000 C26.991,24.000 35.929,33.000 35.929,33.000 C35.929,33.000 45.000,24.000 45.000,24.000 C45.000,24.000 45.000,40.500 45.000,40.500 C45.000,42.985 42.985,45.000 40.500,45.000 ZM26.926,12.000 C26.926,12.000 17.911,21.000 17.911,21.000 C17.911,21.000 8.934,12.000 8.934,12.000 C8.934,12.000 0.000,21.000 0.000,21.000 C0.000,21.000 0.000,4.500 0.000,4.500 C0.000,2.015 2.015,0.000 4.500,0.000 C4.500,0.000 40.500,0.000 40.500,0.000 C42.985,0.000 45.000,2.015 45.000,4.500 C45.000,4.500 45.000,12.000 45.000,12.000 C45.000,12.000 35.827,21.000 35.827,21.000 C35.827,21.000 26.926,12.000 26.926,12.000 Z" id="path-1" class="cls-2" fill-rule="evenodd"/>
</svg>
