<?xml version="1.0" encoding="utf-8"?>
<!-- Generator: Adobe Illustrator 21.0.0, SVG Export Plug-In . SVG Version: 6.00 Build 0)  -->
<svg version="1.1" id="Layer_1" xmlns="http://www.w3.org/2000/svg" xmlns:xlink="http://www.w3.org/1999/xlink" x="0px" y="0px"
	 viewBox="0 0 73 73" xml:space="preserve">
<g id="UbKGPS.tif">
	<g>
		<path fill="#58595B" d="M28.2,54.2c-0.4,0-0.6,0-0.8,0c-3.2,0-6.4,0-9.6,0c-1.7,0-2.5-0.8-2.5-2.5c0-6.5,0-13.1,0-19.6
			c0-0.2,0-0.4,0-0.7c2.9,1.4,5.9,1.7,8.9,0.6s5.1-3.2,6.5-6.1c2.5,3.7,5.9,5.9,10.3,6.5c4.4,0.6,8.2-0.7,11.6-3.6
			c0,2.3,0,4.5,0,6.9c0.3-0.3,0.5-0.4,0.7-0.6c2.3-2.1,4.6-4.1,6.9-6.2c0.2-0.2,0.5-0.3,0.8-0.4c0.1,0.3,0.2,0.6,0.2,0.8
			c0,6.8,0,13.6,0,20.4c0,0.3-0.2,0.5-0.2,0.8c-0.3-0.1-0.6-0.2-0.8-0.4c-2.3-2-4.5-4-6.7-6c-0.3-0.2-0.5-0.5-0.9-0.8
			c0,0.3,0,0.5,0,0.7c0,2.5,0,5.1,0,7.6c0,1.6-0.8,2.4-2.4,2.4c-3.4,0-6.7,0-10.2,0c0.3,0.3,0.4,0.5,0.6,0.6
			c2.4,2.4,4.7,4.7,7.1,7.1c0.7,0.7,1,1.5,0.7,2.5c-0.3,0.9-0.9,1.5-1.8,1.6c-0.9,0.2-1.7-0.2-2.3-0.8c-2.6-2.6-5.2-5.2-7.8-7.8
			c-0.7-0.7-1.5-1.5-2.2-2.3c-0.2,0.2-0.4,0.4-0.6,0.6c-3.2,3.2-6.5,6.5-9.7,9.7c-0.6,0.6-1.4,1.1-2.3,0.9s-1.6-0.7-1.9-1.6
			c-0.3-1,0-1.8,0.7-2.5c2.4-2.4,4.9-4.9,7.3-7.3C27.8,54.7,27.9,54.5,28.2,54.2z"/>
		<path fill="#58595B" d="M43,29.5c-6.1,0.1-11.2-4.9-11.3-11.2c-0.1-6.1,5-11.2,11.1-11.3c6.2,0,11.3,5,11.4,11.1
			C54.2,24.4,49.3,29.4,43,29.5z"/>
		<path fill="#58595B" d="M28.4,21.7c-0.1,4.4-3.6,7.9-8,7.8s-7.8-3.7-7.8-8c0.1-4.3,3.6-7.8,7.9-7.7C24.9,13.8,28.4,17.4,28.4,21.7
			z"/>
	</g>
</g>
</svg>
