<svg xmlns="http://www.w3.org/2000/svg" xmlns:xlink="http://www.w3.org/1999/xlink" preserveAspectRatio="xMidYMid" width="90" height="90" viewBox="0 0 30 30">
  <defs>
    <style>
      .cls-1 {
        fill: #000;
        fill-rule: evenodd;
      }
    </style>
  </defs>
  <path d="M15.000,28.000 C7.820,28.000 2.000,22.180 2.000,15.000 C2.000,7.820 7.820,2.000 15.000,2.000 C22.180,2.000 28.000,7.820 28.000,15.000 C28.000,22.180 22.180,28.000 15.000,28.000 ZM15.000,4.000 C8.925,4.000 4.000,8.925 4.000,15.000 C4.000,21.075 8.925,26.000 15.000,26.000 C21.075,26.000 26.000,21.075 26.000,15.000 C26.000,8.925 21.075,4.000 15.000,4.000 ZM19.000,16.000 L16.000,16.000 L16.000,19.000 C16.000,20.000 16.000,20.000 15.000,20.000 C14.000,20.000 14.000,20.000 14.000,19.000 L14.000,16.000 L11.000,16.000 C10.000,16.000 10.000,16.000 10.000,15.000 C10.000,14.000 10.000,14.000 11.000,14.000 L14.000,14.000 L14.000,11.000 C14.000,10.000 14.000,10.000 15.000,10.000 C16.000,10.000 16.000,10.000 16.000,11.000 L16.000,14.000 L19.000,14.000 C20.000,14.000 20.000,14.000 20.000,15.000 C20.000,16.000 20.000,16.000 19.000,16.000 Z" class="cls-1"/>
</svg>
