<svg xmlns="http://www.w3.org/2000/svg" xmlns:xlink="http://www.w3.org/1999/xlink" preserveAspectRatio="xMidYMid" width="48" height="48" viewBox="0 0 48 48">
  <defs>
    <style>
      .cls-1 {
        fill: #000;
        fill-rule: evenodd;
      }
    </style>
  </defs>
  <g id="artboard-1">
    <path d="M7.000,14.000 C4.791,14.000 3.000,12.209 3.000,10.000 C3.000,7.791 4.791,6.000 7.000,6.000 C9.209,6.000 11.000,7.791 11.000,10.000 C11.000,12.209 9.209,14.000 7.000,14.000 ZM7.000,8.000 C5.594,8.000 5.000,8.594 5.000,10.000 C5.000,11.406 5.594,12.000 7.000,12.000 C8.406,12.000 9.000,11.406 9.000,10.000 C9.000,8.594 8.406,8.000 7.000,8.000 Z" class="cls-1"/>
    <path d="M16.500,8.000 L43.500,8.000 C44.328,8.000 45.000,8.672 45.000,9.500 C45.000,10.328 44.328,11.000 43.500,11.000 L16.500,11.000 C15.672,11.000 15.000,10.328 15.000,9.500 C15.000,8.672 15.672,8.000 16.500,8.000 Z" class="cls-1"/>
    <path d="M7.000,28.000 C4.791,28.000 3.000,26.209 3.000,24.000 C3.000,21.791 4.791,20.000 7.000,20.000 C9.209,20.000 11.000,21.791 11.000,24.000 C11.000,26.209 9.209,28.000 7.000,28.000 ZM7.000,22.000 C5.594,22.000 5.000,22.594 5.000,24.000 C5.000,25.406 5.594,26.000 7.000,26.000 C8.406,26.000 9.000,25.406 9.000,24.000 C9.000,22.594 8.406,22.000 7.000,22.000 Z" class="cls-1"/>
    <path d="M16.500,22.000 L43.500,22.000 C44.328,22.000 45.000,22.672 45.000,23.500 C45.000,24.328 44.328,25.000 43.500,25.000 L16.500,25.000 C15.672,25.000 15.000,24.328 15.000,23.500 C15.000,22.672 15.672,22.000 16.500,22.000 Z" class="cls-1"/>
    <path d="M7.000,42.000 C4.791,42.000 3.000,40.209 3.000,38.000 C3.000,35.791 4.791,34.000 7.000,34.000 C9.209,34.000 11.000,35.791 11.000,38.000 C11.000,40.209 9.209,42.000 7.000,42.000 ZM7.000,36.000 C5.594,36.000 5.000,36.594 5.000,38.000 C5.000,39.406 5.594,40.000 7.000,40.000 C8.406,40.000 9.000,39.406 9.000,38.000 C9.000,36.594 8.406,36.000 7.000,36.000 Z" class="cls-1"/>
    <path d="M16.500,36.000 L43.500,36.000 C44.328,36.000 45.000,36.672 45.000,37.500 C45.000,38.328 44.328,39.000 43.500,39.000 L16.500,39.000 C15.672,39.000 15.000,38.328 15.000,37.500 C15.000,36.672 15.672,36.000 16.500,36.000 Z" class="cls-1"/>
  </g>
</svg>
