<svg xmlns="http://www.w3.org/2000/svg" xmlns:xlink="http://www.w3.org/1999/xlink" preserveAspectRatio="xMidYMid" width="3744" height="55" viewBox="0 0 3744 55">
  <defs>
    <style>

      .cls-2 {
        fill: #00ffff;
      }
    </style>
  </defs>
  <path d="M3719.000,32.000 C3719.000,32.000 3692.000,55.000 3692.000,55.000 C3692.000,55.000 3667.000,32.000 3667.000,32.000 C3667.000,32.000 3640.000,55.000 3640.000,55.000 C3640.000,55.000 3615.000,32.000 3615.000,32.000 C3615.000,32.000 3588.000,55.000 3588.000,55.000 C3588.000,55.000 3563.000,32.000 3563.000,32.000 C3563.000,32.000 3536.000,55.000 3536.000,55.000 C3536.000,55.000 3511.000,32.000 3511.000,32.000 C3511.000,32.000 3484.000,55.000 3484.000,55.000 C3484.000,55.000 3459.000,32.000 3459.000,32.000 C3459.000,32.000 3432.000,55.000 3432.000,55.000 C3432.000,55.000 3407.000,32.000 3407.000,32.000 C3407.000,32.000 3380.000,55.000 3380.000,55.000 C3380.000,55.000 3355.000,32.000 3355.000,32.000 C3355.000,32.000 3328.000,55.000 3328.000,55.000 C3328.000,55.000 3303.000,32.000 3303.000,32.000 C3303.000,32.000 3276.000,55.000 3276.000,55.000 C3276.000,55.000 3251.000,32.000 3251.000,32.000 C3251.000,32.000 3224.000,55.000 3224.000,55.000 C3224.000,55.000 3199.000,32.000 3199.000,32.000 C3199.000,32.000 3172.000,55.000 3172.000,55.000 C3172.000,55.000 3147.000,32.000 3147.000,32.000 C3147.000,32.000 3120.000,55.000 3120.000,55.000 C3120.000,55.000 3095.000,32.000 3095.000,32.000 C3095.000,32.000 3068.000,55.000 3068.000,55.000 C3068.000,55.000 3043.000,32.000 3043.000,32.000 C3043.000,32.000 3016.000,55.000 3016.000,55.000 C3016.000,55.000 2991.000,32.000 2991.000,32.000 C2991.000,32.000 2964.000,55.000 2964.000,55.000 C2964.000,55.000 2939.000,32.000 2939.000,32.000 C2939.000,32.000 2912.000,55.000 2912.000,55.000 C2912.000,55.000 2887.000,32.000 2887.000,32.000 C2887.000,32.000 2860.000,55.000 2860.000,55.000 C2860.000,55.000 2835.000,32.000 2835.000,32.000 C2835.000,32.000 2808.000,55.000 2808.000,55.000 C2808.000,55.000 2783.000,32.000 2783.000,32.000 C2783.000,32.000 2756.000,55.000 2756.000,55.000 C2756.000,55.000 2731.000,32.000 2731.000,32.000 C2731.000,32.000 2704.000,55.000 2704.000,55.000 C2704.000,55.000 2679.000,32.000 2679.000,32.000 C2679.000,32.000 2652.000,55.000 2652.000,55.000 C2652.000,55.000 2627.000,32.000 2627.000,32.000 C2627.000,32.000 2600.000,55.000 2600.000,55.000 C2600.000,55.000 2575.000,32.000 2575.000,32.000 C2575.000,32.000 2548.000,55.000 2548.000,55.000 C2548.000,55.000 2523.000,32.000 2523.000,32.000 C2523.000,32.000 2496.000,55.000 2496.000,55.000 C2496.000,55.000 2471.000,32.000 2471.000,32.000 C2471.000,32.000 2444.000,55.000 2444.000,55.000 C2444.000,55.000 2419.000,32.000 2419.000,32.000 C2419.000,32.000 2392.000,55.000 2392.000,55.000 C2392.000,55.000 2367.000,32.000 2367.000,32.000 C2367.000,32.000 2340.000,55.000 2340.000,55.000 C2340.000,55.000 2315.000,32.000 2315.000,32.000 C2315.000,32.000 2288.000,55.000 2288.000,55.000 C2288.000,55.000 2263.000,32.000 2263.000,32.000 C2263.000,32.000 2236.000,55.000 2236.000,55.000 C2236.000,55.000 2211.000,32.000 2211.000,32.000 C2211.000,32.000 2184.000,55.000 2184.000,55.000 C2184.000,55.000 2159.000,32.000 2159.000,32.000 C2159.000,32.000 2132.000,55.000 2132.000,55.000 C2132.000,55.000 2107.000,32.000 2107.000,32.000 C2107.000,32.000 2080.000,55.000 2080.000,55.000 C2080.000,55.000 2055.000,32.000 2055.000,32.000 C2055.000,32.000 2028.000,55.000 2028.000,55.000 C2028.000,55.000 2003.000,32.000 2003.000,32.000 C2003.000,32.000 1976.000,55.000 1976.000,55.000 C1976.000,55.000 1951.000,32.000 1951.000,32.000 C1951.000,32.000 1924.000,55.000 1924.000,55.000 C1924.000,55.000 1899.000,32.000 1899.000,32.000 C1899.000,32.000 1872.000,55.000 1872.000,55.000 C1872.000,55.000 1847.000,32.000 1847.000,32.000 C1847.000,32.000 1820.000,55.000 1820.000,55.000 C1820.000,55.000 1795.000,32.000 1795.000,32.000 C1795.000,32.000 1768.000,55.000 1768.000,55.000 C1768.000,55.000 1743.000,32.000 1743.000,32.000 C1743.000,32.000 1716.000,55.000 1716.000,55.000 C1716.000,55.000 1691.000,32.000 1691.000,32.000 C1691.000,32.000 1664.000,55.000 1664.000,55.000 C1664.000,55.000 1639.000,32.000 1639.000,32.000 C1639.000,32.000 1612.000,55.000 1612.000,55.000 C1612.000,55.000 1587.000,32.000 1587.000,32.000 C1587.000,32.000 1560.000,55.000 1560.000,55.000 C1560.000,55.000 1535.000,32.000 1535.000,32.000 C1535.000,32.000 1508.000,55.000 1508.000,55.000 C1508.000,55.000 1483.000,32.000 1483.000,32.000 C1483.000,32.000 1456.000,55.000 1456.000,55.000 C1456.000,55.000 1431.000,32.000 1431.000,32.000 C1431.000,32.000 1404.000,55.000 1404.000,55.000 C1404.000,55.000 1379.000,32.000 1379.000,32.000 C1379.000,32.000 1352.000,55.000 1352.000,55.000 C1352.000,55.000 1327.000,32.000 1327.000,32.000 C1327.000,32.000 1300.000,55.000 1300.000,55.000 C1300.000,55.000 1275.000,32.000 1275.000,32.000 C1275.000,32.000 1248.000,55.000 1248.000,55.000 C1248.000,55.000 1223.000,32.000 1223.000,32.000 C1223.000,32.000 1196.000,55.000 1196.000,55.000 C1196.000,55.000 1171.000,32.000 1171.000,32.000 C1171.000,32.000 1144.000,55.000 1144.000,55.000 C1144.000,55.000 1119.000,32.000 1119.000,32.000 C1119.000,32.000 1092.000,55.000 1092.000,55.000 C1092.000,55.000 1067.000,32.000 1067.000,32.000 C1067.000,32.000 1040.000,55.000 1040.000,55.000 C1040.000,55.000 1015.000,32.000 1015.000,32.000 C1015.000,32.000 988.000,55.000 988.000,55.000 C988.000,55.000 963.000,32.000 963.000,32.000 C963.000,32.000 936.000,55.000 936.000,55.000 C936.000,55.000 911.000,32.000 911.000,32.000 C911.000,32.000 884.000,55.000 884.000,55.000 C884.000,55.000 859.000,32.000 859.000,32.000 C859.000,32.000 832.000,55.000 832.000,55.000 C832.000,55.000 807.000,32.000 807.000,32.000 C807.000,32.000 780.000,55.000 780.000,55.000 C780.000,55.000 755.000,32.000 755.000,32.000 C755.000,32.000 728.000,55.000 728.000,55.000 C728.000,55.000 703.000,32.000 703.000,32.000 C703.000,32.000 676.000,55.000 676.000,55.000 C676.000,55.000 651.000,32.000 651.000,32.000 C651.000,32.000 624.000,55.000 624.000,55.000 C624.000,55.000 599.000,32.000 599.000,32.000 C599.000,32.000 572.000,55.000 572.000,55.000 C572.000,55.000 547.000,32.000 547.000,32.000 C547.000,32.000 520.000,55.000 520.000,55.000 C520.000,55.000 495.000,32.000 495.000,32.000 C495.000,32.000 468.000,55.000 468.000,55.000 C468.000,55.000 443.000,32.000 443.000,32.000 C443.000,32.000 416.000,55.000 416.000,55.000 C416.000,55.000 391.000,32.000 391.000,32.000 C391.000,32.000 364.000,55.000 364.000,55.000 C364.000,55.000 339.000,32.000 339.000,32.000 C339.000,32.000 312.000,55.000 312.000,55.000 C312.000,55.000 287.000,32.000 287.000,32.000 C287.000,32.000 260.000,55.000 260.000,55.000 C260.000,55.000 235.000,32.000 235.000,32.000 C235.000,32.000 208.000,55.000 208.000,55.000 C208.000,55.000 183.000,32.000 183.000,32.000 C183.000,32.000 156.000,55.000 156.000,55.000 C156.000,55.000 131.000,32.000 131.000,32.000 C131.000,32.000 104.000,55.000 104.000,55.000 C104.000,55.000 79.000,32.000 79.000,32.000 C79.000,32.000 52.000,55.000 52.000,55.000 C52.000,55.000 27.000,32.000 27.000,32.000 C27.000,32.000 -0.000,55.000 -0.000,55.000 C-0.000,55.000 -0.000,23.000 -0.000,23.000 C-0.000,23.000 27.000,-0.000 27.000,-0.000 C27.000,-0.000 52.000,23.000 52.000,23.000 C52.000,23.000 79.000,-0.000 79.000,-0.000 C79.000,-0.000 104.000,23.000 104.000,23.000 C104.000,23.000 131.000,-0.000 131.000,-0.000 C131.000,-0.000 156.000,23.000 156.000,23.000 C156.000,23.000 183.000,-0.000 183.000,-0.000 C183.000,-0.000 208.000,23.000 208.000,23.000 C208.000,23.000 235.000,-0.000 235.000,-0.000 C235.000,-0.000 260.000,23.000 260.000,23.000 C260.000,23.000 287.000,-0.000 287.000,-0.000 C287.000,-0.000 312.000,23.000 312.000,23.000 C312.000,23.000 339.000,-0.000 339.000,-0.000 C339.000,-0.000 364.000,23.000 364.000,23.000 C364.000,23.000 391.000,-0.000 391.000,-0.000 C391.000,-0.000 416.000,23.000 416.000,23.000 C416.000,23.000 443.000,-0.000 443.000,-0.000 C443.000,-0.000 468.000,23.000 468.000,23.000 C468.000,23.000 495.000,-0.000 495.000,-0.000 C495.000,-0.000 520.000,23.000 520.000,23.000 C520.000,23.000 547.000,-0.000 547.000,-0.000 C547.000,-0.000 572.000,23.000 572.000,23.000 C572.000,23.000 599.000,-0.000 599.000,-0.000 C599.000,-0.000 624.000,23.000 624.000,23.000 C624.000,23.000 651.000,-0.000 651.000,-0.000 C651.000,-0.000 676.000,23.000 676.000,23.000 C676.000,23.000 703.000,-0.000 703.000,-0.000 C703.000,-0.000 728.000,23.000 728.000,23.000 C728.000,23.000 755.000,-0.000 755.000,-0.000 C755.000,-0.000 780.000,23.000 780.000,23.000 C780.000,23.000 807.000,-0.000 807.000,-0.000 C807.000,-0.000 832.000,23.000 832.000,23.000 C832.000,23.000 859.000,-0.000 859.000,-0.000 C859.000,-0.000 884.000,23.000 884.000,23.000 C884.000,23.000 911.000,-0.000 911.000,-0.000 C911.000,-0.000 936.000,23.000 936.000,23.000 C936.000,23.000 963.000,-0.000 963.000,-0.000 C963.000,-0.000 988.000,23.000 988.000,23.000 C988.000,23.000 1015.000,-0.000 1015.000,-0.000 C1015.000,-0.000 1040.000,23.000 1040.000,23.000 C1040.000,23.000 1067.000,-0.000 1067.000,-0.000 C1067.000,-0.000 1092.000,23.000 1092.000,23.000 C1092.000,23.000 1119.000,-0.000 1119.000,-0.000 C1119.000,-0.000 1144.000,23.000 1144.000,23.000 C1144.000,23.000 1171.000,-0.000 1171.000,-0.000 C1171.000,-0.000 1196.000,23.000 1196.000,23.000 C1196.000,23.000 1223.000,-0.000 1223.000,-0.000 C1223.000,-0.000 1248.000,23.000 1248.000,23.000 C1248.000,23.000 1275.000,-0.000 1275.000,-0.000 C1275.000,-0.000 1300.000,23.000 1300.000,23.000 C1300.000,23.000 1327.000,-0.000 1327.000,-0.000 C1327.000,-0.000 1352.000,23.000 1352.000,23.000 C1352.000,23.000 1379.000,-0.000 1379.000,-0.000 C1379.000,-0.000 1404.000,23.000 1404.000,23.000 C1404.000,23.000 1431.000,-0.000 1431.000,-0.000 C1431.000,-0.000 1456.000,23.000 1456.000,23.000 C1456.000,23.000 1483.000,-0.000 1483.000,-0.000 C1483.000,-0.000 1508.000,23.000 1508.000,23.000 C1508.000,23.000 1535.000,-0.000 1535.000,-0.000 C1535.000,-0.000 1560.000,23.000 1560.000,23.000 C1560.000,23.000 1587.000,-0.000 1587.000,-0.000 C1587.000,-0.000 1612.000,23.000 1612.000,23.000 C1612.000,23.000 1639.000,-0.000 1639.000,-0.000 C1639.000,-0.000 1664.000,23.000 1664.000,23.000 C1664.000,23.000 1691.000,-0.000 1691.000,-0.000 C1691.000,-0.000 1716.000,23.000 1716.000,23.000 C1716.000,23.000 1743.000,-0.000 1743.000,-0.000 C1743.000,-0.000 1768.000,23.000 1768.000,23.000 C1768.000,23.000 1795.000,-0.000 1795.000,-0.000 C1795.000,-0.000 1820.000,23.000 1820.000,23.000 C1820.000,23.000 1847.000,-0.000 1847.000,-0.000 C1847.000,-0.000 1872.000,23.000 1872.000,23.000 C1872.000,23.000 1899.000,-0.000 1899.000,-0.000 C1899.000,-0.000 1924.000,23.000 1924.000,23.000 C1924.000,23.000 1951.000,-0.000 1951.000,-0.000 C1951.000,-0.000 1976.000,23.000 1976.000,23.000 C1976.000,23.000 2003.000,-0.000 2003.000,-0.000 C2003.000,-0.000 2028.000,23.000 2028.000,23.000 C2028.000,23.000 2055.000,-0.000 2055.000,-0.000 C2055.000,-0.000 2080.000,23.000 2080.000,23.000 C2080.000,23.000 2107.000,-0.000 2107.000,-0.000 C2107.000,-0.000 2132.000,23.000 2132.000,23.000 C2132.000,23.000 2159.000,-0.000 2159.000,-0.000 C2159.000,-0.000 2184.000,23.000 2184.000,23.000 C2184.000,23.000 2211.000,-0.000 2211.000,-0.000 C2211.000,-0.000 2236.000,23.000 2236.000,23.000 C2236.000,23.000 2263.000,-0.000 2263.000,-0.000 C2263.000,-0.000 2288.000,23.000 2288.000,23.000 C2288.000,23.000 2315.000,-0.000 2315.000,-0.000 C2315.000,-0.000 2340.000,23.000 2340.000,23.000 C2340.000,23.000 2367.000,-0.000 2367.000,-0.000 C2367.000,-0.000 2392.000,23.000 2392.000,23.000 C2392.000,23.000 2419.000,-0.000 2419.000,-0.000 C2419.000,-0.000 2444.000,23.000 2444.000,23.000 C2444.000,23.000 2471.000,-0.000 2471.000,-0.000 C2471.000,-0.000 2496.000,23.000 2496.000,23.000 C2496.000,23.000 2523.000,-0.000 2523.000,-0.000 C2523.000,-0.000 2548.000,23.000 2548.000,23.000 C2548.000,23.000 2575.000,-0.000 2575.000,-0.000 C2575.000,-0.000 2600.000,23.000 2600.000,23.000 C2600.000,23.000 2627.000,-0.000 2627.000,-0.000 C2627.000,-0.000 2652.000,23.000 2652.000,23.000 C2652.000,23.000 2679.000,-0.000 2679.000,-0.000 C2679.000,-0.000 2704.000,23.000 2704.000,23.000 C2704.000,23.000 2731.000,-0.000 2731.000,-0.000 C2731.000,-0.000 2756.000,23.000 2756.000,23.000 C2756.000,23.000 2783.000,-0.000 2783.000,-0.000 C2783.000,-0.000 2808.000,23.000 2808.000,23.000 C2808.000,23.000 2835.000,-0.000 2835.000,-0.000 C2835.000,-0.000 2860.000,23.000 2860.000,23.000 C2860.000,23.000 2887.000,-0.000 2887.000,-0.000 C2887.000,-0.000 2912.000,23.000 2912.000,23.000 C2912.000,23.000 2939.000,-0.000 2939.000,-0.000 C2939.000,-0.000 2964.000,23.000 2964.000,23.000 C2964.000,23.000 2991.000,-0.000 2991.000,-0.000 C2991.000,-0.000 3016.000,23.000 3016.000,23.000 C3016.000,23.000 3043.000,-0.000 3043.000,-0.000 C3043.000,-0.000 3068.000,23.000 3068.000,23.000 C3068.000,23.000 3095.000,-0.000 3095.000,-0.000 C3095.000,-0.000 3120.000,23.000 3120.000,23.000 C3120.000,23.000 3147.000,-0.000 3147.000,-0.000 C3147.000,-0.000 3172.000,23.000 3172.000,23.000 C3172.000,23.000 3199.000,-0.000 3199.000,-0.000 C3199.000,-0.000 3224.000,23.000 3224.000,23.000 C3224.000,23.000 3251.000,-0.000 3251.000,-0.000 C3251.000,-0.000 3276.000,23.000 3276.000,23.000 C3276.000,23.000 3303.000,-0.000 3303.000,-0.000 C3303.000,-0.000 3328.000,23.000 3328.000,23.000 C3328.000,23.000 3355.000,-0.000 3355.000,-0.000 C3355.000,-0.000 3380.000,23.000 3380.000,23.000 C3380.000,23.000 3407.000,-0.000 3407.000,-0.000 C3407.000,-0.000 3432.000,23.000 3432.000,23.000 C3432.000,23.000 3459.000,-0.000 3459.000,-0.000 C3459.000,-0.000 3484.000,23.000 3484.000,23.000 C3484.000,23.000 3511.000,-0.000 3511.000,-0.000 C3511.000,-0.000 3536.000,23.000 3536.000,23.000 C3536.000,23.000 3563.000,-0.000 3563.000,-0.000 C3563.000,-0.000 3588.000,23.000 3588.000,23.000 C3588.000,23.000 3615.000,-0.000 3615.000,-0.000 C3615.000,-0.000 3640.000,23.000 3640.000,23.000 C3640.000,23.000 3667.000,-0.000 3667.000,-0.000 C3667.000,-0.000 3692.000,23.000 3692.000,23.000 C3692.000,23.000 3719.000,-0.000 3719.000,-0.000 C3719.000,-0.000 3744.000,23.000 3744.000,23.000 C3744.000,23.000 3744.000,55.000 3744.000,55.000 C3744.000,55.000 3719.000,32.000 3719.000,32.000 Z" id="path-1" class="cls-2" fill-rule="evenodd"/>
</svg>
